*
*
G04 PADS VX.1.1 Build Number: 678707 generated Gerber (RS-274-X) file*
G04 PC Version=2.1*
*
%IN "3 Phase IDR (11-21-2015"*%
*
%MOIN*%
*
%FSLAX35Y35*%
*
*
*
*
G04 PC Standard Apertures*
*
*
G04 Thermal Relief Aperture macro.*
%AMTER*
1,1,$1,0,0*
1,0,$1-$2,0,0*
21,0,$3,$4,0,0,45*
21,0,$3,$4,0,0,135*
%
*
*
G04 Annular Aperture macro.*
%AMANN*
1,1,$1,0,0*
1,0,$2,0,0*
%
*
*
G04 Odd Aperture macro.*
%AMODD*
1,1,$1,0,0*
1,0,$1-0.005,0,0*
%
*
*
G04 PC Custom Aperture Macros*
*
*
*
*
*
*
G04 PC Aperture Table*
*
%ADD010C,0.001*%
%ADD014C,0.15*%
%ADD015C,0.325*%
%ADD021C,0.28*%
%ADD022C,0.07*%
%ADD023C,0.01*%
%ADD024C,0.012*%
%ADD025C,0.02*%
%ADD026R,0.071X0.138*%
%ADD027R,0.07X0.09*%
%ADD028R,0.035X0.04*%
%ADD029R,0.04X0.035*%
%ADD030R,0.035X0.03*%
*
*
*
*
G04 PC Circuitry*
G04 Layer Name 3 Phase IDR (11-21-2015 - circuitry*
%LPD*%
*
*
G04 PC Custom Flashes*
G04 Layer Name 3 Phase IDR (11-21-2015 - flashes*
%LPD*%
*
*
G04 PC Circuitry*
G04 Layer Name 3 Phase IDR (11-21-2015 - circuitry*
%LPD*%
*
G54D10*
G54D14*
G01X114000Y330000D03*
X488000Y324000D03*
Y176000D03*
X114000Y246000D03*
Y166000D03*
G54D15*
X146000Y330000D03*
Y246000D03*
Y166000D03*
X458000Y346000D03*
Y151000D03*
Y297000D03*
Y204000D03*
G54D21*
X118000Y382000D03*
X482000D03*
X118000Y118000D03*
X482000D03*
G54D22*
X456000Y392000D03*
X140000Y108000D03*
G54D23*
X488500Y218000D02*
G75*
G03X488500I-2500J0D01*
G01X475750Y151000D02*
G03X475750I-17750J0D01*
G01Y204000D02*
G03X475750I-17750J0D01*
G01X321500Y181000D02*
G03X321500I-2500J0D01*
G01Y284500D02*
G03X321500I-2500J0D01*
G01X287500Y240000D02*
Y247939D01*
G03X286688Y248329I-500J-0*
G01X285750Y248000D02*
G03X286688Y248329I0J1500D01*
G01X285750Y248000D02*
X284177D01*
G03X283823Y247854I-0J-500*
G01X283358Y247388*
G03X283284Y246776I354J-353*
G01X283500Y246000D02*
G03X283284Y246776I-1500J0D01*
G01X283500Y246000D02*
Y242000D01*
X282007Y240500D02*
G03X283500Y242000I-7J1500D01*
G01X282007Y240500D02*
G03X282009Y239500I2J-500D01*
G01X287000*
G03X287500Y240000I0J500*
G01X278491Y239500D02*
G03X278493Y240500I-0J500D01*
G01X277000Y242000D02*
G03X278493Y240500I1500J0D01*
G01X277000Y242000D02*
Y246000D01*
X277755Y247302D02*
G03X277000Y246000I745J-1302D01*
G01X277755Y247302D02*
G03X277986Y247594I-249J434D01*
G01X278230Y248131D02*
G03X277986Y247594I1770J-1131D01*
G01X278230Y248131D02*
G03X277809Y248900I-421J269D01*
G01X264497*
G03X264247Y248833I-0J-500*
G01X262552Y248540D02*
G03X264247Y248833I448J2460D01*
G01X262552Y248540D02*
G03X262109Y248402I-89J-492D01*
G01X254061Y240354*
G03X254414Y239500I353J-354*
G01X278491*
X306500Y103000D02*
Y166000D01*
G03X306000Y166500I-500J-0*
G01X304578Y167521D02*
G03X306000Y166500I1422J479D01*
G01X304578Y167521D02*
G03X303754Y167718I-474J-159D01*
G01X301792Y171991D02*
G03X303754Y167718I208J-2491D01*
G01X301792Y171991D02*
G03X301895Y172011I-42J499D01*
G01X302500Y172100D02*
G03X301895Y172011I0J-2100D01*
G01X302500Y172100D02*
X304092D01*
G03X304569Y172450I0J500*
G01X304594Y172523D02*
G03X304569Y172450I1406J-523D01*
G01X304594Y172523D02*
G03X304479Y173051I-468J174D01*
G01X304177Y173354*
G03X303823Y173500I-354J-354*
G01X302250*
X301312Y173829D02*
G03X302250Y173500I938J1171D01*
G01X301312Y173829D02*
G03X300688I-312J-390D01*
G01X299750Y173500D02*
G03X300688Y173829I0J1500D01*
G01X299750Y173500D02*
X297732D01*
G03X297299Y172750I0J-500*
G01X297500Y172000D02*
G03X297299Y172750I-1500J0D01*
G01X297500Y172000D02*
Y168000D01*
X296000Y166500D02*
G03X297500Y168000I0J1500D01*
G01X296000Y166500D02*
X292500D01*
X291000Y168000D02*
G03X292500Y166500I1500J0D01*
G01X291000Y168000D02*
Y172000D01*
X291877Y173365D02*
G03X291000Y172000I623J-1365D01*
G01X291877Y173365D02*
G03X292166Y173758I-207J455D01*
G01X292350Y174395D02*
G03X292166Y173758I1900J-895D01*
G01X292350Y174395D02*
G03X291736Y175081I-452J213D01*
G01X291250Y175000D02*
G03X291736Y175081I0J1500D01*
G01X291250Y175000D02*
X287750D01*
X286812Y175329D02*
G03X287750Y175000I938J1171D01*
G01X286812Y175329D02*
G03X286188I-312J-390D01*
G01X285250Y175000D02*
G03X286188Y175329I0J1500D01*
G01X285250Y175000D02*
X282600D01*
G03X282100Y174500I0J-500*
G01Y173997*
G03X282167Y173747I500J-0*
G01X277833D02*
G03X282167I2167J-1247D01*
G01X277833D02*
G03X277900Y173997I-433J250D01*
G01Y181330*
G03X277675Y181747I-500J-0*
G01X277000Y183000D02*
G03X277675Y181747I1500J0D01*
G01X277000Y183000D02*
Y187000D01*
X278493Y188500D02*
G03X277000Y187000I7J-1500D01*
G01X278493Y188500D02*
G03Y189500I-2J500D01*
G01X277000Y191000D02*
G03X278493Y189500I1500J0D01*
G01X277000Y191000D02*
Y195000D01*
X278075Y196439D02*
G03X277000Y195000I425J-1439D01*
G01X278075Y196439D02*
G03X278427Y196838I-141J479D01*
G01X278530Y197227D02*
G03X278427Y196838I1970J-727D01*
G01X278530Y197227D02*
G03X278061Y197900I-469J173D01*
G01X265500*
X264064Y198467D02*
G03X265500Y197900I1436J1533D01*
G01X264064Y198467D02*
G03X263852Y198585I-342J-365D01*
G01X263155Y198893D02*
G03X263852Y198585I1345J2107D01*
G01X263155Y198893D02*
G03X262532Y198825I-269J-422D01*
G01X259646Y195939*
G03X259500Y195586I354J-353*
G01Y103000*
G03X260000Y102500I500J0*
G01X306000*
G03X306500Y103000I0J500*
G01Y179984D02*
Y199000D01*
G03X306000Y199500I-500J0*
G01X304323*
G03X303992Y198625I-0J-500*
G01X304500Y197500D02*
G03X303992Y198625I-1500J0D01*
G01X304500Y197500D02*
Y194000D01*
X303000Y192500D02*
G03X304500Y194000I0J1500D01*
G01X303000Y192500D02*
X302828D01*
G03X302357Y191833I0J-500*
G01X297662Y190115D02*
G03X302357Y191833I2338J885D01*
G01X297662Y190115D02*
G03X296771Y190203I-468J-178D01*
G01X296138Y189642D02*
G03X296771Y190203I-638J1358D01*
G01X296138Y189642D02*
G03X295850Y189190I212J-452D01*
G01Y188810*
G03X296138Y188358I500J0*
G01X297000Y187000D02*
G03X296138Y188358I-1500J0D01*
G01X297000Y187000D02*
Y183000D01*
X296123Y181635D02*
G03X297000Y183000I-623J1365D01*
G01X296123Y181635D02*
G03X295834Y181242I207J-455D01*
G01X295441Y180255D02*
G03X295834Y181242I-1691J1245D01*
G01X295441Y180255D02*
G03X295945Y179469I403J-297D01*
G01X296250Y179500D02*
G03X295945Y179469I0J-1500D01*
G01X296250Y179500D02*
X299750D01*
X300688Y179171D02*
G03X299750Y179500I-938J-1171D01*
G01X300688Y179171D02*
G03X301312I312J390D01*
G01X302250Y179500D02*
G03X301312Y179171I0J-1500D01*
G01X302250Y179500D02*
X305750D01*
X305937Y179488D02*
G03X305750Y179500I-187J-1488D01*
G01X305938Y179488D02*
G03X306500Y179984I62J496D01*
G01X290742Y181462D02*
G03X290791Y182112I-354J353D01*
G01X290500Y183000D02*
G03X290791Y182112I1500J0D01*
G01X290500Y183000D02*
Y186042D01*
G03X290083Y186535I-500J-0*
G01Y191465D02*
G03Y186535I417J-2465D01*
G01Y191465D02*
G03X290500Y191958I-83J493D01*
G01Y195000*
X290716Y195776D02*
G03X290500Y195000I1284J-776D01*
G01X290716Y195776D02*
G03X290642Y196388I-428J259D01*
G01X290177Y196854*
G03X289823Y197000I-354J-354*
G01X288250*
X287312Y197329D02*
G03X288250Y197000I938J1171D01*
G01X287312Y197329D02*
G03X286688I-312J-390D01*
G01X285750Y197000D02*
G03X286688Y197329I0J1500D01*
G01X285750Y197000D02*
X284177D01*
G03X283823Y196854I-0J-500*
G01X283358Y196388*
G03X283284Y195776I354J-353*
G01X283500Y195000D02*
G03X283284Y195776I-1500J0D01*
G01X283500Y195000D02*
Y191000D01*
X282007Y189500D02*
G03X283500Y191000I-7J1500D01*
G01X282007Y189500D02*
G03Y188500I2J-500D01*
G01X283500Y187000D02*
G03X282007Y188500I-1500J0D01*
G01X283500Y187000D02*
Y183000D01*
X283125Y182008D02*
G03X283500Y183000I-1125J992D01*
G01X283125Y182008D02*
G03X283146Y181323I375J-331D01*
G01X283323Y181146*
G03X283677Y181000I354J354*
G01X285250*
X286188Y180671D02*
G03X285250Y181000I-938J-1171D01*
G01X286188Y180671D02*
G03X286812I312J390D01*
G01X287750Y181000D02*
G03X286812Y180671I0J-1500D01*
G01X287750Y181000D02*
X290073D01*
G03X290427Y181146I0J500*
G01X290742Y181462*
X287500Y290000D02*
Y298939D01*
G03X286688Y299329I-500J-0*
G01X285750Y299000D02*
G03X286688Y299329I0J1500D01*
G01X285750Y299000D02*
X284177D01*
G03X283823Y298854I-0J-500*
G01X283358Y298388*
G03X283284Y297776I354J-353*
G01X283500Y297000D02*
G03X283284Y297776I-1500J0D01*
G01X283500Y297000D02*
Y293000D01*
X282000Y291500D02*
G03X283500Y293000I0J1500D01*
G01X282000Y291500D02*
X278500D01*
X277000Y293000D02*
G03X278500Y291500I1500J0D01*
G01X277000Y293000D02*
Y297000D01*
X278075Y298439D02*
G03X277000Y297000I425J-1439D01*
G01X278075Y298439D02*
G03X278427Y298838I-141J479D01*
G01X278439Y298904D02*
G03X278427Y298838I2061J-404D01*
G01X278439Y298904D02*
G03X277949Y299500I-490J96D01*
G01X257736*
G03X257363Y299333I0J-500*
G01X256756Y298839D02*
G03X257363Y299333I-1256J2161D01*
G01X256757Y298839D02*
G03X256654Y298053I251J-433D01*
G01X265061Y289646*
G03X265414Y289500I353J354*
G01X278491*
X278493*
X278500D02*
G03X278493I0J-1500D01*
G01X278500D02*
X282000D01*
X282007D02*
G03X282000I-7J-1500D01*
G01X282007D02*
X282009D01*
X287000*
G03X287500Y290000I0J500*
G01X305500Y203000D02*
Y215000D01*
G03X305000Y215500I-500J0*
G01X293500*
Y217500*
G03X293000Y218000I-500J-0*
G01X292500*
X291000Y219500D02*
G03X292500Y218000I1500J0D01*
G01X291000Y219500D02*
Y223500D01*
X291862Y224858D02*
G03X291000Y223500I638J-1358D01*
G01X291862Y224858D02*
G03X292150Y225310I-212J452D01*
G01Y225500*
G03X291650Y226000I-500J-0*
G01X288750*
X287250Y227500D02*
G03X288750Y226000I1500J0D01*
G01X287250Y227500D02*
Y230500D01*
X288112Y231858D02*
G03X287250Y230500I638J-1358D01*
G01X288112Y231858D02*
G03X288400Y232310I-212J452D01*
G01Y232750*
X289015Y234235D02*
G03X288400Y232750I1485J-1485D01*
G01X289015Y234235D02*
X290354Y235573D01*
G03X290500Y235927I-354J354*
G01Y237000*
G03X290000Y237500I-500J0*
G01X287510*
X287508*
X287500D02*
G03X287508I0J2000D01*
G01X287500D02*
X253207D01*
X253199D02*
G03X253207I8J2000D01*
G01X253199D02*
X253197D01*
X252414*
G03X252061Y237354I0J-500*
G01X220207Y205500*
X103000*
G03X102500Y205000I0J-500*
G01Y126000*
G03X103441Y125765I500J0*
G01X125765Y103441D02*
G03X103441Y125765I-7765J14559D01*
G01X125765Y103441D02*
G03X126000Y102500I235J-441D01*
G01X136683*
G03X136960Y103417I0J500*
G01X143040D02*
G03X136960I-3040J4583D01*
G01X143040D02*
G03X143317Y102500I277J-417D01*
G01X257000*
G03X257500Y103000I-0J500*
G01Y195793*
Y195801D02*
G03Y195793I2000J-8D01*
G01Y195801D02*
Y195803D01*
Y196207*
G03X257585Y196371I-393J309*
G01X258086Y197207D02*
G03X257585Y196371I1414J-1414D01*
G01X258086Y197207D02*
X261793Y200914D01*
X261857Y200976D02*
G03X261793Y200914I1350J-1476D01*
G01X261857Y200976D02*
G03X262017Y201287I-337J369D01*
G01X266363Y202667D02*
G03X262017Y201287I-1863J-1667D01*
G01X266363Y202667D02*
G03X266736Y202500I373J333D01*
G01X280927*
G03X281258Y202625I0J500*
G01X282250Y203000D02*
G03X281258Y202625I0J-1500D01*
G01X282250Y203000D02*
X285750D01*
X286688Y202671D02*
G03X285750Y203000I-938J-1171D01*
G01X286688Y202671D02*
G03X287312I312J390D01*
G01X288250Y203000D02*
G03X287312Y202671I0J-1500D01*
G01X288250Y203000D02*
X291750D01*
X292742Y202625D02*
G03X291750Y203000I-992J-1125D01*
G01X292742Y202625D02*
G03X293073Y202500I331J375D01*
G01X305000*
G03X305500Y203000I0J500*
G01Y253000D02*
Y269000D01*
G03X305000Y269500I-500J-0*
G01X304000*
X303993D02*
G03X304000I7J1500D01*
G01X303993D02*
X303991D01*
X302011*
X302009*
X301991D02*
G03X302009I9J2500D01*
G01X301991D02*
X301989D01*
X294009*
X294007*
X294000D02*
G03X294007I0J1500D01*
G01X294000D02*
X290500D01*
X289000Y271000D02*
G03X290500Y269500I1500J0D01*
G01X289000Y271000D02*
Y275000D01*
X289048Y275375D02*
G03X289000Y275000I1452J-375D01*
G01X289048Y275375D02*
G03X288563Y276000I-485J125D01*
G01X288250*
X286750Y277500D02*
G03X288250Y276000I1500J0D01*
G01X286750Y277500D02*
Y280500D01*
X287613Y281858D02*
G03X286750Y280500I637J-1358D01*
G01X287613Y281858D02*
G03X287901Y282299I-212J453D01*
G01X288515Y283735D02*
G03X287901Y282299I1485J-1485D01*
G01X288515Y283735D02*
X290354Y285573D01*
G03X290500Y285927I-354J354*
G01Y287000*
G03X290000Y287500I-500J0*
G01X287510*
X287508*
X287500D02*
G03X287508I0J2000D01*
G01X287500D02*
X265207D01*
X265199D02*
G03X265207I8J2000D01*
G01X265199D02*
X265197D01*
X263793*
X251939Y299354*
G03X251586Y299500I-353J-354*
G01X103000*
G03X102500Y299000I0J-500*
G01Y209000*
G03X103000Y208500I500J0*
G01X219586*
G03X219939Y208646I-0J500*
G01X251170Y239877*
G03X251294Y240084I-354J353*
G01X251793Y240914D02*
G03X251294Y240084I1414J-1414D01*
G01X251793Y240914D02*
X260525Y249646D01*
G03X260643Y250167I-353J354*
G01X264247Y253167D02*
G03X260643Y250167I-1247J-2167D01*
G01X264247Y253167D02*
G03X264497Y253100I250J433D01*
G01X280580*
G03X280997Y253325I-0J500*
G01X282250Y254000D02*
G03X280997Y253325I0J-1500D01*
G01X282250Y254000D02*
X285750D01*
X286688Y253671D02*
G03X285750Y254000I-938J-1171D01*
G01X286688Y253671D02*
G03X287312I312J390D01*
G01X288250Y254000D02*
G03X287312Y253671I0J-1500D01*
G01X288250Y254000D02*
X291750D01*
X293202Y252875D02*
G03X291750Y254000I-1452J-375D01*
G01X293202Y252875D02*
G03X293687Y252500I485J125D01*
G01X305000*
G03X305500Y253000I0J500*
G01Y303000D02*
Y397000D01*
G03X305000Y397500I-500J-0*
G01X126000*
G03X125765Y396559I0J-500*
G01X103441Y374235D02*
G03X125765Y396559I14559J7765D01*
G01X103441Y374235D02*
G03X102500Y374000I-441J-235D01*
G01Y303000*
G03X103000Y302500I500J0*
G01X253264*
G03X253637Y302667I-0J500*
G01X254852Y303415D02*
G03X253637Y302667I648J-2415D01*
G01X254852Y303415D02*
G03X255064Y303533I-130J483D01*
G01X256500Y304100D02*
G03X255064Y303533I0J-2100D01*
G01X256500Y304100D02*
X280580D01*
G03X280997Y304325I-0J500*
G01X282250Y305000D02*
G03X280997Y304325I0J-1500D01*
G01X282250Y305000D02*
X285750D01*
X286688Y304671D02*
G03X285750Y305000I-938J-1171D01*
G01X286688Y304671D02*
G03X287312I312J390D01*
G01X288250Y305000D02*
G03X287312Y304671I0J-1500D01*
G01X288250Y305000D02*
X291750D01*
X293250Y303500D02*
G03X291750Y305000I-1500J0D01*
G01X293250Y303500D02*
Y303000D01*
G03X293750Y302500I500J0*
G01X305000*
G03X305500Y303000I0J500*
G01X497500Y179042D02*
Y374000D01*
G03X496559Y374235I-500J-0*
G01X474235Y396559D02*
G03X496559Y374235I7765J-14559D01*
G01X474235Y396559D02*
G03X474000Y397500I-235J441D01*
G01X459317*
G03X459040Y396583I-0J-500*
G01X452960D02*
G03X459040I3040J-4583D01*
G01X452960D02*
G03X452683Y397500I-277J417D01*
G01X309000*
G03X308500Y397000I0J-500*
G01Y280011*
G03Y280000I500J0*
Y279989I500J-11*
G01Y276323*
G03X308625Y275992I500J-0*
G01X309000Y275000D02*
G03X308625Y275992I-1500J0D01*
G01X309000Y275000D02*
Y271000D01*
X308625Y270008D02*
G03X309000Y271000I-1125J992D01*
G01X308625Y270008D02*
G03X308500Y269677I375J-331D01*
G01Y228927*
G03X308646Y228573I500J-0*
G01X309146Y228073*
G03X310000Y228427I354J354*
G01Y230232*
X311500Y231732D02*
G03X310000Y230232I0J-1500D01*
G01X311500Y231732D02*
X316576D01*
G03X316980Y232527I0J500*
G01X320014Y231715D02*
G03X316980Y232527I-1014J2285D01*
G01X320014Y231715D02*
G03X319788Y231002I203J-457D01*
G01X320000Y230232D02*
G03X319788Y231002I-1500J0D01*
G01X320000Y230232D02*
Y221232D01*
X318500Y219732D02*
G03X320000Y221232I0J1500D01*
G01X318500Y219732D02*
X311500D01*
X311487D02*
G03X311500I13J1500D01*
G01X311487D02*
G03X310987Y219299I-5J-500D01*
G01X309500Y218000D02*
G03X310987Y219299I0J1500D01*
G01X309500Y218000D02*
X309000D01*
G03X308500Y217500I0J-500*
G01Y199510*
Y199508*
Y199500D02*
G03Y199508I-2000J0D01*
G01Y199500D02*
Y177016D01*
G03Y177000I500J-0*
Y176984I500J-16*
G01Y175280*
G03X308760Y174841I500J-0*
G01X309728Y173706D02*
G03X308760Y174841I-1978J-706D01*
G01X309728Y173706D02*
G03X310024Y173406I471J168D01*
G01X311000Y172000D02*
G03X310024Y173406I-1500J0D01*
G01X311000Y172000D02*
Y168000D01*
X309500Y166500D02*
G03X311000Y168000I0J1500D01*
G01X309500Y166500D02*
X309000D01*
G03X308500Y166000I0J-500*
G01Y103000*
G03X309000Y102500I500J0*
G01X474000*
G03X474235Y103441I-0J500*
G01X496559Y125765D02*
G03X474235Y103441I-14559J-7765D01*
G01X496559Y125765D02*
G03X497500Y126000I441J235D01*
G01Y172958*
G03X496526Y173119I-500J0*
G01Y178881D02*
G03Y173119I-8526J-2881D01*
G01Y178881D02*
G03X497500Y179042I474J161D01*
G01X488500Y218000D02*
G03X488500I-2500J0D01*
G01X475750Y151000D02*
G03X475750I-17750J0D01*
G01Y204000D02*
G03X475750I-17750J0D01*
G01X340550Y230400D02*
Y216600D01*
X339050Y215100D02*
G03X340550Y216600I0J1500D01*
G01X339050Y215100D02*
X331950D01*
X330450Y216600D02*
G03X331950Y215100I1500J0D01*
G01X330450Y216600D02*
Y230400D01*
X331950Y231900D02*
G03X330450Y230400I0J-1500D01*
G01X331950Y231900D02*
X339050D01*
X340550Y230400D02*
G03X339050Y231900I-1500J0D01*
G01X321500Y181000D02*
G03X321500I-2500J0D01*
G01X309500Y176987D02*
G03Y177013I2500J13D01*
G01Y176987D02*
G03Y177000I-500J-3D01*
Y177013I-500J16*
G01X321500Y284500D02*
G03X321500I-2500J0D01*
G01X309500Y279991D02*
G03Y280009I2500J9D01*
G01Y279991D02*
G03Y280000I-500J-2D01*
Y280009I-500J11*
G01X254106Y240399D02*
X278793D01*
X262245Y248499D02*
X278299D01*
X261306Y247599D02*
X277987D01*
X255006Y241299D02*
X277174D01*
X260406Y246699D02*
X277173D01*
X259506Y245799D02*
X277000D01*
X258606Y244899D02*
X277000D01*
X257706Y243999D02*
X277000D01*
X256806Y243099D02*
X277000D01*
X255906Y242199D02*
X277000D01*
X283569Y247599D02*
X287500D01*
X283327Y246699D02*
X287500D01*
X283500Y245799D02*
X287500D01*
X283500Y244899D02*
X287500D01*
X283500Y243999D02*
X287500D01*
X283500Y243099D02*
X287500D01*
X283500Y242199D02*
X287500D01*
X283326Y241299D02*
X287500D01*
X281707Y240399D02*
X287500D01*
X283000Y181699D02*
X290875D01*
X283216Y196099D02*
X290784D01*
X283445Y182599D02*
X290555D01*
X283487Y195199D02*
X290513D01*
X283500Y194299D02*
X290500D01*
X283500Y193399D02*
X290500D01*
X283500Y192499D02*
X290500D01*
X283500Y185299D02*
X290500D01*
X283500Y184399D02*
X290500D01*
X283500Y183499D02*
X290500D01*
X283500Y186199D02*
X290475D01*
X283500Y191599D02*
X290348D01*
X284141Y196999D02*
X289859D01*
X283497Y187099D02*
X288877D01*
X283469Y190699D02*
X288666D01*
X283119Y187999D02*
X288209D01*
X282898Y189799D02*
X288131D01*
X281520Y188899D02*
X288002D01*
X286001Y180799D02*
X286999D01*
X303865Y198799D02*
X306500D01*
X304446Y197899D02*
X306500D01*
X304500Y196999D02*
X306500D01*
X304500Y196099D02*
X306500D01*
X304500Y195199D02*
X306500D01*
X304500Y194299D02*
X306500D01*
X304374Y193399D02*
X306500D01*
X302793Y192499D02*
X306500D01*
X302427Y191599D02*
X306500D01*
X302482Y190699D02*
X306500D01*
X302192Y189799D02*
X306500D01*
X301354Y188899D02*
X306500D01*
X296619Y187999D02*
X306500D01*
X296997Y187099D02*
X306500D01*
X297000Y186199D02*
X306500D01*
X297000Y185299D02*
X306500D01*
X297000Y184399D02*
X306500D01*
X297000Y183499D02*
X306500D01*
X296945Y182599D02*
X306500D01*
X296246Y181699D02*
X306500D01*
X295729Y180799D02*
X306500D01*
X295347Y179899D02*
X306493D01*
X295850Y188899D02*
X298646D01*
X296398Y189799D02*
X297808D01*
X259500Y165499D02*
X306500D01*
X259500Y164599D02*
X306500D01*
X259500Y163699D02*
X306500D01*
X259500Y162799D02*
X306500D01*
X259500Y161899D02*
X306500D01*
X259500Y160999D02*
X306500D01*
X259500Y160099D02*
X306500D01*
X259500Y159199D02*
X306500D01*
X259500Y158299D02*
X306500D01*
X259500Y157399D02*
X306500D01*
X259500Y156499D02*
X306500D01*
X259500Y155599D02*
X306500D01*
X259500Y154699D02*
X306500D01*
X259500Y153799D02*
X306500D01*
X259500Y152899D02*
X306500D01*
X259500Y151999D02*
X306500D01*
X259500Y151099D02*
X306500D01*
X259500Y150199D02*
X306500D01*
X259500Y149299D02*
X306500D01*
X259500Y148399D02*
X306500D01*
X259500Y147499D02*
X306500D01*
X259500Y146599D02*
X306500D01*
X259500Y145699D02*
X306500D01*
X259500Y144799D02*
X306500D01*
X259500Y143899D02*
X306500D01*
X259500Y142999D02*
X306500D01*
X259500Y142099D02*
X306500D01*
X259500Y141199D02*
X306500D01*
X259500Y140299D02*
X306500D01*
X259500Y139399D02*
X306500D01*
X259500Y138499D02*
X306500D01*
X259500Y137599D02*
X306500D01*
X259500Y136699D02*
X306500D01*
X259500Y135799D02*
X306500D01*
X259500Y134899D02*
X306500D01*
X259500Y133999D02*
X306500D01*
X259500Y133099D02*
X306500D01*
X259500Y132199D02*
X306500D01*
X259500Y131299D02*
X306500D01*
X259500Y130399D02*
X306500D01*
X259500Y129499D02*
X306500D01*
X259500Y128599D02*
X306500D01*
X259500Y127699D02*
X306500D01*
X259500Y126799D02*
X306500D01*
X259500Y125899D02*
X306500D01*
X259500Y124999D02*
X306500D01*
X259500Y124099D02*
X306500D01*
X259500Y123199D02*
X306500D01*
X259500Y122299D02*
X306500D01*
X259500Y121399D02*
X306500D01*
X259500Y120499D02*
X306500D01*
X259500Y119599D02*
X306500D01*
X259500Y118699D02*
X306500D01*
X259500Y117799D02*
X306500D01*
X259500Y116899D02*
X306500D01*
X259500Y115999D02*
X306500D01*
X259500Y115099D02*
X306500D01*
X259500Y114199D02*
X306500D01*
X259500Y113299D02*
X306500D01*
X259500Y112399D02*
X306500D01*
X259500Y111499D02*
X306500D01*
X259500Y110599D02*
X306500D01*
X259500Y109699D02*
X306500D01*
X259500Y108799D02*
X306500D01*
X259500Y107899D02*
X306500D01*
X259500Y106999D02*
X306500D01*
X259500Y106099D02*
X306500D01*
X259500Y105199D02*
X306500D01*
X259500Y104299D02*
X306500D01*
X259500Y103399D02*
X306500D01*
X259500Y166399D02*
X306302D01*
X303185Y167299D02*
X304674D01*
X297327Y172699D02*
X304626D01*
X300285Y173599D02*
X301715D01*
X297500Y171799D02*
X301017D01*
X297326Y167299D02*
X300815D01*
X297500Y170899D02*
X299928D01*
X297500Y168199D02*
X299865D01*
X297500Y169999D02*
X299550D01*
X297500Y169099D02*
X299532D01*
X282100Y174499D02*
X292386D01*
X282246Y173599D02*
X292118D01*
X259500Y167299D02*
X291174D01*
X282492Y172699D02*
X291173D01*
X282400Y171799D02*
X291000D01*
X281920Y170899D02*
X291000D01*
X259500Y169999D02*
X291000D01*
X259500Y169099D02*
X291000D01*
X259500Y168199D02*
X291000D01*
X286304Y175399D02*
X286696D01*
X259500Y188899D02*
X278980D01*
X260706Y196999D02*
X278460D01*
X261606Y197899D02*
X278097D01*
X259500Y170899D02*
X278080D01*
X259500Y180799D02*
X277900D01*
X259500Y179899D02*
X277900D01*
X259500Y178999D02*
X277900D01*
X259500Y178099D02*
X277900D01*
X259500Y177199D02*
X277900D01*
X259500Y176299D02*
X277900D01*
X259500Y175399D02*
X277900D01*
X259500Y174499D02*
X277900D01*
X259500Y173599D02*
X277754D01*
X259500Y181699D02*
X277737D01*
X259500Y189799D02*
X277602D01*
X259500Y171799D02*
X277600D01*
X259500Y172699D02*
X277508D01*
X259806Y196099D02*
X277479D01*
X259500Y187999D02*
X277381D01*
X259500Y182599D02*
X277055D01*
X259500Y190699D02*
X277031D01*
X259500Y195199D02*
X277013D01*
X259500Y187099D02*
X277003D01*
X259500Y194299D02*
X277000D01*
X259500Y193399D02*
X277000D01*
X259500Y192499D02*
X277000D01*
X259500Y191599D02*
X277000D01*
X259500Y186199D02*
X277000D01*
X259500Y185299D02*
X277000D01*
X259500Y184399D02*
X277000D01*
X259500Y183499D02*
X277000D01*
X262506Y198799D02*
X263315D01*
X283469Y298499D02*
X287500D01*
X283375Y297599D02*
X287500D01*
X283500Y296699D02*
X287500D01*
X283500Y295799D02*
X287500D01*
X283500Y294899D02*
X287500D01*
X283500Y293999D02*
X287500D01*
X283500Y293099D02*
X287500D01*
X283268Y292199D02*
X287500D01*
X263408Y291299D02*
X287500D01*
X264308Y290399D02*
X287500D01*
X286804Y299399D02*
X287196D01*
X257434D02*
X278250D01*
X256516Y298499D02*
X278206D01*
X262508Y292199D02*
X277232D01*
X257108Y297599D02*
X277125D01*
X258008Y296699D02*
X277000D01*
X258908Y295799D02*
X277000D01*
X259808Y294899D02*
X277000D01*
X260708Y293999D02*
X277000D01*
X261608Y293099D02*
X277000D01*
X229706Y214999D02*
X305500D01*
X228806Y214099D02*
X305500D01*
X227906Y213199D02*
X305500D01*
X227006Y212299D02*
X305500D01*
X226106Y211399D02*
X305500D01*
X225206Y210499D02*
X305500D01*
X224306Y209599D02*
X305500D01*
X223406Y208699D02*
X305500D01*
X222506Y207799D02*
X305500D01*
X221606Y206899D02*
X305500D01*
X220706Y205999D02*
X305500D01*
X102510Y205099D02*
X305500D01*
X102500Y204199D02*
X305500D01*
X265483Y203299D02*
X305500D01*
X231506Y216799D02*
X293500D01*
X230606Y215899D02*
X293500D01*
X232406Y217699D02*
X293459D01*
X240506Y225799D02*
X292051D01*
X239606Y224899D02*
X291934D01*
X233306Y218599D02*
X291301D01*
X238706Y223999D02*
X291085D01*
X237806Y223099D02*
X291000D01*
X236906Y222199D02*
X291000D01*
X236006Y221299D02*
X291000D01*
X235106Y220399D02*
X291000D01*
X234206Y219499D02*
X291000D01*
X251306Y236599D02*
X290500D01*
X250406Y235699D02*
X290445D01*
X252378Y237499D02*
X290036D01*
X249506Y234799D02*
X289579D01*
X248606Y233899D02*
X288742D01*
X247706Y232999D02*
X288415D01*
X246806Y232099D02*
X288353D01*
X241406Y226699D02*
X287482D01*
X245906Y231199D02*
X287423D01*
X245006Y230299D02*
X287250D01*
X244106Y229399D02*
X287250D01*
X243206Y228499D02*
X287250D01*
X242306Y227599D02*
X287250D01*
X102500Y203299D02*
X263517D01*
X102500Y202399D02*
X262428D01*
X102500Y201499D02*
X262050D01*
X102500Y200599D02*
X261477D01*
X102500Y199699D02*
X260577D01*
X102500Y198799D02*
X259677D01*
X102500Y197899D02*
X258777D01*
X102500Y196999D02*
X257904D01*
X102500Y196099D02*
X257500D01*
X102500Y195199D02*
X257500D01*
X102500Y194299D02*
X257500D01*
X102500Y193399D02*
X257500D01*
X102500Y192499D02*
X257500D01*
X102500Y191599D02*
X257500D01*
X102500Y190699D02*
X257500D01*
X102500Y189799D02*
X257500D01*
X102500Y188899D02*
X257500D01*
X102500Y187999D02*
X257500D01*
X102500Y187099D02*
X257500D01*
X102500Y186199D02*
X257500D01*
X102500Y185299D02*
X257500D01*
X102500Y184399D02*
X257500D01*
X102500Y183499D02*
X257500D01*
X102500Y182599D02*
X257500D01*
X102500Y181699D02*
X257500D01*
X102500Y180799D02*
X257500D01*
X102500Y179899D02*
X257500D01*
X102500Y178999D02*
X257500D01*
X102500Y178099D02*
X257500D01*
X102500Y177199D02*
X257500D01*
X102500Y176299D02*
X257500D01*
X102500Y175399D02*
X257500D01*
X102500Y174499D02*
X257500D01*
X102500Y173599D02*
X257500D01*
X102500Y172699D02*
X257500D01*
X102500Y171799D02*
X257500D01*
X102500Y170899D02*
X257500D01*
X102500Y169999D02*
X257500D01*
X102500Y169099D02*
X257500D01*
X102500Y168199D02*
X257500D01*
X102500Y167299D02*
X257500D01*
X102500Y166399D02*
X257500D01*
X102500Y165499D02*
X257500D01*
X102500Y164599D02*
X257500D01*
X102500Y163699D02*
X257500D01*
X102500Y162799D02*
X257500D01*
X102500Y161899D02*
X257500D01*
X102500Y160999D02*
X257500D01*
X102500Y160099D02*
X257500D01*
X102500Y159199D02*
X257500D01*
X102500Y158299D02*
X257500D01*
X102500Y157399D02*
X257500D01*
X102500Y156499D02*
X257500D01*
X102500Y155599D02*
X257500D01*
X102500Y154699D02*
X257500D01*
X102500Y153799D02*
X257500D01*
X102500Y152899D02*
X257500D01*
X102500Y151999D02*
X257500D01*
X102500Y151099D02*
X257500D01*
X102500Y150199D02*
X257500D01*
X102500Y149299D02*
X257500D01*
X102500Y148399D02*
X257500D01*
X102500Y147499D02*
X257500D01*
X102500Y146599D02*
X257500D01*
X102500Y145699D02*
X257500D01*
X102500Y144799D02*
X257500D01*
X102500Y143899D02*
X257500D01*
X102500Y142999D02*
X257500D01*
X102500Y142099D02*
X257500D01*
X102500Y141199D02*
X257500D01*
X102500Y140299D02*
X257500D01*
X102500Y139399D02*
X257500D01*
X102500Y138499D02*
X257500D01*
X102500Y137599D02*
X257500D01*
X102500Y136699D02*
X257500D01*
X102500Y135799D02*
X257500D01*
X102500Y134899D02*
X257500D01*
X122036Y133999D02*
X257500D01*
X124654Y133099D02*
X257500D01*
X126405Y132199D02*
X257500D01*
X127767Y131299D02*
X257500D01*
X128887Y130399D02*
X257500D01*
X129833Y129499D02*
X257500D01*
X130646Y128599D02*
X257500D01*
X131349Y127699D02*
X257500D01*
X131958Y126799D02*
X257500D01*
X132487Y125899D02*
X257500D01*
X132942Y124999D02*
X257500D01*
X133332Y124099D02*
X257500D01*
X133660Y123199D02*
X257500D01*
X133930Y122299D02*
X257500D01*
X134146Y121399D02*
X257500D01*
X134310Y120499D02*
X257500D01*
X134422Y119599D02*
X257500D01*
X134485Y118699D02*
X257500D01*
X134499Y117799D02*
X257500D01*
X134463Y116899D02*
X257500D01*
X134378Y115999D02*
X257500D01*
X134243Y115099D02*
X257500D01*
X134056Y114199D02*
X257500D01*
X141474Y113299D02*
X257500D01*
X143302Y112399D02*
X257500D01*
X144244Y111499D02*
X257500D01*
X144847Y110599D02*
X257500D01*
X145231Y109699D02*
X257500D01*
X145442Y108799D02*
X257500D01*
X145499Y107899D02*
X257500D01*
X145408Y106999D02*
X257500D01*
X145161Y106099D02*
X257500D01*
X144733Y105199D02*
X257500D01*
X144068Y104299D02*
X257500D01*
X143015Y103399D02*
X257500D01*
X133816Y113299D02*
X138526D01*
X125698Y103399D02*
X136985D01*
X133520Y112399D02*
X136698D01*
X127194Y104299D02*
X135932D01*
X133165Y111499D02*
X135756D01*
X128410Y105199D02*
X135267D01*
X132747Y110599D02*
X135153D01*
X129428Y106099D02*
X134839D01*
X132260Y109699D02*
X134769D01*
X130297Y106999D02*
X134592D01*
X131696Y108799D02*
X134558D01*
X131047Y107899D02*
X134501D01*
X102500Y133999D02*
X113964D01*
X102500Y133099D02*
X111346D01*
X102500Y132199D02*
X109595D01*
X102500Y131299D02*
X108233D01*
X102500Y130399D02*
X107113D01*
X102500Y129499D02*
X106167D01*
X102500Y128599D02*
X105354D01*
X102500Y127699D02*
X104651D01*
X102500Y126799D02*
X104042D01*
X102510Y125899D02*
X103513D01*
X102500Y268799D02*
X305500D01*
X102500Y267899D02*
X305500D01*
X102500Y266999D02*
X305500D01*
X102500Y266099D02*
X305500D01*
X102500Y265199D02*
X305500D01*
X102500Y264299D02*
X305500D01*
X102500Y263399D02*
X305500D01*
X102500Y262499D02*
X305500D01*
X102500Y261599D02*
X305500D01*
X102500Y260699D02*
X305500D01*
X102500Y259799D02*
X305500D01*
X102500Y258899D02*
X305500D01*
X102500Y257999D02*
X305500D01*
X102500Y257099D02*
X305500D01*
X102500Y256199D02*
X305500D01*
X102500Y255299D02*
X305500D01*
X102500Y254399D02*
X305500D01*
X292869Y253499D02*
X305500D01*
X293388Y252599D02*
X305298D01*
X102500Y286799D02*
X290500D01*
X102500Y285899D02*
X290499D01*
X102500Y284999D02*
X289779D01*
X102500Y269699D02*
X289754D01*
X102500Y270599D02*
X289055D01*
X102500Y275099D02*
X289003D01*
X102500Y274199D02*
X289000D01*
X102500Y273299D02*
X289000D01*
X102500Y272399D02*
X289000D01*
X102500Y271499D02*
X289000D01*
X102500Y284099D02*
X288879D01*
X102500Y275999D02*
X288599D01*
X102500Y283199D02*
X288126D01*
X102500Y282299D02*
X287901D01*
X102500Y281399D02*
X287049D01*
X102500Y276899D02*
X286876D01*
X102500Y280499D02*
X286750D01*
X102500Y279599D02*
X286750D01*
X102500Y278699D02*
X286750D01*
X102500Y277799D02*
X286750D01*
X263082Y253499D02*
X281131D01*
X102500Y287699D02*
X263594D01*
X102500Y253499D02*
X262918D01*
X102500Y288599D02*
X262694D01*
X102500Y289499D02*
X261794D01*
X102500Y252599D02*
X261078D01*
X102500Y290399D02*
X260894D01*
X102500Y249899D02*
X260661D01*
X102500Y251699D02*
X260600D01*
X102500Y250799D02*
X260508D01*
X102500Y291299D02*
X259994D01*
X102500Y248999D02*
X259877D01*
X102500Y292199D02*
X259094D01*
X102500Y248099D02*
X258977D01*
X102500Y293099D02*
X258194D01*
X102500Y247199D02*
X258077D01*
X102500Y293999D02*
X257294D01*
X102500Y246299D02*
X257177D01*
X102500Y294899D02*
X256394D01*
X102500Y245399D02*
X256277D01*
X102500Y295799D02*
X255494D01*
X102500Y244499D02*
X255377D01*
X102500Y296699D02*
X254594D01*
X102500Y243599D02*
X254477D01*
X102500Y297599D02*
X253694D01*
X102500Y242699D02*
X253577D01*
X102500Y298499D02*
X252794D01*
X102500Y241799D02*
X252677D01*
X102698Y299399D02*
X251888D01*
X102500Y240899D02*
X251778D01*
X102500Y239999D02*
X251259D01*
X102500Y239099D02*
X250392D01*
X102500Y238199D02*
X249492D01*
X102500Y237299D02*
X248592D01*
X102500Y236399D02*
X247692D01*
X102500Y235499D02*
X246792D01*
X102500Y234599D02*
X245892D01*
X102500Y233699D02*
X244992D01*
X102500Y232799D02*
X244092D01*
X102500Y231899D02*
X243192D01*
X102500Y230999D02*
X242292D01*
X102500Y230099D02*
X241392D01*
X102500Y229199D02*
X240492D01*
X102500Y228299D02*
X239592D01*
X102500Y227399D02*
X238692D01*
X102500Y226499D02*
X237792D01*
X102500Y225599D02*
X236892D01*
X102500Y224699D02*
X235992D01*
X102500Y223799D02*
X235092D01*
X102500Y222899D02*
X234192D01*
X102500Y221999D02*
X233292D01*
X102500Y221099D02*
X232392D01*
X102500Y220199D02*
X231492D01*
X102500Y219299D02*
X230592D01*
X102500Y218399D02*
X229692D01*
X102500Y217499D02*
X228792D01*
X102500Y216599D02*
X227892D01*
X102500Y215699D02*
X226992D01*
X102500Y214799D02*
X226092D01*
X102500Y213899D02*
X225192D01*
X102500Y212999D02*
X224292D01*
X102500Y212099D02*
X223392D01*
X102500Y211199D02*
X222492D01*
X102500Y210299D02*
X221592D01*
X102500Y209399D02*
X220692D01*
X125500Y396999D02*
X305500D01*
X126572Y396099D02*
X305500D01*
X127902Y395199D02*
X305500D01*
X129000Y394299D02*
X305500D01*
X129930Y393399D02*
X305500D01*
X130729Y392499D02*
X305500D01*
X131421Y391599D02*
X305500D01*
X132021Y390699D02*
X305500D01*
X132541Y389799D02*
X305500D01*
X132989Y388899D02*
X305500D01*
X133371Y387999D02*
X305500D01*
X133692Y387099D02*
X305500D01*
X133957Y386199D02*
X305500D01*
X134167Y385299D02*
X305500D01*
X134325Y384399D02*
X305500D01*
X134432Y383499D02*
X305500D01*
X134489Y382599D02*
X305500D01*
X134497Y381699D02*
X305500D01*
X134456Y380799D02*
X305500D01*
X134366Y379899D02*
X305500D01*
X134225Y378999D02*
X305500D01*
X134032Y378099D02*
X305500D01*
X133786Y377199D02*
X305500D01*
X133484Y376299D02*
X305500D01*
X133122Y375399D02*
X305500D01*
X132696Y374499D02*
X305500D01*
X132201Y373599D02*
X305500D01*
X131629Y372699D02*
X305500D01*
X130969Y371799D02*
X305500D01*
X130207Y370899D02*
X305500D01*
X129323Y369999D02*
X305500D01*
X128286Y369099D02*
X305500D01*
X127043Y368199D02*
X305500D01*
X125491Y367299D02*
X305500D01*
X123371Y366399D02*
X305500D01*
X102500Y365499D02*
X305500D01*
X102500Y364599D02*
X305500D01*
X102500Y363699D02*
X305500D01*
X102500Y362799D02*
X305500D01*
X102500Y361899D02*
X305500D01*
X102500Y360999D02*
X305500D01*
X102500Y360099D02*
X305500D01*
X102500Y359199D02*
X305500D01*
X102500Y358299D02*
X305500D01*
X102500Y357399D02*
X305500D01*
X102500Y356499D02*
X305500D01*
X102500Y355599D02*
X305500D01*
X102500Y354699D02*
X305500D01*
X102500Y353799D02*
X305500D01*
X102500Y352899D02*
X305500D01*
X102500Y351999D02*
X305500D01*
X102500Y351099D02*
X305500D01*
X102500Y350199D02*
X305500D01*
X102500Y349299D02*
X305500D01*
X102500Y348399D02*
X305500D01*
X102500Y347499D02*
X305500D01*
X102500Y346599D02*
X305500D01*
X102500Y345699D02*
X305500D01*
X102500Y344799D02*
X305500D01*
X102500Y343899D02*
X305500D01*
X102500Y342999D02*
X305500D01*
X102500Y342099D02*
X305500D01*
X102500Y341199D02*
X305500D01*
X102500Y340299D02*
X305500D01*
X102500Y339399D02*
X305500D01*
X102500Y338499D02*
X305500D01*
X102500Y337599D02*
X305500D01*
X102500Y336699D02*
X305500D01*
X102500Y335799D02*
X305500D01*
X102500Y334899D02*
X305500D01*
X102500Y333999D02*
X305500D01*
X102500Y333099D02*
X305500D01*
X102500Y332199D02*
X305500D01*
X102500Y331299D02*
X305500D01*
X102500Y330399D02*
X305500D01*
X102500Y329499D02*
X305500D01*
X102500Y328599D02*
X305500D01*
X102500Y327699D02*
X305500D01*
X102500Y326799D02*
X305500D01*
X102500Y325899D02*
X305500D01*
X102500Y324999D02*
X305500D01*
X102500Y324099D02*
X305500D01*
X102500Y323199D02*
X305500D01*
X102500Y322299D02*
X305500D01*
X102500Y321399D02*
X305500D01*
X102500Y320499D02*
X305500D01*
X102500Y319599D02*
X305500D01*
X102500Y318699D02*
X305500D01*
X102500Y317799D02*
X305500D01*
X102500Y316899D02*
X305500D01*
X102500Y315999D02*
X305500D01*
X102500Y315099D02*
X305500D01*
X102500Y314199D02*
X305500D01*
X102500Y313299D02*
X305500D01*
X102500Y312399D02*
X305500D01*
X102500Y311499D02*
X305500D01*
X102500Y310599D02*
X305500D01*
X102500Y309699D02*
X305500D01*
X102500Y308799D02*
X305500D01*
X102500Y307899D02*
X305500D01*
X102500Y306999D02*
X305500D01*
X102500Y306099D02*
X305500D01*
X102500Y305199D02*
X305500D01*
X293020Y304299D02*
X305500D01*
X293250Y303399D02*
X305500D01*
X102500Y304299D02*
X280979D01*
X102500Y303399D02*
X254795D01*
X102500Y366399D02*
X112629D01*
X102500Y367299D02*
X110509D01*
X102500Y368199D02*
X108957D01*
X102500Y369099D02*
X107714D01*
X102500Y369999D02*
X106677D01*
X102500Y370899D02*
X105793D01*
X102500Y371799D02*
X105031D01*
X102500Y372699D02*
X104371D01*
X102500Y373599D02*
X103799D01*
X102965Y374499D02*
X103035D01*
X496081Y373399D02*
X497500D01*
X495490Y372499D02*
X497500D01*
X494809Y371599D02*
X497500D01*
X494022Y370699D02*
X497500D01*
X493108Y369799D02*
X497500D01*
X492030Y368899D02*
X497500D01*
X490730Y367999D02*
X497500D01*
X489085Y367099D02*
X497500D01*
X486751Y366199D02*
X497500D01*
X308500Y365299D02*
X497500D01*
X308500Y364399D02*
X497500D01*
X308500Y363499D02*
X497500D01*
X308500Y362599D02*
X497500D01*
X308500Y361699D02*
X497500D01*
X308500Y360799D02*
X497500D01*
X308500Y359899D02*
X497500D01*
X308500Y358999D02*
X497500D01*
X308500Y358099D02*
X497500D01*
X308500Y357199D02*
X497500D01*
X308500Y356299D02*
X497500D01*
X308500Y355399D02*
X497500D01*
X308500Y354499D02*
X497500D01*
X308500Y353599D02*
X497500D01*
X308500Y352699D02*
X497500D01*
X308500Y351799D02*
X497500D01*
X308500Y350899D02*
X497500D01*
X308500Y349999D02*
X497500D01*
X308500Y349099D02*
X497500D01*
X308500Y348199D02*
X497500D01*
X308500Y347299D02*
X497500D01*
X308500Y346399D02*
X497500D01*
X308500Y345499D02*
X497500D01*
X308500Y344599D02*
X497500D01*
X308500Y343699D02*
X497500D01*
X308500Y342799D02*
X497500D01*
X308500Y341899D02*
X497500D01*
X308500Y340999D02*
X497500D01*
X308500Y340099D02*
X497500D01*
X308500Y339199D02*
X497500D01*
X308500Y338299D02*
X497500D01*
X308500Y337399D02*
X497500D01*
X308500Y336499D02*
X497500D01*
X308500Y335599D02*
X497500D01*
X308500Y334699D02*
X497500D01*
X308500Y333799D02*
X497500D01*
X308500Y332899D02*
X497500D01*
X308500Y331999D02*
X497500D01*
X308500Y331099D02*
X497500D01*
X308500Y330199D02*
X497500D01*
X308500Y329299D02*
X497500D01*
X308500Y328399D02*
X497500D01*
X308500Y327499D02*
X497500D01*
X308500Y326599D02*
X497500D01*
X308500Y325699D02*
X497500D01*
X308500Y324799D02*
X497500D01*
X308500Y323899D02*
X497500D01*
X308500Y322999D02*
X497500D01*
X308500Y322099D02*
X497500D01*
X308500Y321199D02*
X497500D01*
X308500Y320299D02*
X497500D01*
X308500Y319399D02*
X497500D01*
X308500Y318499D02*
X497500D01*
X308500Y317599D02*
X497500D01*
X308500Y316699D02*
X497500D01*
X308500Y315799D02*
X497500D01*
X308500Y314899D02*
X497500D01*
X308500Y313999D02*
X497500D01*
X308500Y313099D02*
X497500D01*
X308500Y312199D02*
X497500D01*
X308500Y311299D02*
X497500D01*
X308500Y310399D02*
X497500D01*
X308500Y309499D02*
X497500D01*
X308500Y308599D02*
X497500D01*
X308500Y307699D02*
X497500D01*
X308500Y306799D02*
X497500D01*
X308500Y305899D02*
X497500D01*
X308500Y304999D02*
X497500D01*
X308500Y304099D02*
X497500D01*
X308500Y303199D02*
X497500D01*
X308500Y302299D02*
X497500D01*
X308500Y301399D02*
X497500D01*
X308500Y300499D02*
X497500D01*
X308500Y299599D02*
X497500D01*
X308500Y298699D02*
X497500D01*
X308500Y297799D02*
X497500D01*
X308500Y296899D02*
X497500D01*
X308500Y295999D02*
X497500D01*
X308500Y295099D02*
X497500D01*
X308500Y294199D02*
X497500D01*
X308500Y293299D02*
X497500D01*
X308500Y292399D02*
X497500D01*
X308500Y291499D02*
X497500D01*
X308500Y290599D02*
X497500D01*
X308500Y289699D02*
X497500D01*
X308500Y288799D02*
X497500D01*
X308500Y287899D02*
X497500D01*
X319082Y286999D02*
X497500D01*
X320922Y286099D02*
X497500D01*
X321400Y285199D02*
X497500D01*
X321492Y284299D02*
X497500D01*
X321244Y283399D02*
X497500D01*
X320498Y282499D02*
X497500D01*
X313922Y281599D02*
X497500D01*
X314400Y280699D02*
X497500D01*
X314492Y279799D02*
X497500D01*
X314244Y278899D02*
X497500D01*
X313498Y277999D02*
X497500D01*
X308500Y277099D02*
X497500D01*
X308516Y276199D02*
X497500D01*
X308970Y275299D02*
X497500D01*
X309000Y274399D02*
X497500D01*
X309000Y273499D02*
X497500D01*
X309000Y272599D02*
X497500D01*
X309000Y271699D02*
X497500D01*
X308986Y270799D02*
X497500D01*
X308552Y269899D02*
X497500D01*
X308500Y268999D02*
X497500D01*
X308500Y268099D02*
X497500D01*
X308500Y267199D02*
X497500D01*
X308500Y266299D02*
X497500D01*
X308500Y265399D02*
X497500D01*
X308500Y264499D02*
X497500D01*
X308500Y263599D02*
X497500D01*
X308500Y262699D02*
X497500D01*
X308500Y261799D02*
X497500D01*
X308500Y260899D02*
X497500D01*
X308500Y259999D02*
X497500D01*
X308500Y259099D02*
X497500D01*
X308500Y258199D02*
X497500D01*
X308500Y257299D02*
X497500D01*
X308500Y256399D02*
X497500D01*
X308500Y255499D02*
X497500D01*
X308500Y254599D02*
X497500D01*
X308500Y253699D02*
X497500D01*
X308500Y252799D02*
X497500D01*
X308500Y251899D02*
X497500D01*
X308500Y250999D02*
X497500D01*
X308500Y250099D02*
X497500D01*
X308500Y249199D02*
X497500D01*
X308500Y248299D02*
X497500D01*
X308500Y247399D02*
X497500D01*
X308500Y246499D02*
X497500D01*
X308500Y245599D02*
X497500D01*
X308500Y244699D02*
X497500D01*
X308500Y243799D02*
X497500D01*
X308500Y242899D02*
X497500D01*
X308500Y241999D02*
X497500D01*
X308500Y241099D02*
X497500D01*
X308500Y240199D02*
X497500D01*
X308500Y239299D02*
X497500D01*
X308500Y238399D02*
X497500D01*
X308500Y237499D02*
X497500D01*
X308500Y236599D02*
X497500D01*
X320834Y235699D02*
X497500D01*
X321369Y234799D02*
X497500D01*
X321498Y233899D02*
X497500D01*
X321291Y232999D02*
X497500D01*
X320623Y232099D02*
X497500D01*
X340320Y231199D02*
X497500D01*
X340550Y230299D02*
X497500D01*
X340550Y229399D02*
X497500D01*
X340550Y228499D02*
X497500D01*
X340550Y227599D02*
X497500D01*
X340550Y226699D02*
X497500D01*
X340550Y225799D02*
X497500D01*
X340550Y224899D02*
X497500D01*
X340550Y223999D02*
X497500D01*
X340550Y223099D02*
X497500D01*
X340550Y222199D02*
X497500D01*
X461977Y221299D02*
X497500D01*
X486705Y220399D02*
X497500D01*
X488001Y219499D02*
X497500D01*
X488427Y218599D02*
X497500D01*
X488482Y217699D02*
X497500D01*
X488192Y216799D02*
X497500D01*
X487354Y215899D02*
X497500D01*
X471932Y214999D02*
X497500D01*
X472597Y214099D02*
X497500D01*
X473180Y213199D02*
X497500D01*
X473691Y212299D02*
X497500D01*
X474135Y211399D02*
X497500D01*
X474518Y210499D02*
X497500D01*
X474844Y209599D02*
X497500D01*
X475117Y208699D02*
X497500D01*
X475339Y207799D02*
X497500D01*
X475512Y206899D02*
X497500D01*
X475637Y205999D02*
X497500D01*
X475716Y205099D02*
X497500D01*
X475749Y204199D02*
X497500D01*
X475736Y203299D02*
X497500D01*
X475678Y202399D02*
X497500D01*
X475573Y201499D02*
X497500D01*
X475421Y200599D02*
X497500D01*
X475221Y199699D02*
X497500D01*
X474971Y198799D02*
X497500D01*
X474668Y197899D02*
X497500D01*
X474311Y196999D02*
X497500D01*
X473894Y196099D02*
X497500D01*
X473414Y195199D02*
X497500D01*
X472864Y194299D02*
X497500D01*
X472236Y193399D02*
X497500D01*
X471520Y192499D02*
X497500D01*
X470699Y191599D02*
X497500D01*
X469753Y190699D02*
X497500D01*
X468648Y189799D02*
X497500D01*
X467328Y188899D02*
X497500D01*
X465683Y187999D02*
X497500D01*
X463423Y187099D02*
X497500D01*
X308500Y186199D02*
X497500D01*
X308500Y185299D02*
X497500D01*
X491235Y184399D02*
X497500D01*
X492977Y183499D02*
X497500D01*
X494120Y182599D02*
X497500D01*
X494966Y181699D02*
X497500D01*
X495614Y180799D02*
X497500D01*
X496112Y179899D02*
X497500D01*
X496373Y172699D02*
X497500D01*
X495959Y171799D02*
X497500D01*
X495415Y170899D02*
X497500D01*
X494707Y169999D02*
X497500D01*
X493777Y169099D02*
X497500D01*
X492488Y168199D02*
X497500D01*
X490299Y167299D02*
X497500D01*
X466829Y166399D02*
X497500D01*
X468240Y165499D02*
X497500D01*
X469408Y164599D02*
X497500D01*
X470402Y163699D02*
X497500D01*
X471261Y162799D02*
X497500D01*
X472010Y161899D02*
X497500D01*
X472666Y160999D02*
X497500D01*
X473241Y160099D02*
X497500D01*
X473743Y159199D02*
X497500D01*
X474180Y158299D02*
X497500D01*
X474557Y157399D02*
X497500D01*
X474877Y156499D02*
X497500D01*
X475144Y155599D02*
X497500D01*
X475360Y154699D02*
X497500D01*
X475528Y153799D02*
X497500D01*
X475648Y152899D02*
X497500D01*
X475722Y151999D02*
X497500D01*
X475750Y151099D02*
X497500D01*
X475732Y150199D02*
X497500D01*
X475668Y149299D02*
X497500D01*
X475558Y148399D02*
X497500D01*
X475401Y147499D02*
X497500D01*
X475196Y146599D02*
X497500D01*
X474940Y145699D02*
X497500D01*
X474632Y144799D02*
X497500D01*
X474268Y143899D02*
X497500D01*
X473844Y142999D02*
X497500D01*
X473357Y142099D02*
X497500D01*
X472799Y141199D02*
X497500D01*
X472161Y140299D02*
X497500D01*
X471434Y139399D02*
X497500D01*
X470601Y138499D02*
X497500D01*
X469639Y137599D02*
X497500D01*
X468514Y136699D02*
X497500D01*
X467164Y135799D02*
X497500D01*
X465471Y134899D02*
X497500D01*
X486036Y133999D02*
X497500D01*
X488654Y133099D02*
X497500D01*
X490405Y132199D02*
X497500D01*
X491767Y131299D02*
X497500D01*
X492887Y130399D02*
X497500D01*
X493833Y129499D02*
X497500D01*
X494646Y128599D02*
X497500D01*
X495349Y127699D02*
X497500D01*
X495958Y126799D02*
X497500D01*
X496486Y178999D02*
X497498D01*
X496487Y125899D02*
X497490D01*
X496599Y374299D02*
X497401D01*
X465030Y167299D02*
X485701D01*
X464793Y220399D02*
X485295D01*
X308500Y184399D02*
X484765D01*
X471171Y215899D02*
X484646D01*
X466652Y219499D02*
X483999D01*
X470299Y216799D02*
X483808D01*
X468097Y218599D02*
X483573D01*
X469288Y217699D02*
X483518D01*
X462390Y168199D02*
X483512D01*
X319082Y183499D02*
X483023D01*
X311000Y169099D02*
X482223D01*
X320922Y182599D02*
X481880D01*
X311000Y169999D02*
X481293D01*
X321400Y181699D02*
X481034D01*
X311000Y170899D02*
X480585D01*
X321492Y180799D02*
X480386D01*
X311000Y171799D02*
X480041D01*
X321244Y179899D02*
X479888D01*
X310827Y172699D02*
X479627D01*
X320498Y178999D02*
X479514D01*
X309781Y173599D02*
X479326D01*
X314246Y178099D02*
X479248D01*
X309221Y174499D02*
X479126D01*
X314492Y177199D02*
X479080D01*
X313920Y175399D02*
X479020D01*
X314400Y176299D02*
X479005D01*
X463101Y133999D02*
X477964D01*
X308500Y366199D02*
X477249D01*
X308500Y133099D02*
X475346D01*
X308500Y367099D02*
X474915D01*
X458859Y396799D02*
X474458D01*
X308500Y103399D02*
X474302D01*
X308500Y132199D02*
X473595D01*
X308500Y367999D02*
X473270D01*
X459879Y395899D02*
X473107D01*
X308500Y104299D02*
X472806D01*
X308500Y131299D02*
X472233D01*
X308500Y368899D02*
X471970D01*
X460611Y394999D02*
X471837D01*
X308500Y105199D02*
X471590D01*
X308500Y130399D02*
X471113D01*
X308500Y369799D02*
X470892D01*
X461084Y394099D02*
X470781D01*
X308500Y106099D02*
X470572D01*
X308500Y129499D02*
X470167D01*
X308500Y370699D02*
X469978D01*
X461368Y393199D02*
X469882D01*
X308500Y106999D02*
X469703D01*
X308500Y128599D02*
X469354D01*
X308500Y371599D02*
X469191D01*
X461492Y392299D02*
X469109D01*
X308500Y107899D02*
X468953D01*
X308500Y127699D02*
X468651D01*
X308500Y372499D02*
X468510D01*
X461467Y391399D02*
X468438D01*
X308500Y108799D02*
X468304D01*
X308500Y126799D02*
X468042D01*
X308500Y373399D02*
X467919D01*
X461291Y390499D02*
X467857D01*
X308500Y109699D02*
X467740D01*
X308500Y125899D02*
X467513D01*
X308500Y374299D02*
X467408D01*
X460948Y389599D02*
X467354D01*
X308500Y110599D02*
X467253D01*
X308500Y124999D02*
X467058D01*
X308500Y375199D02*
X466967D01*
X460399Y388699D02*
X466921D01*
X308500Y111499D02*
X466835D01*
X308500Y124099D02*
X466668D01*
X308500Y376099D02*
X466591D01*
X459550Y387799D02*
X466552D01*
X308500Y112399D02*
X466480D01*
X308500Y123199D02*
X466340D01*
X308500Y376999D02*
X466276D01*
X458056Y386899D02*
X466244D01*
X308500Y113299D02*
X466184D01*
X308500Y122299D02*
X466070D01*
X308500Y377899D02*
X466018D01*
X308500Y385999D02*
X465992D01*
X308500Y114199D02*
X465944D01*
X308500Y121399D02*
X465854D01*
X308500Y378799D02*
X465814D01*
X308500Y385099D02*
X465794D01*
X308500Y115099D02*
X465757D01*
X308500Y120499D02*
X465690D01*
X308500Y379699D02*
X465661D01*
X308500Y384199D02*
X465647D01*
X308500Y115999D02*
X465622D01*
X308500Y119599D02*
X465578D01*
X308500Y380599D02*
X465560D01*
X308500Y383299D02*
X465551D01*
X308500Y116899D02*
X465537D01*
X308500Y118699D02*
X465515D01*
X308500Y381499D02*
X465508D01*
X308500Y382399D02*
X465505D01*
X308500Y117799D02*
X465501D01*
X340550Y221299D02*
X454023D01*
X308500Y386899D02*
X453944D01*
X311000Y168199D02*
X453610D01*
X308500Y396799D02*
X453141D01*
X308500Y133999D02*
X452899D01*
X308500Y187099D02*
X452577D01*
X308500Y387799D02*
X452450D01*
X308500Y395899D02*
X452121D01*
X308500Y388699D02*
X451601D01*
X308500Y394999D02*
X451389D01*
X340550Y220399D02*
X451207D01*
X308500Y389599D02*
X451052D01*
X310826Y167299D02*
X450970D01*
X308500Y394099D02*
X450916D01*
X308500Y390499D02*
X450709D01*
X308500Y393199D02*
X450632D01*
X308500Y391399D02*
X450533D01*
X308500Y134899D02*
X450529D01*
X308500Y392299D02*
X450508D01*
X308500Y187999D02*
X450317D01*
X340550Y219499D02*
X449348D01*
X308698Y166399D02*
X449171D01*
X308500Y135799D02*
X448836D01*
X308500Y188899D02*
X448672D01*
X340550Y218599D02*
X447903D01*
X308500Y165499D02*
X447760D01*
X308500Y136699D02*
X447486D01*
X308500Y189799D02*
X447352D01*
X340550Y217699D02*
X446712D01*
X308500Y164599D02*
X446592D01*
X308500Y137599D02*
X446361D01*
X308500Y190699D02*
X446247D01*
X340550Y216799D02*
X445701D01*
X308500Y163699D02*
X445598D01*
X308500Y138499D02*
X445399D01*
X308500Y191599D02*
X445301D01*
X340376Y215899D02*
X444829D01*
X308500Y162799D02*
X444739D01*
X308500Y139399D02*
X444566D01*
X308500Y192499D02*
X444480D01*
X308500Y214999D02*
X444068D01*
X308500Y161899D02*
X443990D01*
X308500Y140299D02*
X443839D01*
X308500Y193399D02*
X443764D01*
X308500Y214099D02*
X443403D01*
X308500Y160999D02*
X443334D01*
X308500Y141199D02*
X443201D01*
X308500Y194299D02*
X443136D01*
X308500Y213199D02*
X442820D01*
X308500Y160099D02*
X442759D01*
X308500Y142099D02*
X442643D01*
X308500Y195199D02*
X442586D01*
X308500Y212299D02*
X442309D01*
X308500Y159199D02*
X442257D01*
X308500Y142999D02*
X442156D01*
X308500Y196099D02*
X442106D01*
X308500Y211399D02*
X441865D01*
X308500Y158299D02*
X441820D01*
X308500Y143899D02*
X441732D01*
X308500Y196999D02*
X441689D01*
X308500Y210499D02*
X441482D01*
X308500Y157399D02*
X441443D01*
X308500Y144799D02*
X441368D01*
X308500Y197899D02*
X441332D01*
X308500Y209599D02*
X441156D01*
X308500Y156499D02*
X441123D01*
X308500Y145699D02*
X441060D01*
X308500Y198799D02*
X441029D01*
X308500Y208699D02*
X440883D01*
X308500Y155599D02*
X440856D01*
X308500Y146599D02*
X440804D01*
X308500Y199699D02*
X440779D01*
X308500Y207799D02*
X440661D01*
X308500Y154699D02*
X440640D01*
X308500Y147499D02*
X440599D01*
X308500Y200599D02*
X440579D01*
X308500Y206899D02*
X440488D01*
X308500Y153799D02*
X440472D01*
X308500Y148399D02*
X440442D01*
X308500Y201499D02*
X440427D01*
X308500Y205999D02*
X440363D01*
X308500Y152899D02*
X440352D01*
X308500Y149299D02*
X440332D01*
X308500Y202399D02*
X440322D01*
X308500Y205099D02*
X440284D01*
X308500Y151999D02*
X440278D01*
X308500Y150199D02*
X440268D01*
X308500Y203299D02*
X440264D01*
X308500Y204199D02*
X440251D01*
X308500Y151099D02*
X440250D01*
X319721Y231199D02*
X330680D01*
X308500Y215899D02*
X330624D01*
X319999Y230299D02*
X330450D01*
X320000Y229399D02*
X330450D01*
X320000Y228499D02*
X330450D01*
X320000Y227599D02*
X330450D01*
X320000Y226699D02*
X330450D01*
X320000Y225799D02*
X330450D01*
X320000Y224899D02*
X330450D01*
X320000Y223999D02*
X330450D01*
X320000Y223099D02*
X330450D01*
X320000Y222199D02*
X330450D01*
X320000Y221299D02*
X330450D01*
X319747Y220399D02*
X330450D01*
X311059Y219499D02*
X330450D01*
X310699Y218599D02*
X330450D01*
X308541Y217699D02*
X330450D01*
X308500Y216799D02*
X330450D01*
X308500Y286999D02*
X318918D01*
X308500Y183499D02*
X318918D01*
X312082Y282499D02*
X317502D01*
X313502Y178999D02*
X317502D01*
X308500Y235699D02*
X317166D01*
X308500Y286099D02*
X317078D01*
X308500Y182599D02*
X317078D01*
X308500Y232099D02*
X317058D01*
X308500Y283399D02*
X316756D01*
X308500Y179899D02*
X316756D01*
X308500Y232999D02*
X316709D01*
X308500Y234799D02*
X316631D01*
X308500Y285199D02*
X316600D01*
X308500Y181699D02*
X316600D01*
X308500Y284299D02*
X316508D01*
X308500Y180799D02*
X316508D01*
X308500Y233899D02*
X316502D01*
X308500Y282499D02*
X311918D01*
X308500Y277999D02*
X310502D01*
X308500Y178999D02*
X310498D01*
X308500Y231199D02*
X310353D01*
X308500Y175399D02*
X310080D01*
X308500Y281599D02*
X310078D01*
X308500Y230299D02*
X310001D01*
X308500Y229399D02*
X310000D01*
X308721Y228499D02*
X310000D01*
X308500Y278899D02*
X309756D01*
X308500Y178099D02*
X309754D01*
X308500Y176299D02*
X309600D01*
X308500Y280699D02*
X309600D01*
X308500Y279799D02*
X309508D01*
X308500Y177199D02*
X309508D01*
X100000Y400000D02*
X500000D01*
Y100000*
X100000*
Y400000*
G54D24*
X280000Y172500D02*
Y181500D01*
X264500Y201000D02*
X265500Y200000D01*
X284000*
X283500Y178000D02*
X280000Y181500D01*
Y184750*
X280250Y185000*
X302000Y169500D02*
X302500Y170000D01*
X307750*
X302000Y222000D02*
X307750D01*
Y221500*
X289500Y178000D02*
X290250D01*
X293750Y181500*
Y185000*
X290000Y200000D02*
X293500Y196500D01*
Y193250*
X293750Y193000*
X304000Y176500D02*
X307500Y173000D01*
X307750*
X290500Y229000D02*
Y232750D01*
X293750Y236000*
X304000Y228000D02*
X306250D01*
X307750Y226500*
X293750Y193000D02*
X296500Y195750D01*
X301000*
X280250Y193000D02*
X280500Y193250D01*
Y196500*
X284000Y200000*
X294250Y170000D02*
Y173500D01*
X297250Y176500*
X298000*
X280250Y236000D02*
Y231500D01*
X282750Y229000*
X284500*
X294250Y221500D02*
Y225500D01*
X296750Y228000*
X298000*
X293750Y185000D02*
Y193000D01*
X307750Y170000D02*
Y173000D01*
Y221500D02*
Y226500D01*
X263000Y251000D02*
X284000D01*
X255500Y301000D02*
X256500Y302000D01*
X284000*
X293375Y247625D02*
X293500Y247500D01*
Y244250*
X293750Y244000*
X293375Y247625D02*
X293500Y247750D01*
X301000*
X284000Y251000D02*
X280000Y247000D01*
Y244250*
X280250Y244000*
X302000Y272000D02*
X304750D01*
X305750Y273000*
X290000Y251000D02*
X293375Y247625D01*
X290000Y302000D02*
X294000Y298000D01*
X290000Y279000D02*
Y282250D01*
X293750Y286000*
X303000Y279500D02*
X304250D01*
X305750Y278000*
X293750Y244000D02*
Y236000D01*
Y295000D02*
X294000Y295250D01*
Y298000*
X293750Y295000D02*
X296750Y298000D01*
X300750*
X301000Y297750*
X280250Y295000D02*
X280500Y295250D01*
Y298500*
X284000Y302000*
X293750Y286000D02*
Y295000D01*
X280250Y286000D02*
Y282000D01*
X283250Y279000*
X284000*
X292250Y273000D02*
Y275500D01*
X296250Y279500*
X297000*
X305750Y273000D02*
Y278000D01*
G54D25*
X252000Y221500D03*
X268000D03*
X252000Y225500D03*
X260000D03*
Y221500D03*
X268000Y225500D03*
Y210000D03*
X260000D03*
X252000D03*
X268000Y206000D03*
X260000D03*
X252000D03*
X268000Y218000D03*
X260000D03*
X252000D03*
X268000Y214000D03*
X260000D03*
X252000D03*
X272000Y221500D03*
X280000D03*
X288000D03*
X272000Y225500D03*
X280000D03*
X288000D03*
X295500Y206500D03*
Y210000D03*
Y203000D03*
X260000Y191000D03*
Y194000D03*
X266000Y191000D03*
Y194000D03*
Y197000D03*
X263000Y191000D03*
Y197000D03*
Y241000D03*
X260000D03*
X266000D03*
X302500Y234000D03*
X299500D03*
X263000Y194000D03*
X280000Y172500D03*
X264500Y201000D03*
X294000Y236000D03*
Y185000D03*
X290500Y189000D03*
X294000Y170000D03*
X302500Y181000D03*
X299500D03*
X300000Y191000D03*
X294500Y221500D03*
X302000Y169500D03*
Y222000D03*
X290500Y240000D03*
X275000Y206000D03*
X291000Y213000D03*
X283000Y206000D03*
Y213000D03*
X291000Y206000D03*
X275000Y213000D03*
X269000Y197000D03*
Y194000D03*
Y191000D03*
Y241000D03*
X279000Y189000D03*
X282000D03*
X285000D03*
Y240000D03*
X282000D03*
X279000D03*
X272000Y197000D03*
Y194000D03*
Y191000D03*
Y241000D03*
X328000Y190000D03*
Y182000D03*
X333000D03*
Y190000D03*
X338500Y182000D03*
Y190000D03*
X322000Y219000D03*
X316500D03*
X311500D03*
X338500Y206000D03*
X328000Y214000D03*
Y198000D03*
Y206000D03*
X333000D03*
Y198000D03*
Y214000D03*
X312000Y177000D03*
X338500Y198000D03*
Y214000D03*
X333500Y221500D03*
X337500D03*
X333500Y227000D03*
X337500D03*
X316500Y243500D03*
X313000D03*
X316500Y239500D03*
X317000Y228000D03*
X313000Y239500D03*
Y224000D03*
X317000D03*
X319000Y234000D03*
Y181000D03*
X313000Y228000D03*
X312000Y214000D03*
X320000D03*
Y198000D03*
X312000D03*
Y206000D03*
X320000D03*
X486000Y218000D03*
X266000Y247000D03*
X268000Y271500D03*
Y275500D03*
X252000D03*
Y271500D03*
X260000Y275500D03*
Y271500D03*
X252000Y267500D03*
Y263500D03*
X260000Y267500D03*
Y263500D03*
X268000Y267500D03*
Y263500D03*
X252000Y259500D03*
Y255500D03*
X260000Y259500D03*
Y255500D03*
X268000Y259500D03*
Y255500D03*
X272000Y271500D03*
X280000D03*
X288000D03*
Y275500D03*
X280000D03*
X272000D03*
X268000Y314000D03*
X260000D03*
X252000D03*
X268000Y318000D03*
X260000D03*
X252000D03*
X296000Y304500D03*
Y308500D03*
Y312500D03*
X260000Y321500D03*
X268000D03*
X295500Y260000D03*
X252000Y310000D03*
X260000D03*
X295500Y257000D03*
X268000Y310000D03*
X252000Y306000D03*
X295500Y254000D03*
X260000Y306000D03*
X268000D03*
X291000Y321500D03*
X252000D03*
X283000D03*
X275000D03*
X260000Y244000D03*
X263000D03*
X266000D03*
X260000Y297000D03*
X263000Y294000D03*
Y297000D03*
X266000Y291000D03*
Y294000D03*
Y297000D03*
X263000Y251000D03*
X255500Y301000D03*
X302500Y284000D03*
X299500D03*
X292000Y273000D03*
X300000Y244000D03*
X290500Y290000D03*
X300000Y294000D03*
X293000Y286000D03*
X302000Y272000D03*
X291000Y255500D03*
X283000D03*
X275000D03*
X291000Y263000D03*
X283000D03*
X275000D03*
X269000Y247000D03*
Y244000D03*
Y291000D03*
Y294000D03*
Y297000D03*
X282000Y290000D03*
X285000D03*
X279000D03*
X275000Y306000D03*
X291000Y313000D03*
X283000Y306000D03*
Y313000D03*
X291000Y306000D03*
X275000Y313000D03*
X272000Y247000D03*
Y244000D03*
Y297000D03*
Y294000D03*
Y291000D03*
X328000Y274000D03*
Y282000D03*
X333000D03*
Y274000D03*
X338500Y282000D03*
Y274000D03*
X310500Y321000D03*
X315500D03*
X321000D03*
X311000Y275000D03*
X316000D03*
X321500D03*
X311000Y271500D03*
X316000D03*
X321500D03*
X338500Y250000D03*
Y308000D03*
Y300000D03*
Y316000D03*
Y258000D03*
Y266000D03*
X333000Y316000D03*
Y258000D03*
Y266000D03*
Y300000D03*
X328000Y266000D03*
Y250000D03*
Y258000D03*
X333000Y250000D03*
Y308000D03*
X328000Y316000D03*
Y300000D03*
Y308000D03*
X312000Y280000D03*
X319000Y284500D03*
X320000Y258000D03*
X312000Y266000D03*
Y250000D03*
X320000D03*
Y266000D03*
X312000Y258000D03*
Y308000D03*
X320000D03*
Y300000D03*
X312000D03*
Y316000D03*
X320000D03*
X291000Y325500D03*
X252000D03*
X260000D03*
X275000D03*
X268000D03*
X283000D03*
X328000Y324000D03*
Y332000D03*
X333000D03*
Y324000D03*
X338500Y332000D03*
Y324000D03*
X310500Y324500D03*
X315500D03*
X321000D03*
G54D26*
X335500Y245500D03*
Y223500D03*
G54D27*
X315000Y242268D03*
Y225732D03*
G54D28*
X280250Y185000D03*
X293750D03*
X305750Y273000D03*
X292250D03*
X280250Y286000D03*
X293750D03*
X280250Y295000D03*
X293750D03*
X307750Y221500D03*
X294250D03*
X280250Y244000D03*
X293750D03*
X280250Y236000D03*
X293750D03*
X307750Y170000D03*
X294250D03*
X280250Y193000D03*
X293750D03*
G54D29*
X301000Y297750D03*
Y284250D03*
Y247750D03*
Y234250D03*
Y195750D03*
Y182250D03*
G54D30*
X303000Y279500D03*
X297000D03*
X284000Y279000D03*
X290000D03*
X284000Y302000D03*
X290000D03*
X304000Y228000D03*
X298000D03*
X284000Y251000D03*
X290000D03*
X284500Y229000D03*
X290500D03*
X304000Y176500D03*
X298000D03*
X284000Y200000D03*
X290000D03*
X283500Y178000D03*
X289500D03*
G74*
X0Y0D02*
M02*
