*
*
G04 PADS VX.1.1 Build Number: 678707 generated Gerber (RS-274-X) file*
G04 PC Version=2.1*
*
%IN "3 Phase IDR (11-21-2015"*%
*
%MOIN*%
*
%FSLAX35Y35*%
*
*
*
*
G04 PC Standard Apertures*
*
*
G04 Thermal Relief Aperture macro.*
%AMTER*
1,1,$1,0,0*
1,0,$1-$2,0,0*
21,0,$3,$4,0,0,45*
21,0,$3,$4,0,0,135*
%
*
*
G04 Annular Aperture macro.*
%AMANN*
1,1,$1,0,0*
1,0,$2,0,0*
%
*
*
G04 Odd Aperture macro.*
%AMODD*
1,1,$1,0,0*
1,0,$1-0.005,0,0*
%
*
*
G04 PC Custom Aperture Macros*
*
*
*
*
*
*
G04 PC Aperture Table*
*
%ADD010C,0.001*%
%ADD011C,0.06*%
%ADD012R,0.053X0.05*%
%ADD013R,0.065X0.06*%
%ADD014C,0.15*%
%ADD015C,0.325*%
%ADD016R,0.06X0.03*%
%ADD017R,0.03X0.06*%
%ADD018R,0.13X0.05*%
%ADD019R,0.012X0.035*%
%ADD020R,0.0937X0.06496*%
%ADD021C,0.28*%
%ADD022C,0.07*%
%ADD023C,0.01*%
%ADD024C,0.012*%
%ADD025C,0.02*%
%ADD059C,0.05*%
*
*
*
*
G04 PC Circuitry*
G04 Layer Name 3 Phase IDR (11-21-2015 - circuitry*
%LPD*%
*
*
G04 PC Custom Flashes*
G04 Layer Name 3 Phase IDR (11-21-2015 - flashes*
%LPD*%
*
*
G04 PC Circuitry*
G04 Layer Name 3 Phase IDR (11-21-2015 - circuitry*
%LPD*%
*
G54D10*
G54D11*
G01X302000Y272000D03*
Y222000D03*
Y169500D03*
X319000Y284500D03*
Y234000D03*
Y181000D03*
G54D12*
X312000Y288000D03*
Y280000D03*
Y238000D03*
Y230000D03*
Y185000D03*
Y177000D03*
G54D13*
X486000Y240000D03*
Y228000D03*
G54D14*
X114000Y330000D03*
X488000Y324000D03*
Y176000D03*
X114000Y246000D03*
Y166000D03*
G54D15*
X146000Y330000D03*
Y246000D03*
Y166000D03*
X458000Y346000D03*
Y151000D03*
Y297000D03*
Y204000D03*
G54D16*
X302000Y315500D03*
Y310500D03*
Y305500D03*
Y300500D03*
X324000D03*
Y305500D03*
Y310500D03*
Y315500D03*
X302000Y265500D03*
Y260500D03*
Y255500D03*
Y250500D03*
X324000D03*
Y255500D03*
Y260500D03*
Y265500D03*
X302000Y213500D03*
Y208500D03*
Y203500D03*
Y198500D03*
X324000D03*
Y203500D03*
Y208500D03*
Y213500D03*
G54D17*
X275500Y295000D03*
X280500D03*
X285500D03*
X290500D03*
Y317000D03*
X285500D03*
X280500D03*
X275500D03*
Y245000D03*
X280500D03*
X285500D03*
X290500D03*
Y267000D03*
X285500D03*
X280500D03*
X275500D03*
Y194000D03*
X280500D03*
X285500D03*
X290500D03*
Y216000D03*
X285500D03*
X280500D03*
X275500D03*
G54D18*
X486000Y274500D03*
Y249500D03*
G54D19*
X298047Y278000D03*
X300016D03*
X301984D03*
X303953D03*
Y290000D03*
X301984D03*
X300016D03*
X298047D03*
Y228000D03*
X300016D03*
X301984D03*
X303953D03*
Y240000D03*
X301984D03*
X300016D03*
X298047D03*
Y175000D03*
X300016D03*
X301984D03*
X303953D03*
Y187000D03*
X301984D03*
X300016D03*
X298047D03*
G54D20*
X301000Y284000D03*
Y234000D03*
Y181000D03*
G54D21*
X118000Y382000D03*
X482000D03*
X118000Y118000D03*
X482000D03*
G54D22*
X456000Y392000D03*
X140000Y108000D03*
G54D23*
X322500Y298500D02*
Y317500D01*
X309500*
Y298500*
X322500*
X309500D02*
Y317500D01*
X310000Y298500D02*
Y317500D01*
X310500Y298500D02*
Y317500D01*
X311000Y298500D02*
Y317500D01*
X311500Y298500D02*
Y317500D01*
X312000Y298500D02*
Y317500D01*
X312500Y298500D02*
Y317500D01*
X313000Y298500D02*
Y317500D01*
X313500Y298500D02*
Y317500D01*
X314000Y298500D02*
Y317500D01*
X314500Y298500D02*
Y317500D01*
X315000Y298500D02*
Y317500D01*
X315500Y298500D02*
Y317500D01*
X316000Y298500D02*
Y317500D01*
X316500Y298500D02*
Y317500D01*
X317000Y298500D02*
Y317500D01*
X317500Y298500D02*
Y317500D01*
X318000Y298500D02*
Y317500D01*
X318500Y298500D02*
Y317500D01*
X319000Y298500D02*
Y317500D01*
X319500Y298500D02*
Y317500D01*
X320000Y298500D02*
Y317500D01*
X320500Y298500D02*
Y317500D01*
X321000Y298500D02*
Y317500D01*
X321500Y298500D02*
Y317500D01*
X322000Y298500D02*
Y317500D01*
X292500Y315500D02*
X273500D01*
Y302500*
X292500*
Y315500*
X273500Y302500D02*
Y315500D01*
X274000Y302500D02*
Y315500D01*
X274500Y302500D02*
Y315500D01*
X275000Y302500D02*
Y315500D01*
X275500Y302500D02*
Y315500D01*
X276000Y302500D02*
Y315500D01*
X276500Y302500D02*
Y315500D01*
X277000Y302500D02*
Y315500D01*
X277500Y302500D02*
Y315500D01*
X278000Y302500D02*
Y315500D01*
X278500Y302500D02*
Y315500D01*
X279000Y302500D02*
Y315500D01*
X279500Y302500D02*
Y315500D01*
X280000Y302500D02*
Y315500D01*
X280500Y302500D02*
Y315500D01*
X281000Y302500D02*
Y315500D01*
X281500Y302500D02*
Y315500D01*
X282000Y302500D02*
Y315500D01*
X282500Y302500D02*
Y315500D01*
X283000Y302500D02*
Y315500D01*
X283500Y302500D02*
Y315500D01*
X284000Y302500D02*
Y315500D01*
X284500Y302500D02*
Y315500D01*
X285000Y302500D02*
Y315500D01*
X285500Y302500D02*
Y315500D01*
X286000Y302500D02*
Y315500D01*
X286500Y302500D02*
Y315500D01*
X287000Y302500D02*
Y315500D01*
X287500Y302500D02*
Y315500D01*
X288000Y302500D02*
Y315500D01*
X288500Y302500D02*
Y315500D01*
X289000Y302500D02*
Y315500D01*
X289500Y302500D02*
Y315500D01*
X290000Y302500D02*
Y315500D01*
X290500Y302500D02*
Y315500D01*
X291000Y302500D02*
Y315500D01*
X291500Y302500D02*
Y315500D01*
X292000Y302500D02*
Y315500D01*
X322500Y248500D02*
Y267500D01*
X309500*
Y248500*
X322500*
X309500D02*
Y267500D01*
X310000Y248500D02*
Y267500D01*
X310500Y248500D02*
Y267500D01*
X311000Y248500D02*
Y267500D01*
X311500Y248500D02*
Y267500D01*
X312000Y248500D02*
Y267500D01*
X312500Y248500D02*
Y267500D01*
X313000Y248500D02*
Y267500D01*
X313500Y248500D02*
Y267500D01*
X314000Y248500D02*
Y267500D01*
X314500Y248500D02*
Y267500D01*
X315000Y248500D02*
Y267500D01*
X315500Y248500D02*
Y267500D01*
X316000Y248500D02*
Y267500D01*
X316500Y248500D02*
Y267500D01*
X317000Y248500D02*
Y267500D01*
X317500Y248500D02*
Y267500D01*
X318000Y248500D02*
Y267500D01*
X318500Y248500D02*
Y267500D01*
X319000Y248500D02*
Y267500D01*
X319500Y248500D02*
Y267500D01*
X320000Y248500D02*
Y267500D01*
X320500Y248500D02*
Y267500D01*
X321000Y248500D02*
Y267500D01*
X321500Y248500D02*
Y267500D01*
X322000Y248500D02*
Y267500D01*
X292500Y265500D02*
X273500D01*
Y252500*
X292500*
Y265500*
X273500Y252500D02*
Y265500D01*
X274000Y252500D02*
Y265500D01*
X274500Y252500D02*
Y265500D01*
X275000Y252500D02*
Y265500D01*
X275500Y252500D02*
Y265500D01*
X276000Y252500D02*
Y265500D01*
X276500Y252500D02*
Y265500D01*
X277000Y252500D02*
Y265500D01*
X277500Y252500D02*
Y265500D01*
X278000Y252500D02*
Y265500D01*
X278500Y252500D02*
Y265500D01*
X279000Y252500D02*
Y265500D01*
X279500Y252500D02*
Y265500D01*
X280000Y252500D02*
Y265500D01*
X280500Y252500D02*
Y265500D01*
X281000Y252500D02*
Y265500D01*
X281500Y252500D02*
Y265500D01*
X282000Y252500D02*
Y265500D01*
X282500Y252500D02*
Y265500D01*
X283000Y252500D02*
Y265500D01*
X283500Y252500D02*
Y265500D01*
X284000Y252500D02*
Y265500D01*
X284500Y252500D02*
Y265500D01*
X285000Y252500D02*
Y265500D01*
X285500Y252500D02*
Y265500D01*
X286000Y252500D02*
Y265500D01*
X286500Y252500D02*
Y265500D01*
X287000Y252500D02*
Y265500D01*
X287500Y252500D02*
Y265500D01*
X288000Y252500D02*
Y265500D01*
X288500Y252500D02*
Y265500D01*
X289000Y252500D02*
Y265500D01*
X289500Y252500D02*
Y265500D01*
X290000Y252500D02*
Y265500D01*
X290500Y252500D02*
Y265500D01*
X291000Y252500D02*
Y265500D01*
X291500Y252500D02*
Y265500D01*
X292000Y252500D02*
Y265500D01*
X322500Y196500D02*
Y215500D01*
X309500*
Y196500*
X322500*
X309500D02*
Y215500D01*
X310000Y196500D02*
Y215500D01*
X310500Y196500D02*
Y215500D01*
X311000Y196500D02*
Y215500D01*
X311500Y196500D02*
Y215500D01*
X312000Y196500D02*
Y215500D01*
X312500Y196500D02*
Y215500D01*
X313000Y196500D02*
Y215500D01*
X313500Y196500D02*
Y215500D01*
X314000Y196500D02*
Y215500D01*
X314500Y196500D02*
Y215500D01*
X315000Y196500D02*
Y215500D01*
X315500Y196500D02*
Y215500D01*
X316000Y196500D02*
Y215500D01*
X316500Y196500D02*
Y215500D01*
X317000Y196500D02*
Y215500D01*
X317500Y196500D02*
Y215500D01*
X318000Y196500D02*
Y215500D01*
X318500Y196500D02*
Y215500D01*
X319000Y196500D02*
Y215500D01*
X319500Y196500D02*
Y215500D01*
X320000Y196500D02*
Y215500D01*
X320500Y196500D02*
Y215500D01*
X321000Y196500D02*
Y215500D01*
X321500Y196500D02*
Y215500D01*
X322000Y196500D02*
Y215500D01*
X292500Y214500D02*
X273500D01*
Y201500*
X292500*
Y214500*
X273500Y201500D02*
Y214500D01*
X274000Y201500D02*
Y214500D01*
X274500Y201500D02*
Y214500D01*
X275000Y201500D02*
Y214500D01*
X275500Y201500D02*
Y214500D01*
X276000Y201500D02*
Y214500D01*
X276500Y201500D02*
Y214500D01*
X277000Y201500D02*
Y214500D01*
X277500Y201500D02*
Y214500D01*
X278000Y201500D02*
Y214500D01*
X278500Y201500D02*
Y214500D01*
X279000Y201500D02*
Y214500D01*
X279500Y201500D02*
Y214500D01*
X280000Y201500D02*
Y214500D01*
X280500Y201500D02*
Y214500D01*
X281000Y201500D02*
Y214500D01*
X281500Y201500D02*
Y214500D01*
X282000Y201500D02*
Y214500D01*
X282500Y201500D02*
Y214500D01*
X283000Y201500D02*
Y214500D01*
X283500Y201500D02*
Y214500D01*
X284000Y201500D02*
Y214500D01*
X284500Y201500D02*
Y214500D01*
X285000Y201500D02*
Y214500D01*
X285500Y201500D02*
Y214500D01*
X286000Y201500D02*
Y214500D01*
X286500Y201500D02*
Y214500D01*
X287000Y201500D02*
Y214500D01*
X287500Y201500D02*
Y214500D01*
X288000Y201500D02*
Y214500D01*
X288500Y201500D02*
Y214500D01*
X289000Y201500D02*
Y214500D01*
X289500Y201500D02*
Y214500D01*
X290000Y201500D02*
Y214500D01*
X290500Y201500D02*
Y214500D01*
X291000Y201500D02*
Y214500D01*
X291500Y201500D02*
Y214500D01*
X292000Y201500D02*
Y214500D01*
X282500Y172500D02*
G75*
G03X282500I-2500J0D01*
G01X475750Y151000D02*
G03X475750I-17750J0D01*
G01Y204000D02*
G03X475750I-17750J0D01*
G01X287500Y248009D02*
Y250000D01*
G03X287000Y250500I-500J-0*
G01X273000*
X272993D02*
G03X273000I7J1500D01*
G01X272993D02*
X272991D01*
X265828*
G03X265357Y250167I0J-500*
G01X262552Y248540D02*
G03X265357Y250167I448J2460D01*
G01X262552Y248540D02*
G03X262109Y248402I-89J-492D01*
G01X254061Y240354*
G03X254414Y239500I353J-354*
G01X287000*
G03X287500Y240000I0J500*
G01Y241991*
Y241993*
Y242000D02*
G03Y241993I1500J0D01*
G01Y242000D02*
Y248000D01*
Y248007D02*
G03Y248000I1500J-7D01*
G01Y248007D02*
Y248009D01*
X306500Y103000D02*
Y166500D01*
G03X305600Y166800I-500J-0*
G01X297786Y171079D02*
G03X305600Y166800I4214J-1579D01*
G01X297786Y171079D02*
G03X297350Y171753I-468J175D01*
G01X296844Y171876D02*
G03X297350Y171753I603J1374D01*
G01X296844Y171876D02*
G03X296203Y171182I-201J-458D01*
G01X295310Y172130D02*
G03X296203Y171182I-1310J-2130D01*
G01X295310Y172130D02*
G03X296040Y172729I261J426D01*
G01X295971Y172981D02*
G03X296040Y172729I1476J269D01*
G01X295971Y172981D02*
G03X295772Y173297I-492J-90D01*
G01X295515Y173515D02*
G03X295772Y173297I1485J1485D01*
G01X295515Y173515D02*
X292515Y176515D01*
X291900Y178000D02*
G03X292515Y176515I2100J0D01*
G01X291900Y178000D02*
Y183503D01*
G03X291833Y183753I-500J0*
G01X291669Y185903D02*
G03X291833Y183753I2331J-903D01*
G01X291669Y185903D02*
G03X291085Y186569I-467J180D01*
G01X288052Y189508D02*
G03X291085Y186569I2448J-508D01*
G01X288052Y189508D02*
G03X287922Y189957I-489J101D01*
G01X287500Y191000D02*
G03X287922Y189957I1500J0D01*
G01X287500Y191000D02*
Y197000D01*
X288990Y198500D02*
G03X287500Y197000I10J-1500D01*
G01X288990Y198500D02*
G03X288987Y199500I-3J500D01*
G01X273000*
X272993D02*
G03X273000I7J1500D01*
G01X272993D02*
X272991D01*
X266736*
G03X266363Y199333I0J-500*
G01X263155Y198893D02*
G03X266363Y199333I1345J2107D01*
G01X263155Y198893D02*
G03X262532Y198825I-269J-422D01*
G01X259646Y195939*
G03X259500Y195586I354J-353*
G01Y103000*
G03X260000Y102500I500J0*
G01X306000*
G03X306500Y103000I0J500*
G01Y178131D02*
Y187900D01*
G03X306000Y188400I-500J-0*
G01X304584*
G03X304084Y187900I0J-500*
G01Y187000*
Y185250*
X302584Y183750D02*
G03X304084Y185250I0J1500D01*
G01X302584Y183750D02*
X301384D01*
X301096Y183778D02*
G03X301384Y183750I288J1472D01*
G01X301096Y183778D02*
G03X300904I-96J-491D01*
G01X300616Y183750D02*
G03X300904Y183778I0J1500D01*
G01X300616Y183750D02*
X299416D01*
X299128Y183778D02*
G03X299416Y183750I288J1472D01*
G01X299128Y183778D02*
G03X298935I-96J-491D01*
G01X298647Y183750D02*
G03X298935Y183778I0J1500D01*
G01X298647Y183750D02*
X297447D01*
X296812Y183891D02*
G03X297447Y183750I635J1359D01*
G01X296812Y183891D02*
G03X296100Y183438I-212J-453D01*
G01Y179077*
G03X296246Y178723I500J-0*
G01X296628Y178342*
G03X297098Y178209I354J353*
G01X297447Y178250D02*
G03X297098Y178209I0J-1500D01*
G01X297447Y178250D02*
X298647D01*
X298935Y178222D02*
G03X298647Y178250I-288J-1472D01*
G01X298935Y178222D02*
G03X299128I96J491D01*
G01X299416Y178250D02*
G03X299128Y178222I0J-1500D01*
G01X299416Y178250D02*
X300616D01*
X300904Y178222D02*
G03X300616Y178250I-288J-1472D01*
G01X300904Y178222D02*
G03X301096I96J491D01*
G01X301384Y178250D02*
G03X301096Y178222I0J-1500D01*
G01X301384Y178250D02*
X302584D01*
X302872Y178222D02*
G03X302584Y178250I-288J-1472D01*
G01X302872Y178222D02*
G03X303065I96J491D01*
G01X303353Y178250D02*
G03X303065Y178222I0J-1500D01*
G01X303353Y178250D02*
X304553D01*
X305638Y177786D02*
G03X304553Y178250I-1085J-1036D01*
G01X305638Y177786D02*
G03X306500Y178131I362J345D01*
G01X287500Y298009D02*
Y299000D01*
G03X287000Y299500I-500J0*
G01X257736*
G03X257363Y299333I0J-500*
G01X256756Y298839D02*
G03X257363Y299333I-1256J2161D01*
G01X256757Y298839D02*
G03X256654Y298053I251J-433D01*
G01X265061Y289646*
G03X265414Y289500I353J354*
G01X287000*
G03X287500Y290000I0J500*
G01Y291991*
Y291993*
Y292000D02*
G03Y291993I1500J0D01*
G01Y292000D02*
Y298000D01*
Y298007D02*
G03Y298000I1500J-7D01*
G01Y298007D02*
Y298009D01*
X497500Y179042D02*
Y374000D01*
G03X496559Y374235I-500J-0*
G01X474235Y396559D02*
G03X496559Y374235I7765J-14559D01*
G01X474235Y396559D02*
G03X474000Y397500I-235J441D01*
G01X459317*
G03X459040Y396583I-0J-500*
G01X452960D02*
G03X459040I3040J-4583D01*
G01X452960D02*
G03X452683Y397500I-277J417D01*
G01X309000*
G03X308500Y397000I0J-500*
G01Y286828*
G03X308833Y286357I500J0*
G01X309768Y285768D02*
G03X308833Y286357I-1768J-1768D01*
G01X309768Y285768D02*
X311389Y284146D01*
G03X311743Y284000I354J354*
G01X314000*
G03X314500Y284500I-0J500*
G01X316885Y280528D02*
G03X314500Y284500I2115J3972D01*
G01X316885Y280528D02*
G03X316150Y280087I-235J-441D01*
G01Y277500*
X314650Y276000D02*
G03X316150Y277500I0J1500D01*
G01X314650Y276000D02*
X309350D01*
X309088Y276023D02*
G03X309350Y276000I262J1477D01*
G01X309087Y276023D02*
G03X308500Y275531I-87J-492D01*
G01Y236828*
G03X308833Y236357I500J0*
G01X309768Y235768D02*
G03X308833Y236357I-1768J-1768D01*
G01X309768Y235768D02*
X311389Y234146D01*
G03X311743Y234000I354J354*
G01X314025*
G03X314523Y234450I0J500*
G01X319724Y229559D02*
G03X314523Y234450I-724J4441D01*
G01X319724Y229559D02*
G03X319337Y228888I81J-494D01*
G01X318863Y226333D02*
G03X319337Y228888I-1863J1667D01*
G01X318863Y226333D02*
G03Y225667I373J-333D01*
G01X315333Y222137D02*
G03X318863Y225667I1667J1863D01*
G01X315333Y222137D02*
G03X314667I-333J-373D01*
G01X310835Y225250D02*
G03X314667Y222137I2165J-1250D01*
G01X310835Y225250D02*
G03X310402Y226000I-433J250D01*
G01X309350*
X309088Y226023D02*
G03X309350Y226000I262J1477D01*
G01X309087Y226023D02*
G03X308500Y225531I-87J-492D01*
G01Y199510*
Y199508*
Y199500D02*
G03Y199508I-2000J0D01*
G01Y199500D02*
Y183828D01*
G03X308833Y183357I500J0*
G01X309768Y182768D02*
G03X308833Y183357I-1768J-1768D01*
G01X309768Y182768D02*
X311389Y181146D01*
G03X311743Y181000I354J354*
G01X314025*
G03X314523Y181450I0J500*
G01X316885Y177028D02*
G03X314523Y181450I2115J3972D01*
G01X316885Y177028D02*
G03X316150Y176587I-235J-441D01*
G01Y174500*
X314650Y173000D02*
G03X316150Y174500I0J1500D01*
G01X314650Y173000D02*
X309350D01*
X309088Y173023D02*
G03X309350Y173000I262J1477D01*
G01X309088Y173023D02*
G03X308500Y172531I-88J-492D01*
G01Y103000*
G03X309000Y102500I500J0*
G01X474000*
G03X474235Y103441I-0J500*
G01X496559Y125765D02*
G03X474235Y103441I-14559J-7765D01*
G01X496559Y125765D02*
G03X497500Y126000I441J235D01*
G01Y172958*
G03X496526Y173119I-500J0*
G01Y178881D02*
G03Y173119I-8526J-2881D01*
G01Y178881D02*
G03X497500Y179042I474J161D01*
G01X305500Y203000D02*
Y215000D01*
G03X305000Y215500I-500J0*
G01X293500*
Y218902*
G03X293250Y219335I-500J-0*
G01Y223665D02*
G03Y219335I1250J-2165D01*
G01Y223665D02*
G03X293500Y224098I-250J433D01*
G01Y227823*
G03X293354Y228177I-500J0*
G01X292515Y229015*
X291900Y230500D02*
G03X292515Y229015I2100J0D01*
G01X291900Y230500D02*
Y234503D01*
G03X291833Y234753I-500J0*
G01X291643Y236833D02*
G03X291833Y234753I2357J-833D01*
G01X291643Y236833D02*
G03X291172Y237500I-471J167D01*
G01X290511*
X290509*
X290491D02*
G03X290509I9J2500D01*
G01X290491D02*
X290489D01*
X287510*
X287508*
X287500D02*
G03X287508I0J2000D01*
G01X287500D02*
X253207D01*
X253199D02*
G03X253207I8J2000D01*
G01X253199D02*
X253197D01*
X252414*
G03X252061Y237354I0J-500*
G01X220207Y205500*
X103000*
G03X102500Y205000I0J-500*
G01Y126000*
G03X103441Y125765I500J0*
G01X125765Y103441D02*
G03X103441Y125765I-7765J14559D01*
G01X125765Y103441D02*
G03X126000Y102500I235J-441D01*
G01X136683*
G03X136960Y103417I0J500*
G01X143040D02*
G03X136960I-3040J4583D01*
G01X143040D02*
G03X143317Y102500I277J-417D01*
G01X257000*
G03X257500Y103000I-0J500*
G01Y195793*
Y195801D02*
G03Y195793I2000J-8D01*
G01Y195801D02*
Y195803D01*
Y196207*
G03X257585Y196371I-393J309*
G01X258086Y197207D02*
G03X257585Y196371I1414J-1414D01*
G01X258086Y197207D02*
X261793Y200914D01*
X261857Y200976D02*
G03X261793Y200914I1350J-1476D01*
G01X261857Y200976D02*
G03X262017Y201287I-337J369D01*
G01X266363Y202667D02*
G03X262017Y201287I-1863J-1667D01*
G01X266363Y202667D02*
G03X266736Y202500I373J333D01*
G01X305000*
G03X305500Y203000I0J500*
G01Y254000D02*
Y268000D01*
G03X304700Y268400I-500J-0*
G01X297517Y271610D02*
G03X304700Y268400I4483J390D01*
G01X297517Y271610D02*
G03X297372Y271921I-498J-43D01*
G01X295280Y274013*
G03X294439Y273549I-353J-354*
G01X292833Y275357D02*
G03X294439Y273549I-833J-2357D01*
G01X292833Y275357D02*
G03X293500Y275828I167J471D01*
G01Y276823*
G03X293354Y277177I-500J0*
G01X291515Y279015*
X290900Y280500D02*
G03X291515Y279015I2100J0D01*
G01X290900Y280500D02*
Y284503D01*
G03X290833Y284753I-500J0*
G01X290643Y286833D02*
G03X290833Y284753I2357J-833D01*
G01X290643Y286833D02*
G03X290172Y287500I-471J167D01*
G01X287510*
X287508*
X287500D02*
G03X287508I0J2000D01*
G01X287500D02*
X265207D01*
X265199D02*
G03X265207I8J2000D01*
G01X265199D02*
X265197D01*
X263793*
X251939Y299354*
G03X251586Y299500I-353J-354*
G01X103000*
G03X102500Y299000I0J-500*
G01Y209000*
G03X103000Y208500I500J0*
G01X219586*
G03X219939Y208646I-0J500*
G01X251170Y239877*
G03X251294Y240084I-354J353*
G01X251793Y240914D02*
G03X251294Y240084I1414J-1414D01*
G01X251793Y240914D02*
X260525Y249646D01*
G03X260643Y250167I-353J354*
G01X264863Y252667D02*
G03X260643Y250167I-1863J-1667D01*
G01X264863Y252667D02*
G03X265236Y252500I373J333D01*
G01X287500*
X287508D02*
G03X287500I-8J-2000D01*
G01X287508D02*
X287510D01*
X297268*
G03X297701Y252750I-0J500*
G01X299000Y253500D02*
G03X297701Y252750I0J-1500D01*
G01X299000Y253500D02*
X305000D01*
G03X305500Y254000I0J500*
G01Y304000D02*
Y397000D01*
G03X305000Y397500I-500J-0*
G01X126000*
G03X125765Y396559I0J-500*
G01X103441Y374235D02*
G03X125765Y396559I14559J7765D01*
G01X103441Y374235D02*
G03X102500Y374000I-441J-235D01*
G01Y303000*
G03X103000Y302500I500J0*
G01X253264*
G03X253637Y302667I-0J500*
G01X257363D02*
G03X253637I-1863J-1667D01*
G01X257363D02*
G03X257736Y302500I373J333D01*
G01X297268*
G03X297701Y302750I-0J500*
G01X299000Y303500D02*
G03X297701Y302750I0J-1500D01*
G01X299000Y303500D02*
X305000D01*
G03X305500Y304000I0J500*
G01X282500Y172500D02*
G03X282500I-2500J0D01*
G01X490750Y231000D02*
Y225000D01*
X490188Y223829D02*
G03X490750Y225000I-938J1171D01*
G01X490188Y223829D02*
G03X490000Y223439I312J-390D01*
G01Y218000*
X482000D02*
G03X490000I4000J0D01*
G01X482000D02*
Y223439D01*
G03X481812Y223829I-500J-0*
G01X481250Y225000D02*
G03X481812Y223829I1500J0D01*
G01X481250Y225000D02*
Y231000D01*
X482750Y232500D02*
G03X481250Y231000I0J-1500D01*
G01X482750Y232500D02*
X489250D01*
X490750Y231000D02*
G03X489250Y232500I-1500J0D01*
G01X494000Y252000D02*
Y247000D01*
X492500Y245500D02*
G03X494000Y247000I0J1500D01*
G01X492500Y245500D02*
X490500D01*
G03X490000Y245000I0J-500*
G01Y244561*
G03X490188Y244171I500J0*
G01X490750Y243000D02*
G03X490188Y244171I-1500J0D01*
G01X490750Y243000D02*
Y237000D01*
X489250Y235500D02*
G03X490750Y237000I0J1500D01*
G01X489250Y235500D02*
X482750D01*
X481250Y237000D02*
G03X482750Y235500I1500J0D01*
G01X481250Y237000D02*
Y243000D01*
X481812Y244171D02*
G03X481250Y243000I938J-1171D01*
G01X481812Y244171D02*
G03X482000Y244561I-312J390D01*
G01Y245000*
G03X481500Y245500I-500J-0*
G01X479500*
X478000Y247000D02*
G03X479500Y245500I1500J0D01*
G01X478000Y247000D02*
Y252000D01*
X479500Y253500D02*
G03X478000Y252000I0J-1500D01*
G01X479500Y253500D02*
X492500D01*
X494000Y252000D02*
G03X492500Y253500I-1500J0D01*
G01X475750Y151000D02*
G03X475750I-17750J0D01*
G01Y204000D02*
G03X475750I-17750J0D01*
G01X338499Y224708D02*
G03X335833Y228863I-999J2292D01*
G01X338499Y224708D02*
G03Y223792I200J-458D01*
G01X335833Y219637D02*
G03X338499Y223792I1667J1863D01*
G01X335833Y219637D02*
G03X335167I-333J-373D01*
G01X332501Y223792D02*
G03X335167Y219637I999J-2292D01*
G01X332501Y223792D02*
G03Y224708I-200J458D01*
G01X335167Y228863D02*
G03X332501Y224708I-1667J-1863D01*
G01X335167Y228863D02*
G03X335833I333J373D01*
G01X264920Y249399D02*
X287500D01*
X262245Y248499D02*
X287500D01*
X255006Y241299D02*
X287500D01*
X254106Y240399D02*
X287500D01*
X261306Y247599D02*
X287500D01*
X260406Y246699D02*
X287500D01*
X259506Y245799D02*
X287500D01*
X258606Y244899D02*
X287500D01*
X257706Y243999D02*
X287500D01*
X256806Y243099D02*
X287500D01*
X255906Y242199D02*
X287500D01*
X265427Y250299D02*
X287401D01*
X304084Y187099D02*
X306500D01*
X304084Y186199D02*
X306500D01*
X304084Y185299D02*
X306500D01*
X303819Y184399D02*
X306500D01*
X296104Y183499D02*
X306500D01*
X296100Y182599D02*
X306500D01*
X296100Y181699D02*
X306500D01*
X296100Y180799D02*
X306500D01*
X296100Y179899D02*
X306500D01*
X296106Y178999D02*
X306500D01*
X305210Y178099D02*
X306499D01*
X304094Y187999D02*
X306490D01*
X305261Y166399D02*
X306500D01*
X304059Y165499D02*
X306500D01*
X259500Y164599D02*
X306500D01*
X259500Y163699D02*
X306500D01*
X259500Y162799D02*
X306500D01*
X259500Y161899D02*
X306500D01*
X259500Y160999D02*
X306500D01*
X259500Y160099D02*
X306500D01*
X259500Y159199D02*
X306500D01*
X259500Y158299D02*
X306500D01*
X259500Y157399D02*
X306500D01*
X259500Y156499D02*
X306500D01*
X259500Y155599D02*
X306500D01*
X259500Y154699D02*
X306500D01*
X259500Y153799D02*
X306500D01*
X259500Y152899D02*
X306500D01*
X259500Y151999D02*
X306500D01*
X259500Y151099D02*
X306500D01*
X259500Y150199D02*
X306500D01*
X259500Y149299D02*
X306500D01*
X259500Y148399D02*
X306500D01*
X259500Y147499D02*
X306500D01*
X259500Y146599D02*
X306500D01*
X259500Y145699D02*
X306500D01*
X259500Y144799D02*
X306500D01*
X259500Y143899D02*
X306500D01*
X259500Y142999D02*
X306500D01*
X259500Y142099D02*
X306500D01*
X259500Y141199D02*
X306500D01*
X259500Y140299D02*
X306500D01*
X259500Y139399D02*
X306500D01*
X259500Y138499D02*
X306500D01*
X259500Y137599D02*
X306500D01*
X259500Y136699D02*
X306500D01*
X259500Y135799D02*
X306500D01*
X259500Y134899D02*
X306500D01*
X259500Y133999D02*
X306500D01*
X259500Y133099D02*
X306500D01*
X259500Y132199D02*
X306500D01*
X259500Y131299D02*
X306500D01*
X259500Y130399D02*
X306500D01*
X259500Y129499D02*
X306500D01*
X259500Y128599D02*
X306500D01*
X259500Y127699D02*
X306500D01*
X259500Y126799D02*
X306500D01*
X259500Y125899D02*
X306500D01*
X259500Y124999D02*
X306500D01*
X259500Y124099D02*
X306500D01*
X259500Y123199D02*
X306500D01*
X259500Y122299D02*
X306500D01*
X259500Y121399D02*
X306500D01*
X259500Y120499D02*
X306500D01*
X259500Y119599D02*
X306500D01*
X259500Y118699D02*
X306500D01*
X259500Y117799D02*
X306500D01*
X259500Y116899D02*
X306500D01*
X259500Y115999D02*
X306500D01*
X259500Y115099D02*
X306500D01*
X259500Y114199D02*
X306500D01*
X259500Y113299D02*
X306500D01*
X259500Y112399D02*
X306500D01*
X259500Y111499D02*
X306500D01*
X259500Y110599D02*
X306500D01*
X259500Y109699D02*
X306500D01*
X259500Y108799D02*
X306500D01*
X259500Y107899D02*
X306500D01*
X259500Y106999D02*
X306500D01*
X259500Y106099D02*
X306500D01*
X259500Y105199D02*
X306500D01*
X259500Y104299D02*
X306500D01*
X259500Y103399D02*
X306500D01*
X259500Y165499D02*
X299941D01*
X259500Y166399D02*
X298739D01*
X259500Y167299D02*
X298075D01*
X296333Y170899D02*
X297723D01*
X295734Y168199D02*
X297692D01*
X296500Y169999D02*
X297528D01*
X296332Y169099D02*
X297518D01*
X296319Y171799D02*
X297068D01*
X282492Y172699D02*
X296050D01*
X282246Y173599D02*
X295431D01*
X281502Y174499D02*
X294531D01*
X259500Y175399D02*
X293631D01*
X259500Y176299D02*
X292731D01*
X259500Y168199D02*
X292266D01*
X282400Y171799D02*
X292264D01*
X259500Y177199D02*
X292059D01*
X259500Y183499D02*
X291900D01*
X259500Y182599D02*
X291900D01*
X259500Y181699D02*
X291900D01*
X259500Y180799D02*
X291900D01*
X259500Y179899D02*
X291900D01*
X259500Y178999D02*
X291900D01*
X259500Y178099D02*
X291900D01*
X259500Y186199D02*
X291689D01*
X259500Y169099D02*
X291668D01*
X281920Y170899D02*
X291667D01*
X259500Y184399D02*
X291573D01*
X259500Y185299D02*
X291518D01*
X259500Y169999D02*
X291500D01*
X265685Y198799D02*
X289445D01*
X259500Y187099D02*
X288877D01*
X259500Y187999D02*
X288209D01*
X259500Y189799D02*
X288025D01*
X259500Y188899D02*
X288002D01*
X261606Y197899D02*
X287799D01*
X259500Y190699D02*
X287531D01*
X260706Y196999D02*
X287500D01*
X259806Y196099D02*
X287500D01*
X259500Y195199D02*
X287500D01*
X259500Y194299D02*
X287500D01*
X259500Y193399D02*
X287500D01*
X259500Y192499D02*
X287500D01*
X259500Y191599D02*
X287500D01*
X259500Y174499D02*
X278498D01*
X259500Y170899D02*
X278080D01*
X259500Y173599D02*
X277754D01*
X259500Y171799D02*
X277600D01*
X259500Y172699D02*
X277508D01*
X262506Y198799D02*
X263315D01*
X256516Y298499D02*
X287500D01*
X263408Y291299D02*
X287500D01*
X264308Y290399D02*
X287500D01*
X257108Y297599D02*
X287500D01*
X258008Y296699D02*
X287500D01*
X258908Y295799D02*
X287500D01*
X259808Y294899D02*
X287500D01*
X260708Y293999D02*
X287500D01*
X261608Y293099D02*
X287500D01*
X262508Y292199D02*
X287500D01*
X257434Y299399D02*
X287302D01*
X496081Y373399D02*
X497500D01*
X495490Y372499D02*
X497500D01*
X494809Y371599D02*
X497500D01*
X494022Y370699D02*
X497500D01*
X493108Y369799D02*
X497500D01*
X492030Y368899D02*
X497500D01*
X490730Y367999D02*
X497500D01*
X489085Y367099D02*
X497500D01*
X486751Y366199D02*
X497500D01*
X308500Y365299D02*
X497500D01*
X308500Y364399D02*
X497500D01*
X308500Y363499D02*
X497500D01*
X308500Y362599D02*
X497500D01*
X308500Y361699D02*
X497500D01*
X308500Y360799D02*
X497500D01*
X308500Y359899D02*
X497500D01*
X308500Y358999D02*
X497500D01*
X308500Y358099D02*
X497500D01*
X308500Y357199D02*
X497500D01*
X308500Y356299D02*
X497500D01*
X308500Y355399D02*
X497500D01*
X308500Y354499D02*
X497500D01*
X308500Y353599D02*
X497500D01*
X308500Y352699D02*
X497500D01*
X308500Y351799D02*
X497500D01*
X308500Y350899D02*
X497500D01*
X308500Y349999D02*
X497500D01*
X308500Y349099D02*
X497500D01*
X308500Y348199D02*
X497500D01*
X308500Y347299D02*
X497500D01*
X308500Y346399D02*
X497500D01*
X308500Y345499D02*
X497500D01*
X308500Y344599D02*
X497500D01*
X308500Y343699D02*
X497500D01*
X308500Y342799D02*
X497500D01*
X308500Y341899D02*
X497500D01*
X308500Y340999D02*
X497500D01*
X308500Y340099D02*
X497500D01*
X308500Y339199D02*
X497500D01*
X308500Y338299D02*
X497500D01*
X308500Y337399D02*
X497500D01*
X308500Y336499D02*
X497500D01*
X308500Y335599D02*
X497500D01*
X308500Y334699D02*
X497500D01*
X308500Y333799D02*
X497500D01*
X308500Y332899D02*
X497500D01*
X308500Y331999D02*
X497500D01*
X308500Y331099D02*
X497500D01*
X308500Y330199D02*
X497500D01*
X308500Y329299D02*
X497500D01*
X308500Y328399D02*
X497500D01*
X308500Y327499D02*
X497500D01*
X308500Y326599D02*
X497500D01*
X308500Y325699D02*
X497500D01*
X308500Y324799D02*
X497500D01*
X308500Y323899D02*
X497500D01*
X308500Y322999D02*
X497500D01*
X308500Y322099D02*
X497500D01*
X308500Y321199D02*
X497500D01*
X308500Y320299D02*
X497500D01*
X308500Y319399D02*
X497500D01*
X308500Y318499D02*
X497500D01*
X308500Y317599D02*
X497500D01*
X308500Y316699D02*
X497500D01*
X308500Y315799D02*
X497500D01*
X308500Y314899D02*
X497500D01*
X308500Y313999D02*
X497500D01*
X308500Y313099D02*
X497500D01*
X308500Y312199D02*
X497500D01*
X308500Y311299D02*
X497500D01*
X308500Y310399D02*
X497500D01*
X308500Y309499D02*
X497500D01*
X308500Y308599D02*
X497500D01*
X308500Y307699D02*
X497500D01*
X308500Y306799D02*
X497500D01*
X308500Y305899D02*
X497500D01*
X308500Y304999D02*
X497500D01*
X308500Y304099D02*
X497500D01*
X308500Y303199D02*
X497500D01*
X308500Y302299D02*
X497500D01*
X308500Y301399D02*
X497500D01*
X308500Y300499D02*
X497500D01*
X308500Y299599D02*
X497500D01*
X308500Y298699D02*
X497500D01*
X308500Y297799D02*
X497500D01*
X308500Y296899D02*
X497500D01*
X308500Y295999D02*
X497500D01*
X308500Y295099D02*
X497500D01*
X308500Y294199D02*
X497500D01*
X308500Y293299D02*
X497500D01*
X308500Y292399D02*
X497500D01*
X308500Y291499D02*
X497500D01*
X308500Y290599D02*
X497500D01*
X308500Y289699D02*
X497500D01*
X320331Y288799D02*
X497500D01*
X321949Y287899D02*
X497500D01*
X322743Y286999D02*
X497500D01*
X323206Y286099D02*
X497500D01*
X323445Y285199D02*
X497500D01*
X323496Y284299D02*
X497500D01*
X323363Y283399D02*
X497500D01*
X323031Y282499D02*
X497500D01*
X322440Y281599D02*
X497500D01*
X321408Y280699D02*
X497500D01*
X316150Y279799D02*
X497500D01*
X316150Y278899D02*
X497500D01*
X316150Y277999D02*
X497500D01*
X316095Y277099D02*
X497500D01*
X315396Y276199D02*
X497500D01*
X308500Y275299D02*
X497500D01*
X308500Y274399D02*
X497500D01*
X308500Y273499D02*
X497500D01*
X308500Y272599D02*
X497500D01*
X308500Y271699D02*
X497500D01*
X308500Y270799D02*
X497500D01*
X308500Y269899D02*
X497500D01*
X308500Y268999D02*
X497500D01*
X308500Y268099D02*
X497500D01*
X308500Y267199D02*
X497500D01*
X308500Y266299D02*
X497500D01*
X308500Y265399D02*
X497500D01*
X308500Y264499D02*
X497500D01*
X308500Y263599D02*
X497500D01*
X308500Y262699D02*
X497500D01*
X308500Y261799D02*
X497500D01*
X308500Y260899D02*
X497500D01*
X308500Y259999D02*
X497500D01*
X308500Y259099D02*
X497500D01*
X308500Y258199D02*
X497500D01*
X308500Y257299D02*
X497500D01*
X308500Y256399D02*
X497500D01*
X308500Y255499D02*
X497500D01*
X308500Y254599D02*
X497500D01*
X308500Y253699D02*
X497500D01*
X493770Y252799D02*
X497500D01*
X494000Y251899D02*
X497500D01*
X494000Y250999D02*
X497500D01*
X494000Y250099D02*
X497500D01*
X494000Y249199D02*
X497500D01*
X494000Y248299D02*
X497500D01*
X494000Y247399D02*
X497500D01*
X493914Y246499D02*
X497500D01*
X493035Y245599D02*
X497500D01*
X490000Y244699D02*
X497500D01*
X490520Y243799D02*
X497500D01*
X490750Y242899D02*
X497500D01*
X490750Y241999D02*
X497500D01*
X490750Y241099D02*
X497500D01*
X490750Y240199D02*
X497500D01*
X490750Y239299D02*
X497500D01*
X490750Y238399D02*
X497500D01*
X490750Y237499D02*
X497500D01*
X490695Y236599D02*
X497500D01*
X489996Y235699D02*
X497500D01*
X323429Y234799D02*
X497500D01*
X323499Y233899D02*
X497500D01*
X323387Y232999D02*
X497500D01*
X490271Y232099D02*
X497500D01*
X490737Y231199D02*
X497500D01*
X490750Y230299D02*
X497500D01*
X490750Y229399D02*
X497500D01*
X490750Y228499D02*
X497500D01*
X490750Y227599D02*
X497500D01*
X490750Y226699D02*
X497500D01*
X490750Y225799D02*
X497500D01*
X490747Y224899D02*
X497500D01*
X490367Y223999D02*
X497500D01*
X490000Y223099D02*
X497500D01*
X490000Y222199D02*
X497500D01*
X490000Y221299D02*
X497500D01*
X490000Y220399D02*
X497500D01*
X490000Y219499D02*
X497500D01*
X490000Y218599D02*
X497500D01*
X489989Y217699D02*
X497500D01*
X489815Y216799D02*
X497500D01*
X489404Y215899D02*
X497500D01*
X488644Y214999D02*
X497500D01*
X486883Y214099D02*
X497500D01*
X473180Y213199D02*
X497500D01*
X473691Y212299D02*
X497500D01*
X474135Y211399D02*
X497500D01*
X474518Y210499D02*
X497500D01*
X474844Y209599D02*
X497500D01*
X475117Y208699D02*
X497500D01*
X475339Y207799D02*
X497500D01*
X475512Y206899D02*
X497500D01*
X475637Y205999D02*
X497500D01*
X475716Y205099D02*
X497500D01*
X475749Y204199D02*
X497500D01*
X475736Y203299D02*
X497500D01*
X475678Y202399D02*
X497500D01*
X475573Y201499D02*
X497500D01*
X475421Y200599D02*
X497500D01*
X475221Y199699D02*
X497500D01*
X474971Y198799D02*
X497500D01*
X474668Y197899D02*
X497500D01*
X474311Y196999D02*
X497500D01*
X473894Y196099D02*
X497500D01*
X473414Y195199D02*
X497500D01*
X472864Y194299D02*
X497500D01*
X472236Y193399D02*
X497500D01*
X471520Y192499D02*
X497500D01*
X470699Y191599D02*
X497500D01*
X469753Y190699D02*
X497500D01*
X468648Y189799D02*
X497500D01*
X467328Y188899D02*
X497500D01*
X465683Y187999D02*
X497500D01*
X463423Y187099D02*
X497500D01*
X308500Y186199D02*
X497500D01*
X320331Y185299D02*
X497500D01*
X491235Y184399D02*
X497500D01*
X492977Y183499D02*
X497500D01*
X494120Y182599D02*
X497500D01*
X494966Y181699D02*
X497500D01*
X495614Y180799D02*
X497500D01*
X496112Y179899D02*
X497500D01*
X496373Y172699D02*
X497500D01*
X495959Y171799D02*
X497500D01*
X495415Y170899D02*
X497500D01*
X494707Y169999D02*
X497500D01*
X493777Y169099D02*
X497500D01*
X492488Y168199D02*
X497500D01*
X490299Y167299D02*
X497500D01*
X466829Y166399D02*
X497500D01*
X468240Y165499D02*
X497500D01*
X469408Y164599D02*
X497500D01*
X470402Y163699D02*
X497500D01*
X471261Y162799D02*
X497500D01*
X472010Y161899D02*
X497500D01*
X472666Y160999D02*
X497500D01*
X473241Y160099D02*
X497500D01*
X473743Y159199D02*
X497500D01*
X474180Y158299D02*
X497500D01*
X474557Y157399D02*
X497500D01*
X474877Y156499D02*
X497500D01*
X475144Y155599D02*
X497500D01*
X475360Y154699D02*
X497500D01*
X475528Y153799D02*
X497500D01*
X475648Y152899D02*
X497500D01*
X475722Y151999D02*
X497500D01*
X475750Y151099D02*
X497500D01*
X475732Y150199D02*
X497500D01*
X475668Y149299D02*
X497500D01*
X475558Y148399D02*
X497500D01*
X475401Y147499D02*
X497500D01*
X475196Y146599D02*
X497500D01*
X474940Y145699D02*
X497500D01*
X474632Y144799D02*
X497500D01*
X474268Y143899D02*
X497500D01*
X473844Y142999D02*
X497500D01*
X473357Y142099D02*
X497500D01*
X472799Y141199D02*
X497500D01*
X472161Y140299D02*
X497500D01*
X471434Y139399D02*
X497500D01*
X470601Y138499D02*
X497500D01*
X469639Y137599D02*
X497500D01*
X468514Y136699D02*
X497500D01*
X467164Y135799D02*
X497500D01*
X465471Y134899D02*
X497500D01*
X486036Y133999D02*
X497500D01*
X488654Y133099D02*
X497500D01*
X490405Y132199D02*
X497500D01*
X491767Y131299D02*
X497500D01*
X492887Y130399D02*
X497500D01*
X493833Y129499D02*
X497500D01*
X494646Y128599D02*
X497500D01*
X495349Y127699D02*
X497500D01*
X495958Y126799D02*
X497500D01*
X496486Y178999D02*
X497498D01*
X496487Y125899D02*
X497490D01*
X496599Y374299D02*
X497401D01*
X465030Y167299D02*
X485701D01*
X472597Y214099D02*
X485117D01*
X321949Y184399D02*
X484765D01*
X462390Y168199D02*
X483512D01*
X471932Y214999D02*
X483356D01*
X322743Y183499D02*
X483023D01*
X471171Y215899D02*
X482596D01*
X308500Y169099D02*
X482223D01*
X470299Y216799D02*
X482185D01*
X469288Y217699D02*
X482011D01*
X323167Y235699D02*
X482004D01*
X308500Y244699D02*
X482000D01*
X339422Y223099D02*
X482000D01*
X339900Y222199D02*
X482000D01*
X461977Y221299D02*
X482000D01*
X464793Y220399D02*
X482000D01*
X466652Y219499D02*
X482000D01*
X468097Y218599D02*
X482000D01*
X323206Y182599D02*
X481880D01*
X323079Y232099D02*
X481729D01*
X338267Y223999D02*
X481633D01*
X308500Y243799D02*
X481480D01*
X322674Y236599D02*
X481305D01*
X308500Y169999D02*
X481293D01*
X322522Y231199D02*
X481263D01*
X338854Y224899D02*
X481253D01*
X308500Y242899D02*
X481250D01*
X308500Y241999D02*
X481250D01*
X308500Y241099D02*
X481250D01*
X308500Y240199D02*
X481250D01*
X308500Y239299D02*
X481250D01*
X319950Y238399D02*
X481250D01*
X321830Y237499D02*
X481250D01*
X321559Y230299D02*
X481250D01*
X338205Y229399D02*
X481250D01*
X339501Y228499D02*
X481250D01*
X339927Y227599D02*
X481250D01*
X339982Y226699D02*
X481250D01*
X339692Y225799D02*
X481250D01*
X323445Y181699D02*
X481034D01*
X308500Y170899D02*
X480585D01*
X323496Y180799D02*
X480386D01*
X308500Y171799D02*
X480041D01*
X323363Y179899D02*
X479888D01*
X308529Y172699D02*
X479627D01*
X323031Y178999D02*
X479514D01*
X315849Y173599D02*
X479326D01*
X322440Y178099D02*
X479248D01*
X316150Y174499D02*
X479126D01*
X321408Y177199D02*
X479080D01*
X316150Y175399D02*
X479020D01*
X316150Y176299D02*
X479005D01*
X308500Y245599D02*
X478965D01*
X308500Y252799D02*
X478230D01*
X308500Y246499D02*
X478086D01*
X308500Y251899D02*
X478000D01*
X308500Y250999D02*
X478000D01*
X308500Y250099D02*
X478000D01*
X308500Y249199D02*
X478000D01*
X308500Y248299D02*
X478000D01*
X308500Y247399D02*
X478000D01*
X463101Y133999D02*
X477964D01*
X308500Y366199D02*
X477249D01*
X308500Y133099D02*
X475346D01*
X308500Y367099D02*
X474915D01*
X458859Y396799D02*
X474458D01*
X308500Y103399D02*
X474302D01*
X308500Y132199D02*
X473595D01*
X308500Y367999D02*
X473270D01*
X459879Y395899D02*
X473107D01*
X308500Y104299D02*
X472806D01*
X308500Y131299D02*
X472233D01*
X308500Y368899D02*
X471970D01*
X460611Y394999D02*
X471837D01*
X308500Y105199D02*
X471590D01*
X308500Y130399D02*
X471113D01*
X308500Y369799D02*
X470892D01*
X461084Y394099D02*
X470781D01*
X308500Y106099D02*
X470572D01*
X308500Y129499D02*
X470167D01*
X308500Y370699D02*
X469978D01*
X461368Y393199D02*
X469882D01*
X308500Y106999D02*
X469703D01*
X308500Y128599D02*
X469354D01*
X308500Y371599D02*
X469191D01*
X461492Y392299D02*
X469109D01*
X308500Y107899D02*
X468953D01*
X308500Y127699D02*
X468651D01*
X308500Y372499D02*
X468510D01*
X461467Y391399D02*
X468438D01*
X308500Y108799D02*
X468304D01*
X308500Y126799D02*
X468042D01*
X308500Y373399D02*
X467919D01*
X461291Y390499D02*
X467857D01*
X308500Y109699D02*
X467740D01*
X308500Y125899D02*
X467513D01*
X308500Y374299D02*
X467408D01*
X460948Y389599D02*
X467354D01*
X308500Y110599D02*
X467253D01*
X308500Y124999D02*
X467058D01*
X308500Y375199D02*
X466967D01*
X460399Y388699D02*
X466921D01*
X308500Y111499D02*
X466835D01*
X308500Y124099D02*
X466668D01*
X308500Y376099D02*
X466591D01*
X459550Y387799D02*
X466552D01*
X308500Y112399D02*
X466480D01*
X308500Y123199D02*
X466340D01*
X308500Y376999D02*
X466276D01*
X458056Y386899D02*
X466244D01*
X308500Y113299D02*
X466184D01*
X308500Y122299D02*
X466070D01*
X308500Y377899D02*
X466018D01*
X308500Y385999D02*
X465992D01*
X308500Y114199D02*
X465944D01*
X308500Y121399D02*
X465854D01*
X308500Y378799D02*
X465814D01*
X308500Y385099D02*
X465794D01*
X308500Y115099D02*
X465757D01*
X308500Y120499D02*
X465690D01*
X308500Y379699D02*
X465661D01*
X308500Y384199D02*
X465647D01*
X308500Y115999D02*
X465622D01*
X308500Y119599D02*
X465578D01*
X308500Y380599D02*
X465560D01*
X308500Y383299D02*
X465551D01*
X308500Y116899D02*
X465537D01*
X308500Y118699D02*
X465515D01*
X308500Y381499D02*
X465508D01*
X308500Y382399D02*
X465505D01*
X308500Y117799D02*
X465501D01*
X339992Y221299D02*
X454023D01*
X308500Y386899D02*
X453944D01*
X308500Y168199D02*
X453610D01*
X308500Y396799D02*
X453141D01*
X308500Y133999D02*
X452899D01*
X308500Y187099D02*
X452577D01*
X308500Y387799D02*
X452450D01*
X308500Y395899D02*
X452121D01*
X308500Y388699D02*
X451601D01*
X308500Y394999D02*
X451389D01*
X339744Y220399D02*
X451207D01*
X308500Y389599D02*
X451052D01*
X308500Y167299D02*
X450970D01*
X308500Y394099D02*
X450916D01*
X308500Y390499D02*
X450709D01*
X308500Y393199D02*
X450632D01*
X308500Y391399D02*
X450533D01*
X308500Y134899D02*
X450529D01*
X308500Y392299D02*
X450508D01*
X308500Y187999D02*
X450317D01*
X338998Y219499D02*
X449348D01*
X308500Y166399D02*
X449171D01*
X308500Y135799D02*
X448836D01*
X308500Y188899D02*
X448672D01*
X308500Y218599D02*
X447903D01*
X308500Y165499D02*
X447760D01*
X308500Y136699D02*
X447486D01*
X308500Y189799D02*
X447352D01*
X308500Y217699D02*
X446712D01*
X308500Y164599D02*
X446592D01*
X308500Y137599D02*
X446361D01*
X308500Y190699D02*
X446247D01*
X308500Y216799D02*
X445701D01*
X308500Y163699D02*
X445598D01*
X308500Y138499D02*
X445399D01*
X308500Y191599D02*
X445301D01*
X308500Y215899D02*
X444829D01*
X308500Y162799D02*
X444739D01*
X308500Y139399D02*
X444566D01*
X308500Y192499D02*
X444480D01*
X308500Y214999D02*
X444068D01*
X308500Y161899D02*
X443990D01*
X308500Y140299D02*
X443839D01*
X308500Y193399D02*
X443764D01*
X308500Y214099D02*
X443403D01*
X308500Y160999D02*
X443334D01*
X308500Y141199D02*
X443201D01*
X308500Y194299D02*
X443136D01*
X308500Y213199D02*
X442820D01*
X308500Y160099D02*
X442759D01*
X308500Y142099D02*
X442643D01*
X308500Y195199D02*
X442586D01*
X308500Y212299D02*
X442309D01*
X308500Y159199D02*
X442257D01*
X308500Y142999D02*
X442156D01*
X308500Y196099D02*
X442106D01*
X308500Y211399D02*
X441865D01*
X308500Y158299D02*
X441820D01*
X308500Y143899D02*
X441732D01*
X308500Y196999D02*
X441689D01*
X308500Y210499D02*
X441482D01*
X308500Y157399D02*
X441443D01*
X308500Y144799D02*
X441368D01*
X308500Y197899D02*
X441332D01*
X308500Y209599D02*
X441156D01*
X308500Y156499D02*
X441123D01*
X308500Y145699D02*
X441060D01*
X308500Y198799D02*
X441029D01*
X308500Y208699D02*
X440883D01*
X308500Y155599D02*
X440856D01*
X308500Y146599D02*
X440804D01*
X308500Y199699D02*
X440779D01*
X308500Y207799D02*
X440661D01*
X308500Y154699D02*
X440640D01*
X308500Y147499D02*
X440599D01*
X308500Y200599D02*
X440579D01*
X308500Y206899D02*
X440488D01*
X308500Y153799D02*
X440472D01*
X308500Y148399D02*
X440442D01*
X308500Y201499D02*
X440427D01*
X308500Y205999D02*
X440363D01*
X308500Y152899D02*
X440352D01*
X308500Y149299D02*
X440332D01*
X308500Y202399D02*
X440322D01*
X308500Y205099D02*
X440284D01*
X308500Y151999D02*
X440278D01*
X308500Y150199D02*
X440268D01*
X308500Y203299D02*
X440264D01*
X308500Y204199D02*
X440251D01*
X308500Y151099D02*
X440250D01*
X334205Y229399D02*
X336795D01*
X334998Y219499D02*
X336002D01*
X319432Y229399D02*
X332795D01*
X319500Y223999D02*
X332733D01*
X319333Y224899D02*
X332146D01*
X308500Y219499D02*
X332002D01*
X319332Y223099D02*
X331578D01*
X319450Y228499D02*
X331499D01*
X318778Y225799D02*
X331308D01*
X308500Y220399D02*
X331256D01*
X318734Y222199D02*
X331100D01*
X319468Y227599D02*
X331073D01*
X319135Y226699D02*
X331018D01*
X308500Y221299D02*
X331008D01*
X308500Y238399D02*
X318050D01*
X308500Y288799D02*
X317669D01*
X308500Y185299D02*
X317669D01*
X308500Y237499D02*
X316170D01*
X308500Y287899D02*
X316051D01*
X308500Y184399D02*
X316051D01*
X308556Y236599D02*
X315326D01*
X308500Y286999D02*
X315257D01*
X308624Y183499D02*
X315257D01*
X314753Y222199D02*
X315247D01*
X309837Y235699D02*
X314833D01*
X309359Y286099D02*
X314794D01*
X309937Y182599D02*
X314794D01*
X310737Y234799D02*
X314571D01*
X310337Y285199D02*
X314555D01*
X310837Y181699D02*
X314555D01*
X311237Y284299D02*
X314458D01*
X308500Y222199D02*
X311266D01*
X308578Y225799D02*
X310803D01*
X308500Y223099D02*
X310668D01*
X308500Y224899D02*
X310667D01*
X308500Y223999D02*
X310500D01*
X229706Y214999D02*
X305500D01*
X228806Y214099D02*
X305500D01*
X227906Y213199D02*
X305500D01*
X227006Y212299D02*
X305500D01*
X226106Y211399D02*
X305500D01*
X225206Y210499D02*
X305500D01*
X224306Y209599D02*
X305500D01*
X223406Y208699D02*
X305500D01*
X222506Y207799D02*
X305500D01*
X221606Y206899D02*
X305500D01*
X220706Y205999D02*
X305500D01*
X102510Y205099D02*
X305500D01*
X102500Y204199D02*
X305500D01*
X265483Y203299D02*
X305500D01*
X242306Y227599D02*
X293500D01*
X241406Y226699D02*
X293500D01*
X240506Y225799D02*
X293500D01*
X239606Y224899D02*
X293500D01*
X233306Y218599D02*
X293500D01*
X232406Y217699D02*
X293500D01*
X231506Y216799D02*
X293500D01*
X230606Y215899D02*
X293500D01*
X238706Y223999D02*
X293490D01*
X243206Y228499D02*
X293031D01*
X234206Y219499D02*
X293002D01*
X237806Y223099D02*
X292578D01*
X235106Y220399D02*
X292256D01*
X244106Y229399D02*
X292212D01*
X236906Y222199D02*
X292100D01*
X236006Y221299D02*
X292008D01*
X245006Y230299D02*
X291910D01*
X248606Y233899D02*
X291900D01*
X247706Y232999D02*
X291900D01*
X246806Y232099D02*
X291900D01*
X245906Y231199D02*
X291900D01*
X249506Y234799D02*
X291808D01*
X251306Y236599D02*
X291573D01*
X250406Y235699D02*
X291518D01*
X252378Y237499D02*
X291208D01*
X102500Y203299D02*
X263517D01*
X102500Y202399D02*
X262428D01*
X102500Y201499D02*
X262050D01*
X102500Y200599D02*
X261477D01*
X102500Y199699D02*
X260577D01*
X102500Y198799D02*
X259677D01*
X102500Y197899D02*
X258777D01*
X102500Y196999D02*
X257904D01*
X102500Y196099D02*
X257500D01*
X102500Y195199D02*
X257500D01*
X102500Y194299D02*
X257500D01*
X102500Y193399D02*
X257500D01*
X102500Y192499D02*
X257500D01*
X102500Y191599D02*
X257500D01*
X102500Y190699D02*
X257500D01*
X102500Y189799D02*
X257500D01*
X102500Y188899D02*
X257500D01*
X102500Y187999D02*
X257500D01*
X102500Y187099D02*
X257500D01*
X102500Y186199D02*
X257500D01*
X102500Y185299D02*
X257500D01*
X102500Y184399D02*
X257500D01*
X102500Y183499D02*
X257500D01*
X102500Y182599D02*
X257500D01*
X102500Y181699D02*
X257500D01*
X102500Y180799D02*
X257500D01*
X102500Y179899D02*
X257500D01*
X102500Y178999D02*
X257500D01*
X102500Y178099D02*
X257500D01*
X102500Y177199D02*
X257500D01*
X102500Y176299D02*
X257500D01*
X102500Y175399D02*
X257500D01*
X102500Y174499D02*
X257500D01*
X102500Y173599D02*
X257500D01*
X102500Y172699D02*
X257500D01*
X102500Y171799D02*
X257500D01*
X102500Y170899D02*
X257500D01*
X102500Y169999D02*
X257500D01*
X102500Y169099D02*
X257500D01*
X102500Y168199D02*
X257500D01*
X102500Y167299D02*
X257500D01*
X102500Y166399D02*
X257500D01*
X102500Y165499D02*
X257500D01*
X102500Y164599D02*
X257500D01*
X102500Y163699D02*
X257500D01*
X102500Y162799D02*
X257500D01*
X102500Y161899D02*
X257500D01*
X102500Y160999D02*
X257500D01*
X102500Y160099D02*
X257500D01*
X102500Y159199D02*
X257500D01*
X102500Y158299D02*
X257500D01*
X102500Y157399D02*
X257500D01*
X102500Y156499D02*
X257500D01*
X102500Y155599D02*
X257500D01*
X102500Y154699D02*
X257500D01*
X102500Y153799D02*
X257500D01*
X102500Y152899D02*
X257500D01*
X102500Y151999D02*
X257500D01*
X102500Y151099D02*
X257500D01*
X102500Y150199D02*
X257500D01*
X102500Y149299D02*
X257500D01*
X102500Y148399D02*
X257500D01*
X102500Y147499D02*
X257500D01*
X102500Y146599D02*
X257500D01*
X102500Y145699D02*
X257500D01*
X102500Y144799D02*
X257500D01*
X102500Y143899D02*
X257500D01*
X102500Y142999D02*
X257500D01*
X102500Y142099D02*
X257500D01*
X102500Y141199D02*
X257500D01*
X102500Y140299D02*
X257500D01*
X102500Y139399D02*
X257500D01*
X102500Y138499D02*
X257500D01*
X102500Y137599D02*
X257500D01*
X102500Y136699D02*
X257500D01*
X102500Y135799D02*
X257500D01*
X102500Y134899D02*
X257500D01*
X122036Y133999D02*
X257500D01*
X124654Y133099D02*
X257500D01*
X126405Y132199D02*
X257500D01*
X127767Y131299D02*
X257500D01*
X128887Y130399D02*
X257500D01*
X129833Y129499D02*
X257500D01*
X130646Y128599D02*
X257500D01*
X131349Y127699D02*
X257500D01*
X131958Y126799D02*
X257500D01*
X132487Y125899D02*
X257500D01*
X132942Y124999D02*
X257500D01*
X133332Y124099D02*
X257500D01*
X133660Y123199D02*
X257500D01*
X133930Y122299D02*
X257500D01*
X134146Y121399D02*
X257500D01*
X134310Y120499D02*
X257500D01*
X134422Y119599D02*
X257500D01*
X134485Y118699D02*
X257500D01*
X134499Y117799D02*
X257500D01*
X134463Y116899D02*
X257500D01*
X134378Y115999D02*
X257500D01*
X134243Y115099D02*
X257500D01*
X134056Y114199D02*
X257500D01*
X141474Y113299D02*
X257500D01*
X143302Y112399D02*
X257500D01*
X144244Y111499D02*
X257500D01*
X144847Y110599D02*
X257500D01*
X145231Y109699D02*
X257500D01*
X145442Y108799D02*
X257500D01*
X145499Y107899D02*
X257500D01*
X145408Y106999D02*
X257500D01*
X145161Y106099D02*
X257500D01*
X144733Y105199D02*
X257500D01*
X144068Y104299D02*
X257500D01*
X143015Y103399D02*
X257500D01*
X133816Y113299D02*
X138526D01*
X125698Y103399D02*
X136985D01*
X133520Y112399D02*
X136698D01*
X127194Y104299D02*
X135932D01*
X133165Y111499D02*
X135756D01*
X128410Y105199D02*
X135267D01*
X132747Y110599D02*
X135153D01*
X129428Y106099D02*
X134839D01*
X132260Y109699D02*
X134769D01*
X130297Y106999D02*
X134592D01*
X131696Y108799D02*
X134558D01*
X131047Y107899D02*
X134501D01*
X102500Y133999D02*
X113964D01*
X102500Y133099D02*
X111346D01*
X102500Y132199D02*
X109595D01*
X102500Y131299D02*
X108233D01*
X102500Y130399D02*
X107113D01*
X102500Y129499D02*
X106167D01*
X102500Y128599D02*
X105354D01*
X102500Y127699D02*
X104651D01*
X102500Y126799D02*
X104042D01*
X102510Y125899D02*
X103513D01*
X303852Y267899D02*
X305500D01*
X102500Y266999D02*
X305500D01*
X102500Y266099D02*
X305500D01*
X102500Y265199D02*
X305500D01*
X102500Y264299D02*
X305500D01*
X102500Y263399D02*
X305500D01*
X102500Y262499D02*
X305500D01*
X102500Y261599D02*
X305500D01*
X102500Y260699D02*
X305500D01*
X102500Y259799D02*
X305500D01*
X102500Y258899D02*
X305500D01*
X102500Y257999D02*
X305500D01*
X102500Y257099D02*
X305500D01*
X102500Y256199D02*
X305500D01*
X102500Y255299D02*
X305500D01*
X102500Y254399D02*
X305500D01*
X102500Y267899D02*
X300148D01*
X263082Y253499D02*
X298937D01*
X102500Y268799D02*
X298837D01*
X102500Y269699D02*
X298133D01*
X292696Y270599D02*
X297724D01*
X264938Y252599D02*
X297566D01*
X293999Y271499D02*
X297528D01*
X294427Y272399D02*
X296894D01*
X294482Y273299D02*
X295994D01*
X102500Y275999D02*
X293500D01*
X102500Y276899D02*
X293494D01*
X102500Y277799D02*
X292731D01*
X102500Y278699D02*
X291831D01*
X102500Y270599D02*
X291304D01*
X102500Y279599D02*
X291103D01*
X102500Y284099D02*
X290900D01*
X102500Y283199D02*
X290900D01*
X102500Y282299D02*
X290900D01*
X102500Y281399D02*
X290900D01*
X102500Y280499D02*
X290900D01*
X102500Y284999D02*
X290709D01*
X102500Y275099D02*
X290641D01*
X102500Y286799D02*
X290631D01*
X102500Y285899D02*
X290502D01*
X102500Y271499D02*
X290001D01*
X102500Y274199D02*
X289806D01*
X102500Y272399D02*
X289573D01*
X102500Y273299D02*
X289518D01*
X102500Y287699D02*
X263594D01*
X102500Y253499D02*
X262918D01*
X102500Y288599D02*
X262694D01*
X102500Y289499D02*
X261794D01*
X102500Y252599D02*
X261078D01*
X102500Y290399D02*
X260894D01*
X102500Y249899D02*
X260661D01*
X102500Y251699D02*
X260600D01*
X102500Y250799D02*
X260508D01*
X102500Y291299D02*
X259994D01*
X102500Y248999D02*
X259877D01*
X102500Y292199D02*
X259094D01*
X102500Y248099D02*
X258977D01*
X102500Y293099D02*
X258194D01*
X102500Y247199D02*
X258077D01*
X102500Y293999D02*
X257294D01*
X102500Y246299D02*
X257177D01*
X102500Y294899D02*
X256394D01*
X102500Y245399D02*
X256277D01*
X102500Y295799D02*
X255494D01*
X102500Y244499D02*
X255377D01*
X102500Y296699D02*
X254594D01*
X102500Y243599D02*
X254477D01*
X102500Y297599D02*
X253694D01*
X102500Y242699D02*
X253577D01*
X102500Y298499D02*
X252794D01*
X102500Y241799D02*
X252677D01*
X102698Y299399D02*
X251888D01*
X102500Y240899D02*
X251778D01*
X102500Y239999D02*
X251259D01*
X102500Y239099D02*
X250392D01*
X102500Y238199D02*
X249492D01*
X102500Y237299D02*
X248592D01*
X102500Y236399D02*
X247692D01*
X102500Y235499D02*
X246792D01*
X102500Y234599D02*
X245892D01*
X102500Y233699D02*
X244992D01*
X102500Y232799D02*
X244092D01*
X102500Y231899D02*
X243192D01*
X102500Y230999D02*
X242292D01*
X102500Y230099D02*
X241392D01*
X102500Y229199D02*
X240492D01*
X102500Y228299D02*
X239592D01*
X102500Y227399D02*
X238692D01*
X102500Y226499D02*
X237792D01*
X102500Y225599D02*
X236892D01*
X102500Y224699D02*
X235992D01*
X102500Y223799D02*
X235092D01*
X102500Y222899D02*
X234192D01*
X102500Y221999D02*
X233292D01*
X102500Y221099D02*
X232392D01*
X102500Y220199D02*
X231492D01*
X102500Y219299D02*
X230592D01*
X102500Y218399D02*
X229692D01*
X102500Y217499D02*
X228792D01*
X102500Y216599D02*
X227892D01*
X102500Y215699D02*
X226992D01*
X102500Y214799D02*
X226092D01*
X102500Y213899D02*
X225192D01*
X102500Y212999D02*
X224292D01*
X102500Y212099D02*
X223392D01*
X102500Y211199D02*
X222492D01*
X102500Y210299D02*
X221592D01*
X102500Y209399D02*
X220692D01*
X125500Y396999D02*
X305500D01*
X126572Y396099D02*
X305500D01*
X127902Y395199D02*
X305500D01*
X129000Y394299D02*
X305500D01*
X129930Y393399D02*
X305500D01*
X130729Y392499D02*
X305500D01*
X131421Y391599D02*
X305500D01*
X132021Y390699D02*
X305500D01*
X132541Y389799D02*
X305500D01*
X132989Y388899D02*
X305500D01*
X133371Y387999D02*
X305500D01*
X133692Y387099D02*
X305500D01*
X133957Y386199D02*
X305500D01*
X134167Y385299D02*
X305500D01*
X134325Y384399D02*
X305500D01*
X134432Y383499D02*
X305500D01*
X134489Y382599D02*
X305500D01*
X134497Y381699D02*
X305500D01*
X134456Y380799D02*
X305500D01*
X134366Y379899D02*
X305500D01*
X134225Y378999D02*
X305500D01*
X134032Y378099D02*
X305500D01*
X133786Y377199D02*
X305500D01*
X133484Y376299D02*
X305500D01*
X133122Y375399D02*
X305500D01*
X132696Y374499D02*
X305500D01*
X132201Y373599D02*
X305500D01*
X131629Y372699D02*
X305500D01*
X130969Y371799D02*
X305500D01*
X130207Y370899D02*
X305500D01*
X129323Y369999D02*
X305500D01*
X128286Y369099D02*
X305500D01*
X127043Y368199D02*
X305500D01*
X125491Y367299D02*
X305500D01*
X123371Y366399D02*
X305500D01*
X102500Y365499D02*
X305500D01*
X102500Y364599D02*
X305500D01*
X102500Y363699D02*
X305500D01*
X102500Y362799D02*
X305500D01*
X102500Y361899D02*
X305500D01*
X102500Y360999D02*
X305500D01*
X102500Y360099D02*
X305500D01*
X102500Y359199D02*
X305500D01*
X102500Y358299D02*
X305500D01*
X102500Y357399D02*
X305500D01*
X102500Y356499D02*
X305500D01*
X102500Y355599D02*
X305500D01*
X102500Y354699D02*
X305500D01*
X102500Y353799D02*
X305500D01*
X102500Y352899D02*
X305500D01*
X102500Y351999D02*
X305500D01*
X102500Y351099D02*
X305500D01*
X102500Y350199D02*
X305500D01*
X102500Y349299D02*
X305500D01*
X102500Y348399D02*
X305500D01*
X102500Y347499D02*
X305500D01*
X102500Y346599D02*
X305500D01*
X102500Y345699D02*
X305500D01*
X102500Y344799D02*
X305500D01*
X102500Y343899D02*
X305500D01*
X102500Y342999D02*
X305500D01*
X102500Y342099D02*
X305500D01*
X102500Y341199D02*
X305500D01*
X102500Y340299D02*
X305500D01*
X102500Y339399D02*
X305500D01*
X102500Y338499D02*
X305500D01*
X102500Y337599D02*
X305500D01*
X102500Y336699D02*
X305500D01*
X102500Y335799D02*
X305500D01*
X102500Y334899D02*
X305500D01*
X102500Y333999D02*
X305500D01*
X102500Y333099D02*
X305500D01*
X102500Y332199D02*
X305500D01*
X102500Y331299D02*
X305500D01*
X102500Y330399D02*
X305500D01*
X102500Y329499D02*
X305500D01*
X102500Y328599D02*
X305500D01*
X102500Y327699D02*
X305500D01*
X102500Y326799D02*
X305500D01*
X102500Y325899D02*
X305500D01*
X102500Y324999D02*
X305500D01*
X102500Y324099D02*
X305500D01*
X102500Y323199D02*
X305500D01*
X102500Y322299D02*
X305500D01*
X102500Y321399D02*
X305500D01*
X102500Y320499D02*
X305500D01*
X102500Y319599D02*
X305500D01*
X102500Y318699D02*
X305500D01*
X102500Y317799D02*
X305500D01*
X102500Y316899D02*
X305500D01*
X102500Y315999D02*
X305500D01*
X102500Y315099D02*
X305500D01*
X102500Y314199D02*
X305500D01*
X102500Y313299D02*
X305500D01*
X102500Y312399D02*
X305500D01*
X102500Y311499D02*
X305500D01*
X102500Y310599D02*
X305500D01*
X102500Y309699D02*
X305500D01*
X102500Y308799D02*
X305500D01*
X102500Y307899D02*
X305500D01*
X102500Y306999D02*
X305500D01*
X102500Y306099D02*
X305500D01*
X102500Y305199D02*
X305500D01*
X102500Y304299D02*
X305500D01*
X256205Y303399D02*
X298458D01*
X102500D02*
X254795D01*
X102500Y366399D02*
X112629D01*
X102500Y367299D02*
X110509D01*
X102500Y368199D02*
X108957D01*
X102500Y369099D02*
X107714D01*
X102500Y369999D02*
X106677D01*
X102500Y370899D02*
X105793D01*
X102500Y371799D02*
X105031D01*
X102500Y372699D02*
X104371D01*
X102500Y373599D02*
X103799D01*
X102965Y374499D02*
X103035D01*
X100000Y400000D02*
X500000D01*
Y100000*
X100000*
Y400000*
G54D24*
X294000Y236000D02*
Y230500D01*
X296500Y228000*
X298047*
X294000Y185000D02*
Y178000D01*
X297000Y175000*
X298047*
X300000Y191000D02*
X300016Y190984D01*
Y187000*
X300000Y191000D02*
Y198500D01*
X302000*
X297047Y190000D02*
X298047Y189000D01*
Y187000*
X297047Y190000D02*
Y203500D01*
X302000*
X297047Y242500D02*
X298047Y241500D01*
Y240000*
X297047Y242500D02*
Y255500D01*
X302000*
X301000Y181000D02*
X303953D01*
Y187000*
X301984D02*
Y189484D01*
X303000Y190500*
X310500*
X312000Y189000*
Y185000*
X301984Y175000D02*
Y169516D01*
X302000Y169500*
X301000Y234000D02*
X303953D01*
Y240000*
X301984D02*
Y242500D01*
X302984Y243500*
X309500*
X312000Y241000*
Y238000*
X301984Y228000D02*
Y222016D01*
X302000Y222000*
X290500Y194000D02*
Y189000D01*
X300000Y244000D02*
X300016Y243984D01*
Y240000*
X300000Y244000D02*
Y250500D01*
X302000*
X300000Y294000D02*
X300016Y293984D01*
Y290000*
X300000Y294000D02*
Y300500D01*
X302000*
X293000Y286000D02*
Y280500D01*
X295500Y278000*
X298047*
X297500Y292547D02*
X298047Y292000D01*
Y290000*
X297500Y292547D02*
Y305500D01*
X302000*
X301000Y284000D02*
X303953D01*
Y290000*
X301984D02*
Y292500D01*
X302984Y293500*
X310000*
X312000Y291500*
Y288000*
X301984Y278000D02*
Y272016D01*
X302000Y272000*
X290500Y245000D02*
Y240000D01*
Y295000D02*
Y290000D01*
G54D25*
X301000Y181000D02*
X308000D01*
X312000Y177000*
X301000Y234000D02*
X308000D01*
X312000Y230000*
X301000Y284000D02*
X308000D01*
X312000Y280000*
X252000Y221500D03*
X268000D03*
X252000Y225500D03*
X260000D03*
Y221500D03*
X268000Y225500D03*
Y210000D03*
X260000D03*
X252000D03*
X268000Y206000D03*
X260000D03*
X252000D03*
X268000Y218000D03*
X260000D03*
X252000D03*
X268000Y214000D03*
X260000D03*
X252000D03*
X272000Y221500D03*
X280000D03*
X288000D03*
X272000Y225500D03*
X280000D03*
X288000D03*
X295500Y206500D03*
Y210000D03*
Y203000D03*
X260000Y191000D03*
Y194000D03*
X266000Y191000D03*
Y194000D03*
Y197000D03*
X263000Y191000D03*
Y197000D03*
Y241000D03*
X260000D03*
X266000D03*
X302500Y234000D03*
X299500D03*
X263000Y194000D03*
X280000Y172500D03*
X264500Y201000D03*
X294000Y236000D03*
Y185000D03*
X290500Y189000D03*
X294000Y170000D03*
X302500Y181000D03*
X299500D03*
X300000Y191000D03*
X294500Y221500D03*
X302000Y169500D03*
Y222000D03*
X290500Y240000D03*
X275000Y206000D03*
X291000Y213000D03*
X283000Y206000D03*
Y213000D03*
X291000Y206000D03*
X275000Y213000D03*
X269000Y197000D03*
Y194000D03*
Y191000D03*
Y241000D03*
X279000Y189000D03*
X282000D03*
X285000D03*
Y240000D03*
X282000D03*
X279000D03*
X272000Y197000D03*
Y194000D03*
Y191000D03*
Y241000D03*
X328000Y190000D03*
Y182000D03*
X333000D03*
Y190000D03*
X338500Y182000D03*
Y190000D03*
X322000Y219000D03*
X316500D03*
X311500D03*
X338500Y206000D03*
X328000Y214000D03*
Y198000D03*
Y206000D03*
X333000D03*
Y198000D03*
Y214000D03*
X312000Y177000D03*
X338500Y198000D03*
Y214000D03*
X333500Y221500D03*
X337500D03*
X333500Y227000D03*
X337500D03*
X316500Y243500D03*
X313000D03*
X316500Y239500D03*
X317000Y228000D03*
X313000Y239500D03*
Y224000D03*
X317000D03*
X319000Y234000D03*
Y181000D03*
X313000Y228000D03*
X312000Y214000D03*
X320000D03*
Y198000D03*
X312000D03*
Y206000D03*
X320000D03*
X486000Y218000D03*
X266000Y247000D03*
X268000Y271500D03*
Y275500D03*
X252000D03*
Y271500D03*
X260000Y275500D03*
Y271500D03*
X252000Y267500D03*
Y263500D03*
X260000Y267500D03*
Y263500D03*
X268000Y267500D03*
Y263500D03*
X252000Y259500D03*
Y255500D03*
X260000Y259500D03*
Y255500D03*
X268000Y259500D03*
Y255500D03*
X272000Y271500D03*
X280000D03*
X288000D03*
Y275500D03*
X280000D03*
X272000D03*
X268000Y314000D03*
X260000D03*
X252000D03*
X268000Y318000D03*
X260000D03*
X252000D03*
X296000Y304500D03*
Y308500D03*
Y312500D03*
X260000Y321500D03*
X268000D03*
X295500Y260000D03*
X252000Y310000D03*
X260000D03*
X295500Y257000D03*
X268000Y310000D03*
X252000Y306000D03*
X295500Y254000D03*
X260000Y306000D03*
X268000D03*
X291000Y321500D03*
X252000D03*
X283000D03*
X275000D03*
X260000Y244000D03*
X263000D03*
X266000D03*
X260000Y297000D03*
X263000Y294000D03*
Y297000D03*
X266000Y291000D03*
Y294000D03*
Y297000D03*
X263000Y251000D03*
X255500Y301000D03*
X302500Y284000D03*
X299500D03*
X292000Y273000D03*
X300000Y244000D03*
X290500Y290000D03*
X300000Y294000D03*
X293000Y286000D03*
X302000Y272000D03*
X291000Y255500D03*
X283000D03*
X275000D03*
X291000Y263000D03*
X283000D03*
X275000D03*
X269000Y247000D03*
Y244000D03*
Y291000D03*
Y294000D03*
Y297000D03*
X282000Y290000D03*
X285000D03*
X279000D03*
X275000Y306000D03*
X291000Y313000D03*
X283000Y306000D03*
Y313000D03*
X291000Y306000D03*
X275000Y313000D03*
X272000Y247000D03*
Y244000D03*
Y297000D03*
Y294000D03*
Y291000D03*
X328000Y274000D03*
Y282000D03*
X333000D03*
Y274000D03*
X338500Y282000D03*
Y274000D03*
X310500Y321000D03*
X315500D03*
X321000D03*
X311000Y275000D03*
X316000D03*
X321500D03*
X311000Y271500D03*
X316000D03*
X321500D03*
X338500Y250000D03*
Y308000D03*
Y300000D03*
Y316000D03*
Y258000D03*
Y266000D03*
X333000Y316000D03*
Y258000D03*
Y266000D03*
Y300000D03*
X328000Y266000D03*
Y250000D03*
Y258000D03*
X333000Y250000D03*
Y308000D03*
X328000Y316000D03*
Y300000D03*
Y308000D03*
X312000Y280000D03*
X319000Y284500D03*
X320000Y258000D03*
X312000Y266000D03*
Y250000D03*
X320000D03*
Y266000D03*
X312000Y258000D03*
Y308000D03*
X320000D03*
Y300000D03*
X312000D03*
Y316000D03*
X320000D03*
X291000Y325500D03*
X252000D03*
X260000D03*
X275000D03*
X268000D03*
X283000D03*
X328000Y324000D03*
Y332000D03*
X333000D03*
Y324000D03*
X338500Y332000D03*
Y324000D03*
X310500Y324500D03*
X315500D03*
X321000D03*
G54D59*
X486000Y218000D02*
Y228000D01*
Y240000D02*
Y249500D01*
G74*
X0Y0D02*
M02*
