%
T1C.01F095S3
X028Y01725
X0294Y017
X02995Y0181
X0302Y01695
X03025Y0181
X0312Y0177
X0319Y0181
X0328Y0182
X0333Y0182
X03385Y0182
X03385Y019
X03385Y0206
X03385Y0198
X0333Y019
X0333Y0206
X0333Y0198
X0328Y019
X0328Y0198
X0328Y0206
X032Y0198
X032Y0206
X0312Y0198
X0312Y0206
X03Y0191
X02955Y0203
X02955Y02065
X0294Y0185
X0291Y0206
X02905Y0189
X0285Y0189
X0283Y0206
X0282Y0189
X0279Y0189
X0275Y0206
X0272Y0197
X0272Y0194
X0272Y0191
X0269Y0197
X0269Y0194
X0269Y0191
X0268Y0206
X0266Y0194
X0266Y0197
X0266Y0191
X02645Y0201
X0263Y0191
X0263Y0194
X0263Y0197
X026Y0194
X026Y0191
X026Y0206
X0252Y0206
X0252Y0218
X0252Y0214
X0252Y02215
X0252Y021
X0252Y02255
X026Y0214
X026Y021
X026Y0218
X026Y02255
X026Y02215
X0268Y02255
X0268Y021
X0268Y0218
X0268Y02215
X0268Y0214
X0272Y02255
X0272Y02215
X0275Y0213
X028Y02255
X028Y02215
X0283Y0213
X0288Y02255
X0288Y02215
X0291Y0213
X02945Y02215
X02955Y021
X0302Y0222
X03115Y0219
X0312Y0214
X0313Y0224
X0313Y0228
X03165Y0219
X0317Y0228
X0317Y0224
X032Y0214
X0322Y0219
X0328Y0214
X0333Y0214
X03335Y0227
X03335Y02215
X03375Y02215
X03375Y0227
X03385Y0214
X0486Y0218
X03385Y025
X0333Y025
X0328Y025
X032Y025
X0319Y0234
X03165Y02435
X03165Y02395
X0313Y02395
X0313Y02435
X0312Y025
X03025Y0234
X03Y0244
X02995Y0234
X02955Y0257
X02955Y0254
X0294Y0236
X0291Y02555
X02905Y024
X0285Y024
X0283Y02555
X0282Y024
X0279Y024
X0275Y02555
X0272Y0241
X0272Y0247
X0272Y0244
X0269Y0247
X0269Y0244
X0269Y0241
X0268Y02555
X0266Y0241
X0266Y0244
X0266Y0247
X0263Y0244
X0263Y0251
X0263Y0241
X026Y02555
X026Y0244
X026Y0241
X0252Y02555
X0252Y02715
X0252Y02675
X0252Y02635
X0252Y02595
X0252Y02755
X026Y02715
X026Y02675
X026Y02635
X026Y02595
X026Y02755
X0268Y02675
X0268Y02635
X0268Y02715
X0268Y02755
X0268Y02595
X0272Y02755
X0272Y02715
X0275Y0263
X028Y02755
X028Y02715
X0283Y0263
X0288Y02715
X0288Y02755
X0291Y0263
X0292Y0273
X02955Y026
X0302Y0272
X0311Y0275
X0311Y02715
X0312Y028
X0312Y0266
X0312Y0258
X0316Y02715
X0316Y0275
X032Y0258
X032Y0266
X03215Y02715
X03215Y0275
X0328Y0266
X0328Y0258
X0328Y0282
X0328Y0274
X0333Y0282
X0333Y0258
X0333Y0274
X0333Y0266
X03385Y0282
X03385Y0266
X03385Y0258
X03385Y0274
X03385Y03
X0333Y03
X0328Y03
X032Y03
X0319Y02845
X0312Y03
X03025Y0284
X03Y0294
X02995Y0284
X0296Y03045
X0293Y0286
X0291Y0306
X02905Y029
X0285Y029
X0283Y0306
X0282Y029
X0279Y029
X0275Y0306
X0272Y0291
X0272Y0297
X0272Y0294
X0269Y0291
X0269Y0294
X0269Y0297
X0268Y0306
X0266Y0291
X0266Y0294
X0266Y0297
X0263Y0297
X0263Y0294
X026Y0306
X026Y0297
X02555Y0301
X0252Y0306
X0252Y03215
X0252Y0318
X0252Y0314
X0252Y031
X0252Y03255
X026Y0318
X026Y03215
X026Y031
X026Y0314
X026Y03255
X0268Y03215
X0268Y0314
X0268Y0318
X0268Y031
X0268Y03255
X0275Y03215
X0275Y0313
X0275Y03255
X0283Y0313
X0283Y03215
X0283Y03255
X0291Y03255
X0291Y0313
X0291Y03215
X0296Y03125
X0296Y03085
X03105Y0321
X03105Y03245
X0312Y0316
X0312Y0308
X03155Y0321
X03155Y03245
X032Y0316
X032Y0308
X0321Y0321
X0321Y03245
X0328Y0324
X0328Y0332
X0328Y0308
X0328Y0316
X0333Y0332
X0333Y0324
X0333Y0308
X0333Y0316
X03385Y0324
X03385Y0308
X03385Y0316
X03385Y0332
T2C.07F081S55
X014Y0108
X0456Y0392
T3C.094F066S55
X0114Y0166
X0114Y0246
X0488Y0176
X0488Y0324
X0114Y033
T4C.188F035S1033
X0118Y0118
X0482Y0118
X0482Y0382
X0118Y0382
T5C.205F0S0
X0146Y0166
X0458Y0151
X0458Y0204
X0458Y0297
X0458Y0346
X0146Y033
X0146Y0246
M30
