*
*
G04 PADS VX.1.1 Build Number: 678707 generated Gerber (RS-274-X) file*
G04 PC Version=2.1*
*
%IN "3 Phase IDR (11-21-2015"*%
*
%MOIN*%
*
%FSLAX35Y35*%
*
*
*
*
G04 PC Standard Apertures*
*
*
G04 Thermal Relief Aperture macro.*
%AMTER*
1,1,$1,0,0*
1,0,$1-$2,0,0*
21,0,$3,$4,0,0,45*
21,0,$3,$4,0,0,135*
%
*
*
G04 Annular Aperture macro.*
%AMANN*
1,1,$1,0,0*
1,0,$2,0,0*
%
*
*
G04 Odd Aperture macro.*
%AMODD*
1,1,$1,0,0*
1,0,$1-0.005,0,0*
%
*
*
G04 PC Custom Aperture Macros*
*
*
*
*
*
*
G04 PC Aperture Table*
*
%ADD010C,0.001*%
%ADD011C,0.06*%
%ADD012R,0.053X0.05*%
%ADD013R,0.065X0.06*%
%ADD016R,0.06X0.03*%
%ADD017R,0.03X0.06*%
%ADD018R,0.13X0.05*%
%ADD019R,0.012X0.035*%
%ADD020R,0.0937X0.06496*%
%ADD023C,0.01*%
*
*
*
*
G04 PC Circuitry*
G04 Layer Name 3 Phase IDR (11-21-2015 - circuitry*
%LPD*%
*
*
G04 PC Custom Flashes*
G04 Layer Name 3 Phase IDR (11-21-2015 - flashes*
%LPD*%
*
*
G04 PC Circuitry*
G04 Layer Name 3 Phase IDR (11-21-2015 - circuitry*
%LPD*%
*
G54D10*
G54D11*
G01X302000Y272000D03*
Y222000D03*
Y169500D03*
X319000Y284500D03*
Y234000D03*
Y181000D03*
G54D12*
X312000Y288000D03*
Y280000D03*
Y238000D03*
Y230000D03*
Y185000D03*
Y177000D03*
G54D13*
X486000Y240000D03*
Y228000D03*
G54D16*
X302000Y315500D03*
Y310500D03*
Y305500D03*
Y300500D03*
X324000D03*
Y305500D03*
Y310500D03*
Y315500D03*
X302000Y265500D03*
Y260500D03*
Y255500D03*
Y250500D03*
X324000D03*
Y255500D03*
Y260500D03*
Y265500D03*
X302000Y213500D03*
Y208500D03*
Y203500D03*
Y198500D03*
X324000D03*
Y203500D03*
Y208500D03*
Y213500D03*
G54D17*
X275500Y295000D03*
X280500D03*
X285500D03*
X290500D03*
Y317000D03*
X285500D03*
X280500D03*
X275500D03*
Y245000D03*
X280500D03*
X285500D03*
X290500D03*
Y267000D03*
X285500D03*
X280500D03*
X275500D03*
Y194000D03*
X280500D03*
X285500D03*
X290500D03*
Y216000D03*
X285500D03*
X280500D03*
X275500D03*
G54D18*
X486000Y274500D03*
Y249500D03*
G54D19*
X298047Y278000D03*
X300016D03*
X301984D03*
X303953D03*
Y290000D03*
X301984D03*
X300016D03*
X298047D03*
Y228000D03*
X300016D03*
X301984D03*
X303953D03*
Y240000D03*
X301984D03*
X300016D03*
X298047D03*
Y175000D03*
X300016D03*
X301984D03*
X303953D03*
Y187000D03*
X301984D03*
X300016D03*
X298047D03*
G54D20*
X301000Y284000D03*
Y234000D03*
Y181000D03*
G54D23*
X322500Y298500D02*
Y317500D01*
X309500*
Y298500*
X322500*
X309500D02*
Y317500D01*
X310000Y298500D02*
Y317500D01*
X310500Y298500D02*
Y317500D01*
X311000Y298500D02*
Y317500D01*
X311500Y298500D02*
Y317500D01*
X312000Y298500D02*
Y317500D01*
X312500Y298500D02*
Y317500D01*
X313000Y298500D02*
Y317500D01*
X313500Y298500D02*
Y317500D01*
X314000Y298500D02*
Y317500D01*
X314500Y298500D02*
Y317500D01*
X315000Y298500D02*
Y317500D01*
X315500Y298500D02*
Y317500D01*
X316000Y298500D02*
Y317500D01*
X316500Y298500D02*
Y317500D01*
X317000Y298500D02*
Y317500D01*
X317500Y298500D02*
Y317500D01*
X318000Y298500D02*
Y317500D01*
X318500Y298500D02*
Y317500D01*
X319000Y298500D02*
Y317500D01*
X319500Y298500D02*
Y317500D01*
X320000Y298500D02*
Y317500D01*
X320500Y298500D02*
Y317500D01*
X321000Y298500D02*
Y317500D01*
X321500Y298500D02*
Y317500D01*
X322000Y298500D02*
Y317500D01*
X292500Y315500D02*
X273500D01*
Y302500*
X292500*
Y315500*
X273500Y302500D02*
Y315500D01*
X274000Y302500D02*
Y315500D01*
X274500Y302500D02*
Y315500D01*
X275000Y302500D02*
Y315500D01*
X275500Y302500D02*
Y315500D01*
X276000Y302500D02*
Y315500D01*
X276500Y302500D02*
Y315500D01*
X277000Y302500D02*
Y315500D01*
X277500Y302500D02*
Y315500D01*
X278000Y302500D02*
Y315500D01*
X278500Y302500D02*
Y315500D01*
X279000Y302500D02*
Y315500D01*
X279500Y302500D02*
Y315500D01*
X280000Y302500D02*
Y315500D01*
X280500Y302500D02*
Y315500D01*
X281000Y302500D02*
Y315500D01*
X281500Y302500D02*
Y315500D01*
X282000Y302500D02*
Y315500D01*
X282500Y302500D02*
Y315500D01*
X283000Y302500D02*
Y315500D01*
X283500Y302500D02*
Y315500D01*
X284000Y302500D02*
Y315500D01*
X284500Y302500D02*
Y315500D01*
X285000Y302500D02*
Y315500D01*
X285500Y302500D02*
Y315500D01*
X286000Y302500D02*
Y315500D01*
X286500Y302500D02*
Y315500D01*
X287000Y302500D02*
Y315500D01*
X287500Y302500D02*
Y315500D01*
X288000Y302500D02*
Y315500D01*
X288500Y302500D02*
Y315500D01*
X289000Y302500D02*
Y315500D01*
X289500Y302500D02*
Y315500D01*
X290000Y302500D02*
Y315500D01*
X290500Y302500D02*
Y315500D01*
X291000Y302500D02*
Y315500D01*
X291500Y302500D02*
Y315500D01*
X292000Y302500D02*
Y315500D01*
X322500Y248500D02*
Y267500D01*
X309500*
Y248500*
X322500*
X309500D02*
Y267500D01*
X310000Y248500D02*
Y267500D01*
X310500Y248500D02*
Y267500D01*
X311000Y248500D02*
Y267500D01*
X311500Y248500D02*
Y267500D01*
X312000Y248500D02*
Y267500D01*
X312500Y248500D02*
Y267500D01*
X313000Y248500D02*
Y267500D01*
X313500Y248500D02*
Y267500D01*
X314000Y248500D02*
Y267500D01*
X314500Y248500D02*
Y267500D01*
X315000Y248500D02*
Y267500D01*
X315500Y248500D02*
Y267500D01*
X316000Y248500D02*
Y267500D01*
X316500Y248500D02*
Y267500D01*
X317000Y248500D02*
Y267500D01*
X317500Y248500D02*
Y267500D01*
X318000Y248500D02*
Y267500D01*
X318500Y248500D02*
Y267500D01*
X319000Y248500D02*
Y267500D01*
X319500Y248500D02*
Y267500D01*
X320000Y248500D02*
Y267500D01*
X320500Y248500D02*
Y267500D01*
X321000Y248500D02*
Y267500D01*
X321500Y248500D02*
Y267500D01*
X322000Y248500D02*
Y267500D01*
X292500Y265500D02*
X273500D01*
Y252500*
X292500*
Y265500*
X273500Y252500D02*
Y265500D01*
X274000Y252500D02*
Y265500D01*
X274500Y252500D02*
Y265500D01*
X275000Y252500D02*
Y265500D01*
X275500Y252500D02*
Y265500D01*
X276000Y252500D02*
Y265500D01*
X276500Y252500D02*
Y265500D01*
X277000Y252500D02*
Y265500D01*
X277500Y252500D02*
Y265500D01*
X278000Y252500D02*
Y265500D01*
X278500Y252500D02*
Y265500D01*
X279000Y252500D02*
Y265500D01*
X279500Y252500D02*
Y265500D01*
X280000Y252500D02*
Y265500D01*
X280500Y252500D02*
Y265500D01*
X281000Y252500D02*
Y265500D01*
X281500Y252500D02*
Y265500D01*
X282000Y252500D02*
Y265500D01*
X282500Y252500D02*
Y265500D01*
X283000Y252500D02*
Y265500D01*
X283500Y252500D02*
Y265500D01*
X284000Y252500D02*
Y265500D01*
X284500Y252500D02*
Y265500D01*
X285000Y252500D02*
Y265500D01*
X285500Y252500D02*
Y265500D01*
X286000Y252500D02*
Y265500D01*
X286500Y252500D02*
Y265500D01*
X287000Y252500D02*
Y265500D01*
X287500Y252500D02*
Y265500D01*
X288000Y252500D02*
Y265500D01*
X288500Y252500D02*
Y265500D01*
X289000Y252500D02*
Y265500D01*
X289500Y252500D02*
Y265500D01*
X290000Y252500D02*
Y265500D01*
X290500Y252500D02*
Y265500D01*
X291000Y252500D02*
Y265500D01*
X291500Y252500D02*
Y265500D01*
X292000Y252500D02*
Y265500D01*
X322500Y196500D02*
Y215500D01*
X309500*
Y196500*
X322500*
X309500D02*
Y215500D01*
X310000Y196500D02*
Y215500D01*
X310500Y196500D02*
Y215500D01*
X311000Y196500D02*
Y215500D01*
X311500Y196500D02*
Y215500D01*
X312000Y196500D02*
Y215500D01*
X312500Y196500D02*
Y215500D01*
X313000Y196500D02*
Y215500D01*
X313500Y196500D02*
Y215500D01*
X314000Y196500D02*
Y215500D01*
X314500Y196500D02*
Y215500D01*
X315000Y196500D02*
Y215500D01*
X315500Y196500D02*
Y215500D01*
X316000Y196500D02*
Y215500D01*
X316500Y196500D02*
Y215500D01*
X317000Y196500D02*
Y215500D01*
X317500Y196500D02*
Y215500D01*
X318000Y196500D02*
Y215500D01*
X318500Y196500D02*
Y215500D01*
X319000Y196500D02*
Y215500D01*
X319500Y196500D02*
Y215500D01*
X320000Y196500D02*
Y215500D01*
X320500Y196500D02*
Y215500D01*
X321000Y196500D02*
Y215500D01*
X321500Y196500D02*
Y215500D01*
X322000Y196500D02*
Y215500D01*
X292500Y214500D02*
X273500D01*
Y201500*
X292500*
Y214500*
X273500Y201500D02*
Y214500D01*
X274000Y201500D02*
Y214500D01*
X274500Y201500D02*
Y214500D01*
X275000Y201500D02*
Y214500D01*
X275500Y201500D02*
Y214500D01*
X276000Y201500D02*
Y214500D01*
X276500Y201500D02*
Y214500D01*
X277000Y201500D02*
Y214500D01*
X277500Y201500D02*
Y214500D01*
X278000Y201500D02*
Y214500D01*
X278500Y201500D02*
Y214500D01*
X279000Y201500D02*
Y214500D01*
X279500Y201500D02*
Y214500D01*
X280000Y201500D02*
Y214500D01*
X280500Y201500D02*
Y214500D01*
X281000Y201500D02*
Y214500D01*
X281500Y201500D02*
Y214500D01*
X282000Y201500D02*
Y214500D01*
X282500Y201500D02*
Y214500D01*
X283000Y201500D02*
Y214500D01*
X283500Y201500D02*
Y214500D01*
X284000Y201500D02*
Y214500D01*
X284500Y201500D02*
Y214500D01*
X285000Y201500D02*
Y214500D01*
X285500Y201500D02*
Y214500D01*
X286000Y201500D02*
Y214500D01*
X286500Y201500D02*
Y214500D01*
X287000Y201500D02*
Y214500D01*
X287500Y201500D02*
Y214500D01*
X288000Y201500D02*
Y214500D01*
X288500Y201500D02*
Y214500D01*
X289000Y201500D02*
Y214500D01*
X289500Y201500D02*
Y214500D01*
X290000Y201500D02*
Y214500D01*
X290500Y201500D02*
Y214500D01*
X291000Y201500D02*
Y214500D01*
X291500Y201500D02*
Y214500D01*
X292000Y201500D02*
Y214500D01*
X100000Y400000D02*
X500000D01*
Y100000*
X100000*
Y400000*
X0Y0D02*
M02*
