*
*
G04 PADS VX.1.1 Build Number: 678707 generated Gerber (RS-274-X) file*
G04 PC Version=2.1*
*
%IN "3 Phase IDR (11-21-2015"*%
*
%MOIN*%
*
%FSLAX35Y35*%
*
*
*
*
G04 PC Standard Apertures*
*
*
G04 Thermal Relief Aperture macro.*
%AMTER*
1,1,$1,0,0*
1,0,$1-$2,0,0*
21,0,$3,$4,0,0,45*
21,0,$3,$4,0,0,135*
%
*
*
G04 Annular Aperture macro.*
%AMANN*
1,1,$1,0,0*
1,0,$2,0,0*
%
*
*
G04 Odd Aperture macro.*
%AMODD*
1,1,$1,0,0*
1,0,$1-0.005,0,0*
%
*
*
G04 PC Custom Aperture Macros*
*
*
*
*
*
*
G04 PC Aperture Table*
*
%ADD010C,0.001*%
%ADD023C,0.01*%
%ADD035C,0.066*%
%ADD036R,0.059X0.056*%
%ADD037R,0.071X0.066*%
%ADD038C,0.156*%
%ADD039C,0.331*%
%ADD040R,0.066X0.036*%
%ADD041R,0.036X0.066*%
%ADD042R,0.136X0.056*%
%ADD043R,0.018X0.041*%
%ADD044R,0.0997X0.07096*%
%ADD045C,0.286*%
%ADD046C,0.076*%
*
*
*
*
G04 PC Circuitry*
G04 Layer Name 3 Phase IDR (11-21-2015 - circuitry*
%LPD*%
*
*
G04 PC Custom Flashes*
G04 Layer Name 3 Phase IDR (11-21-2015 - flashes*
%LPD*%
*
*
G04 PC Circuitry*
G04 Layer Name 3 Phase IDR (11-21-2015 - circuitry*
%LPD*%
*
G54D10*
G54D23*
G01X322800Y298200D02*
Y317800D01*
X309200*
Y298200*
X322800*
X309500D02*
Y317800D01*
X310000Y298200D02*
Y317800D01*
X310500Y298200D02*
Y317800D01*
X311000Y298200D02*
Y317800D01*
X311500Y298200D02*
Y317800D01*
X312000Y298200D02*
Y317800D01*
X312500Y298200D02*
Y317800D01*
X313000Y298200D02*
Y317800D01*
X313500Y298200D02*
Y317800D01*
X314000Y298200D02*
Y317800D01*
X314500Y298200D02*
Y317800D01*
X315000Y298200D02*
Y317800D01*
X315500Y298200D02*
Y317800D01*
X316000Y298200D02*
Y317800D01*
X316500Y298200D02*
Y317800D01*
X317000Y298200D02*
Y317800D01*
X317500Y298200D02*
Y317800D01*
X318000Y298200D02*
Y317800D01*
X318500Y298200D02*
Y317800D01*
X319000Y298200D02*
Y317800D01*
X319500Y298200D02*
Y317800D01*
X320000Y298200D02*
Y317800D01*
X320500Y298200D02*
Y317800D01*
X321000Y298200D02*
Y317800D01*
X321500Y298200D02*
Y317800D01*
X322000Y298200D02*
Y317800D01*
X322500Y298200D02*
Y317800D01*
X292800Y315800D02*
X273200D01*
Y302200*
X292800*
Y315800*
X273500Y302200D02*
Y315800D01*
X274000Y302200D02*
Y315800D01*
X274500Y302200D02*
Y315800D01*
X275000Y302200D02*
Y315800D01*
X275500Y302200D02*
Y315800D01*
X276000Y302200D02*
Y315800D01*
X276500Y302200D02*
Y315800D01*
X277000Y302200D02*
Y315800D01*
X277500Y302200D02*
Y315800D01*
X278000Y302200D02*
Y315800D01*
X278500Y302200D02*
Y315800D01*
X279000Y302200D02*
Y315800D01*
X279500Y302200D02*
Y315800D01*
X280000Y302200D02*
Y315800D01*
X280500Y302200D02*
Y315800D01*
X281000Y302200D02*
Y315800D01*
X281500Y302200D02*
Y315800D01*
X282000Y302200D02*
Y315800D01*
X282500Y302200D02*
Y315800D01*
X283000Y302200D02*
Y315800D01*
X283500Y302200D02*
Y315800D01*
X284000Y302200D02*
Y315800D01*
X284500Y302200D02*
Y315800D01*
X285000Y302200D02*
Y315800D01*
X285500Y302200D02*
Y315800D01*
X286000Y302200D02*
Y315800D01*
X286500Y302200D02*
Y315800D01*
X287000Y302200D02*
Y315800D01*
X287500Y302200D02*
Y315800D01*
X288000Y302200D02*
Y315800D01*
X288500Y302200D02*
Y315800D01*
X289000Y302200D02*
Y315800D01*
X289500Y302200D02*
Y315800D01*
X290000Y302200D02*
Y315800D01*
X290500Y302200D02*
Y315800D01*
X291000Y302200D02*
Y315800D01*
X291500Y302200D02*
Y315800D01*
X292000Y302200D02*
Y315800D01*
X292500Y302200D02*
Y315800D01*
X322800Y248200D02*
Y267800D01*
X309200*
Y248200*
X322800*
X309500D02*
Y267800D01*
X310000Y248200D02*
Y267800D01*
X310500Y248200D02*
Y267800D01*
X311000Y248200D02*
Y267800D01*
X311500Y248200D02*
Y267800D01*
X312000Y248200D02*
Y267800D01*
X312500Y248200D02*
Y267800D01*
X313000Y248200D02*
Y267800D01*
X313500Y248200D02*
Y267800D01*
X314000Y248200D02*
Y267800D01*
X314500Y248200D02*
Y267800D01*
X315000Y248200D02*
Y267800D01*
X315500Y248200D02*
Y267800D01*
X316000Y248200D02*
Y267800D01*
X316500Y248200D02*
Y267800D01*
X317000Y248200D02*
Y267800D01*
X317500Y248200D02*
Y267800D01*
X318000Y248200D02*
Y267800D01*
X318500Y248200D02*
Y267800D01*
X319000Y248200D02*
Y267800D01*
X319500Y248200D02*
Y267800D01*
X320000Y248200D02*
Y267800D01*
X320500Y248200D02*
Y267800D01*
X321000Y248200D02*
Y267800D01*
X321500Y248200D02*
Y267800D01*
X322000Y248200D02*
Y267800D01*
X322500Y248200D02*
Y267800D01*
X292800Y265800D02*
X273200D01*
Y252200*
X292800*
Y265800*
X273500Y252200D02*
Y265800D01*
X274000Y252200D02*
Y265800D01*
X274500Y252200D02*
Y265800D01*
X275000Y252200D02*
Y265800D01*
X275500Y252200D02*
Y265800D01*
X276000Y252200D02*
Y265800D01*
X276500Y252200D02*
Y265800D01*
X277000Y252200D02*
Y265800D01*
X277500Y252200D02*
Y265800D01*
X278000Y252200D02*
Y265800D01*
X278500Y252200D02*
Y265800D01*
X279000Y252200D02*
Y265800D01*
X279500Y252200D02*
Y265800D01*
X280000Y252200D02*
Y265800D01*
X280500Y252200D02*
Y265800D01*
X281000Y252200D02*
Y265800D01*
X281500Y252200D02*
Y265800D01*
X282000Y252200D02*
Y265800D01*
X282500Y252200D02*
Y265800D01*
X283000Y252200D02*
Y265800D01*
X283500Y252200D02*
Y265800D01*
X284000Y252200D02*
Y265800D01*
X284500Y252200D02*
Y265800D01*
X285000Y252200D02*
Y265800D01*
X285500Y252200D02*
Y265800D01*
X286000Y252200D02*
Y265800D01*
X286500Y252200D02*
Y265800D01*
X287000Y252200D02*
Y265800D01*
X287500Y252200D02*
Y265800D01*
X288000Y252200D02*
Y265800D01*
X288500Y252200D02*
Y265800D01*
X289000Y252200D02*
Y265800D01*
X289500Y252200D02*
Y265800D01*
X290000Y252200D02*
Y265800D01*
X290500Y252200D02*
Y265800D01*
X291000Y252200D02*
Y265800D01*
X291500Y252200D02*
Y265800D01*
X292000Y252200D02*
Y265800D01*
X292500Y252200D02*
Y265800D01*
X322800Y196200D02*
Y215800D01*
X309200*
Y196200*
X322800*
X309500D02*
Y215800D01*
X310000Y196200D02*
Y215800D01*
X310500Y196200D02*
Y215800D01*
X311000Y196200D02*
Y215800D01*
X311500Y196200D02*
Y215800D01*
X312000Y196200D02*
Y215800D01*
X312500Y196200D02*
Y215800D01*
X313000Y196200D02*
Y215800D01*
X313500Y196200D02*
Y215800D01*
X314000Y196200D02*
Y215800D01*
X314500Y196200D02*
Y215800D01*
X315000Y196200D02*
Y215800D01*
X315500Y196200D02*
Y215800D01*
X316000Y196200D02*
Y215800D01*
X316500Y196200D02*
Y215800D01*
X317000Y196200D02*
Y215800D01*
X317500Y196200D02*
Y215800D01*
X318000Y196200D02*
Y215800D01*
X318500Y196200D02*
Y215800D01*
X319000Y196200D02*
Y215800D01*
X319500Y196200D02*
Y215800D01*
X320000Y196200D02*
Y215800D01*
X320500Y196200D02*
Y215800D01*
X321000Y196200D02*
Y215800D01*
X321500Y196200D02*
Y215800D01*
X322000Y196200D02*
Y215800D01*
X322500Y196200D02*
Y215800D01*
X292800Y214800D02*
X273200D01*
Y201200*
X292800*
Y214800*
X273500Y201200D02*
Y214800D01*
X274000Y201200D02*
Y214800D01*
X274500Y201200D02*
Y214800D01*
X275000Y201200D02*
Y214800D01*
X275500Y201200D02*
Y214800D01*
X276000Y201200D02*
Y214800D01*
X276500Y201200D02*
Y214800D01*
X277000Y201200D02*
Y214800D01*
X277500Y201200D02*
Y214800D01*
X278000Y201200D02*
Y214800D01*
X278500Y201200D02*
Y214800D01*
X279000Y201200D02*
Y214800D01*
X279500Y201200D02*
Y214800D01*
X280000Y201200D02*
Y214800D01*
X280500Y201200D02*
Y214800D01*
X281000Y201200D02*
Y214800D01*
X281500Y201200D02*
Y214800D01*
X282000Y201200D02*
Y214800D01*
X282500Y201200D02*
Y214800D01*
X283000Y201200D02*
Y214800D01*
X283500Y201200D02*
Y214800D01*
X284000Y201200D02*
Y214800D01*
X284500Y201200D02*
Y214800D01*
X285000Y201200D02*
Y214800D01*
X285500Y201200D02*
Y214800D01*
X286000Y201200D02*
Y214800D01*
X286500Y201200D02*
Y214800D01*
X287000Y201200D02*
Y214800D01*
X287500Y201200D02*
Y214800D01*
X288000Y201200D02*
Y214800D01*
X288500Y201200D02*
Y214800D01*
X289000Y201200D02*
Y214800D01*
X289500Y201200D02*
Y214800D01*
X290000Y201200D02*
Y214800D01*
X290500Y201200D02*
Y214800D01*
X291000Y201200D02*
Y214800D01*
X291500Y201200D02*
Y214800D01*
X292000Y201200D02*
Y214800D01*
X292500Y201200D02*
Y214800D01*
X100000Y400000D02*
X500000D01*
Y100000*
X100000*
Y400000*
G54D35*
X302000Y272000D03*
Y222000D03*
Y169500D03*
X319000Y284500D03*
Y234000D03*
Y181000D03*
G54D36*
X312000Y288000D03*
Y280000D03*
Y238000D03*
Y230000D03*
Y185000D03*
Y177000D03*
G54D37*
X486000Y240000D03*
Y228000D03*
G54D38*
X114000Y330000D03*
X488000Y324000D03*
Y176000D03*
X114000Y246000D03*
Y166000D03*
G54D39*
X146000Y330000D03*
Y246000D03*
Y166000D03*
X458000Y346000D03*
Y151000D03*
Y297000D03*
Y204000D03*
G54D40*
X302000Y315500D03*
Y310500D03*
Y305500D03*
Y300500D03*
X324000D03*
Y305500D03*
Y310500D03*
Y315500D03*
X302000Y265500D03*
Y260500D03*
Y255500D03*
Y250500D03*
X324000D03*
Y255500D03*
Y260500D03*
Y265500D03*
X302000Y213500D03*
Y208500D03*
Y203500D03*
Y198500D03*
X324000D03*
Y203500D03*
Y208500D03*
Y213500D03*
G54D41*
X275500Y295000D03*
X280500D03*
X285500D03*
X290500D03*
Y317000D03*
X285500D03*
X280500D03*
X275500D03*
Y245000D03*
X280500D03*
X285500D03*
X290500D03*
Y267000D03*
X285500D03*
X280500D03*
X275500D03*
Y194000D03*
X280500D03*
X285500D03*
X290500D03*
Y216000D03*
X285500D03*
X280500D03*
X275500D03*
G54D42*
X486000Y274500D03*
Y249500D03*
G54D43*
X298047Y278000D03*
X300016D03*
X301984D03*
X303953D03*
Y290000D03*
X301984D03*
X300016D03*
X298047D03*
Y228000D03*
X300016D03*
X301984D03*
X303953D03*
Y240000D03*
X301984D03*
X300016D03*
X298047D03*
Y175000D03*
X300016D03*
X301984D03*
X303953D03*
Y187000D03*
X301984D03*
X300016D03*
X298047D03*
G54D44*
X301000Y284000D03*
Y234000D03*
Y181000D03*
G54D45*
X118000Y382000D03*
X482000D03*
X118000Y118000D03*
X482000D03*
G54D46*
X456000Y392000D03*
X140000Y108000D03*
X0Y0D02*
M02*
