*
*
G04 PADS VX.1.1 Build Number: 678707 generated Gerber (RS-274-X) file*
G04 PC Version=2.1*
*
%IN "3 Phase IDR (11-21-2015"*%
*
%MOIN*%
*
%FSLAX35Y35*%
*
*
*
*
G04 PC Standard Apertures*
*
*
G04 Thermal Relief Aperture macro.*
%AMTER*
1,1,$1,0,0*
1,0,$1-$2,0,0*
21,0,$3,$4,0,0,45*
21,0,$3,$4,0,0,135*
%
*
*
G04 Annular Aperture macro.*
%AMANN*
1,1,$1,0,0*
1,0,$2,0,0*
%
*
*
G04 Odd Aperture macro.*
%AMODD*
1,1,$1,0,0*
1,0,$1-0.005,0,0*
%
*
*
G04 PC Custom Aperture Macros*
*
*
*
*
*
*
G04 PC Aperture Table*
*
%ADD010C,0.001*%
%ADD023C,0.01*%
%ADD031C,0.008*%
%ADD032C,0.007*%
%ADD033C,0.006*%
%ADD034C,0.009*%
%ADD056C,0.002*%
*
*
*
*
G04 PC Circuitry*
G04 Layer Name 3 Phase IDR (11-21-2015 - circuitry*
%LPD*%
*
*
G04 PC Custom Flashes*
G04 Layer Name 3 Phase IDR (11-21-2015 - flashes*
%LPD*%
*
*
G04 PC Circuitry*
G04 Layer Name 3 Phase IDR (11-21-2015 - circuitry*
%LPD*%
*
G54D10*
G54D23*
G01X340500Y230000D02*
X345000D01*
X340500Y229500D02*
X344500D01*
X340500Y229000D02*
X344500D01*
X340500Y228500D02*
X344500D01*
X340500Y228000D02*
X344000D01*
X340500Y227500D02*
X343500D01*
X340500Y227000D02*
X343000D01*
X340500Y226500D02*
X342500D01*
X340500Y226000D02*
X342000D01*
X340500Y225500D02*
X341500D01*
X340500Y225000D02*
Y230000D01*
X330000D02*
X326000D01*
X330000Y229500D02*
X326000D01*
X330000Y229000D02*
X326500D01*
X330500Y230000D02*
Y225000D01*
X330000Y228500D02*
X327000D01*
X330000Y228000D02*
X327000D01*
X330000Y227500D02*
X327500D01*
X330000Y227000D02*
X328000D01*
X330000Y226500D02*
X328500D01*
X330000Y226000D02*
X329000D01*
X281250Y187500D02*
Y189000D01*
X292750*
Y187625*
Y182500D02*
Y181000D01*
X281250*
Y182375*
X283750Y189000D02*
Y181000D01*
X284250Y189000D02*
Y181000D01*
X303500Y296750D02*
X305000D01*
Y285250*
X303625*
X298500D02*
X297000D01*
Y296750*
X298375*
X305000Y294250D02*
X297000D01*
X305000Y293750D02*
X297000D01*
X303500Y246750D02*
X305000D01*
Y235250*
X303625*
X298500D02*
X297000D01*
Y246750*
X298375*
X305000Y244250D02*
X297000D01*
X305000Y243750D02*
X297000D01*
X303500Y194750D02*
X305000D01*
Y183250*
X303625*
X298500D02*
X297000D01*
Y194750*
X298375*
X305000Y192250D02*
X297000D01*
X305000Y191750D02*
X297000D01*
X304750Y270500D02*
Y269000D01*
X293250*
Y270375*
Y275500D02*
Y277000D01*
X304750*
Y275625*
X302250Y269000D02*
Y277000D01*
X301750Y269000D02*
Y277000D01*
X281250Y288500D02*
Y290000D01*
X292750*
Y288625*
Y283500D02*
Y282000D01*
X281250*
Y283375*
X283750Y290000D02*
Y282000D01*
X284250Y290000D02*
Y282000D01*
X281250Y297500D02*
Y299000D01*
X292750*
Y297625*
Y292500D02*
Y291000D01*
X281250*
Y292375*
X283750Y299000D02*
Y291000D01*
X284250Y299000D02*
Y291000D01*
X306750Y219000D02*
Y217500D01*
X295250*
Y218875*
Y224000D02*
Y225500D01*
X306750*
Y224125*
X304250Y217500D02*
Y225500D01*
X303750Y217500D02*
Y225500D01*
X281250Y246500D02*
Y248000D01*
X292750*
Y246625*
Y241500D02*
Y240000D01*
X281250*
Y241375*
X283750Y248000D02*
Y240000D01*
X284250Y248000D02*
Y240000D01*
X281250Y238500D02*
Y240000D01*
X292750*
Y238625*
Y233500D02*
Y232000D01*
X281250*
Y233375*
X283750Y240000D02*
Y232000D01*
X284250Y240000D02*
Y232000D01*
X306750Y167500D02*
Y166000D01*
X295250*
Y167375*
Y172500D02*
Y174000D01*
X306750*
Y172625*
X304250Y166000D02*
Y174000D01*
X303750Y166000D02*
Y174000D01*
X281250Y195500D02*
Y197000D01*
X292750*
Y195625*
Y190500D02*
Y189000D01*
X281250*
Y190375*
X283750Y197000D02*
Y189000D01*
X284250Y197000D02*
Y189000D01*
X156500Y394063D02*
Y387500D01*
Y394063D02*
X154455D01*
X154455D02*
X153773Y393750D01*
X153545Y393438*
X153545D02*
X153318Y392813D01*
X153318D02*
Y392188D01*
X153318D02*
X153545Y391563D01*
X153545D02*
X153773Y391250D01*
X154455Y390938*
X154455D02*
X156500D01*
X154909D02*
X153318Y387500D01*
X151273Y394063D02*
Y387500D01*
Y394063D02*
X148318D01*
X151273Y390938D02*
X149455D01*
X151273Y387500D02*
X148318D01*
X146273Y394063D02*
X144455Y387500D01*
X142636Y394063D02*
X144455Y387500D01*
X140364Y392500D02*
Y392813D01*
X140364D02*
X140136Y393438D01*
X140136D02*
X139909Y393750D01*
X139455Y394063*
X139455D02*
X138545D01*
X138545D02*
X138091Y393750D01*
X137864Y393438*
X137864D02*
X137636Y392813D01*
X137636D02*
Y392188D01*
X137636D02*
X137864Y391563D01*
X137864D02*
X138318Y390625D01*
X140591Y387500*
X137409*
X100000Y400000D02*
X500000D01*
Y100000*
X100000*
Y400000*
G54D31*
X299200Y281000D02*
X300800D01*
X299200Y278000D02*
X300800D01*
X287800Y277500D02*
X286200D01*
X287800Y280500D02*
X286200D01*
X287800Y300500D02*
X286200D01*
X287800Y303500D02*
X286200D01*
X300200Y229500D02*
X301800D01*
X300200Y226500D02*
X301800D01*
X287800Y249500D02*
X286200D01*
X287800Y252500D02*
X286200D01*
X288300Y227500D02*
X286700D01*
X288300Y230500D02*
X286700D01*
X300200Y178000D02*
X301800D01*
X300200Y175000D02*
X301800D01*
X287800Y198500D02*
X286200D01*
X287800Y201500D02*
X286200D01*
X287300Y176500D02*
X285700D01*
X287300Y179500D02*
X285700D01*
X444000Y121594D02*
Y117000D01*
X442091*
X439545Y121594D02*
Y117000D01*
X440659Y121594D02*
X438432D01*
X434614Y120500D02*
X434773Y120938D01*
X434773D02*
X435091Y121375D01*
X435409Y121594*
X436045*
X436364Y121375*
X436682Y120938*
X436682D02*
X436841Y120500D01*
X437000Y119844*
Y118750*
X436841Y118094*
X436682Y117656*
X436364Y117219*
X436045Y117000*
X435409*
X435091Y117219*
X434773Y117656*
X434614Y118094*
X427136Y120500D02*
X427295Y120938D01*
X427295D02*
X427614Y121375D01*
X427932Y121594*
X428568*
X428886Y121375*
X429205Y120938*
X429205D02*
X429364Y120500D01*
X429523Y119844*
Y118750*
X429364Y118094*
X429205Y117656*
X428886Y117219*
X428568Y117000*
X427932*
X427614Y117219*
X427295Y117656*
X427136Y118094*
X424750Y121594D02*
X425068Y121375D01*
X425386Y120938*
X425386D02*
X425545Y120500D01*
X425705Y119844*
Y118750*
X425545Y118094*
X425386Y117656*
X425068Y117219*
X424750Y117000*
X424114*
X423795Y117219*
X423477Y117656*
X423318Y118094*
X423159Y118750*
Y119844*
X423318Y120500*
X423477Y120938*
X423477D02*
X423795Y121375D01*
X424114Y121594*
X424750*
X421727D02*
Y117000D01*
Y121594D02*
X419500Y117000D01*
Y121594D02*
Y117000D01*
X418068Y121594D02*
Y117000D01*
Y121594D02*
X416000D01*
X418068Y119406D02*
X416795D01*
X414568Y121594D02*
Y117000D01*
X413136Y121594D02*
Y117000D01*
Y121594D02*
X412023D01*
X411545Y121375*
X411227Y120938*
X411227D02*
X411068Y120500D01*
X410909Y119844*
Y118750*
X411068Y118094*
X411227Y117656*
X411545Y117219*
X412023Y117000*
X413136*
X409477Y121594D02*
Y117000D01*
Y121594D02*
X407409D01*
X409477Y119406D02*
X408205D01*
X409477Y117000D02*
X407409D01*
X405977Y121594D02*
Y117000D01*
Y121594D02*
X403750Y117000D01*
Y121594D02*
Y117000D01*
X401205Y121594D02*
Y117000D01*
X402318Y121594D02*
X400091D01*
X398659D02*
Y117000D01*
X395955Y121594D02*
X397227Y117000D01*
X395955Y121594D02*
X394682Y117000D01*
X396750Y118531D02*
X395159D01*
X393250Y121594D02*
Y117000D01*
X391341*
X389909Y118969D02*
X387045D01*
X444000Y114594D02*
Y110000D01*
Y114594D02*
X441932D01*
X444000Y112406D02*
X442727D01*
X439545Y114594D02*
X439864Y114375D01*
X440182Y113938*
X440182D02*
X440341Y113500D01*
X440500Y112844*
Y111750*
X440341Y111094*
X440182Y110656*
X439864Y110219*
X439545Y110000*
X438909*
X438591Y110219*
X438273Y110656*
X438114Y111094*
X437955Y111750*
Y112844*
X438114Y113500*
X438273Y113938*
X438273D02*
X438591Y114375D01*
X438909Y114594*
X439545*
X436523D02*
Y110000D01*
Y114594D02*
X435091D01*
X434614Y114375*
X434455Y114156*
X434295Y113719*
Y113281*
X434455Y112844*
X434614Y112625*
X435091Y112406*
X436523*
X435409D02*
X434295Y110000D01*
X426818Y113500D02*
X426977Y113938D01*
X426977D02*
X427295Y114375D01*
X427614Y114594*
X428250*
X428568Y114375*
X428886Y113938*
X428886D02*
X429045Y113500D01*
X429205Y112844*
Y111750*
X429045Y111094*
X428886Y110656*
X428568Y110219*
X428250Y110000*
X427614*
X427295Y110219*
X426977Y110656*
X426818Y111094*
X425386Y114594D02*
Y111313D01*
X425386D02*
X425227Y110656D01*
X424909Y110219*
X424432Y110000*
X424114*
X423636Y110219*
X423318Y110656*
X423159Y111313*
X423159D02*
Y114594D01*
X419500Y113938D02*
X419818Y114375D01*
X420295Y114594*
X420932*
X421409Y114375*
X421727Y113938*
X421727D02*
Y113500D01*
X421568Y113063*
X421568D02*
X421409Y112844D01*
X421091Y112625*
X420136Y112188*
X420136D02*
X419818Y111969D01*
X419659Y111750*
X419500Y111313*
X419500D02*
Y110656D01*
X419818Y110219*
X420295Y110000*
X420932*
X421409Y110219*
X421727Y110656*
X416955Y114594D02*
Y110000D01*
X418068Y114594D02*
X415841D01*
X413455D02*
X413773Y114375D01*
X414091Y113938*
X414091D02*
X414250Y113500D01*
X414409Y112844*
Y111750*
X414250Y111094*
X414091Y110656*
X413773Y110219*
X413455Y110000*
X412818*
X412500Y110219*
X412182Y110656*
X412023Y111094*
X411864Y111750*
Y112844*
X412023Y113500*
X412182Y113938*
X412182D02*
X412500Y114375D01*
X412818Y114594*
X413455*
X410432D02*
Y110000D01*
Y114594D02*
X409159Y110000D01*
X407886Y114594D02*
X409159Y110000D01*
X407886Y114594D02*
Y110000D01*
X406455Y114594D02*
Y110000D01*
Y114594D02*
X404386D01*
X406455Y112406D02*
X405182D01*
X406455Y110000D02*
X404386D01*
X402955Y114594D02*
Y110000D01*
Y114594D02*
X401523D01*
X401045Y114375*
X400886Y114156*
X400727Y113719*
Y113281*
X400886Y112844*
X401045Y112625*
X401523Y112406*
X402955*
X401841D02*
X400727Y110000D01*
X395636Y114594D02*
Y111313D01*
X395636D02*
X395477Y110656D01*
X395159Y110219*
X394682Y110000*
X394364*
X393886Y110219*
X393568Y110656*
X393409Y111313*
X393409D02*
Y114594D01*
X389750Y113938D02*
X390068Y114375D01*
X390545Y114594*
X391182*
X391659Y114375*
X391977Y113938*
X391977D02*
Y113500D01*
X391818Y113063*
X391818D02*
X391659Y112844D01*
X391341Y112625*
X390386Y112188*
X390386D02*
X390068Y111969D01*
X389909Y111750*
X389750Y111313*
X389750D02*
Y110656D01*
X390068Y110219*
X390545Y110000*
X391182*
X391659Y110219*
X391977Y110656*
X388318Y114594D02*
Y110000D01*
Y114594D02*
X386250D01*
X388318Y112406D02*
X387045D01*
X388318Y110000D02*
X386250D01*
X380205Y114594D02*
X380523Y114375D01*
X380841Y113938*
X380841D02*
X381000Y113500D01*
X381159Y112844*
Y111750*
X381000Y111094*
X380841Y110656*
X380523Y110219*
X380205Y110000*
X379568*
X379250Y110219*
X378932Y110656*
X378773Y111094*
X378614Y111750*
Y112844*
X378773Y113500*
X378932Y113938*
X378932D02*
X379250Y114375D01*
X379568Y114594*
X380205*
X377182D02*
Y110000D01*
Y114594D02*
X374955Y110000D01*
Y114594D02*
Y110000D01*
X373523Y114594D02*
Y110000D01*
X371614*
X370182Y114594D02*
X368909Y112406D01*
Y110000*
X367636Y114594D02*
X368909Y112406D01*
G54D32*
X311000Y244000D02*
X309000Y242000D01*
Y224000*
X311000*
X319000Y244000D02*
X321000Y242000D01*
Y224000*
X319000*
X309000Y237000D02*
X321000D01*
X309000Y236000D02*
X321000D01*
G54D33*
X351000Y234455D02*
X350625Y234591D01*
X350250Y234864*
X350062Y235136*
X350062D02*
Y235682D01*
X350062D02*
X350250Y235955D01*
X350625Y236227*
X351000Y236364*
X351562Y236500*
X351562D02*
X352500D01*
X353062Y236364*
X353062D02*
X353437Y236227D01*
X353437D02*
X353812Y235955D01*
X353812D02*
X354000Y235682D01*
Y235136*
X353812Y234864*
X353812D02*
X353437Y234591D01*
X353437D02*
X353062Y234455D01*
X351000Y233091D02*
X350812D01*
X350812D02*
X350437Y232955D01*
X350437D02*
X350250Y232818D01*
X350062Y232545*
X350062D02*
Y232000D01*
X350062D02*
X350250Y231727D01*
X350437Y231591*
X350437D02*
X350812Y231455D01*
X350812D02*
X351187D01*
X351187D02*
X351562Y231591D01*
X351562D02*
X352125Y231864D01*
X354000Y233227*
Y231318*
X314062Y218000D02*
X318000D01*
X314062D02*
Y217045D01*
X314062D02*
X314250Y216636D01*
X314625Y216364*
X315000Y216227*
X315562Y216091*
X315562D02*
X316500D01*
X317062Y216227*
X317062D02*
X317437Y216364D01*
X317437D02*
X317812Y216636D01*
X317812D02*
X318000Y217045D01*
Y218000*
X314812Y214864D02*
X314625Y214591D01*
X314062Y214182*
X314062D02*
X318000D01*
X276500Y186938D02*
Y183000D01*
Y186938D02*
X275545D01*
X275136Y186750*
X274864Y186375*
X274727Y186000*
X274591Y185438*
Y184500*
X274727Y183938*
X274864Y183563*
X275136Y183188*
X275545Y183000*
X276500*
X273364Y186188D02*
X273091Y186375D01*
X272682Y186938*
Y183000*
X270636Y186938D02*
X271045Y186750D01*
X271318Y186188*
X271455Y185250*
Y184688*
X271318Y183750*
X271045Y183188*
X270636Y183000*
X270364*
X269955Y183188*
X269682Y183750*
X269545Y184688*
Y185250*
X269682Y186188*
X269955Y186750*
X270364Y186938*
X270636*
X307062Y294000D02*
X311000D01*
X307062D02*
Y293045D01*
X307062D02*
X307250Y292636D01*
X307625Y292364*
X308000Y292227*
X308562Y292091*
X308562D02*
X309500D01*
X310062Y292227*
X310062D02*
X310437Y292364D01*
X310437D02*
X310812Y292636D01*
X310812D02*
X311000Y293045D01*
Y294000*
X307812Y290864D02*
X307625Y290591D01*
X307062Y290182*
X307062D02*
X311000D01*
X307812Y288955D02*
X307625Y288682D01*
X307062Y288273*
X307062D02*
X311000D01*
X299062Y259000D02*
X303000D01*
X299062D02*
Y258045D01*
X299062D02*
X299250Y257636D01*
X299625Y257364*
X300000Y257227*
X300562Y257091*
X300562D02*
X301500D01*
X302062Y257227*
X302062D02*
X302437Y257364D01*
X302437D02*
X302812Y257636D01*
X302812D02*
X303000Y258045D01*
Y259000*
X299812Y255864D02*
X299625Y255591D01*
X299062Y255182*
X299062D02*
X303000D01*
X300000Y253818D02*
X299812D01*
X299812D02*
X299437Y253682D01*
X299437D02*
X299250Y253545D01*
X299062Y253273*
X299062D02*
Y252727D01*
X299062D02*
X299250Y252455D01*
X299437Y252318*
X299437D02*
X299812Y252182D01*
X299812D02*
X300187D01*
X300187D02*
X300562Y252318D01*
X300562D02*
X301125Y252591D01*
X303000Y253955*
Y252045*
X307062Y194000D02*
X311000D01*
X307062D02*
Y193045D01*
X307062D02*
X307250Y192636D01*
X307625Y192364*
X308000Y192227*
X308562Y192091*
X308562D02*
X309500D01*
X310062Y192227*
X310062D02*
X310437Y192364D01*
X310437D02*
X310812Y192636D01*
X310812D02*
X311000Y193045D01*
Y194000*
X307812Y190864D02*
X307625Y190591D01*
X307062Y190182*
X307062D02*
X311000D01*
X307062Y188682D02*
Y187182D01*
X307062D02*
X308562Y188000D01*
X308562D02*
Y187591D01*
X308562D02*
X308750Y187318D01*
X308937Y187182*
X308937D02*
X309500Y187045D01*
X309875*
X310437Y187182*
X310437D02*
X310812Y187455D01*
X310812D02*
X311000Y187864D01*
Y188273*
X310812Y188682*
X310812D02*
X310625Y188818D01*
X310250Y188955*
X301500Y266938D02*
Y263000D01*
Y266938D02*
X300545D01*
X300545D02*
X300136Y266750D01*
X299864Y266375*
X299727Y266000*
X299591Y265438*
X299591D02*
Y264500D01*
X299727Y263938*
X299727D02*
X299864Y263563D01*
X299864D02*
X300136Y263188D01*
X300136D02*
X300545Y263000D01*
X301500*
X298227Y266000D02*
Y266188D01*
X298227D02*
X298091Y266563D01*
X298091D02*
X297955Y266750D01*
X297682Y266938*
X297682D02*
X297136D01*
X297136D02*
X296864Y266750D01*
X296727Y266563*
X296727D02*
X296591Y266188D01*
X296591D02*
Y265813D01*
X296591D02*
X296727Y265438D01*
X296727D02*
X297000Y264875D01*
X298364Y263000*
X296455*
X277000Y287938D02*
Y284000D01*
Y287938D02*
X276045D01*
X275636Y287750*
X275364Y287375*
X275227Y287000*
X275091Y286438*
Y285500*
X275227Y284938*
X275364Y284563*
X275636Y284188*
X276045Y284000*
X277000*
X273591Y287938D02*
X272091D01*
X272909Y286438*
X272500*
X272227Y286250*
X272091Y286063*
X271955Y285500*
Y285125*
X272091Y284563*
X272364Y284188*
X272773Y284000*
X273182*
X273591Y284188*
X273727Y284375*
X273864Y284750*
X277000Y296938D02*
Y293000D01*
Y296938D02*
X276045D01*
X275636Y296750*
X275364Y296375*
X275227Y296000*
X275091Y295438*
Y294500*
X275227Y293938*
X275364Y293563*
X275636Y293188*
X276045Y293000*
X277000*
X272500Y296938D02*
X273864Y294313D01*
X271818*
X272500Y296938D02*
Y293000D01*
X291000Y219938D02*
Y216000D01*
Y219938D02*
X290045D01*
X290045D02*
X289636Y219750D01*
X289364Y219375*
X289227Y219000*
X289091Y218438*
X289091D02*
Y217500D01*
X289227Y216938*
X289227D02*
X289364Y216563D01*
X289364D02*
X289636Y216188D01*
X289636D02*
X290045Y216000D01*
X291000*
X286091Y219938D02*
X287455D01*
X287455D02*
X287591Y218250D01*
X287455Y218438*
X287455D02*
X287045Y218625D01*
X286636*
X286227Y218438*
X286227D02*
X285955Y218063D01*
X285955D02*
X285818Y217500D01*
X285955Y217125*
X286091Y216563*
X286091D02*
X286364Y216188D01*
X286364D02*
X286773Y216000D01*
X287182*
X287591Y216188*
X287591D02*
X287727Y216375D01*
X287864Y216750*
X277500Y245938D02*
Y242000D01*
Y245938D02*
X276545D01*
X276136Y245750*
X275864Y245375*
X275727Y245000*
X275591Y244438*
Y243500*
X275727Y242938*
X275864Y242563*
X276136Y242188*
X276545Y242000*
X277500*
X272727Y245375D02*
X272864Y245750D01*
X273273Y245938*
X273545*
X273955Y245750*
X274227Y245188*
X274364Y244250*
Y243313*
X274227Y242563*
X273955Y242188*
X273545Y242000*
X273409*
X273000Y242188*
X272727Y242563*
X272591Y243125*
Y243313*
X272727Y243875*
X273000Y244250*
X273409Y244438*
X273545*
X273955Y244250*
X274227Y243875*
X274364Y243313*
X277500Y237438D02*
Y233500D01*
Y237438D02*
X276545D01*
X276136Y237250*
X275864Y236875*
X275727Y236500*
X275591Y235938*
Y235000*
X275727Y234438*
X275864Y234063*
X276136Y233688*
X276545Y233500*
X277500*
X272455Y237438D02*
X273818Y233500D01*
X274364Y237438D02*
X272455D01*
X304000Y163938D02*
Y160000D01*
Y163938D02*
X303045D01*
X303045D02*
X302636Y163750D01*
X302364Y163375*
X302227Y163000*
X302091Y162438*
X302091D02*
Y161500D01*
X302227Y160938*
X302227D02*
X302364Y160563D01*
X302364D02*
X302636Y160188D01*
X302636D02*
X303045Y160000D01*
X304000*
X300182Y163938D02*
X300591Y163750D01*
X300727Y163375*
Y163000*
X300591Y162625*
X300318Y162438*
X300318D02*
X299773Y162250D01*
X299364Y162063*
X299364D02*
X299091Y161688D01*
X299091D02*
X298955Y161313D01*
X298955D02*
Y160750D01*
X299091Y160375*
X299227Y160188*
X299227D02*
X299636Y160000D01*
X300182*
X300591Y160188*
X300591D02*
X300727Y160375D01*
X300864Y160750*
Y161313*
X300864D02*
X300727Y161688D01*
X300727D02*
X300455Y162063D01*
X300455D02*
X300045Y162250D01*
X299500Y162438*
X299500D02*
X299227Y162625D01*
X299091Y163000*
Y163375*
X299227Y163750*
X299636Y163938*
X299636D02*
X300182D01*
X277500Y195438D02*
Y191500D01*
Y195438D02*
X276545D01*
X276136Y195250*
X275864Y194875*
X275727Y194500*
X275591Y193938*
Y193000*
X275727Y192438*
X275864Y192063*
X276136Y191688*
X276545Y191500*
X277500*
X272591Y194125D02*
X272727Y193563D01*
X273000Y193188*
X273409Y193000*
X273545*
X273955Y193188*
X274227Y193563*
X274364Y194125*
Y194313*
X274227Y194875*
X273955Y195250*
X273545Y195438*
X273409*
X273000Y195250*
X272727Y194875*
X272591Y194125*
Y193188*
X272727Y192250*
X273000Y191688*
X273409Y191500*
X273682*
X274091Y191688*
X274227Y192063*
X310000Y281438D02*
Y277500D01*
Y281438D02*
X308773D01*
X308773D02*
X308364Y281250D01*
X308227Y281063*
X308227D02*
X308091Y280688D01*
X308091D02*
Y280313D01*
X308091D02*
X308227Y279938D01*
X308227D02*
X308364Y279750D01*
X308773Y279563*
X308773D02*
X310000D01*
X309045D02*
X308091Y277500D01*
X306864Y280688D02*
X306591Y280875D01*
X306182Y281438*
X306182D02*
Y277500D01*
X280000Y281938D02*
Y278000D01*
Y281938D02*
X278773D01*
X278364Y281750*
X278227Y281563*
X278091Y281188*
Y280813*
X278227Y280438*
X278364Y280250*
X278773Y280063*
X280000*
X279045D02*
X278091Y278000D01*
X276727Y281000D02*
Y281188D01*
X276591Y281563*
X276455Y281750*
X276182Y281938*
X275636*
X275364Y281750*
X275227Y281563*
X275091Y281188*
Y280813*
X275227Y280438*
X275500Y279875*
X276864Y278000*
X274955*
X290000Y308937D02*
Y305000D01*
Y308937D02*
X288773D01*
X288773D02*
X288364Y308750D01*
X288227Y308562*
X288227D02*
X288091Y308187D01*
X288091D02*
Y307812D01*
X288091D02*
X288227Y307437D01*
X288227D02*
X288364Y307250D01*
X288773Y307062*
X288773D02*
X290000D01*
X289045D02*
X288091Y305000D01*
X286591Y308937D02*
X285091D01*
X285091D02*
X285909Y307437D01*
X285909D02*
X285500D01*
X285500D02*
X285227Y307250D01*
X285091Y307062*
X285091D02*
X284955Y306500D01*
Y306125*
X285091Y305562*
X285091D02*
X285364Y305187D01*
X285364D02*
X285773Y305000D01*
X286182*
X286591Y305187*
X286591D02*
X286727Y305375D01*
X286864Y305750*
X291000Y225938D02*
Y222000D01*
Y225938D02*
X289773D01*
X289773D02*
X289364Y225750D01*
X289227Y225563*
X289227D02*
X289091Y225188D01*
X289091D02*
Y224813D01*
X289091D02*
X289227Y224438D01*
X289227D02*
X289364Y224250D01*
X289773Y224063*
X289773D02*
X291000D01*
X290045D02*
X289091Y222000D01*
X286500Y225938D02*
X287864Y223313D01*
X287864D02*
X285818D01*
X286500Y225938D02*
Y222000D01*
X289500Y257937D02*
Y254000D01*
Y257937D02*
X288273D01*
X288273D02*
X287864Y257750D01*
X287727Y257562*
X287727D02*
X287591Y257187D01*
X287591D02*
Y256812D01*
X287591D02*
X287727Y256437D01*
X287727D02*
X287864Y256250D01*
X288273Y256062*
X288273D02*
X289500D01*
X288545D02*
X287591Y254000D01*
X284591Y257937D02*
X285955D01*
X285955D02*
X286091Y256250D01*
X285955Y256437*
X285955D02*
X285545Y256625D01*
X285136*
X284727Y256437*
X284727D02*
X284455Y256062D01*
X284455D02*
X284318Y255500D01*
X284455Y255125*
X284591Y254562*
X284591D02*
X284864Y254187D01*
X284864D02*
X285273Y254000D01*
X285682*
X286091Y254187*
X286091D02*
X286227Y254375D01*
X286364Y254750*
X279000Y230438D02*
Y226500D01*
Y230438D02*
X277773D01*
X277364Y230250*
X277227Y230063*
X277091Y229688*
Y229313*
X277227Y228938*
X277364Y228750*
X277773Y228563*
X279000*
X278045D02*
X277091Y226500D01*
X274227Y229875D02*
X274364Y230250D01*
X274773Y230438*
X275045*
X275455Y230250*
X275727Y229688*
X275864Y228750*
Y227813*
X275727Y227063*
X275455Y226688*
X275045Y226500*
X274909*
X274500Y226688*
X274227Y227063*
X274091Y227625*
Y227813*
X274227Y228375*
X274500Y228750*
X274909Y228938*
X275045*
X275455Y228750*
X275727Y228375*
X275864Y227813*
X311000Y181438D02*
Y177500D01*
Y181438D02*
X309773D01*
X309773D02*
X309364Y181250D01*
X309227Y181063*
X309227D02*
X309091Y180688D01*
X309091D02*
Y180313D01*
X309091D02*
X309227Y179938D01*
X309227D02*
X309364Y179750D01*
X309773Y179563*
X309773D02*
X311000D01*
X310045D02*
X309091Y177500D01*
X305955Y181438D02*
X307318Y177500D01*
X307864Y181438D02*
X305955D01*
X290000Y206937D02*
Y203000D01*
Y206937D02*
X288773D01*
X288773D02*
X288364Y206750D01*
X288227Y206562*
X288227D02*
X288091Y206187D01*
X288091D02*
Y205812D01*
X288091D02*
X288227Y205437D01*
X288227D02*
X288364Y205250D01*
X288773Y205062*
X288773D02*
X290000D01*
X289045D02*
X288091Y203000D01*
X286182Y206937D02*
X286591Y206750D01*
X286727Y206375*
Y206000*
X286591Y205625*
X286318Y205437*
X286318D02*
X285773Y205250D01*
X285364Y205062*
X285364D02*
X285091Y204687D01*
X285091D02*
X284955Y204312D01*
X284955D02*
Y203750D01*
X285091Y203375*
X285227Y203187*
X285227D02*
X285636Y203000D01*
X286182*
X286591Y203187*
X286591D02*
X286727Y203375D01*
X286864Y203750*
Y204312*
X286864D02*
X286727Y204687D01*
X286727D02*
X286455Y205062D01*
X286455D02*
X286045Y205250D01*
X285500Y205437*
X285500D02*
X285227Y205625D01*
X285091Y206000*
Y206375*
X285227Y206750*
X285636Y206937*
X285636D02*
X286182D01*
X288500Y174938D02*
Y171000D01*
Y174938D02*
X287273D01*
X287273D02*
X286864Y174750D01*
X286727Y174563*
X286727D02*
X286591Y174188D01*
X286591D02*
Y173813D01*
X286591D02*
X286727Y173438D01*
X286727D02*
X286864Y173250D01*
X287273Y173063*
X287273D02*
X288500D01*
X287545D02*
X286591Y171000D01*
X283591Y173625D02*
X283727Y173063D01*
X283727D02*
X284000Y172688D01*
X284000D02*
X284409Y172500D01*
X284545*
X284955Y172688*
X284955D02*
X285227Y173063D01*
X285227D02*
X285364Y173625D01*
Y173813*
X285364D02*
X285227Y174375D01*
X284955Y174750*
X284545Y174938*
X284545D02*
X284409D01*
X284409D02*
X284000Y174750D01*
X283727Y174375*
X283591Y173625*
Y172688*
X283591D02*
X283727Y171750D01*
X284000Y171188*
X284000D02*
X284409Y171000D01*
X284682*
X285091Y171188*
X285091D02*
X285227Y171563D01*
G54D34*
X330500Y247400D02*
X326350D01*
X322600Y243650*
Y221600*
X330500*
X340500D02*
X348400D01*
Y243650*
X344650Y247400*
X340500*
X330545Y244340D02*
G75*
G03Y224660I5232J-9840D01*
G01X340456D02*
G03Y244340I-5233J9840D01*
G54D56*
G01X412000Y139500D02*
X372100D01*
X412000Y139700D02*
X372100D01*
X412000Y139900D02*
X372100D01*
X412000Y140100D02*
X372100D01*
X412000Y140300D02*
X372100D01*
X412000Y140500D02*
X372100D01*
X412000Y140700D02*
X372100D01*
X412000Y140900D02*
X372100D01*
X412000Y141100D02*
X372100D01*
X412000Y141300D02*
X372100D01*
X412000Y141500D02*
X372100D01*
X412000Y141700D02*
X372100D01*
X412000Y141900D02*
X372100D01*
X412000Y142100D02*
X372100D01*
X412000Y142300D02*
X372100D01*
X412000Y142500D02*
X372100D01*
X412000Y142700D02*
X372100D01*
X412000Y142900D02*
X372100D01*
X412000Y143100D02*
X372100D01*
X412000Y143300D02*
X372100D01*
X412000Y143500D02*
X372100D01*
X412000Y143700D02*
X372100D01*
X412000Y143900D02*
X372100D01*
X412000Y144100D02*
X372100D01*
X412000Y144300D02*
X372100D01*
X412000Y144500D02*
X407300D01*
X398800D02*
X397700D01*
X389000D02*
X384300D01*
X377000D02*
X372100D01*
X412000Y144700D02*
X407300D01*
X398800D02*
X397700D01*
X389000D02*
X384300D01*
X377000D02*
X372100D01*
X412000Y144900D02*
X407300D01*
X398800D02*
X397700D01*
X389000D02*
X384300D01*
X377000D02*
X372100D01*
X412000Y145100D02*
X407300D01*
X398800D02*
X397700D01*
X389000D02*
X384300D01*
X377000D02*
X372100D01*
X412000Y145300D02*
X407300D01*
X398800D02*
X397700D01*
X389000D02*
X384300D01*
X377000D02*
X372100D01*
X412000Y145500D02*
X407300D01*
X398800D02*
X397700D01*
X389000D02*
X384300D01*
X377000D02*
X372100D01*
X412000Y145700D02*
X407300D01*
X406000D02*
X400100D01*
X398800D02*
X397700D01*
X396400D02*
X394100D01*
X392800D02*
X390300D01*
X385400D02*
X384300D01*
X380600D02*
X378300D01*
X377000D02*
X372100D01*
X412000Y145900D02*
X407300D01*
X406000D02*
X400100D01*
X398800D02*
X397700D01*
X396400D02*
X394100D01*
X392800D02*
X390300D01*
X385400D02*
X384300D01*
X380600D02*
X378300D01*
X377000D02*
X372100D01*
X412000Y146100D02*
X407300D01*
X406000D02*
X400100D01*
X398800D02*
X397700D01*
X396400D02*
X394100D01*
X392800D02*
X390300D01*
X385400D02*
X384300D01*
X380600D02*
X378300D01*
X377000D02*
X372100D01*
X412000Y146300D02*
X407300D01*
X406000D02*
X400100D01*
X398800D02*
X397700D01*
X396400D02*
X394100D01*
X392800D02*
X390300D01*
X385400D02*
X384300D01*
X380600D02*
X378300D01*
X377000D02*
X372100D01*
X412000Y146500D02*
X407300D01*
X406000D02*
X400100D01*
X398800D02*
X397700D01*
X396400D02*
X394100D01*
X392800D02*
X390300D01*
X385400D02*
X384300D01*
X380600D02*
X378300D01*
X377000D02*
X372100D01*
X412000Y146700D02*
X407300D01*
X406000D02*
X400100D01*
X398800D02*
X397700D01*
X396400D02*
X394100D01*
X392800D02*
X390300D01*
X385400D02*
X384300D01*
X380600D02*
X378300D01*
X377000D02*
X372100D01*
X412000Y146900D02*
X407300D01*
X406000D02*
X404900D01*
X401200D02*
X400100D01*
X398800D02*
X397700D01*
X396400D02*
X390300D01*
X389000D02*
X384300D01*
X383000D02*
X380700D01*
X379400D02*
X378300D01*
X377000D02*
X372100D01*
X412000Y147100D02*
X407300D01*
X406000D02*
X404900D01*
X401200D02*
X400100D01*
X398800D02*
X397700D01*
X396400D02*
X390300D01*
X389000D02*
X384300D01*
X383000D02*
X380700D01*
X379400D02*
X378300D01*
X377000D02*
X372100D01*
X412000Y147300D02*
X407300D01*
X406000D02*
X404900D01*
X401200D02*
X400100D01*
X398800D02*
X397700D01*
X396400D02*
X390300D01*
X389000D02*
X384300D01*
X383000D02*
X380700D01*
X379400D02*
X378300D01*
X377000D02*
X372100D01*
X412000Y147500D02*
X407300D01*
X406000D02*
X404900D01*
X401200D02*
X400100D01*
X398800D02*
X397700D01*
X396400D02*
X390300D01*
X389000D02*
X384300D01*
X383000D02*
X380700D01*
X379400D02*
X378300D01*
X377000D02*
X372100D01*
X412000Y147700D02*
X407300D01*
X406000D02*
X404900D01*
X401200D02*
X400100D01*
X398800D02*
X397700D01*
X396400D02*
X390300D01*
X389000D02*
X384300D01*
X383000D02*
X380700D01*
X379400D02*
X378300D01*
X377000D02*
X372100D01*
X412000Y147900D02*
X407300D01*
X406000D02*
X404900D01*
X401200D02*
X400100D01*
X398800D02*
X397700D01*
X396400D02*
X390300D01*
X389000D02*
X384300D01*
X383000D02*
X380700D01*
X379400D02*
X378300D01*
X377000D02*
X372100D01*
X412000Y148100D02*
X407300D01*
X406000D02*
X404900D01*
X401200D02*
X400100D01*
X398800D02*
X397700D01*
X396400D02*
X394100D01*
X390200D02*
X386700D01*
X384200D02*
X383100D01*
X381800D02*
X380700D01*
X379400D02*
X372100D01*
X412000Y148300D02*
X407300D01*
X406000D02*
X404900D01*
X401200D02*
X400100D01*
X398800D02*
X397700D01*
X396400D02*
X394100D01*
X390200D02*
X386700D01*
X384200D02*
X383100D01*
X381800D02*
X380700D01*
X379400D02*
X372100D01*
X412000Y148500D02*
X407300D01*
X406000D02*
X404900D01*
X401200D02*
X400100D01*
X398800D02*
X397700D01*
X396400D02*
X394100D01*
X390200D02*
X386700D01*
X384200D02*
X383100D01*
X381800D02*
X380700D01*
X379400D02*
X372100D01*
X412000Y148700D02*
X407300D01*
X406000D02*
X404900D01*
X401200D02*
X400100D01*
X398800D02*
X397700D01*
X396400D02*
X394100D01*
X390200D02*
X386700D01*
X384200D02*
X383100D01*
X381800D02*
X380700D01*
X379400D02*
X372100D01*
X412000Y148900D02*
X407300D01*
X406000D02*
X404900D01*
X401200D02*
X400100D01*
X398800D02*
X397700D01*
X396400D02*
X394100D01*
X390200D02*
X386700D01*
X384200D02*
X383100D01*
X381800D02*
X380700D01*
X379400D02*
X372100D01*
X412000Y149100D02*
X407300D01*
X406000D02*
X404900D01*
X401200D02*
X400100D01*
X398800D02*
X397700D01*
X396400D02*
X394100D01*
X390200D02*
X386700D01*
X384200D02*
X383100D01*
X381800D02*
X380700D01*
X379400D02*
X372100D01*
X412000Y149300D02*
X407300D01*
X406000D02*
X404900D01*
X401200D02*
X400100D01*
X398800D02*
X397700D01*
X379400D02*
X378300D01*
X377000D02*
X372100D01*
X412000Y149500D02*
X407300D01*
X406000D02*
X404900D01*
X401200D02*
X400100D01*
X398800D02*
X397700D01*
X379400D02*
X378300D01*
X377000D02*
X372100D01*
X412000Y149700D02*
X407300D01*
X406000D02*
X404900D01*
X401200D02*
X400100D01*
X398800D02*
X397700D01*
X379400D02*
X378300D01*
X377000D02*
X372100D01*
X412000Y149900D02*
X407300D01*
X406000D02*
X404900D01*
X401200D02*
X400100D01*
X398800D02*
X397700D01*
X379400D02*
X378300D01*
X377000D02*
X372100D01*
X412000Y150100D02*
X407300D01*
X406000D02*
X404900D01*
X401200D02*
X400100D01*
X398800D02*
X397700D01*
X379400D02*
X378300D01*
X377000D02*
X372100D01*
X412000Y150300D02*
X407300D01*
X406000D02*
X404900D01*
X401200D02*
X400100D01*
X398800D02*
X397700D01*
X379400D02*
X378300D01*
X377000D02*
X372100D01*
X412000Y150500D02*
X407300D01*
X406000D02*
X400100D01*
X398800D02*
X396500D01*
X395200D02*
X394100D01*
X392800D02*
X390300D01*
X389000D02*
X387900D01*
X386600D02*
X383100D01*
X380600D02*
X378300D01*
X377000D02*
X372100D01*
X412000Y150700D02*
X407300D01*
X406000D02*
X400100D01*
X398800D02*
X396500D01*
X395200D02*
X394100D01*
X392800D02*
X390300D01*
X389000D02*
X387900D01*
X386600D02*
X383100D01*
X380600D02*
X378300D01*
X377000D02*
X372100D01*
X412000Y150900D02*
X407300D01*
X406000D02*
X400100D01*
X398800D02*
X396500D01*
X395200D02*
X394100D01*
X392800D02*
X390300D01*
X389000D02*
X387900D01*
X386600D02*
X383100D01*
X380600D02*
X378300D01*
X377000D02*
X372100D01*
X412000Y151100D02*
X407300D01*
X406000D02*
X400100D01*
X398800D02*
X396500D01*
X395200D02*
X394100D01*
X392800D02*
X390300D01*
X389000D02*
X387900D01*
X386600D02*
X383100D01*
X380600D02*
X378300D01*
X377000D02*
X372100D01*
X412000Y151300D02*
X407300D01*
X406000D02*
X400100D01*
X398800D02*
X396500D01*
X395200D02*
X394100D01*
X392800D02*
X390300D01*
X389000D02*
X387900D01*
X386600D02*
X383100D01*
X380600D02*
X378300D01*
X377000D02*
X372100D01*
X412000Y151500D02*
X407300D01*
X406000D02*
X400100D01*
X398800D02*
X396500D01*
X395200D02*
X394100D01*
X392800D02*
X390300D01*
X389000D02*
X387900D01*
X386600D02*
X383100D01*
X380600D02*
X378300D01*
X377000D02*
X372100D01*
X412000Y151700D02*
X407300D01*
X398800D02*
X397700D01*
X396400D02*
X390300D01*
X389000D02*
X387900D01*
X386600D02*
X385500D01*
X384200D02*
X383100D01*
X377000D02*
X372100D01*
X412000Y151900D02*
X407300D01*
X398800D02*
X397700D01*
X396400D02*
X390300D01*
X389000D02*
X387900D01*
X386600D02*
X385500D01*
X384200D02*
X383100D01*
X377000D02*
X372100D01*
X412000Y152100D02*
X407300D01*
X398800D02*
X397700D01*
X396400D02*
X390300D01*
X389000D02*
X387900D01*
X386600D02*
X385500D01*
X384200D02*
X383100D01*
X377000D02*
X372100D01*
X412000Y152300D02*
X407300D01*
X398800D02*
X397700D01*
X396400D02*
X390300D01*
X389000D02*
X387900D01*
X386600D02*
X385500D01*
X384200D02*
X383100D01*
X377000D02*
X372100D01*
X412000Y152500D02*
X407300D01*
X398800D02*
X397700D01*
X396400D02*
X390300D01*
X389000D02*
X387900D01*
X386600D02*
X385500D01*
X384200D02*
X383100D01*
X377000D02*
X372100D01*
X412000Y152700D02*
X407300D01*
X398800D02*
X397700D01*
X396400D02*
X390300D01*
X389000D02*
X387900D01*
X386600D02*
X385500D01*
X384200D02*
X383100D01*
X377000D02*
X372100D01*
X412000Y152900D02*
X397700D01*
X396400D02*
X389100D01*
X386600D02*
X383100D01*
X379400D02*
X372100D01*
X412000Y153100D02*
X397700D01*
X396400D02*
X389100D01*
X386600D02*
X383100D01*
X379400D02*
X372100D01*
X412000Y153300D02*
X397700D01*
X396400D02*
X389100D01*
X386600D02*
X383100D01*
X379400D02*
X372100D01*
X412000Y153500D02*
X397700D01*
X396400D02*
X389100D01*
X386600D02*
X383100D01*
X379400D02*
X372100D01*
X412000Y153700D02*
X397700D01*
X396400D02*
X389100D01*
X386600D02*
X383100D01*
X379400D02*
X372100D01*
X412000Y153900D02*
X397700D01*
X396400D02*
X389100D01*
X386600D02*
X383100D01*
X379400D02*
X372100D01*
X412000Y154100D02*
X406100D01*
X404800D02*
X402500D01*
X401200D02*
X400100D01*
X398800D02*
X397700D01*
X395200D02*
X392900D01*
X381800D02*
X380700D01*
X379400D02*
X372100D01*
X412000Y154300D02*
X406100D01*
X404800D02*
X402500D01*
X401200D02*
X400100D01*
X398800D02*
X397700D01*
X395200D02*
X392900D01*
X381800D02*
X380700D01*
X379400D02*
X372100D01*
X412000Y154500D02*
X406100D01*
X404800D02*
X402500D01*
X401200D02*
X400100D01*
X398800D02*
X397700D01*
X395200D02*
X392900D01*
X381800D02*
X380700D01*
X379400D02*
X372100D01*
X412000Y154700D02*
X406100D01*
X404800D02*
X402500D01*
X401200D02*
X400100D01*
X398800D02*
X397700D01*
X395200D02*
X392900D01*
X381800D02*
X380700D01*
X379400D02*
X372100D01*
X412000Y154900D02*
X406100D01*
X404800D02*
X402500D01*
X401200D02*
X400100D01*
X398800D02*
X397700D01*
X395200D02*
X392900D01*
X381800D02*
X380700D01*
X379400D02*
X372100D01*
X412000Y155100D02*
X406100D01*
X404800D02*
X402500D01*
X401200D02*
X400100D01*
X398800D02*
X397700D01*
X395200D02*
X392900D01*
X381800D02*
X380700D01*
X379400D02*
X372100D01*
X412000Y155300D02*
X406100D01*
X404800D02*
X402500D01*
X401200D02*
X398900D01*
X396400D02*
X389100D01*
X387800D02*
X386700D01*
X380600D02*
X378300D01*
X377000D02*
X372100D01*
X412000Y155500D02*
X406100D01*
X404800D02*
X402500D01*
X401200D02*
X398900D01*
X396400D02*
X389100D01*
X387800D02*
X386700D01*
X380600D02*
X378300D01*
X377000D02*
X372100D01*
X412000Y155700D02*
X406100D01*
X404800D02*
X402500D01*
X401200D02*
X398900D01*
X396400D02*
X389100D01*
X387800D02*
X386700D01*
X380600D02*
X378300D01*
X377000D02*
X372100D01*
X412000Y155900D02*
X406100D01*
X404800D02*
X402500D01*
X401200D02*
X398900D01*
X396400D02*
X389100D01*
X387800D02*
X386700D01*
X380600D02*
X378300D01*
X377000D02*
X372100D01*
X412000Y156100D02*
X406100D01*
X404800D02*
X402500D01*
X401200D02*
X398900D01*
X396400D02*
X389100D01*
X387800D02*
X386700D01*
X380600D02*
X378300D01*
X377000D02*
X372100D01*
X412000Y156300D02*
X406100D01*
X404800D02*
X402500D01*
X401200D02*
X398900D01*
X396400D02*
X389100D01*
X387800D02*
X386700D01*
X380600D02*
X378300D01*
X377000D02*
X372100D01*
X412000Y156500D02*
X406100D01*
X404800D02*
X403700D01*
X398800D02*
X396500D01*
X394000D02*
X392900D01*
X391400D02*
X390300D01*
X386600D02*
X384300D01*
X383000D02*
X381900D01*
X380600D02*
X379500D01*
X377000D02*
X372100D01*
X412000Y156700D02*
X406100D01*
X404800D02*
X403700D01*
X398800D02*
X396500D01*
X394000D02*
X392900D01*
X391400D02*
X390300D01*
X386600D02*
X384300D01*
X383000D02*
X381900D01*
X380600D02*
X379500D01*
X377000D02*
X372100D01*
X412000Y156900D02*
X406100D01*
X404800D02*
X403700D01*
X398800D02*
X396500D01*
X394000D02*
X392900D01*
X391400D02*
X390300D01*
X386600D02*
X384300D01*
X383000D02*
X381900D01*
X380600D02*
X379500D01*
X377000D02*
X372100D01*
X412000Y157100D02*
X406100D01*
X404800D02*
X403700D01*
X398800D02*
X396500D01*
X394000D02*
X392900D01*
X391400D02*
X390300D01*
X386600D02*
X384300D01*
X383000D02*
X381900D01*
X380600D02*
X379500D01*
X377000D02*
X372100D01*
X412000Y157300D02*
X406100D01*
X404800D02*
X403700D01*
X398800D02*
X396500D01*
X394000D02*
X392900D01*
X391400D02*
X390300D01*
X386600D02*
X384300D01*
X383000D02*
X381900D01*
X380600D02*
X379500D01*
X377000D02*
X372100D01*
X412000Y157500D02*
X406100D01*
X404800D02*
X403700D01*
X398800D02*
X396500D01*
X394000D02*
X392900D01*
X391400D02*
X390300D01*
X386600D02*
X384300D01*
X383000D02*
X381900D01*
X380600D02*
X379500D01*
X377000D02*
X372100D01*
X412000Y157700D02*
X406100D01*
X403600D02*
X402500D01*
X400000D02*
X397700D01*
X396400D02*
X387900D01*
X386600D02*
X381900D01*
X380600D02*
X379500D01*
X378200D02*
X372100D01*
X412000Y157900D02*
X406100D01*
X403600D02*
X402500D01*
X400000D02*
X397700D01*
X396400D02*
X387900D01*
X386600D02*
X381900D01*
X380600D02*
X379500D01*
X378200D02*
X372100D01*
X412000Y158100D02*
X406100D01*
X403600D02*
X402500D01*
X400000D02*
X397700D01*
X396400D02*
X387900D01*
X386600D02*
X381900D01*
X380600D02*
X379500D01*
X378200D02*
X372100D01*
X412000Y158300D02*
X406100D01*
X403600D02*
X402500D01*
X400000D02*
X397700D01*
X396400D02*
X387900D01*
X386600D02*
X381900D01*
X380600D02*
X379500D01*
X378200D02*
X372100D01*
X412000Y158500D02*
X406100D01*
X403600D02*
X402500D01*
X400000D02*
X397700D01*
X396400D02*
X387900D01*
X386600D02*
X381900D01*
X380600D02*
X379500D01*
X378200D02*
X372100D01*
X412000Y158700D02*
X406100D01*
X403600D02*
X402500D01*
X400000D02*
X397700D01*
X396400D02*
X387900D01*
X386600D02*
X381900D01*
X380600D02*
X379500D01*
X378200D02*
X372100D01*
X412000Y158900D02*
X406100D01*
X404800D02*
X401300D01*
X398800D02*
X396500D01*
X395200D02*
X392900D01*
X384200D02*
X383100D01*
X381800D02*
X380700D01*
X377000D02*
X372100D01*
X412000Y159100D02*
X406100D01*
X404800D02*
X401300D01*
X398800D02*
X396500D01*
X395200D02*
X392900D01*
X384200D02*
X383100D01*
X381800D02*
X380700D01*
X377000D02*
X372100D01*
X412000Y159300D02*
X406100D01*
X404800D02*
X401300D01*
X398800D02*
X396500D01*
X395200D02*
X392900D01*
X384200D02*
X383100D01*
X381800D02*
X380700D01*
X377000D02*
X372100D01*
X412000Y159500D02*
X406100D01*
X404800D02*
X401300D01*
X398800D02*
X396500D01*
X395200D02*
X392900D01*
X384200D02*
X383100D01*
X381800D02*
X380700D01*
X377000D02*
X372100D01*
X412000Y159700D02*
X406100D01*
X404800D02*
X401300D01*
X398800D02*
X396500D01*
X395200D02*
X392900D01*
X384200D02*
X383100D01*
X381800D02*
X380700D01*
X377000D02*
X372100D01*
X412000Y159900D02*
X406100D01*
X404800D02*
X401300D01*
X398800D02*
X396500D01*
X395200D02*
X392900D01*
X384200D02*
X383100D01*
X381800D02*
X380700D01*
X377000D02*
X372100D01*
X412000Y160100D02*
X406100D01*
X404800D02*
X401300D01*
X398800D02*
X396500D01*
X395200D02*
X392900D01*
X384200D02*
X383100D01*
X381800D02*
X380700D01*
X377000D02*
X372100D01*
X412000Y160300D02*
X407300D01*
X404800D02*
X402500D01*
X401200D02*
X396500D01*
X391400D02*
X390300D01*
X389000D02*
X385500D01*
X381800D02*
X378300D01*
X377000D02*
X372100D01*
X412000Y160500D02*
X407300D01*
X404800D02*
X402500D01*
X401200D02*
X396500D01*
X391400D02*
X390300D01*
X389000D02*
X385500D01*
X381800D02*
X378300D01*
X377000D02*
X372100D01*
X412000Y160700D02*
X407300D01*
X404800D02*
X402500D01*
X401200D02*
X396500D01*
X391400D02*
X390300D01*
X389000D02*
X385500D01*
X381800D02*
X378300D01*
X377000D02*
X372100D01*
X412000Y160900D02*
X407300D01*
X404800D02*
X402500D01*
X401200D02*
X396500D01*
X391400D02*
X390300D01*
X389000D02*
X385500D01*
X381800D02*
X378300D01*
X377000D02*
X372100D01*
X412000Y161100D02*
X407300D01*
X404800D02*
X402500D01*
X401200D02*
X396500D01*
X391400D02*
X390300D01*
X389000D02*
X385500D01*
X381800D02*
X378300D01*
X377000D02*
X372100D01*
X412000Y161300D02*
X407300D01*
X404800D02*
X402500D01*
X401200D02*
X396500D01*
X391400D02*
X390300D01*
X389000D02*
X385500D01*
X381800D02*
X378300D01*
X377000D02*
X372100D01*
X412000Y161500D02*
X407300D01*
X404800D02*
X403700D01*
X398800D02*
X396500D01*
X395200D02*
X391500D01*
X387800D02*
X386700D01*
X385400D02*
X383100D01*
X380600D02*
X379500D01*
X377000D02*
X372100D01*
X412000Y161700D02*
X407300D01*
X404800D02*
X403700D01*
X398800D02*
X396500D01*
X395200D02*
X391500D01*
X387800D02*
X386700D01*
X385400D02*
X383100D01*
X380600D02*
X379500D01*
X377000D02*
X372100D01*
X412000Y161900D02*
X407300D01*
X404800D02*
X403700D01*
X398800D02*
X396500D01*
X395200D02*
X391500D01*
X387800D02*
X386700D01*
X385400D02*
X383100D01*
X380600D02*
X379500D01*
X377000D02*
X372100D01*
X412000Y162100D02*
X407300D01*
X404800D02*
X403700D01*
X398800D02*
X396500D01*
X395200D02*
X391500D01*
X387800D02*
X386700D01*
X385400D02*
X383100D01*
X380600D02*
X379500D01*
X377000D02*
X372100D01*
X412000Y162300D02*
X407300D01*
X404800D02*
X403700D01*
X398800D02*
X396500D01*
X395200D02*
X391500D01*
X387800D02*
X386700D01*
X385400D02*
X383100D01*
X380600D02*
X379500D01*
X377000D02*
X372100D01*
X412000Y162500D02*
X407300D01*
X404800D02*
X403700D01*
X398800D02*
X396500D01*
X395200D02*
X391500D01*
X387800D02*
X386700D01*
X385400D02*
X383100D01*
X380600D02*
X379500D01*
X377000D02*
X372100D01*
X412000Y162700D02*
X407300D01*
X403600D02*
X401300D01*
X400000D02*
X396500D01*
X395200D02*
X394100D01*
X390200D02*
X384300D01*
X383000D02*
X379500D01*
X378200D02*
X372100D01*
X412000Y162900D02*
X407300D01*
X403600D02*
X401300D01*
X400000D02*
X396500D01*
X395200D02*
X394100D01*
X390200D02*
X384300D01*
X383000D02*
X379500D01*
X378200D02*
X372100D01*
X412000Y163100D02*
X407300D01*
X403600D02*
X401300D01*
X400000D02*
X396500D01*
X395200D02*
X394100D01*
X390200D02*
X384300D01*
X383000D02*
X379500D01*
X378200D02*
X372100D01*
X412000Y163300D02*
X407300D01*
X403600D02*
X401300D01*
X400000D02*
X396500D01*
X395200D02*
X394100D01*
X390200D02*
X384300D01*
X383000D02*
X379500D01*
X378200D02*
X372100D01*
X412000Y163500D02*
X407300D01*
X403600D02*
X401300D01*
X400000D02*
X396500D01*
X395200D02*
X394100D01*
X390200D02*
X384300D01*
X383000D02*
X379500D01*
X378200D02*
X372100D01*
X412000Y163700D02*
X407300D01*
X403600D02*
X401300D01*
X400000D02*
X396500D01*
X395200D02*
X394100D01*
X390200D02*
X384300D01*
X383000D02*
X379500D01*
X378200D02*
X372100D01*
X412000Y163900D02*
X407300D01*
X401200D02*
X400100D01*
X394000D02*
X391500D01*
X390200D02*
X386700D01*
X385400D02*
X384300D01*
X383000D02*
X381900D01*
X380600D02*
X379500D01*
X378200D02*
X372100D01*
X412000Y164100D02*
X407300D01*
X401200D02*
X400100D01*
X394000D02*
X391500D01*
X390200D02*
X386700D01*
X385400D02*
X384300D01*
X383000D02*
X381900D01*
X380600D02*
X379500D01*
X378200D02*
X372100D01*
X412000Y164300D02*
X407300D01*
X401200D02*
X400100D01*
X394000D02*
X391500D01*
X390200D02*
X386700D01*
X385400D02*
X384300D01*
X383000D02*
X381900D01*
X380600D02*
X379500D01*
X378200D02*
X372100D01*
X412000Y164500D02*
X407300D01*
X401200D02*
X400100D01*
X394000D02*
X391500D01*
X390200D02*
X386700D01*
X385400D02*
X384300D01*
X383000D02*
X381900D01*
X380600D02*
X379500D01*
X378200D02*
X372100D01*
X412000Y164700D02*
X407300D01*
X401200D02*
X400100D01*
X394000D02*
X391500D01*
X390200D02*
X386700D01*
X385400D02*
X384300D01*
X383000D02*
X381900D01*
X380600D02*
X379500D01*
X378200D02*
X372100D01*
X412000Y164900D02*
X407300D01*
X401200D02*
X400100D01*
X394000D02*
X391500D01*
X390200D02*
X386700D01*
X385400D02*
X384300D01*
X383000D02*
X381900D01*
X380600D02*
X379500D01*
X378200D02*
X372100D01*
X412000Y165100D02*
X396500D01*
X391400D02*
X390300D01*
X389000D02*
X387900D01*
X386600D02*
X372100D01*
X412000Y165300D02*
X396500D01*
X391400D02*
X390300D01*
X389000D02*
X387900D01*
X386600D02*
X372100D01*
X412000Y165500D02*
X396500D01*
X391400D02*
X390300D01*
X389000D02*
X387900D01*
X386600D02*
X372100D01*
X412000Y165700D02*
X396500D01*
X391400D02*
X390300D01*
X389000D02*
X387900D01*
X386600D02*
X372100D01*
X412000Y165900D02*
X396500D01*
X391400D02*
X390300D01*
X389000D02*
X387900D01*
X386600D02*
X372100D01*
X412000Y166100D02*
X396500D01*
X391400D02*
X390300D01*
X389000D02*
X387900D01*
X386600D02*
X372100D01*
X412000Y166300D02*
X407300D01*
X398800D02*
X397700D01*
X396400D02*
X395300D01*
X394000D02*
X392900D01*
X391400D02*
X390300D01*
X389000D02*
X387900D01*
X386600D02*
X385500D01*
X377000D02*
X372100D01*
X412000Y166500D02*
X407300D01*
X398800D02*
X397700D01*
X396400D02*
X395300D01*
X394000D02*
X392900D01*
X391400D02*
X390300D01*
X389000D02*
X387900D01*
X386600D02*
X385500D01*
X377000D02*
X372100D01*
X412000Y166700D02*
X407300D01*
X398800D02*
X397700D01*
X396400D02*
X395300D01*
X394000D02*
X392900D01*
X391400D02*
X390300D01*
X389000D02*
X387900D01*
X386600D02*
X385500D01*
X377000D02*
X372100D01*
X412000Y166900D02*
X407300D01*
X398800D02*
X397700D01*
X396400D02*
X395300D01*
X394000D02*
X392900D01*
X391400D02*
X390300D01*
X389000D02*
X387900D01*
X386600D02*
X385500D01*
X377000D02*
X372100D01*
X412000Y167100D02*
X407300D01*
X398800D02*
X397700D01*
X396400D02*
X395300D01*
X394000D02*
X392900D01*
X391400D02*
X390300D01*
X389000D02*
X387900D01*
X386600D02*
X385500D01*
X377000D02*
X372100D01*
X412000Y167300D02*
X407300D01*
X398800D02*
X397700D01*
X396400D02*
X395300D01*
X394000D02*
X392900D01*
X391400D02*
X390300D01*
X389000D02*
X387900D01*
X386600D02*
X385500D01*
X377000D02*
X372100D01*
X412000Y167500D02*
X407300D01*
X406000D02*
X400100D01*
X398800D02*
X397700D01*
X394000D02*
X392900D01*
X391400D02*
X390300D01*
X387800D02*
X385500D01*
X384200D02*
X378300D01*
X377000D02*
X372100D01*
X412000Y167700D02*
X407300D01*
X406000D02*
X400100D01*
X398800D02*
X397700D01*
X394000D02*
X392900D01*
X391400D02*
X390300D01*
X387800D02*
X385500D01*
X384200D02*
X378300D01*
X377000D02*
X372100D01*
X412000Y167900D02*
X407300D01*
X406000D02*
X400100D01*
X398800D02*
X397700D01*
X394000D02*
X392900D01*
X391400D02*
X390300D01*
X387800D02*
X385500D01*
X384200D02*
X378300D01*
X377000D02*
X372100D01*
X412000Y168100D02*
X407300D01*
X406000D02*
X400100D01*
X398800D02*
X397700D01*
X394000D02*
X392900D01*
X391400D02*
X390300D01*
X387800D02*
X385500D01*
X384200D02*
X378300D01*
X377000D02*
X372100D01*
X412000Y168300D02*
X407300D01*
X406000D02*
X400100D01*
X398800D02*
X397700D01*
X394000D02*
X392900D01*
X391400D02*
X390300D01*
X387800D02*
X385500D01*
X384200D02*
X378300D01*
X377000D02*
X372100D01*
X412000Y168500D02*
X407300D01*
X406000D02*
X400100D01*
X398800D02*
X397700D01*
X394000D02*
X392900D01*
X391400D02*
X390300D01*
X387800D02*
X385500D01*
X384200D02*
X378300D01*
X377000D02*
X372100D01*
X412000Y168700D02*
X407300D01*
X406000D02*
X404900D01*
X401200D02*
X400100D01*
X398800D02*
X396500D01*
X390200D02*
X387900D01*
X386600D02*
X385500D01*
X384200D02*
X383100D01*
X379400D02*
X378300D01*
X377000D02*
X372100D01*
X412000Y168900D02*
X407300D01*
X406000D02*
X404900D01*
X401200D02*
X400100D01*
X398800D02*
X396500D01*
X390200D02*
X387900D01*
X386600D02*
X385500D01*
X384200D02*
X383100D01*
X379400D02*
X378300D01*
X377000D02*
X372100D01*
X412000Y169100D02*
X407300D01*
X406000D02*
X404900D01*
X401200D02*
X400100D01*
X398800D02*
X396500D01*
X390200D02*
X387900D01*
X386600D02*
X385500D01*
X384200D02*
X383100D01*
X379400D02*
X378300D01*
X377000D02*
X372100D01*
X412000Y169300D02*
X407300D01*
X406000D02*
X404900D01*
X401200D02*
X400100D01*
X398800D02*
X396500D01*
X390200D02*
X387900D01*
X386600D02*
X385500D01*
X384200D02*
X383100D01*
X379400D02*
X378300D01*
X377000D02*
X372100D01*
X412000Y169500D02*
X407300D01*
X406000D02*
X404900D01*
X401200D02*
X400100D01*
X398800D02*
X396500D01*
X390200D02*
X387900D01*
X386600D02*
X385500D01*
X384200D02*
X383100D01*
X379400D02*
X378300D01*
X377000D02*
X372100D01*
X412000Y169700D02*
X407300D01*
X406000D02*
X404900D01*
X401200D02*
X400100D01*
X398800D02*
X396500D01*
X390200D02*
X387900D01*
X386600D02*
X385500D01*
X384200D02*
X383100D01*
X379400D02*
X378300D01*
X377000D02*
X372100D01*
X412000Y169900D02*
X407300D01*
X406000D02*
X404900D01*
X401200D02*
X400100D01*
X398800D02*
X397700D01*
X396400D02*
X391500D01*
X387800D02*
X385500D01*
X384200D02*
X383100D01*
X379400D02*
X378300D01*
X377000D02*
X372100D01*
X412000Y170100D02*
X407300D01*
X406000D02*
X404900D01*
X401200D02*
X400100D01*
X398800D02*
X397700D01*
X396400D02*
X391500D01*
X387800D02*
X385500D01*
X384200D02*
X383100D01*
X379400D02*
X378300D01*
X377000D02*
X372100D01*
X412000Y170300D02*
X407300D01*
X406000D02*
X404900D01*
X401200D02*
X400100D01*
X398800D02*
X397700D01*
X396400D02*
X391500D01*
X387800D02*
X385500D01*
X384200D02*
X383100D01*
X379400D02*
X378300D01*
X377000D02*
X372100D01*
X412000Y170500D02*
X407300D01*
X406000D02*
X404900D01*
X401200D02*
X400100D01*
X398800D02*
X397700D01*
X396400D02*
X391500D01*
X387800D02*
X385500D01*
X384200D02*
X383100D01*
X379400D02*
X378300D01*
X377000D02*
X372100D01*
X412000Y170700D02*
X407300D01*
X406000D02*
X404900D01*
X401200D02*
X400100D01*
X398800D02*
X397700D01*
X396400D02*
X391500D01*
X387800D02*
X385500D01*
X384200D02*
X383100D01*
X379400D02*
X378300D01*
X377000D02*
X372100D01*
X412000Y170900D02*
X407300D01*
X406000D02*
X404900D01*
X401200D02*
X400100D01*
X398800D02*
X397700D01*
X396400D02*
X391500D01*
X387800D02*
X385500D01*
X384200D02*
X383100D01*
X379400D02*
X378300D01*
X377000D02*
X372100D01*
X412000Y171100D02*
X407300D01*
X406000D02*
X404900D01*
X401200D02*
X400100D01*
X398800D02*
X396500D01*
X395200D02*
X390300D01*
X389000D02*
X385500D01*
X384200D02*
X383100D01*
X379400D02*
X378300D01*
X377000D02*
X372100D01*
X412000Y171300D02*
X407300D01*
X406000D02*
X404900D01*
X401200D02*
X400100D01*
X398800D02*
X396500D01*
X395200D02*
X390300D01*
X389000D02*
X385500D01*
X384200D02*
X383100D01*
X379400D02*
X378300D01*
X377000D02*
X372100D01*
X412000Y171500D02*
X407300D01*
X406000D02*
X404900D01*
X401200D02*
X400100D01*
X398800D02*
X396500D01*
X395200D02*
X390300D01*
X389000D02*
X385500D01*
X384200D02*
X383100D01*
X379400D02*
X378300D01*
X377000D02*
X372100D01*
X412000Y171700D02*
X407300D01*
X406000D02*
X404900D01*
X401200D02*
X400100D01*
X398800D02*
X396500D01*
X395200D02*
X390300D01*
X389000D02*
X385500D01*
X384200D02*
X383100D01*
X379400D02*
X378300D01*
X377000D02*
X372100D01*
X412000Y171900D02*
X407300D01*
X406000D02*
X404900D01*
X401200D02*
X400100D01*
X398800D02*
X396500D01*
X395200D02*
X390300D01*
X389000D02*
X385500D01*
X384200D02*
X383100D01*
X379400D02*
X378300D01*
X377000D02*
X372100D01*
X412000Y172100D02*
X407300D01*
X406000D02*
X404900D01*
X401200D02*
X400100D01*
X398800D02*
X396500D01*
X395200D02*
X390300D01*
X389000D02*
X385500D01*
X384200D02*
X383100D01*
X379400D02*
X378300D01*
X377000D02*
X372100D01*
X412000Y172300D02*
X407300D01*
X406000D02*
X400100D01*
X398800D02*
X397700D01*
X396400D02*
X395300D01*
X394000D02*
X392900D01*
X386600D02*
X385500D01*
X384200D02*
X378300D01*
X377000D02*
X372100D01*
X412000Y172500D02*
X407300D01*
X406000D02*
X400100D01*
X398800D02*
X397700D01*
X396400D02*
X395300D01*
X394000D02*
X392900D01*
X386600D02*
X385500D01*
X384200D02*
X378300D01*
X377000D02*
X372100D01*
X412000Y172700D02*
X407300D01*
X406000D02*
X400100D01*
X398800D02*
X397700D01*
X396400D02*
X395300D01*
X394000D02*
X392900D01*
X386600D02*
X385500D01*
X384200D02*
X378300D01*
X377000D02*
X372100D01*
X412000Y172900D02*
X407300D01*
X406000D02*
X400100D01*
X398800D02*
X397700D01*
X396400D02*
X395300D01*
X394000D02*
X392900D01*
X386600D02*
X385500D01*
X384200D02*
X378300D01*
X377000D02*
X372100D01*
X412000Y173100D02*
X407300D01*
X406000D02*
X400100D01*
X398800D02*
X397700D01*
X396400D02*
X395300D01*
X394000D02*
X392900D01*
X386600D02*
X385500D01*
X384200D02*
X378300D01*
X377000D02*
X372100D01*
X412000Y173300D02*
X407300D01*
X406000D02*
X400100D01*
X398800D02*
X397700D01*
X396400D02*
X395300D01*
X394000D02*
X392900D01*
X386600D02*
X385500D01*
X384200D02*
X378300D01*
X377000D02*
X372100D01*
X412000Y173500D02*
X407300D01*
X398800D02*
X396500D01*
X390200D02*
X387900D01*
X386600D02*
X385500D01*
X377000D02*
X372100D01*
X412000Y173700D02*
X407300D01*
X398800D02*
X396500D01*
X390200D02*
X387900D01*
X386600D02*
X385500D01*
X377000D02*
X372100D01*
X412000Y173900D02*
X407300D01*
X398800D02*
X396500D01*
X390200D02*
X387900D01*
X386600D02*
X385500D01*
X377000D02*
X372100D01*
X412000Y174100D02*
X407300D01*
X398800D02*
X396500D01*
X390200D02*
X387900D01*
X386600D02*
X385500D01*
X377000D02*
X372100D01*
X412000Y174300D02*
X407300D01*
X398800D02*
X396500D01*
X390200D02*
X387900D01*
X386600D02*
X385500D01*
X377000D02*
X372100D01*
X412000Y174500D02*
X407300D01*
X398800D02*
X396500D01*
X390200D02*
X387900D01*
X386600D02*
X385500D01*
X377000D02*
X372100D01*
X412000Y174700D02*
X372100D01*
X412000Y174900D02*
X372100D01*
X412000Y175100D02*
X372100D01*
X412000Y175300D02*
X372100D01*
X412000Y175500D02*
X372100D01*
X412000Y175700D02*
X372100D01*
X412000Y175900D02*
X372100D01*
X412000Y176100D02*
X372100D01*
X412000Y176300D02*
X372100D01*
X412000Y176500D02*
X372100D01*
X412000Y176700D02*
X372100D01*
X412000Y176900D02*
X372100D01*
X412000Y177100D02*
X372100D01*
X412000Y177300D02*
X372100D01*
X412000Y177500D02*
X372100D01*
X412000Y177700D02*
X372100D01*
X412000Y177900D02*
X372100D01*
X412000Y178100D02*
X372100D01*
X412000Y178300D02*
X372100D01*
X412000Y178500D02*
X372100D01*
X412000Y178700D02*
X372100D01*
X412000Y178900D02*
X372100D01*
X412000Y179100D02*
X372100D01*
X412000Y179300D02*
X372100D01*
G74*
X0Y0D02*
M02*
