*
*
G04 PADS VX.1.1 Build Number: 678707 generated Gerber (RS-274-X) file*
G04 PC Version=2.1*
*
%IN "3 Phase IDR (11-21-2015"*%
*
%MOIN*%
*
%FSLAX35Y35*%
*
*
*
*
G04 PC Standard Apertures*
*
*
G04 Thermal Relief Aperture macro.*
%AMTER*
1,1,$1,0,0*
1,0,$1-$2,0,0*
21,0,$3,$4,0,0,45*
21,0,$3,$4,0,0,135*
%
*
*
G04 Annular Aperture macro.*
%AMANN*
1,1,$1,0,0*
1,0,$2,0,0*
%
*
*
G04 Odd Aperture macro.*
%AMODD*
1,1,$1,0,0*
1,0,$1-0.005,0,0*
%
*
*
G04 PC Custom Aperture Macros*
*
*
*
*
*
*
G04 PC Aperture Table*
*
%ADD010C,0.001*%
%ADD023C,0.01*%
%ADD024C,0.012*%
%ADD025C,0.02*%
%ADD031C,0.008*%
%ADD032C,0.007*%
%ADD033C,0.006*%
*
*
*
*
G04 PC Circuitry*
G04 Layer Name 3 Phase IDR (11-21-2015 - circuitry*
%LPD*%
*
*
G04 PC Custom Flashes*
G04 Layer Name 3 Phase IDR (11-21-2015 - flashes*
%LPD*%
*
*
G04 PC Circuitry*
G04 Layer Name 3 Phase IDR (11-21-2015 - circuitry*
%LPD*%
*
G54D10*
G54D23*
G01X484500Y232307D02*
X487500D01*
X486000Y232807D02*
X484500Y235807D01*
X487500*
X486000Y232807*
X490000Y244000D02*
Y224000D01*
X482000*
Y244000*
X490000*
X320000Y317500D02*
Y318500D01*
X309000*
X306000Y315500*
Y297500*
X320000*
Y298500*
X273500Y313000D02*
X272500D01*
Y302000*
X275500Y299000*
X293500*
Y313000*
X292500*
X320000Y267500D02*
Y268500D01*
X309000*
X306000Y265500*
Y247500*
X320000*
Y248500*
X273500Y263000D02*
X272500D01*
Y252000*
X275500Y249000*
X293500*
Y263000*
X292500*
X320000Y215500D02*
Y216500D01*
X309000*
X306000Y213500*
Y195500*
X320000*
Y196500*
X273500Y212000D02*
X272500D01*
Y201000*
X275500Y198000*
X293500*
Y212000*
X292500*
X297000Y290500D02*
X294500D01*
Y285500*
X295500*
Y282000*
X294500*
Y277500*
X297000*
X305000D02*
X307500D01*
Y290500*
X305000*
X297000Y240500D02*
X294500D01*
Y235500*
X295500*
Y232000*
X294500*
Y227500*
X297000*
X305000D02*
X307500D01*
Y240500*
X305000*
X297000Y187500D02*
X294500D01*
Y182500*
X295500*
Y179000*
X294500*
Y174500*
X297000*
X305000D02*
X307500D01*
Y187500*
X305000*
X479563Y239500D02*
X473000D01*
X479563D02*
Y237909D01*
X479563D02*
X479250Y237227D01*
X478625Y236773*
X478000Y236545*
X477063Y236318*
X477063D02*
X475500D01*
X474563Y236545*
X474563D02*
X473938Y236773D01*
X473938D02*
X473313Y237227D01*
X473313D02*
X473000Y237909D01*
Y239500*
X478313Y234273D02*
X478625Y233818D01*
X479563Y233136*
X479563D02*
X473000D01*
X479563Y228818D02*
X475188Y231091D01*
X475188D02*
Y227682D01*
X479563Y228818D02*
X473000D01*
X110000Y317563D02*
Y311000D01*
Y317563D02*
X112955D01*
X110000Y314438D02*
X111818D01*
X110000Y311000D02*
X112955D01*
X115000Y316313D02*
X115455Y316625D01*
X116136Y317563*
X116136D02*
Y311000D01*
X484000Y342563D02*
Y336000D01*
Y342563D02*
X486955D01*
X484000Y339438D02*
X485818D01*
X484000Y336000D02*
X486955D01*
X489455Y342563D02*
X491955D01*
X491955D02*
X490591Y340063D01*
X490591D02*
X491273D01*
X491273D02*
X491727Y339750D01*
X491955Y339438*
X491955D02*
X492182Y338500D01*
Y337875*
X491955Y336938*
X491955D02*
X491500Y336313D01*
X491500D02*
X490818Y336000D01*
X490136*
X489455Y336313*
X489455D02*
X489227Y336625D01*
X489000Y337250*
X484000Y194563D02*
Y188000D01*
Y194563D02*
X486955D01*
X484000Y191438D02*
X485818D01*
X484000Y188000D02*
X486955D01*
X491273Y194563D02*
X489000Y190188D01*
X489000D02*
X492409D01*
X491273Y194563D02*
Y188000D01*
X110000Y233563D02*
Y227000D01*
Y233563D02*
X112955D01*
X110000Y230438D02*
X111818D01*
X110000Y227000D02*
X112955D01*
X117955Y233563D02*
X115682D01*
X115682D02*
X115455Y230750D01*
X115682Y231063*
X115682D02*
X116364Y231375D01*
X117045*
X117727Y231063*
X117727D02*
X118182Y230438D01*
X118182D02*
X118409Y229500D01*
X118182Y228875*
X117955Y227938*
X117955D02*
X117500Y227313D01*
X117500D02*
X116818Y227000D01*
X116136*
X115455Y227313*
X115455D02*
X115227Y227625D01*
X115000Y228250*
X110000Y154563D02*
Y148000D01*
Y154563D02*
X112955D01*
X110000Y151438D02*
X111818D01*
X110000Y148000D02*
X112955D01*
X117727Y153625D02*
X117500Y154250D01*
X116818Y154563*
X116818D02*
X116364D01*
X116364D02*
X115682Y154250D01*
X115227Y153313*
X115227D02*
X115000Y151750D01*
Y150188*
X115000D02*
X115227Y148938D01*
X115227D02*
X115682Y148313D01*
X115682D02*
X116364Y148000D01*
X116591*
X117273Y148313*
X117273D02*
X117727Y148938D01*
X117727D02*
X117955Y149875D01*
Y150188*
X117955D02*
X117727Y151125D01*
X117273Y151750*
X116591Y152063*
X116591D02*
X116364D01*
X116364D02*
X115682Y151750D01*
X115227Y151125*
X115000Y150188*
X145818Y309250D02*
Y305250D01*
X145636Y304500*
X145455Y304250*
X145091Y304000*
X144727*
X144364Y304250*
X144182Y304500*
X144000Y305250*
Y305750*
X147455Y308250D02*
X147818Y308500D01*
X148364Y309250*
Y304000*
X143818Y225250D02*
Y221250D01*
X143636Y220500*
X143455Y220250*
X143091Y220000*
X142727*
X142364Y220250*
X142182Y220500*
X142000Y221250*
Y221750*
X145636Y224000D02*
Y224250D01*
X145818Y224750*
X146000Y225000*
X146364Y225250*
X147091*
X147455Y225000*
X147636Y224750*
X147818Y224250*
Y223750*
X147636Y223250*
X147273Y222500*
X145455Y220000*
X148000*
X143818Y145250D02*
Y141250D01*
X143636Y140500*
X143455Y140250*
X143091Y140000*
X142727*
X142364Y140250*
X142182Y140500*
X142000Y141250*
Y141750*
X145818Y145250D02*
X147818D01*
X146727Y143250*
X147273*
X147636Y143000*
X147818Y142750*
X148000Y142000*
Y141500*
X147818Y140750*
X147455Y140250*
X146909Y140000*
X146364*
X145818Y140250*
X145636Y140500*
X145455Y141000*
X455818Y371250D02*
Y367250D01*
X455636Y366500*
X455455Y366250*
X455091Y366000*
X454727*
X454364Y366250*
X454182Y366500*
X454000Y367250*
Y367750*
X459273Y371250D02*
X457455Y367750D01*
X460182*
X459273Y371250D02*
Y366000D01*
X455818Y131250D02*
Y127250D01*
X455636Y126500*
X455455Y126250*
X455091Y126000*
X454727*
X454364Y126250*
X454182Y126500*
X454000Y127250*
Y127750*
X459818Y131250D02*
X458000D01*
X457818Y129000*
X458000Y129250*
X458545Y129500*
X459091*
X459636Y129250*
X460000Y128750*
X460182Y128000*
X460000Y127500*
X459818Y126750*
X459455Y126250*
X458909Y126000*
X458364*
X457818Y126250*
X457636Y126500*
X457455Y127000*
X457818Y277250D02*
Y273250D01*
X457636Y272500*
X457455Y272250*
X457091Y272000*
X456727*
X456364Y272250*
X456182Y272500*
X456000Y273250*
Y273750*
X461636Y276500D02*
X461455Y277000D01*
X460909Y277250*
X460545*
X460000Y277000*
X459636Y276250*
X459455Y275000*
Y273750*
X459636Y272750*
X460000Y272250*
X460545Y272000*
X460727*
X461273Y272250*
X461636Y272750*
X461818Y273500*
Y273750*
X461636Y274500*
X461273Y275000*
X460727Y275250*
X460545*
X460000Y275000*
X459636Y274500*
X459455Y273750*
X455818Y231250D02*
Y227250D01*
X455636Y226500*
X455455Y226250*
X455091Y226000*
X454727*
X454364Y226250*
X454182Y226500*
X454000Y227250*
Y227750*
X460000Y231250D02*
X458182Y226000D01*
X457455Y231250D02*
X460000D01*
X476563Y267500D02*
X470000D01*
X476563D02*
Y265455D01*
X476563D02*
X476250Y264773D01*
X475938Y264545*
X475938D02*
X475313Y264318D01*
X475313D02*
X474688D01*
X474688D02*
X474063Y264545D01*
X474063D02*
X473750Y264773D01*
X473438Y265455*
X473438D02*
Y267500D01*
Y265909D02*
X470000Y264318D01*
X475313Y262273D02*
X475625Y261818D01*
X476563Y261136*
X476563D02*
X470000D01*
X476563Y257727D02*
X476250Y258409D01*
X475313Y258864*
X475313D02*
X473750Y259091D01*
X472813*
X472813D02*
X471250Y258864D01*
X470313Y258409*
X470313D02*
X470000Y257727D01*
Y257273*
X470313Y256591*
X470313D02*
X471250Y256136D01*
X472813Y255909*
X472813D02*
X473750D01*
X475313Y256136*
X475313D02*
X476250Y256591D01*
X476563Y257273*
X476563D02*
Y257727D01*
X252000Y388563D02*
Y382000D01*
X254727*
X258364Y388563D02*
Y382000D01*
X256773Y388563D02*
X259955D01*
X264273D02*
X262000Y384188D01*
X262000D02*
X265409D01*
X264273Y388563D02*
Y382000D01*
X267909Y388563D02*
X270409D01*
X270409D02*
X269045Y386063D01*
X269045D02*
X269727D01*
X269727D02*
X270182Y385750D01*
X270409Y385438*
X270409D02*
X270636Y384500D01*
Y383875*
X270409Y382938*
X270409D02*
X269955Y382313D01*
X269955D02*
X269273Y382000D01*
X268591*
X267909Y382313*
X267909D02*
X267682Y382625D01*
X267455Y383250*
X272909Y387000D02*
Y387313D01*
X272909D02*
X273136Y387938D01*
X273136D02*
X273364Y388250D01*
X273818Y388563*
X273818D02*
X274727D01*
X274727D02*
X275182Y388250D01*
X275409Y387938*
X275409D02*
X275636Y387313D01*
X275636D02*
Y386688D01*
X275636D02*
X275409Y386063D01*
X275409D02*
X274955Y385125D01*
X272682Y382000*
X275864*
X279273Y388563D02*
X278591Y388250D01*
X278136Y387313*
X278136D02*
X277909Y385750D01*
Y384813*
X277909D02*
X278136Y383250D01*
X278591Y382313*
X278591D02*
X279273Y382000D01*
X279727*
X280409Y382313*
X280409D02*
X280864Y383250D01*
X281091Y384813*
X281091D02*
Y385750D01*
X280864Y387313*
X280864D02*
X280409Y388250D01*
X279727Y388563*
X279727D02*
X279273D01*
X283136Y384813D02*
X287227D01*
X289273Y387313D02*
X289727Y387625D01*
X290409Y388563*
X290409D02*
Y382000D01*
X252455Y379063D02*
X254955D01*
X254955D02*
X253591Y376563D01*
X253591D02*
X254273D01*
X254273D02*
X254727Y376250D01*
X254955Y375938*
X254955D02*
X255182Y375000D01*
Y374375*
X254955Y373438*
X254955D02*
X254500Y372813D01*
X254500D02*
X253818Y372500D01*
X253136*
X252455Y372813*
X252455D02*
X252227Y373125D01*
X252000Y373750*
X262455Y379063D02*
Y372500D01*
Y379063D02*
X264500D01*
X264500D02*
X265182Y378750D01*
X265409Y378438*
X265409D02*
X265636Y377813D01*
X265636D02*
Y376875D01*
X265409Y376250*
X265182Y375938*
X265182D02*
X264500Y375625D01*
X262455*
X267682Y379063D02*
Y372500D01*
X270864Y379063D02*
Y372500D01*
X267682Y375938D02*
X270864D01*
X274727Y379063D02*
X272909Y372500D01*
X274727Y379063D02*
X276545Y372500D01*
X273591Y374688D02*
X275864D01*
X281773Y378125D02*
X281318Y378750D01*
X280636Y379063*
X280636D02*
X279727D01*
X279727D02*
X279045Y378750D01*
X278591Y378125*
Y377500*
X278818Y376875*
X279045Y376563*
X279045D02*
X279500Y376250D01*
X280864Y375625*
X281318Y375313*
X281318D02*
X281545Y375000D01*
X281773Y374375*
Y373438*
X281773D02*
X281318Y372813D01*
X281318D02*
X280636Y372500D01*
X279727*
X279045Y372813*
X279045D02*
X278591Y373438D01*
X283818Y379063D02*
Y372500D01*
Y379063D02*
X286773D01*
X283818Y375938D02*
X285636D01*
X283818Y372500D02*
X286773D01*
X294045Y379063D02*
Y372500D01*
X296091Y379063D02*
Y372500D01*
Y379063D02*
X297682D01*
X297682D02*
X298364Y378750D01*
X298818Y378125*
X299045Y377500*
X299273Y376563*
X299273D02*
Y375000D01*
X299045Y374063*
X299045D02*
X298818Y373438D01*
X298818D02*
X298364Y372813D01*
X298364D02*
X297682Y372500D01*
X296091*
X301318Y379063D02*
Y372500D01*
Y379063D02*
X304273D01*
X301318Y375938D02*
X303136D01*
X301318Y372500D02*
X304273D01*
X308136Y379063D02*
X306318Y372500D01*
X308136Y379063D02*
X309955Y372500D01*
X307000Y374688D02*
X309273D01*
X312000Y379063D02*
Y372500D01*
X314727*
X322000Y379063D02*
Y372500D01*
Y379063D02*
X323591D01*
X323591D02*
X324273Y378750D01*
X324727Y378125*
X324955Y377500*
X325182Y376563*
X325182D02*
Y375000D01*
X324955Y374063*
X324955D02*
X324727Y373438D01*
X324727D02*
X324273Y372813D01*
X324273D02*
X323591Y372500D01*
X322000*
X327227Y379063D02*
Y372500D01*
X330636Y379063D02*
X330182Y378750D01*
X329727Y378125*
X329500Y377500*
X329273Y376563*
X329273D02*
Y375000D01*
X329500Y374063*
X329500D02*
X329727Y373438D01*
X329727D02*
X330182Y372813D01*
X330182D02*
X330636Y372500D01*
X331545*
X332000Y372813*
X332000D02*
X332455Y373438D01*
X332455D02*
X332682Y374063D01*
X332682D02*
X332909Y375000D01*
Y376563*
X332909D02*
X332682Y377500D01*
X332455Y378125*
X332000Y378750*
X331545Y379063*
X331545D02*
X330636D01*
X334955D02*
Y372500D01*
Y379063D02*
X336545D01*
X336545D02*
X337227Y378750D01*
X337682Y378125*
X337909Y377500*
X338136Y376563*
X338136D02*
Y375000D01*
X337909Y374063*
X337909D02*
X337682Y373438D01*
X337682D02*
X337227Y372813D01*
X337227D02*
X336545Y372500D01*
X334955*
X340182Y379063D02*
Y372500D01*
Y379063D02*
X343136D01*
X340182Y375938D02*
X342000D01*
X340182Y372500D02*
X343136D01*
X350409Y379063D02*
Y372500D01*
Y379063D02*
X352455D01*
X352455D02*
X353136Y378750D01*
X353364Y378438*
X353364D02*
X353591Y377813D01*
X353591D02*
Y377188D01*
X353591D02*
X353364Y376563D01*
X353364D02*
X353136Y376250D01*
X352455Y375938*
X350409D02*
X352455D01*
X352455D02*
X353136Y375625D01*
X353364Y375313*
X353364D02*
X353591Y374688D01*
X353591D02*
Y373750D01*
X353364Y373125*
X353136Y372813*
X353136D02*
X352455Y372500D01*
X350409*
X355636Y379063D02*
Y372500D01*
Y379063D02*
X357682D01*
X357682D02*
X358364Y378750D01*
X358591Y378438*
X358591D02*
X358818Y377813D01*
X358818D02*
Y377188D01*
X358818D02*
X358591Y376563D01*
X358591D02*
X358364Y376250D01*
X357682Y375938*
X357682D02*
X355636D01*
X357227D02*
X358818Y372500D01*
X360864Y379063D02*
Y372500D01*
X362909Y379063D02*
Y372500D01*
Y379063D02*
X364500D01*
X364500D02*
X365182Y378750D01*
X365636Y378125*
X365864Y377500*
X366091Y376563*
X366091D02*
Y375000D01*
X365864Y374063*
X365864D02*
X365636Y373438D01*
X365636D02*
X365182Y372813D01*
X365182D02*
X364500Y372500D01*
X362909*
X371545Y377500D02*
X371318Y378125D01*
X370864Y378750*
X370409Y379063*
X370409D02*
X369500D01*
X369500D02*
X369045Y378750D01*
X368591Y378125*
X368364Y377500*
X368136Y376563*
X368136D02*
Y375000D01*
X368364Y374063*
X368364D02*
X368591Y373438D01*
X368591D02*
X369045Y372813D01*
X369045D02*
X369500Y372500D01*
X370409*
X370864Y372813*
X370864D02*
X371318Y373438D01*
X371318D02*
X371545Y374063D01*
X371545D02*
Y375000D01*
X370409D02*
X371545D01*
X373591Y379063D02*
Y372500D01*
Y379063D02*
X376545D01*
X373591Y375938D02*
X375409D01*
X373591Y372500D02*
X376545D01*
X252000Y370063D02*
Y363500D01*
Y370063D02*
X253591D01*
X253591D02*
X254273Y369750D01*
X254727Y369125*
X254955Y368500*
X255182Y367563*
X255182D02*
Y366000D01*
X254955Y365063*
X254955D02*
X254727Y364438D01*
X254727D02*
X254273Y363813D01*
X254273D02*
X253591Y363500D01*
X252000*
X257227Y370063D02*
Y363500D01*
Y370063D02*
X260182D01*
X257227Y366938D02*
X259045D01*
X257227Y363500D02*
X260182D01*
X262227Y370063D02*
Y363500D01*
Y370063D02*
X264045Y363500D01*
X265864Y370063D02*
X264045Y363500D01*
X265864Y370063D02*
Y363500D01*
X269273Y370063D02*
X268818Y369750D01*
X268364Y369125*
X268136Y368500*
X267909Y367563*
X267909D02*
Y366000D01*
X268136Y365063*
X268136D02*
X268364Y364438D01*
X268364D02*
X268818Y363813D01*
X268818D02*
X269273Y363500D01*
X270182*
X270636Y363813*
X270636D02*
X271091Y364438D01*
X271091D02*
X271318Y365063D01*
X271318D02*
X271545Y366000D01*
Y367563*
X271545D02*
X271318Y368500D01*
X271091Y369125*
X270636Y369750*
X270182Y370063*
X270182D02*
X269273D01*
X282227Y368500D02*
X282000Y369125D01*
X281545Y369750*
X281091Y370063*
X281091D02*
X280182D01*
X280182D02*
X279727Y369750D01*
X279273Y369125*
X279045Y368500*
X278818Y367563*
X278818D02*
Y366000D01*
X279045Y365063*
X279045D02*
X279273Y364438D01*
X279273D02*
X279727Y363813D01*
X279727D02*
X280182Y363500D01*
X281091*
X281545Y363813*
X281545D02*
X282000Y364438D01*
X282000D02*
X282227Y365063D01*
X284273Y370063D02*
Y363500D01*
X286318Y370063D02*
Y363500D01*
Y370063D02*
X288364D01*
X288364D02*
X289045Y369750D01*
X289273Y369438*
X289273D02*
X289500Y368813D01*
X289500D02*
Y368188D01*
X289500D02*
X289273Y367563D01*
X289273D02*
X289045Y367250D01*
X288364Y366938*
X288364D02*
X286318D01*
X287909D02*
X289500Y363500D01*
X294955Y368500D02*
X294727Y369125D01*
X294273Y369750*
X293818Y370063*
X293818D02*
X292909D01*
X292909D02*
X292455Y369750D01*
X292000Y369125*
X291773Y368500*
X291545Y367563*
X291545D02*
Y366000D01*
X291773Y365063*
X291773D02*
X292000Y364438D01*
X292000D02*
X292455Y363813D01*
X292455D02*
X292909Y363500D01*
X293818*
X294273Y363813*
X294273D02*
X294727Y364438D01*
X294727D02*
X294955Y365063D01*
X297000Y370063D02*
Y365375D01*
X297227Y364438*
X297227D02*
X297682Y363813D01*
X297682D02*
X298364Y363500D01*
X298818*
X299500Y363813*
X299500D02*
X299955Y364438D01*
X299955D02*
X300182Y365375D01*
Y370063*
X302227D02*
Y363500D01*
X305864Y370063D02*
Y363500D01*
X304273Y370063D02*
X307455D01*
X314955Y368500D02*
Y368813D01*
X314955D02*
X315182Y369438D01*
X315182D02*
X315409Y369750D01*
X315864Y370063*
X315864D02*
X316773D01*
X316773D02*
X317227Y369750D01*
X317455Y369438*
X317455D02*
X317682Y368813D01*
X317682D02*
Y368188D01*
X317682D02*
X317455Y367563D01*
X317455D02*
X317000Y366625D01*
X314727Y363500*
X317909*
X322227Y370063D02*
X319955Y365688D01*
X319955D02*
X323364D01*
X322227Y370063D02*
Y363500D01*
X328136Y369125D02*
X327909Y369750D01*
X327227Y370063*
X327227D02*
X326773D01*
X326773D02*
X326091Y369750D01*
X325636Y368813*
X325636D02*
X325409Y367250D01*
Y365688*
X325409D02*
X325636Y364438D01*
X325636D02*
X326091Y363813D01*
X326091D02*
X326773Y363500D01*
X327000*
X327682Y363813*
X327682D02*
X328136Y364438D01*
X328136D02*
X328364Y365375D01*
Y365688*
X328364D02*
X328136Y366625D01*
X327682Y367250*
X327000Y367563*
X327000D02*
X326773D01*
X326773D02*
X326091Y367250D01*
X325636Y366625*
X325409Y365688*
X333364Y370063D02*
X331091D01*
X331091D02*
X330864Y367250D01*
X331091Y367563*
X331091D02*
X331773Y367875D01*
X332455*
X333136Y367563*
X333136D02*
X333591Y366938D01*
X333591D02*
X333818Y366000D01*
X333591Y365375*
X333364Y364438*
X333364D02*
X332909Y363813D01*
X332909D02*
X332227Y363500D01*
X331545*
X330864Y363813*
X330864D02*
X330636Y364125D01*
X330409Y364750*
X337682Y370063D02*
X335864Y363500D01*
X337682Y370063D02*
X339500Y363500D01*
X336545Y365688D02*
X338818D01*
X116000Y356563D02*
X117818Y350000D01*
X119636Y356563D02*
X117818Y350000D01*
X121682Y356563D02*
Y350000D01*
X123727Y356563D02*
Y350000D01*
Y356563D02*
X126909Y350000D01*
Y356563D02*
Y350000D01*
X128955Y355313D02*
X129409Y355625D01*
X130091Y356563*
X130091D02*
Y350000D01*
X116000Y274563D02*
X117818Y268000D01*
X119636Y274563D02*
X117818Y268000D01*
X121682Y274563D02*
Y268000D01*
X123727Y274563D02*
Y268000D01*
Y274563D02*
X126909Y268000D01*
Y274563D02*
Y268000D01*
X129182Y273000D02*
Y273313D01*
X129182D02*
X129409Y273938D01*
X129409D02*
X129636Y274250D01*
X130091Y274563*
X130091D02*
X131000D01*
X131000D02*
X131455Y274250D01*
X131682Y273938*
X131682D02*
X131909Y273313D01*
X131909D02*
Y272688D01*
X131909D02*
X131682Y272063D01*
X131682D02*
X131227Y271125D01*
X128955Y268000*
X132136*
X116000Y194563D02*
X117818Y188000D01*
X119636Y194563D02*
X117818Y188000D01*
X121682Y194563D02*
Y188000D01*
X123727Y194563D02*
Y188000D01*
Y194563D02*
X126909Y188000D01*
Y194563D02*
Y188000D01*
X129409Y194563D02*
X131909D01*
X131909D02*
X130545Y192063D01*
X130545D02*
X131227D01*
X131227D02*
X131682Y191750D01*
X131909Y191438*
X131909D02*
X132136Y190500D01*
Y189875*
X131909Y188938*
X131909D02*
X131455Y188313D01*
X131455D02*
X130773Y188000D01*
X130091*
X129409Y188313*
X129409D02*
X129182Y188625D01*
X128955Y189250*
X426000Y324563D02*
X427818Y318000D01*
X429636Y324563D02*
X427818Y318000D01*
X433045Y324563D02*
X432591Y324250D01*
X432136Y323625*
X431909Y323000*
X431682Y322063*
X431682D02*
Y320500D01*
X431909Y319563*
X431909D02*
X432136Y318938D01*
X432136D02*
X432591Y318313D01*
X432591D02*
X433045Y318000D01*
X433955*
X434409Y318313*
X434409D02*
X434864Y318938D01*
X434864D02*
X435091Y319563D01*
X435091D02*
X435318Y320500D01*
Y322063*
X435318D02*
X435091Y323000D01*
X434864Y323625*
X434409Y324250*
X433955Y324563*
X433955D02*
X433045D01*
X437364D02*
Y319875D01*
X437591Y318938*
X437591D02*
X438045Y318313D01*
X438045D02*
X438727Y318000D01*
X439182*
X439864Y318313*
X439864D02*
X440318Y318938D01*
X440318D02*
X440545Y319875D01*
Y324563*
X444182D02*
Y318000D01*
X442591Y324563D02*
X445773D01*
X449864Y323625D02*
Y318000D01*
X447818Y320813D02*
X451909D01*
X425500Y179063D02*
X427318Y172500D01*
X429136Y179063D02*
X427318Y172500D01*
X432545Y179063D02*
X432091Y178750D01*
X431636Y178125*
X431409Y177500*
X431182Y176563*
X431182D02*
Y175000D01*
X431409Y174063*
X431409D02*
X431636Y173438D01*
X431636D02*
X432091Y172813D01*
X432091D02*
X432545Y172500D01*
X433455*
X433909Y172813*
X433909D02*
X434364Y173438D01*
X434364D02*
X434591Y174063D01*
X434591D02*
X434818Y175000D01*
Y176563*
X434818D02*
X434591Y177500D01*
X434364Y178125*
X433909Y178750*
X433455Y179063*
X433455D02*
X432545D01*
X436864D02*
Y174375D01*
X437091Y173438*
X437091D02*
X437545Y172813D01*
X437545D02*
X438227Y172500D01*
X438682*
X439364Y172813*
X439364D02*
X439818Y173438D01*
X439818D02*
X440045Y174375D01*
Y179063*
X443682D02*
Y172500D01*
X442091Y179063D02*
X445273D01*
X447318Y175313D02*
X451409D01*
X100000Y400000D02*
X500000D01*
Y100000*
X100000*
Y400000*
G54D24*
X123055Y330000D02*
G75*
G03X123055I-9055J0D01*
G01X497055Y324000D02*
G03X497055I-9055J0D01*
G01Y176000D02*
G03X497055I-9055J0D01*
G01X123055Y246000D02*
G03X123055I-9055J0D01*
G01Y166000D02*
G03X123055I-9055J0D01*
G01X298500Y274000D02*
G03X298500I-500J0D01*
G01Y224000D02*
G03X298500I-500J0D01*
G01Y171000D02*
G03X298500I-500J0D01*
G54D25*
G01X489000Y221000D02*
X483000D01*
X297207Y315500D02*
G03X297207I-707J0D01*
G01X276207Y289500D02*
G03X276207I-707J0D01*
G01X297207Y265500D02*
G03X297207I-707J0D01*
G01X276207Y239500D02*
G03X276207I-707J0D01*
G01X297207Y213500D02*
G03X297207I-707J0D01*
G01X276207Y188500D02*
G03X276207I-707J0D01*
G54D31*
G01X314650Y285000D02*
Y283000D01*
X309350Y285000D02*
Y283000D01*
X314650Y235000D02*
Y233000D01*
X309350Y235000D02*
Y233000D01*
X314650Y182000D02*
Y180000D01*
X309350Y182000D02*
Y180000D01*
X118000Y385938D02*
X119909Y382000D01*
Y385938D02*
X118000Y382000D01*
X121136Y385188D02*
X121409Y385375D01*
X121818Y385938*
X121818D02*
Y382000D01*
X482000Y385938D02*
X483909Y382000D01*
Y385938D02*
X482000Y382000D01*
X485273Y385000D02*
Y385188D01*
X485273D02*
X485409Y385563D01*
X485409D02*
X485545Y385750D01*
X485818Y385938*
X485818D02*
X486364D01*
X486364D02*
X486636Y385750D01*
X486773Y385563*
X486773D02*
X486909Y385188D01*
X486909D02*
Y384813D01*
X486909D02*
X486773Y384438D01*
X486773D02*
X486500Y383875D01*
X485136Y382000*
X487045*
X118000Y121938D02*
X119909Y118000D01*
Y121938D02*
X118000Y118000D01*
X121409Y121938D02*
X122909D01*
X122909D02*
X122091Y120438D01*
X122091D02*
X122500D01*
X122500D02*
X122773Y120250D01*
X122909Y120063*
X122909D02*
X123045Y119500D01*
Y119125*
X122909Y118563*
X122909D02*
X122636Y118188D01*
X122636D02*
X122227Y118000D01*
X121818*
X121409Y118188*
X121409D02*
X121273Y118375D01*
X121136Y118750*
X482000Y121938D02*
X483909Y118000D01*
Y121938D02*
X482000Y118000D01*
X486500Y121938D02*
X485136Y119313D01*
X485136D02*
X487182D01*
X486500Y121938D02*
Y118000D01*
X148364Y124250D02*
X146545D01*
X146364Y122000*
X146545Y122250*
X147091Y122500*
X147636*
X148182Y122250*
X148545Y121750*
X148727Y121000*
X148545Y120500*
X148364Y119750*
X148000Y119250*
X147455Y119000*
X146909*
X146364Y119250*
X146182Y119500*
X146000Y120000*
X150364Y124250D02*
X151818Y119000D01*
X153273Y124250D02*
X151818Y119000D01*
X154909Y121250D02*
X158182D01*
X160000Y123000D02*
Y123250D01*
X160182Y123750*
X160364Y124000*
X160727Y124250*
X161455*
X161818Y124000*
X162000Y123750*
X162182Y123250*
Y122750*
X162000Y122250*
X161636Y121500*
X159818Y119000*
X162364*
X164909Y124250D02*
X164364Y124000D01*
X164182Y123500*
Y123000*
X164364Y122500*
X164727Y122250*
X165455Y122000*
X166000Y121750*
X166364Y121250*
X166545Y120750*
Y120000*
X166364Y119500*
X166182Y119250*
X165636Y119000*
X164909*
X164364Y119250*
X164182Y119500*
X164000Y120000*
Y120750*
X164182Y121250*
X164545Y121750*
X165091Y122000*
X165818Y122250*
X166182Y122500*
X166364Y123000*
Y123500*
X166182Y124000*
X165636Y124250*
X164909*
X168182D02*
X169636Y119000D01*
X171091Y124250D02*
X169636Y119000D01*
X174182Y124250D02*
X172727Y119000D01*
X174182Y124250D02*
X175636Y119000D01*
X173273Y120750D02*
X175091D01*
X180000Y123000D02*
X179818Y123500D01*
X179455Y124000*
X179091Y124250*
X178364*
X178000Y124000*
X177636Y123500*
X177455Y123000*
X177273Y122250*
Y121000*
X177455Y120250*
X177636Y119750*
X178000Y119250*
X178364Y119000*
X179091*
X179455Y119250*
X179818Y119750*
X180000Y120250*
X185818Y124250D02*
Y119000D01*
Y124250D02*
X187455D01*
X188000Y124000*
X188182Y123750*
X188364Y123250*
Y122750*
X188182Y122250*
X188000Y122000*
X187455Y121750*
X185818*
X187091D02*
X188364Y119000D01*
X190000Y124250D02*
Y119000D01*
Y124250D02*
X191455Y119000D01*
X192909Y124250D02*
X191455Y119000D01*
X192909Y124250D02*
Y119000D01*
X197091Y123500D02*
X196727Y124000D01*
X196182Y124250*
X195455*
X194909Y124000*
X194545Y123500*
Y123000*
X194727Y122500*
X194909Y122250*
X195273Y122000*
X196364Y121500*
X196727Y121250*
X196909Y121000*
X197091Y120500*
Y119750*
X196727Y119250*
X196182Y119000*
X195455*
X194909Y119250*
X194545Y119750*
X204182Y125250D02*
X203818Y124750D01*
X203455Y124000*
X203091Y123000*
X202909Y121750*
Y120750*
X203091Y119500*
X203455Y118500*
X203818Y117750*
X204182Y117250*
X205818Y124250D02*
Y119000D01*
X208000*
X209636Y124250D02*
Y119000D01*
X211273Y124250D02*
Y119000D01*
Y124250D02*
X213818Y119000D01*
Y124250D02*
Y119000D01*
X215455Y124250D02*
Y119000D01*
Y124250D02*
X217818D01*
X215455Y121750D02*
X216909D01*
X215455Y119000D02*
X217818D01*
X224909Y124250D02*
Y119000D01*
X223636Y124250D02*
X226182D01*
X228909D02*
X228545Y124000D01*
X228182Y123500*
X228000Y123000*
X227818Y122250*
Y121000*
X228000Y120250*
X228182Y119750*
X228545Y119250*
X228909Y119000*
X229636*
X230000Y119250*
X230364Y119750*
X230545Y120250*
X230727Y121000*
Y122250*
X230545Y123000*
X230364Y123500*
X230000Y124000*
X229636Y124250*
X228909*
X236545D02*
Y119000D01*
Y124250D02*
X239091Y119000D01*
Y124250D02*
Y119000D01*
X240727Y124250D02*
Y119000D01*
Y124250D02*
X243091D01*
X240727Y121750D02*
X242182D01*
X240727Y119000D02*
X243091D01*
X244727Y124250D02*
Y120500D01*
X244909Y119750*
X245273Y119250*
X245818Y119000*
X246182*
X246727Y119250*
X247091Y119750*
X247273Y120500*
Y124250*
X250182D02*
Y119000D01*
X248909Y124250D02*
X251455D01*
X253091D02*
Y119000D01*
Y124250D02*
X254727D01*
X255273Y124000*
X255455Y123750*
X255636Y123250*
Y122750*
X255455Y122250*
X255273Y122000*
X254727Y121750*
X253091*
X254364D02*
X255636Y119000D01*
X258727Y124250D02*
X257273Y119000D01*
X258727Y124250D02*
X260182Y119000D01*
X257818Y120750D02*
X259636D01*
X261818Y124250D02*
Y119000D01*
X264000*
X265636Y125250D02*
X266000Y124750D01*
X266364Y124000*
X266727Y123000*
X266909Y121750*
Y120750*
X266727Y119500*
X266364Y118500*
X266000Y117750*
X265636Y117250*
X146364Y132250D02*
X148364D01*
X147273Y130250*
X147818*
X148182Y130000*
X148364Y129750*
X148545Y129000*
Y128500*
X148364Y127750*
X148000Y127250*
X147455Y127000*
X146909*
X146364Y127250*
X146182Y127500*
X146000Y128000*
X154364Y132250D02*
Y127000D01*
Y132250D02*
X156000D01*
X156545Y132000*
X156727Y131750*
X156909Y131250*
Y130500*
X156727Y130000*
X156545Y129750*
X156000Y129500*
X154364*
X158545Y132250D02*
Y127000D01*
X161091Y132250D02*
Y127000D01*
X158545Y129750D02*
X161091D01*
X164182Y132250D02*
X162727Y127000D01*
X164182Y132250D02*
X165636Y127000D01*
X163273Y128750D02*
X165091D01*
X169818Y131500D02*
X169455Y132000D01*
X168909Y132250*
X168182*
X167636Y132000*
X167273Y131500*
Y131000*
X167455Y130500*
X167636Y130250*
X168000Y130000*
X169091Y129500*
X169455Y129250*
X169636Y129000*
X169818Y128500*
Y127750*
X169455Y127250*
X168909Y127000*
X168182*
X167636Y127250*
X167273Y127750*
X171455Y132250D02*
Y127000D01*
Y132250D02*
X173818D01*
X171455Y129750D02*
X172909D01*
X171455Y127000D02*
X173818D01*
X179636Y132250D02*
Y127000D01*
X181273Y132250D02*
Y127000D01*
Y132250D02*
X183818Y127000D01*
Y132250D02*
Y127000D01*
X185455Y132250D02*
Y127000D01*
Y132250D02*
X187091D01*
X187636Y132000*
X187818Y131750*
X188000Y131250*
Y130500*
X187818Y130000*
X187636Y129750*
X187091Y129500*
X185455*
X189636Y132250D02*
Y128500D01*
X189818Y127750*
X190182Y127250*
X190727Y127000*
X191091*
X191636Y127250*
X192000Y127750*
X192182Y128500*
Y132250*
X195091D02*
Y127000D01*
X193818Y132250D02*
X196364D01*
X202182D02*
X203636Y127000D01*
X205091Y132250D02*
X203636Y127000D01*
X207818Y132250D02*
X207455Y132000D01*
X207091Y131500*
X206909Y131000*
X206727Y130250*
Y129000*
X206909Y128250*
X207091Y127750*
X207455Y127250*
X207818Y127000*
X208545*
X208909Y127250*
X209273Y127750*
X209455Y128250*
X209636Y129000*
Y130250*
X209455Y131000*
X209273Y131500*
X208909Y132000*
X208545Y132250*
X207818*
X211273D02*
Y127000D01*
X213455*
X216364Y132250D02*
Y127000D01*
X215091Y132250D02*
X217636D01*
X220727D02*
X219273Y127000D01*
X220727Y132250D02*
X222182Y127000D01*
X219818Y128750D02*
X221636D01*
X226545Y131000D02*
X226364Y131500D01*
X226000Y132000*
X225636Y132250*
X224909*
X224545Y132000*
X224182Y131500*
X224000Y131000*
X223818Y130250*
Y129000*
X224000Y128250*
X224182Y127750*
X224545Y127250*
X224909Y127000*
X225636*
X226000Y127250*
X226364Y127750*
X226545Y128250*
Y129000*
X225636D02*
X226545D01*
X228182Y132250D02*
Y127000D01*
Y132250D02*
X230545D01*
X228182Y129750D02*
X229636D01*
X228182Y127000D02*
X230545D01*
X236364Y132250D02*
Y127000D01*
Y132250D02*
X238000D01*
X238545Y132000*
X238727Y131750*
X238909Y131250*
Y130750*
X238727Y130250*
X238545Y130000*
X238000Y129750*
X236364*
X237636D02*
X238909Y127000D01*
X242000Y132250D02*
X240545Y127000D01*
X242000Y132250D02*
X243455Y127000D01*
X241091Y128750D02*
X242909D01*
X245091Y132250D02*
Y127000D01*
Y132250D02*
X247636Y127000D01*
Y132250D02*
Y127000D01*
X252000Y131000D02*
X251818Y131500D01*
X251455Y132000*
X251091Y132250*
X250364*
X250000Y132000*
X249636Y131500*
X249455Y131000*
X249273Y130250*
Y129000*
X249455Y128250*
X249636Y127750*
X250000Y127250*
X250364Y127000*
X251091*
X251455Y127250*
X251818Y127750*
X252000Y128250*
Y129000*
X251091D02*
X252000D01*
X253636Y132250D02*
Y127000D01*
Y132250D02*
X256000D01*
X253636Y129750D02*
X255091D01*
X253636Y127000D02*
X256000D01*
X257818Y130500D02*
X257636Y130250D01*
X257818Y130000*
X258000Y130250*
X257818Y130500*
Y127500D02*
X257636Y127250D01*
X257818Y127000*
X258000Y127250*
X257818Y127500*
X410091Y257750D02*
X409727Y257500D01*
X409364Y257000*
X409182Y256500*
X409000Y255750*
Y254500*
X409182Y253750*
X409364Y253250*
X409727Y252750*
X410091Y252500*
X410818*
X411182Y252750*
X411545Y253250*
X411727Y253750*
X411909Y254500*
Y255750*
X411727Y256500*
X411545Y257000*
X411182Y257500*
X410818Y257750*
X410091*
X413545D02*
Y254000D01*
X413727Y253250*
X414091Y252750*
X414636Y252500*
X415000*
X415545Y252750*
X415909Y253250*
X416091Y254000*
Y257750*
X419000D02*
Y252500D01*
X417727Y257750D02*
X420273D01*
X421909D02*
Y252500D01*
Y257750D02*
X423545D01*
X424091Y257500*
X424273Y257250*
X424455Y256750*
Y256000*
X424273Y255500*
X424091Y255250*
X423545Y255000*
X421909*
X426091Y257750D02*
Y254000D01*
X426273Y253250*
X426636Y252750*
X427182Y252500*
X427545*
X428091Y252750*
X428455Y253250*
X428636Y254000*
Y257750*
X431545D02*
Y252500D01*
X430273Y257750D02*
X432818D01*
X441364Y256500D02*
X441182Y257000D01*
X440818Y257500*
X440455Y257750*
X439727*
X439364Y257500*
X439000Y257000*
X438818Y256500*
X438636Y255750*
Y254500*
X438818Y253750*
X439000Y253250*
X439364Y252750*
X439727Y252500*
X440455*
X440818Y252750*
X441182Y253250*
X441364Y253750*
X443000Y257750D02*
Y254000D01*
X443182Y253250*
X443545Y252750*
X444091Y252500*
X444455*
X445000Y252750*
X445364Y253250*
X445545Y254000*
Y257750*
X447182D02*
Y252500D01*
Y257750D02*
X448818D01*
X449364Y257500*
X449545Y257250*
X449727Y256750*
Y256250*
X449545Y255750*
X449364Y255500*
X448818Y255250*
X447182*
X448455D02*
X449727Y252500D01*
X451364Y257750D02*
Y252500D01*
Y257750D02*
X453000D01*
X453545Y257500*
X453727Y257250*
X453909Y256750*
Y256250*
X453727Y255750*
X453545Y255500*
X453000Y255250*
X451364*
X452636D02*
X453909Y252500D01*
X455545Y257750D02*
Y252500D01*
Y257750D02*
X457909D01*
X455545Y255250D02*
X457000D01*
X455545Y252500D02*
X457909D01*
X459545Y257750D02*
Y252500D01*
Y257750D02*
X462091Y252500D01*
Y257750D02*
Y252500D01*
X465000Y257750D02*
Y252500D01*
X463727Y257750D02*
X466273D01*
X409182Y249500D02*
Y249750D01*
X409364Y250250*
X409545Y250500*
X409909Y250750*
X410636*
X411000Y250500*
X411182Y250250*
X411364Y249750*
Y249250*
X411182Y248750*
X410818Y248000*
X409000Y245500*
X411545*
X415545Y250750D02*
X413727D01*
X413545Y248500*
X413727Y248750*
X414273Y249000*
X414818*
X415364Y248750*
X415727Y248250*
X415909Y247500*
X415727Y247000*
X415545Y246250*
X415182Y245750*
X414636Y245500*
X414091*
X413545Y245750*
X413364Y246000*
X413182Y246500*
X419000Y250750D02*
X417545Y245500D01*
X419000Y250750D02*
X420455Y245500D01*
X418091Y247250D02*
X419909D01*
X426273Y250750D02*
Y245500D01*
Y250750D02*
X427727Y245500D01*
X429182Y250750D02*
X427727Y245500D01*
X429182Y250750D02*
Y245500D01*
X432273Y250750D02*
X430818Y245500D01*
X432273Y250750D02*
X433727Y245500D01*
X431364Y247250D02*
X433182D01*
X435364Y250750D02*
X437909Y245500D01*
Y250750D02*
X435364Y245500D01*
X405000Y114063D02*
X405636Y111000D01*
X406273Y114063D02*
X405636Y111000D01*
X406273Y114063D02*
X406909Y111000D01*
X407545Y114063D02*
X406909Y111000D01*
X408977Y114063D02*
X409614Y111000D01*
X410250Y114063D02*
X409614Y111000D01*
X410250Y114063D02*
X410886Y111000D01*
X411523Y114063D02*
X410886Y111000D01*
X412955Y114063D02*
X413591Y111000D01*
X414227Y114063D02*
X413591Y111000D01*
X414227Y114063D02*
X414864Y111000D01*
X415500Y114063D02*
X414864Y111000D01*
X417091Y111438D02*
X416932Y111219D01*
X417091Y111000*
X417250Y111219*
X417091Y111438*
X418682Y115594D02*
Y111000D01*
X420114Y115594D02*
X420273Y115375D01*
X420432Y115594*
X420273Y115813*
X420273D02*
X420114Y115594D01*
X420273Y114063D02*
Y111000D01*
X421864Y114063D02*
Y111000D01*
Y113188D02*
X422341Y113844D01*
X422659Y114063*
X422659D02*
X423136D01*
X423136D02*
X423455Y113844D01*
X423614Y113188*
X423614D02*
Y111000D01*
X425045Y112750D02*
X426955D01*
Y113188*
X426955D02*
X426795Y113625D01*
X426636Y113844*
X426318Y114063*
X426318D02*
X425841D01*
X425841D02*
X425523Y113844D01*
X425205Y113406*
X425045Y112750*
Y112313*
X425045D02*
X425205Y111656D01*
X425523Y111219*
X425841Y111000*
X426318*
X426636Y111219*
X426955Y111656*
X430295Y114063D02*
Y111000D01*
Y113406D02*
X429977Y113844D01*
X429659Y114063*
X429659D02*
X429182D01*
X429182D02*
X428864Y113844D01*
X428545Y113406*
X428386Y112750*
Y112313*
X428386D02*
X428545Y111656D01*
X428864Y111219*
X429182Y111000*
X429659*
X429977Y111219*
X430295Y111656*
X431727Y114063D02*
Y111000D01*
Y112750D02*
X431886Y113406D01*
X432205Y113844*
X432523Y114063*
X432523D02*
X433000D01*
X434591Y111438D02*
X434432Y111219D01*
X434591Y111000*
X434750Y111219*
X434591Y111438*
X438091Y113406D02*
X437773Y113844D01*
X437455Y114063*
X437455D02*
X436977D01*
X436977D02*
X436659Y113844D01*
X436341Y113406*
X436182Y112750*
Y112313*
X436182D02*
X436341Y111656D01*
X436659Y111219*
X436977Y111000*
X437455*
X437773Y111219*
X438091Y111656*
X440318Y114063D02*
X440000Y113844D01*
X439682Y113406*
X439523Y112750*
Y112313*
X439523D02*
X439682Y111656D01*
X440000Y111219*
X440318Y111000*
X440795*
X441114Y111219*
X441432Y111656*
X441591Y112313*
X441591D02*
Y112750D01*
X441432Y113406*
X441114Y113844*
X440795Y114063*
X440795D02*
X440318D01*
X443023D02*
Y111000D01*
Y113188D02*
X443500Y113844D01*
X443818Y114063*
X443818D02*
X444295D01*
X444295D02*
X444614Y113844D01*
X444773Y113188*
X444773D02*
Y111000D01*
Y113188D02*
X445250Y113844D01*
X445568Y114063*
X445568D02*
X446045D01*
X446045D02*
X446364Y113844D01*
X446523Y113188*
X446523D02*
Y111000D01*
X405955Y121688D02*
X405682Y121313D01*
X405682D02*
X405409Y120750D01*
X405136Y120000*
X405000Y119063*
X405000D02*
Y118313D01*
X405000D02*
X405136Y117375D01*
X405409Y116625*
X405682Y116062*
X405682D02*
X405955Y115687D01*
X408545Y120938D02*
X407182Y118313D01*
X407182D02*
X409227D01*
X408545Y120938D02*
Y117000D01*
X411273Y120938D02*
X410864Y120750D01*
X410591Y120188*
X410591D02*
X410455Y119250D01*
Y118688*
X410455D02*
X410591Y117750D01*
X410864Y117188*
X410864D02*
X411273Y117000D01*
X411545*
X411955Y117188*
X411955D02*
X412227Y117750D01*
X412364Y118688*
X412364D02*
Y119250D01*
X412227Y120188*
X412227D02*
X411955Y120750D01*
X411545Y120938*
X411545D02*
X411273D01*
X414273D02*
X413864Y120750D01*
X413727Y120375*
Y120000*
X413864Y119625*
X414136Y119438*
X414136D02*
X414682Y119250D01*
X415091Y119063*
X415091D02*
X415364Y118688D01*
X415364D02*
X415500Y118313D01*
X415500D02*
Y117750D01*
X415364Y117375*
X415227Y117188*
X415227D02*
X414818Y117000D01*
X414273*
X413864Y117188*
X413864D02*
X413727Y117375D01*
X413591Y117750*
Y118313*
X413591D02*
X413727Y118688D01*
X413727D02*
X414000Y119063D01*
X414000D02*
X414409Y119250D01*
X414955Y119438*
X414955D02*
X415227Y119625D01*
X415364Y120000*
Y120375*
X415227Y120750*
X414818Y120938*
X414818D02*
X414273D01*
X416727Y121688D02*
X417000Y121313D01*
X417000D02*
X417273Y120750D01*
X417545Y120000*
X417682Y119063*
X417682D02*
Y118313D01*
X417682D02*
X417545Y117375D01*
X417273Y116625*
X417000Y116062*
X417000D02*
X416727Y115687D01*
X423409Y120938D02*
X422045Y118313D01*
X422045D02*
X424091D01*
X423409Y120938D02*
Y117000D01*
X425591Y120938D02*
X427091D01*
X427091D02*
X426273Y119438D01*
X426273D02*
X426682D01*
X426682D02*
X426955Y119250D01*
X427091Y119063*
X427091D02*
X427227Y118500D01*
Y118125*
X427091Y117563*
X427091D02*
X426818Y117188D01*
X426818D02*
X426409Y117000D01*
X426000*
X425591Y117188*
X425591D02*
X425455Y117375D01*
X425318Y117750*
X428591Y120000D02*
Y120188D01*
X428591D02*
X428727Y120563D01*
X428727D02*
X428864Y120750D01*
X429136Y120938*
X429136D02*
X429682D01*
X429682D02*
X429955Y120750D01*
X430091Y120563*
X430091D02*
X430227Y120188D01*
X430227D02*
Y119813D01*
X430227D02*
X430091Y119438D01*
X430091D02*
X429818Y118875D01*
X428455Y117000*
X430364*
X431591Y118688D02*
X434045D01*
X435273Y120188D02*
X435545Y120375D01*
X435955Y120938*
X435955D02*
Y117000D01*
X438955Y119625D02*
X438818Y119063D01*
X438818D02*
X438545Y118688D01*
X438545D02*
X438136Y118500D01*
X438000*
X437591Y118688*
X437591D02*
X437318Y119063D01*
X437318D02*
X437182Y119625D01*
Y119813*
X437182D02*
X437318Y120375D01*
X437591Y120750*
X438000Y120938*
X438000D02*
X438136D01*
X438136D02*
X438545Y120750D01*
X438818Y120375*
X438955Y119625*
Y118688*
X438955D02*
X438818Y117750D01*
X438545Y117188*
X438545D02*
X438136Y117000D01*
X437864*
X437455Y117188*
X437455D02*
X437318Y117563D01*
X441000Y120938D02*
X440591Y120750D01*
X440318Y120188*
X440318D02*
X440182Y119250D01*
Y118688*
X440182D02*
X440318Y117750D01*
X440591Y117188*
X440591D02*
X441000Y117000D01*
X441273*
X441682Y117188*
X441682D02*
X441955Y117750D01*
X442091Y118688*
X442091D02*
Y119250D01*
X441955Y120188*
X441955D02*
X441682Y120750D01*
X441273Y120938*
X441273D02*
X441000D01*
X444136D02*
X443727Y120750D01*
X443455Y120188*
X443455D02*
X443318Y119250D01*
Y118688*
X443318D02*
X443455Y117750D01*
X443727Y117188*
X443727D02*
X444136Y117000D01*
X444409*
X444818Y117188*
X444818D02*
X445091Y117750D01*
X445227Y118688*
X445227D02*
Y119250D01*
X445091Y120188*
X445091D02*
X444818Y120750D01*
X444409Y120938*
X444409D02*
X444136D01*
X148364Y113000D02*
X148182Y112250D01*
X147818Y111750*
X147273Y111500*
X147091*
X146545Y111750*
X146182Y112250*
X146000Y113000*
Y113250*
X146182Y114000*
X146545Y114500*
X147091Y114750*
X147273*
X147818Y114500*
X148182Y114000*
X148364Y113000*
Y111750*
X148182Y110500*
X147818Y109750*
X147273Y109500*
X146909*
X146364Y109750*
X146182Y110250*
X150000Y114750D02*
X151455Y109500D01*
X152909Y114750D02*
X151455Y109500D01*
X154545Y111750D02*
X157818D01*
X161273Y114750D02*
X159455Y111250D01*
X162182*
X161273Y114750D02*
Y109500D01*
X164727Y114750D02*
X164182Y114500D01*
X164000Y114000*
Y113500*
X164182Y113000*
X164545Y112750*
X165273Y112500*
X165818Y112250*
X166182Y111750*
X166364Y111250*
Y110500*
X166182Y110000*
X166000Y109750*
X165455Y109500*
X164727*
X164182Y109750*
X164000Y110000*
X163818Y110500*
Y111250*
X164000Y111750*
X164364Y112250*
X164909Y112500*
X165636Y112750*
X166000Y113000*
X166182Y113500*
Y114000*
X166000Y114500*
X165455Y114750*
X164727*
X168000D02*
X169455Y109500D01*
X170909Y114750D02*
X169455Y109500D01*
X174000Y114750D02*
X172545Y109500D01*
X174000Y114750D02*
X175455Y109500D01*
X173091Y111250D02*
X174909D01*
X179818Y113500D02*
X179636Y114000D01*
X179273Y114500*
X178909Y114750*
X178182*
X177818Y114500*
X177455Y114000*
X177273Y113500*
X177091Y112750*
Y111500*
X177273Y110750*
X177455Y110250*
X177818Y109750*
X178182Y109500*
X178909*
X179273Y109750*
X179636Y110250*
X179818Y110750*
X185636Y114750D02*
Y109500D01*
Y114750D02*
X187273D01*
X187818Y114500*
X188000Y114250*
X188182Y113750*
Y113250*
X188000Y112750*
X187818Y112500*
X187273Y112250*
X185636*
X186909D02*
X188182Y109500D01*
X189818Y114750D02*
Y109500D01*
Y114750D02*
X191273Y109500D01*
X192727Y114750D02*
X191273Y109500D01*
X192727Y114750D02*
Y109500D01*
X196909Y114000D02*
X196545Y114500D01*
X196000Y114750*
X195273*
X194727Y114500*
X194364Y114000*
Y113500*
X194545Y113000*
X194727Y112750*
X195091Y112500*
X196182Y112000*
X196545Y111750*
X196727Y111500*
X196909Y111000*
Y110250*
X196545Y109750*
X196000Y109500*
X195273*
X194727Y109750*
X194364Y110250*
X204000Y115750D02*
X203636Y115250D01*
X203273Y114500*
X202909Y113500*
X202727Y112250*
Y111250*
X202909Y110000*
X203273Y109000*
X203636Y108250*
X204000Y107750*
X205636Y114750D02*
Y109500D01*
X207818*
X209455Y114750D02*
Y109500D01*
X211091Y114750D02*
Y109500D01*
Y114750D02*
X213636Y109500D01*
Y114750D02*
Y109500D01*
X215273Y114750D02*
Y109500D01*
Y114750D02*
X217636D01*
X215273Y112250D02*
X216727D01*
X215273Y109500D02*
X217636D01*
X224727Y114750D02*
Y109500D01*
X223455Y114750D02*
X226000D01*
X228727D02*
X228364Y114500D01*
X228000Y114000*
X227818Y113500*
X227636Y112750*
Y111500*
X227818Y110750*
X228000Y110250*
X228364Y109750*
X228727Y109500*
X229455*
X229818Y109750*
X230182Y110250*
X230364Y110750*
X230545Y111500*
Y112750*
X230364Y113500*
X230182Y114000*
X229818Y114500*
X229455Y114750*
X228727*
X236364D02*
Y109500D01*
X238545*
X240182Y114750D02*
Y109500D01*
X241818Y114750D02*
Y109500D01*
Y114750D02*
X244364Y109500D01*
Y114750D02*
Y109500D01*
X246000Y114750D02*
Y109500D01*
Y114750D02*
X248364D01*
X246000Y112250D02*
X247455D01*
X246000Y109500D02*
X248364D01*
X250000Y115750D02*
X250364Y115250D01*
X250727Y114500*
X251091Y113500*
X251273Y112250*
Y111250*
X251091Y110000*
X250727Y109000*
X250364Y108250*
X250000Y107750*
G54D32*
X493500Y275000D02*
Y249000D01*
X478500Y275000D02*
Y249000D01*
X372383Y113070D02*
X373004Y113544D01*
X373773Y117210D02*
X372028Y113307D01*
X372708Y120196D02*
X373270Y119428D01*
X379597Y122177D02*
X368894D01*
X370254Y120817D02*
X370521D01*
X370876Y120788*
X370876D02*
X371408Y120670D01*
X371408D02*
X372028Y120374D01*
X372590Y119930*
X372857Y119635*
X372857D02*
X373034Y119368D01*
X373241Y118984*
X373300Y118836*
X373389Y118570*
X373389D02*
X373418Y118452D01*
X373477Y118157*
X373477D02*
X373507Y117890D01*
Y117447*
X373477Y117181*
X373418Y116914*
X373329Y116589*
X372857Y115643*
X372857D02*
X372590Y115081D01*
X372324Y114549*
X372117Y114106*
X371732Y113366*
X371260Y112361*
X379597Y122177D02*
X379065Y121911D01*
X379065D02*
X378503Y121556D01*
X378031Y121231*
X377498Y120758*
X376937Y120167*
X376493Y119605*
X376138Y119073*
X375724Y118304*
X375399Y117565*
X375222Y116796*
X375104Y116293*
X375104D02*
X374956Y115791D01*
X374956D02*
X374689Y115229D01*
X374541Y114933*
X374128Y114342*
X373832Y114017*
X373655Y113810*
X373655D02*
X373359Y113544D01*
X373359D02*
X373093Y113307D01*
X372826Y113100*
X372560Y112923*
X372147Y112715*
X371881Y112568*
X371555Y112449*
X371348Y112361*
X371348D02*
X371289D01*
X369101Y121822D02*
X378179D01*
X377587Y121379*
X368924Y121409*
X368864Y121172*
X377351Y121113*
X377351D02*
X376877Y120728D01*
X372117Y120758*
X372738Y120374*
X376522Y120344*
X376138Y119901*
X373152Y119871*
X373507Y119368*
X375872Y119428*
X375517Y118807*
X373684Y118836*
X373891Y118186*
X375192*
X374956Y117594*
X374512Y115968*
X373984Y114519*
X373984D02*
X371624Y112683D01*
X372886Y114726*
X372886D02*
X373507Y115939D01*
X373980Y117121*
X374009Y118068*
X374535Y118927*
X374535D02*
X374364Y117092D01*
X374009Y115939*
X372727Y113846*
X368953Y122000D02*
X368510Y121024D01*
X367357Y121941D02*
X366765Y121556D01*
X366795Y121172D02*
X367357Y121941D01*
X368894Y122207D02*
X368185Y120817D01*
X370254*
X369722Y112657D02*
X360644D01*
X361236Y113100*
X369900Y113070*
X369958Y113307*
X369958D02*
X361472Y113366D01*
X361946Y113751*
X366706Y113721*
X366085Y114106*
X362301Y114135*
X362301D02*
X362685Y114578D01*
X365671Y114608*
X365316Y115111*
X362951Y115051*
X363306Y115672*
X365139Y115643*
X364932Y116293*
X363631*
X363868Y116885*
X364311Y118511*
X364851Y119841*
X367149Y121773*
X365937Y119753*
X365937D02*
X365316Y118541D01*
X364844Y117358*
X364814Y116411*
X364814D02*
X364193Y116442D01*
X364193D02*
X364459Y117387D01*
X364814Y118541*
X364814D02*
X365937Y120315D01*
X359225Y112302D02*
X359757Y112568D01*
X360319Y112923*
X360319D02*
X360793Y113248D01*
X361325Y113721*
X361887Y114312*
X362330Y114874*
X362685Y115406*
X363099Y116175*
X363099D02*
X363424Y116914D01*
X363601Y117683*
X363719Y118186*
X363868Y118689*
X363868D02*
X364134Y119250D01*
X364281Y119546*
X364281D02*
X364695Y120138D01*
X364695D02*
X364991Y120462D01*
X365168Y120670*
X365168D02*
X365465Y120936D01*
X365465D02*
X365731Y121172D01*
X365731D02*
X365997Y121379D01*
X365997D02*
X366263Y121556D01*
X366263D02*
X366676Y121764D01*
X366943Y121911*
X367268Y122030*
X367475Y122118*
X367475D02*
X367534D01*
X368569Y113662D02*
X368303D01*
X367948Y113691*
X367415Y113810*
X367415D02*
X366795Y114106D01*
X366795D02*
X366233Y114549D01*
X365967Y114845*
X365789Y115111*
X365583Y115495*
X365523Y115643*
X365434Y115909*
X365405Y116027*
X365346Y116323*
X365316Y116589*
Y117032*
X365346Y117299*
X365405Y117565*
X365494Y117890*
X365967Y118836*
X366233Y119398*
X366499Y119930*
X366706Y120374*
X367091Y121113*
X367564Y122118*
X363395Y115377D02*
X362655Y115022D01*
X363099Y115732D02*
X363484Y115998D01*
X363690Y117299D02*
X363099Y115732D01*
X359225Y112302D02*
X369929D01*
X362655Y115022D02*
X360674Y112479D01*
X360497Y112568D02*
X360201Y112509D01*
X360438Y112686D02*
X360497Y112568D01*
X359788Y112449D02*
X360438Y112686D01*
X360674Y112479D02*
X359788Y112449D01*
X366943Y113751D02*
X366115Y114283D01*
X370313Y113455D02*
X367475Y113573D01*
X366943Y113751*
X369929Y112272D02*
X370639Y113662D01*
X368569*
X369870Y112479D02*
X370313Y113455D01*
X372058Y112923D02*
X372383Y113070D01*
X371466Y112538D02*
X372058Y112923D01*
X372028Y113307D02*
X371466Y112538D01*
X363838Y117979D02*
X363690Y117299D01*
X365050Y117269D02*
X366795Y121172D01*
X366115Y114283D02*
X365553Y115051D01*
X363750Y115377D02*
X363395D01*
X364873Y115909D02*
X363750Y115377D01*
X363484Y115998D02*
X364873Y115909D01*
X365110Y116560D02*
X365050Y117269D01*
X365376Y115436D02*
X365110Y116560D01*
X365553Y115051D02*
X365376Y115436D01*
X364962Y115229D02*
X364340Y115317D01*
X365819Y120936D02*
X364873Y120078D01*
X364163Y118836D02*
X363838Y117979D01*
X364873Y120078D02*
X364163Y118836D01*
X366440Y121409D02*
X365819Y120936D01*
X366765Y121556D02*
X366440Y121409D01*
X368510Y121024D02*
X371348Y120906D01*
X371881Y120728D02*
X372708Y120196D01*
X371348Y120906D02*
X371881Y120728D01*
X376168Y119457D02*
X378149Y122000D01*
X381207Y114561D02*
X382777D01*
X373004Y113544D02*
X373950Y114401D01*
X375133Y117181D02*
X375724Y118747D01*
X373714Y117920D02*
X373773Y117210D01*
X374985Y116500D02*
X375133Y117181D01*
X374660Y115643D02*
X374985Y116500D01*
X373950Y114401D02*
X374660Y115643D01*
X375074Y119102D02*
X375428D01*
X375230Y118882D02*
X373840Y118971D01*
X373950Y118570D02*
X375074Y119102D01*
X373447Y119043D02*
X373714Y117920D01*
X373270Y119428D02*
X373447Y119043D01*
X373862Y119250D02*
X374483Y119162D01*
X375428Y119102D02*
X376168Y119457D01*
X375724Y118747D02*
X375340Y118481D01*
X387003Y114017D02*
G03X385449I-777J-263D01*
G01X384226Y113443D02*
X383336D01*
X389344D02*
X387789D01*
X383336Y114561D02*
X384785D01*
X378326Y121911D02*
X378622Y121970D01*
X378385Y121793D02*
X378326Y121911D01*
X379036Y122030D02*
X378385Y121793D01*
X378149Y122000D02*
X379036Y122030D01*
X401496Y114561D02*
X402386Y113443D01*
X394250Y114017D02*
G03X392695I-778J-264D01*
G01X401043D02*
G03X399488I-778J-264D01*
G01X398598D02*
G03X397042I-778J-263D01*
G01X402386Y113443D02*
X403277Y114561D01*
X381648Y121901D02*
Y116041D01*
X384013*
X385550Y121901D02*
Y116041D01*
X387022Y121901D02*
Y116041D01*
X389899Y121901D02*
Y116041D01*
X387050Y121740D02*
X387238D01*
X387480Y121712*
X387480D02*
X387829Y121632D01*
X388152Y121552*
X388152D02*
X388448Y121444D01*
X388770Y121283*
X389012Y121121*
X389200Y120987*
X389415Y120772*
X389576Y120583*
X389792Y120342*
X391794Y118487D02*
Y118138D01*
X391820Y117895*
X391901Y117546*
X392036Y117277*
X392223Y117008*
X392223D02*
X392412Y116767D01*
X392654Y116551*
X393003Y116337*
X393003D02*
X393380Y116202D01*
X393702Y116148*
X394052Y116095*
X395247*
X391337Y119995D02*
X394239D01*
X391794Y121874D02*
Y118595D01*
Y121927D02*
X394267D01*
X399064Y116095D02*
X397197Y121901D01*
X397075*
X394965Y116095*
X400014Y121901D02*
Y116041D01*
X403078D02*
X402782Y116068D01*
X402084Y116229*
X401734Y116364*
X401062Y116767*
X400713Y117036*
X400417Y117358*
X395893Y119967D02*
X397506D01*
X400390Y121901D02*
X400659D01*
X400820Y121874*
X401385Y121686*
X401573Y121605*
X401815Y121390*
X402057Y121121*
X402272Y120852*
X402433Y120637*
X402567Y120342*
X402621Y120100*
X402675Y119616*
Y119482*
X402648Y119374*
X402595Y119052*
X402379Y118567*
X402164Y118245*
X401815Y117895*
X401438Y117600*
X401223Y117492*
X400766Y117412*
X400363*
Y117385*
X383336Y112221D02*
Y114561D01*
X387789D02*
Y112221D01*
X389344D02*
Y114561D01*
X390234Y112221D02*
Y114561D01*
X391804Y112221*
Y114561*
X384785Y112221D02*
X383336D01*
X385448Y114016D02*
G03X385449Y112778I1529J-617D01*
G01Y112780D02*
G03X387003I777J263D01*
G01X395140Y114561D02*
Y112221D01*
X397042Y114016D02*
G03X397043Y112778I1528J-617D01*
G01X394250Y112780D02*
G03Y114018I-1525J619D01*
G01X392695Y114017D02*
G03Y112780I1531J-618D01*
G01X392695D02*
G03X394250I777J265D01*
G01X395140Y112221D02*
X396484D01*
X399488Y114016D02*
G03X399489Y112778I1528J-617D01*
G01X397042Y112780D02*
G03X398598I778J263D01*
G01X398597D02*
G03Y114018I-1524J619D01*
G01X400484Y113112D02*
X401043D01*
X399488Y112780D02*
G03X401043I777J264D01*
G01Y113112D02*
Y112780D01*
X402386Y113443D02*
Y112221D01*
X381992Y114561D02*
Y112221D01*
G54D33*
X286000Y275438D02*
Y271500D01*
Y275438D02*
X287227D01*
X287227D02*
X287636Y275250D01*
X287773Y275063*
X287773D02*
X287909Y274688D01*
X287909D02*
Y274313D01*
X287909D02*
X287773Y273938D01*
X287773D02*
X287636Y273750D01*
X287227Y273563*
X286000D02*
X287227D01*
X287227D02*
X287636Y273375D01*
X287773Y273188*
X287773D02*
X287909Y272813D01*
X287909D02*
Y272250D01*
X287773Y271875*
X287636Y271688*
X287636D02*
X287227Y271500D01*
X286000*
X291182Y274500D02*
X291045Y274875D01*
X290773Y275250*
X290500Y275438*
X290500D02*
X289955D01*
X289955D02*
X289682Y275250D01*
X289409Y274875*
X289273Y274500*
X289136Y273938*
X289136D02*
Y273000D01*
X289273Y272438*
X289273D02*
X289409Y272063D01*
X289409D02*
X289682Y271688D01*
X289682D02*
X289955Y271500D01*
X290500*
X290773Y271688*
X290773D02*
X291045Y272063D01*
X291045D02*
X291182Y272438D01*
X291182D02*
Y273000D01*
X290500D02*
X291182D01*
X292409Y274688D02*
X292682Y274875D01*
X293091Y275438*
X293091D02*
Y271500D01*
X294455Y274500D02*
Y274688D01*
X294455D02*
X294591Y275063D01*
X294591D02*
X294727Y275250D01*
X295000Y275438*
X295000D02*
X295545D01*
X295545D02*
X295818Y275250D01*
X295955Y275063*
X295955D02*
X296091Y274688D01*
X296091D02*
Y274313D01*
X296091D02*
X295955Y273938D01*
X295955D02*
X295682Y273375D01*
X294318Y271500*
X296227*
X307000Y223938D02*
Y220000D01*
Y223938D02*
X308227D01*
X308227D02*
X308636Y223750D01*
X308773Y223563*
X308773D02*
X308909Y223188D01*
X308909D02*
Y222813D01*
X308909D02*
X308773Y222438D01*
X308773D02*
X308636Y222250D01*
X308227Y222063*
X307000D02*
X308227D01*
X308227D02*
X308636Y221875D01*
X308773Y221688*
X308773D02*
X308909Y221313D01*
X308909D02*
Y220750D01*
X308773Y220375*
X308636Y220188*
X308636D02*
X308227Y220000D01*
X307000*
X312182Y223000D02*
X312045Y223375D01*
X311773Y223750*
X311500Y223938*
X311500D02*
X310955D01*
X310955D02*
X310682Y223750D01*
X310409Y223375*
X310273Y223000*
X310136Y222438*
X310136D02*
Y221500D01*
X310273Y220938*
X310273D02*
X310409Y220563D01*
X310409D02*
X310682Y220188D01*
X310682D02*
X310955Y220000D01*
X311500*
X311773Y220188*
X311773D02*
X312045Y220563D01*
X312045D02*
X312182Y220938D01*
X312182D02*
Y221500D01*
X311500D02*
X312182D01*
X313545Y223000D02*
Y223188D01*
X313545D02*
X313682Y223563D01*
X313682D02*
X313818Y223750D01*
X314091Y223938*
X314091D02*
X314636D01*
X314636D02*
X314909Y223750D01*
X315045Y223563*
X315045D02*
X315182Y223188D01*
X315182D02*
Y222813D01*
X315182D02*
X315045Y222438D01*
X315045D02*
X314773Y221875D01*
X313409Y220000*
X315318*
X316682Y223000D02*
Y223188D01*
X316682D02*
X316818Y223563D01*
X316818D02*
X316955Y223750D01*
X317227Y223938*
X317227D02*
X317773D01*
X317773D02*
X318045Y223750D01*
X318182Y223563*
X318182D02*
X318318Y223188D01*
X318318D02*
Y222813D01*
X318318D02*
X318182Y222438D01*
X318182D02*
X317909Y221875D01*
X316545Y220000*
X318455*
X306000Y170938D02*
Y167000D01*
Y170938D02*
X307227D01*
X307227D02*
X307636Y170750D01*
X307773Y170563*
X307773D02*
X307909Y170188D01*
X307909D02*
Y169813D01*
X307909D02*
X307773Y169438D01*
X307773D02*
X307636Y169250D01*
X307227Y169063*
X306000D02*
X307227D01*
X307227D02*
X307636Y168875D01*
X307773Y168688*
X307773D02*
X307909Y168313D01*
X307909D02*
Y167750D01*
X307773Y167375*
X307636Y167188*
X307636D02*
X307227Y167000D01*
X306000*
X311182Y170000D02*
X311045Y170375D01*
X310773Y170750*
X310500Y170938*
X310500D02*
X309955D01*
X309955D02*
X309682Y170750D01*
X309409Y170375*
X309273Y170000*
X309136Y169438*
X309136D02*
Y168500D01*
X309273Y167938*
X309273D02*
X309409Y167563D01*
X309409D02*
X309682Y167188D01*
X309682D02*
X309955Y167000D01*
X310500*
X310773Y167188*
X310773D02*
X311045Y167563D01*
X311045D02*
X311182Y167938D01*
X311182D02*
Y168500D01*
X310500D02*
X311182D01*
X312682Y170938D02*
X314182D01*
X314182D02*
X313364Y169438D01*
X313364D02*
X313773D01*
X313773D02*
X314045Y169250D01*
X314182Y169063*
X314182D02*
X314318Y168500D01*
Y168125*
X314182Y167563*
X314182D02*
X313909Y167188D01*
X313909D02*
X313500Y167000D01*
X313091*
X312682Y167188*
X312682D02*
X312545Y167375D01*
X312409Y167750*
X315682Y170000D02*
Y170188D01*
X315682D02*
X315818Y170563D01*
X315818D02*
X315955Y170750D01*
X316227Y170938*
X316227D02*
X316773D01*
X316773D02*
X317045Y170750D01*
X317182Y170563*
X317182D02*
X317318Y170188D01*
X317318D02*
Y169813D01*
X317318D02*
X317182Y169438D01*
X317182D02*
X316909Y168875D01*
X315545Y167000*
X317455*
X313000Y293455D02*
X313375Y293591D01*
X313750Y293864*
X313938Y294136*
X313938D02*
Y294682D01*
X313938D02*
X313750Y294955D01*
X313375Y295227*
X313000Y295364*
X312438Y295500*
X312438D02*
X311500D01*
X310938Y295364*
X310938D02*
X310563Y295227D01*
X310563D02*
X310188Y294955D01*
X310188D02*
X310000Y294682D01*
Y294136*
X310188Y293864*
X310188D02*
X310563Y293591D01*
X310563D02*
X310938Y293455D01*
X313188Y292227D02*
X313375Y291955D01*
X313938Y291545*
X313938D02*
X310000D01*
X311000Y243545D02*
X310625Y243409D01*
X310250Y243136*
X310062Y242864*
Y242318*
X310250Y242045*
X310625Y241773*
X311000Y241636*
X311562Y241500*
X312500*
X313062Y241636*
X313437Y241773*
X313812Y242045*
X314000Y242318*
Y242864*
X313812Y243136*
X313437Y243409*
X313062Y243545*
X310062Y245045D02*
Y246545D01*
X311562Y245727*
Y246136*
X311750Y246409*
X311937Y246545*
X312500Y246682*
X312875*
X313437Y246545*
X313812Y246273*
X314000Y245864*
Y245455*
X313812Y245045*
X313625Y244909*
X313250Y244773*
X313000Y191955D02*
X313375Y192091D01*
X313750Y192364*
X313938Y192636*
X313938D02*
Y193182D01*
X313938D02*
X313750Y193455D01*
X313375Y193727*
X313000Y193864*
X312438Y194000*
X312438D02*
X311500D01*
X310938Y193864*
X310938D02*
X310563Y193727D01*
X310563D02*
X310188Y193455D01*
X310188D02*
X310000Y193182D01*
Y192636*
X310188Y192364*
X310188D02*
X310563Y192091D01*
X310563D02*
X310938Y191955D01*
X313938Y189364D02*
X311313Y190727D01*
X311313D02*
Y188682D01*
X313938Y189364D02*
X310000D01*
X328318Y322438D02*
X328045Y322250D01*
X327773Y321875*
X327636Y321500*
X327500Y320938*
X327500D02*
Y320000D01*
X327636Y319438*
X327636D02*
X327773Y319063D01*
X327773D02*
X328045Y318688D01*
X328045D02*
X328318Y318500D01*
X328864*
X329136Y318688*
X329136D02*
X329409Y319063D01*
X329409D02*
X329545Y319438D01*
X329545D02*
X329682Y320000D01*
Y320938*
X329682D02*
X329545Y321500D01*
X329409Y321875*
X329136Y322250*
X328864Y322438*
X328864D02*
X328318D01*
X328727Y319250D02*
X329545Y318125D01*
X330909Y321688D02*
X331182Y321875D01*
X331591Y322438*
X331591D02*
Y318500D01*
X262318Y311938D02*
X262045Y311750D01*
X261773Y311375*
X261636Y311000*
X261500Y310438*
X261500D02*
Y309500D01*
X261636Y308938*
X261636D02*
X261773Y308563D01*
X261773D02*
X262045Y308188D01*
X262045D02*
X262318Y308000D01*
X262864*
X263136Y308188*
X263136D02*
X263409Y308563D01*
X263409D02*
X263545Y308938D01*
X263545D02*
X263682Y309500D01*
Y310438*
X263682D02*
X263545Y311000D01*
X263409Y311375*
X263136Y311750*
X262864Y311938*
X262864D02*
X262318D01*
X262727Y308750D02*
X263545Y307625D01*
X265045Y311000D02*
Y311188D01*
X265045D02*
X265182Y311563D01*
X265182D02*
X265318Y311750D01*
X265591Y311938*
X265591D02*
X266136D01*
X266136D02*
X266409Y311750D01*
X266545Y311563*
X266545D02*
X266682Y311188D01*
X266682D02*
Y310813D01*
X266682D02*
X266545Y310438D01*
X266545D02*
X266273Y309875D01*
X264909Y308000*
X266818*
X325318Y272938D02*
X325045Y272750D01*
X324773Y272375*
X324636Y272000*
X324500Y271438*
X324500D02*
Y270500D01*
X324636Y269938*
X324636D02*
X324773Y269563D01*
X324773D02*
X325045Y269188D01*
X325045D02*
X325318Y269000D01*
X325864*
X326136Y269188*
X326136D02*
X326409Y269563D01*
X326409D02*
X326545Y269938D01*
X326545D02*
X326682Y270500D01*
Y271438*
X326682D02*
X326545Y272000D01*
X326409Y272375*
X326136Y272750*
X325864Y272938*
X325864D02*
X325318D01*
X325727Y269750D02*
X326545Y268625D01*
X328182Y272938D02*
X329682D01*
X329682D02*
X328864Y271438D01*
X328864D02*
X329273D01*
X329273D02*
X329545Y271250D01*
X329682Y271063*
X329682D02*
X329818Y270500D01*
Y270125*
X329682Y269563*
X329682D02*
X329409Y269188D01*
X329409D02*
X329000Y269000D01*
X328591*
X328182Y269188*
X328182D02*
X328045Y269375D01*
X327909Y269750*
X262318Y260938D02*
X262045Y260750D01*
X261773Y260375*
X261636Y260000*
X261500Y259438*
X261500D02*
Y258500D01*
X261636Y257938*
X261636D02*
X261773Y257563D01*
X261773D02*
X262045Y257188D01*
X262045D02*
X262318Y257000D01*
X262864*
X263136Y257188*
X263136D02*
X263409Y257563D01*
X263409D02*
X263545Y257938D01*
X263545D02*
X263682Y258500D01*
Y259438*
X263682D02*
X263545Y260000D01*
X263409Y260375*
X263136Y260750*
X262864Y260938*
X262864D02*
X262318D01*
X262727Y257750D02*
X263545Y256625D01*
X266273Y260938D02*
X264909Y258313D01*
X264909D02*
X266955D01*
X266273Y260938D02*
Y257000D01*
X324818Y220938D02*
X324545Y220750D01*
X324273Y220375*
X324136Y220000*
X324000Y219438*
X324000D02*
Y218500D01*
X324136Y217938*
X324136D02*
X324273Y217563D01*
X324273D02*
X324545Y217188D01*
X324545D02*
X324818Y217000D01*
X325364*
X325636Y217188*
X325636D02*
X325909Y217563D01*
X325909D02*
X326045Y217938D01*
X326045D02*
X326182Y218500D01*
Y219438*
X326182D02*
X326045Y220000D01*
X325909Y220375*
X325636Y220750*
X325364Y220938*
X325364D02*
X324818D01*
X325227Y217750D02*
X326045Y216625D01*
X329182Y220938D02*
X327818D01*
X327818D02*
X327682Y219250D01*
X327818Y219438*
X327818D02*
X328227Y219625D01*
X328636*
X329045Y219438*
X329045D02*
X329318Y219063D01*
X329318D02*
X329455Y218500D01*
X329318Y218125*
X329182Y217563*
X329182D02*
X328909Y217188D01*
X328909D02*
X328500Y217000D01*
X328091*
X327682Y217188*
X327682D02*
X327545Y217375D01*
X327409Y217750*
X262318Y211438D02*
X262045Y211250D01*
X261773Y210875*
X261636Y210500*
X261500Y209938*
X261500D02*
Y209000D01*
X261636Y208438*
X261636D02*
X261773Y208063D01*
X261773D02*
X262045Y207688D01*
X262045D02*
X262318Y207500D01*
X262864*
X263136Y207688*
X263136D02*
X263409Y208063D01*
X263409D02*
X263545Y208438D01*
X263545D02*
X263682Y209000D01*
Y209938*
X263682D02*
X263545Y210500D01*
X263409Y210875*
X263136Y211250*
X262864Y211438*
X262864D02*
X262318D01*
X262727Y208250D02*
X263545Y207125D01*
X266545Y210875D02*
X266409Y211250D01*
X266000Y211438*
X266000D02*
X265727D01*
X265727D02*
X265318Y211250D01*
X265045Y210688*
X265045D02*
X264909Y209750D01*
Y208813*
X264909D02*
X265045Y208063D01*
X265045D02*
X265318Y207688D01*
X265318D02*
X265727Y207500D01*
X265864*
X266273Y207688*
X266273D02*
X266545Y208063D01*
X266545D02*
X266682Y208625D01*
Y208813*
X266682D02*
X266545Y209375D01*
X266273Y209750*
X265864Y209938*
X265864D02*
X265727D01*
X265727D02*
X265318Y209750D01*
X265045Y209375*
X264909Y208813*
X316455Y292938D02*
Y289000D01*
X315500Y292938D02*
X317409D01*
X320682Y292000D02*
X320545Y292375D01*
X320273Y292750*
X320000Y292938*
X320000D02*
X319455D01*
X319455D02*
X319182Y292750D01*
X318909Y292375*
X318773Y292000*
X318636Y291438*
X318636D02*
Y290500D01*
X318773Y289938*
X318773D02*
X318909Y289563D01*
X318909D02*
X319182Y289188D01*
X319182D02*
X319455Y289000D01*
X320000*
X320273Y289188*
X320273D02*
X320545Y289563D01*
X320545D02*
X320682Y289938D01*
X320682D02*
Y290500D01*
X320000D02*
X320682D01*
X321909Y292188D02*
X322182Y292375D01*
X322591Y292938*
X322591D02*
Y289000D01*
X323818Y292188D02*
X324091Y292375D01*
X324500Y292938*
X324500D02*
Y289000D01*
X324455Y235938D02*
Y232000D01*
X323500Y235938D02*
X325409D01*
X328682Y235000D02*
X328545Y235375D01*
X328273Y235750*
X328000Y235938*
X328000D02*
X327455D01*
X327455D02*
X327182Y235750D01*
X326909Y235375*
X326773Y235000*
X326636Y234438*
X326636D02*
Y233500D01*
X326773Y232938*
X326773D02*
X326909Y232563D01*
X326909D02*
X327182Y232188D01*
X327182D02*
X327455Y232000D01*
X328000*
X328273Y232188*
X328273D02*
X328545Y232563D01*
X328545D02*
X328682Y232938D01*
X328682D02*
Y233500D01*
X328000D02*
X328682D01*
X330045Y235000D02*
Y235188D01*
X330045D02*
X330182Y235563D01*
X330182D02*
X330318Y235750D01*
X330591Y235938*
X330591D02*
X331136D01*
X331136D02*
X331409Y235750D01*
X331545Y235563*
X331545D02*
X331682Y235188D01*
X331682D02*
Y234813D01*
X331682D02*
X331545Y234438D01*
X331545D02*
X331273Y233875D01*
X329909Y232000*
X331818*
X333045Y235188D02*
X333318Y235375D01*
X333727Y235938*
X333727D02*
Y232000D01*
X316955Y177438D02*
Y173500D01*
X316000Y177438D02*
X317909D01*
X321182Y176500D02*
X321045Y176875D01*
X320773Y177250*
X320500Y177438*
X320500D02*
X319955D01*
X319955D02*
X319682Y177250D01*
X319409Y176875*
X319273Y176500*
X319136Y175938*
X319136D02*
Y175000D01*
X319273Y174438*
X319273D02*
X319409Y174063D01*
X319409D02*
X319682Y173688D01*
X319682D02*
X319955Y173500D01*
X320500*
X320773Y173688*
X320773D02*
X321045Y174063D01*
X321045D02*
X321182Y174438D01*
X321182D02*
Y175000D01*
X320500D02*
X321182D01*
X322682Y177438D02*
X324182D01*
X324182D02*
X323364Y175938D01*
X323364D02*
X323773D01*
X323773D02*
X324045Y175750D01*
X324182Y175563*
X324182D02*
X324318Y175000D01*
Y174625*
X324182Y174063*
X324182D02*
X323909Y173688D01*
X323909D02*
X323500Y173500D01*
X323091*
X322682Y173688*
X322682D02*
X322545Y173875D01*
X322409Y174250*
X325545Y176688D02*
X325818Y176875D01*
X326227Y177438*
X326227D02*
Y173500D01*
X287500Y285438D02*
Y282625D01*
X287636Y282063*
X287636D02*
X287909Y281688D01*
X287909D02*
X288318Y281500D01*
X288591*
X289000Y281688*
X289000D02*
X289273Y282063D01*
X289273D02*
X289409Y282625D01*
Y285438*
X290636Y284688D02*
X290909Y284875D01*
X291318Y285438*
X291318D02*
Y281500D01*
X287500Y235438D02*
Y232625D01*
X287636Y232063*
X287636D02*
X287909Y231688D01*
X287909D02*
X288318Y231500D01*
X288591*
X289000Y231688*
X289000D02*
X289273Y232063D01*
X289273D02*
X289409Y232625D01*
Y235438*
X290773Y234500D02*
Y234688D01*
X290773D02*
X290909Y235063D01*
X290909D02*
X291045Y235250D01*
X291318Y235438*
X291318D02*
X291864D01*
X291864D02*
X292136Y235250D01*
X292273Y235063*
X292273D02*
X292409Y234688D01*
X292409D02*
Y234313D01*
X292409D02*
X292273Y233938D01*
X292273D02*
X292000Y233375D01*
X290636Y231500*
X292545*
X287500Y182938D02*
Y180125D01*
X287636Y179563*
X287636D02*
X287909Y179188D01*
X287909D02*
X288318Y179000D01*
X288591*
X289000Y179188*
X289000D02*
X289273Y179563D01*
X289273D02*
X289409Y180125D01*
Y182938*
X290909D02*
X292409D01*
X292409D02*
X291591Y181438D01*
X291591D02*
X292000D01*
X292000D02*
X292273Y181250D01*
X292409Y181063*
X292409D02*
X292545Y180500D01*
Y180125*
X292409Y179563*
X292409D02*
X292136Y179188D01*
X292136D02*
X291727Y179000D01*
X291318*
X290909Y179188*
X290909D02*
X290773Y179375D01*
X290636Y179750*
G74*
X0Y0D02*
M02*
