*
*
G04 PADS VX.1.1 Build Number: 678707 generated Gerber (RS-274-X) file*
G04 PC Version=2.1*
*
%IN "3 Phase IDR (11-21-2015"*%
*
%MOIN*%
*
%FSLAX35Y35*%
*
*
*
*
G04 PC Standard Apertures*
*
*
G04 Thermal Relief Aperture macro.*
%AMTER*
1,1,$1,0,0*
1,0,$1-$2,0,0*
21,0,$3,$4,0,0,45*
21,0,$3,$4,0,0,135*
%
*
*
G04 Annular Aperture macro.*
%AMANN*
1,1,$1,0,0*
1,0,$2,0,0*
%
*
*
G04 Odd Aperture macro.*
%AMODD*
1,1,$1,0,0*
1,0,$1-0.005,0,0*
%
*
*
G04 PC Custom Aperture Macros*
*
*
*
*
*
*
G04 PC Aperture Table*
*
%ADD010C,0.001*%
%ADD014C,0.15*%
%ADD015C,0.325*%
%ADD021C,0.28*%
%ADD022C,0.07*%
%ADD023C,0.01*%
%ADD024C,0.012*%
%ADD025C,0.02*%
%ADD026R,0.071X0.138*%
%ADD027R,0.07X0.09*%
%ADD028R,0.035X0.04*%
%ADD029R,0.04X0.035*%
%ADD030R,0.035X0.03*%
%ADD031C,0.008*%
%ADD032C,0.007*%
%ADD033C,0.006*%
%ADD034C,0.009*%
%ADD052C,0.013*%
%ADD053C,0.015*%
%ADD054C,0.025*%
%ADD057C,0.003*%
*
*
*
*
G04 PC Circuitry*
G04 Layer Name 3 Phase IDR (11-21-2015 - circuitry*
%LPD*%
*
*
G04 PC Custom Flashes*
G04 Layer Name 3 Phase IDR (11-21-2015 - flashes*
%LPD*%
*
*
G04 PC Circuitry*
G04 Layer Name 3 Phase IDR (11-21-2015 - circuitry*
%LPD*%
*
G54D10*
G54D14*
G01X1903000Y1741250D03*
X2277000Y1735250D03*
Y1587250D03*
X1903000Y1657250D03*
Y1577250D03*
G54D15*
X1935000Y1741250D03*
Y1657250D03*
Y1577250D03*
X2247000Y1757250D03*
Y1562250D03*
Y1708250D03*
Y1615250D03*
G54D21*
X1907000Y1793250D03*
X2271000D03*
X1907000Y1529250D03*
X2271000D03*
G54D22*
X2245000Y1803250D03*
X1929000Y1519250D03*
G54D23*
X2129500Y1641250D02*
X2134000D01*
X2129500Y1640750D02*
X2133500D01*
X2129500Y1640250D02*
X2133500D01*
X2129500Y1639750D02*
X2133500D01*
X2129500Y1639250D02*
X2133000D01*
X2129500Y1638750D02*
X2132500D01*
X2129500Y1638250D02*
X2132000D01*
X2129500Y1637750D02*
X2131500D01*
X2129500Y1637250D02*
X2131000D01*
X2129500Y1636750D02*
X2130500D01*
X2129500Y1636250D02*
Y1641250D01*
X2119000D02*
X2115000D01*
X2119000Y1640750D02*
X2115000D01*
X2119000Y1640250D02*
X2115500D01*
X2119500Y1641250D02*
Y1636250D01*
X2119000Y1639750D02*
X2116000D01*
X2119000Y1639250D02*
X2116000D01*
X2119000Y1638750D02*
X2116500D01*
X2119000Y1638250D02*
X2117000D01*
X2119000Y1637750D02*
X2117500D01*
X2119000Y1637250D02*
X2118000D01*
X2070250Y1598750D02*
Y1600250D01*
X2081750*
Y1598875*
Y1593750D02*
Y1592250D01*
X2070250*
Y1593625*
X2072750Y1600250D02*
Y1592250D01*
X2073250Y1600250D02*
Y1592250D01*
X2092500Y1708000D02*
X2094000D01*
Y1696500*
X2092625*
X2087500D02*
X2086000D01*
Y1708000*
X2087375*
X2094000Y1705500D02*
X2086000D01*
X2094000Y1705000D02*
X2086000D01*
X2092500Y1658000D02*
X2094000D01*
Y1646500*
X2092625*
X2087500D02*
X2086000D01*
Y1658000*
X2087375*
X2094000Y1655500D02*
X2086000D01*
X2094000Y1655000D02*
X2086000D01*
X2092500Y1606000D02*
X2094000D01*
Y1594500*
X2092625*
X2087500D02*
X2086000D01*
Y1606000*
X2087375*
X2094000Y1603500D02*
X2086000D01*
X2094000Y1603000D02*
X2086000D01*
X2093750Y1681750D02*
Y1680250D01*
X2082250*
Y1681625*
Y1686750D02*
Y1688250D01*
X2093750*
Y1686875*
X2091250Y1680250D02*
Y1688250D01*
X2090750Y1680250D02*
Y1688250D01*
X2070250Y1699750D02*
Y1701250D01*
X2081750*
Y1699875*
Y1694750D02*
Y1693250D01*
X2070250*
Y1694625*
X2072750Y1701250D02*
Y1693250D01*
X2073250Y1701250D02*
Y1693250D01*
X2070250Y1708750D02*
Y1710250D01*
X2081750*
Y1708875*
Y1703750D02*
Y1702250D01*
X2070250*
Y1703625*
X2072750Y1710250D02*
Y1702250D01*
X2073250Y1710250D02*
Y1702250D01*
X2095750Y1630250D02*
Y1628750D01*
X2084250*
Y1630125*
Y1635250D02*
Y1636750D01*
X2095750*
Y1635375*
X2093250Y1628750D02*
Y1636750D01*
X2092750Y1628750D02*
Y1636750D01*
X2070250Y1657750D02*
Y1659250D01*
X2081750*
Y1657875*
Y1652750D02*
Y1651250D01*
X2070250*
Y1652625*
X2072750Y1659250D02*
Y1651250D01*
X2073250Y1659250D02*
Y1651250D01*
X2070250Y1649750D02*
Y1651250D01*
X2081750*
Y1649875*
Y1644750D02*
Y1643250D01*
X2070250*
Y1644625*
X2072750Y1651250D02*
Y1643250D01*
X2073250Y1651250D02*
Y1643250D01*
X2095750Y1578750D02*
Y1577250D01*
X2084250*
Y1578625*
Y1583750D02*
Y1585250D01*
X2095750*
Y1583875*
X2093250Y1577250D02*
Y1585250D01*
X2092750Y1577250D02*
Y1585250D01*
X2070250Y1606750D02*
Y1608250D01*
X2081750*
Y1606875*
Y1601750D02*
Y1600250D01*
X2070250*
Y1601625*
X2072750Y1608250D02*
Y1600250D01*
X2073250Y1608250D02*
Y1600250D01*
X1731818Y1345875D02*
X1732273Y1346500D01*
X1732955Y1346813*
X1732955D02*
X1733864D01*
X1733864D02*
X1734545Y1346500D01*
X1735000Y1345875*
Y1345250*
X1734773Y1344625*
X1734545Y1344313*
X1734545D02*
X1734091Y1344000D01*
X1732727Y1343375*
X1732273Y1343063*
X1732273D02*
X1732045Y1342750D01*
X1731818Y1342125*
Y1341188*
X1731818D02*
X1732273Y1340563D01*
X1732273D02*
X1732955Y1340250D01*
X1733864*
X1734545Y1340563*
X1734545D02*
X1735000Y1341188D01*
X1729773Y1346813D02*
Y1340250D01*
X1726591Y1346813D02*
Y1340250D01*
X1729773Y1343688D02*
X1726591D01*
X1722955Y1346813D02*
Y1340250D01*
X1724545Y1346813D02*
X1721364D01*
X1713864Y1345250D02*
Y1345563D01*
X1713864D02*
X1713636Y1346188D01*
X1713636D02*
X1713409Y1346500D01*
X1712955Y1346813*
X1712955D02*
X1712045D01*
X1712045D02*
X1711591Y1346500D01*
X1711364Y1346188*
X1711364D02*
X1711136Y1345563D01*
X1711136D02*
Y1344938D01*
X1711136D02*
X1711364Y1344313D01*
X1711364D02*
X1711818Y1343375D01*
X1714091Y1340250*
X1710909*
X1702500Y1344625D02*
X1702955Y1344313D01*
X1702955D02*
X1703409Y1343688D01*
X1703409D02*
X1703636Y1342750D01*
Y1342125*
X1703409Y1341188*
X1703409D02*
X1702955Y1340563D01*
X1702955D02*
X1702500Y1340250D01*
X1701818*
X1701364Y1340563*
X1701364D02*
X1700909Y1341188D01*
X1700909D02*
X1700682Y1342125D01*
Y1342750*
X1700909Y1343688*
X1700909D02*
X1701364Y1344313D01*
X1701364D02*
X1701818Y1344625D01*
X1702500*
X1696818Y1346813D02*
X1697273D01*
X1697273D02*
X1697727Y1346500D01*
X1697955Y1345563*
X1697955D02*
Y1340250D01*
X1698636Y1344625D02*
X1697045D01*
X1689318Y1345250D02*
Y1345563D01*
X1689318D02*
X1689091Y1346188D01*
X1689091D02*
X1688864Y1346500D01*
X1688409Y1346813*
X1688409D02*
X1687500D01*
X1687500D02*
X1687045Y1346500D01*
X1686818Y1346188*
X1686818D02*
X1686591Y1345563D01*
X1686591D02*
Y1344938D01*
X1686591D02*
X1686818Y1344313D01*
X1686818D02*
X1687273Y1343375D01*
X1689545Y1340250*
X1686364*
X1757500Y1442844D02*
Y1438250D01*
X1755591*
X1753045Y1442844D02*
Y1438250D01*
X1754159Y1442844D02*
X1751932D01*
X1748114Y1441750D02*
X1748273Y1442188D01*
X1748273D02*
X1748591Y1442625D01*
X1748909Y1442844*
X1749545*
X1749864Y1442625*
X1750182Y1442188*
X1750182D02*
X1750341Y1441750D01*
X1750500Y1441094*
Y1440000*
X1750341Y1439344*
X1750182Y1438906*
X1749864Y1438469*
X1749545Y1438250*
X1748909*
X1748591Y1438469*
X1748273Y1438906*
X1748114Y1439344*
X1740636Y1441750D02*
X1740795Y1442188D01*
X1740795D02*
X1741114Y1442625D01*
X1741432Y1442844*
X1742068*
X1742386Y1442625*
X1742705Y1442188*
X1742705D02*
X1742864Y1441750D01*
X1743023Y1441094*
Y1440000*
X1742864Y1439344*
X1742705Y1438906*
X1742386Y1438469*
X1742068Y1438250*
X1741432*
X1741114Y1438469*
X1740795Y1438906*
X1740636Y1439344*
X1738250Y1442844D02*
X1738568Y1442625D01*
X1738886Y1442188*
X1738886D02*
X1739045Y1441750D01*
X1739205Y1441094*
Y1440000*
X1739045Y1439344*
X1738886Y1438906*
X1738568Y1438469*
X1738250Y1438250*
X1737614*
X1737295Y1438469*
X1736977Y1438906*
X1736818Y1439344*
X1736659Y1440000*
Y1441094*
X1736818Y1441750*
X1736977Y1442188*
X1736977D02*
X1737295Y1442625D01*
X1737614Y1442844*
X1738250*
X1735227D02*
Y1438250D01*
Y1442844D02*
X1733000Y1438250D01*
Y1442844D02*
Y1438250D01*
X1731568Y1442844D02*
Y1438250D01*
Y1442844D02*
X1729500D01*
X1731568Y1440656D02*
X1730295D01*
X1728068Y1442844D02*
Y1438250D01*
X1726636Y1442844D02*
Y1438250D01*
Y1442844D02*
X1725523D01*
X1725045Y1442625*
X1724727Y1442188*
X1724727D02*
X1724568Y1441750D01*
X1724409Y1441094*
Y1440000*
X1724568Y1439344*
X1724727Y1438906*
X1725045Y1438469*
X1725523Y1438250*
X1726636*
X1722977Y1442844D02*
Y1438250D01*
Y1442844D02*
X1720909D01*
X1722977Y1440656D02*
X1721705D01*
X1722977Y1438250D02*
X1720909D01*
X1719477Y1442844D02*
Y1438250D01*
Y1442844D02*
X1717250Y1438250D01*
Y1442844D02*
Y1438250D01*
X1714705Y1442844D02*
Y1438250D01*
X1715818Y1442844D02*
X1713591D01*
X1712159D02*
Y1438250D01*
X1709455Y1442844D02*
X1710727Y1438250D01*
X1709455Y1442844D02*
X1708182Y1438250D01*
X1710250Y1439781D02*
X1708659D01*
X1706750Y1442844D02*
Y1438250D01*
X1704841*
X1703409Y1440219D02*
X1700545D01*
X1757500Y1435844D02*
Y1431250D01*
Y1435844D02*
X1755432D01*
X1757500Y1433656D02*
X1756227D01*
X1753045Y1435844D02*
X1753364Y1435625D01*
X1753682Y1435188*
X1753682D02*
X1753841Y1434750D01*
X1754000Y1434094*
Y1433000*
X1753841Y1432344*
X1753682Y1431906*
X1753364Y1431469*
X1753045Y1431250*
X1752409*
X1752091Y1431469*
X1751773Y1431906*
X1751614Y1432344*
X1751455Y1433000*
Y1434094*
X1751614Y1434750*
X1751773Y1435188*
X1751773D02*
X1752091Y1435625D01*
X1752409Y1435844*
X1753045*
X1750023D02*
Y1431250D01*
Y1435844D02*
X1748591D01*
X1748114Y1435625*
X1747955Y1435406*
X1747795Y1434969*
Y1434531*
X1747955Y1434094*
X1748114Y1433875*
X1748591Y1433656*
X1750023*
X1748909D02*
X1747795Y1431250D01*
X1740318Y1434750D02*
X1740477Y1435188D01*
X1740477D02*
X1740795Y1435625D01*
X1741114Y1435844*
X1741750*
X1742068Y1435625*
X1742386Y1435188*
X1742386D02*
X1742545Y1434750D01*
X1742705Y1434094*
Y1433000*
X1742545Y1432344*
X1742386Y1431906*
X1742068Y1431469*
X1741750Y1431250*
X1741114*
X1740795Y1431469*
X1740477Y1431906*
X1740318Y1432344*
X1738886Y1435844D02*
Y1432563D01*
X1738886D02*
X1738727Y1431906D01*
X1738409Y1431469*
X1737932Y1431250*
X1737614*
X1737136Y1431469*
X1736818Y1431906*
X1736659Y1432563*
X1736659D02*
Y1435844D01*
X1733000Y1435188D02*
X1733318Y1435625D01*
X1733795Y1435844*
X1734432*
X1734909Y1435625*
X1735227Y1435188*
X1735227D02*
Y1434750D01*
X1735068Y1434313*
X1735068D02*
X1734909Y1434094D01*
X1734591Y1433875*
X1733636Y1433438*
X1733636D02*
X1733318Y1433219D01*
X1733159Y1433000*
X1733000Y1432563*
X1733000D02*
Y1431906D01*
X1733318Y1431469*
X1733795Y1431250*
X1734432*
X1734909Y1431469*
X1735227Y1431906*
X1730455Y1435844D02*
Y1431250D01*
X1731568Y1435844D02*
X1729341D01*
X1726955D02*
X1727273Y1435625D01*
X1727591Y1435188*
X1727591D02*
X1727750Y1434750D01*
X1727909Y1434094*
Y1433000*
X1727750Y1432344*
X1727591Y1431906*
X1727273Y1431469*
X1726955Y1431250*
X1726318*
X1726000Y1431469*
X1725682Y1431906*
X1725523Y1432344*
X1725364Y1433000*
Y1434094*
X1725523Y1434750*
X1725682Y1435188*
X1725682D02*
X1726000Y1435625D01*
X1726318Y1435844*
X1726955*
X1723932D02*
Y1431250D01*
Y1435844D02*
X1722659Y1431250D01*
X1721386Y1435844D02*
X1722659Y1431250D01*
X1721386Y1435844D02*
Y1431250D01*
X1719955Y1435844D02*
Y1431250D01*
Y1435844D02*
X1717886D01*
X1719955Y1433656D02*
X1718682D01*
X1719955Y1431250D02*
X1717886D01*
X1716455Y1435844D02*
Y1431250D01*
Y1435844D02*
X1715023D01*
X1714545Y1435625*
X1714386Y1435406*
X1714227Y1434969*
Y1434531*
X1714386Y1434094*
X1714545Y1433875*
X1715023Y1433656*
X1716455*
X1715341D02*
X1714227Y1431250D01*
X1709136Y1435844D02*
Y1432563D01*
X1709136D02*
X1708977Y1431906D01*
X1708659Y1431469*
X1708182Y1431250*
X1707864*
X1707386Y1431469*
X1707068Y1431906*
X1706909Y1432563*
X1706909D02*
Y1435844D01*
X1703250Y1435188D02*
X1703568Y1435625D01*
X1704045Y1435844*
X1704682*
X1705159Y1435625*
X1705477Y1435188*
X1705477D02*
Y1434750D01*
X1705318Y1434313*
X1705318D02*
X1705159Y1434094D01*
X1704841Y1433875*
X1703886Y1433438*
X1703886D02*
X1703568Y1433219D01*
X1703409Y1433000*
X1703250Y1432563*
X1703250D02*
Y1431906D01*
X1703568Y1431469*
X1704045Y1431250*
X1704682*
X1705159Y1431469*
X1705477Y1431906*
X1701818Y1435844D02*
Y1431250D01*
Y1435844D02*
X1699750D01*
X1701818Y1433656D02*
X1700545D01*
X1701818Y1431250D02*
X1699750D01*
X1693705Y1435844D02*
X1694023Y1435625D01*
X1694341Y1435188*
X1694341D02*
X1694500Y1434750D01*
X1694659Y1434094*
Y1433000*
X1694500Y1432344*
X1694341Y1431906*
X1694023Y1431469*
X1693705Y1431250*
X1693068*
X1692750Y1431469*
X1692432Y1431906*
X1692273Y1432344*
X1692114Y1433000*
Y1434094*
X1692273Y1434750*
X1692432Y1435188*
X1692432D02*
X1692750Y1435625D01*
X1693068Y1435844*
X1693705*
X1690682D02*
Y1431250D01*
Y1435844D02*
X1688455Y1431250D01*
Y1435844D02*
Y1431250D01*
X1687023Y1435844D02*
Y1431250D01*
X1685114*
X1683682Y1435844D02*
X1682409Y1433656D01*
Y1431250*
X1681136Y1435844D02*
X1682409Y1433656D01*
X1910000Y1346813D02*
Y1340250D01*
Y1346813D02*
X1907045D01*
X1910000Y1343688D02*
X1908182D01*
X1905000Y1346813D02*
Y1340250D01*
X1902955Y1346813D02*
Y1340250D01*
X1900227*
X1898182Y1346813D02*
Y1340250D01*
Y1346813D02*
X1895227D01*
X1898182Y1343688D02*
X1896364D01*
X1898182Y1340250D02*
X1895227D01*
X1893182Y1346813D02*
Y1340250D01*
Y1346813D02*
X1890000Y1340250D01*
Y1346813D02*
Y1340250D01*
X1886136Y1346813D02*
X1887955Y1340250D01*
X1886136Y1346813D02*
X1884318Y1340250D01*
X1887273Y1342438D02*
X1885000D01*
X1882273Y1346813D02*
Y1340250D01*
Y1346813D02*
X1880455Y1340250D01*
X1878636Y1346813D02*
X1880455Y1340250D01*
X1878636Y1346813D02*
Y1340250D01*
X1876591Y1346813D02*
Y1340250D01*
Y1346813D02*
X1873636D01*
X1876591Y1343688D02*
X1874773D01*
X1876591Y1340250D02*
X1873636D01*
X1871364Y1344625D02*
X1871591Y1344313D01*
X1871591D02*
X1871364Y1344000D01*
X1871136Y1344313*
X1871136D02*
X1871364Y1344625D01*
Y1340875D02*
X1871591Y1340563D01*
X1871591D02*
X1871364Y1340250D01*
X1871136Y1340563*
X1871136D02*
X1871364Y1340875D01*
X1847500Y1346813D02*
Y1340250D01*
Y1346813D02*
X1845909D01*
X1845909D02*
X1845227Y1346500D01*
X1844773Y1345875*
X1844545Y1345250*
X1844318Y1344313*
X1844318D02*
Y1342750D01*
X1844545Y1341813*
X1844545D02*
X1844773Y1341188D01*
X1844773D02*
X1845227Y1340563D01*
X1845227D02*
X1845909Y1340250D01*
X1847500*
X1838864Y1345250D02*
X1839091Y1345875D01*
X1839545Y1346500*
X1840000Y1346813*
X1840000D02*
X1840909D01*
X1840909D02*
X1841364Y1346500D01*
X1841818Y1345875*
X1842045Y1345250*
X1842273Y1344313*
X1842273D02*
Y1342750D01*
X1842045Y1341813*
X1842045D02*
X1841818Y1341188D01*
X1841818D02*
X1841364Y1340563D01*
X1841364D02*
X1840909Y1340250D01*
X1840000*
X1839545Y1340563*
X1839545D02*
X1839091Y1341188D01*
X1839091D02*
X1838864Y1341813D01*
X1836591Y1345250D02*
Y1345563D01*
X1836591D02*
X1836364Y1346188D01*
X1836364D02*
X1836136Y1346500D01*
X1835682Y1346813*
X1835682D02*
X1834773D01*
X1834773D02*
X1834318Y1346500D01*
X1834091Y1346188*
X1834091D02*
X1833864Y1345563D01*
X1833864D02*
Y1344938D01*
X1833864D02*
X1834091Y1344313D01*
X1834091D02*
X1834545Y1343375D01*
X1836818Y1340250*
X1833636*
X1829318Y1346813D02*
X1831591Y1342438D01*
X1831591D02*
X1828182D01*
X1829318Y1346813D02*
Y1340250D01*
X1823409Y1345875D02*
X1823636Y1346500D01*
X1824318Y1346813*
X1824318D02*
X1824773D01*
X1824773D02*
X1825455Y1346500D01*
X1825909Y1345563*
X1825909D02*
X1826136Y1344000D01*
Y1342438*
X1826136D02*
X1825909Y1341188D01*
X1825909D02*
X1825455Y1340563D01*
X1825455D02*
X1824773Y1340250D01*
X1824545*
X1823864Y1340563*
X1823864D02*
X1823409Y1341188D01*
X1823409D02*
X1823182Y1342125D01*
Y1342438*
X1823182D02*
X1823409Y1343375D01*
X1823864Y1344000*
X1824545Y1344313*
X1824545D02*
X1824773D01*
X1824773D02*
X1825455Y1344000D01*
X1825909Y1343375*
X1826136Y1342438*
X1818182Y1346813D02*
X1820455D01*
X1820455D02*
X1820682Y1344000D01*
X1820455Y1344313*
X1820455D02*
X1819773Y1344625D01*
X1819091*
X1818409Y1344313*
X1818409D02*
X1817955Y1343688D01*
X1817955D02*
X1817727Y1342750D01*
X1817955Y1342125*
X1818182Y1341188*
X1818182D02*
X1818636Y1340563D01*
X1818636D02*
X1819318Y1340250D01*
X1820000*
X1820682Y1340563*
X1820682D02*
X1820909Y1340875D01*
X1821136Y1341500*
X1813864Y1346813D02*
X1815682Y1340250D01*
X1813864Y1346813D02*
X1812045Y1340250D01*
X1815000Y1342438D02*
X1812727D01*
X1810000Y1343063D02*
X1805909D01*
X1803864Y1345563D02*
X1803409Y1345875D01*
X1802727Y1346813*
X1802727D02*
Y1340250D01*
X1800455Y1340875D02*
X1800682Y1340563D01*
X1800682D02*
X1800455Y1340250D01*
X1800227Y1340563*
X1800227D02*
X1800455Y1340875D01*
X1798182Y1346813D02*
Y1340250D01*
Y1346813D02*
X1796136D01*
X1796136D02*
X1795455Y1346500D01*
X1795227Y1346188*
X1795227D02*
X1795000Y1345563D01*
X1795000D02*
Y1344625D01*
X1795227Y1344000*
X1795455Y1343688*
X1795455D02*
X1796136Y1343375D01*
X1798182*
X1789545Y1345250D02*
X1789773Y1345875D01*
X1790227Y1346500*
X1790682Y1346813*
X1790682D02*
X1791591D01*
X1791591D02*
X1792045Y1346500D01*
X1792500Y1345875*
X1792727Y1345250*
X1792955Y1344313*
X1792955D02*
Y1342750D01*
X1792727Y1341813*
X1792727D02*
X1792500Y1341188D01*
X1792500D02*
X1792045Y1340563D01*
X1792045D02*
X1791591Y1340250D01*
X1790682*
X1790227Y1340563*
X1790227D02*
X1789773Y1341188D01*
X1789773D02*
X1789545Y1341813D01*
X1787500Y1346813D02*
Y1340250D01*
Y1346813D02*
X1785455D01*
X1785455D02*
X1784773Y1346500D01*
X1784545Y1346188*
X1784545D02*
X1784318Y1345563D01*
X1784318D02*
Y1344938D01*
X1784318D02*
X1784545Y1344313D01*
X1784545D02*
X1784773Y1344000D01*
X1785455Y1343688*
X1787500D02*
X1785455D01*
X1785455D02*
X1784773Y1343375D01*
X1784545Y1343063*
X1784545D02*
X1784318Y1342438D01*
X1784318D02*
Y1341500D01*
X1784545Y1340875*
X1784773Y1340563*
X1784773D02*
X1785455Y1340250D01*
X1787500*
X2009318Y1345875D02*
X2009773Y1346500D01*
X2010455Y1346813*
X2010455D02*
X2011364D01*
X2011364D02*
X2012045Y1346500D01*
X2012500Y1345875*
Y1345250*
X2012273Y1344625*
X2012045Y1344313*
X2012045D02*
X2011591Y1344000D01*
X2010227Y1343375*
X2009773Y1343063*
X2009773D02*
X2009545Y1342750D01*
X2009318Y1342125*
Y1341188*
X2009318D02*
X2009773Y1340563D01*
X2009773D02*
X2010455Y1340250D01*
X2011364*
X2012045Y1340563*
X2012045D02*
X2012500Y1341188D01*
X2003864Y1345250D02*
X2004091Y1345875D01*
X2004545Y1346500*
X2005000Y1346813*
X2005000D02*
X2005909D01*
X2005909D02*
X2006364Y1346500D01*
X2006818Y1345875*
X2007045Y1345250*
X2007273Y1344313*
X2007273D02*
Y1342750D01*
X2007045Y1341813*
X2007045D02*
X2006818Y1341188D01*
X2006818D02*
X2006364Y1340563D01*
X2006364D02*
X2005909Y1340250D01*
X2005000*
X2004545Y1340563*
X2004545D02*
X2004091Y1341188D01*
X2004091D02*
X2003864Y1341813D01*
X2000000Y1346813D02*
X2001818Y1340250D01*
X2000000Y1346813D02*
X1998182Y1340250D01*
X2001136Y1342438D02*
X1998864D01*
X1996136Y1346813D02*
Y1340250D01*
X1993409*
X1991364Y1346813D02*
Y1340250D01*
Y1346813D02*
X1988409D01*
X1991364Y1343688D02*
X1989545D01*
X1991364Y1340250D02*
X1988409D01*
X1981136Y1344000D02*
X1977045D01*
X1981136Y1342125D02*
X1977045D01*
X1969773Y1346813D02*
Y1340250D01*
Y1346813D02*
X1966591Y1340250D01*
Y1346813D02*
Y1340250D01*
X1963182Y1346813D02*
X1963636Y1346500D01*
X1964091Y1345875*
X1964318Y1345250*
X1964545Y1344313*
X1964545D02*
Y1342750D01*
X1964318Y1341813*
X1964318D02*
X1964091Y1341188D01*
X1964091D02*
X1963636Y1340563D01*
X1963636D02*
X1963182Y1340250D01*
X1962273*
X1961818Y1340563*
X1961818D02*
X1961364Y1341188D01*
X1961364D02*
X1961136Y1341813D01*
X1961136D02*
X1960909Y1342750D01*
Y1344313*
X1960909D02*
X1961136Y1345250D01*
X1961364Y1345875*
X1961818Y1346500*
X1962273Y1346813*
X1962273D02*
X1963182D01*
X1958864D02*
Y1340250D01*
Y1346813D02*
X1955682Y1340250D01*
Y1346813D02*
Y1340250D01*
X1953636Y1346813D02*
Y1340250D01*
Y1346813D02*
X1950682D01*
X1953636Y1343688D02*
X1951818D01*
X1953636Y1340250D02*
X1950682D01*
X2020682Y1421813D02*
X2022500Y1415250D01*
X2020682Y1421813D02*
X2018864Y1415250D01*
X2021818Y1417438D02*
X2019545D01*
X2016818Y1421813D02*
Y1415250D01*
Y1421813D02*
X2014773D01*
X2014773D02*
X2014091Y1421500D01*
X2013864Y1421188*
X2013864D02*
X2013636Y1420563D01*
X2013636D02*
Y1419625D01*
X2013864Y1419000*
X2014091Y1418688*
X2014091D02*
X2014773Y1418375D01*
X2016818*
X2011591Y1421813D02*
Y1415250D01*
Y1421813D02*
X2009545D01*
X2009545D02*
X2008864Y1421500D01*
X2008636Y1421188*
X2008636D02*
X2008409Y1420563D01*
X2008409D02*
Y1419625D01*
X2008636Y1419000*
X2008864Y1418688*
X2008864D02*
X2009545Y1418375D01*
X2011591*
X2001136Y1421813D02*
Y1415250D01*
Y1421813D02*
X1998182D01*
X2001136Y1418688D02*
X1999318D01*
X2001136Y1415250D02*
X1998182D01*
X1996136Y1421813D02*
Y1415250D01*
Y1421813D02*
X1992955Y1415250D01*
Y1421813D02*
Y1415250D01*
X1987500Y1420250D02*
X1987727Y1420875D01*
X1988182Y1421500*
X1988636Y1421813*
X1988636D02*
X1989545D01*
X1989545D02*
X1990000Y1421500D01*
X1990455Y1420875*
X1990682Y1420250*
X1990909Y1419313*
X1990909D02*
Y1417750D01*
X1990682Y1416813*
X1990682D02*
X1990455Y1416188D01*
X1990455D02*
X1990000Y1415563D01*
X1990000D02*
X1989545Y1415250D01*
X1988636*
X1988182Y1415563*
X1988182D02*
X1987727Y1416188D01*
X1987727D02*
X1987500Y1416813D01*
X1987500D02*
Y1417750D01*
X1988636D02*
X1987500D01*
X1985227Y1415875D02*
X1985455Y1415563D01*
X1985455D02*
X1985227Y1415250D01*
X1985000Y1415563*
X1985000D02*
X1985227Y1415875D01*
X1965000Y1421813D02*
Y1415250D01*
X1961818Y1421813D02*
X1965000Y1417438D01*
X1963864Y1419000D02*
X1961818Y1415250D01*
X1957955Y1421813D02*
X1959773Y1415250D01*
X1957955Y1421813D02*
X1956136Y1415250D01*
X1959091Y1417438D02*
X1956818D01*
X1954091Y1421813D02*
Y1417125D01*
X1953864Y1416188*
X1953864D02*
X1953409Y1415563D01*
X1953409D02*
X1952727Y1415250D01*
X1952273*
X1951591Y1415563*
X1951591D02*
X1951136Y1416188D01*
X1951136D02*
X1950909Y1417125D01*
Y1421813*
X1948864D02*
Y1415250D01*
Y1421813D02*
X1945682Y1415250D01*
Y1421813D02*
Y1415250D01*
X1940227Y1420250D02*
X1940455Y1420875D01*
X1940909Y1421500*
X1941364Y1421813*
X1941364D02*
X1942273D01*
X1942273D02*
X1942727Y1421500D01*
X1943182Y1420875*
X1943409Y1420250*
X1943636Y1419313*
X1943636D02*
Y1417750D01*
X1943409Y1416813*
X1943409D02*
X1943182Y1416188D01*
X1943182D02*
X1942727Y1415563D01*
X1942727D02*
X1942273Y1415250D01*
X1941364*
X1940909Y1415563*
X1940909D02*
X1940455Y1416188D01*
X1940455D02*
X1940227Y1416813D01*
X1940227D02*
Y1417750D01*
X1941364D02*
X1940227D01*
X1932955Y1421813D02*
Y1415250D01*
X1929773Y1421813D02*
Y1415250D01*
X1932955Y1418688D02*
X1929773D01*
X1927500Y1415875D02*
X1927727Y1415563D01*
X1927727D02*
X1927500Y1415250D01*
X1927273Y1415563*
X1927273D02*
X1927500Y1415875D01*
X1960000Y1439313D02*
Y1432750D01*
X1956818Y1439313D02*
X1960000Y1434938D01*
X1958864Y1436500D02*
X1956818Y1432750D01*
X1952955Y1439313D02*
X1954773Y1432750D01*
X1952955Y1439313D02*
X1951136Y1432750D01*
X1954091Y1434938D02*
X1951818D01*
X1949091Y1439313D02*
Y1434625D01*
X1948864Y1433688*
X1948864D02*
X1948409Y1433063D01*
X1948409D02*
X1947727Y1432750D01*
X1947273*
X1946591Y1433063*
X1946591D02*
X1946136Y1433688D01*
X1946136D02*
X1945909Y1434625D01*
Y1439313*
X1943864D02*
Y1432750D01*
Y1439313D02*
X1940682Y1432750D01*
Y1439313D02*
Y1432750D01*
X1935227Y1437750D02*
X1935455Y1438375D01*
X1935909Y1439000*
X1936364Y1439313*
X1936364D02*
X1937273D01*
X1937273D02*
X1937727Y1439000D01*
X1938182Y1438375*
X1938409Y1437750*
X1938636Y1436813*
X1938636D02*
Y1435250D01*
X1938409Y1434313*
X1938409D02*
X1938182Y1433688D01*
X1938182D02*
X1937727Y1433063D01*
X1937727D02*
X1937273Y1432750D01*
X1936364*
X1935909Y1433063*
X1935909D02*
X1935455Y1433688D01*
X1935455D02*
X1935227Y1434313D01*
X1935227D02*
Y1435250D01*
X1936364D02*
X1935227D01*
X1927955Y1439313D02*
Y1432750D01*
X1924773Y1439313D02*
Y1432750D01*
X1927955Y1436188D02*
X1924773D01*
X1922500Y1433375D02*
X1922727Y1433063D01*
X1922727D02*
X1922500Y1432750D01*
X1922273Y1433063*
X1922273D02*
X1922500Y1433375D01*
X2022500Y1439313D02*
Y1432750D01*
Y1439313D02*
X2020455D01*
X2020455D02*
X2019773Y1439000D01*
X2019545Y1438688*
X2019545D02*
X2019318Y1438063D01*
X2019318D02*
Y1437125D01*
X2019545Y1436500*
X2019773Y1436188*
X2019773D02*
X2020455Y1435875D01*
X2022500*
X2013864Y1437750D02*
X2014091Y1438375D01*
X2014545Y1439000*
X2015000Y1439313*
X2015000D02*
X2015909D01*
X2015909D02*
X2016364Y1439000D01*
X2016818Y1438375*
X2017045Y1437750*
X2017273Y1436813*
X2017273D02*
Y1435250D01*
X2017045Y1434313*
X2017045D02*
X2016818Y1433688D01*
X2016818D02*
X2016364Y1433063D01*
X2016364D02*
X2015909Y1432750D01*
X2015000*
X2014545Y1433063*
X2014545D02*
X2014091Y1433688D01*
X2014091D02*
X2013864Y1434313D01*
X2011818Y1439313D02*
Y1432750D01*
Y1439313D02*
X2009773D01*
X2009773D02*
X2009091Y1439000D01*
X2008864Y1438688*
X2008864D02*
X2008636Y1438063D01*
X2008636D02*
Y1437438D01*
X2008636D02*
X2008864Y1436813D01*
X2008864D02*
X2009091Y1436500D01*
X2009773Y1436188*
X2011818D02*
X2009773D01*
X2009773D02*
X2009091Y1435875D01*
X2008864Y1435563*
X2008864D02*
X2008636Y1434938D01*
X2008636D02*
Y1434000D01*
X2008864Y1433375*
X2009091Y1433063*
X2009091D02*
X2009773Y1432750D01*
X2011818*
X2001364Y1439313D02*
Y1432750D01*
Y1439313D02*
X1999773D01*
X1999773D02*
X1999091Y1439000D01*
X1998636Y1438375*
X1998409Y1437750*
X1998182Y1436813*
X1998182D02*
Y1435250D01*
X1998409Y1434313*
X1998409D02*
X1998636Y1433688D01*
X1998636D02*
X1999091Y1433063D01*
X1999091D02*
X1999773Y1432750D01*
X2001364*
X1996136Y1439313D02*
Y1432750D01*
Y1439313D02*
X1993182D01*
X1996136Y1436188D02*
X1994318D01*
X1996136Y1432750D02*
X1993182D01*
X1987955Y1438375D02*
X1988409Y1439000D01*
X1989091Y1439313*
X1989091D02*
X1990000D01*
X1990000D02*
X1990682Y1439000D01*
X1991136Y1438375*
Y1437750*
X1990909Y1437125*
X1990682Y1436813*
X1990682D02*
X1990227Y1436500D01*
X1988864Y1435875*
X1988409Y1435563*
X1988409D02*
X1988182Y1435250D01*
X1987955Y1434625*
Y1433688*
X1987955D02*
X1988409Y1433063D01*
X1988409D02*
X1989091Y1432750D01*
X1990000*
X1990682Y1433063*
X1990682D02*
X1991136Y1433688D01*
X1985682Y1433375D02*
X1985909Y1433063D01*
X1985909D02*
X1985682Y1432750D01*
X1985455Y1433063*
X1985455D02*
X1985682Y1433375D01*
X1757500Y1456844D02*
Y1452250D01*
Y1456844D02*
X1756068D01*
X1755591Y1456625*
X1755432Y1456406*
X1755273Y1455969*
Y1455313*
X1755273D02*
X1755432Y1454875D01*
X1755591Y1454656*
X1756068Y1454438*
X1756068D02*
X1757500D01*
X1753841Y1456844D02*
Y1452250D01*
X1751614Y1456844D02*
Y1452250D01*
X1753841Y1454656D02*
X1751614D01*
X1750023Y1455313D02*
X1750182Y1455094D01*
X1750023Y1454875*
X1749864Y1455094*
X1750023Y1455313*
Y1452688D02*
X1750182Y1452469D01*
X1750023Y1452250*
X1749864Y1452469*
X1750023Y1452688*
X1743659Y1457719D02*
X1743977Y1457281D01*
X1744295Y1456625*
X1744614Y1455750*
X1744773Y1454656*
Y1453781*
X1744614Y1452688*
X1744614D02*
X1744295Y1451812D01*
X1744295D02*
X1743977Y1451156D01*
X1743659Y1450719*
X1740636Y1456844D02*
X1742227Y1453781D01*
X1739841*
X1740636Y1456844D02*
Y1452250D01*
X1737455Y1456844D02*
X1737932Y1456625D01*
X1738250Y1455969*
X1738409Y1454875*
Y1454219*
X1738250Y1453125*
X1737932Y1452469*
X1737455Y1452250*
X1737136*
X1736659Y1452469*
X1736341Y1453125*
X1736182Y1454219*
Y1454875*
X1736341Y1455969*
X1736659Y1456625*
X1737136Y1456844*
X1737455*
X1733955D02*
X1734432Y1456625D01*
X1734591Y1456188*
X1734591D02*
Y1455750D01*
X1734432Y1455313*
X1734432D02*
X1734114Y1455094D01*
X1733477Y1454875*
X1733000Y1454656*
X1732682Y1454219*
X1732523Y1453781*
Y1453125*
X1732682Y1452688*
X1732682D02*
X1732841Y1452469D01*
X1733318Y1452250*
X1733955*
X1734432Y1452469*
X1734591Y1452688*
X1734591D02*
X1734750Y1453125D01*
Y1453781*
X1734591Y1454219*
X1734273Y1454656*
X1733795Y1454875*
X1733159Y1455094*
X1732841Y1455313*
X1732841D02*
X1732682Y1455750D01*
Y1456188*
X1732682D02*
X1732841Y1456625D01*
X1733318Y1456844*
X1733955*
X1731091Y1457719D02*
X1730773Y1457281D01*
X1730455Y1456625*
X1730136Y1455750*
X1729977Y1454656*
Y1453781*
X1730136Y1452688*
X1730136D02*
X1730455Y1451812D01*
X1730455D02*
X1730773Y1451156D01*
X1731091Y1450719*
X1726955Y1456844D02*
X1728545Y1453781D01*
X1726159*
X1726955Y1456844D02*
Y1452250D01*
X1724409Y1456844D02*
X1722659D01*
X1723614Y1455094*
X1723136*
X1722818Y1454875*
X1722659Y1454656*
X1722500Y1454000*
Y1453563*
X1722500D02*
X1722659Y1452906D01*
X1722977Y1452469*
X1723455Y1452250*
X1723932*
X1724409Y1452469*
X1724568Y1452688*
X1724568D02*
X1724727Y1453125D01*
X1720909Y1455750D02*
Y1455969D01*
X1720750Y1456406*
X1720591Y1456625*
X1720273Y1456844*
X1719636*
X1719318Y1456625*
X1719159Y1456406*
X1719000Y1455969*
Y1455531*
X1719159Y1455094*
X1719477Y1454438*
X1719477D02*
X1721068Y1452250D01*
X1718841*
X1717409Y1454219D02*
X1714545D01*
X1713114Y1455969D02*
X1712795Y1456188D01*
X1712795D02*
X1712318Y1456844D01*
Y1452250*
X1708818Y1455313D02*
X1708977Y1454656D01*
X1709295Y1454219*
X1709773Y1454000*
X1709932*
X1710409Y1454219*
X1710727Y1454656*
X1710886Y1455313*
X1710886D02*
Y1455531D01*
X1710727Y1456188*
X1710727D02*
X1710409Y1456625D01*
X1709932Y1456844*
X1709773*
X1709295Y1456625*
X1708977Y1456188*
X1708977D02*
X1708818Y1455313D01*
X1708818D02*
Y1454219D01*
X1708977Y1453125*
X1709295Y1452469*
X1709773Y1452250*
X1710091*
X1710568Y1452469*
X1710727Y1452906*
X1706432Y1456844D02*
X1706909Y1456625D01*
X1707227Y1455969*
X1707386Y1454875*
Y1454219*
X1707227Y1453125*
X1706909Y1452469*
X1706432Y1452250*
X1706114*
X1705636Y1452469*
X1705318Y1453125*
X1705159Y1454219*
Y1454875*
X1705318Y1455969*
X1705636Y1456625*
X1706114Y1456844*
X1706432*
X1702773D02*
X1703250Y1456625D01*
X1703568Y1455969*
X1703727Y1454875*
Y1454219*
X1703568Y1453125*
X1703250Y1452469*
X1702773Y1452250*
X1702455*
X1701977Y1452469*
X1701659Y1453125*
X1701500Y1454219*
Y1454875*
X1701659Y1455969*
X1701977Y1456625*
X1702455Y1456844*
X1702773*
X1757500Y1469969D02*
X1757182Y1470188D01*
X1757182D02*
X1756705Y1470844D01*
Y1466250*
X1753364Y1470188D02*
X1753523Y1470625D01*
X1754000Y1470844*
X1754318*
X1754795Y1470625*
X1755114Y1469969*
X1755273Y1468875*
Y1467781*
X1755114Y1466906*
X1754795Y1466469*
X1754318Y1466250*
X1754159*
X1753682Y1466469*
X1753364Y1466906*
X1753205Y1467563*
X1753205D02*
Y1467781D01*
X1753364Y1468438*
X1753364D02*
X1753682Y1468875D01*
X1754159Y1469094*
X1754318*
X1754795Y1468875*
X1755114Y1468438*
X1755114D02*
X1755273Y1467781D01*
X1751455Y1470844D02*
X1749705D01*
X1750659Y1469094*
X1750182*
X1749864Y1468875*
X1749705Y1468656*
X1749545Y1468000*
Y1467563*
X1749545D02*
X1749705Y1466906D01*
X1750023Y1466469*
X1750500Y1466250*
X1750977*
X1751455Y1466469*
X1751614Y1466688*
X1751614D02*
X1751773Y1467125D01*
X1747159Y1470844D02*
X1747636Y1470625D01*
X1747955Y1469969*
X1748114Y1468875*
Y1468219*
X1747955Y1467125*
X1747636Y1466469*
X1747159Y1466250*
X1746841*
X1746364Y1466469*
X1746045Y1467125*
X1745886Y1468219*
Y1468875*
X1746045Y1469969*
X1746364Y1470625*
X1746841Y1470844*
X1747159*
X1740795D02*
Y1466250D01*
Y1470844D02*
X1739523Y1466250D01*
X1738250Y1470844D02*
X1739523Y1466250D01*
X1738250Y1470844D02*
Y1466250D01*
X1734432Y1469750D02*
X1734591Y1470188D01*
X1734591D02*
X1734909Y1470625D01*
X1735227Y1470844*
X1735864*
X1736182Y1470625*
X1736500Y1470188*
X1736500D02*
X1736659Y1469750D01*
X1736818Y1469094*
Y1468000*
X1736659Y1467344*
X1736500Y1466906*
X1736182Y1466469*
X1735864Y1466250*
X1735227*
X1734909Y1466469*
X1734591Y1466906*
X1734432Y1467344*
X1730614Y1469750D02*
X1730773Y1470188D01*
X1730773D02*
X1731091Y1470625D01*
X1731409Y1470844*
X1732045*
X1732364Y1470625*
X1732682Y1470188*
X1732682D02*
X1732841Y1469750D01*
X1733000Y1469094*
Y1468000*
X1732841Y1467344*
X1732682Y1466906*
X1732364Y1466469*
X1732045Y1466250*
X1731409*
X1731091Y1466469*
X1730773Y1466906*
X1730614Y1467344*
X1727909Y1470844D02*
X1729182Y1466250D01*
X1727909Y1470844D02*
X1726636Y1466250D01*
X1728705Y1467781D02*
X1727114D01*
X1725205Y1470844D02*
Y1466250D01*
Y1470844D02*
X1723773D01*
X1723295Y1470625*
X1723136Y1470406*
X1722977Y1469969*
Y1469531*
X1723136Y1469094*
X1723295Y1468875*
X1723773Y1468656*
X1725205*
X1724091D02*
X1722977Y1466250D01*
X1720432Y1470844D02*
Y1466250D01*
X1721545Y1470844D02*
X1719318D01*
X1717886D02*
Y1466250D01*
X1715659Y1470844D02*
Y1466250D01*
X1717886Y1468656D02*
X1715659D01*
X1714227Y1470844D02*
X1712955Y1468656D01*
Y1466250*
X1711682Y1470844D02*
X1712955Y1468656D01*
X1706591Y1470844D02*
Y1466250D01*
Y1470844D02*
X1705159D01*
X1704682Y1470625*
X1704523Y1470406*
X1704364Y1469969*
Y1469531*
X1704523Y1469094*
X1704682Y1468875*
X1705159Y1468656*
X1706591D02*
X1705159D01*
X1704682Y1468438*
X1704682D02*
X1704523Y1468219D01*
X1704364Y1467781*
Y1467125*
X1704523Y1466688*
X1704523D02*
X1704682Y1466469D01*
X1705159Y1466250*
X1706591*
X1702932Y1470844D02*
Y1466250D01*
X1701023*
X1699591Y1470844D02*
X1698318Y1466250D01*
X1697045Y1470844D02*
X1698318Y1466250D01*
X1695614Y1470844D02*
Y1466250D01*
Y1470844D02*
X1694500D01*
X1694023Y1470625*
X1693705Y1470188*
X1693705D02*
X1693545Y1469750D01*
X1693386Y1469094*
Y1468000*
X1693545Y1467344*
X1693705Y1466906*
X1694023Y1466469*
X1694500Y1466250*
X1695614*
X1757500Y1463844D02*
Y1459250D01*
Y1463844D02*
X1756227Y1459250D01*
X1754955Y1463844D02*
X1756227Y1459250D01*
X1754955Y1463844D02*
Y1459250D01*
X1753523Y1463844D02*
Y1459250D01*
X1752091Y1463844D02*
Y1459250D01*
X1750182*
X1748750Y1463844D02*
Y1459250D01*
Y1463844D02*
X1747318D01*
X1746841Y1463625*
X1746682Y1463406*
X1746523Y1462969*
Y1462313*
X1746523D02*
X1746682Y1461875D01*
X1746841Y1461656*
X1747318Y1461438*
X1747318D02*
X1748750D01*
X1745091Y1463844D02*
Y1459250D01*
X1742545Y1463844D02*
Y1459250D01*
X1743659Y1463844D02*
X1741432D01*
X1738727D02*
X1740000Y1459250D01*
X1738727Y1463844D02*
X1737455Y1459250D01*
X1739523Y1460781D02*
X1737932D01*
X1733795Y1463188D02*
X1734114Y1463625D01*
X1734591Y1463844*
X1735227*
X1735705Y1463625*
X1736023Y1463188*
X1736023D02*
Y1462750D01*
X1735864Y1462313*
X1735864D02*
X1735705Y1462094D01*
X1735386Y1461875*
X1734432Y1461438*
X1734432D02*
X1734114Y1461219D01*
X1733955Y1461000*
X1733795Y1460563*
X1733795D02*
Y1459906D01*
X1734114Y1459469*
X1734591Y1459250*
X1735227*
X1735705Y1459469*
X1736023Y1459906*
X1732045Y1459469D02*
X1732205Y1459250D01*
X1732364Y1459469*
X1732205Y1459688*
X1732205D02*
X1732045Y1459469D01*
Y1459031*
X1732205Y1458594*
X1732364Y1458375*
X1724568Y1462750D02*
X1724727Y1463188D01*
X1724727D02*
X1725045Y1463625D01*
X1725364Y1463844*
X1726000*
X1726318Y1463625*
X1726636Y1463188*
X1726636D02*
X1726795Y1462750D01*
X1726955Y1462094*
Y1461000*
X1726795Y1460344*
X1726636Y1459906*
X1726318Y1459469*
X1726000Y1459250*
X1725364*
X1725045Y1459469*
X1724727Y1459906*
X1724568Y1460344*
X1721864Y1463844D02*
X1723136Y1459250D01*
X1721864Y1463844D02*
X1720591Y1459250D01*
X1722659Y1460781D02*
X1721068D01*
X1713432Y1462313D02*
X1713591Y1461656D01*
X1713909Y1461219*
X1714386Y1461000*
X1714545*
X1715023Y1461219*
X1715341Y1461656*
X1715500Y1462313*
X1715500D02*
Y1462531D01*
X1715341Y1463188*
X1715341D02*
X1715023Y1463625D01*
X1714545Y1463844*
X1714386*
X1713909Y1463625*
X1713591Y1463188*
X1713591D02*
X1713432Y1462313D01*
X1713432D02*
Y1461219D01*
X1713591Y1460125*
X1713909Y1459469*
X1714386Y1459250*
X1714705*
X1715182Y1459469*
X1715341Y1459906*
X1709932Y1463844D02*
X1711523D01*
X1711682Y1461875*
X1711523Y1462094*
X1711045Y1462313*
X1711045D02*
X1710568D01*
X1710568D02*
X1710091Y1462094D01*
X1709773Y1461656*
X1709614Y1461000*
X1709773Y1460563*
X1709773D02*
X1709932Y1459906D01*
X1710250Y1459469*
X1710727Y1459250*
X1711205*
X1711682Y1459469*
X1711841Y1459688*
X1711841D02*
X1712000Y1460125D01*
X1707227Y1463844D02*
X1707705Y1463625D01*
X1708023Y1462969*
X1708182Y1461875*
Y1461219*
X1708023Y1460125*
X1707705Y1459469*
X1707227Y1459250*
X1706909*
X1706432Y1459469*
X1706114Y1460125*
X1705955Y1461219*
Y1461875*
X1706114Y1462969*
X1706432Y1463625*
X1706909Y1463844*
X1707227*
X1704205D02*
X1702455D01*
X1703409Y1462094*
X1702932*
X1702614Y1461875*
X1702455Y1461656*
X1702295Y1461000*
Y1460563*
X1702295D02*
X1702455Y1459906D01*
X1702773Y1459469*
X1703250Y1459250*
X1703727*
X1704205Y1459469*
X1704364Y1459688*
X1704364D02*
X1704523Y1460125D01*
X1698795Y1463844D02*
X1700386D01*
X1700545Y1461875*
X1700386Y1462094*
X1699909Y1462313*
X1699909D02*
X1699432D01*
X1699432D02*
X1698955Y1462094D01*
X1698636Y1461656*
X1698477Y1461000*
X1698636Y1460563*
X1698636D02*
X1698795Y1459906D01*
X1699114Y1459469*
X1699591Y1459250*
X1700068*
X1700545Y1459469*
X1700705Y1459688*
X1700705D02*
X1700864Y1460125D01*
X1757500Y1448750D02*
X1756773Y1445250D01*
X1756045Y1448750D02*
X1756773Y1445250D01*
X1756045Y1448750D02*
X1755318Y1445250D01*
X1754591Y1448750D02*
X1755318Y1445250D01*
X1752955Y1448750D02*
X1752227Y1445250D01*
X1751500Y1448750D02*
X1752227Y1445250D01*
X1751500Y1448750D02*
X1750773Y1445250D01*
X1750045Y1448750D02*
X1750773Y1445250D01*
X1748409Y1448750D02*
X1747682Y1445250D01*
X1746955Y1448750D02*
X1747682Y1445250D01*
X1746955Y1448750D02*
X1746227Y1445250D01*
X1745500Y1448750D02*
X1746227Y1445250D01*
X1743682Y1445750D02*
X1743864Y1445500D01*
X1743682Y1445250*
X1743500Y1445500*
X1743682Y1445750*
X1741864Y1450500D02*
Y1445250D01*
X1740227Y1450500D02*
X1740045Y1450250D01*
X1739864Y1450500*
X1740045Y1450750*
X1740227Y1450500*
X1740045Y1448750D02*
Y1445250D01*
X1738227Y1448750D02*
Y1445250D01*
Y1447750D02*
X1737682Y1448500D01*
X1737318Y1448750*
X1736773*
X1736409Y1448500*
X1736227Y1447750*
Y1445250*
X1734591Y1447250D02*
X1732409D01*
Y1447750*
X1732591Y1448250*
X1732773Y1448500*
X1733136Y1448750*
X1733682*
X1734045Y1448500*
X1734409Y1448000*
X1734591Y1447250*
Y1446750*
X1734409Y1446000*
X1734045Y1445500*
X1733682Y1445250*
X1733136*
X1732773Y1445500*
X1732409Y1446000*
X1728591Y1448750D02*
Y1445250D01*
Y1448000D02*
X1728955Y1448500D01*
X1729318Y1448750*
X1729864*
X1730227Y1448500*
X1730591Y1448000*
X1730773Y1447250*
Y1446750*
X1730591Y1446000*
X1730227Y1445500*
X1729864Y1445250*
X1729318*
X1728955Y1445500*
X1728591Y1446000*
X1726955Y1448750D02*
Y1445250D01*
Y1447250D02*
X1726773Y1448000D01*
X1726409Y1448500*
X1726045Y1448750*
X1725500*
X1723682Y1445750D02*
X1723864Y1445500D01*
X1723682Y1445250*
X1723500Y1445500*
X1723682Y1445750*
X1719682Y1448000D02*
X1720045Y1448500D01*
X1720409Y1448750*
X1720955*
X1721318Y1448500*
X1721682Y1448000*
X1721864Y1447250*
Y1446750*
X1721682Y1446000*
X1721318Y1445500*
X1720955Y1445250*
X1720409*
X1720045Y1445500*
X1719682Y1446000*
X1717136Y1448750D02*
X1717500Y1448500D01*
X1717864Y1448000*
X1718045Y1447250*
Y1446750*
X1717864Y1446000*
X1717500Y1445500*
X1717136Y1445250*
X1716591*
X1716227Y1445500*
X1715864Y1446000*
X1715682Y1446750*
Y1447250*
X1715864Y1448000*
X1716227Y1448500*
X1716591Y1448750*
X1717136*
X1714045D02*
Y1445250D01*
Y1447750D02*
X1713500Y1448500D01*
X1713136Y1448750*
X1712591*
X1712227Y1448500*
X1712045Y1447750*
Y1445250*
Y1447750D02*
X1711500Y1448500D01*
X1711136Y1448750*
X1710591*
X1710227Y1448500*
X1710045Y1447750*
Y1445250*
X1893942Y1448102D02*
G75*
G03X1906698Y1436301I23587J12700D01*
G01X1893942Y1448102D02*
X1890820Y1457468D01*
G03X1880038Y1466698I-18784J-11031*
G01X1887395Y1449644D02*
G03X1880038Y1466698I-53214J-12844D01*
G01X1877369Y1439051D02*
G03X1887395Y1449644I779J9304D01*
G01X1877369Y1439051D02*
X1873462D01*
X1875296Y1436301*
X1906698*
X1857989Y1454750D02*
G03X1845233Y1466551I-23587J-12700D01*
G01X1857989Y1454750D02*
X1861111Y1445384D01*
G03X1871893Y1436154I18784J11031*
G01X1864536Y1453208D02*
G03X1871893Y1436154I53214J12844D01*
G01X1874562Y1463801D02*
G03X1864536Y1453208I-779J-9304D01*
G01X1874562Y1463801D02*
X1878469D01*
X1876635Y1466551*
X1845233*
X1840153Y1467801D02*
Y1448801D01*
X1828653*
Y1450926*
X1838028*
Y1467801*
X1840153*
X1825153D02*
Y1448801D01*
X1822403*
Y1467801*
X1825153*
X1820153D02*
Y1448801D01*
X1817403*
Y1467801*
X1820153*
X1807653D02*
Y1448801D01*
X1804903*
Y1467801*
X1807653*
X1817028Y1467367D02*
X1806778Y1460533D01*
Y1457985*
X1817028Y1464819*
Y1467367*
X1798903Y1465051D02*
X1791778D01*
Y1467801*
X1798903*
Y1465051*
X1802653Y1458801D02*
X1791778D01*
Y1461551*
X1802653*
Y1458801*
X1801403Y1467801D02*
Y1455846D01*
X1795562Y1448801D02*
G03X1801403Y1455846I-3345J8717D01*
G01X1795562Y1448801D02*
X1790528D01*
Y1451551*
X1793119*
G03X1798653Y1457085I657J4877*
G01Y1467801*
X1801403*
X1783778Y1467780D02*
X1792980Y1448801D01*
X1789110*
X1783805Y1461401*
X1777837Y1448801*
X1774576*
X1783778Y1467780*
X1786403Y1455676D02*
X1781153D01*
Y1458426*
X1786403*
Y1455676*
X1773903Y1448801D02*
Y1467801D01*
X1776653*
Y1448801*
X1773903*
X1774528Y1467801D02*
X1767648D01*
G03Y1453801I3636J-7000*
G01X1774528*
Y1457176*
X1770584*
Y1465051D02*
G03Y1457176I1074J-3938D01*
G01Y1465051D02*
X1774528D01*
Y1467801*
Y1454101D02*
X1764278Y1448634D01*
Y1452351*
X1774528Y1456907*
Y1454101*
X1874696Y1437200D02*
X1904858D01*
X1874096Y1438100D02*
X1903308D01*
X1873496Y1439000D02*
X1901964D01*
X1882108Y1439900D02*
X1900774D01*
X1883633Y1440800D02*
X1899710D01*
X1884696Y1441700D02*
X1898748D01*
X1885500Y1442600D02*
X1897875D01*
X1886123Y1443500D02*
X1897078D01*
X1886605Y1444400D02*
X1896349D01*
X1886970Y1445300D02*
X1895682D01*
X1887232Y1446200D02*
X1895070D01*
X1887400Y1447100D02*
X1894510D01*
X1887478Y1448000D02*
X1893998D01*
X1887468Y1448900D02*
X1893676D01*
X1887357Y1449800D02*
X1893376D01*
X1887129Y1450700D02*
X1893076D01*
X1886885Y1451600D02*
X1892776D01*
X1886623Y1452500D02*
X1892476D01*
X1886346Y1453400D02*
X1892176D01*
X1886051Y1454300D02*
X1891876D01*
X1885738Y1455200D02*
X1891576D01*
X1885408Y1456100D02*
X1891276D01*
X1885060Y1457000D02*
X1890976D01*
X1884693Y1457900D02*
X1890560D01*
X1884308Y1458800D02*
X1889972D01*
X1883903Y1459700D02*
X1889317D01*
X1883479Y1460600D02*
X1888587D01*
X1883034Y1461500D02*
X1887773D01*
X1882569Y1462400D02*
X1886859D01*
X1882082Y1463300D02*
X1885826D01*
X1881573Y1464200D02*
X1884646D01*
X1881041Y1465100D02*
X1883271D01*
X1880485Y1466000D02*
X1881618D01*
X1849682Y1464053D02*
X1878301D01*
X1848297Y1464953D02*
X1877701D01*
X1846691Y1465853D02*
X1877101D01*
X1869913Y1437053D02*
X1871320D01*
X1868333Y1437953D02*
X1870770D01*
X1850903Y1463153D02*
X1870284D01*
X1867007Y1438853D02*
X1870243D01*
X1865863Y1439753D02*
X1869739D01*
X1864859Y1440653D02*
X1869257D01*
X1863968Y1441553D02*
X1868796D01*
X1851993Y1462253D02*
X1868586D01*
X1863174Y1442453D02*
X1868356D01*
X1862462Y1443353D02*
X1867936D01*
X1861822Y1444253D02*
X1867535D01*
X1852976Y1461353D02*
X1867446D01*
X1861248Y1445153D02*
X1867154D01*
X1860888Y1446053D02*
X1866792D01*
X1853869Y1460453D02*
X1866593D01*
X1860588Y1446953D02*
X1866448D01*
X1860288Y1447853D02*
X1866122D01*
X1854682Y1459553D02*
X1865934D01*
X1859988Y1448753D02*
X1865813D01*
X1859688Y1449653D02*
X1865522D01*
X1855425Y1458653D02*
X1865423D01*
X1859388Y1450553D02*
X1865248D01*
X1856105Y1457753D02*
X1865033D01*
X1859088Y1451453D02*
X1864990D01*
X1858788Y1452353D02*
X1864750D01*
X1856729Y1456853D02*
X1864749D01*
X1857300Y1455953D02*
X1864561D01*
X1858488Y1453253D02*
X1864530D01*
X1857823Y1455053D02*
X1864463D01*
X1858188Y1454153D02*
X1864453D01*
X1838028Y1467700D02*
X1840153D01*
X1838028Y1466800D02*
X1840153D01*
X1838028Y1465900D02*
X1840153D01*
X1838028Y1465000D02*
X1840153D01*
X1838028Y1464100D02*
X1840153D01*
X1838028Y1463200D02*
X1840153D01*
X1838028Y1462300D02*
X1840153D01*
X1838028Y1461400D02*
X1840153D01*
X1838028Y1460500D02*
X1840153D01*
X1838028Y1459600D02*
X1840153D01*
X1838028Y1458700D02*
X1840153D01*
X1838028Y1457800D02*
X1840153D01*
X1838028Y1456900D02*
X1840153D01*
X1838028Y1456000D02*
X1840153D01*
X1838028Y1455100D02*
X1840153D01*
X1838028Y1454200D02*
X1840153D01*
X1838028Y1453300D02*
X1840153D01*
X1838028Y1452400D02*
X1840153D01*
X1838028Y1451500D02*
X1840153D01*
X1828653Y1450600D02*
X1840153D01*
X1828653Y1449700D02*
X1840153D01*
X1822403Y1467700D02*
X1825153D01*
X1822403Y1466800D02*
X1825153D01*
X1822403Y1465900D02*
X1825153D01*
X1822403Y1465000D02*
X1825153D01*
X1822403Y1464100D02*
X1825153D01*
X1822403Y1463200D02*
X1825153D01*
X1822403Y1462300D02*
X1825153D01*
X1822403Y1461400D02*
X1825153D01*
X1822403Y1460500D02*
X1825153D01*
X1822403Y1459600D02*
X1825153D01*
X1822403Y1458700D02*
X1825153D01*
X1822403Y1457800D02*
X1825153D01*
X1822403Y1456900D02*
X1825153D01*
X1822403Y1456000D02*
X1825153D01*
X1822403Y1455100D02*
X1825153D01*
X1822403Y1454200D02*
X1825153D01*
X1822403Y1453300D02*
X1825153D01*
X1822403Y1452400D02*
X1825153D01*
X1822403Y1451500D02*
X1825153D01*
X1822403Y1450600D02*
X1825153D01*
X1822403Y1449700D02*
X1825153D01*
X1817403Y1467700D02*
X1820153D01*
X1817403Y1466800D02*
X1820153D01*
X1817403Y1465900D02*
X1820153D01*
X1817403Y1465000D02*
X1820153D01*
X1817403Y1464100D02*
X1820153D01*
X1817403Y1463200D02*
X1820153D01*
X1817403Y1462300D02*
X1820153D01*
X1817403Y1461400D02*
X1820153D01*
X1817403Y1460500D02*
X1820153D01*
X1817403Y1459600D02*
X1820153D01*
X1817403Y1458700D02*
X1820153D01*
X1817403Y1457800D02*
X1820153D01*
X1817403Y1456900D02*
X1820153D01*
X1817403Y1456000D02*
X1820153D01*
X1817403Y1455100D02*
X1820153D01*
X1817403Y1454200D02*
X1820153D01*
X1817403Y1453300D02*
X1820153D01*
X1817403Y1452400D02*
X1820153D01*
X1817403Y1451500D02*
X1820153D01*
X1817403Y1450600D02*
X1820153D01*
X1817403Y1449700D02*
X1820153D01*
X1804903Y1467700D02*
X1807653D01*
X1804903Y1466800D02*
X1807653D01*
X1804903Y1465900D02*
X1807653D01*
X1804903Y1465000D02*
X1807653D01*
X1804903Y1464100D02*
X1807653D01*
X1804903Y1463200D02*
X1807653D01*
X1804903Y1462300D02*
X1807653D01*
X1804903Y1461400D02*
X1807653D01*
X1804903Y1460500D02*
X1807653D01*
X1804903Y1459600D02*
X1807653D01*
X1804903Y1458700D02*
X1807653D01*
X1804903Y1457800D02*
X1807653D01*
X1804903Y1456900D02*
X1807653D01*
X1804903Y1456000D02*
X1807653D01*
X1804903Y1455100D02*
X1807653D01*
X1804903Y1454200D02*
X1807653D01*
X1804903Y1453300D02*
X1807653D01*
X1804903Y1452400D02*
X1807653D01*
X1804903Y1451500D02*
X1807653D01*
X1804903Y1450600D02*
X1807653D01*
X1804903Y1449700D02*
X1807653D01*
X1816454Y1466984D02*
X1817028D01*
X1815104Y1466084D02*
X1817028D01*
X1813754Y1465184D02*
X1817028D01*
X1812404Y1464284D02*
X1816226D01*
X1811054Y1463384D02*
X1814876D01*
X1809704Y1462484D02*
X1813526D01*
X1808354Y1461584D02*
X1812176D01*
X1807004Y1460684D02*
X1810826D01*
X1806778Y1459784D02*
X1809476D01*
X1806778Y1458884D02*
X1808126D01*
X1791778Y1467750D02*
X1798903D01*
X1791778Y1466850D02*
X1798903D01*
X1791778Y1465950D02*
X1798903D01*
X1791778Y1461500D02*
X1802653D01*
X1791778Y1460600D02*
X1802653D01*
X1791778Y1459700D02*
X1802653D01*
X1798653Y1467700D02*
X1801403D01*
X1798653Y1466800D02*
X1801403D01*
X1798653Y1465900D02*
X1801403D01*
X1798653Y1465000D02*
X1801403D01*
X1798653Y1464100D02*
X1801403D01*
X1798653Y1463200D02*
X1801403D01*
X1798653Y1462300D02*
X1801403D01*
X1798653Y1461400D02*
X1801403D01*
X1798653Y1460500D02*
X1801403D01*
X1798653Y1459600D02*
X1801403D01*
X1798653Y1458700D02*
X1801403D01*
X1798653Y1457800D02*
X1801403D01*
X1798674Y1456900D02*
X1801403D01*
X1798678Y1456000D02*
X1801403D01*
X1798514Y1455100D02*
X1801235D01*
X1798164Y1454200D02*
X1800944D01*
X1797575Y1453300D02*
X1800547D01*
X1796603Y1452400D02*
X1800026D01*
X1790528Y1451500D02*
X1799355D01*
X1790528Y1450600D02*
X1798487D01*
X1790528Y1449700D02*
X1797321D01*
X1788732D02*
X1792544D01*
X1788353Y1450600D02*
X1792108D01*
X1787974Y1451500D02*
X1791671D01*
X1787595Y1452400D02*
X1791235D01*
X1787216Y1453300D02*
X1790799D01*
X1786837Y1454200D02*
X1790362D01*
X1786458Y1455100D02*
X1789926D01*
X1786079Y1456000D02*
X1789490D01*
X1785700Y1456900D02*
X1789053D01*
X1785321Y1457800D02*
X1788617D01*
X1784942Y1458700D02*
X1788181D01*
X1784563Y1459600D02*
X1787744D01*
X1784184Y1460500D02*
X1787308D01*
X1783805Y1461400D02*
X1786871D01*
X1781121Y1462300D02*
X1786435D01*
X1781557Y1463200D02*
X1785999D01*
X1781994Y1464100D02*
X1785562D01*
X1782430Y1465000D02*
X1785126D01*
X1782866Y1465900D02*
X1784690D01*
X1783303Y1466800D02*
X1784253D01*
X1783739Y1467700D02*
X1783817D01*
X1780685Y1461400D02*
X1783804D01*
X1780248Y1460500D02*
X1783378D01*
X1779812Y1459600D02*
X1782952D01*
X1779375Y1458700D02*
X1782525D01*
X1778939Y1457800D02*
X1782099D01*
X1778503Y1456900D02*
X1781673D01*
X1778066Y1456000D02*
X1781246D01*
X1777630Y1455100D02*
X1780820D01*
X1777194Y1454200D02*
X1780394D01*
X1776757Y1453300D02*
X1779968D01*
X1776321Y1452400D02*
X1779541D01*
X1775885Y1451500D02*
X1779115D01*
X1775448Y1450600D02*
X1778689D01*
X1775012Y1449700D02*
X1778262D01*
X1781153Y1458375D02*
X1786403D01*
X1781153Y1457475D02*
X1786403D01*
X1781153Y1456575D02*
X1786403D01*
X1773903Y1467700D02*
X1776653D01*
X1773903Y1466800D02*
X1776653D01*
X1773903Y1465900D02*
X1776653D01*
X1773903Y1465000D02*
X1776653D01*
X1773903Y1464100D02*
X1776653D01*
X1773903Y1463200D02*
X1776653D01*
X1773903Y1462300D02*
X1776653D01*
X1773903Y1461400D02*
X1776653D01*
X1773903Y1460500D02*
X1776653D01*
X1773903Y1459600D02*
X1776653D01*
X1773903Y1458700D02*
X1776653D01*
X1773903Y1457800D02*
X1776653D01*
X1773903Y1456900D02*
X1776653D01*
X1773903Y1456000D02*
X1776653D01*
X1773903Y1455100D02*
X1776653D01*
X1773903Y1454200D02*
X1776653D01*
X1773903Y1453300D02*
X1776653D01*
X1773903Y1452400D02*
X1776653D01*
X1773903Y1451500D02*
X1776653D01*
X1773903Y1450600D02*
X1776653D01*
X1773903Y1449700D02*
X1776653D01*
X1766813Y1467300D02*
X1774528D01*
X1765728Y1466400D02*
X1774528D01*
X1764948Y1465500D02*
X1774528D01*
X1764672Y1456500D02*
X1774528D01*
X1765354Y1455600D02*
X1774528D01*
X1766285Y1454700D02*
X1774528D01*
X1764167Y1457400D02*
X1769965D01*
X1764371Y1464600D02*
X1769536D01*
X1763803Y1458300D02*
X1768702D01*
X1763948Y1463700D02*
X1768501D01*
X1763560Y1459200D02*
X1768053D01*
X1763653Y1462800D02*
X1767942D01*
X1763427Y1460100D02*
X1767705D01*
X1763473Y1461900D02*
X1767653D01*
X1763399Y1461000D02*
X1767579D01*
X1774137Y1456733D02*
X1774528D01*
X1772112Y1455833D02*
X1774528D01*
X1770087Y1454933D02*
X1774528D01*
X1768062Y1454033D02*
X1774401D01*
X1766037Y1453133D02*
X1772713D01*
X1764278Y1452233D02*
X1771026D01*
X1764278Y1451333D02*
X1769338D01*
X1764278Y1450433D02*
X1767651D01*
X1764278Y1449533D02*
X1765963D01*
X1889000Y1811250D02*
X2289000D01*
Y1511250*
X1889000*
Y1811250*
G54D24*
X1908409Y1424313D02*
Y1417750D01*
X1910000Y1424313D02*
X1906818D01*
X1904773D02*
Y1417750D01*
X1901136Y1424313D02*
Y1417750D01*
X1902727Y1424313D02*
X1899545D01*
X1897500D02*
Y1417750D01*
X1894773*
X1892727Y1424313D02*
Y1417750D01*
Y1424313D02*
X1889773D01*
X1892727Y1421188D02*
X1890909D01*
X1892727Y1417750D02*
X1889773D01*
X1887500Y1422125D02*
X1887727Y1421813D01*
X1887727D02*
X1887500Y1421500D01*
X1887273Y1421813*
X1887273D02*
X1887500Y1422125D01*
Y1418375D02*
X1887727Y1418063D01*
X1887727D02*
X1887500Y1417750D01*
X1887273Y1418063*
X1887273D02*
X1887500Y1418375D01*
X1905818Y1375875D02*
X1906273Y1376500D01*
X1906955Y1376813*
X1906955D02*
X1907864D01*
X1907864D02*
X1908545Y1376500D01*
X1909000Y1375875*
Y1375250*
X1908773Y1374625*
X1908545Y1374313*
X1908545D02*
X1908091Y1374000D01*
X1906727Y1373375*
X1906273Y1373063*
X1906273D02*
X1906045Y1372750D01*
X1905818Y1372125*
Y1371188*
X1905818D02*
X1906273Y1370563D01*
X1906273D02*
X1906955Y1370250D01*
X1907864*
X1908545Y1370563*
X1908545D02*
X1909000Y1371188D01*
X1903773Y1376813D02*
Y1370250D01*
X1898545Y1376813D02*
X1901727Y1370250D01*
Y1376813D02*
X1898545D01*
X1901727Y1370250D02*
X1898545D01*
X1896500Y1376813D02*
Y1370250D01*
Y1376813D02*
X1893545D01*
X1896500Y1373688D02*
X1894682D01*
X1896500Y1370250D02*
X1893545D01*
X1880000Y1376813D02*
Y1370250D01*
X1874545Y1375250D02*
X1874773Y1375875D01*
X1875227Y1376500*
X1875682Y1376813*
X1875682D02*
X1876591D01*
X1876591D02*
X1877045Y1376500D01*
X1877500Y1375875*
X1877727Y1375250*
X1877955Y1374313*
X1877955D02*
Y1372750D01*
X1877727Y1371813*
X1877727D02*
X1877500Y1371188D01*
X1877500D02*
X1877045Y1370563D01*
X1877045D02*
X1876591Y1370250D01*
X1875682*
X1875227Y1370563*
X1875227D02*
X1874773Y1371188D01*
X1874773D02*
X1874545Y1371813D01*
X1867273Y1376813D02*
Y1370250D01*
Y1376813D02*
X1864091Y1370250D01*
Y1376813D02*
Y1370250D01*
X1860682Y1376813D02*
X1861136Y1376500D01*
X1861591Y1375875*
X1861818Y1375250*
X1862045Y1374313*
X1862045D02*
Y1372750D01*
X1861818Y1371813*
X1861818D02*
X1861591Y1371188D01*
X1861591D02*
X1861136Y1370563D01*
X1861136D02*
X1860682Y1370250D01*
X1859773*
X1859318Y1370563*
X1859318D02*
X1858864Y1371188D01*
X1858864D02*
X1858636Y1371813D01*
X1858636D02*
X1858409Y1372750D01*
Y1374313*
X1858409D02*
X1858636Y1375250D01*
X1858864Y1375875*
X1859318Y1376500*
X1859773Y1376813*
X1859773D02*
X1860682D01*
X1856136Y1370875D02*
X1856364Y1370563D01*
X1856364D02*
X1856136Y1370250D01*
X1855909Y1370563*
X1855909D02*
X1856136Y1370875D01*
X1700000Y1376813D02*
Y1370250D01*
Y1376813D02*
X1697955D01*
X1697955D02*
X1697273Y1376500D01*
X1697045Y1376188*
X1697045D02*
X1696818Y1375563D01*
X1696818D02*
Y1374938D01*
X1696818D02*
X1697045Y1374313D01*
X1697045D02*
X1697273Y1374000D01*
X1697955Y1373688*
X1697955D02*
X1700000D01*
X1698409D02*
X1696818Y1370250D01*
X1694773Y1376813D02*
Y1370250D01*
Y1376813D02*
X1691818D01*
X1694773Y1373688D02*
X1692955D01*
X1694773Y1370250D02*
X1691818D01*
X1689773Y1376813D02*
X1687955Y1370250D01*
X1686136Y1376813D02*
X1687955Y1370250D01*
X1882500Y1424313D02*
Y1417750D01*
Y1424313D02*
X1880455D01*
X1880455D02*
X1879773Y1424000D01*
X1879545Y1423688*
X1879545D02*
X1879318Y1423063D01*
X1879318D02*
Y1422438D01*
X1879318D02*
X1879545Y1421813D01*
X1879545D02*
X1879773Y1421500D01*
X1880455Y1421188*
X1882500D02*
X1880455D01*
X1880455D02*
X1879773Y1420875D01*
X1879545Y1420563*
X1879545D02*
X1879318Y1419938D01*
X1879318D02*
Y1419000D01*
X1879545Y1418375*
X1879773Y1418063*
X1879773D02*
X1880455Y1417750D01*
X1882500*
X1875909Y1424313D02*
X1876364Y1424000D01*
X1876818Y1423375*
X1877045Y1422750*
X1877273Y1421813*
X1877273D02*
Y1420250D01*
X1877045Y1419313*
X1877045D02*
X1876818Y1418688D01*
X1876818D02*
X1876364Y1418063D01*
X1876364D02*
X1875909Y1417750D01*
X1875000*
X1874545Y1418063*
X1874545D02*
X1874091Y1418688D01*
X1874091D02*
X1873864Y1419313D01*
X1873864D02*
X1873636Y1420250D01*
Y1421813*
X1873636D02*
X1873864Y1422750D01*
X1874091Y1423375*
X1874545Y1424000*
X1875000Y1424313*
X1875000D02*
X1875909D01*
X1870000D02*
Y1417750D01*
X1871591Y1424313D02*
X1868409D01*
X1864773D02*
Y1417750D01*
X1866364Y1424313D02*
X1863182D01*
X1859773D02*
X1860227Y1424000D01*
X1860682Y1423375*
X1860909Y1422750*
X1861136Y1421813*
X1861136D02*
Y1420250D01*
X1860909Y1419313*
X1860909D02*
X1860682Y1418688D01*
X1860682D02*
X1860227Y1418063D01*
X1860227D02*
X1859773Y1417750D01*
X1858864*
X1858409Y1418063*
X1858409D02*
X1857955Y1418688D01*
X1857955D02*
X1857727Y1419313D01*
X1857727D02*
X1857500Y1420250D01*
Y1421813*
X1857500D02*
X1857727Y1422750D01*
X1857955Y1423375*
X1858409Y1424000*
X1858864Y1424313*
X1858864D02*
X1859773D01*
X1855455D02*
Y1417750D01*
Y1424313D02*
X1853636Y1417750D01*
X1851818Y1424313D02*
X1853636Y1417750D01*
X1851818Y1424313D02*
Y1417750D01*
X1842727Y1424313D02*
X1844545Y1417750D01*
X1842727Y1424313D02*
X1840909Y1417750D01*
X1843864Y1419938D02*
X1841591D01*
X1835682Y1423375D02*
X1836136Y1424000D01*
X1836818Y1424313*
X1836818D02*
X1837727D01*
X1837727D02*
X1838409Y1424000D01*
X1838864Y1423375*
Y1422750*
X1838636Y1422125*
X1838409Y1421813*
X1838409D02*
X1837955Y1421500D01*
X1836591Y1420875*
X1836136Y1420563*
X1836136D02*
X1835909Y1420250D01*
X1835682Y1419625*
Y1418688*
X1835682D02*
X1836136Y1418063D01*
X1836136D02*
X1836818Y1417750D01*
X1837727*
X1838409Y1418063*
X1838409D02*
X1838864Y1418688D01*
X1830455Y1423375D02*
X1830909Y1424000D01*
X1831591Y1424313*
X1831591D02*
X1832500D01*
X1832500D02*
X1833182Y1424000D01*
X1833636Y1423375*
Y1422750*
X1833409Y1422125*
X1833182Y1421813*
X1833182D02*
X1832727Y1421500D01*
X1831364Y1420875*
X1830909Y1420563*
X1830909D02*
X1830682Y1420250D01*
X1830455Y1419625*
Y1418688*
X1830455D02*
X1830909Y1418063D01*
X1830909D02*
X1831591Y1417750D01*
X1832500*
X1833182Y1418063*
X1833182D02*
X1833636Y1418688D01*
X1828409Y1424313D02*
Y1417750D01*
Y1424313D02*
X1825455D01*
X1828409Y1421188D02*
X1826591D01*
X1828409Y1417750D02*
X1825455D01*
X1823409Y1424313D02*
Y1417750D01*
Y1424313D02*
X1821591Y1417750D01*
X1819773Y1424313D02*
X1821591Y1417750D01*
X1819773Y1424313D02*
Y1417750D01*
X1817727Y1424313D02*
Y1417750D01*
Y1424313D02*
X1815682D01*
X1815682D02*
X1815000Y1424000D01*
X1814773Y1423688*
X1814773D02*
X1814545Y1423063D01*
X1814545D02*
Y1422438D01*
X1814545D02*
X1814773Y1421813D01*
X1814773D02*
X1815000Y1421500D01*
X1815682Y1421188*
X1817727D02*
X1815682D01*
X1815682D02*
X1815000Y1420875D01*
X1814773Y1420563*
X1814773D02*
X1814545Y1419938D01*
X1814545D02*
Y1419000D01*
X1814773Y1418375*
X1815000Y1418063*
X1815000D02*
X1815682Y1417750D01*
X1817727*
X1812500Y1424313D02*
Y1417750D01*
X1809773*
X1807727Y1424313D02*
X1805909Y1421188D01*
X1805909D02*
Y1417750D01*
X1804091Y1424313D02*
X1805909Y1421188D01*
X1796818Y1424313D02*
Y1417750D01*
Y1424313D02*
X1795227D01*
X1795227D02*
X1794545Y1424000D01*
X1794091Y1423375*
X1793864Y1422750*
X1793636Y1421813*
X1793636D02*
Y1420250D01*
X1793864Y1419313*
X1793864D02*
X1794091Y1418688D01*
X1794091D02*
X1794545Y1418063D01*
X1794545D02*
X1795227Y1417750D01*
X1796818*
X1791591Y1424313D02*
Y1417750D01*
Y1424313D02*
X1789545D01*
X1789545D02*
X1788864Y1424000D01*
X1788636Y1423688*
X1788636D02*
X1788409Y1423063D01*
X1788409D02*
Y1422438D01*
X1788409D02*
X1788636Y1421813D01*
X1788636D02*
X1788864Y1421500D01*
X1789545Y1421188*
X1789545D02*
X1791591D01*
X1790000D02*
X1788409Y1417750D01*
X1784545Y1424313D02*
X1786364Y1417750D01*
X1784545Y1424313D02*
X1782727Y1417750D01*
X1785682Y1419938D02*
X1783409D01*
X1780682Y1424313D02*
X1779545Y1417750D01*
X1778409Y1424313D02*
X1779545Y1417750D01*
X1778409Y1424313D02*
X1777273Y1417750D01*
X1776136Y1424313D02*
X1777273Y1417750D01*
X1774091Y1424313D02*
Y1417750D01*
X1772045Y1424313D02*
Y1417750D01*
Y1424313D02*
X1768864Y1417750D01*
Y1424313D02*
Y1417750D01*
X1763409Y1422750D02*
X1763636Y1423375D01*
X1764091Y1424000*
X1764545Y1424313*
X1764545D02*
X1765455D01*
X1765455D02*
X1765909Y1424000D01*
X1766364Y1423375*
X1766591Y1422750*
X1766818Y1421813*
X1766818D02*
Y1420250D01*
X1766591Y1419313*
X1766591D02*
X1766364Y1418688D01*
X1766364D02*
X1765909Y1418063D01*
X1765909D02*
X1765455Y1417750D01*
X1764545*
X1764091Y1418063*
X1764091D02*
X1763636Y1418688D01*
X1763636D02*
X1763409Y1419313D01*
X1763409D02*
Y1420250D01*
X1764545D02*
X1763409D01*
X1909455Y1395125D02*
X1906455D01*
X1908091Y1392125*
X1907273*
X1906727Y1391750*
X1906455Y1391375*
X1906182Y1390250*
Y1389500*
X1906455Y1388375*
X1907000Y1387625*
X1907818Y1387250*
X1908636*
X1909455Y1387625*
X1909727Y1388000*
X1910000Y1388750*
X1897455Y1395125D02*
Y1387250D01*
Y1395125D02*
X1895000D01*
X1894182Y1394750*
X1893909Y1394375*
X1893636Y1393625*
Y1392500*
X1893909Y1391750*
X1894182Y1391375*
X1895000Y1391000*
X1897455*
X1891182Y1395125D02*
Y1387250D01*
X1887364Y1395125D02*
Y1387250D01*
X1891182Y1391375D02*
X1887364D01*
X1882727Y1395125D02*
X1884909Y1387250D01*
X1882727Y1395125D02*
X1880545Y1387250D01*
X1884091Y1389875D02*
X1881364D01*
X1874273Y1394000D02*
X1874818Y1394750D01*
X1875636Y1395125*
X1876727*
X1877545Y1394750*
X1878091Y1394000*
Y1393250*
X1877818Y1392500*
X1877545Y1392125*
X1877000Y1391750*
X1875364Y1391000*
X1874818Y1390625*
X1874545Y1390250*
X1874273Y1389500*
Y1388375*
X1874818Y1387625*
X1875636Y1387250*
X1876727*
X1877545Y1387625*
X1878091Y1388375*
X1871818Y1395125D02*
Y1387250D01*
Y1395125D02*
X1868273D01*
X1871818Y1391375D02*
X1869636D01*
X1871818Y1387250D02*
X1868273D01*
X1859545Y1395125D02*
Y1387250D01*
X1857091Y1395125D02*
Y1387250D01*
Y1395125D02*
X1855182D01*
X1854364Y1394750*
X1853818Y1394000*
X1853545Y1393250*
X1853273Y1392125*
Y1390250*
X1853545Y1389125*
X1853818Y1388375*
X1854364Y1387625*
X1855182Y1387250*
X1857091*
X1850818Y1395125D02*
Y1387250D01*
Y1395125D02*
X1847273D01*
X1850818Y1391375D02*
X1848636D01*
X1850818Y1387250D02*
X1847273D01*
X1842636Y1395125D02*
X1844818Y1387250D01*
X1842636Y1395125D02*
X1840455Y1387250D01*
X1844000Y1389875D02*
X1841273D01*
X1838000Y1395125D02*
Y1387250D01*
X1834727*
X1826000Y1395125D02*
Y1387250D01*
Y1395125D02*
X1824091D01*
X1823273Y1394750*
X1822727Y1394000*
X1822455Y1393250*
X1822182Y1392125*
Y1390250*
X1822455Y1389125*
X1822727Y1388375*
X1823273Y1387625*
X1824091Y1387250*
X1826000*
X1819727Y1395125D02*
Y1387250D01*
X1815636Y1395125D02*
X1816182Y1394750D01*
X1816727Y1394000*
X1817000Y1393250*
X1817273Y1392125*
Y1390250*
X1817000Y1389125*
X1816727Y1388375*
X1816182Y1387625*
X1815636Y1387250*
X1814545*
X1814000Y1387625*
X1813455Y1388375*
X1813182Y1389125*
X1812909Y1390250*
Y1392125*
X1813182Y1393250*
X1813455Y1394000*
X1814000Y1394750*
X1814545Y1395125*
X1815636*
X1810455D02*
Y1387250D01*
Y1395125D02*
X1808545D01*
X1807727Y1394750*
X1807182Y1394000*
X1806909Y1393250*
X1806636Y1392125*
Y1390250*
X1806909Y1389125*
X1807182Y1388375*
X1807727Y1387625*
X1808545Y1387250*
X1810455*
X1804182Y1395125D02*
Y1387250D01*
Y1395125D02*
X1800636D01*
X1804182Y1391375D02*
X1802000D01*
X1804182Y1387250D02*
X1800636D01*
X1791909Y1395125D02*
Y1387250D01*
Y1395125D02*
X1789455D01*
X1788636Y1394750*
X1788364Y1394375*
X1788091Y1393625*
Y1392875*
X1788364Y1392125*
X1788636Y1391750*
X1789455Y1391375*
X1791909D02*
X1789455D01*
X1788636Y1391000*
X1788364Y1390625*
X1788091Y1389875*
Y1388750*
X1788364Y1388000*
X1788636Y1387625*
X1789455Y1387250*
X1791909*
X1785636Y1395125D02*
Y1387250D01*
Y1395125D02*
X1783182D01*
X1782364Y1394750*
X1782091Y1394375*
X1781818Y1393625*
Y1392875*
X1782091Y1392125*
X1782364Y1391750*
X1783182Y1391375*
X1785636*
X1783727D02*
X1781818Y1387250D01*
X1779364Y1395125D02*
Y1387250D01*
X1776909Y1395125D02*
Y1387250D01*
Y1395125D02*
X1775000D01*
X1774182Y1394750*
X1773636Y1394000*
X1773364Y1393250*
X1773091Y1392125*
Y1390250*
X1773364Y1389125*
X1773636Y1388375*
X1774182Y1387625*
X1775000Y1387250*
X1776909*
X1766545Y1393250D02*
X1766818Y1394000D01*
X1767364Y1394750*
X1767909Y1395125*
X1769000*
X1769545Y1394750*
X1770091Y1394000*
X1770364Y1393250*
X1770636Y1392125*
Y1390250*
X1770364Y1389125*
X1770091Y1388375*
X1769545Y1387625*
X1769000Y1387250*
X1767909*
X1767364Y1387625*
X1766818Y1388375*
X1766545Y1389125*
Y1390250*
X1767909D02*
X1766545D01*
X1764091Y1395125D02*
Y1387250D01*
Y1395125D02*
X1760545D01*
X1764091Y1391375D02*
X1761909D01*
X1764091Y1387250D02*
X1760545D01*
G54D25*
X1837696Y1442917D02*
Y1433401D01*
X1840003Y1442917D02*
X1835389D01*
X1832423D02*
Y1433401D01*
Y1442917D02*
X1828139D01*
X1832423Y1438385D02*
X1829787D01*
X1832423Y1433401D02*
X1828139D01*
X1820230Y1440651D02*
X1820560Y1441557D01*
X1821219Y1442464*
X1821219D02*
X1821878Y1442917D01*
X1823196*
X1823855Y1442464*
X1823855D02*
X1824514Y1441557D01*
X1824844Y1440651*
X1825173Y1439292*
Y1437026*
X1824844Y1435667*
X1824514Y1434760*
X1823855Y1433854*
X1823196Y1433401*
X1821878*
X1821219Y1433854*
X1820560Y1434760*
X1820230Y1435667*
X1817264Y1442917D02*
Y1433401D01*
X1812651Y1442917D02*
Y1433401D01*
X1817264Y1438385D02*
X1812651D01*
X1809685Y1442917D02*
Y1433401D01*
Y1442917D02*
X1805071Y1433401D01*
Y1442917D02*
Y1433401D01*
X1800128Y1442917D02*
X1800787Y1442464D01*
X1800787D02*
X1801446Y1441557D01*
X1801776Y1440651*
X1802105Y1439292*
Y1437026*
X1801776Y1435667*
X1801446Y1434760*
X1800787Y1433854*
X1800128Y1433401*
X1798810*
X1798151Y1433854*
X1797492Y1434760*
X1797162Y1435667*
X1796833Y1437026*
Y1439292*
X1797162Y1440651*
X1797492Y1441557*
X1798151Y1442464*
X1798151D02*
X1798810Y1442917D01*
X1800128*
X1793867D02*
Y1433401D01*
X1789912*
X1784969Y1442917D02*
X1785628Y1442464D01*
X1785628D02*
X1786287Y1441557D01*
X1786617Y1440651*
X1786946Y1439292*
Y1437026*
X1786617Y1435667*
X1786287Y1434760*
X1785628Y1433854*
X1784969Y1433401*
X1783651*
X1782992Y1433854*
X1782333Y1434760*
X1782003Y1435667*
X1781673Y1437026*
Y1439292*
X1782003Y1440651*
X1782333Y1441557*
X1782992Y1442464*
X1782992D02*
X1783651Y1442917D01*
X1784969*
X1773764Y1440651D02*
X1774094Y1441557D01*
X1774753Y1442464*
X1774753D02*
X1775412Y1442917D01*
X1776730*
X1777389Y1442464*
X1777389D02*
X1778048Y1441557D01*
X1778378Y1440651*
X1778708Y1439292*
Y1437026*
X1778378Y1435667*
X1778048Y1434760*
X1777389Y1433854*
X1776730Y1433401*
X1775412*
X1774753Y1433854*
X1774094Y1434760*
X1773764Y1435667*
Y1437026*
X1775412D02*
X1773764D01*
X1770798Y1442917D02*
X1768162Y1438385D01*
Y1433401*
X1765526Y1442917D02*
X1768162Y1438385D01*
G54D26*
X2124500Y1656750D03*
Y1634750D03*
G54D27*
X2104000Y1653518D03*
Y1636982D03*
G54D28*
X2069250Y1596250D03*
X2082750D03*
X2094750Y1684250D03*
X2081250D03*
X2069250Y1697250D03*
X2082750D03*
X2069250Y1706250D03*
X2082750D03*
X2096750Y1632750D03*
X2083250D03*
X2069250Y1655250D03*
X2082750D03*
X2069250Y1647250D03*
X2082750D03*
X2096750Y1581250D03*
X2083250D03*
X2069250Y1604250D03*
X2082750D03*
G54D29*
X2090000Y1709000D03*
Y1695500D03*
Y1659000D03*
Y1645500D03*
Y1607000D03*
Y1593500D03*
G54D30*
X2092000Y1690750D03*
X2086000D03*
X2073000Y1690250D03*
X2079000D03*
X2073000Y1713250D03*
X2079000D03*
X2093000Y1639250D03*
X2087000D03*
X2073000Y1662250D03*
X2079000D03*
X2073500Y1640250D03*
X2079500D03*
X2093000Y1587750D03*
X2087000D03*
X2073000Y1611250D03*
X2079000D03*
X2072500Y1589250D03*
X2078500D03*
G54D31*
X2088200Y1692250D02*
X2089800D01*
X2088200Y1689250D02*
X2089800D01*
X2076800Y1688750D02*
X2075200D01*
X2076800Y1691750D02*
X2075200D01*
X2076800Y1711750D02*
X2075200D01*
X2076800Y1714750D02*
X2075200D01*
X2089200Y1640750D02*
X2090800D01*
X2089200Y1637750D02*
X2090800D01*
X2076800Y1660750D02*
X2075200D01*
X2076800Y1663750D02*
X2075200D01*
X2077300Y1638750D02*
X2075700D01*
X2077300Y1641750D02*
X2075700D01*
X2089200Y1589250D02*
X2090800D01*
X2089200Y1586250D02*
X2090800D01*
X2076800Y1609750D02*
X2075200D01*
X2076800Y1612750D02*
X2075200D01*
X2076300Y1587750D02*
X2074700D01*
X2076300Y1590750D02*
X2074700D01*
X1914850Y1350250D02*
X2026500D01*
X1980000Y1446250D02*
Y1350250D01*
X1914850Y1410250D02*
X2026500D01*
X1915500Y1427750D02*
X2027500D01*
X1914850Y1390250D02*
X2026500D01*
X1914850Y1370250D02*
X2026500D01*
G54D32*
X2100000Y1655250D02*
X2098000Y1653250D01*
Y1635250*
X2100000*
X2108000Y1655250D02*
X2110000Y1653250D01*
Y1635250*
X2108000*
X2098000Y1648250D02*
X2110000D01*
X2098000Y1647250D02*
X2110000D01*
G54D33*
X2140000Y1645705D02*
X2139625Y1645841D01*
X2139250Y1646114*
X2139062Y1646386*
X2139062D02*
Y1646932D01*
X2139062D02*
X2139250Y1647205D01*
X2139625Y1647477*
X2140000Y1647614*
X2140562Y1647750*
X2140562D02*
X2141500D01*
X2142062Y1647614*
X2142062D02*
X2142437Y1647477D01*
X2142437D02*
X2142812Y1647205D01*
X2142812D02*
X2143000Y1646932D01*
Y1646386*
X2142812Y1646114*
X2142812D02*
X2142437Y1645841D01*
X2142437D02*
X2142062Y1645705D01*
X2140000Y1644341D02*
X2139812D01*
X2139812D02*
X2139437Y1644205D01*
X2139437D02*
X2139250Y1644068D01*
X2139062Y1643795*
X2139062D02*
Y1643250D01*
X2139062D02*
X2139250Y1642977D01*
X2139437Y1642841*
X2139437D02*
X2139812Y1642705D01*
X2139812D02*
X2140187D01*
X2140187D02*
X2140562Y1642841D01*
X2140562D02*
X2141125Y1643114D01*
X2143000Y1644477*
Y1642568*
X2103062Y1629250D02*
X2107000D01*
X2103062D02*
Y1628295D01*
X2103062D02*
X2103250Y1627886D01*
X2103625Y1627614*
X2104000Y1627477*
X2104562Y1627341*
X2104562D02*
X2105500D01*
X2106062Y1627477*
X2106062D02*
X2106437Y1627614D01*
X2106437D02*
X2106812Y1627886D01*
X2106812D02*
X2107000Y1628295D01*
Y1629250*
X2103812Y1626114D02*
X2103625Y1625841D01*
X2103062Y1625432*
X2103062D02*
X2107000D01*
X2065500Y1598188D02*
Y1594250D01*
Y1598188D02*
X2064545D01*
X2064136Y1598000*
X2063864Y1597625*
X2063727Y1597250*
X2063591Y1596688*
Y1595750*
X2063727Y1595188*
X2063864Y1594813*
X2064136Y1594438*
X2064545Y1594250*
X2065500*
X2062364Y1597438D02*
X2062091Y1597625D01*
X2061682Y1598188*
Y1594250*
X2059636Y1598188D02*
X2060045Y1598000D01*
X2060318Y1597438*
X2060455Y1596500*
Y1595938*
X2060318Y1595000*
X2060045Y1594438*
X2059636Y1594250*
X2059364*
X2058955Y1594438*
X2058682Y1595000*
X2058545Y1595938*
Y1596500*
X2058682Y1597438*
X2058955Y1598000*
X2059364Y1598188*
X2059636*
X2096062Y1705250D02*
X2100000D01*
X2096062D02*
Y1704295D01*
X2096062D02*
X2096250Y1703886D01*
X2096625Y1703614*
X2097000Y1703477*
X2097562Y1703341*
X2097562D02*
X2098500D01*
X2099062Y1703477*
X2099062D02*
X2099437Y1703614D01*
X2099437D02*
X2099812Y1703886D01*
X2099812D02*
X2100000Y1704295D01*
Y1705250*
X2096812Y1702114D02*
X2096625Y1701841D01*
X2096062Y1701432*
X2096062D02*
X2100000D01*
X2096812Y1700205D02*
X2096625Y1699932D01*
X2096062Y1699523*
X2096062D02*
X2100000D01*
X2088062Y1670250D02*
X2092000D01*
X2088062D02*
Y1669295D01*
X2088062D02*
X2088250Y1668886D01*
X2088625Y1668614*
X2089000Y1668477*
X2089562Y1668341*
X2089562D02*
X2090500D01*
X2091062Y1668477*
X2091062D02*
X2091437Y1668614D01*
X2091437D02*
X2091812Y1668886D01*
X2091812D02*
X2092000Y1669295D01*
Y1670250*
X2088812Y1667114D02*
X2088625Y1666841D01*
X2088062Y1666432*
X2088062D02*
X2092000D01*
X2089000Y1665068D02*
X2088812D01*
X2088812D02*
X2088437Y1664932D01*
X2088437D02*
X2088250Y1664795D01*
X2088062Y1664523*
X2088062D02*
Y1663977D01*
X2088062D02*
X2088250Y1663705D01*
X2088437Y1663568*
X2088437D02*
X2088812Y1663432D01*
X2088812D02*
X2089187D01*
X2089187D02*
X2089562Y1663568D01*
X2089562D02*
X2090125Y1663841D01*
X2092000Y1665205*
Y1663295*
X2096062Y1605250D02*
X2100000D01*
X2096062D02*
Y1604295D01*
X2096062D02*
X2096250Y1603886D01*
X2096625Y1603614*
X2097000Y1603477*
X2097562Y1603341*
X2097562D02*
X2098500D01*
X2099062Y1603477*
X2099062D02*
X2099437Y1603614D01*
X2099437D02*
X2099812Y1603886D01*
X2099812D02*
X2100000Y1604295D01*
Y1605250*
X2096812Y1602114D02*
X2096625Y1601841D01*
X2096062Y1601432*
X2096062D02*
X2100000D01*
X2096062Y1599932D02*
Y1598432D01*
X2096062D02*
X2097562Y1599250D01*
X2097562D02*
Y1598841D01*
X2097562D02*
X2097750Y1598568D01*
X2097937Y1598432*
X2097937D02*
X2098500Y1598295D01*
X2098875*
X2099437Y1598432*
X2099437D02*
X2099812Y1598705D01*
X2099812D02*
X2100000Y1599114D01*
Y1599523*
X2099812Y1599932*
X2099812D02*
X2099625Y1600068D01*
X2099250Y1600205*
X2090500Y1678188D02*
Y1674250D01*
Y1678188D02*
X2089545D01*
X2089545D02*
X2089136Y1678000D01*
X2088864Y1677625*
X2088727Y1677250*
X2088591Y1676688*
X2088591D02*
Y1675750D01*
X2088727Y1675188*
X2088727D02*
X2088864Y1674813D01*
X2088864D02*
X2089136Y1674438D01*
X2089136D02*
X2089545Y1674250D01*
X2090500*
X2087227Y1677250D02*
Y1677438D01*
X2087227D02*
X2087091Y1677813D01*
X2087091D02*
X2086955Y1678000D01*
X2086682Y1678188*
X2086682D02*
X2086136D01*
X2086136D02*
X2085864Y1678000D01*
X2085727Y1677813*
X2085727D02*
X2085591Y1677438D01*
X2085591D02*
Y1677063D01*
X2085591D02*
X2085727Y1676688D01*
X2085727D02*
X2086000Y1676125D01*
X2087364Y1674250*
X2085455*
X2066000Y1699188D02*
Y1695250D01*
Y1699188D02*
X2065045D01*
X2064636Y1699000*
X2064364Y1698625*
X2064227Y1698250*
X2064091Y1697688*
Y1696750*
X2064227Y1696188*
X2064364Y1695813*
X2064636Y1695438*
X2065045Y1695250*
X2066000*
X2062591Y1699188D02*
X2061091D01*
X2061909Y1697688*
X2061500*
X2061227Y1697500*
X2061091Y1697313*
X2060955Y1696750*
Y1696375*
X2061091Y1695813*
X2061364Y1695438*
X2061773Y1695250*
X2062182*
X2062591Y1695438*
X2062727Y1695625*
X2062864Y1696000*
X2066000Y1708188D02*
Y1704250D01*
Y1708188D02*
X2065045D01*
X2064636Y1708000*
X2064364Y1707625*
X2064227Y1707250*
X2064091Y1706688*
Y1705750*
X2064227Y1705188*
X2064364Y1704813*
X2064636Y1704438*
X2065045Y1704250*
X2066000*
X2061500Y1708188D02*
X2062864Y1705563D01*
X2060818*
X2061500Y1708188D02*
Y1704250D01*
X2080000Y1631188D02*
Y1627250D01*
Y1631188D02*
X2079045D01*
X2079045D02*
X2078636Y1631000D01*
X2078364Y1630625*
X2078227Y1630250*
X2078091Y1629688*
X2078091D02*
Y1628750D01*
X2078227Y1628188*
X2078227D02*
X2078364Y1627813D01*
X2078364D02*
X2078636Y1627438D01*
X2078636D02*
X2079045Y1627250D01*
X2080000*
X2075091Y1631188D02*
X2076455D01*
X2076455D02*
X2076591Y1629500D01*
X2076455Y1629688*
X2076455D02*
X2076045Y1629875D01*
X2075636*
X2075227Y1629688*
X2075227D02*
X2074955Y1629313D01*
X2074955D02*
X2074818Y1628750D01*
X2074955Y1628375*
X2075091Y1627813*
X2075091D02*
X2075364Y1627438D01*
X2075364D02*
X2075773Y1627250D01*
X2076182*
X2076591Y1627438*
X2076591D02*
X2076727Y1627625D01*
X2076864Y1628000*
X2066500Y1657188D02*
Y1653250D01*
Y1657188D02*
X2065545D01*
X2065136Y1657000*
X2064864Y1656625*
X2064727Y1656250*
X2064591Y1655688*
Y1654750*
X2064727Y1654188*
X2064864Y1653813*
X2065136Y1653438*
X2065545Y1653250*
X2066500*
X2061727Y1656625D02*
X2061864Y1657000D01*
X2062273Y1657188*
X2062545*
X2062955Y1657000*
X2063227Y1656438*
X2063364Y1655500*
Y1654563*
X2063227Y1653813*
X2062955Y1653438*
X2062545Y1653250*
X2062409*
X2062000Y1653438*
X2061727Y1653813*
X2061591Y1654375*
Y1654563*
X2061727Y1655125*
X2062000Y1655500*
X2062409Y1655688*
X2062545*
X2062955Y1655500*
X2063227Y1655125*
X2063364Y1654563*
X2066500Y1648688D02*
Y1644750D01*
Y1648688D02*
X2065545D01*
X2065136Y1648500*
X2064864Y1648125*
X2064727Y1647750*
X2064591Y1647188*
Y1646250*
X2064727Y1645688*
X2064864Y1645313*
X2065136Y1644938*
X2065545Y1644750*
X2066500*
X2061455Y1648688D02*
X2062818Y1644750D01*
X2063364Y1648688D02*
X2061455D01*
X2093000Y1575188D02*
Y1571250D01*
Y1575188D02*
X2092045D01*
X2092045D02*
X2091636Y1575000D01*
X2091364Y1574625*
X2091227Y1574250*
X2091091Y1573688*
X2091091D02*
Y1572750D01*
X2091227Y1572188*
X2091227D02*
X2091364Y1571813D01*
X2091364D02*
X2091636Y1571438D01*
X2091636D02*
X2092045Y1571250D01*
X2093000*
X2089182Y1575188D02*
X2089591Y1575000D01*
X2089727Y1574625*
Y1574250*
X2089591Y1573875*
X2089318Y1573688*
X2089318D02*
X2088773Y1573500D01*
X2088364Y1573313*
X2088364D02*
X2088091Y1572938D01*
X2088091D02*
X2087955Y1572563D01*
X2087955D02*
Y1572000D01*
X2088091Y1571625*
X2088227Y1571438*
X2088227D02*
X2088636Y1571250D01*
X2089182*
X2089591Y1571438*
X2089591D02*
X2089727Y1571625D01*
X2089864Y1572000*
Y1572563*
X2089864D02*
X2089727Y1572938D01*
X2089727D02*
X2089455Y1573313D01*
X2089455D02*
X2089045Y1573500D01*
X2088500Y1573688*
X2088500D02*
X2088227Y1573875D01*
X2088091Y1574250*
Y1574625*
X2088227Y1575000*
X2088636Y1575188*
X2088636D02*
X2089182D01*
X2066500Y1606688D02*
Y1602750D01*
Y1606688D02*
X2065545D01*
X2065136Y1606500*
X2064864Y1606125*
X2064727Y1605750*
X2064591Y1605188*
Y1604250*
X2064727Y1603688*
X2064864Y1603313*
X2065136Y1602938*
X2065545Y1602750*
X2066500*
X2061591Y1605375D02*
X2061727Y1604813D01*
X2062000Y1604438*
X2062409Y1604250*
X2062545*
X2062955Y1604438*
X2063227Y1604813*
X2063364Y1605375*
Y1605563*
X2063227Y1606125*
X2062955Y1606500*
X2062545Y1606688*
X2062409*
X2062000Y1606500*
X2061727Y1606125*
X2061591Y1605375*
Y1604438*
X2061727Y1603500*
X2062000Y1602938*
X2062409Y1602750*
X2062682*
X2063091Y1602938*
X2063227Y1603313*
X2099000Y1692688D02*
Y1688750D01*
Y1692688D02*
X2097773D01*
X2097773D02*
X2097364Y1692500D01*
X2097227Y1692313*
X2097227D02*
X2097091Y1691938D01*
X2097091D02*
Y1691563D01*
X2097091D02*
X2097227Y1691188D01*
X2097227D02*
X2097364Y1691000D01*
X2097773Y1690813*
X2097773D02*
X2099000D01*
X2098045D02*
X2097091Y1688750D01*
X2095864Y1691938D02*
X2095591Y1692125D01*
X2095182Y1692688*
X2095182D02*
Y1688750D01*
X2069000Y1693188D02*
Y1689250D01*
Y1693188D02*
X2067773D01*
X2067364Y1693000*
X2067227Y1692813*
X2067091Y1692438*
Y1692063*
X2067227Y1691688*
X2067364Y1691500*
X2067773Y1691313*
X2069000*
X2068045D02*
X2067091Y1689250D01*
X2065727Y1692250D02*
Y1692438D01*
X2065591Y1692813*
X2065455Y1693000*
X2065182Y1693188*
X2064636*
X2064364Y1693000*
X2064227Y1692813*
X2064091Y1692438*
Y1692063*
X2064227Y1691688*
X2064500Y1691125*
X2065864Y1689250*
X2063955*
X2079000Y1720187D02*
Y1716250D01*
Y1720187D02*
X2077773D01*
X2077773D02*
X2077364Y1720000D01*
X2077227Y1719812*
X2077227D02*
X2077091Y1719437D01*
X2077091D02*
Y1719062D01*
X2077091D02*
X2077227Y1718687D01*
X2077227D02*
X2077364Y1718500D01*
X2077773Y1718312*
X2077773D02*
X2079000D01*
X2078045D02*
X2077091Y1716250D01*
X2075591Y1720187D02*
X2074091D01*
X2074091D02*
X2074909Y1718687D01*
X2074909D02*
X2074500D01*
X2074500D02*
X2074227Y1718500D01*
X2074091Y1718312*
X2074091D02*
X2073955Y1717750D01*
Y1717375*
X2074091Y1716812*
X2074091D02*
X2074364Y1716437D01*
X2074364D02*
X2074773Y1716250D01*
X2075182*
X2075591Y1716437*
X2075591D02*
X2075727Y1716625D01*
X2075864Y1717000*
X2080000Y1637188D02*
Y1633250D01*
Y1637188D02*
X2078773D01*
X2078773D02*
X2078364Y1637000D01*
X2078227Y1636813*
X2078227D02*
X2078091Y1636438D01*
X2078091D02*
Y1636063D01*
X2078091D02*
X2078227Y1635688D01*
X2078227D02*
X2078364Y1635500D01*
X2078773Y1635313*
X2078773D02*
X2080000D01*
X2079045D02*
X2078091Y1633250D01*
X2075500Y1637188D02*
X2076864Y1634563D01*
X2076864D02*
X2074818D01*
X2075500Y1637188D02*
Y1633250D01*
X2078500Y1669187D02*
Y1665250D01*
Y1669187D02*
X2077273D01*
X2077273D02*
X2076864Y1669000D01*
X2076727Y1668812*
X2076727D02*
X2076591Y1668437D01*
X2076591D02*
Y1668062D01*
X2076591D02*
X2076727Y1667687D01*
X2076727D02*
X2076864Y1667500D01*
X2077273Y1667312*
X2077273D02*
X2078500D01*
X2077545D02*
X2076591Y1665250D01*
X2073591Y1669187D02*
X2074955D01*
X2074955D02*
X2075091Y1667500D01*
X2074955Y1667687*
X2074955D02*
X2074545Y1667875D01*
X2074136*
X2073727Y1667687*
X2073727D02*
X2073455Y1667312D01*
X2073455D02*
X2073318Y1666750D01*
X2073455Y1666375*
X2073591Y1665812*
X2073591D02*
X2073864Y1665437D01*
X2073864D02*
X2074273Y1665250D01*
X2074682*
X2075091Y1665437*
X2075091D02*
X2075227Y1665625D01*
X2075364Y1666000*
X2068000Y1641688D02*
Y1637750D01*
Y1641688D02*
X2066773D01*
X2066364Y1641500*
X2066227Y1641313*
X2066091Y1640938*
Y1640563*
X2066227Y1640188*
X2066364Y1640000*
X2066773Y1639813*
X2068000*
X2067045D02*
X2066091Y1637750D01*
X2063227Y1641125D02*
X2063364Y1641500D01*
X2063773Y1641688*
X2064045*
X2064455Y1641500*
X2064727Y1640938*
X2064864Y1640000*
Y1639063*
X2064727Y1638313*
X2064455Y1637938*
X2064045Y1637750*
X2063909*
X2063500Y1637938*
X2063227Y1638313*
X2063091Y1638875*
Y1639063*
X2063227Y1639625*
X2063500Y1640000*
X2063909Y1640188*
X2064045*
X2064455Y1640000*
X2064727Y1639625*
X2064864Y1639063*
X2100000Y1592688D02*
Y1588750D01*
Y1592688D02*
X2098773D01*
X2098773D02*
X2098364Y1592500D01*
X2098227Y1592313*
X2098227D02*
X2098091Y1591938D01*
X2098091D02*
Y1591563D01*
X2098091D02*
X2098227Y1591188D01*
X2098227D02*
X2098364Y1591000D01*
X2098773Y1590813*
X2098773D02*
X2100000D01*
X2099045D02*
X2098091Y1588750D01*
X2094955Y1592688D02*
X2096318Y1588750D01*
X2096864Y1592688D02*
X2094955D01*
X2079000Y1618187D02*
Y1614250D01*
Y1618187D02*
X2077773D01*
X2077773D02*
X2077364Y1618000D01*
X2077227Y1617812*
X2077227D02*
X2077091Y1617437D01*
X2077091D02*
Y1617062D01*
X2077091D02*
X2077227Y1616687D01*
X2077227D02*
X2077364Y1616500D01*
X2077773Y1616312*
X2077773D02*
X2079000D01*
X2078045D02*
X2077091Y1614250D01*
X2075182Y1618187D02*
X2075591Y1618000D01*
X2075727Y1617625*
Y1617250*
X2075591Y1616875*
X2075318Y1616687*
X2075318D02*
X2074773Y1616500D01*
X2074364Y1616312*
X2074364D02*
X2074091Y1615937D01*
X2074091D02*
X2073955Y1615562D01*
X2073955D02*
Y1615000D01*
X2074091Y1614625*
X2074227Y1614437*
X2074227D02*
X2074636Y1614250D01*
X2075182*
X2075591Y1614437*
X2075591D02*
X2075727Y1614625D01*
X2075864Y1615000*
Y1615562*
X2075864D02*
X2075727Y1615937D01*
X2075727D02*
X2075455Y1616312D01*
X2075455D02*
X2075045Y1616500D01*
X2074500Y1616687*
X2074500D02*
X2074227Y1616875D01*
X2074091Y1617250*
Y1617625*
X2074227Y1618000*
X2074636Y1618187*
X2074636D02*
X2075182D01*
X2077500Y1586188D02*
Y1582250D01*
Y1586188D02*
X2076273D01*
X2076273D02*
X2075864Y1586000D01*
X2075727Y1585813*
X2075727D02*
X2075591Y1585438D01*
X2075591D02*
Y1585063D01*
X2075591D02*
X2075727Y1584688D01*
X2075727D02*
X2075864Y1584500D01*
X2076273Y1584313*
X2076273D02*
X2077500D01*
X2076545D02*
X2075591Y1582250D01*
X2072591Y1584875D02*
X2072727Y1584313D01*
X2072727D02*
X2073000Y1583938D01*
X2073000D02*
X2073409Y1583750D01*
X2073545*
X2073955Y1583938*
X2073955D02*
X2074227Y1584313D01*
X2074227D02*
X2074364Y1584875D01*
Y1585063*
X2074364D02*
X2074227Y1585625D01*
X2073955Y1586000*
X2073545Y1586188*
X2073545D02*
X2073409D01*
X2073409D02*
X2073000Y1586000D01*
X2072727Y1585625*
X2072591Y1584875*
Y1583938*
X2072591D02*
X2072727Y1583000D01*
X2073000Y1582438*
X2073000D02*
X2073409Y1582250D01*
X2073682*
X2074091Y1582438*
X2074091D02*
X2074227Y1582813D01*
G54D34*
X2119500Y1658650D02*
X2115350D01*
X2111600Y1654900*
Y1632850*
X2119500*
X2129500D02*
X2137400D01*
Y1654900*
X2133650Y1658650*
X2129500*
X2119545Y1655590D02*
G03Y1635910I5232J-9840D01*
G01X2129456D02*
G03Y1655590I-5233J9840D01*
G54D52*
G01X1910000Y1363781D02*
Y1355250D01*
Y1363781D02*
X1905864Y1355250D01*
Y1363781D02*
Y1355250D01*
X1897886Y1365406D02*
X1903205Y1352406D01*
X1892864Y1363781D02*
X1895227Y1355250D01*
X1892864Y1363781D02*
X1890500Y1355250D01*
X1894341Y1358094D02*
X1891386D01*
X1692205Y1361750D02*
Y1362156D01*
X1691909Y1362969*
X1691614Y1363375*
X1691023Y1363781*
X1689841*
X1689250Y1363375*
X1688955Y1362969*
X1688659Y1362156*
Y1361344*
X1688955Y1360531*
X1689545Y1359313*
X1689545D02*
X1692500Y1355250D01*
X1688364*
X1835000Y1363125D02*
Y1355250D01*
Y1363125D02*
X1833091D01*
X1832273Y1362750*
X1831727Y1362000*
X1831455Y1361250*
X1831182Y1360125*
Y1358250*
X1831455Y1357125*
X1831727Y1356375*
X1832273Y1355625*
X1833091Y1355250*
X1835000*
X1828727Y1363125D02*
Y1355250D01*
Y1363125D02*
X1825182D01*
X1828727Y1359375D02*
X1826545D01*
X1828727Y1355250D02*
X1825182D01*
X1822727Y1363125D02*
Y1355250D01*
Y1363125D02*
X1820545Y1355250D01*
X1818364Y1363125D02*
X1820545Y1355250D01*
X1818364Y1363125D02*
Y1355250D01*
X1814273Y1363125D02*
X1814818Y1362750D01*
X1815364Y1362000*
X1815636Y1361250*
X1815909Y1360125*
Y1358250*
X1815636Y1357125*
X1815364Y1356375*
X1814818Y1355625*
X1814273Y1355250*
X1813182*
X1812636Y1355625*
X1812091Y1356375*
X1811818Y1357125*
X1811545Y1358250*
Y1360125*
X1811818Y1361250*
X1812091Y1362000*
X1812636Y1362750*
X1813182Y1363125*
X1814273*
X1798727Y1361250D02*
X1799000Y1362000D01*
X1799545Y1362750*
X1800091Y1363125*
X1801182*
X1801727Y1362750*
X1802273Y1362000*
X1802545Y1361250*
X1802818Y1360125*
Y1358250*
X1802545Y1357125*
X1802273Y1356375*
X1801727Y1355625*
X1801182Y1355250*
X1800091*
X1799545Y1355625*
X1799000Y1356375*
X1798727Y1357125*
X1796273Y1363125D02*
Y1355250D01*
X1793818Y1363125D02*
Y1355250D01*
Y1363125D02*
X1791364D01*
X1790545Y1362750*
X1790273Y1362375*
X1790000Y1361625*
Y1360875*
X1790273Y1360125*
X1790545Y1359750*
X1791364Y1359375*
X1793818*
X1791909D02*
X1790000Y1355250D01*
X1783455Y1361250D02*
X1783727Y1362000D01*
X1784273Y1362750*
X1784818Y1363125*
X1785909*
X1786455Y1362750*
X1787000Y1362000*
X1787273Y1361250*
X1787545Y1360125*
Y1358250*
X1787273Y1357125*
X1787000Y1356375*
X1786455Y1355625*
X1785909Y1355250*
X1784818*
X1784273Y1355625*
X1783727Y1356375*
X1783455Y1357125*
X1781000Y1363125D02*
Y1357500D01*
X1780727Y1356375*
X1780182Y1355625*
X1779364Y1355250*
X1778818*
X1778000Y1355625*
X1777455Y1356375*
X1777182Y1357500*
Y1363125*
X1774727D02*
Y1355250D01*
X1770364Y1363125D02*
Y1355250D01*
X1772273Y1363125D02*
X1768455D01*
X1759455Y1361250D02*
Y1361625D01*
X1759182Y1362375*
X1758909Y1362750*
X1758364Y1363125*
X1757273*
X1756727Y1362750*
X1756455Y1362375*
X1756182Y1361625*
Y1360875*
X1756455Y1360125*
X1757000Y1359000*
X1759727Y1355250*
X1755909*
X1750727Y1363125D02*
X1753455Y1357875D01*
X1749364*
X1750727Y1363125D02*
Y1355250D01*
X1743636Y1362000D02*
X1743909Y1362750D01*
X1744727Y1363125*
X1745273*
X1746091Y1362750*
X1746636Y1361625*
X1746909Y1359750*
Y1357875*
X1746636Y1356375*
X1746091Y1355625*
X1745273Y1355250*
X1745000*
X1744182Y1355625*
X1743636Y1356375*
X1743364Y1357500*
Y1357875*
X1743636Y1359000*
X1744182Y1359750*
X1745000Y1360125*
X1745273*
X1746091Y1359750*
X1746636Y1359000*
X1746909Y1357875*
X1737364Y1363125D02*
X1740091D01*
X1740364Y1359750*
X1740091Y1360125*
X1739273Y1360500*
X1738455*
X1737636Y1360125*
X1737091Y1359375*
X1736818Y1358250*
X1737091Y1357500*
X1737364Y1356375*
X1737909Y1355625*
X1738727Y1355250*
X1739545*
X1740364Y1355625*
X1740636Y1356000*
X1740909Y1356750*
X1732182Y1363125D02*
X1734364Y1355250D01*
X1732182Y1363125D02*
X1730000Y1355250D01*
X1733545Y1357875D02*
X1730818D01*
X1850000Y1375625D02*
Y1367750D01*
X1846727*
X1842364Y1375625D02*
Y1367750D01*
X1844273Y1375625D02*
X1840455D01*
X1835273D02*
X1838000Y1370375D01*
X1833909*
X1835273Y1375625D02*
Y1367750D01*
X1830909Y1375625D02*
X1827909D01*
X1829545Y1372625*
X1828727*
X1828182Y1372250*
X1827909Y1371875*
X1827636Y1370750*
Y1370000*
X1827909Y1368875*
X1828455Y1368125*
X1829273Y1367750*
X1830091*
X1830909Y1368125*
X1831182Y1368500*
X1831455Y1369250*
X1824909Y1373750D02*
Y1374125D01*
X1824636Y1374875*
X1824364Y1375250*
X1823818Y1375625*
X1822727*
X1822182Y1375250*
X1821909Y1374875*
X1821636Y1374125*
Y1373375*
X1821909Y1372625*
X1822455Y1371500*
X1825182Y1367750*
X1821364*
X1817273Y1375625D02*
X1818091Y1375250D01*
X1818636Y1374125*
X1818909Y1372250*
Y1371125*
X1818636Y1369250*
X1818091Y1368125*
X1817273Y1367750*
X1816727*
X1815909Y1368125*
X1815364Y1369250*
X1815091Y1371125*
Y1372250*
X1815364Y1374125*
X1815909Y1375250*
X1816727Y1375625*
X1817273*
X1812636D02*
Y1367750D01*
X1810182Y1375625D02*
Y1367750D01*
Y1375625D02*
X1808273D01*
X1807455Y1375250*
X1806909Y1374500*
X1806636Y1373750*
X1806364Y1372625*
Y1370750*
X1806636Y1369625*
X1806909Y1368875*
X1807455Y1368125*
X1808273Y1367750*
X1810182*
X1803909Y1375625D02*
Y1367750D01*
Y1375625D02*
X1802000D01*
X1801182Y1375250*
X1800636Y1374500*
X1800364Y1373750*
X1800091Y1372625*
Y1370750*
X1800364Y1369625*
X1800636Y1368875*
X1801182Y1368125*
X1802000Y1367750*
X1803909*
X1797636Y1371125D02*
X1792727D01*
X1790273Y1374125D02*
X1789727Y1374500D01*
X1788909Y1375625*
Y1367750*
G54D53*
X2004773Y1464094D02*
X2007500Y1454250D01*
X2004773Y1464094D02*
X2002045Y1454250D01*
X2006477Y1457531D02*
X2003068D01*
X1998977Y1464094D02*
Y1454250D01*
Y1464094D02*
X1995909D01*
X1994886Y1463625*
X1994545Y1463156*
X1994205Y1462219*
Y1460813*
X1994205D02*
X1994545Y1459875D01*
X1994886Y1459406*
X1995909Y1458938*
X1995909D02*
X1998977D01*
X1991136Y1464094D02*
Y1454250D01*
Y1464094D02*
X1988068D01*
X1987045Y1463625*
X1986705Y1463156*
X1986364Y1462219*
Y1460813*
X1986364D02*
X1986705Y1459875D01*
X1987045Y1459406*
X1988068Y1458938*
X1988068D02*
X1991136D01*
X1983295Y1464094D02*
Y1454250D01*
Y1464094D02*
X1980227D01*
X1979205Y1463625*
X1978864Y1463156*
X1978523Y1462219*
Y1461281*
X1978864Y1460344*
X1979205Y1459875*
X1980227Y1459406*
X1983295*
X1980909D02*
X1978523Y1454250D01*
X1973409Y1464094D02*
X1974091Y1463625D01*
X1974773Y1462688*
X1974773D02*
X1975114Y1461750D01*
X1975455Y1460344*
Y1458000*
X1975114Y1456594*
X1974773Y1455656*
X1974091Y1454719*
X1973409Y1454250*
X1972045*
X1971364Y1454719*
X1970682Y1455656*
X1970341Y1456594*
X1970000Y1458000*
Y1460344*
X1970341Y1461750*
X1970682Y1462688*
X1970682D02*
X1971364Y1463625D01*
X1972045Y1464094*
X1973409*
X1966932D02*
X1964205Y1454250D01*
X1961477Y1464094D02*
X1964205Y1454250D01*
X1955682Y1464094D02*
X1958409Y1454250D01*
X1955682Y1464094D02*
X1952955Y1454250D01*
X1957386Y1457531D02*
X1953977D01*
X1949886Y1464094D02*
Y1454250D01*
X1945795*
X1937955Y1462688D02*
X1938636Y1463625D01*
X1939659Y1464094*
X1941023*
X1942045Y1463625*
X1942727Y1462688*
X1942727D02*
Y1461750D01*
X1942386Y1460813*
X1942386D02*
X1942045Y1460344D01*
X1941364Y1459875*
X1939318Y1458938*
X1939318D02*
X1938636Y1458469D01*
X1938295Y1458000*
X1937955Y1457063*
X1937955D02*
Y1455656D01*
X1938636Y1454719*
X1939659Y1454250*
X1941023*
X1942045Y1454719*
X1942727Y1455656*
X2014773Y1840688D02*
X2014091Y1841625D01*
X2013068Y1842094*
X2011705*
X2010682Y1841625*
X2010000Y1840688*
X2010000D02*
Y1839750D01*
X2010341Y1838813*
X2010341D02*
X2010682Y1838344D01*
X2011364Y1837875*
X2013409Y1836938*
X2013409D02*
X2014091Y1836469D01*
X2014432Y1836000*
X2014773Y1835063*
X2014773D02*
Y1833656D01*
X2014091Y1832719*
X2013068Y1832250*
X2011705*
X2010682Y1832719*
X2010000Y1833656*
X2017841Y1842094D02*
Y1832250D01*
X2022614Y1842094D02*
Y1832250D01*
X2017841Y1837406D02*
X2022614D01*
X2027727Y1842094D02*
X2027045Y1841625D01*
X2026364Y1840688*
X2026364D02*
X2026023Y1839750D01*
X2025682Y1838344*
Y1836000*
X2026023Y1834594*
X2026364Y1833656*
X2027045Y1832719*
X2027727Y1832250*
X2029091*
X2029773Y1832719*
X2030455Y1833656*
X2030795Y1834594*
X2031136Y1836000*
Y1838344*
X2030795Y1839750*
X2030455Y1840688*
X2030455D02*
X2029773Y1841625D01*
X2029091Y1842094*
X2027727*
X2034205D02*
X2035909Y1832250D01*
X2037614Y1842094D02*
X2035909Y1832250D01*
X2037614Y1842094D02*
X2039318Y1832250D01*
X2041023Y1842094D02*
X2039318Y1832250D01*
X2044091Y1842094D02*
Y1832250D01*
Y1842094D02*
X2048864Y1832250D01*
Y1842094D02*
Y1832250D01*
X2059773Y1842094D02*
Y1832250D01*
Y1842094D02*
X2064205D01*
X2059773Y1837406D02*
X2062500D01*
X2067273Y1842094D02*
Y1832250D01*
Y1842094D02*
X2070341D01*
X2071364Y1841625*
X2071705Y1841156*
X2072045Y1840219*
Y1839281*
X2071705Y1838344*
X2071364Y1837875*
X2070341Y1837406*
X2067273*
X2069659D02*
X2072045Y1832250D01*
X2077159Y1842094D02*
X2076477Y1841625D01*
X2075795Y1840688*
X2075795D02*
X2075455Y1839750D01*
X2075114Y1838344*
Y1836000*
X2075455Y1834594*
X2075795Y1833656*
X2076477Y1832719*
X2077159Y1832250*
X2078523*
X2079205Y1832719*
X2079886Y1833656*
X2080227Y1834594*
X2080568Y1836000*
Y1838344*
X2080227Y1839750*
X2079886Y1840688*
X2079886D02*
X2079205Y1841625D01*
X2078523Y1842094*
X2077159*
X2083636D02*
Y1832250D01*
Y1842094D02*
X2086364Y1832250D01*
X2089091Y1842094D02*
X2086364Y1832250D01*
X2089091Y1842094D02*
Y1832250D01*
X2100000Y1842094D02*
Y1832250D01*
Y1842094D02*
X2103068D01*
X2104091Y1841625*
X2104432Y1841156*
X2104773Y1840219*
Y1839281*
X2104432Y1838344*
X2104091Y1837875*
X2103068Y1837406*
X2100000D02*
X2103068D01*
X2104091Y1836938*
X2104091D02*
X2104432Y1836469D01*
X2104773Y1835531*
Y1834125*
X2104432Y1833188*
X2104432D02*
X2104091Y1832719D01*
X2103068Y1832250*
X2100000*
X2109886Y1842094D02*
X2109205Y1841625D01*
X2108523Y1840688*
X2108523D02*
X2108182Y1839750D01*
X2107841Y1838344*
Y1836000*
X2108182Y1834594*
X2108523Y1833656*
X2109205Y1832719*
X2109886Y1832250*
X2111250*
X2111932Y1832719*
X2112614Y1833656*
X2112955Y1834594*
X2113295Y1836000*
Y1838344*
X2112955Y1839750*
X2112614Y1840688*
X2112614D02*
X2111932Y1841625D01*
X2111250Y1842094*
X2109886*
X2118750D02*
Y1832250D01*
X2116364Y1842094D02*
X2121136D01*
X2126591D02*
Y1832250D01*
X2124205Y1842094D02*
X2128977D01*
X2134091D02*
X2133409Y1841625D01*
X2132727Y1840688*
X2132727D02*
X2132386Y1839750D01*
X2132045Y1838344*
Y1836000*
X2132386Y1834594*
X2132727Y1833656*
X2133409Y1832719*
X2134091Y1832250*
X2135455*
X2136136Y1832719*
X2136818Y1833656*
X2137159Y1834594*
X2137500Y1836000*
Y1838344*
X2137159Y1839750*
X2136818Y1840688*
X2136818D02*
X2136136Y1841625D01*
X2135455Y1842094*
X2134091*
X2140568D02*
Y1832250D01*
Y1842094D02*
X2143295Y1832250D01*
X2146023Y1842094D02*
X2143295Y1832250D01*
X2146023Y1842094D02*
Y1832250D01*
X2161705Y1840688D02*
X2161023Y1841625D01*
X2160000Y1842094*
X2158636*
X2157614Y1841625*
X2156932Y1840688*
X2156932D02*
Y1839750D01*
X2157273Y1838813*
X2157273D02*
X2157614Y1838344D01*
X2158295Y1837875*
X2160341Y1836938*
X2160341D02*
X2161023Y1836469D01*
X2161364Y1836000*
X2161705Y1835063*
X2161705D02*
Y1833656D01*
X2161023Y1832719*
X2160000Y1832250*
X2158636*
X2157614Y1832719*
X2156932Y1833656*
X2164773Y1842094D02*
Y1832250D01*
X2167841Y1842094D02*
Y1832250D01*
Y1842094D02*
X2170227D01*
X2171250Y1841625*
X2171932Y1840688*
X2171932D02*
X2172273Y1839750D01*
X2172614Y1838344*
Y1836000*
X2172273Y1834594*
X2171932Y1833656*
X2171250Y1832719*
X2170227Y1832250*
X2167841*
X2175682Y1842094D02*
Y1832250D01*
Y1842094D02*
X2180114D01*
X2175682Y1837406D02*
X2178409D01*
X2175682Y1832250D02*
X2180114D01*
X1915003Y1337151D02*
Y1474651D01*
Y1380250D02*
X1677503D01*
X1915003Y1427750D02*
X1677503D01*
X1885000Y1350250D02*
Y1380250D01*
X1705000Y1350250D02*
Y1380250D01*
X1742500Y1335250D02*
Y1350250D01*
X1678000D02*
X1915000D01*
G54D54*
X2322500Y1335250D02*
X1677500D01*
Y1864750*
X2322500*
Y1335250*
X2027503D02*
X1677503D01*
Y1474651*
X2027503*
Y1335250*
G54D57*
X2071000Y1598250D02*
Y1594250D01*
X2067500*
Y1598250*
X2071000*
X2084500D02*
Y1594250D01*
X2081000*
Y1598250*
X2084500*
X2092000Y1707250D02*
X2088000D01*
Y1710750*
X2092000*
Y1707250*
Y1693750D02*
X2088000D01*
Y1697250*
X2092000*
Y1693750*
Y1657250D02*
X2088000D01*
Y1660750*
X2092000*
Y1657250*
Y1643750D02*
X2088000D01*
Y1647250*
X2092000*
Y1643750*
Y1605250D02*
X2088000D01*
Y1608750*
X2092000*
Y1605250*
Y1591750D02*
X2088000D01*
Y1595250*
X2092000*
Y1591750*
X2093000Y1682250D02*
Y1686250D01*
X2096500*
Y1682250*
X2093000*
X2079500D02*
Y1686250D01*
X2083000*
Y1682250*
X2079500*
X2071000Y1699250D02*
Y1695250D01*
X2067500*
Y1699250*
X2071000*
X2084500D02*
Y1695250D01*
X2081000*
Y1699250*
X2084500*
X2071000Y1708250D02*
Y1704250D01*
X2067500*
Y1708250*
X2071000*
X2084500D02*
Y1704250D01*
X2081000*
Y1708250*
X2084500*
X2095000Y1630750D02*
Y1634750D01*
X2098500*
Y1630750*
X2095000*
X2081500D02*
Y1634750D01*
X2085000*
Y1630750*
X2081500*
X2071000Y1657250D02*
Y1653250D01*
X2067500*
Y1657250*
X2071000*
X2084500D02*
Y1653250D01*
X2081000*
Y1657250*
X2084500*
X2071000Y1649250D02*
Y1645250D01*
X2067500*
Y1649250*
X2071000*
X2084500D02*
Y1645250D01*
X2081000*
Y1649250*
X2084500*
X2095000Y1579250D02*
Y1583250D01*
X2098500*
Y1579250*
X2095000*
X2081500D02*
Y1583250D01*
X2085000*
Y1579250*
X2081500*
X2071000Y1606250D02*
Y1602250D01*
X2067500*
Y1606250*
X2071000*
X2084500D02*
Y1602250D01*
X2081000*
Y1606250*
X2084500*
X2093750Y1689250D02*
X2090250D01*
Y1692250*
X2093750*
Y1689250*
X2087750D02*
X2084250D01*
Y1692250*
X2087750*
Y1689250*
X2093750D02*
X2090250D01*
Y1692250*
X2093750*
Y1689250*
X2087750D02*
X2084250D01*
Y1692250*
X2087750*
Y1689250*
X2071250Y1691750D02*
X2074750D01*
Y1688750*
X2071250*
Y1691750*
X2077250D02*
X2080750D01*
Y1688750*
X2077250*
Y1691750*
X2071250D02*
X2074750D01*
Y1688750*
X2071250*
Y1691750*
X2077250D02*
X2080750D01*
Y1688750*
X2077250*
Y1691750*
X2071250Y1714750D02*
X2074750D01*
Y1711750*
X2071250*
Y1714750*
X2077250D02*
X2080750D01*
Y1711750*
X2077250*
Y1714750*
X2071250D02*
X2074750D01*
Y1711750*
X2071250*
Y1714750*
X2077250D02*
X2080750D01*
Y1711750*
X2077250*
Y1714750*
X2094750Y1637750D02*
X2091250D01*
Y1640750*
X2094750*
Y1637750*
X2088750D02*
X2085250D01*
Y1640750*
X2088750*
Y1637750*
X2094750D02*
X2091250D01*
Y1640750*
X2094750*
Y1637750*
X2088750D02*
X2085250D01*
Y1640750*
X2088750*
Y1637750*
X2071250Y1663750D02*
X2074750D01*
Y1660750*
X2071250*
Y1663750*
X2077250D02*
X2080750D01*
Y1660750*
X2077250*
Y1663750*
X2071250D02*
X2074750D01*
Y1660750*
X2071250*
Y1663750*
X2077250D02*
X2080750D01*
Y1660750*
X2077250*
Y1663750*
X2071750Y1641750D02*
X2075250D01*
Y1638750*
X2071750*
Y1641750*
X2077750D02*
X2081250D01*
Y1638750*
X2077750*
Y1641750*
X2071750D02*
X2075250D01*
Y1638750*
X2071750*
Y1641750*
X2077750D02*
X2081250D01*
Y1638750*
X2077750*
Y1641750*
X2094750Y1586250D02*
X2091250D01*
Y1589250*
X2094750*
Y1586250*
X2088750D02*
X2085250D01*
Y1589250*
X2088750*
Y1586250*
X2094750D02*
X2091250D01*
Y1589250*
X2094750*
Y1586250*
X2088750D02*
X2085250D01*
Y1589250*
X2088750*
Y1586250*
X2071250Y1612750D02*
X2074750D01*
Y1609750*
X2071250*
Y1612750*
X2077250D02*
X2080750D01*
Y1609750*
X2077250*
Y1612750*
X2071250D02*
X2074750D01*
Y1609750*
X2071250*
Y1612750*
X2077250D02*
X2080750D01*
Y1609750*
X2077250*
Y1612750*
X2070750Y1590750D02*
X2074250D01*
Y1587750*
X2070750*
Y1590750*
X2076750D02*
X2080250D01*
Y1587750*
X2076750*
Y1590750*
X2070750D02*
X2074250D01*
Y1587750*
X2070750*
Y1590750*
X2076750D02*
X2080250D01*
Y1587750*
X2076750*
Y1590750*
G74*
X0Y0D02*
M02*
