*
*
G04 PADS 9.5 Build Number: 522968 generated Gerber (RS-274-X) file*
G04 PC Version=2.1*
*
%IN "DC1902B-1.pcb"*%
*
%MOIN*%
*
%FSLAX35Y35*%
*
*
*
*
G04 PC Standard Apertures*
*
*
G04 Thermal Relief Aperture macro.*
%AMTER*
1,1,$1,0,0*
1,0,$1-$2,0,0*
21,0,$3,$4,0,0,45*
21,0,$3,$4,0,0,135*
%
*
*
G04 Annular Aperture macro.*
%AMANN*
1,1,$1,0,0*
1,0,$2,0,0*
%
*
*
G04 Odd Aperture macro.*
%AMODD*
1,1,$1,0,0*
1,0,$1-0.005,0,0*
%
*
*
G04 PC Custom Aperture Macros*
*
*
*
*
*
*
G04 PC Aperture Table*
*
%ADD019C,0.01*%
%ADD026C,0.008*%
%ADD095C,0.001*%
%ADD153C,0.076*%
%ADD173C,0.074*%
%ADD200C,0.154*%
%ADD242C,0.069*%
%ADD295R,0.074X0.074*%
%ADD364C,0.191*%
%ADD371R,0.022X0.054*%
%ADD372R,0.054X0.022*%
*
*
*
*
G04 PC Circuitry*
G04 Layer Name DC1902B-1.pcb - circuitry*
%LPD*%
*
*
G04 PC Custom Flashes*
G04 Layer Name DC1902B-1.pcb - flashes*
%LPD*%
*
*
G04 PC Circuitry*
G04 Layer Name DC1902B-1.pcb - circuitry*
%LPD*%
*
G54D19*
G01X2007700Y1623000D02*
Y1615600D01*
X1994300*
Y1623000*
X2007700*
X1994500Y1615600D02*
Y1623000D01*
X1995000Y1615600D02*
Y1623000D01*
X1995500Y1615600D02*
Y1623000D01*
X1996000Y1615600D02*
Y1623000D01*
X1996500Y1615600D02*
Y1623000D01*
X1997000Y1615600D02*
Y1623000D01*
X1997500Y1615600D02*
Y1623000D01*
X1998000Y1615600D02*
Y1623000D01*
X1998500Y1615600D02*
Y1623000D01*
X1999000Y1615600D02*
Y1623000D01*
X1999500Y1615600D02*
Y1623000D01*
X2000000Y1615600D02*
Y1623000D01*
X2000500Y1615600D02*
Y1623000D01*
X2001000Y1615600D02*
Y1623000D01*
X2001500Y1615600D02*
Y1623000D01*
X2002000Y1615600D02*
Y1623000D01*
X2002500Y1615600D02*
Y1623000D01*
X2003000Y1615600D02*
Y1623000D01*
X2003500Y1615600D02*
Y1623000D01*
X2004000Y1615600D02*
Y1623000D01*
X2004500Y1615600D02*
Y1623000D01*
X2005000Y1615600D02*
Y1623000D01*
X2005500Y1615600D02*
Y1623000D01*
X2006000Y1615600D02*
Y1623000D01*
X2006500Y1615600D02*
Y1623000D01*
X2007000Y1615600D02*
Y1623000D01*
X2007500Y1615600D02*
Y1623000D01*
X2006200Y1629100D02*
X1998800D01*
Y1642500*
X2006200*
Y1629100*
X1999000D02*
Y1642500D01*
X1999500Y1629100D02*
Y1642500D01*
X2000000Y1629100D02*
Y1642500D01*
X2000500Y1629100D02*
Y1642500D01*
X2001000Y1629100D02*
Y1642500D01*
X2001500Y1629100D02*
Y1642500D01*
X2002000Y1629100D02*
Y1642500D01*
X2002500Y1629100D02*
Y1642500D01*
X2003000Y1629100D02*
Y1642500D01*
X2003500Y1629100D02*
Y1642500D01*
X2004000Y1629100D02*
Y1642500D01*
X2004500Y1629100D02*
Y1642500D01*
X2005000Y1629100D02*
Y1642500D01*
X2005500Y1629100D02*
Y1642500D01*
X2006000Y1629100D02*
Y1642500D01*
X1989700Y1636000D02*
Y1628600D01*
X1976300*
Y1636000*
X1989700*
X1976500Y1628600D02*
Y1636000D01*
X1977000Y1628600D02*
Y1636000D01*
X1977500Y1628600D02*
Y1636000D01*
X1978000Y1628600D02*
Y1636000D01*
X1978500Y1628600D02*
Y1636000D01*
X1979000Y1628600D02*
Y1636000D01*
X1979500Y1628600D02*
Y1636000D01*
X1980000Y1628600D02*
Y1636000D01*
X1980500Y1628600D02*
Y1636000D01*
X1981000Y1628600D02*
Y1636000D01*
X1981500Y1628600D02*
Y1636000D01*
X1982000Y1628600D02*
Y1636000D01*
X1982500Y1628600D02*
Y1636000D01*
X1983000Y1628600D02*
Y1636000D01*
X1983500Y1628600D02*
Y1636000D01*
X1984000Y1628600D02*
Y1636000D01*
X1984500Y1628600D02*
Y1636000D01*
X1985000Y1628600D02*
Y1636000D01*
X1985500Y1628600D02*
Y1636000D01*
X1986000Y1628600D02*
Y1636000D01*
X1986500Y1628600D02*
Y1636000D01*
X1987000Y1628600D02*
Y1636000D01*
X1987500Y1628600D02*
Y1636000D01*
X1988000Y1628600D02*
Y1636000D01*
X1988500Y1628600D02*
Y1636000D01*
X1989000Y1628600D02*
Y1636000D01*
X1989500Y1628600D02*
Y1636000D01*
X1977800Y1618500D02*
X1985200D01*
Y1605100*
X1977800*
Y1618500*
X1978000Y1605100D02*
Y1618500D01*
X1978500Y1605100D02*
Y1618500D01*
X1979000Y1605100D02*
Y1618500D01*
X1979500Y1605100D02*
Y1618500D01*
X1980000Y1605100D02*
Y1618500D01*
X1980500Y1605100D02*
Y1618500D01*
X1981000Y1605100D02*
Y1618500D01*
X1981500Y1605100D02*
Y1618500D01*
X1982000Y1605100D02*
Y1618500D01*
X1982500Y1605100D02*
Y1618500D01*
X1983000Y1605100D02*
Y1618500D01*
X1983500Y1605100D02*
Y1618500D01*
X1984000Y1605100D02*
Y1618500D01*
X1984500Y1605100D02*
Y1618500D01*
X1985000Y1605100D02*
Y1618500D01*
X1840000Y1457863D02*
Y1451300D01*
X1842727*
X1844773Y1457863D02*
Y1451300D01*
X1846818Y1457863D02*
Y1451300D01*
Y1457863D02*
X1850000Y1451300D01*
Y1457863D02*
Y1451300D01*
X1852045Y1457863D02*
Y1451300D01*
Y1457863D02*
X1855000D01*
X1852045Y1454738D02*
X1853864D01*
X1852045Y1451300D02*
X1855000D01*
X1858864Y1457863D02*
X1857045Y1451300D01*
X1858864Y1457863D02*
X1860682Y1451300D01*
X1857727Y1453488D02*
X1860000D01*
X1862727Y1457863D02*
Y1451300D01*
Y1457863D02*
X1864773D01*
X1864773D02*
X1865455Y1457550D01*
X1865682Y1457238*
X1865682D02*
X1865909Y1456613D01*
X1865909D02*
Y1455988D01*
X1865909D02*
X1865682Y1455363D01*
X1865682D02*
X1865455Y1455050D01*
X1864773Y1454738*
X1864773D02*
X1862727D01*
X1864318D02*
X1865909Y1451300D01*
X1874773Y1457863D02*
Y1451300D01*
X1873182Y1457863D02*
X1876364D01*
X1878409D02*
Y1451300D01*
Y1457863D02*
X1881364D01*
X1878409Y1454738D02*
X1880227D01*
X1878409Y1451300D02*
X1881364D01*
X1886818Y1456300D02*
X1886591Y1456925D01*
X1886136Y1457550*
X1885682Y1457863*
X1885682D02*
X1884773D01*
X1884773D02*
X1884318Y1457550D01*
X1883864Y1456925*
X1883636Y1456300*
X1883409Y1455363*
X1883409D02*
Y1453800D01*
X1883636Y1452863*
X1883636D02*
X1883864Y1452238D01*
X1883864D02*
X1884318Y1451613D01*
X1884318D02*
X1884773Y1451300D01*
X1885682*
X1886136Y1451613*
X1886136D02*
X1886591Y1452238D01*
X1886591D02*
X1886818Y1452863D01*
X1888864Y1457863D02*
Y1451300D01*
X1892045Y1457863D02*
Y1451300D01*
X1888864Y1454738D02*
X1892045D01*
X1894091Y1457863D02*
Y1451300D01*
Y1457863D02*
X1897273Y1451300D01*
Y1457863D02*
Y1451300D01*
X1900682Y1457863D02*
X1900227Y1457550D01*
X1899773Y1456925*
X1899545Y1456300*
X1899318Y1455363*
X1899318D02*
Y1453800D01*
X1899545Y1452863*
X1899545D02*
X1899773Y1452238D01*
X1899773D02*
X1900227Y1451613D01*
X1900227D02*
X1900682Y1451300D01*
X1901591*
X1902045Y1451613*
X1902045D02*
X1902500Y1452238D01*
X1902500D02*
X1902727Y1452863D01*
X1902727D02*
X1902955Y1453800D01*
Y1455363*
X1902955D02*
X1902727Y1456300D01*
X1902500Y1456925*
X1902045Y1457550*
X1901591Y1457863*
X1901591D02*
X1900682D01*
X1905000D02*
Y1451300D01*
X1907727*
X1911136Y1457863D02*
X1910682Y1457550D01*
X1910227Y1456925*
X1910000Y1456300*
X1909773Y1455363*
X1909773D02*
Y1453800D01*
X1910000Y1452863*
X1910000D02*
X1910227Y1452238D01*
X1910227D02*
X1910682Y1451613D01*
X1910682D02*
X1911136Y1451300D01*
X1912045*
X1912500Y1451613*
X1912500D02*
X1912955Y1452238D01*
X1912955D02*
X1913182Y1452863D01*
X1913182D02*
X1913409Y1453800D01*
Y1455363*
X1913409D02*
X1913182Y1456300D01*
X1912955Y1456925*
X1912500Y1457550*
X1912045Y1457863*
X1912045D02*
X1911136D01*
X1918864Y1456300D02*
X1918636Y1456925D01*
X1918182Y1457550*
X1917727Y1457863*
X1917727D02*
X1916818D01*
X1916818D02*
X1916364Y1457550D01*
X1915909Y1456925*
X1915682Y1456300*
X1915455Y1455363*
X1915455D02*
Y1453800D01*
X1915682Y1452863*
X1915682D02*
X1915909Y1452238D01*
X1915909D02*
X1916364Y1451613D01*
X1916364D02*
X1916818Y1451300D01*
X1917727*
X1918182Y1451613*
X1918182D02*
X1918636Y1452238D01*
X1918636D02*
X1918864Y1452863D01*
X1918864D02*
Y1453800D01*
X1917727D02*
X1918864D01*
X1920909Y1457863D02*
X1922727Y1454738D01*
X1922727D02*
Y1451300D01*
X1924545Y1457863D02*
X1922727Y1454738D01*
X1840000Y1445363D02*
Y1438800D01*
Y1445363D02*
X1841591D01*
X1841591D02*
X1842273Y1445050D01*
X1842727Y1444425*
X1842955Y1443800*
X1843182Y1442863*
X1843182D02*
Y1441300D01*
X1842955Y1440363*
X1842955D02*
X1842727Y1439738D01*
X1842727D02*
X1842273Y1439113D01*
X1842273D02*
X1841591Y1438800D01*
X1840000*
X1848636Y1443800D02*
X1848409Y1444425D01*
X1847955Y1445050*
X1847500Y1445363*
X1847500D02*
X1846591D01*
X1846591D02*
X1846136Y1445050D01*
X1845682Y1444425*
X1845455Y1443800*
X1845227Y1442863*
X1845227D02*
Y1441300D01*
X1845455Y1440363*
X1845455D02*
X1845682Y1439738D01*
X1845682D02*
X1846136Y1439113D01*
X1846136D02*
X1846591Y1438800D01*
X1847500*
X1847955Y1439113*
X1847955D02*
X1848409Y1439738D01*
X1848409D02*
X1848636Y1440363D01*
X1850682Y1444113D02*
X1851136Y1444425D01*
X1851818Y1445363*
X1851818D02*
Y1438800D01*
X1856818Y1443175D02*
X1856591Y1442238D01*
X1856591D02*
X1856136Y1441613D01*
X1856136D02*
X1855455Y1441300D01*
X1855227*
X1854545Y1441613*
X1854545D02*
X1854091Y1442238D01*
X1854091D02*
X1853864Y1443175D01*
Y1443488*
X1853864D02*
X1854091Y1444425D01*
X1854545Y1445050*
X1855227Y1445363*
X1855227D02*
X1855455D01*
X1855455D02*
X1856136Y1445050D01*
X1856591Y1444425*
X1856818Y1443175*
Y1441613*
X1856818D02*
X1856591Y1440050D01*
X1856136Y1439113*
X1856136D02*
X1855455Y1438800D01*
X1855000*
X1854318Y1439113*
X1854318D02*
X1854091Y1439738D01*
X1860227Y1445363D02*
X1859545Y1445050D01*
X1859091Y1444113*
X1859091D02*
X1858864Y1442550D01*
Y1441613*
X1858864D02*
X1859091Y1440050D01*
X1859545Y1439113*
X1859545D02*
X1860227Y1438800D01*
X1860682*
X1861364Y1439113*
X1861364D02*
X1861818Y1440050D01*
X1862045Y1441613*
X1862045D02*
Y1442550D01*
X1861818Y1444113*
X1861818D02*
X1861364Y1445050D01*
X1860682Y1445363*
X1860682D02*
X1860227D01*
X1864318Y1443800D02*
Y1444113D01*
X1864318D02*
X1864545Y1444738D01*
X1864545D02*
X1864773Y1445050D01*
X1865227Y1445363*
X1865227D02*
X1866136D01*
X1866136D02*
X1866591Y1445050D01*
X1866818Y1444738*
X1866818D02*
X1867045Y1444113D01*
X1867045D02*
Y1443488D01*
X1867045D02*
X1866818Y1442863D01*
X1866818D02*
X1866364Y1441925D01*
X1864091Y1438800*
X1867273*
X1869318Y1445363D02*
Y1438800D01*
Y1445363D02*
X1871364D01*
X1871364D02*
X1872045Y1445050D01*
X1872273Y1444738*
X1872273D02*
X1872500Y1444113D01*
X1872500D02*
Y1443488D01*
X1872500D02*
X1872273Y1442863D01*
X1872273D02*
X1872045Y1442550D01*
X1871364Y1442238*
X1869318D02*
X1871364D01*
X1871364D02*
X1872045Y1441925D01*
X1872273Y1441613*
X1872273D02*
X1872500Y1440988D01*
X1872500D02*
Y1440050D01*
X1872273Y1439425*
X1872045Y1439113*
X1872045D02*
X1871364Y1438800D01*
X1869318*
X1874545Y1441613D02*
X1878636D01*
X1880682Y1444113D02*
X1881136Y1444425D01*
X1881818Y1445363*
X1881818D02*
Y1438800D01*
X1915227Y1445363D02*
Y1438800D01*
X1917955*
X1921591Y1445363D02*
Y1438800D01*
X1920000Y1445363D02*
X1923182D01*
X1927500D02*
X1925227Y1440988D01*
X1925227D02*
X1928636D01*
X1927500Y1445363D02*
Y1438800D01*
X1931136Y1445363D02*
X1933636D01*
X1933636D02*
X1932273Y1442863D01*
X1932273D02*
X1932955D01*
X1932955D02*
X1933409Y1442550D01*
X1933636Y1442238*
X1933636D02*
X1933864Y1441300D01*
Y1440675*
X1933636Y1439738*
X1933636D02*
X1933182Y1439113D01*
X1933182D02*
X1932500Y1438800D01*
X1931818*
X1931136Y1439113*
X1931136D02*
X1930909Y1439425D01*
X1930682Y1440050*
X1936136Y1443800D02*
Y1444113D01*
X1936136D02*
X1936364Y1444738D01*
X1936364D02*
X1936591Y1445050D01*
X1937045Y1445363*
X1937045D02*
X1937955D01*
X1937955D02*
X1938409Y1445050D01*
X1938636Y1444738*
X1938636D02*
X1938864Y1444113D01*
X1938864D02*
Y1443488D01*
X1938864D02*
X1938636Y1442863D01*
X1938636D02*
X1938182Y1441925D01*
X1935909Y1438800*
X1939091*
X1942500Y1445363D02*
X1941818Y1445050D01*
X1941364Y1444113*
X1941364D02*
X1941136Y1442550D01*
Y1441613*
X1941136D02*
X1941364Y1440050D01*
X1941818Y1439113*
X1941818D02*
X1942500Y1438800D01*
X1942955*
X1943636Y1439113*
X1943636D02*
X1944091Y1440050D01*
X1944318Y1441613*
X1944318D02*
Y1442550D01*
X1944091Y1444113*
X1944091D02*
X1943636Y1445050D01*
X1942955Y1445363*
X1942955D02*
X1942500D01*
X1946364D02*
Y1438800D01*
X1948409Y1445363D02*
Y1438800D01*
Y1445363D02*
X1950000D01*
X1950000D02*
X1950682Y1445050D01*
X1951136Y1444425*
X1951364Y1443800*
X1951591Y1442863*
X1951591D02*
Y1441300D01*
X1951364Y1440363*
X1951364D02*
X1951136Y1439738D01*
X1951136D02*
X1950682Y1439113D01*
X1950682D02*
X1950000Y1438800D01*
X1948409*
X1953636Y1445363D02*
Y1438800D01*
Y1445363D02*
X1955227D01*
X1955227D02*
X1955909Y1445050D01*
X1956364Y1444425*
X1956591Y1443800*
X1956818Y1442863*
X1956818D02*
Y1441300D01*
X1956591Y1440363*
X1956591D02*
X1956364Y1439738D01*
X1956364D02*
X1955909Y1439113D01*
X1955909D02*
X1955227Y1438800D01*
X1953636*
X1997500Y1445363D02*
Y1438800D01*
Y1445363D02*
X1999091D01*
X1999091D02*
X1999773Y1445050D01*
X2000227Y1444425*
X2000455Y1443800*
X2000682Y1442863*
X2000682D02*
Y1441300D01*
X2000455Y1440363*
X2000455D02*
X2000227Y1439738D01*
X2000227D02*
X1999773Y1439113D01*
X1999773D02*
X1999091Y1438800D01*
X1997500*
X2004545Y1445363D02*
X2002727Y1438800D01*
X2004545Y1445363D02*
X2006364Y1438800D01*
X2003409Y1440988D02*
X2005682D01*
X2010000Y1445363D02*
Y1438800D01*
X2008409Y1445363D02*
X2011591D01*
X2013636D02*
Y1438800D01*
Y1445363D02*
X2016591D01*
X2013636Y1442238D02*
X2015455D01*
X2013636Y1438800D02*
X2016591D01*
X2018864Y1443175D02*
X2018636Y1442863D01*
X2018636D02*
X2018864Y1442550D01*
X2019091Y1442863*
X2019091D02*
X2018864Y1443175D01*
Y1439425D02*
X2018636Y1439113D01*
X2018636D02*
X2018864Y1438800D01*
X2019091Y1439113*
X2019091D02*
X2018864Y1439425D01*
X2027727Y1445363D02*
X2027045Y1445050D01*
X2026591Y1444113*
X2026591D02*
X2026364Y1442550D01*
Y1441613*
X2026364D02*
X2026591Y1440050D01*
X2027045Y1439113*
X2027045D02*
X2027727Y1438800D01*
X2028182*
X2028864Y1439113*
X2028864D02*
X2029318Y1440050D01*
X2029545Y1441613*
X2029545D02*
Y1442550D01*
X2029318Y1444113*
X2029318D02*
X2028864Y1445050D01*
X2028182Y1445363*
X2028182D02*
X2027727D01*
X2034545D02*
X2032273D01*
X2032273D02*
X2032045Y1442550D01*
X2032273Y1442863*
X2032273D02*
X2032955Y1443175D01*
X2033636*
X2034318Y1442863*
X2034318D02*
X2034773Y1442238D01*
X2034773D02*
X2035000Y1441300D01*
X2034773Y1440675*
X2034545Y1439738*
X2034545D02*
X2034091Y1439113D01*
X2034091D02*
X2033409Y1438800D01*
X2032727*
X2032045Y1439113*
X2032045D02*
X2031818Y1439425D01*
X2031591Y1440050*
X2037045Y1441613D02*
X2041136D01*
X2044545Y1445363D02*
X2043864Y1445050D01*
X2043409Y1444113*
X2043409D02*
X2043182Y1442550D01*
Y1441613*
X2043182D02*
X2043409Y1440050D01*
X2043864Y1439113*
X2043864D02*
X2044545Y1438800D01*
X2045000*
X2045682Y1439113*
X2045682D02*
X2046136Y1440050D01*
X2046364Y1441613*
X2046364D02*
Y1442550D01*
X2046136Y1444113*
X2046136D02*
X2045682Y1445050D01*
X2045000Y1445363*
X2045000D02*
X2044545D01*
X2048409Y1444113D02*
X2048864Y1444425D01*
X2049545Y1445363*
X2049545D02*
Y1438800D01*
X2051591Y1441613D02*
X2055682D01*
X2057727Y1444113D02*
X2058182Y1444425D01*
X2058864Y1445363*
X2058864D02*
Y1438800D01*
X2061364Y1445363D02*
X2063864D01*
X2063864D02*
X2062500Y1442863D01*
X2062500D02*
X2063182D01*
X2063182D02*
X2063636Y1442550D01*
X2063864Y1442238*
X2063864D02*
X2064091Y1441300D01*
Y1440675*
X2063864Y1439738*
X2063864D02*
X2063409Y1439113D01*
X2063409D02*
X2062727Y1438800D01*
X2062045*
X2061364Y1439113*
X2061364D02*
X2061136Y1439425D01*
X2060909Y1440050*
X1843409Y1431300D02*
X1843182Y1431925D01*
X1842727Y1432550*
X1842273Y1432863*
X1842273D02*
X1841364D01*
X1841364D02*
X1840909Y1432550D01*
X1840455Y1431925*
X1840227Y1431300*
X1840000Y1430363*
X1840000D02*
Y1428800D01*
X1840227Y1427863*
X1840227D02*
X1840455Y1427238D01*
X1840455D02*
X1840909Y1426613D01*
X1840909D02*
X1841364Y1426300D01*
X1842273*
X1842727Y1426613*
X1842727D02*
X1843182Y1427238D01*
X1843182D02*
X1843409Y1427863D01*
X1846818Y1432863D02*
X1846364Y1432550D01*
X1845909Y1431925*
X1845682Y1431300*
X1845455Y1430363*
X1845455D02*
Y1428800D01*
X1845682Y1427863*
X1845682D02*
X1845909Y1427238D01*
X1845909D02*
X1846364Y1426613D01*
X1846364D02*
X1846818Y1426300D01*
X1847727*
X1848182Y1426613*
X1848182D02*
X1848636Y1427238D01*
X1848636D02*
X1848864Y1427863D01*
X1848864D02*
X1849091Y1428800D01*
Y1430363*
X1849091D02*
X1848864Y1431300D01*
X1848636Y1431925*
X1848182Y1432550*
X1847727Y1432863*
X1847727D02*
X1846818D01*
X1851136D02*
Y1426300D01*
Y1432863D02*
X1852955Y1426300D01*
X1854773Y1432863D02*
X1852955Y1426300D01*
X1854773Y1432863D02*
Y1426300D01*
X1856818Y1432863D02*
Y1426300D01*
Y1432863D02*
X1858864D01*
X1858864D02*
X1859545Y1432550D01*
X1859773Y1432238*
X1859773D02*
X1860000Y1431613D01*
X1860000D02*
Y1430675D01*
X1859773Y1430050*
X1859545Y1429738*
X1859545D02*
X1858864Y1429425D01*
X1856818*
X1863864Y1432863D02*
X1862045Y1426300D01*
X1863864Y1432863D02*
X1865682Y1426300D01*
X1862727Y1428488D02*
X1865000D01*
X1871136Y1431300D02*
X1870909Y1431925D01*
X1870455Y1432550*
X1870000Y1432863*
X1870000D02*
X1869091D01*
X1869091D02*
X1868636Y1432550D01*
X1868182Y1431925*
X1867955Y1431300*
X1867727Y1430363*
X1867727D02*
Y1428800D01*
X1867955Y1427863*
X1867955D02*
X1868182Y1427238D01*
X1868182D02*
X1868636Y1426613D01*
X1868636D02*
X1869091Y1426300D01*
X1870000*
X1870455Y1426613*
X1870455D02*
X1870909Y1427238D01*
X1870909D02*
X1871136Y1427863D01*
X1874773Y1432863D02*
Y1426300D01*
X1873182Y1432863D02*
X1876364D01*
X1883636D02*
Y1426300D01*
X1885682Y1432863D02*
Y1426300D01*
Y1432863D02*
X1887273D01*
X1887273D02*
X1887955Y1432550D01*
X1888409Y1431925*
X1888636Y1431300*
X1888864Y1430363*
X1888864D02*
Y1428800D01*
X1888636Y1427863*
X1888636D02*
X1888409Y1427238D01*
X1888409D02*
X1887955Y1426613D01*
X1887955D02*
X1887273Y1426300D01*
X1885682*
X1890909Y1432863D02*
Y1426300D01*
Y1432863D02*
X1893864D01*
X1890909Y1429738D02*
X1892727D01*
X1890909Y1426300D02*
X1893864D01*
X1897727Y1432863D02*
X1895909Y1426300D01*
X1897727Y1432863D02*
X1899545Y1426300D01*
X1896591Y1428488D02*
X1898864D01*
X1901591Y1432863D02*
Y1426300D01*
X1904318*
X1911591Y1432863D02*
Y1426300D01*
Y1432863D02*
X1913182D01*
X1913182D02*
X1913864Y1432550D01*
X1914318Y1431925*
X1914545Y1431300*
X1914773Y1430363*
X1914773D02*
Y1428800D01*
X1914545Y1427863*
X1914545D02*
X1914318Y1427238D01*
X1914318D02*
X1913864Y1426613D01*
X1913864D02*
X1913182Y1426300D01*
X1911591*
X1916818Y1432863D02*
Y1426300D01*
X1920227Y1432863D02*
X1919773Y1432550D01*
X1919318Y1431925*
X1919091Y1431300*
X1918864Y1430363*
X1918864D02*
Y1428800D01*
X1919091Y1427863*
X1919091D02*
X1919318Y1427238D01*
X1919318D02*
X1919773Y1426613D01*
X1919773D02*
X1920227Y1426300D01*
X1921136*
X1921591Y1426613*
X1921591D02*
X1922045Y1427238D01*
X1922045D02*
X1922273Y1427863D01*
X1922273D02*
X1922500Y1428800D01*
Y1430363*
X1922500D02*
X1922273Y1431300D01*
X1922045Y1431925*
X1921591Y1432550*
X1921136Y1432863*
X1921136D02*
X1920227D01*
X1924545D02*
Y1426300D01*
Y1432863D02*
X1926136D01*
X1926136D02*
X1926818Y1432550D01*
X1927273Y1431925*
X1927500Y1431300*
X1927727Y1430363*
X1927727D02*
Y1428800D01*
X1927500Y1427863*
X1927500D02*
X1927273Y1427238D01*
X1927273D02*
X1926818Y1426613D01*
X1926818D02*
X1926136Y1426300D01*
X1924545*
X1929773Y1432863D02*
Y1426300D01*
Y1432863D02*
X1932727D01*
X1929773Y1429738D02*
X1931591D01*
X1929773Y1426300D02*
X1932727D01*
X1940000Y1432863D02*
Y1426300D01*
Y1432863D02*
X1942045D01*
X1942045D02*
X1942727Y1432550D01*
X1942955Y1432238*
X1942955D02*
X1943182Y1431613D01*
X1943182D02*
Y1430988D01*
X1943182D02*
X1942955Y1430363D01*
X1942955D02*
X1942727Y1430050D01*
X1942045Y1429738*
X1940000D02*
X1942045D01*
X1942045D02*
X1942727Y1429425D01*
X1942955Y1429113*
X1942955D02*
X1943182Y1428488D01*
X1943182D02*
Y1427550D01*
X1942955Y1426925*
X1942727Y1426613*
X1942727D02*
X1942045Y1426300D01*
X1940000*
X1945227Y1432863D02*
Y1426300D01*
Y1432863D02*
X1947273D01*
X1947273D02*
X1947955Y1432550D01*
X1948182Y1432238*
X1948182D02*
X1948409Y1431613D01*
X1948409D02*
Y1430988D01*
X1948409D02*
X1948182Y1430363D01*
X1948182D02*
X1947955Y1430050D01*
X1947273Y1429738*
X1947273D02*
X1945227D01*
X1946818D02*
X1948409Y1426300D01*
X1950455Y1432863D02*
Y1426300D01*
X1952500Y1432863D02*
Y1426300D01*
Y1432863D02*
X1954091D01*
X1954091D02*
X1954773Y1432550D01*
X1955227Y1431925*
X1955455Y1431300*
X1955682Y1430363*
X1955682D02*
Y1428800D01*
X1955455Y1427863*
X1955455D02*
X1955227Y1427238D01*
X1955227D02*
X1954773Y1426613D01*
X1954773D02*
X1954091Y1426300D01*
X1952500*
X1961136Y1431300D02*
X1960909Y1431925D01*
X1960455Y1432550*
X1960000Y1432863*
X1960000D02*
X1959091D01*
X1959091D02*
X1958636Y1432550D01*
X1958182Y1431925*
X1957955Y1431300*
X1957727Y1430363*
X1957727D02*
Y1428800D01*
X1957955Y1427863*
X1957955D02*
X1958182Y1427238D01*
X1958182D02*
X1958636Y1426613D01*
X1958636D02*
X1959091Y1426300D01*
X1960000*
X1960455Y1426613*
X1960455D02*
X1960909Y1427238D01*
X1960909D02*
X1961136Y1427863D01*
X1961136D02*
Y1428800D01*
X1960000D02*
X1961136D01*
X1963182Y1432863D02*
Y1426300D01*
Y1432863D02*
X1966136D01*
X1963182Y1429738D02*
X1965000D01*
X1963182Y1426300D02*
X1966136D01*
X1973409Y1432863D02*
Y1426300D01*
Y1432863D02*
X1976364D01*
X1973409Y1429738D02*
X1975227D01*
X1978409Y1432863D02*
Y1428175D01*
X1978636Y1427238*
X1978636D02*
X1979091Y1426613D01*
X1979091D02*
X1979773Y1426300D01*
X1980227*
X1980909Y1426613*
X1980909D02*
X1981364Y1427238D01*
X1981364D02*
X1981591Y1428175D01*
Y1432863*
X1983636D02*
Y1426300D01*
X1986364*
X1988409Y1432863D02*
Y1426300D01*
X1991136*
X1998409Y1432863D02*
X1999545Y1426300D01*
X2000682Y1432863D02*
X1999545Y1426300D01*
X2000682Y1432863D02*
X2001818Y1426300D01*
X2002955Y1432863D02*
X2001818Y1426300D01*
X2006818Y1432863D02*
X2005000Y1426300D01*
X2006818Y1432863D02*
X2008636Y1426300D01*
X2005682Y1428488D02*
X2007955D01*
X2010682Y1432863D02*
X2012500Y1426300D01*
X2014318Y1432863D02*
X2012500Y1426300D01*
X2016364Y1432863D02*
Y1426300D01*
Y1432863D02*
X2019318D01*
X2016364Y1429738D02*
X2018182D01*
X2016364Y1426300D02*
X2019318D01*
X2026591Y1432863D02*
Y1426300D01*
Y1432863D02*
X2028636D01*
X2028636D02*
X2029318Y1432550D01*
X2029545Y1432238*
X2029545D02*
X2029773Y1431613D01*
X2029773D02*
Y1430988D01*
X2029773D02*
X2029545Y1430363D01*
X2029545D02*
X2029318Y1430050D01*
X2028636Y1429738*
X2028636D02*
X2026591D01*
X2028182D02*
X2029773Y1426300D01*
X2031818Y1432863D02*
Y1426300D01*
Y1432863D02*
X2034773D01*
X2031818Y1429738D02*
X2033636D01*
X2031818Y1426300D02*
X2034773D01*
X2040227Y1431300D02*
X2040000Y1431925D01*
X2039545Y1432550*
X2039091Y1432863*
X2039091D02*
X2038182D01*
X2038182D02*
X2037727Y1432550D01*
X2037273Y1431925*
X2037045Y1431300*
X2036818Y1430363*
X2036818D02*
Y1428800D01*
X2037045Y1427863*
X2037045D02*
X2037273Y1427238D01*
X2037273D02*
X2037727Y1426613D01*
X2037727D02*
X2038182Y1426300D01*
X2039091*
X2039545Y1426613*
X2039545D02*
X2040000Y1427238D01*
X2040000D02*
X2040227Y1427863D01*
X2043864Y1432863D02*
Y1426300D01*
X2042273Y1432863D02*
X2045455D01*
X2047500D02*
Y1426300D01*
X2049545Y1432863D02*
Y1426300D01*
Y1432863D02*
X2052500D01*
X2049545Y1429738D02*
X2051364D01*
X2054545Y1432863D02*
Y1426300D01*
X2056591Y1432863D02*
Y1426300D01*
Y1432863D02*
X2059545D01*
X2056591Y1429738D02*
X2058409D01*
X2056591Y1426300D02*
X2059545D01*
X2061591Y1432863D02*
Y1426300D01*
Y1432863D02*
X2063636D01*
X2063636D02*
X2064318Y1432550D01*
X2064545Y1432238*
X2064545D02*
X2064773Y1431613D01*
X2064773D02*
Y1430988D01*
X2064773D02*
X2064545Y1430363D01*
X2064545D02*
X2064318Y1430050D01*
X2063636Y1429738*
X2063636D02*
X2061591D01*
X2063182D02*
X2064773Y1426300D01*
X1840000Y1470363D02*
Y1463800D01*
Y1470363D02*
X1842045D01*
X1842045D02*
X1842727Y1470050D01*
X1842955Y1469738*
X1842955D02*
X1843182Y1469113D01*
X1843182D02*
Y1468488D01*
X1843182D02*
X1842955Y1467863D01*
X1842955D02*
X1842727Y1467550D01*
X1842045Y1467238*
X1840000D02*
X1842045D01*
X1842045D02*
X1842727Y1466925D01*
X1842955Y1466613*
X1842955D02*
X1843182Y1465988D01*
X1843182D02*
Y1465050D01*
X1842955Y1464425*
X1842727Y1464113*
X1842727D02*
X1842045Y1463800D01*
X1840000*
X1846591Y1470363D02*
X1846136Y1470050D01*
X1845682Y1469425*
X1845455Y1468800*
X1845227Y1467863*
X1845227D02*
Y1466300D01*
X1845455Y1465363*
X1845455D02*
X1845682Y1464738D01*
X1845682D02*
X1846136Y1464113D01*
X1846136D02*
X1846591Y1463800D01*
X1847500*
X1847955Y1464113*
X1847955D02*
X1848409Y1464738D01*
X1848409D02*
X1848636Y1465363D01*
X1848636D02*
X1848864Y1466300D01*
Y1467863*
X1848864D02*
X1848636Y1468800D01*
X1848409Y1469425*
X1847955Y1470050*
X1847500Y1470363*
X1847500D02*
X1846591D01*
X1852500D02*
Y1463800D01*
X1850909Y1470363D02*
X1854091D01*
X1857727D02*
Y1463800D01*
X1856136Y1470363D02*
X1859318D01*
X1862727D02*
X1862273Y1470050D01*
X1861818Y1469425*
X1861591Y1468800*
X1861364Y1467863*
X1861364D02*
Y1466300D01*
X1861591Y1465363*
X1861591D02*
X1861818Y1464738D01*
X1861818D02*
X1862273Y1464113D01*
X1862273D02*
X1862727Y1463800D01*
X1863636*
X1864091Y1464113*
X1864091D02*
X1864545Y1464738D01*
X1864545D02*
X1864773Y1465363D01*
X1864773D02*
X1865000Y1466300D01*
Y1467863*
X1865000D02*
X1864773Y1468800D01*
X1864545Y1469425*
X1864091Y1470050*
X1863636Y1470363*
X1863636D02*
X1862727D01*
X1867045D02*
Y1463800D01*
Y1470363D02*
X1868864Y1463800D01*
X1870682Y1470363D02*
X1868864Y1463800D01*
X1870682Y1470363D02*
Y1463800D01*
X1881136Y1469425D02*
X1880682Y1470050D01*
X1880000Y1470363*
X1880000D02*
X1879091D01*
X1879091D02*
X1878409Y1470050D01*
X1877955Y1469425*
Y1468800*
X1878182Y1468175*
X1878409Y1467863*
X1878409D02*
X1878864Y1467550D01*
X1880227Y1466925*
X1880682Y1466613*
X1880682D02*
X1880909Y1466300D01*
X1881136Y1465675*
Y1464738*
X1881136D02*
X1880682Y1464113D01*
X1880682D02*
X1880000Y1463800D01*
X1879091*
X1878409Y1464113*
X1878409D02*
X1877955Y1464738D01*
X1884545Y1470363D02*
X1884091Y1470050D01*
X1883636Y1469425*
X1883409Y1468800*
X1883182Y1467863*
X1883182D02*
Y1466300D01*
X1883409Y1465363*
X1883409D02*
X1883636Y1464738D01*
X1883636D02*
X1884091Y1464113D01*
X1884091D02*
X1884545Y1463800D01*
X1885455*
X1885909Y1464113*
X1885909D02*
X1886364Y1464738D01*
X1886364D02*
X1886591Y1465363D01*
X1886591D02*
X1886818Y1466300D01*
Y1467863*
X1886818D02*
X1886591Y1468800D01*
X1886364Y1469425*
X1885909Y1470050*
X1885455Y1470363*
X1885455D02*
X1884545D01*
X1888864D02*
Y1463800D01*
X1891591*
X1893636Y1470363D02*
Y1463800D01*
Y1470363D02*
X1895227D01*
X1895227D02*
X1895909Y1470050D01*
X1896364Y1469425*
X1896591Y1468800*
X1896818Y1467863*
X1896818D02*
Y1466300D01*
X1896591Y1465363*
X1896591D02*
X1896364Y1464738D01*
X1896364D02*
X1895909Y1464113D01*
X1895909D02*
X1895227Y1463800D01*
X1893636*
X1898864Y1470363D02*
Y1463800D01*
Y1470363D02*
X1901818D01*
X1898864Y1467238D02*
X1900682D01*
X1898864Y1463800D02*
X1901818D01*
X1903864Y1470363D02*
Y1463800D01*
Y1470363D02*
X1905909D01*
X1905909D02*
X1906591Y1470050D01*
X1906818Y1469738*
X1906818D02*
X1907045Y1469113D01*
X1907045D02*
Y1468488D01*
X1907045D02*
X1906818Y1467863D01*
X1906818D02*
X1906591Y1467550D01*
X1905909Y1467238*
X1905909D02*
X1903864D01*
X1905455D02*
X1907045Y1463800D01*
X1914318Y1470363D02*
Y1463800D01*
Y1470363D02*
X1916136Y1463800D01*
X1917955Y1470363D02*
X1916136Y1463800D01*
X1917955Y1470363D02*
Y1463800D01*
X1921818Y1470363D02*
X1920000Y1463800D01*
X1921818Y1470363D02*
X1923636Y1463800D01*
X1920682Y1465988D02*
X1922955D01*
X1928864Y1469425D02*
X1928409Y1470050D01*
X1927727Y1470363*
X1927727D02*
X1926818D01*
X1926818D02*
X1926136Y1470050D01*
X1925682Y1469425*
Y1468800*
X1925909Y1468175*
X1926136Y1467863*
X1926136D02*
X1926591Y1467550D01*
X1927955Y1466925*
X1928409Y1466613*
X1928409D02*
X1928636Y1466300D01*
X1928864Y1465675*
Y1464738*
X1928864D02*
X1928409Y1464113D01*
X1928409D02*
X1927727Y1463800D01*
X1926818*
X1926136Y1464113*
X1926136D02*
X1925682Y1464738D01*
X1930909Y1470363D02*
Y1463800D01*
X1934091Y1470363D02*
X1930909Y1465988D01*
X1932045Y1467550D02*
X1934091Y1463800D01*
G54D26*
X1800000Y1473800D02*
X2200000D01*
Y1773800*
X1800000*
Y1473800*
G54D95*
G54D153*
X1838200Y1623800D03*
G54D173*
X2157500Y1763800D03*
X1845000Y1483800D03*
X1844500Y1763800D03*
X2125000Y1648800D03*
G54D200*
X1830000Y1693800D03*
Y1553800D03*
X2170000Y1693800D03*
Y1553800D03*
G54D242*
X1820500Y1623800D03*
G54D295*
X2105000Y1648800D03*
G54D364*
X1817500Y1756300D03*
Y1491300D03*
X2182500D03*
Y1756300D03*
G54D371*
X2004900Y1611300D03*
X2002300D03*
X1999700D03*
X1997100D03*
Y1624300D03*
X1999700D03*
X2002300D03*
X2004900D03*
X1986900D03*
X1984300D03*
X1981700D03*
X1979100D03*
Y1637300D03*
X1981700D03*
X1984300D03*
X1986900D03*
G54D372*
X1994500Y1631900D03*
Y1634500D03*
Y1637100D03*
Y1639700D03*
X2007500D03*
Y1637100D03*
Y1634500D03*
Y1631900D03*
X1989500Y1615700D03*
Y1613100D03*
Y1610500D03*
Y1607900D03*
X1976500D03*
Y1610500D03*
Y1613100D03*
Y1615700D03*
X0Y0D02*
M02*
