%
T1C.012F095S3
X0269Y0233
X0272Y0233
X0288Y0226
X02963Y02335
X0298Y023
X0304Y0233
X0307Y0233
X031Y0233
X0324Y0238
X032Y0238
X0316Y0238
X0313Y0258
X0311Y02425
X031Y0237
X03075Y02425
X0307Y0237
X0304Y02425
X0294Y0236
X0293Y0256
X02925Y024
X02915Y0248
X02915Y02515
X02915Y02435
X0291Y0259
X0289Y02515
X0289Y0248
X02885Y02435
X0285Y02475
X0282Y02475
X0277Y0248
X0272Y0239
X0272Y0236
X0272Y0242
X0269Y0242
X0269Y0236
X0269Y0239
X0278Y0272
X0278Y0268
X0281Y0272
X0281Y0268
X0284Y0268
X0284Y0272
X0287Y0272
X0287Y0268
X0289Y0265
X029Y0268
X029Y0272
X0291Y0262
X02955Y02685
X0301Y026
X0301Y0277
X0301Y0273
X0306Y0277
X0306Y0273
X0308Y0269
X0311Y0273
X0311Y0277
X0313Y0261
X0313Y0264
X0313Y0267
X0315Y0277
X0315Y0273
X0319Y0273
X0319Y0277
X0323Y0277
X0323Y0273
X0324Y0269
X0324Y0264
T2C.04F139S55
X0405Y0275
X0425Y0275
T3C.065F089S55
X01205Y025
T4C.07F081S55
X01445Y039
X0145Y011
X04575Y039
T5C.072F081S55
X01382Y025
T6C.094F066S55
X013Y018
X047Y018
X047Y032
X013Y032
T7C.19F035S1033
X01175Y01175
X04825Y01175
X04825Y03825
X01175Y03825
M30
