*
*
G04 PADS 9.5 Build Number: 522968 generated Gerber (RS-274-X) file*
G04 PC Version=2.1*
*
%IN "DC1902B-1.pcb"*%
*
%MOIN*%
*
%FSLAX35Y35*%
*
*
*
*
G04 PC Standard Apertures*
*
*
G04 Thermal Relief Aperture macro.*
%AMTER*
1,1,$1,0,0*
1,0,$1-$2,0,0*
21,0,$3,$4,0,0,45*
21,0,$3,$4,0,0,135*
%
*
*
G04 Annular Aperture macro.*
%AMANN*
1,1,$1,0,0*
1,0,$2,0,0*
%
*
*
G04 Odd Aperture macro.*
%AMODD*
1,1,$1,0,0*
1,0,$1-0.005,0,0*
%
*
*
G04 PC Custom Aperture Macros*
*
*
*
*
*
*
G04 PC Aperture Table*
*
%ADD010C,0.06*%
%ADD011C,0.15*%
%ADD018C,0.07*%
%ADD019C,0.01*%
%ADD022C,0.05*%
%ADD026C,0.008*%
%ADD028C,0.012*%
%ADD032R,0.07X0.07*%
%ADD077C,0.024*%
%ADD095C,0.001*%
%ADD197R,0.053X0.05*%
%ADD219C,0.065*%
%ADD304C,0.072*%
%ADD330R,0.075X0.09*%
%ADD332R,0.13X0.05*%
%ADD334R,0.06X0.06*%
%ADD335R,0.08X0.06*%
%ADD336R,0.11X0.09*%
%ADD351R,0.012X0.035*%
%ADD352R,0.0937X0.06496*%
%ADD353R,0.09X0.09*%
%ADD354C,0.187*%
*
*
*
*
G04 PC Circuitry*
G04 Layer Name DC1902B-1.pcb - circuitry*
%LPD*%
*
*
G04 PC Custom Flashes*
G04 Layer Name DC1902B-1.pcb - flashes*
%LPD*%
*
*
G04 PC Circuitry*
G04 Layer Name DC1902B-1.pcb - circuitry*
%LPD*%
*
G54D10*
G01X1993000Y1594800D03*
X1977000Y1623800D03*
X1995000Y1646300D03*
X1993000Y1603300D03*
G54D11*
X1830000Y1693800D03*
Y1553800D03*
X2170000Y1693800D03*
Y1553800D03*
G54D18*
X2157500Y1763800D03*
X1845000Y1483800D03*
X1844500Y1763800D03*
X2125000Y1648800D03*
G54D19*
X1825500Y1650300D02*
X1815500D01*
Y1642300*
X1825500*
Y1650300*
X1815500Y1642300D02*
Y1650300D01*
X1816000Y1642300D02*
Y1650300D01*
X1816500Y1642300D02*
Y1650300D01*
X1817000Y1642300D02*
Y1650300D01*
X1817500Y1642300D02*
Y1650300D01*
X1818000Y1642300D02*
Y1650300D01*
X1818500Y1642300D02*
Y1650300D01*
X1819000Y1642300D02*
Y1650300D01*
X1819500Y1642300D02*
Y1650300D01*
X1820000Y1642300D02*
Y1650300D01*
X1820500Y1642300D02*
Y1650300D01*
X1821000Y1642300D02*
Y1650300D01*
X1821500Y1642300D02*
Y1650300D01*
X1822000Y1642300D02*
Y1650300D01*
X1822500Y1642300D02*
Y1650300D01*
X1823000Y1642300D02*
Y1650300D01*
X1823500Y1642300D02*
Y1650300D01*
X1824000Y1642300D02*
Y1650300D01*
X1824500Y1642300D02*
Y1650300D01*
X1825000Y1642300D02*
Y1650300D01*
X1840000Y1470363D02*
Y1463800D01*
X1842727*
X1846591Y1470363D02*
X1844773Y1463800D01*
X1846591Y1470363D02*
X1848409Y1463800D01*
X1845455Y1465988D02*
X1847727D01*
X1850455Y1470363D02*
X1852273Y1467238D01*
X1852273D02*
Y1463800D01*
X1854091Y1470363D02*
X1852273Y1467238D01*
X1856136Y1470363D02*
Y1463800D01*
Y1470363D02*
X1859091D01*
X1856136Y1467238D02*
X1857955D01*
X1856136Y1463800D02*
X1859091D01*
X1861136Y1470363D02*
Y1463800D01*
Y1470363D02*
X1863182D01*
X1863182D02*
X1863864Y1470050D01*
X1864091Y1469738*
X1864091D02*
X1864318Y1469113D01*
X1864318D02*
Y1468488D01*
X1864318D02*
X1864091Y1467863D01*
X1864091D02*
X1863864Y1467550D01*
X1863182Y1467238*
X1863182D02*
X1861136D01*
X1862727D02*
X1864318Y1463800D01*
X1871591Y1469113D02*
X1872045Y1469425D01*
X1872727Y1470363*
X1872727D02*
Y1463800D01*
X1880000Y1466613D02*
X1884091D01*
X1892955Y1470363D02*
Y1463800D01*
X1891364Y1470363D02*
X1894545D01*
X1897955D02*
X1897500Y1470050D01*
X1897045Y1469425*
X1896818Y1468800*
X1896591Y1467863*
X1896591D02*
Y1466300D01*
X1896818Y1465363*
X1896818D02*
X1897045Y1464738D01*
X1897045D02*
X1897500Y1464113D01*
X1897500D02*
X1897955Y1463800D01*
X1898864*
X1899318Y1464113*
X1899318D02*
X1899773Y1464738D01*
X1899773D02*
X1900000Y1465363D01*
X1900000D02*
X1900227Y1466300D01*
Y1467863*
X1900227D02*
X1900000Y1468800D01*
X1899773Y1469425*
X1899318Y1470050*
X1898864Y1470363*
X1898864D02*
X1897955D01*
X1902273D02*
Y1463800D01*
Y1470363D02*
X1904318D01*
X1904318D02*
X1905000Y1470050D01*
X1905227Y1469738*
X1905227D02*
X1905455Y1469113D01*
X1905455D02*
Y1468175D01*
X1905227Y1467550*
X1905000Y1467238*
X1905000D02*
X1904318Y1466925D01*
X1902273*
X1912727Y1470363D02*
Y1463800D01*
X1915455*
X1919318Y1470363D02*
X1917500Y1463800D01*
X1919318Y1470363D02*
X1921136Y1463800D01*
X1918182Y1465988D02*
X1920455D01*
X1923182Y1470363D02*
X1925000Y1467238D01*
X1925000D02*
Y1463800D01*
X1926818Y1470363D02*
X1925000Y1467238D01*
X1928864Y1470363D02*
Y1463800D01*
Y1470363D02*
X1931818D01*
X1928864Y1467238D02*
X1930682D01*
X1928864Y1463800D02*
X1931818D01*
X1933864Y1470363D02*
Y1463800D01*
Y1470363D02*
X1935909D01*
X1935909D02*
X1936591Y1470050D01*
X1936818Y1469738*
X1936818D02*
X1937045Y1469113D01*
X1937045D02*
Y1468488D01*
X1937045D02*
X1936818Y1467863D01*
X1936818D02*
X1936591Y1467550D01*
X1935909Y1467238*
X1935909D02*
X1933864D01*
X1935455D02*
X1937045Y1463800D01*
X1840000Y1457863D02*
Y1451300D01*
X1842727*
X1844773Y1457863D02*
Y1451300D01*
X1846818Y1457863D02*
Y1451300D01*
Y1457863D02*
X1850000Y1451300D01*
Y1457863D02*
Y1451300D01*
X1852045Y1457863D02*
Y1451300D01*
Y1457863D02*
X1855000D01*
X1852045Y1454738D02*
X1853864D01*
X1852045Y1451300D02*
X1855000D01*
X1858864Y1457863D02*
X1857045Y1451300D01*
X1858864Y1457863D02*
X1860682Y1451300D01*
X1857727Y1453488D02*
X1860000D01*
X1862727Y1457863D02*
Y1451300D01*
Y1457863D02*
X1864773D01*
X1864773D02*
X1865455Y1457550D01*
X1865682Y1457238*
X1865682D02*
X1865909Y1456613D01*
X1865909D02*
Y1455988D01*
X1865909D02*
X1865682Y1455363D01*
X1865682D02*
X1865455Y1455050D01*
X1864773Y1454738*
X1864773D02*
X1862727D01*
X1864318D02*
X1865909Y1451300D01*
X1874773Y1457863D02*
Y1451300D01*
X1873182Y1457863D02*
X1876364D01*
X1878409D02*
Y1451300D01*
Y1457863D02*
X1881364D01*
X1878409Y1454738D02*
X1880227D01*
X1878409Y1451300D02*
X1881364D01*
X1886818Y1456300D02*
X1886591Y1456925D01*
X1886136Y1457550*
X1885682Y1457863*
X1885682D02*
X1884773D01*
X1884773D02*
X1884318Y1457550D01*
X1883864Y1456925*
X1883636Y1456300*
X1883409Y1455363*
X1883409D02*
Y1453800D01*
X1883636Y1452863*
X1883636D02*
X1883864Y1452238D01*
X1883864D02*
X1884318Y1451613D01*
X1884318D02*
X1884773Y1451300D01*
X1885682*
X1886136Y1451613*
X1886136D02*
X1886591Y1452238D01*
X1886591D02*
X1886818Y1452863D01*
X1888864Y1457863D02*
Y1451300D01*
X1892045Y1457863D02*
Y1451300D01*
X1888864Y1454738D02*
X1892045D01*
X1894091Y1457863D02*
Y1451300D01*
Y1457863D02*
X1897273Y1451300D01*
Y1457863D02*
Y1451300D01*
X1900682Y1457863D02*
X1900227Y1457550D01*
X1899773Y1456925*
X1899545Y1456300*
X1899318Y1455363*
X1899318D02*
Y1453800D01*
X1899545Y1452863*
X1899545D02*
X1899773Y1452238D01*
X1899773D02*
X1900227Y1451613D01*
X1900227D02*
X1900682Y1451300D01*
X1901591*
X1902045Y1451613*
X1902045D02*
X1902500Y1452238D01*
X1902500D02*
X1902727Y1452863D01*
X1902727D02*
X1902955Y1453800D01*
Y1455363*
X1902955D02*
X1902727Y1456300D01*
X1902500Y1456925*
X1902045Y1457550*
X1901591Y1457863*
X1901591D02*
X1900682D01*
X1905000D02*
Y1451300D01*
X1907727*
X1911136Y1457863D02*
X1910682Y1457550D01*
X1910227Y1456925*
X1910000Y1456300*
X1909773Y1455363*
X1909773D02*
Y1453800D01*
X1910000Y1452863*
X1910000D02*
X1910227Y1452238D01*
X1910227D02*
X1910682Y1451613D01*
X1910682D02*
X1911136Y1451300D01*
X1912045*
X1912500Y1451613*
X1912500D02*
X1912955Y1452238D01*
X1912955D02*
X1913182Y1452863D01*
X1913182D02*
X1913409Y1453800D01*
Y1455363*
X1913409D02*
X1913182Y1456300D01*
X1912955Y1456925*
X1912500Y1457550*
X1912045Y1457863*
X1912045D02*
X1911136D01*
X1918864Y1456300D02*
X1918636Y1456925D01*
X1918182Y1457550*
X1917727Y1457863*
X1917727D02*
X1916818D01*
X1916818D02*
X1916364Y1457550D01*
X1915909Y1456925*
X1915682Y1456300*
X1915455Y1455363*
X1915455D02*
Y1453800D01*
X1915682Y1452863*
X1915682D02*
X1915909Y1452238D01*
X1915909D02*
X1916364Y1451613D01*
X1916364D02*
X1916818Y1451300D01*
X1917727*
X1918182Y1451613*
X1918182D02*
X1918636Y1452238D01*
X1918636D02*
X1918864Y1452863D01*
X1918864D02*
Y1453800D01*
X1917727D02*
X1918864D01*
X1920909Y1457863D02*
X1922727Y1454738D01*
X1922727D02*
Y1451300D01*
X1924545Y1457863D02*
X1922727Y1454738D01*
X1840000Y1445363D02*
Y1438800D01*
Y1445363D02*
X1841591D01*
X1841591D02*
X1842273Y1445050D01*
X1842727Y1444425*
X1842955Y1443800*
X1843182Y1442863*
X1843182D02*
Y1441300D01*
X1842955Y1440363*
X1842955D02*
X1842727Y1439738D01*
X1842727D02*
X1842273Y1439113D01*
X1842273D02*
X1841591Y1438800D01*
X1840000*
X1848636Y1443800D02*
X1848409Y1444425D01*
X1847955Y1445050*
X1847500Y1445363*
X1847500D02*
X1846591D01*
X1846591D02*
X1846136Y1445050D01*
X1845682Y1444425*
X1845455Y1443800*
X1845227Y1442863*
X1845227D02*
Y1441300D01*
X1845455Y1440363*
X1845455D02*
X1845682Y1439738D01*
X1845682D02*
X1846136Y1439113D01*
X1846136D02*
X1846591Y1438800D01*
X1847500*
X1847955Y1439113*
X1847955D02*
X1848409Y1439738D01*
X1848409D02*
X1848636Y1440363D01*
X1850682Y1444113D02*
X1851136Y1444425D01*
X1851818Y1445363*
X1851818D02*
Y1438800D01*
X1856818Y1443175D02*
X1856591Y1442238D01*
X1856591D02*
X1856136Y1441613D01*
X1856136D02*
X1855455Y1441300D01*
X1855227*
X1854545Y1441613*
X1854545D02*
X1854091Y1442238D01*
X1854091D02*
X1853864Y1443175D01*
Y1443488*
X1853864D02*
X1854091Y1444425D01*
X1854545Y1445050*
X1855227Y1445363*
X1855227D02*
X1855455D01*
X1855455D02*
X1856136Y1445050D01*
X1856591Y1444425*
X1856818Y1443175*
Y1441613*
X1856818D02*
X1856591Y1440050D01*
X1856136Y1439113*
X1856136D02*
X1855455Y1438800D01*
X1855000*
X1854318Y1439113*
X1854318D02*
X1854091Y1439738D01*
X1860227Y1445363D02*
X1859545Y1445050D01*
X1859091Y1444113*
X1859091D02*
X1858864Y1442550D01*
Y1441613*
X1858864D02*
X1859091Y1440050D01*
X1859545Y1439113*
X1859545D02*
X1860227Y1438800D01*
X1860682*
X1861364Y1439113*
X1861364D02*
X1861818Y1440050D01*
X1862045Y1441613*
X1862045D02*
Y1442550D01*
X1861818Y1444113*
X1861818D02*
X1861364Y1445050D01*
X1860682Y1445363*
X1860682D02*
X1860227D01*
X1864318Y1443800D02*
Y1444113D01*
X1864318D02*
X1864545Y1444738D01*
X1864545D02*
X1864773Y1445050D01*
X1865227Y1445363*
X1865227D02*
X1866136D01*
X1866136D02*
X1866591Y1445050D01*
X1866818Y1444738*
X1866818D02*
X1867045Y1444113D01*
X1867045D02*
Y1443488D01*
X1867045D02*
X1866818Y1442863D01*
X1866818D02*
X1866364Y1441925D01*
X1864091Y1438800*
X1867273*
X1869318Y1445363D02*
Y1438800D01*
Y1445363D02*
X1871364D01*
X1871364D02*
X1872045Y1445050D01*
X1872273Y1444738*
X1872273D02*
X1872500Y1444113D01*
X1872500D02*
Y1443488D01*
X1872500D02*
X1872273Y1442863D01*
X1872273D02*
X1872045Y1442550D01*
X1871364Y1442238*
X1869318D02*
X1871364D01*
X1871364D02*
X1872045Y1441925D01*
X1872273Y1441613*
X1872273D02*
X1872500Y1440988D01*
X1872500D02*
Y1440050D01*
X1872273Y1439425*
X1872045Y1439113*
X1872045D02*
X1871364Y1438800D01*
X1869318*
X1874545Y1441613D02*
X1878636D01*
X1880682Y1444113D02*
X1881136Y1444425D01*
X1881818Y1445363*
X1881818D02*
Y1438800D01*
X1915227Y1445363D02*
Y1438800D01*
X1917955*
X1921591Y1445363D02*
Y1438800D01*
X1920000Y1445363D02*
X1923182D01*
X1927500D02*
X1925227Y1440988D01*
X1925227D02*
X1928636D01*
X1927500Y1445363D02*
Y1438800D01*
X1931136Y1445363D02*
X1933636D01*
X1933636D02*
X1932273Y1442863D01*
X1932273D02*
X1932955D01*
X1932955D02*
X1933409Y1442550D01*
X1933636Y1442238*
X1933636D02*
X1933864Y1441300D01*
Y1440675*
X1933636Y1439738*
X1933636D02*
X1933182Y1439113D01*
X1933182D02*
X1932500Y1438800D01*
X1931818*
X1931136Y1439113*
X1931136D02*
X1930909Y1439425D01*
X1930682Y1440050*
X1936136Y1443800D02*
Y1444113D01*
X1936136D02*
X1936364Y1444738D01*
X1936364D02*
X1936591Y1445050D01*
X1937045Y1445363*
X1937045D02*
X1937955D01*
X1937955D02*
X1938409Y1445050D01*
X1938636Y1444738*
X1938636D02*
X1938864Y1444113D01*
X1938864D02*
Y1443488D01*
X1938864D02*
X1938636Y1442863D01*
X1938636D02*
X1938182Y1441925D01*
X1935909Y1438800*
X1939091*
X1942500Y1445363D02*
X1941818Y1445050D01*
X1941364Y1444113*
X1941364D02*
X1941136Y1442550D01*
Y1441613*
X1941136D02*
X1941364Y1440050D01*
X1941818Y1439113*
X1941818D02*
X1942500Y1438800D01*
X1942955*
X1943636Y1439113*
X1943636D02*
X1944091Y1440050D01*
X1944318Y1441613*
X1944318D02*
Y1442550D01*
X1944091Y1444113*
X1944091D02*
X1943636Y1445050D01*
X1942955Y1445363*
X1942955D02*
X1942500D01*
X1946364D02*
Y1438800D01*
X1948409Y1445363D02*
Y1438800D01*
Y1445363D02*
X1950000D01*
X1950000D02*
X1950682Y1445050D01*
X1951136Y1444425*
X1951364Y1443800*
X1951591Y1442863*
X1951591D02*
Y1441300D01*
X1951364Y1440363*
X1951364D02*
X1951136Y1439738D01*
X1951136D02*
X1950682Y1439113D01*
X1950682D02*
X1950000Y1438800D01*
X1948409*
X1953636Y1445363D02*
Y1438800D01*
Y1445363D02*
X1955227D01*
X1955227D02*
X1955909Y1445050D01*
X1956364Y1444425*
X1956591Y1443800*
X1956818Y1442863*
X1956818D02*
Y1441300D01*
X1956591Y1440363*
X1956591D02*
X1956364Y1439738D01*
X1956364D02*
X1955909Y1439113D01*
X1955909D02*
X1955227Y1438800D01*
X1953636*
X1997500Y1445363D02*
Y1438800D01*
Y1445363D02*
X1999091D01*
X1999091D02*
X1999773Y1445050D01*
X2000227Y1444425*
X2000455Y1443800*
X2000682Y1442863*
X2000682D02*
Y1441300D01*
X2000455Y1440363*
X2000455D02*
X2000227Y1439738D01*
X2000227D02*
X1999773Y1439113D01*
X1999773D02*
X1999091Y1438800D01*
X1997500*
X2004545Y1445363D02*
X2002727Y1438800D01*
X2004545Y1445363D02*
X2006364Y1438800D01*
X2003409Y1440988D02*
X2005682D01*
X2010000Y1445363D02*
Y1438800D01*
X2008409Y1445363D02*
X2011591D01*
X2013636D02*
Y1438800D01*
Y1445363D02*
X2016591D01*
X2013636Y1442238D02*
X2015455D01*
X2013636Y1438800D02*
X2016591D01*
X2018864Y1443175D02*
X2018636Y1442863D01*
X2018636D02*
X2018864Y1442550D01*
X2019091Y1442863*
X2019091D02*
X2018864Y1443175D01*
Y1439425D02*
X2018636Y1439113D01*
X2018636D02*
X2018864Y1438800D01*
X2019091Y1439113*
X2019091D02*
X2018864Y1439425D01*
X2027727Y1445363D02*
X2027045Y1445050D01*
X2026591Y1444113*
X2026591D02*
X2026364Y1442550D01*
Y1441613*
X2026364D02*
X2026591Y1440050D01*
X2027045Y1439113*
X2027045D02*
X2027727Y1438800D01*
X2028182*
X2028864Y1439113*
X2028864D02*
X2029318Y1440050D01*
X2029545Y1441613*
X2029545D02*
Y1442550D01*
X2029318Y1444113*
X2029318D02*
X2028864Y1445050D01*
X2028182Y1445363*
X2028182D02*
X2027727D01*
X2034545D02*
X2032273D01*
X2032273D02*
X2032045Y1442550D01*
X2032273Y1442863*
X2032273D02*
X2032955Y1443175D01*
X2033636*
X2034318Y1442863*
X2034318D02*
X2034773Y1442238D01*
X2034773D02*
X2035000Y1441300D01*
X2034773Y1440675*
X2034545Y1439738*
X2034545D02*
X2034091Y1439113D01*
X2034091D02*
X2033409Y1438800D01*
X2032727*
X2032045Y1439113*
X2032045D02*
X2031818Y1439425D01*
X2031591Y1440050*
X2037045Y1441613D02*
X2041136D01*
X2044545Y1445363D02*
X2043864Y1445050D01*
X2043409Y1444113*
X2043409D02*
X2043182Y1442550D01*
Y1441613*
X2043182D02*
X2043409Y1440050D01*
X2043864Y1439113*
X2043864D02*
X2044545Y1438800D01*
X2045000*
X2045682Y1439113*
X2045682D02*
X2046136Y1440050D01*
X2046364Y1441613*
X2046364D02*
Y1442550D01*
X2046136Y1444113*
X2046136D02*
X2045682Y1445050D01*
X2045000Y1445363*
X2045000D02*
X2044545D01*
X2048409Y1444113D02*
X2048864Y1444425D01*
X2049545Y1445363*
X2049545D02*
Y1438800D01*
X2051591Y1441613D02*
X2055682D01*
X2057727Y1444113D02*
X2058182Y1444425D01*
X2058864Y1445363*
X2058864D02*
Y1438800D01*
X2061364Y1445363D02*
X2063864D01*
X2063864D02*
X2062500Y1442863D01*
X2062500D02*
X2063182D01*
X2063182D02*
X2063636Y1442550D01*
X2063864Y1442238*
X2063864D02*
X2064091Y1441300D01*
Y1440675*
X2063864Y1439738*
X2063864D02*
X2063409Y1439113D01*
X2063409D02*
X2062727Y1438800D01*
X2062045*
X2061364Y1439113*
X2061364D02*
X2061136Y1439425D01*
X2060909Y1440050*
X1843409Y1431300D02*
X1843182Y1431925D01*
X1842727Y1432550*
X1842273Y1432863*
X1842273D02*
X1841364D01*
X1841364D02*
X1840909Y1432550D01*
X1840455Y1431925*
X1840227Y1431300*
X1840000Y1430363*
X1840000D02*
Y1428800D01*
X1840227Y1427863*
X1840227D02*
X1840455Y1427238D01*
X1840455D02*
X1840909Y1426613D01*
X1840909D02*
X1841364Y1426300D01*
X1842273*
X1842727Y1426613*
X1842727D02*
X1843182Y1427238D01*
X1843182D02*
X1843409Y1427863D01*
X1846818Y1432863D02*
X1846364Y1432550D01*
X1845909Y1431925*
X1845682Y1431300*
X1845455Y1430363*
X1845455D02*
Y1428800D01*
X1845682Y1427863*
X1845682D02*
X1845909Y1427238D01*
X1845909D02*
X1846364Y1426613D01*
X1846364D02*
X1846818Y1426300D01*
X1847727*
X1848182Y1426613*
X1848182D02*
X1848636Y1427238D01*
X1848636D02*
X1848864Y1427863D01*
X1848864D02*
X1849091Y1428800D01*
Y1430363*
X1849091D02*
X1848864Y1431300D01*
X1848636Y1431925*
X1848182Y1432550*
X1847727Y1432863*
X1847727D02*
X1846818D01*
X1851136D02*
Y1426300D01*
Y1432863D02*
X1852955Y1426300D01*
X1854773Y1432863D02*
X1852955Y1426300D01*
X1854773Y1432863D02*
Y1426300D01*
X1856818Y1432863D02*
Y1426300D01*
Y1432863D02*
X1858864D01*
X1858864D02*
X1859545Y1432550D01*
X1859773Y1432238*
X1859773D02*
X1860000Y1431613D01*
X1860000D02*
Y1430675D01*
X1859773Y1430050*
X1859545Y1429738*
X1859545D02*
X1858864Y1429425D01*
X1856818*
X1863864Y1432863D02*
X1862045Y1426300D01*
X1863864Y1432863D02*
X1865682Y1426300D01*
X1862727Y1428488D02*
X1865000D01*
X1871136Y1431300D02*
X1870909Y1431925D01*
X1870455Y1432550*
X1870000Y1432863*
X1870000D02*
X1869091D01*
X1869091D02*
X1868636Y1432550D01*
X1868182Y1431925*
X1867955Y1431300*
X1867727Y1430363*
X1867727D02*
Y1428800D01*
X1867955Y1427863*
X1867955D02*
X1868182Y1427238D01*
X1868182D02*
X1868636Y1426613D01*
X1868636D02*
X1869091Y1426300D01*
X1870000*
X1870455Y1426613*
X1870455D02*
X1870909Y1427238D01*
X1870909D02*
X1871136Y1427863D01*
X1874773Y1432863D02*
Y1426300D01*
X1873182Y1432863D02*
X1876364D01*
X1883636D02*
Y1426300D01*
X1885682Y1432863D02*
Y1426300D01*
Y1432863D02*
X1887273D01*
X1887273D02*
X1887955Y1432550D01*
X1888409Y1431925*
X1888636Y1431300*
X1888864Y1430363*
X1888864D02*
Y1428800D01*
X1888636Y1427863*
X1888636D02*
X1888409Y1427238D01*
X1888409D02*
X1887955Y1426613D01*
X1887955D02*
X1887273Y1426300D01*
X1885682*
X1890909Y1432863D02*
Y1426300D01*
Y1432863D02*
X1893864D01*
X1890909Y1429738D02*
X1892727D01*
X1890909Y1426300D02*
X1893864D01*
X1897727Y1432863D02*
X1895909Y1426300D01*
X1897727Y1432863D02*
X1899545Y1426300D01*
X1896591Y1428488D02*
X1898864D01*
X1901591Y1432863D02*
Y1426300D01*
X1904318*
X1911591Y1432863D02*
Y1426300D01*
Y1432863D02*
X1913182D01*
X1913182D02*
X1913864Y1432550D01*
X1914318Y1431925*
X1914545Y1431300*
X1914773Y1430363*
X1914773D02*
Y1428800D01*
X1914545Y1427863*
X1914545D02*
X1914318Y1427238D01*
X1914318D02*
X1913864Y1426613D01*
X1913864D02*
X1913182Y1426300D01*
X1911591*
X1916818Y1432863D02*
Y1426300D01*
X1920227Y1432863D02*
X1919773Y1432550D01*
X1919318Y1431925*
X1919091Y1431300*
X1918864Y1430363*
X1918864D02*
Y1428800D01*
X1919091Y1427863*
X1919091D02*
X1919318Y1427238D01*
X1919318D02*
X1919773Y1426613D01*
X1919773D02*
X1920227Y1426300D01*
X1921136*
X1921591Y1426613*
X1921591D02*
X1922045Y1427238D01*
X1922045D02*
X1922273Y1427863D01*
X1922273D02*
X1922500Y1428800D01*
Y1430363*
X1922500D02*
X1922273Y1431300D01*
X1922045Y1431925*
X1921591Y1432550*
X1921136Y1432863*
X1921136D02*
X1920227D01*
X1924545D02*
Y1426300D01*
Y1432863D02*
X1926136D01*
X1926136D02*
X1926818Y1432550D01*
X1927273Y1431925*
X1927500Y1431300*
X1927727Y1430363*
X1927727D02*
Y1428800D01*
X1927500Y1427863*
X1927500D02*
X1927273Y1427238D01*
X1927273D02*
X1926818Y1426613D01*
X1926818D02*
X1926136Y1426300D01*
X1924545*
X1929773Y1432863D02*
Y1426300D01*
Y1432863D02*
X1932727D01*
X1929773Y1429738D02*
X1931591D01*
X1929773Y1426300D02*
X1932727D01*
X1940000Y1432863D02*
Y1426300D01*
Y1432863D02*
X1942045D01*
X1942045D02*
X1942727Y1432550D01*
X1942955Y1432238*
X1942955D02*
X1943182Y1431613D01*
X1943182D02*
Y1430988D01*
X1943182D02*
X1942955Y1430363D01*
X1942955D02*
X1942727Y1430050D01*
X1942045Y1429738*
X1940000D02*
X1942045D01*
X1942045D02*
X1942727Y1429425D01*
X1942955Y1429113*
X1942955D02*
X1943182Y1428488D01*
X1943182D02*
Y1427550D01*
X1942955Y1426925*
X1942727Y1426613*
X1942727D02*
X1942045Y1426300D01*
X1940000*
X1945227Y1432863D02*
Y1426300D01*
Y1432863D02*
X1947273D01*
X1947273D02*
X1947955Y1432550D01*
X1948182Y1432238*
X1948182D02*
X1948409Y1431613D01*
X1948409D02*
Y1430988D01*
X1948409D02*
X1948182Y1430363D01*
X1948182D02*
X1947955Y1430050D01*
X1947273Y1429738*
X1947273D02*
X1945227D01*
X1946818D02*
X1948409Y1426300D01*
X1950455Y1432863D02*
Y1426300D01*
X1952500Y1432863D02*
Y1426300D01*
Y1432863D02*
X1954091D01*
X1954091D02*
X1954773Y1432550D01*
X1955227Y1431925*
X1955455Y1431300*
X1955682Y1430363*
X1955682D02*
Y1428800D01*
X1955455Y1427863*
X1955455D02*
X1955227Y1427238D01*
X1955227D02*
X1954773Y1426613D01*
X1954773D02*
X1954091Y1426300D01*
X1952500*
X1961136Y1431300D02*
X1960909Y1431925D01*
X1960455Y1432550*
X1960000Y1432863*
X1960000D02*
X1959091D01*
X1959091D02*
X1958636Y1432550D01*
X1958182Y1431925*
X1957955Y1431300*
X1957727Y1430363*
X1957727D02*
Y1428800D01*
X1957955Y1427863*
X1957955D02*
X1958182Y1427238D01*
X1958182D02*
X1958636Y1426613D01*
X1958636D02*
X1959091Y1426300D01*
X1960000*
X1960455Y1426613*
X1960455D02*
X1960909Y1427238D01*
X1960909D02*
X1961136Y1427863D01*
X1961136D02*
Y1428800D01*
X1960000D02*
X1961136D01*
X1963182Y1432863D02*
Y1426300D01*
Y1432863D02*
X1966136D01*
X1963182Y1429738D02*
X1965000D01*
X1963182Y1426300D02*
X1966136D01*
X1973409Y1432863D02*
Y1426300D01*
Y1432863D02*
X1976364D01*
X1973409Y1429738D02*
X1975227D01*
X1978409Y1432863D02*
Y1428175D01*
X1978636Y1427238*
X1978636D02*
X1979091Y1426613D01*
X1979091D02*
X1979773Y1426300D01*
X1980227*
X1980909Y1426613*
X1980909D02*
X1981364Y1427238D01*
X1981364D02*
X1981591Y1428175D01*
Y1432863*
X1983636D02*
Y1426300D01*
X1986364*
X1988409Y1432863D02*
Y1426300D01*
X1991136*
X1998409Y1432863D02*
X1999545Y1426300D01*
X2000682Y1432863D02*
X1999545Y1426300D01*
X2000682Y1432863D02*
X2001818Y1426300D01*
X2002955Y1432863D02*
X2001818Y1426300D01*
X2006818Y1432863D02*
X2005000Y1426300D01*
X2006818Y1432863D02*
X2008636Y1426300D01*
X2005682Y1428488D02*
X2007955D01*
X2010682Y1432863D02*
X2012500Y1426300D01*
X2014318Y1432863D02*
X2012500Y1426300D01*
X2016364Y1432863D02*
Y1426300D01*
Y1432863D02*
X2019318D01*
X2016364Y1429738D02*
X2018182D01*
X2016364Y1426300D02*
X2019318D01*
X2026591Y1432863D02*
Y1426300D01*
Y1432863D02*
X2028636D01*
X2028636D02*
X2029318Y1432550D01*
X2029545Y1432238*
X2029545D02*
X2029773Y1431613D01*
X2029773D02*
Y1430988D01*
X2029773D02*
X2029545Y1430363D01*
X2029545D02*
X2029318Y1430050D01*
X2028636Y1429738*
X2028636D02*
X2026591D01*
X2028182D02*
X2029773Y1426300D01*
X2031818Y1432863D02*
Y1426300D01*
Y1432863D02*
X2034773D01*
X2031818Y1429738D02*
X2033636D01*
X2031818Y1426300D02*
X2034773D01*
X2040227Y1431300D02*
X2040000Y1431925D01*
X2039545Y1432550*
X2039091Y1432863*
X2039091D02*
X2038182D01*
X2038182D02*
X2037727Y1432550D01*
X2037273Y1431925*
X2037045Y1431300*
X2036818Y1430363*
X2036818D02*
Y1428800D01*
X2037045Y1427863*
X2037045D02*
X2037273Y1427238D01*
X2037273D02*
X2037727Y1426613D01*
X2037727D02*
X2038182Y1426300D01*
X2039091*
X2039545Y1426613*
X2039545D02*
X2040000Y1427238D01*
X2040000D02*
X2040227Y1427863D01*
X2043864Y1432863D02*
Y1426300D01*
X2042273Y1432863D02*
X2045455D01*
X2047500D02*
Y1426300D01*
X2049545Y1432863D02*
Y1426300D01*
Y1432863D02*
X2052500D01*
X2049545Y1429738D02*
X2051364D01*
X2054545Y1432863D02*
Y1426300D01*
X2056591Y1432863D02*
Y1426300D01*
Y1432863D02*
X2059545D01*
X2056591Y1429738D02*
X2058409D01*
X2056591Y1426300D02*
X2059545D01*
X2061591Y1432863D02*
Y1426300D01*
Y1432863D02*
X2063636D01*
X2063636D02*
X2064318Y1432550D01*
X2064545Y1432238*
X2064545D02*
X2064773Y1431613D01*
X2064773D02*
Y1430988D01*
X2064773D02*
X2064545Y1430363D01*
X2064545D02*
X2064318Y1430050D01*
X2063636Y1429738*
X2063636D02*
X2061591D01*
X2063182D02*
X2064773Y1426300D01*
X1993000Y1594800D02*
X1995000D01*
X2000953Y1600753*
Y1617800*
X1993000Y1594800D02*
X1988000Y1599800D01*
X1995047Y1617800D02*
Y1618300D01*
X1996300Y1607300D02*
X1997000Y1608800D01*
X1997016Y1617800*
X1998000Y1603800D02*
X1999000Y1604800D01*
X1998984Y1617800*
X1994000Y1609800D02*
X1995047Y1610847D01*
Y1618300*
X1977000Y1621800D02*
Y1623800D01*
X1998000D02*
X2000953D01*
Y1629800*
X1997016D02*
X1997000Y1640300D01*
Y1640800*
X1995500Y1642300*
X1998984Y1629800D02*
Y1632274D01*
X2000510Y1633800*
X2001000*
X1993000Y1629800D02*
X1995047D01*
X2019000Y1638800D02*
X2018000D01*
X2019000Y1640300*
Y1638800D02*
Y1646800D01*
X2013000Y1631800D02*
X2009000D01*
Y1632300*
X1995500Y1642300D02*
Y1645800D01*
X1995000Y1646300*
X2019000Y1640300D02*
X2023000Y1639800D01*
Y1646800*
X1850000Y1763800D02*
G75*
G03X1850000I-5500J0D01*
G01X1850500Y1483800D02*
G03X1850500I-5500J0D01*
G01X2163000Y1763800D02*
G03X2163000I-5500J0D01*
G01X1996500Y1651199D02*
X1996500D01*
X1996499Y1770300*
G03X1995999Y1770800I-500J-0*
G01X1827144*
G03X1826860Y1769888I-0J-500*
G01X1803912Y1746940D02*
G03X1826860Y1769888I13588J9360D01*
G01X1803912Y1746940D02*
G03X1803000Y1746656I-412J-284D01*
G01Y1628800*
G03X1803500Y1628300I500J0*
G01X1817183*
G03X1817460Y1628383I0J500*
G01X1823540D02*
G03X1817460I-3040J-4583D01*
G01X1823540D02*
G03X1823817Y1628300I277J417D01*
G01X1834883*
G03X1835160Y1628383I0J500*
G01X1841240D02*
G03X1835160I-3040J-4583D01*
G01X1841240D02*
G03X1841517Y1628300I277J417D01*
G01X1978500*
X1978508D02*
G03X1978500I-8J-2000D01*
G01X1978508D02*
X1978510D01*
X1980490*
X1980492*
X1980500D02*
G03X1980492I0J-2000D01*
G01X1980500D02*
X1992350D01*
G03X1992592Y1628362I0J500*
G01X1993315Y1628548D02*
G03X1992592Y1628362I0J-1500D01*
G01X1993315Y1628548D02*
X1994416D01*
G03X1994916Y1629048I-0J500*
G01Y1631550*
X1994988Y1632010D02*
G03X1994916Y1631550I1428J-460D01*
G01X1994988Y1632010D02*
G03X1995012Y1632163I-476J153D01*
G01Y1632164*
X1995002Y1639260*
G03X1994658Y1639735I-500J-0*
G01X1992806Y1642120D02*
G03X1994658Y1639735I2694J180D01*
G01X1992806Y1642120D02*
G03X1992576Y1642508I-499J-33D01*
G01X1995900Y1650709D02*
G03X1992576Y1642508I-900J-4409D01*
G01X1995900Y1650709D02*
G03X1996500Y1651199I100J490D01*
G01X2011500Y1477300D02*
Y1612800D01*
G03X2011000Y1613300I-500J-0*
G01X2003453*
G03X2002953Y1612800I0J-500*
G01Y1600753*
X2002367Y1599339D02*
G03X2002953Y1600753I-1414J1414D01*
G01X2002367Y1599339D02*
X1997614Y1594586D01*
G03X1997471Y1594289I354J-354*
G01X1988653Y1595965D02*
G03X1997471Y1594289I4347J-1165D01*
G01X1988653Y1595965D02*
G03X1988524Y1596448I-483J129D01*
G01X1987998Y1596973*
G03X1987700Y1597117I-353J-353*
G01X1988008Y1602500D02*
G03X1987700Y1597117I-8J-2700D01*
G01X1988008Y1602500D02*
G03X1988508Y1603030I1J500D01*
G01X1993232Y1607794D02*
G03X1988508Y1603030I-232J-4494D01*
G01X1993232Y1607794D02*
G03X1993733Y1608138I26J499D01*
G01X1994783Y1609534D02*
G03X1993733Y1608138I1517J-2234D01*
G01X1994783Y1609534D02*
G03X1995002Y1609946I-281J413D01*
G01X1995004Y1610799*
Y1610800*
G03X1994503Y1611300I-500J-0*
G01X1994500*
X1993614*
G03X1993440Y1611269I-0J-500*
G01X1991560D02*
G03X1993440I940J2531D01*
G01X1991560D02*
G03X1991386Y1611300I-174J-469D01*
G01X1987207*
X1987199D02*
G03X1987207I8J2000D01*
G01X1987199D02*
X1987197D01*
X1985793*
X1978500Y1618593*
Y1618760*
G03X1977844Y1619235I-500J0*
G01X1975538Y1619530D02*
G03X1977844Y1619235I1462J2270D01*
G01X1975538Y1619530D02*
G03X1975440Y1619579I-271J-420D01*
G01X1972876Y1625600D02*
G03X1975440Y1619579I4124J-1800D01*
G01X1972876Y1625600D02*
G03X1972417Y1626300I-459J200D01*
G01X1843857*
G03X1843385Y1625633I-0J-500*
G01X1833015D02*
G03X1843385I5185J-1833D01*
G01X1833015D02*
G03X1832543Y1626300I-472J167D01*
G01X1826157*
G03X1825685Y1625633I-0J-500*
G01X1815315D02*
G03X1825685I5185J-1833D01*
G01X1815315D02*
G03X1814843Y1626300I-472J167D01*
G01X1803500*
G03X1803000Y1625800I0J-500*
G01Y1500944*
G03X1803912Y1500660I500J-0*
G01X1826860Y1477712D02*
G03X1803912Y1500660I-9360J13588D01*
G01X1826860Y1477712D02*
G03X1827144Y1476800I284J-412D01*
G01X2011000*
G03X2011500Y1477300I-0J500*
G01X2197000Y1500944D02*
Y1653800D01*
G03X2196500Y1654300I-500J-0*
G01X2124291*
G03X2123936Y1654152I0J-500*
G01X2096333Y1626300*
X2094802*
X2094800*
X2094793D02*
G03X2094800I-0J2000D01*
G01X2094793D02*
X1998500D01*
X1998494*
X1998492*
X1996510*
X1996508*
X1996500D02*
G03X1996508I0J2000D01*
G01X1996500D02*
X1981583D01*
G03X1981124Y1625600I-0J-500*
G01X1980600Y1621100D02*
G03X1981124Y1625600I-3600J2700D01*
G01X1980600Y1621100D02*
G03X1980500Y1620800I400J-300D01*
G01Y1620214*
G03X1980646Y1619861I500J0*
G01X1987061Y1613446*
G03X1987414Y1613300I353J354*
G01X1992547*
G03X1993047Y1613800I-0J500*
G01Y1615425*
G03X1993022Y1615582I-500J0*
G01X1992947Y1616050D02*
G03X1993022Y1615582I1500J0D01*
G01X1992947Y1616050D02*
Y1619550D01*
X1994447Y1621050D02*
G03X1992947Y1619550I0J-1500D01*
G01X1994447Y1621050D02*
X1995647D01*
X1995935Y1621022D02*
G03X1995647Y1621050I-288J-1472D01*
G01X1995935Y1621022D02*
G03X1996128I96J491D01*
G01X1996416Y1621050D02*
G03X1996128Y1621022I0J-1500D01*
G01X1996416Y1621050D02*
X1997616D01*
X1997904Y1621022D02*
G03X1997616Y1621050I-288J-1472D01*
G01X1997904Y1621022D02*
G03X1998096I96J491D01*
G01X1998384Y1621050D02*
G03X1998096Y1621022I0J-1500D01*
G01X1998384Y1621050D02*
X1999584D01*
X1999872Y1621022D02*
G03X1999584Y1621050I-288J-1472D01*
G01X1999872Y1621022D02*
G03X2000065I96J491D01*
G01X2000353Y1621050D02*
G03X2000065Y1621022I0J-1500D01*
G01X2000353Y1621050D02*
X2001553D01*
X2003053Y1619550D02*
G03X2001553Y1621050I-1500J0D01*
G01X2003053Y1619550D02*
Y1619469D01*
G03X2003623Y1618974I500J-0*
G01X2005477Y1618561D02*
G03X2003623Y1618974I-1477J-2261D01*
G01X2005477Y1618561D02*
G03X2006023I273J418D01*
G01X2008977Y1618560D02*
G03X2006023I-1477J-2260D01*
G01X2008977Y1618561D02*
G03X2009523I273J418D01*
G01X2013531Y1615360D02*
G03X2009523Y1618560I-2531J940D01*
G01X2013531Y1615360D02*
G03X2013500Y1615186I469J-174D01*
G01Y1613310*
Y1613308*
Y1613300D02*
G03Y1613308I-2000J0D01*
G01Y1613300D02*
Y1477300D01*
G03X2014000Y1476800I500J0*
G01X2172856*
G03X2173140Y1477712I0J500*
G01X2196088Y1500660D02*
G03X2173140Y1477712I-13588J-9360D01*
G01X2196088Y1500660D02*
G03X2197000Y1500944I412J284D01*
G01Y1656800D02*
Y1746656D01*
G03X2196088Y1746940I-500J0*
G01X2173140Y1769888D02*
G03X2196088Y1746940I9360J-13588D01*
G01X2173140Y1769888D02*
G03X2172856Y1770800I-284J412D01*
G01X1999000*
G03X1998500Y1770300I0J-500*
G01Y1649300*
G03X1998600Y1649000I500J0*
G01Y1643600D02*
G03Y1649000I-3600J2700D01*
G01Y1643600D02*
G03X1998500Y1643300I400J-300D01*
G01Y1642300*
G03X1998600Y1642000I500J0*
G01X1999000Y1640800D02*
G03X1998600Y1642000I-2000J0D01*
G01X1999000Y1640800D02*
Y1640302D01*
Y1640301*
X1999011Y1633363*
G03X1999721Y1632910I500J1*
G01X2000353Y1633050D02*
G03X1999721Y1632910I0J-1500D01*
G01X2000353Y1633050D02*
X2001553D01*
X2003053Y1631550D02*
G03X2001553Y1633050I-1500J0D01*
G01X2003053Y1631550D02*
Y1628850D01*
G03X2003336Y1628399I500J-0*
G01X2003408Y1628362D02*
G03X2003336Y1628399I-723J-1314D01*
G01X2003408Y1628362D02*
G03X2003650Y1628300I242J438D01*
G01X2094586*
G03X2094939Y1628446I-0J500*
G01X2122793Y1656300*
X2124072*
X2124075*
X2124083D02*
G03X2124075I-0J-2000D01*
G01X2124083D02*
X2196500D01*
G03X2197000Y1656800I-0J500*
G01X1850000Y1763800D02*
G03X1850000I-5500J0D01*
G01X1850500Y1483800D02*
G03X1850500I-5500J0D01*
G01X2178000Y1638800D02*
Y1633800D01*
X2176500Y1632300D02*
G03X2178000Y1633800I0J1500D01*
G01X2176500Y1632300D02*
X2174500D01*
G03X2174000Y1631800I0J-500*
G01Y1619123*
G03X2174125Y1618792I500J-0*
G01X2174500Y1617800D02*
G03X2174125Y1618792I-1500J0D01*
G01X2174500Y1617800D02*
Y1611800D01*
X2173000Y1610300D02*
G03X2174500Y1611800I0J1500D01*
G01X2173000Y1610300D02*
X2167000D01*
X2165500Y1611800D02*
G03X2167000Y1610300I1500J0D01*
G01X2165500Y1611800D02*
Y1617800D01*
X2165875Y1618792D02*
G03X2165500Y1617800I1125J-992D01*
G01X2165875Y1618792D02*
G03X2166000Y1619123I-375J331D01*
G01Y1631800*
G03X2165500Y1632300I-500J-0*
G01X2163500*
X2162000Y1633800D02*
G03X2163500Y1632300I1500J0D01*
G01X2162000Y1633800D02*
Y1638800D01*
X2163500Y1640300D02*
G03X2162000Y1638800I0J-1500D01*
G01X2163500Y1640300D02*
X2176500D01*
X2178000Y1638800D02*
G03X2176500Y1640300I-1500J0D01*
G01X2163000Y1763800D02*
G03X2163000I-5500J0D01*
G01X1803000Y1651699D02*
X1996500D01*
X1803000Y1652599D02*
X1996500D01*
X1803000Y1653499D02*
X1996500D01*
X1803000Y1654399D02*
X1996500D01*
X1803000Y1655299D02*
X1996500D01*
X1803000Y1656199D02*
X1996500D01*
X1803000Y1657099D02*
X1996500D01*
X1803000Y1657999D02*
X1996500D01*
X1803000Y1658899D02*
X1996500D01*
X1803000Y1659799D02*
X1996500D01*
X1803000Y1660699D02*
X1996500D01*
X1803000Y1661599D02*
X1996500D01*
X1803000Y1662499D02*
X1996500D01*
X1803000Y1663399D02*
X1996500D01*
X1803000Y1664299D02*
X1996500D01*
X1803000Y1665199D02*
X1996500D01*
X1803000Y1666099D02*
X1996500D01*
X1803000Y1666999D02*
X1996500D01*
X1803000Y1667899D02*
X1996500D01*
X1803000Y1668799D02*
X1996500D01*
X1803000Y1669699D02*
X1996500D01*
X1803000Y1670599D02*
X1996500D01*
X1803000Y1671499D02*
X1996500D01*
X1803000Y1672399D02*
X1996500D01*
X1803000Y1673299D02*
X1996500D01*
X1803000Y1674199D02*
X1996500D01*
X1803000Y1675099D02*
X1996500D01*
X1803000Y1675999D02*
X1996500D01*
X1803000Y1676899D02*
X1996500D01*
X1803000Y1677799D02*
X1996500D01*
X1803000Y1678699D02*
X1996500D01*
X1803000Y1679599D02*
X1996500D01*
X1803000Y1680499D02*
X1996500D01*
X1803000Y1681399D02*
X1996500D01*
X1803000Y1682299D02*
X1996500D01*
X1803000Y1683199D02*
X1996500D01*
X1803000Y1684099D02*
X1996500D01*
X1803000Y1684999D02*
X1996500D01*
X1803000Y1685899D02*
X1996500D01*
X1803000Y1686799D02*
X1996500D01*
X1803000Y1687699D02*
X1996500D01*
X1803000Y1688599D02*
X1996500D01*
X1803000Y1689499D02*
X1996500D01*
X1803000Y1690399D02*
X1996500D01*
X1803000Y1691299D02*
X1996500D01*
X1803000Y1692199D02*
X1996500D01*
X1803000Y1693099D02*
X1996500D01*
X1803000Y1693999D02*
X1996500D01*
X1803000Y1694899D02*
X1996500D01*
X1803000Y1695799D02*
X1996500D01*
X1803000Y1696699D02*
X1996500D01*
X1803000Y1697599D02*
X1996500D01*
X1803000Y1698499D02*
X1996500D01*
X1803000Y1699399D02*
X1996500D01*
X1803000Y1700299D02*
X1996500D01*
X1803000Y1701199D02*
X1996500D01*
X1803000Y1702099D02*
X1996500D01*
X1803000Y1702999D02*
X1996500D01*
X1803000Y1703899D02*
X1996500D01*
X1803000Y1704799D02*
X1996500D01*
X1803000Y1705699D02*
X1996500D01*
X1803000Y1706599D02*
X1996500D01*
X1803000Y1707499D02*
X1996500D01*
X1803000Y1708399D02*
X1996500D01*
X1803000Y1709299D02*
X1996500D01*
X1803000Y1710199D02*
X1996500D01*
X1803000Y1711099D02*
X1996500D01*
X1803000Y1711999D02*
X1996500D01*
X1803000Y1712899D02*
X1996500D01*
X1803000Y1713799D02*
X1996500D01*
X1803000Y1714699D02*
X1996500D01*
X1803000Y1715599D02*
X1996500D01*
X1803000Y1716499D02*
X1996500D01*
X1803000Y1717399D02*
X1996500D01*
X1803000Y1718299D02*
X1996500D01*
X1803000Y1719199D02*
X1996500D01*
X1803000Y1720099D02*
X1996500D01*
X1803000Y1720999D02*
X1996500D01*
X1803000Y1721899D02*
X1996500D01*
X1803000Y1722799D02*
X1996500D01*
X1803000Y1723699D02*
X1996500D01*
X1803000Y1724599D02*
X1996500D01*
X1803000Y1725499D02*
X1996500D01*
X1803000Y1726399D02*
X1996500D01*
X1803000Y1727299D02*
X1996500D01*
X1803000Y1728199D02*
X1996500D01*
X1803000Y1729099D02*
X1996500D01*
X1803000Y1729999D02*
X1996500D01*
X1803000Y1730899D02*
X1996500D01*
X1803000Y1731799D02*
X1996500D01*
X1803000Y1732699D02*
X1996500D01*
X1803000Y1733599D02*
X1996500D01*
X1803000Y1734499D02*
X1996500D01*
X1803000Y1735399D02*
X1996500D01*
X1803000Y1736299D02*
X1996500D01*
X1803000Y1737199D02*
X1996500D01*
X1803000Y1738099D02*
X1996500D01*
X1803000Y1738999D02*
X1996500D01*
X1819302Y1739899D02*
X1996500D01*
X1823153Y1740799D02*
X1996500D01*
X1825185Y1741699D02*
X1996500D01*
X1826694Y1742599D02*
X1996500D01*
X1827910Y1743499D02*
X1996500D01*
X1828928Y1744399D02*
X1996500D01*
X1829797Y1745299D02*
X1996500D01*
X1830547Y1746199D02*
X1996500D01*
X1831196Y1747099D02*
X1996500D01*
X1831760Y1747999D02*
X1996500D01*
X1832247Y1748899D02*
X1996500D01*
X1832665Y1749799D02*
X1996500D01*
X1833020Y1750699D02*
X1996499D01*
X1833316Y1751599D02*
X1996499D01*
X1833556Y1752499D02*
X1996499D01*
X1833743Y1753399D02*
X1996499D01*
X1833878Y1754299D02*
X1996499D01*
X1833963Y1755199D02*
X1996499D01*
X1833999Y1756099D02*
X1996499D01*
X1833985Y1756999D02*
X1996499D01*
X1833922Y1757899D02*
X1996499D01*
X1846788Y1758799D02*
X1996499D01*
X1848165Y1759699D02*
X1996499D01*
X1848972Y1760599D02*
X1996499D01*
X1849495Y1761499D02*
X1996499D01*
X1849819Y1762399D02*
X1996499D01*
X1849977Y1763299D02*
X1996499D01*
X1849986Y1764199D02*
X1996499D01*
X1849844Y1765099D02*
X1996499D01*
X1849541Y1765999D02*
X1996499D01*
X1849044Y1766899D02*
X1996499D01*
X1848276Y1767799D02*
X1996499D01*
X1847001Y1768699D02*
X1996499D01*
X1827267Y1769599D02*
X1996499D01*
X1826685Y1770499D02*
X1996458D01*
X1995110Y1650799D02*
X1996300D01*
X1803000Y1632799D02*
X1995011D01*
X1803000Y1633699D02*
X1995010D01*
X1803000Y1634599D02*
X1995009D01*
X1803000Y1635499D02*
X1995007D01*
X1803000Y1636399D02*
X1995006D01*
X1803000Y1637299D02*
X1995005D01*
X1803000Y1638199D02*
X1995003D01*
X1803000Y1639099D02*
X1995002D01*
X1803000Y1631899D02*
X1994957D01*
X1803000Y1630999D02*
X1994916D01*
X1803000Y1630099D02*
X1994916D01*
X1839251Y1629199D02*
X1994916D01*
X1803000Y1650799D02*
X1994890D01*
X1803000Y1639999D02*
X1994088D01*
X1803000Y1640899D02*
X1993192D01*
X1803000Y1641799D02*
X1992847D01*
X1803000Y1642699D02*
X1992302D01*
X1803000Y1649899D02*
X1992298D01*
X1803000Y1643599D02*
X1991401D01*
X1803000Y1648999D02*
X1991399D01*
X1803000Y1644499D02*
X1990876D01*
X1803000Y1648099D02*
X1990875D01*
X1803000Y1645399D02*
X1990591D01*
X1803000Y1647199D02*
X1990591D01*
X1803000Y1646299D02*
X1990500D01*
X1833810Y1758799D02*
X1842212D01*
X1828387Y1768699D02*
X1841999D01*
X1833646Y1759699D02*
X1840835D01*
X1829333Y1767799D02*
X1840724D01*
X1833430Y1760599D02*
X1840028D01*
X1830146Y1766899D02*
X1839956D01*
X1833160Y1761499D02*
X1839505D01*
X1830849Y1765999D02*
X1839459D01*
X1832832Y1762399D02*
X1839181D01*
X1831458Y1765099D02*
X1839156D01*
X1832442Y1763299D02*
X1839023D01*
X1831987Y1764199D02*
X1839014D01*
X1821551Y1629199D02*
X1837149D01*
X1803000D02*
X1819449D01*
X1803000Y1739899D02*
X1815698D01*
X1803000Y1740799D02*
X1811847D01*
X1803000Y1741699D02*
X1809815D01*
X1803000Y1742599D02*
X1808306D01*
X1803000Y1743499D02*
X1807090D01*
X1803000Y1744399D02*
X1806072D01*
X1803000Y1745299D02*
X1805203D01*
X1803000Y1746199D02*
X1804453D01*
X1803267Y1747099D02*
X1803733D01*
X2002953Y1612199D02*
X2011500D01*
X2002953Y1611299D02*
X2011500D01*
X2002953Y1610399D02*
X2011500D01*
X2002953Y1609499D02*
X2011500D01*
X2002953Y1608599D02*
X2011500D01*
X2002953Y1607699D02*
X2011500D01*
X2002953Y1606799D02*
X2011500D01*
X2002953Y1605899D02*
X2011500D01*
X2002953Y1604999D02*
X2011500D01*
X2002953Y1604099D02*
X2011500D01*
X2002953Y1603199D02*
X2011500D01*
X2002953Y1602299D02*
X2011500D01*
X2002953Y1601399D02*
X2011500D01*
X2002937Y1600499D02*
X2011500D01*
X2002586Y1599599D02*
X2011500D01*
X2001727Y1598699D02*
X2011500D01*
X2000827Y1597799D02*
X2011500D01*
X1999927Y1596899D02*
X2011500D01*
X1999027Y1595999D02*
X2011500D01*
X1998127Y1595099D02*
X2011500D01*
X1997460Y1594199D02*
X2011500D01*
X1997242Y1593299D02*
X2011500D01*
X1996806Y1592399D02*
X2011500D01*
X1996058Y1591499D02*
X2011500D01*
X1994612Y1590599D02*
X2011500D01*
X1803000Y1589699D02*
X2011500D01*
X1803000Y1588799D02*
X2011500D01*
X1803000Y1587899D02*
X2011500D01*
X1803000Y1586999D02*
X2011500D01*
X1803000Y1586099D02*
X2011500D01*
X1803000Y1585199D02*
X2011500D01*
X1803000Y1584299D02*
X2011500D01*
X1803000Y1583399D02*
X2011500D01*
X1803000Y1582499D02*
X2011500D01*
X1803000Y1581599D02*
X2011500D01*
X1803000Y1580699D02*
X2011500D01*
X1803000Y1579799D02*
X2011500D01*
X1803000Y1578899D02*
X2011500D01*
X1803000Y1577999D02*
X2011500D01*
X1803000Y1577099D02*
X2011500D01*
X1803000Y1576199D02*
X2011500D01*
X1803000Y1575299D02*
X2011500D01*
X1803000Y1574399D02*
X2011500D01*
X1803000Y1573499D02*
X2011500D01*
X1803000Y1572599D02*
X2011500D01*
X1803000Y1571699D02*
X2011500D01*
X1803000Y1570799D02*
X2011500D01*
X1803000Y1569899D02*
X2011500D01*
X1803000Y1568999D02*
X2011500D01*
X1803000Y1568099D02*
X2011500D01*
X1803000Y1567199D02*
X2011500D01*
X1803000Y1566299D02*
X2011500D01*
X1803000Y1565399D02*
X2011500D01*
X1803000Y1564499D02*
X2011500D01*
X1803000Y1563599D02*
X2011500D01*
X1803000Y1562699D02*
X2011500D01*
X1803000Y1561799D02*
X2011500D01*
X1803000Y1560899D02*
X2011500D01*
X1803000Y1559999D02*
X2011500D01*
X1803000Y1559099D02*
X2011500D01*
X1803000Y1558199D02*
X2011500D01*
X1803000Y1557299D02*
X2011500D01*
X1803000Y1556399D02*
X2011500D01*
X1803000Y1555499D02*
X2011500D01*
X1803000Y1554599D02*
X2011500D01*
X1803000Y1553699D02*
X2011500D01*
X1803000Y1552799D02*
X2011500D01*
X1803000Y1551899D02*
X2011500D01*
X1803000Y1550999D02*
X2011500D01*
X1803000Y1550099D02*
X2011500D01*
X1803000Y1549199D02*
X2011500D01*
X1803000Y1548299D02*
X2011500D01*
X1803000Y1547399D02*
X2011500D01*
X1803000Y1546499D02*
X2011500D01*
X1803000Y1545599D02*
X2011500D01*
X1803000Y1544699D02*
X2011500D01*
X1803000Y1543799D02*
X2011500D01*
X1803000Y1542899D02*
X2011500D01*
X1803000Y1541999D02*
X2011500D01*
X1803000Y1541099D02*
X2011500D01*
X1803000Y1540199D02*
X2011500D01*
X1803000Y1539299D02*
X2011500D01*
X1803000Y1538399D02*
X2011500D01*
X1803000Y1537499D02*
X2011500D01*
X1803000Y1536599D02*
X2011500D01*
X1803000Y1535699D02*
X2011500D01*
X1803000Y1534799D02*
X2011500D01*
X1803000Y1533899D02*
X2011500D01*
X1803000Y1532999D02*
X2011500D01*
X1803000Y1532099D02*
X2011500D01*
X1803000Y1531199D02*
X2011500D01*
X1803000Y1530299D02*
X2011500D01*
X1803000Y1529399D02*
X2011500D01*
X1803000Y1528499D02*
X2011500D01*
X1803000Y1527599D02*
X2011500D01*
X1803000Y1526699D02*
X2011500D01*
X1803000Y1525799D02*
X2011500D01*
X1803000Y1524899D02*
X2011500D01*
X1803000Y1523999D02*
X2011500D01*
X1803000Y1523099D02*
X2011500D01*
X1803000Y1522199D02*
X2011500D01*
X1803000Y1521299D02*
X2011500D01*
X1803000Y1520399D02*
X2011500D01*
X1803000Y1519499D02*
X2011500D01*
X1803000Y1518599D02*
X2011500D01*
X1803000Y1517699D02*
X2011500D01*
X1803000Y1516799D02*
X2011500D01*
X1803000Y1515899D02*
X2011500D01*
X1803000Y1514999D02*
X2011500D01*
X1803000Y1514099D02*
X2011500D01*
X1803000Y1513199D02*
X2011500D01*
X1803000Y1512299D02*
X2011500D01*
X1803000Y1511399D02*
X2011500D01*
X1803000Y1510499D02*
X2011500D01*
X1803000Y1509599D02*
X2011500D01*
X1803000Y1508699D02*
X2011500D01*
X1817710Y1507799D02*
X2011500D01*
X1822879Y1506899D02*
X2011500D01*
X1824997Y1505999D02*
X2011500D01*
X1826547Y1505099D02*
X2011500D01*
X1827790Y1504199D02*
X2011500D01*
X1828826Y1503299D02*
X2011500D01*
X1829709Y1502399D02*
X2011500D01*
X1830471Y1501499D02*
X2011500D01*
X1831130Y1500599D02*
X2011500D01*
X1831703Y1499699D02*
X2011500D01*
X1832198Y1498799D02*
X2011500D01*
X1832623Y1497899D02*
X2011500D01*
X1832985Y1496999D02*
X2011500D01*
X1833287Y1496099D02*
X2011500D01*
X1833533Y1495199D02*
X2011500D01*
X1833725Y1494299D02*
X2011500D01*
X1833866Y1493399D02*
X2011500D01*
X1833956Y1492499D02*
X2011500D01*
X1833997Y1491599D02*
X2011500D01*
X1833989Y1490699D02*
X2011500D01*
X1833932Y1489799D02*
X2011500D01*
X1847062Y1488899D02*
X2011500D01*
X1848553Y1487999D02*
X2011500D01*
X1849401Y1487099D02*
X2011500D01*
X1849949Y1486199D02*
X2011500D01*
X1850292Y1485299D02*
X2011500D01*
X1850467Y1484399D02*
X2011500D01*
X1850492Y1483499D02*
X2011500D01*
X1850367Y1482599D02*
X2011500D01*
X1850083Y1481699D02*
X2011500D01*
X1849609Y1480799D02*
X2011500D01*
X1848877Y1479899D02*
X2011500D01*
X1847683Y1478999D02*
X2011500D01*
X1827398Y1478099D02*
X2011500D01*
X1826654Y1477199D02*
X2011490D01*
X2003052Y1613099D02*
X2011401D01*
X1803000Y1610399D02*
X1995003D01*
X1803000Y1609499D02*
X1994733D01*
X1993578Y1611299D02*
X1994539D01*
X1803000Y1608599D02*
X1993933D01*
X1803000Y1607699D02*
X1992050D01*
X1803000Y1611299D02*
X1991422D01*
X1803000Y1590599D02*
X1991388D01*
X1803000Y1606799D02*
X1990170D01*
X1803000Y1591499D02*
X1989942D01*
X1803000Y1605899D02*
X1989326D01*
X1803000Y1592399D02*
X1989194D01*
X1803000Y1604999D02*
X1988833D01*
X1803000Y1593299D02*
X1988758D01*
X1803000Y1595999D02*
X1988661D01*
X1803000Y1604099D02*
X1988571D01*
X1803000Y1594199D02*
X1988540D01*
X1803000Y1595099D02*
X1988510D01*
X1803000Y1603199D02*
X1988501D01*
X1803000Y1596899D02*
X1988073D01*
X1803000Y1602299D02*
X1986977D01*
X1803000Y1597799D02*
X1986188D01*
X1803000Y1601399D02*
X1985824D01*
X1803000Y1598699D02*
X1985535D01*
X1803000Y1600499D02*
X1985392D01*
X1803000Y1599599D02*
X1985307D01*
X1803000Y1612199D02*
X1984894D01*
X1803000Y1613099D02*
X1983994D01*
X1803000Y1613999D02*
X1983094D01*
X1803000Y1614899D02*
X1982194D01*
X1803000Y1615799D02*
X1981294D01*
X1803000Y1616699D02*
X1980394D01*
X1803000Y1617599D02*
X1979494D01*
X1839665Y1618499D02*
X1978594D01*
X1841498Y1619399D02*
X1975766D01*
X1842442Y1620299D02*
X1974173D01*
X1843046Y1621199D02*
X1973328D01*
X1843367Y1625699D02*
X1972907D01*
X1843430Y1622099D02*
X1972834D01*
X1843609Y1624799D02*
X1972612D01*
X1843641Y1622999D02*
X1972572D01*
X1843699Y1623899D02*
X1972501D01*
X1833824Y1488899D02*
X1842938D01*
X1828497Y1478999D02*
X1842317D01*
X1833666Y1487999D02*
X1841447D01*
X1829427Y1479899D02*
X1841123D01*
X1833456Y1487099D02*
X1840599D01*
X1830227Y1480799D02*
X1840391D01*
X1833192Y1486199D02*
X1840051D01*
X1830919Y1481699D02*
X1839917D01*
X1832870Y1485299D02*
X1839708D01*
X1831519Y1482599D02*
X1839633D01*
X1832487Y1484399D02*
X1839533D01*
X1832039Y1483499D02*
X1839508D01*
X1821965Y1618499D02*
X1836735D01*
X1823798Y1619399D02*
X1834902D01*
X1824742Y1620299D02*
X1833958D01*
X1825346Y1621199D02*
X1833354D01*
X1825667Y1625699D02*
X1833033D01*
X1825730Y1622099D02*
X1832970D01*
X1825909Y1624799D02*
X1832791D01*
X1825941Y1622999D02*
X1832759D01*
X1825999Y1623899D02*
X1832701D01*
X1803000Y1618499D02*
X1819035D01*
X1803000Y1507799D02*
X1817290D01*
X1803000Y1619399D02*
X1817202D01*
X1803000Y1620299D02*
X1816258D01*
X1803000Y1621199D02*
X1815654D01*
X1803000Y1625699D02*
X1815333D01*
X1803000Y1622099D02*
X1815270D01*
X1803000Y1624799D02*
X1815091D01*
X1803000Y1622999D02*
X1815059D01*
X1803000Y1623899D02*
X1815001D01*
X1803000Y1506899D02*
X1812121D01*
X1803000Y1505999D02*
X1810003D01*
X1803000Y1505099D02*
X1808453D01*
X1803000Y1504199D02*
X1807210D01*
X1803000Y1503299D02*
X1806174D01*
X1803000Y1502399D02*
X1805291D01*
X1803000Y1501499D02*
X1804529D01*
X1803138Y1500599D02*
X1803862D01*
X2123388Y1653599D02*
X2197000D01*
X2122496Y1652699D02*
X2197000D01*
X2121604Y1651799D02*
X2197000D01*
X2120712Y1650899D02*
X2197000D01*
X2119820Y1649999D02*
X2197000D01*
X2118928Y1649099D02*
X2197000D01*
X2118036Y1648199D02*
X2197000D01*
X2117144Y1647299D02*
X2197000D01*
X2116252Y1646399D02*
X2197000D01*
X2115360Y1645499D02*
X2197000D01*
X2114468Y1644599D02*
X2197000D01*
X2113576Y1643699D02*
X2197000D01*
X2112684Y1642799D02*
X2197000D01*
X2111792Y1641899D02*
X2197000D01*
X2110900Y1640999D02*
X2197000D01*
X2177251Y1640099D02*
X2197000D01*
X2177946Y1639199D02*
X2197000D01*
X2178000Y1638299D02*
X2197000D01*
X2178000Y1637399D02*
X2197000D01*
X2178000Y1636499D02*
X2197000D01*
X2178000Y1635599D02*
X2197000D01*
X2178000Y1634699D02*
X2197000D01*
X2178000Y1633799D02*
X2197000D01*
X2177699Y1632899D02*
X2197000D01*
X2174041Y1631999D02*
X2197000D01*
X2174000Y1631099D02*
X2197000D01*
X2174000Y1630199D02*
X2197000D01*
X2174000Y1629299D02*
X2197000D01*
X2174000Y1628399D02*
X2197000D01*
X2174000Y1627499D02*
X2197000D01*
X2174000Y1626599D02*
X2197000D01*
X2174000Y1625699D02*
X2197000D01*
X2174000Y1624799D02*
X2197000D01*
X2174000Y1623899D02*
X2197000D01*
X2174000Y1622999D02*
X2197000D01*
X2174000Y1622099D02*
X2197000D01*
X2174000Y1621199D02*
X2197000D01*
X2174000Y1620299D02*
X2197000D01*
X2174000Y1619399D02*
X2197000D01*
X2174327Y1618499D02*
X2197000D01*
X2174500Y1617599D02*
X2197000D01*
X2174500Y1616699D02*
X2197000D01*
X2174500Y1615799D02*
X2197000D01*
X2174500Y1614899D02*
X2197000D01*
X2174500Y1613999D02*
X2197000D01*
X2174500Y1613099D02*
X2197000D01*
X2174500Y1612199D02*
X2197000D01*
X2174414Y1611299D02*
X2197000D01*
X2173535Y1610399D02*
X2197000D01*
X2013500Y1609499D02*
X2197000D01*
X2013500Y1608599D02*
X2197000D01*
X2013500Y1607699D02*
X2197000D01*
X2013500Y1606799D02*
X2197000D01*
X2013500Y1605899D02*
X2197000D01*
X2013500Y1604999D02*
X2197000D01*
X2013500Y1604099D02*
X2197000D01*
X2013500Y1603199D02*
X2197000D01*
X2013500Y1602299D02*
X2197000D01*
X2013500Y1601399D02*
X2197000D01*
X2013500Y1600499D02*
X2197000D01*
X2013500Y1599599D02*
X2197000D01*
X2013500Y1598699D02*
X2197000D01*
X2013500Y1597799D02*
X2197000D01*
X2013500Y1596899D02*
X2197000D01*
X2013500Y1595999D02*
X2197000D01*
X2013500Y1595099D02*
X2197000D01*
X2013500Y1594199D02*
X2197000D01*
X2013500Y1593299D02*
X2197000D01*
X2013500Y1592399D02*
X2197000D01*
X2013500Y1591499D02*
X2197000D01*
X2013500Y1590599D02*
X2197000D01*
X2013500Y1589699D02*
X2197000D01*
X2013500Y1588799D02*
X2197000D01*
X2013500Y1587899D02*
X2197000D01*
X2013500Y1586999D02*
X2197000D01*
X2013500Y1586099D02*
X2197000D01*
X2013500Y1585199D02*
X2197000D01*
X2013500Y1584299D02*
X2197000D01*
X2013500Y1583399D02*
X2197000D01*
X2013500Y1582499D02*
X2197000D01*
X2013500Y1581599D02*
X2197000D01*
X2013500Y1580699D02*
X2197000D01*
X2013500Y1579799D02*
X2197000D01*
X2013500Y1578899D02*
X2197000D01*
X2013500Y1577999D02*
X2197000D01*
X2013500Y1577099D02*
X2197000D01*
X2013500Y1576199D02*
X2197000D01*
X2013500Y1575299D02*
X2197000D01*
X2013500Y1574399D02*
X2197000D01*
X2013500Y1573499D02*
X2197000D01*
X2013500Y1572599D02*
X2197000D01*
X2013500Y1571699D02*
X2197000D01*
X2013500Y1570799D02*
X2197000D01*
X2013500Y1569899D02*
X2197000D01*
X2013500Y1568999D02*
X2197000D01*
X2013500Y1568099D02*
X2197000D01*
X2013500Y1567199D02*
X2197000D01*
X2013500Y1566299D02*
X2197000D01*
X2013500Y1565399D02*
X2197000D01*
X2013500Y1564499D02*
X2197000D01*
X2013500Y1563599D02*
X2197000D01*
X2013500Y1562699D02*
X2197000D01*
X2013500Y1561799D02*
X2197000D01*
X2013500Y1560899D02*
X2197000D01*
X2013500Y1559999D02*
X2197000D01*
X2013500Y1559099D02*
X2197000D01*
X2013500Y1558199D02*
X2197000D01*
X2013500Y1557299D02*
X2197000D01*
X2013500Y1556399D02*
X2197000D01*
X2013500Y1555499D02*
X2197000D01*
X2013500Y1554599D02*
X2197000D01*
X2013500Y1553699D02*
X2197000D01*
X2013500Y1552799D02*
X2197000D01*
X2013500Y1551899D02*
X2197000D01*
X2013500Y1550999D02*
X2197000D01*
X2013500Y1550099D02*
X2197000D01*
X2013500Y1549199D02*
X2197000D01*
X2013500Y1548299D02*
X2197000D01*
X2013500Y1547399D02*
X2197000D01*
X2013500Y1546499D02*
X2197000D01*
X2013500Y1545599D02*
X2197000D01*
X2013500Y1544699D02*
X2197000D01*
X2013500Y1543799D02*
X2197000D01*
X2013500Y1542899D02*
X2197000D01*
X2013500Y1541999D02*
X2197000D01*
X2013500Y1541099D02*
X2197000D01*
X2013500Y1540199D02*
X2197000D01*
X2013500Y1539299D02*
X2197000D01*
X2013500Y1538399D02*
X2197000D01*
X2013500Y1537499D02*
X2197000D01*
X2013500Y1536599D02*
X2197000D01*
X2013500Y1535699D02*
X2197000D01*
X2013500Y1534799D02*
X2197000D01*
X2013500Y1533899D02*
X2197000D01*
X2013500Y1532999D02*
X2197000D01*
X2013500Y1532099D02*
X2197000D01*
X2013500Y1531199D02*
X2197000D01*
X2013500Y1530299D02*
X2197000D01*
X2013500Y1529399D02*
X2197000D01*
X2013500Y1528499D02*
X2197000D01*
X2013500Y1527599D02*
X2197000D01*
X2013500Y1526699D02*
X2197000D01*
X2013500Y1525799D02*
X2197000D01*
X2013500Y1524899D02*
X2197000D01*
X2013500Y1523999D02*
X2197000D01*
X2013500Y1523099D02*
X2197000D01*
X2013500Y1522199D02*
X2197000D01*
X2013500Y1521299D02*
X2197000D01*
X2013500Y1520399D02*
X2197000D01*
X2013500Y1519499D02*
X2197000D01*
X2013500Y1518599D02*
X2197000D01*
X2013500Y1517699D02*
X2197000D01*
X2013500Y1516799D02*
X2197000D01*
X2013500Y1515899D02*
X2197000D01*
X2013500Y1514999D02*
X2197000D01*
X2013500Y1514099D02*
X2197000D01*
X2013500Y1513199D02*
X2197000D01*
X2013500Y1512299D02*
X2197000D01*
X2013500Y1511399D02*
X2197000D01*
X2013500Y1510499D02*
X2197000D01*
X2013500Y1509599D02*
X2197000D01*
X2013500Y1508699D02*
X2197000D01*
X2182710Y1507799D02*
X2197000D01*
X2187879Y1506899D02*
X2197000D01*
X2189997Y1505999D02*
X2197000D01*
X2191547Y1505099D02*
X2197000D01*
X2192790Y1504199D02*
X2197000D01*
X2193826Y1503299D02*
X2197000D01*
X2194709Y1502399D02*
X2197000D01*
X2195471Y1501499D02*
X2197000D01*
X2196138Y1500599D02*
X2196862D01*
X2013500Y1507799D02*
X2182290D01*
X2013500Y1506899D02*
X2177121D01*
X2013500Y1505999D02*
X2175003D01*
X2013500Y1505099D02*
X2173453D01*
X2013510Y1477199D02*
X2173346D01*
X2013500Y1478099D02*
X2172602D01*
X2013500Y1504199D02*
X2172210D01*
X2013500Y1478999D02*
X2171503D01*
X2013500Y1503299D02*
X2171174D01*
X2013500Y1479899D02*
X2170573D01*
X2013500Y1502399D02*
X2170291D01*
X2013500Y1480799D02*
X2169773D01*
X2013500Y1501499D02*
X2169529D01*
X2013500Y1481699D02*
X2169081D01*
X2013500Y1500599D02*
X2168870D01*
X2013500Y1482599D02*
X2168481D01*
X2013500Y1499699D02*
X2168297D01*
X2013500Y1483499D02*
X2167961D01*
X2013500Y1498799D02*
X2167802D01*
X2013500Y1484399D02*
X2167513D01*
X2013500Y1497899D02*
X2167377D01*
X2013500Y1485299D02*
X2167130D01*
X2013500Y1496999D02*
X2167015D01*
X2013500Y1486199D02*
X2166808D01*
X2013500Y1496099D02*
X2166713D01*
X2013500Y1487099D02*
X2166544D01*
X2013500Y1495199D02*
X2166467D01*
X2013500Y1610399D02*
X2166465D01*
X2013500Y1487999D02*
X2166334D01*
X2013500Y1494299D02*
X2166275D01*
X2013500Y1488899D02*
X2166176D01*
X2013500Y1493399D02*
X2166134D01*
X2013500Y1489799D02*
X2166068D01*
X2013500Y1492499D02*
X2166044D01*
X2013500Y1490699D02*
X2166011D01*
X2013500Y1491599D02*
X2166003D01*
X2101089Y1631099D02*
X2166000D01*
X2100197Y1630199D02*
X2166000D01*
X2099305Y1629299D02*
X2166000D01*
X2098413Y1628399D02*
X2166000D01*
X2097521Y1627499D02*
X2166000D01*
X2096629Y1626599D02*
X2166000D01*
X1981093Y1625699D02*
X2166000D01*
X1981388Y1624799D02*
X2166000D01*
X1981499Y1623899D02*
X2166000D01*
X1981428Y1622999D02*
X2166000D01*
X1981166Y1622099D02*
X2166000D01*
X1980672Y1621199D02*
X2166000D01*
X2002853Y1620299D02*
X2166000D01*
X2003058Y1619399D02*
X2166000D01*
X2101981Y1631999D02*
X2165959D01*
X2012567Y1618499D02*
X2165673D01*
X2013500Y1611299D02*
X2165586D01*
X2013367Y1617599D02*
X2165500D01*
X2013670Y1616699D02*
X2165500D01*
X2013653Y1615799D02*
X2165500D01*
X2013500Y1614899D02*
X2165500D01*
X2013500Y1613999D02*
X2165500D01*
X2013500Y1613099D02*
X2165500D01*
X2013500Y1612199D02*
X2165500D01*
X2110008Y1640099D02*
X2162749D01*
X2102872Y1632899D02*
X2162301D01*
X2109116Y1639199D02*
X2162054D01*
X2108224Y1638299D02*
X2162000D01*
X2107332Y1637399D02*
X2162000D01*
X2106440Y1636499D02*
X2162000D01*
X2105548Y1635599D02*
X2162000D01*
X2104656Y1634699D02*
X2162000D01*
X2103764Y1633799D02*
X2162000D01*
X2009111Y1618499D02*
X2009389D01*
X2005611D02*
X2005889D01*
X1980500Y1620299D02*
X1993147D01*
X1985608Y1614899D02*
X1993047D01*
X1986508Y1613999D02*
X1993047D01*
X1984708Y1615799D02*
X1992968D01*
X1981108Y1619399D02*
X1992947D01*
X1982008Y1618499D02*
X1992947D01*
X1982908Y1617599D02*
X1992947D01*
X1983808Y1616699D02*
X1992947D01*
X2195547Y1746199D02*
X2197000D01*
X2194797Y1745299D02*
X2197000D01*
X2193928Y1744399D02*
X2197000D01*
X2192910Y1743499D02*
X2197000D01*
X2191694Y1742599D02*
X2197000D01*
X2190185Y1741699D02*
X2197000D01*
X2188153Y1740799D02*
X2197000D01*
X2184302Y1739899D02*
X2197000D01*
X1998500Y1738999D02*
X2197000D01*
X1998500Y1738099D02*
X2197000D01*
X1998500Y1737199D02*
X2197000D01*
X1998500Y1736299D02*
X2197000D01*
X1998500Y1735399D02*
X2197000D01*
X1998500Y1734499D02*
X2197000D01*
X1998500Y1733599D02*
X2197000D01*
X1998500Y1732699D02*
X2197000D01*
X1998500Y1731799D02*
X2197000D01*
X1998500Y1730899D02*
X2197000D01*
X1998500Y1729999D02*
X2197000D01*
X1998500Y1729099D02*
X2197000D01*
X1998500Y1728199D02*
X2197000D01*
X1998500Y1727299D02*
X2197000D01*
X1998500Y1726399D02*
X2197000D01*
X1998500Y1725499D02*
X2197000D01*
X1998500Y1724599D02*
X2197000D01*
X1998500Y1723699D02*
X2197000D01*
X1998500Y1722799D02*
X2197000D01*
X1998500Y1721899D02*
X2197000D01*
X1998500Y1720999D02*
X2197000D01*
X1998500Y1720099D02*
X2197000D01*
X1998500Y1719199D02*
X2197000D01*
X1998500Y1718299D02*
X2197000D01*
X1998500Y1717399D02*
X2197000D01*
X1998500Y1716499D02*
X2197000D01*
X1998500Y1715599D02*
X2197000D01*
X1998500Y1714699D02*
X2197000D01*
X1998500Y1713799D02*
X2197000D01*
X1998500Y1712899D02*
X2197000D01*
X1998500Y1711999D02*
X2197000D01*
X1998500Y1711099D02*
X2197000D01*
X1998500Y1710199D02*
X2197000D01*
X1998500Y1709299D02*
X2197000D01*
X1998500Y1708399D02*
X2197000D01*
X1998500Y1707499D02*
X2197000D01*
X1998500Y1706599D02*
X2197000D01*
X1998500Y1705699D02*
X2197000D01*
X1998500Y1704799D02*
X2197000D01*
X1998500Y1703899D02*
X2197000D01*
X1998500Y1702999D02*
X2197000D01*
X1998500Y1702099D02*
X2197000D01*
X1998500Y1701199D02*
X2197000D01*
X1998500Y1700299D02*
X2197000D01*
X1998500Y1699399D02*
X2197000D01*
X1998500Y1698499D02*
X2197000D01*
X1998500Y1697599D02*
X2197000D01*
X1998500Y1696699D02*
X2197000D01*
X1998500Y1695799D02*
X2197000D01*
X1998500Y1694899D02*
X2197000D01*
X1998500Y1693999D02*
X2197000D01*
X1998500Y1693099D02*
X2197000D01*
X1998500Y1692199D02*
X2197000D01*
X1998500Y1691299D02*
X2197000D01*
X1998500Y1690399D02*
X2197000D01*
X1998500Y1689499D02*
X2197000D01*
X1998500Y1688599D02*
X2197000D01*
X1998500Y1687699D02*
X2197000D01*
X1998500Y1686799D02*
X2197000D01*
X1998500Y1685899D02*
X2197000D01*
X1998500Y1684999D02*
X2197000D01*
X1998500Y1684099D02*
X2197000D01*
X1998500Y1683199D02*
X2197000D01*
X1998500Y1682299D02*
X2197000D01*
X1998500Y1681399D02*
X2197000D01*
X1998500Y1680499D02*
X2197000D01*
X1998500Y1679599D02*
X2197000D01*
X1998500Y1678699D02*
X2197000D01*
X1998500Y1677799D02*
X2197000D01*
X1998500Y1676899D02*
X2197000D01*
X1998500Y1675999D02*
X2197000D01*
X1998500Y1675099D02*
X2197000D01*
X1998500Y1674199D02*
X2197000D01*
X1998500Y1673299D02*
X2197000D01*
X1998500Y1672399D02*
X2197000D01*
X1998500Y1671499D02*
X2197000D01*
X1998500Y1670599D02*
X2197000D01*
X1998500Y1669699D02*
X2197000D01*
X1998500Y1668799D02*
X2197000D01*
X1998500Y1667899D02*
X2197000D01*
X1998500Y1666999D02*
X2197000D01*
X1998500Y1666099D02*
X2197000D01*
X1998500Y1665199D02*
X2197000D01*
X1998500Y1664299D02*
X2197000D01*
X1998500Y1663399D02*
X2197000D01*
X1998500Y1662499D02*
X2197000D01*
X1998500Y1661599D02*
X2197000D01*
X1998500Y1660699D02*
X2197000D01*
X1998500Y1659799D02*
X2197000D01*
X1998500Y1658899D02*
X2197000D01*
X1998500Y1657999D02*
X2197000D01*
X1998500Y1657099D02*
X2197000D01*
X2196267Y1747099D02*
X2196733D01*
X1998500Y1739899D02*
X2180698D01*
X1998500Y1740799D02*
X2176847D01*
X1998500Y1741699D02*
X2174815D01*
X1998541Y1770499D02*
X2173315D01*
X1998500Y1742599D02*
X2173306D01*
X1998500Y1769599D02*
X2172733D01*
X1998500Y1743499D02*
X2172090D01*
X2160001Y1768699D02*
X2171613D01*
X1998500Y1744399D02*
X2171072D01*
X2161276Y1767799D02*
X2170667D01*
X1998500Y1745299D02*
X2170203D01*
X2162044Y1766899D02*
X2169854D01*
X1998500Y1746199D02*
X2169453D01*
X2162541Y1765999D02*
X2169151D01*
X1998500Y1747099D02*
X2168804D01*
X2162844Y1765099D02*
X2168542D01*
X1998500Y1747999D02*
X2168240D01*
X2162986Y1764199D02*
X2168013D01*
X1998500Y1748899D02*
X2167753D01*
X2162977Y1763299D02*
X2167558D01*
X1998500Y1749799D02*
X2167335D01*
X2162819Y1762399D02*
X2167168D01*
X1998500Y1750699D02*
X2166980D01*
X2162495Y1761499D02*
X2166840D01*
X1998500Y1751599D02*
X2166684D01*
X2161972Y1760599D02*
X2166570D01*
X1998500Y1752499D02*
X2166444D01*
X2161165Y1759699D02*
X2166354D01*
X1998500Y1753399D02*
X2166257D01*
X2159788Y1758799D02*
X2166190D01*
X1998500Y1754299D02*
X2166122D01*
X1998500Y1757899D02*
X2166078D01*
X1998500Y1755199D02*
X2166037D01*
X1998500Y1756999D02*
X2166015D01*
X1998500Y1756099D02*
X2166001D01*
X1998500Y1758799D02*
X2155212D01*
X1998500Y1768699D02*
X2154999D01*
X1998500Y1759699D02*
X2153835D01*
X1998500Y1767799D02*
X2153724D01*
X1998500Y1760599D02*
X2153028D01*
X1998500Y1766899D02*
X2152956D01*
X1998500Y1761499D02*
X2152505D01*
X1998500Y1765999D02*
X2152459D01*
X1998500Y1762399D02*
X2152181D01*
X1998500Y1765099D02*
X2152156D01*
X1998500Y1763299D02*
X2152023D01*
X1998500Y1764199D02*
X2152014D01*
X1998500Y1656199D02*
X2122692D01*
X1998500Y1655299D02*
X2121792D01*
X1998500Y1654399D02*
X2120892D01*
X1998500Y1653499D02*
X2119992D01*
X1998500Y1652599D02*
X2119092D01*
X1998500Y1651699D02*
X2118192D01*
X1998500Y1650799D02*
X2117292D01*
X1998500Y1649899D02*
X2116392D01*
X1998601Y1648999D02*
X2115492D01*
X1999125Y1648099D02*
X2114592D01*
X1999409Y1647199D02*
X2113692D01*
X1999500Y1646299D02*
X2112792D01*
X1999409Y1645399D02*
X2111892D01*
X1999124Y1644499D02*
X2110992D01*
X1998599Y1643599D02*
X2110092D01*
X1998500Y1642699D02*
X2109192D01*
X1998733Y1641799D02*
X2108292D01*
X1998998Y1640899D02*
X2107392D01*
X1999000Y1639999D02*
X2106492D01*
X1999002Y1639099D02*
X2105592D01*
X1999003Y1638199D02*
X2104692D01*
X1999005Y1637299D02*
X2103792D01*
X1999006Y1636399D02*
X2102892D01*
X1999007Y1635499D02*
X2101992D01*
X1999009Y1634599D02*
X2101092D01*
X1999010Y1633699D02*
X2100192D01*
X2002384Y1632799D02*
X2099292D01*
X2003012Y1631899D02*
X2098392D01*
X2003053Y1630999D02*
X2097492D01*
X2003053Y1630099D02*
X2096592D01*
X2003053Y1629199D02*
X2095692D01*
G54D22*
X2170000Y1614800D02*
Y1636300D01*
Y1661300D02*
Y1693800D01*
G54D26*
X1800000Y1473800D02*
X2200000D01*
Y1773800*
X1800000*
Y1473800*
G54D28*
X1993000Y1603300D02*
Y1603800D01*
X1996300Y1607300*
G54D32*
X2105000Y1648800D03*
G54D77*
X1972000Y1615800D03*
X1969000Y1612800D03*
Y1606800D03*
Y1609800D03*
Y1615800D03*
X1972000Y1606800D03*
Y1609800D03*
Y1612800D03*
X2004000Y1606800D03*
X1996300Y1607300D03*
X1988000Y1599800D03*
X1998000Y1603800D03*
X1992500Y1613800D03*
X1988500Y1617300D03*
X1994000Y1609800D03*
X1991500Y1617300D03*
X2004000Y1616300D03*
X2011000D03*
X2007000Y1610800D03*
X2010000D03*
X2007000Y1606800D03*
X2016000Y1611800D03*
X2024000D03*
X2010000Y1606800D03*
X2020000Y1611800D03*
X2007500Y1616300D03*
X1982000Y1621300D03*
X1977000Y1621800D03*
X1985000Y1621300D03*
X1989000Y1638800D03*
X1991500Y1621800D03*
X1989000Y1625300D03*
X2001000Y1633800D03*
X1991500Y1625300D03*
X1991000Y1632800D03*
Y1635800D03*
X1989000Y1621800D03*
X1993000Y1629800D03*
X2024000Y1637800D03*
X2013000D03*
Y1634800D03*
Y1631800D03*
X1981000Y1645800D03*
X1984000Y1641800D03*
Y1645800D03*
X1978000D03*
X1981000Y1641800D03*
X1978000D03*
X1987000Y1645800D03*
X1995500Y1642300D03*
X1987000Y1641800D03*
X1990000D03*
X2001000Y1650800D03*
X1990000Y1645800D03*
X2001000Y1646800D03*
X2008000Y1642800D03*
X2024000D03*
X2011000Y1646800D03*
X2015000Y1650800D03*
Y1646800D03*
X2023000Y1650800D03*
X2019000D03*
X2011000D03*
X2006000D03*
Y1646800D03*
X2019000D03*
X2023000D03*
X2013000Y1640800D03*
G54D95*
G54D197*
X2009000Y1632300D03*
Y1624300D03*
G54D219*
X1820500Y1623800D03*
G54D304*
X1838200D03*
G54D330*
X2019000Y1640300D03*
Y1622300D03*
G54D332*
X2170000Y1661300D03*
Y1636300D03*
G54D334*
Y1614800D03*
G54D335*
Y1602800D03*
G54D336*
X1844500Y1646300D03*
X1820500Y1601300D03*
X1844500D03*
G54D351*
X1995047Y1617800D03*
X1997016D03*
X1998984D03*
X2000953D03*
Y1629800D03*
X1998984D03*
X1997016D03*
X1995047D03*
G54D352*
X1998000Y1623800D03*
G54D353*
X1878000Y1632800D03*
Y1614800D03*
G54D354*
X1817500Y1756300D03*
Y1491300D03*
X2182500D03*
Y1756300D03*
G74*
X0Y0D02*
M02*
