*
*
G04 PADS 9.5 Build Number: 522968 generated Gerber (RS-274-X) file*
G04 PC Version=2.1*
*
%IN "DC1902B-1.pcb"*%
*
%MOIN*%
*
%FSLAX35Y35*%
*
*
*
*
G04 PC Standard Apertures*
*
*
G04 Thermal Relief Aperture macro.*
%AMTER*
1,1,$1,0,0*
1,0,$1-$2,0,0*
21,0,$3,$4,0,0,45*
21,0,$3,$4,0,0,135*
%
*
*
G04 Annular Aperture macro.*
%AMANN*
1,1,$1,0,0*
1,0,$2,0,0*
%
*
*
G04 Odd Aperture macro.*
%AMODD*
1,1,$1,0,0*
1,0,$1-0.005,0,0*
%
*
*
G04 PC Custom Aperture Macros*
*
*
*
*
*
*
G04 PC Aperture Table*
*
%ADD019C,0.01*%
%ADD021C,0.015*%
%ADD026C,0.008*%
%ADD095C,0.001*%
%ADD370C,0.002*%
*
*
*
*
G04 PC Circuitry*
G04 Layer Name DC1902B-1.pcb - circuitry*
%LPD*%
*
*
G04 PC Custom Flashes*
G04 Layer Name DC1902B-1.pcb - flashes*
%LPD*%
*
*
G04 PC Circuitry*
G04 Layer Name DC1902B-1.pcb - circuitry*
%LPD*%
*
G54D19*
G01X1996000Y1610300D02*
X1993500D01*
Y1625300*
X1996000*
X2006000Y1610300D02*
X2006500D01*
X2008500Y1612300*
Y1625300*
X2006000*
X1993500Y1640800D02*
Y1643300D01*
X2008500*
Y1640800*
X1993500Y1630800D02*
Y1630300D01*
X1995500Y1628300*
X2008500*
Y1630800*
X1978000Y1623300D02*
X1975500D01*
Y1638300*
X1978000*
X1988000Y1623300D02*
X1988500D01*
X1990500Y1625300*
Y1638300*
X1988000*
X1990500Y1606800D02*
Y1604300D01*
X1975500*
Y1606800*
X1990500Y1616800D02*
Y1617300D01*
X1988500Y1619300*
X1975500*
Y1616800*
X2139845Y1648800D02*
G75*
G03X2139845I-25000J0D01*
G01X2016409Y1622550D02*
X2016773Y1622300D01*
X2017136Y1621800*
X2017318Y1621300*
X2017500Y1620550*
Y1619300*
X2017318Y1618550*
X2017136Y1618050*
X2016773Y1617550*
X2016409Y1617300*
X2015682*
X2015318Y1617550*
X2014955Y1618050*
X2014773Y1618550*
X2014591Y1619300*
Y1620550*
X2014773Y1621300*
X2014955Y1621800*
X2015318Y1622300*
X2015682Y1622550*
X2016409*
X2015864Y1618300D02*
X2014773Y1616800D01*
X2012955Y1621550D02*
X2012591Y1621800D01*
X2012045Y1622550*
Y1617300*
X2016909Y1630050D02*
X2017273Y1629800D01*
X2017636Y1629300*
X2017818Y1628800*
X2018000Y1628050*
Y1626800*
X2017818Y1626050*
X2017636Y1625550*
X2017273Y1625050*
X2016909Y1624800*
X2016182*
X2015818Y1625050*
X2015455Y1625550*
X2015273Y1626050*
X2015091Y1626800*
Y1628050*
X2015273Y1628800*
X2015455Y1629300*
X2015818Y1629800*
X2016182Y1630050*
X2016909*
X2016364Y1625800D02*
X2015273Y1624300D01*
X2013273Y1628800D02*
Y1629050D01*
X2013091Y1629550*
X2012909Y1629800*
X2012545Y1630050*
X2011818*
X2011455Y1629800*
X2011273Y1629550*
X2011091Y1629050*
Y1628550*
X2011273Y1628050*
X2011636Y1627300*
X2013455Y1624800*
X2010909*
X1971909Y1634050D02*
X1972273Y1633800D01*
X1972636Y1633300*
X1972818Y1632800*
X1973000Y1632050*
Y1630800*
X1972818Y1630050*
X1972636Y1629550*
X1972273Y1629050*
X1971909Y1628800*
X1971182*
X1970818Y1629050*
X1970455Y1629550*
X1970273Y1630050*
X1970091Y1630800*
Y1632050*
X1970273Y1632800*
X1970455Y1633300*
X1970818Y1633800*
X1971182Y1634050*
X1971909*
X1971364Y1629800D02*
X1970273Y1628300D01*
X1968091Y1634050D02*
X1966091D01*
X1967182Y1632050*
X1966636*
X1966273Y1631800*
X1966091Y1631550*
X1965909Y1630800*
Y1630300*
X1966091Y1629550*
X1966455Y1629050*
X1967000Y1628800*
X1967545*
X1968091Y1629050*
X1968273Y1629300*
X1968455Y1629800*
X1971909Y1623550D02*
X1972273Y1623300D01*
X1972636Y1622800*
X1972818Y1622300*
X1973000Y1621550*
Y1620300*
X1972818Y1619550*
X1972636Y1619050*
X1972273Y1618550*
X1971909Y1618300*
X1971182*
X1970818Y1618550*
X1970455Y1619050*
X1970273Y1619550*
X1970091Y1620300*
Y1621550*
X1970273Y1622300*
X1970455Y1622800*
X1970818Y1623300*
X1971182Y1623550*
X1971909*
X1971364Y1619300D02*
X1970273Y1617800D01*
X1966636Y1623550D02*
X1968455Y1620050D01*
X1965727*
X1966636Y1623550D02*
Y1618300D01*
X2115591Y1682800D02*
X2115818Y1683425D01*
X2116273Y1684050*
X2116727Y1684362*
X2116727D02*
X2117636D01*
X2117636D02*
X2118091Y1684050D01*
X2118545Y1683425*
X2118773Y1682800*
X2119000Y1681862*
X2119000D02*
Y1680300D01*
X2118773Y1679362*
X2118773D02*
X2118545Y1678737D01*
X2118545D02*
X2118091Y1678112D01*
X2118091D02*
X2117636Y1677800D01*
X2116727*
X2116273Y1678112*
X2116273D02*
X2115818Y1678737D01*
X2115818D02*
X2115591Y1679362D01*
X2113318Y1682800D02*
Y1683112D01*
X2113318D02*
X2113091Y1683737D01*
X2113091D02*
X2112864Y1684050D01*
X2112409Y1684362*
X2112409D02*
X2111500D01*
X2111500D02*
X2111045Y1684050D01*
X2110818Y1683737*
X2110818D02*
X2110591Y1683112D01*
X2110591D02*
Y1682487D01*
X2110591D02*
X2110818Y1681862D01*
X2110818D02*
X2111273Y1680925D01*
X2113545Y1677800*
X2110364*
X1840000Y1457863D02*
Y1451300D01*
X1842727*
X1844773Y1457863D02*
Y1451300D01*
X1846818Y1457863D02*
Y1451300D01*
Y1457863D02*
X1850000Y1451300D01*
Y1457863D02*
Y1451300D01*
X1852045Y1457863D02*
Y1451300D01*
Y1457863D02*
X1855000D01*
X1852045Y1454738D02*
X1853864D01*
X1852045Y1451300D02*
X1855000D01*
X1858864Y1457863D02*
X1857045Y1451300D01*
X1858864Y1457863D02*
X1860682Y1451300D01*
X1857727Y1453488D02*
X1860000D01*
X1862727Y1457863D02*
Y1451300D01*
Y1457863D02*
X1864773D01*
X1864773D02*
X1865455Y1457550D01*
X1865682Y1457238*
X1865682D02*
X1865909Y1456613D01*
X1865909D02*
Y1455988D01*
X1865909D02*
X1865682Y1455363D01*
X1865682D02*
X1865455Y1455050D01*
X1864773Y1454738*
X1864773D02*
X1862727D01*
X1864318D02*
X1865909Y1451300D01*
X1874773Y1457863D02*
Y1451300D01*
X1873182Y1457863D02*
X1876364D01*
X1878409D02*
Y1451300D01*
Y1457863D02*
X1881364D01*
X1878409Y1454738D02*
X1880227D01*
X1878409Y1451300D02*
X1881364D01*
X1886818Y1456300D02*
X1886591Y1456925D01*
X1886136Y1457550*
X1885682Y1457863*
X1885682D02*
X1884773D01*
X1884773D02*
X1884318Y1457550D01*
X1883864Y1456925*
X1883636Y1456300*
X1883409Y1455363*
X1883409D02*
Y1453800D01*
X1883636Y1452863*
X1883636D02*
X1883864Y1452238D01*
X1883864D02*
X1884318Y1451613D01*
X1884318D02*
X1884773Y1451300D01*
X1885682*
X1886136Y1451613*
X1886136D02*
X1886591Y1452238D01*
X1886591D02*
X1886818Y1452863D01*
X1888864Y1457863D02*
Y1451300D01*
X1892045Y1457863D02*
Y1451300D01*
X1888864Y1454738D02*
X1892045D01*
X1894091Y1457863D02*
Y1451300D01*
Y1457863D02*
X1897273Y1451300D01*
Y1457863D02*
Y1451300D01*
X1900682Y1457863D02*
X1900227Y1457550D01*
X1899773Y1456925*
X1899545Y1456300*
X1899318Y1455363*
X1899318D02*
Y1453800D01*
X1899545Y1452863*
X1899545D02*
X1899773Y1452238D01*
X1899773D02*
X1900227Y1451613D01*
X1900227D02*
X1900682Y1451300D01*
X1901591*
X1902045Y1451613*
X1902045D02*
X1902500Y1452238D01*
X1902500D02*
X1902727Y1452863D01*
X1902727D02*
X1902955Y1453800D01*
Y1455363*
X1902955D02*
X1902727Y1456300D01*
X1902500Y1456925*
X1902045Y1457550*
X1901591Y1457863*
X1901591D02*
X1900682D01*
X1905000D02*
Y1451300D01*
X1907727*
X1911136Y1457863D02*
X1910682Y1457550D01*
X1910227Y1456925*
X1910000Y1456300*
X1909773Y1455363*
X1909773D02*
Y1453800D01*
X1910000Y1452863*
X1910000D02*
X1910227Y1452238D01*
X1910227D02*
X1910682Y1451613D01*
X1910682D02*
X1911136Y1451300D01*
X1912045*
X1912500Y1451613*
X1912500D02*
X1912955Y1452238D01*
X1912955D02*
X1913182Y1452863D01*
X1913182D02*
X1913409Y1453800D01*
Y1455363*
X1913409D02*
X1913182Y1456300D01*
X1912955Y1456925*
X1912500Y1457550*
X1912045Y1457863*
X1912045D02*
X1911136D01*
X1918864Y1456300D02*
X1918636Y1456925D01*
X1918182Y1457550*
X1917727Y1457863*
X1917727D02*
X1916818D01*
X1916818D02*
X1916364Y1457550D01*
X1915909Y1456925*
X1915682Y1456300*
X1915455Y1455363*
X1915455D02*
Y1453800D01*
X1915682Y1452863*
X1915682D02*
X1915909Y1452238D01*
X1915909D02*
X1916364Y1451613D01*
X1916364D02*
X1916818Y1451300D01*
X1917727*
X1918182Y1451613*
X1918182D02*
X1918636Y1452238D01*
X1918636D02*
X1918864Y1452863D01*
X1918864D02*
Y1453800D01*
X1917727D02*
X1918864D01*
X1920909Y1457863D02*
X1922727Y1454738D01*
X1922727D02*
Y1451300D01*
X1924545Y1457863D02*
X1922727Y1454738D01*
X1840000Y1445363D02*
Y1438800D01*
Y1445363D02*
X1841591D01*
X1841591D02*
X1842273Y1445050D01*
X1842727Y1444425*
X1842955Y1443800*
X1843182Y1442863*
X1843182D02*
Y1441300D01*
X1842955Y1440363*
X1842955D02*
X1842727Y1439738D01*
X1842727D02*
X1842273Y1439113D01*
X1842273D02*
X1841591Y1438800D01*
X1840000*
X1848636Y1443800D02*
X1848409Y1444425D01*
X1847955Y1445050*
X1847500Y1445363*
X1847500D02*
X1846591D01*
X1846591D02*
X1846136Y1445050D01*
X1845682Y1444425*
X1845455Y1443800*
X1845227Y1442863*
X1845227D02*
Y1441300D01*
X1845455Y1440363*
X1845455D02*
X1845682Y1439738D01*
X1845682D02*
X1846136Y1439113D01*
X1846136D02*
X1846591Y1438800D01*
X1847500*
X1847955Y1439113*
X1847955D02*
X1848409Y1439738D01*
X1848409D02*
X1848636Y1440363D01*
X1850682Y1444113D02*
X1851136Y1444425D01*
X1851818Y1445363*
X1851818D02*
Y1438800D01*
X1856818Y1443175D02*
X1856591Y1442238D01*
X1856591D02*
X1856136Y1441613D01*
X1856136D02*
X1855455Y1441300D01*
X1855227*
X1854545Y1441613*
X1854545D02*
X1854091Y1442238D01*
X1854091D02*
X1853864Y1443175D01*
Y1443488*
X1853864D02*
X1854091Y1444425D01*
X1854545Y1445050*
X1855227Y1445363*
X1855227D02*
X1855455D01*
X1855455D02*
X1856136Y1445050D01*
X1856591Y1444425*
X1856818Y1443175*
Y1441613*
X1856818D02*
X1856591Y1440050D01*
X1856136Y1439113*
X1856136D02*
X1855455Y1438800D01*
X1855000*
X1854318Y1439113*
X1854318D02*
X1854091Y1439738D01*
X1860227Y1445363D02*
X1859545Y1445050D01*
X1859091Y1444113*
X1859091D02*
X1858864Y1442550D01*
Y1441613*
X1858864D02*
X1859091Y1440050D01*
X1859545Y1439113*
X1859545D02*
X1860227Y1438800D01*
X1860682*
X1861364Y1439113*
X1861364D02*
X1861818Y1440050D01*
X1862045Y1441613*
X1862045D02*
Y1442550D01*
X1861818Y1444113*
X1861818D02*
X1861364Y1445050D01*
X1860682Y1445363*
X1860682D02*
X1860227D01*
X1864318Y1443800D02*
Y1444113D01*
X1864318D02*
X1864545Y1444738D01*
X1864545D02*
X1864773Y1445050D01*
X1865227Y1445363*
X1865227D02*
X1866136D01*
X1866136D02*
X1866591Y1445050D01*
X1866818Y1444738*
X1866818D02*
X1867045Y1444113D01*
X1867045D02*
Y1443488D01*
X1867045D02*
X1866818Y1442863D01*
X1866818D02*
X1866364Y1441925D01*
X1864091Y1438800*
X1867273*
X1869318Y1445363D02*
Y1438800D01*
Y1445363D02*
X1871364D01*
X1871364D02*
X1872045Y1445050D01*
X1872273Y1444738*
X1872273D02*
X1872500Y1444113D01*
X1872500D02*
Y1443488D01*
X1872500D02*
X1872273Y1442863D01*
X1872273D02*
X1872045Y1442550D01*
X1871364Y1442238*
X1869318D02*
X1871364D01*
X1871364D02*
X1872045Y1441925D01*
X1872273Y1441613*
X1872273D02*
X1872500Y1440988D01*
X1872500D02*
Y1440050D01*
X1872273Y1439425*
X1872045Y1439113*
X1872045D02*
X1871364Y1438800D01*
X1869318*
X1874545Y1441613D02*
X1878636D01*
X1880682Y1444113D02*
X1881136Y1444425D01*
X1881818Y1445363*
X1881818D02*
Y1438800D01*
X1915227Y1445363D02*
Y1438800D01*
X1917955*
X1921591Y1445363D02*
Y1438800D01*
X1920000Y1445363D02*
X1923182D01*
X1927500D02*
X1925227Y1440988D01*
X1925227D02*
X1928636D01*
X1927500Y1445363D02*
Y1438800D01*
X1931136Y1445363D02*
X1933636D01*
X1933636D02*
X1932273Y1442863D01*
X1932273D02*
X1932955D01*
X1932955D02*
X1933409Y1442550D01*
X1933636Y1442238*
X1933636D02*
X1933864Y1441300D01*
Y1440675*
X1933636Y1439738*
X1933636D02*
X1933182Y1439113D01*
X1933182D02*
X1932500Y1438800D01*
X1931818*
X1931136Y1439113*
X1931136D02*
X1930909Y1439425D01*
X1930682Y1440050*
X1936136Y1443800D02*
Y1444113D01*
X1936136D02*
X1936364Y1444738D01*
X1936364D02*
X1936591Y1445050D01*
X1937045Y1445363*
X1937045D02*
X1937955D01*
X1937955D02*
X1938409Y1445050D01*
X1938636Y1444738*
X1938636D02*
X1938864Y1444113D01*
X1938864D02*
Y1443488D01*
X1938864D02*
X1938636Y1442863D01*
X1938636D02*
X1938182Y1441925D01*
X1935909Y1438800*
X1939091*
X1942500Y1445363D02*
X1941818Y1445050D01*
X1941364Y1444113*
X1941364D02*
X1941136Y1442550D01*
Y1441613*
X1941136D02*
X1941364Y1440050D01*
X1941818Y1439113*
X1941818D02*
X1942500Y1438800D01*
X1942955*
X1943636Y1439113*
X1943636D02*
X1944091Y1440050D01*
X1944318Y1441613*
X1944318D02*
Y1442550D01*
X1944091Y1444113*
X1944091D02*
X1943636Y1445050D01*
X1942955Y1445363*
X1942955D02*
X1942500D01*
X1946364D02*
Y1438800D01*
X1948409Y1445363D02*
Y1438800D01*
Y1445363D02*
X1950000D01*
X1950000D02*
X1950682Y1445050D01*
X1951136Y1444425*
X1951364Y1443800*
X1951591Y1442863*
X1951591D02*
Y1441300D01*
X1951364Y1440363*
X1951364D02*
X1951136Y1439738D01*
X1951136D02*
X1950682Y1439113D01*
X1950682D02*
X1950000Y1438800D01*
X1948409*
X1953636Y1445363D02*
Y1438800D01*
Y1445363D02*
X1955227D01*
X1955227D02*
X1955909Y1445050D01*
X1956364Y1444425*
X1956591Y1443800*
X1956818Y1442863*
X1956818D02*
Y1441300D01*
X1956591Y1440363*
X1956591D02*
X1956364Y1439738D01*
X1956364D02*
X1955909Y1439113D01*
X1955909D02*
X1955227Y1438800D01*
X1953636*
X1997500Y1445363D02*
Y1438800D01*
Y1445363D02*
X1999091D01*
X1999091D02*
X1999773Y1445050D01*
X2000227Y1444425*
X2000455Y1443800*
X2000682Y1442863*
X2000682D02*
Y1441300D01*
X2000455Y1440363*
X2000455D02*
X2000227Y1439738D01*
X2000227D02*
X1999773Y1439113D01*
X1999773D02*
X1999091Y1438800D01*
X1997500*
X2004545Y1445363D02*
X2002727Y1438800D01*
X2004545Y1445363D02*
X2006364Y1438800D01*
X2003409Y1440988D02*
X2005682D01*
X2010000Y1445363D02*
Y1438800D01*
X2008409Y1445363D02*
X2011591D01*
X2013636D02*
Y1438800D01*
Y1445363D02*
X2016591D01*
X2013636Y1442238D02*
X2015455D01*
X2013636Y1438800D02*
X2016591D01*
X2018864Y1443175D02*
X2018636Y1442863D01*
X2018636D02*
X2018864Y1442550D01*
X2019091Y1442863*
X2019091D02*
X2018864Y1443175D01*
Y1439425D02*
X2018636Y1439113D01*
X2018636D02*
X2018864Y1438800D01*
X2019091Y1439113*
X2019091D02*
X2018864Y1439425D01*
X2027727Y1445363D02*
X2027045Y1445050D01*
X2026591Y1444113*
X2026591D02*
X2026364Y1442550D01*
Y1441613*
X2026364D02*
X2026591Y1440050D01*
X2027045Y1439113*
X2027045D02*
X2027727Y1438800D01*
X2028182*
X2028864Y1439113*
X2028864D02*
X2029318Y1440050D01*
X2029545Y1441613*
X2029545D02*
Y1442550D01*
X2029318Y1444113*
X2029318D02*
X2028864Y1445050D01*
X2028182Y1445363*
X2028182D02*
X2027727D01*
X2034545D02*
X2032273D01*
X2032273D02*
X2032045Y1442550D01*
X2032273Y1442863*
X2032273D02*
X2032955Y1443175D01*
X2033636*
X2034318Y1442863*
X2034318D02*
X2034773Y1442238D01*
X2034773D02*
X2035000Y1441300D01*
X2034773Y1440675*
X2034545Y1439738*
X2034545D02*
X2034091Y1439113D01*
X2034091D02*
X2033409Y1438800D01*
X2032727*
X2032045Y1439113*
X2032045D02*
X2031818Y1439425D01*
X2031591Y1440050*
X2037045Y1441613D02*
X2041136D01*
X2044545Y1445363D02*
X2043864Y1445050D01*
X2043409Y1444113*
X2043409D02*
X2043182Y1442550D01*
Y1441613*
X2043182D02*
X2043409Y1440050D01*
X2043864Y1439113*
X2043864D02*
X2044545Y1438800D01*
X2045000*
X2045682Y1439113*
X2045682D02*
X2046136Y1440050D01*
X2046364Y1441613*
X2046364D02*
Y1442550D01*
X2046136Y1444113*
X2046136D02*
X2045682Y1445050D01*
X2045000Y1445363*
X2045000D02*
X2044545D01*
X2048409Y1444113D02*
X2048864Y1444425D01*
X2049545Y1445363*
X2049545D02*
Y1438800D01*
X2051591Y1441613D02*
X2055682D01*
X2057727Y1444113D02*
X2058182Y1444425D01*
X2058864Y1445363*
X2058864D02*
Y1438800D01*
X2061364Y1445363D02*
X2063864D01*
X2063864D02*
X2062500Y1442863D01*
X2062500D02*
X2063182D01*
X2063182D02*
X2063636Y1442550D01*
X2063864Y1442238*
X2063864D02*
X2064091Y1441300D01*
Y1440675*
X2063864Y1439738*
X2063864D02*
X2063409Y1439113D01*
X2063409D02*
X2062727Y1438800D01*
X2062045*
X2061364Y1439113*
X2061364D02*
X2061136Y1439425D01*
X2060909Y1440050*
X1843409Y1431300D02*
X1843182Y1431925D01*
X1842727Y1432550*
X1842273Y1432863*
X1842273D02*
X1841364D01*
X1841364D02*
X1840909Y1432550D01*
X1840455Y1431925*
X1840227Y1431300*
X1840000Y1430363*
X1840000D02*
Y1428800D01*
X1840227Y1427863*
X1840227D02*
X1840455Y1427238D01*
X1840455D02*
X1840909Y1426613D01*
X1840909D02*
X1841364Y1426300D01*
X1842273*
X1842727Y1426613*
X1842727D02*
X1843182Y1427238D01*
X1843182D02*
X1843409Y1427863D01*
X1846818Y1432863D02*
X1846364Y1432550D01*
X1845909Y1431925*
X1845682Y1431300*
X1845455Y1430363*
X1845455D02*
Y1428800D01*
X1845682Y1427863*
X1845682D02*
X1845909Y1427238D01*
X1845909D02*
X1846364Y1426613D01*
X1846364D02*
X1846818Y1426300D01*
X1847727*
X1848182Y1426613*
X1848182D02*
X1848636Y1427238D01*
X1848636D02*
X1848864Y1427863D01*
X1848864D02*
X1849091Y1428800D01*
Y1430363*
X1849091D02*
X1848864Y1431300D01*
X1848636Y1431925*
X1848182Y1432550*
X1847727Y1432863*
X1847727D02*
X1846818D01*
X1851136D02*
Y1426300D01*
Y1432863D02*
X1852955Y1426300D01*
X1854773Y1432863D02*
X1852955Y1426300D01*
X1854773Y1432863D02*
Y1426300D01*
X1856818Y1432863D02*
Y1426300D01*
Y1432863D02*
X1858864D01*
X1858864D02*
X1859545Y1432550D01*
X1859773Y1432238*
X1859773D02*
X1860000Y1431613D01*
X1860000D02*
Y1430675D01*
X1859773Y1430050*
X1859545Y1429738*
X1859545D02*
X1858864Y1429425D01*
X1856818*
X1863864Y1432863D02*
X1862045Y1426300D01*
X1863864Y1432863D02*
X1865682Y1426300D01*
X1862727Y1428488D02*
X1865000D01*
X1871136Y1431300D02*
X1870909Y1431925D01*
X1870455Y1432550*
X1870000Y1432863*
X1870000D02*
X1869091D01*
X1869091D02*
X1868636Y1432550D01*
X1868182Y1431925*
X1867955Y1431300*
X1867727Y1430363*
X1867727D02*
Y1428800D01*
X1867955Y1427863*
X1867955D02*
X1868182Y1427238D01*
X1868182D02*
X1868636Y1426613D01*
X1868636D02*
X1869091Y1426300D01*
X1870000*
X1870455Y1426613*
X1870455D02*
X1870909Y1427238D01*
X1870909D02*
X1871136Y1427863D01*
X1874773Y1432863D02*
Y1426300D01*
X1873182Y1432863D02*
X1876364D01*
X1883636D02*
Y1426300D01*
X1885682Y1432863D02*
Y1426300D01*
Y1432863D02*
X1887273D01*
X1887273D02*
X1887955Y1432550D01*
X1888409Y1431925*
X1888636Y1431300*
X1888864Y1430363*
X1888864D02*
Y1428800D01*
X1888636Y1427863*
X1888636D02*
X1888409Y1427238D01*
X1888409D02*
X1887955Y1426613D01*
X1887955D02*
X1887273Y1426300D01*
X1885682*
X1890909Y1432863D02*
Y1426300D01*
Y1432863D02*
X1893864D01*
X1890909Y1429738D02*
X1892727D01*
X1890909Y1426300D02*
X1893864D01*
X1897727Y1432863D02*
X1895909Y1426300D01*
X1897727Y1432863D02*
X1899545Y1426300D01*
X1896591Y1428488D02*
X1898864D01*
X1901591Y1432863D02*
Y1426300D01*
X1904318*
X1911591Y1432863D02*
Y1426300D01*
Y1432863D02*
X1913182D01*
X1913182D02*
X1913864Y1432550D01*
X1914318Y1431925*
X1914545Y1431300*
X1914773Y1430363*
X1914773D02*
Y1428800D01*
X1914545Y1427863*
X1914545D02*
X1914318Y1427238D01*
X1914318D02*
X1913864Y1426613D01*
X1913864D02*
X1913182Y1426300D01*
X1911591*
X1916818Y1432863D02*
Y1426300D01*
X1920227Y1432863D02*
X1919773Y1432550D01*
X1919318Y1431925*
X1919091Y1431300*
X1918864Y1430363*
X1918864D02*
Y1428800D01*
X1919091Y1427863*
X1919091D02*
X1919318Y1427238D01*
X1919318D02*
X1919773Y1426613D01*
X1919773D02*
X1920227Y1426300D01*
X1921136*
X1921591Y1426613*
X1921591D02*
X1922045Y1427238D01*
X1922045D02*
X1922273Y1427863D01*
X1922273D02*
X1922500Y1428800D01*
Y1430363*
X1922500D02*
X1922273Y1431300D01*
X1922045Y1431925*
X1921591Y1432550*
X1921136Y1432863*
X1921136D02*
X1920227D01*
X1924545D02*
Y1426300D01*
Y1432863D02*
X1926136D01*
X1926136D02*
X1926818Y1432550D01*
X1927273Y1431925*
X1927500Y1431300*
X1927727Y1430363*
X1927727D02*
Y1428800D01*
X1927500Y1427863*
X1927500D02*
X1927273Y1427238D01*
X1927273D02*
X1926818Y1426613D01*
X1926818D02*
X1926136Y1426300D01*
X1924545*
X1929773Y1432863D02*
Y1426300D01*
Y1432863D02*
X1932727D01*
X1929773Y1429738D02*
X1931591D01*
X1929773Y1426300D02*
X1932727D01*
X1940000Y1432863D02*
Y1426300D01*
Y1432863D02*
X1942045D01*
X1942045D02*
X1942727Y1432550D01*
X1942955Y1432238*
X1942955D02*
X1943182Y1431613D01*
X1943182D02*
Y1430988D01*
X1943182D02*
X1942955Y1430363D01*
X1942955D02*
X1942727Y1430050D01*
X1942045Y1429738*
X1940000D02*
X1942045D01*
X1942045D02*
X1942727Y1429425D01*
X1942955Y1429113*
X1942955D02*
X1943182Y1428488D01*
X1943182D02*
Y1427550D01*
X1942955Y1426925*
X1942727Y1426613*
X1942727D02*
X1942045Y1426300D01*
X1940000*
X1945227Y1432863D02*
Y1426300D01*
Y1432863D02*
X1947273D01*
X1947273D02*
X1947955Y1432550D01*
X1948182Y1432238*
X1948182D02*
X1948409Y1431613D01*
X1948409D02*
Y1430988D01*
X1948409D02*
X1948182Y1430363D01*
X1948182D02*
X1947955Y1430050D01*
X1947273Y1429738*
X1947273D02*
X1945227D01*
X1946818D02*
X1948409Y1426300D01*
X1950455Y1432863D02*
Y1426300D01*
X1952500Y1432863D02*
Y1426300D01*
Y1432863D02*
X1954091D01*
X1954091D02*
X1954773Y1432550D01*
X1955227Y1431925*
X1955455Y1431300*
X1955682Y1430363*
X1955682D02*
Y1428800D01*
X1955455Y1427863*
X1955455D02*
X1955227Y1427238D01*
X1955227D02*
X1954773Y1426613D01*
X1954773D02*
X1954091Y1426300D01*
X1952500*
X1961136Y1431300D02*
X1960909Y1431925D01*
X1960455Y1432550*
X1960000Y1432863*
X1960000D02*
X1959091D01*
X1959091D02*
X1958636Y1432550D01*
X1958182Y1431925*
X1957955Y1431300*
X1957727Y1430363*
X1957727D02*
Y1428800D01*
X1957955Y1427863*
X1957955D02*
X1958182Y1427238D01*
X1958182D02*
X1958636Y1426613D01*
X1958636D02*
X1959091Y1426300D01*
X1960000*
X1960455Y1426613*
X1960455D02*
X1960909Y1427238D01*
X1960909D02*
X1961136Y1427863D01*
X1961136D02*
Y1428800D01*
X1960000D02*
X1961136D01*
X1963182Y1432863D02*
Y1426300D01*
Y1432863D02*
X1966136D01*
X1963182Y1429738D02*
X1965000D01*
X1963182Y1426300D02*
X1966136D01*
X1973409Y1432863D02*
Y1426300D01*
Y1432863D02*
X1976364D01*
X1973409Y1429738D02*
X1975227D01*
X1978409Y1432863D02*
Y1428175D01*
X1978636Y1427238*
X1978636D02*
X1979091Y1426613D01*
X1979091D02*
X1979773Y1426300D01*
X1980227*
X1980909Y1426613*
X1980909D02*
X1981364Y1427238D01*
X1981364D02*
X1981591Y1428175D01*
Y1432863*
X1983636D02*
Y1426300D01*
X1986364*
X1988409Y1432863D02*
Y1426300D01*
X1991136*
X1998409Y1432863D02*
X1999545Y1426300D01*
X2000682Y1432863D02*
X1999545Y1426300D01*
X2000682Y1432863D02*
X2001818Y1426300D01*
X2002955Y1432863D02*
X2001818Y1426300D01*
X2006818Y1432863D02*
X2005000Y1426300D01*
X2006818Y1432863D02*
X2008636Y1426300D01*
X2005682Y1428488D02*
X2007955D01*
X2010682Y1432863D02*
X2012500Y1426300D01*
X2014318Y1432863D02*
X2012500Y1426300D01*
X2016364Y1432863D02*
Y1426300D01*
Y1432863D02*
X2019318D01*
X2016364Y1429738D02*
X2018182D01*
X2016364Y1426300D02*
X2019318D01*
X2026591Y1432863D02*
Y1426300D01*
Y1432863D02*
X2028636D01*
X2028636D02*
X2029318Y1432550D01*
X2029545Y1432238*
X2029545D02*
X2029773Y1431613D01*
X2029773D02*
Y1430988D01*
X2029773D02*
X2029545Y1430363D01*
X2029545D02*
X2029318Y1430050D01*
X2028636Y1429738*
X2028636D02*
X2026591D01*
X2028182D02*
X2029773Y1426300D01*
X2031818Y1432863D02*
Y1426300D01*
Y1432863D02*
X2034773D01*
X2031818Y1429738D02*
X2033636D01*
X2031818Y1426300D02*
X2034773D01*
X2040227Y1431300D02*
X2040000Y1431925D01*
X2039545Y1432550*
X2039091Y1432863*
X2039091D02*
X2038182D01*
X2038182D02*
X2037727Y1432550D01*
X2037273Y1431925*
X2037045Y1431300*
X2036818Y1430363*
X2036818D02*
Y1428800D01*
X2037045Y1427863*
X2037045D02*
X2037273Y1427238D01*
X2037273D02*
X2037727Y1426613D01*
X2037727D02*
X2038182Y1426300D01*
X2039091*
X2039545Y1426613*
X2039545D02*
X2040000Y1427238D01*
X2040000D02*
X2040227Y1427863D01*
X2043864Y1432863D02*
Y1426300D01*
X2042273Y1432863D02*
X2045455D01*
X2047500D02*
Y1426300D01*
X2049545Y1432863D02*
Y1426300D01*
Y1432863D02*
X2052500D01*
X2049545Y1429738D02*
X2051364D01*
X2054545Y1432863D02*
Y1426300D01*
X2056591Y1432863D02*
Y1426300D01*
Y1432863D02*
X2059545D01*
X2056591Y1429738D02*
X2058409D01*
X2056591Y1426300D02*
X2059545D01*
X2061591Y1432863D02*
Y1426300D01*
Y1432863D02*
X2063636D01*
X2063636D02*
X2064318Y1432550D01*
X2064545Y1432238*
X2064545D02*
X2064773Y1431613D01*
X2064773D02*
Y1430988D01*
X2064773D02*
X2064545Y1430363D01*
X2064545D02*
X2064318Y1430050D01*
X2063636Y1429738*
X2063636D02*
X2061591D01*
X2063182D02*
X2064773Y1426300D01*
X1840000Y1470363D02*
Y1463800D01*
Y1470363D02*
X1842045D01*
X1842045D02*
X1842727Y1470050D01*
X1842955Y1469738*
X1842955D02*
X1843182Y1469113D01*
X1843182D02*
Y1468488D01*
X1843182D02*
X1842955Y1467863D01*
X1842955D02*
X1842727Y1467550D01*
X1842045Y1467238*
X1840000D02*
X1842045D01*
X1842045D02*
X1842727Y1466925D01*
X1842955Y1466613*
X1842955D02*
X1843182Y1465988D01*
X1843182D02*
Y1465050D01*
X1842955Y1464425*
X1842727Y1464113*
X1842727D02*
X1842045Y1463800D01*
X1840000*
X1846591Y1470363D02*
X1846136Y1470050D01*
X1845682Y1469425*
X1845455Y1468800*
X1845227Y1467863*
X1845227D02*
Y1466300D01*
X1845455Y1465363*
X1845455D02*
X1845682Y1464738D01*
X1845682D02*
X1846136Y1464113D01*
X1846136D02*
X1846591Y1463800D01*
X1847500*
X1847955Y1464113*
X1847955D02*
X1848409Y1464738D01*
X1848409D02*
X1848636Y1465363D01*
X1848636D02*
X1848864Y1466300D01*
Y1467863*
X1848864D02*
X1848636Y1468800D01*
X1848409Y1469425*
X1847955Y1470050*
X1847500Y1470363*
X1847500D02*
X1846591D01*
X1852500D02*
Y1463800D01*
X1850909Y1470363D02*
X1854091D01*
X1857727D02*
Y1463800D01*
X1856136Y1470363D02*
X1859318D01*
X1862727D02*
X1862273Y1470050D01*
X1861818Y1469425*
X1861591Y1468800*
X1861364Y1467863*
X1861364D02*
Y1466300D01*
X1861591Y1465363*
X1861591D02*
X1861818Y1464738D01*
X1861818D02*
X1862273Y1464113D01*
X1862273D02*
X1862727Y1463800D01*
X1863636*
X1864091Y1464113*
X1864091D02*
X1864545Y1464738D01*
X1864545D02*
X1864773Y1465363D01*
X1864773D02*
X1865000Y1466300D01*
Y1467863*
X1865000D02*
X1864773Y1468800D01*
X1864545Y1469425*
X1864091Y1470050*
X1863636Y1470363*
X1863636D02*
X1862727D01*
X1867045D02*
Y1463800D01*
Y1470363D02*
X1868864Y1463800D01*
X1870682Y1470363D02*
X1868864Y1463800D01*
X1870682Y1470363D02*
Y1463800D01*
X1881136Y1469425D02*
X1880682Y1470050D01*
X1880000Y1470363*
X1880000D02*
X1879091D01*
X1879091D02*
X1878409Y1470050D01*
X1877955Y1469425*
Y1468800*
X1878182Y1468175*
X1878409Y1467863*
X1878409D02*
X1878864Y1467550D01*
X1880227Y1466925*
X1880682Y1466613*
X1880682D02*
X1880909Y1466300D01*
X1881136Y1465675*
Y1464738*
X1881136D02*
X1880682Y1464113D01*
X1880682D02*
X1880000Y1463800D01*
X1879091*
X1878409Y1464113*
X1878409D02*
X1877955Y1464738D01*
X1883182Y1470363D02*
Y1463800D01*
X1885227Y1470363D02*
Y1463800D01*
X1887955*
X1890000Y1470363D02*
Y1463800D01*
X1893182Y1470363D02*
X1890000Y1465988D01*
X1891136Y1467550D02*
X1893182Y1463800D01*
X1898409Y1469425D02*
X1897955Y1470050D01*
X1897273Y1470363*
X1897273D02*
X1896364D01*
X1896364D02*
X1895682Y1470050D01*
X1895227Y1469425*
Y1468800*
X1895455Y1468175*
X1895682Y1467863*
X1895682D02*
X1896136Y1467550D01*
X1897500Y1466925*
X1897955Y1466613*
X1897955D02*
X1898182Y1466300D01*
X1898409Y1465675*
Y1464738*
X1898409D02*
X1897955Y1464113D01*
X1897955D02*
X1897273Y1463800D01*
X1896364*
X1895682Y1464113*
X1895682D02*
X1895227Y1464738D01*
X1903864Y1468800D02*
X1903636Y1469425D01*
X1903182Y1470050*
X1902727Y1470363*
X1902727D02*
X1901818D01*
X1901818D02*
X1901364Y1470050D01*
X1900909Y1469425*
X1900682Y1468800*
X1900455Y1467863*
X1900455D02*
Y1466300D01*
X1900682Y1465363*
X1900682D02*
X1900909Y1464738D01*
X1900909D02*
X1901364Y1464113D01*
X1901364D02*
X1901818Y1463800D01*
X1902727*
X1903182Y1464113*
X1903182D02*
X1903636Y1464738D01*
X1903636D02*
X1903864Y1465363D01*
X1905909Y1470363D02*
Y1463800D01*
Y1470363D02*
X1907955D01*
X1907955D02*
X1908636Y1470050D01*
X1908864Y1469738*
X1908864D02*
X1909091Y1469113D01*
X1909091D02*
Y1468488D01*
X1909091D02*
X1908864Y1467863D01*
X1908864D02*
X1908636Y1467550D01*
X1907955Y1467238*
X1907955D02*
X1905909D01*
X1907500D02*
X1909091Y1463800D01*
X1911136Y1470363D02*
Y1463800D01*
Y1470363D02*
X1914091D01*
X1911136Y1467238D02*
X1912955D01*
X1911136Y1463800D02*
X1914091D01*
X1916136Y1470363D02*
Y1463800D01*
Y1470363D02*
X1919091D01*
X1916136Y1467238D02*
X1917955D01*
X1916136Y1463800D02*
X1919091D01*
X1921136Y1470363D02*
Y1463800D01*
Y1470363D02*
X1924318Y1463800D01*
Y1470363D02*
Y1463800D01*
X2139500Y1491300D02*
Y1476300D01*
X2090500Y1491800D02*
Y1476300D01*
X2139500Y1555300D02*
Y1545800D01*
X2090500Y1555800D02*
Y1546300D01*
Y1573300D02*
Y1563800D01*
X2139500Y1588800D02*
Y1579300D01*
X2090500Y1589300D02*
Y1579800D01*
X2139500Y1604800D02*
Y1595300D01*
X2090500Y1605300D02*
Y1595800D01*
X2130000Y1476300D02*
X2139500D01*
X2090500D02*
X2100500D01*
X2110500D02*
X2120000D01*
X2139500Y1572800D02*
Y1563300D01*
Y1622800D02*
Y1613300D01*
X2090500Y1623300D02*
Y1613800D01*
X2139500Y1505300D02*
Y1495800D01*
X2090500Y1505800D02*
Y1496300D01*
Y1523300D02*
Y1513800D01*
X2139500Y1538800D02*
Y1529300D01*
X2090500Y1539300D02*
Y1529800D01*
X2139500Y1522800D02*
Y1513300D01*
G54D21*
X2099432Y1682238D02*
Y1673800D01*
X2102500Y1678019D02*
X2096364D01*
G54D26*
X1800000Y1473800D02*
X2200000D01*
Y1773800*
X1800000*
Y1473800*
G54D95*
G54D370*
X1940000Y1478800D02*
X1884100D01*
X1940000Y1479000D02*
X1884100D01*
X1940000Y1479200D02*
X1884100D01*
X1940000Y1479400D02*
X1884100D01*
X1940000Y1479600D02*
X1884100D01*
X1940000Y1479800D02*
X1884100D01*
X1940000Y1480000D02*
X1884100D01*
X1940000Y1480200D02*
X1884100D01*
X1940000Y1480400D02*
X1884100D01*
X1940000Y1480600D02*
X1884100D01*
X1940000Y1480800D02*
X1884100D01*
X1940000Y1481000D02*
X1884100D01*
X1940000Y1481200D02*
X1884100D01*
X1940000Y1481400D02*
X1884100D01*
X1940000Y1481600D02*
X1884100D01*
X1940000Y1481800D02*
X1884100D01*
X1940000Y1482000D02*
X1884100D01*
X1940000Y1482200D02*
X1884100D01*
X1940000Y1482400D02*
X1884100D01*
X1940000Y1482600D02*
X1884100D01*
X1940000Y1482800D02*
X1884100D01*
X1940000Y1483000D02*
X1884100D01*
X1940000Y1483200D02*
X1884100D01*
X1940000Y1483400D02*
X1884100D01*
X1940000Y1483600D02*
X1884100D01*
X1940000Y1483800D02*
X1884100D01*
X1940000Y1484000D02*
X1884100D01*
X1940000Y1484200D02*
X1884100D01*
X1940000Y1484400D02*
X1884100D01*
X1940000Y1484600D02*
X1884100D01*
X1940000Y1484800D02*
X1884100D01*
X1940000Y1485000D02*
X1884100D01*
X1940000Y1485200D02*
X1884100D01*
X1940000Y1485400D02*
X1884100D01*
X1940000Y1485600D02*
X1884100D01*
X1940000Y1485800D02*
X1933300D01*
X1921600D02*
X1919900D01*
X1916400D02*
X1913300D01*
X1911200D02*
X1906300D01*
X1902800D02*
X1897900D01*
X1896000D02*
X1892700D01*
X1891000D02*
X1884100D01*
X1940000Y1486000D02*
X1933300D01*
X1921600D02*
X1919900D01*
X1916400D02*
X1913300D01*
X1911200D02*
X1906300D01*
X1902800D02*
X1897900D01*
X1896000D02*
X1892700D01*
X1891000D02*
X1884100D01*
X1940000Y1486200D02*
X1933300D01*
X1921600D02*
X1919900D01*
X1916400D02*
X1913300D01*
X1911200D02*
X1906300D01*
X1902800D02*
X1897900D01*
X1896000D02*
X1892700D01*
X1891000D02*
X1884100D01*
X1940000Y1486400D02*
X1933300D01*
X1921600D02*
X1919900D01*
X1916400D02*
X1913300D01*
X1911200D02*
X1906300D01*
X1902800D02*
X1897900D01*
X1896000D02*
X1892700D01*
X1891000D02*
X1884100D01*
X1940000Y1486600D02*
X1933300D01*
X1921600D02*
X1919900D01*
X1916400D02*
X1913300D01*
X1911200D02*
X1906300D01*
X1902800D02*
X1897900D01*
X1896000D02*
X1892700D01*
X1891000D02*
X1884100D01*
X1940000Y1486800D02*
X1933300D01*
X1921600D02*
X1919900D01*
X1916400D02*
X1913300D01*
X1911200D02*
X1906300D01*
X1902800D02*
X1897900D01*
X1896000D02*
X1892700D01*
X1891000D02*
X1884100D01*
X1940000Y1487000D02*
X1933300D01*
X1921600D02*
X1919900D01*
X1916400D02*
X1913300D01*
X1911200D02*
X1906300D01*
X1902800D02*
X1897900D01*
X1896000D02*
X1892700D01*
X1891000D02*
X1884100D01*
X1940000Y1487200D02*
X1933300D01*
X1921600D02*
X1919900D01*
X1916400D02*
X1913300D01*
X1911200D02*
X1906300D01*
X1902800D02*
X1897900D01*
X1896000D02*
X1892700D01*
X1891000D02*
X1884100D01*
X1940000Y1487400D02*
X1933300D01*
X1931600D02*
X1923300D01*
X1921600D02*
X1919900D01*
X1918200D02*
X1916500D01*
X1913200D02*
X1909500D01*
X1907800D02*
X1906300D01*
X1902800D02*
X1901100D01*
X1897800D02*
X1892700D01*
X1891000D02*
X1884100D01*
X1940000Y1487600D02*
X1933300D01*
X1931600D02*
X1923300D01*
X1921600D02*
X1919900D01*
X1918200D02*
X1916500D01*
X1913200D02*
X1909500D01*
X1907800D02*
X1906300D01*
X1902800D02*
X1901100D01*
X1897800D02*
X1892700D01*
X1891000D02*
X1884100D01*
X1940000Y1487800D02*
X1933300D01*
X1931600D02*
X1923300D01*
X1921600D02*
X1919900D01*
X1918200D02*
X1916500D01*
X1913200D02*
X1909500D01*
X1907800D02*
X1906300D01*
X1902800D02*
X1901100D01*
X1897800D02*
X1892700D01*
X1891000D02*
X1884100D01*
X1940000Y1488000D02*
X1933300D01*
X1931600D02*
X1923300D01*
X1921600D02*
X1919900D01*
X1918200D02*
X1916500D01*
X1913200D02*
X1909500D01*
X1907800D02*
X1906300D01*
X1902800D02*
X1901100D01*
X1897800D02*
X1892700D01*
X1891000D02*
X1884100D01*
X1940000Y1488200D02*
X1933300D01*
X1931600D02*
X1923300D01*
X1921600D02*
X1919900D01*
X1918200D02*
X1916500D01*
X1913200D02*
X1909500D01*
X1907800D02*
X1906300D01*
X1902800D02*
X1901100D01*
X1897800D02*
X1892700D01*
X1891000D02*
X1884100D01*
X1940000Y1488400D02*
X1933300D01*
X1931600D02*
X1923300D01*
X1921600D02*
X1919900D01*
X1918200D02*
X1916500D01*
X1913200D02*
X1909500D01*
X1907800D02*
X1906300D01*
X1902800D02*
X1901100D01*
X1897800D02*
X1892700D01*
X1891000D02*
X1884100D01*
X1940000Y1488600D02*
X1933300D01*
X1931600D02*
X1923300D01*
X1921600D02*
X1919900D01*
X1918200D02*
X1916500D01*
X1913200D02*
X1909500D01*
X1907800D02*
X1906300D01*
X1902800D02*
X1901100D01*
X1897800D02*
X1892700D01*
X1891000D02*
X1884100D01*
X1940000Y1488800D02*
X1933300D01*
X1931600D02*
X1923300D01*
X1921600D02*
X1919900D01*
X1918200D02*
X1916500D01*
X1913200D02*
X1909500D01*
X1907800D02*
X1906300D01*
X1902800D02*
X1901100D01*
X1897800D02*
X1892700D01*
X1891000D02*
X1884100D01*
X1940000Y1489000D02*
X1933300D01*
X1931600D02*
X1923300D01*
X1921600D02*
X1919900D01*
X1918200D02*
X1916500D01*
X1913200D02*
X1909500D01*
X1907800D02*
X1906300D01*
X1902800D02*
X1901100D01*
X1897800D02*
X1892700D01*
X1891000D02*
X1884100D01*
X1940000Y1489200D02*
X1933300D01*
X1931600D02*
X1930100D01*
X1924800D02*
X1923300D01*
X1921600D02*
X1918300D01*
X1916400D02*
X1909500D01*
X1907800D02*
X1901100D01*
X1899400D02*
X1896100D01*
X1894400D02*
X1892700D01*
X1891000D02*
X1884100D01*
X1940000Y1489400D02*
X1933300D01*
X1931600D02*
X1930100D01*
X1924800D02*
X1923300D01*
X1921600D02*
X1918300D01*
X1916400D02*
X1909500D01*
X1907800D02*
X1901100D01*
X1899400D02*
X1896100D01*
X1894400D02*
X1892700D01*
X1891000D02*
X1884100D01*
X1940000Y1489600D02*
X1933300D01*
X1931600D02*
X1930100D01*
X1924800D02*
X1923300D01*
X1921600D02*
X1918300D01*
X1916400D02*
X1909500D01*
X1907800D02*
X1901100D01*
X1899400D02*
X1896100D01*
X1894400D02*
X1892700D01*
X1891000D02*
X1884100D01*
X1940000Y1489800D02*
X1933300D01*
X1931600D02*
X1930100D01*
X1924800D02*
X1923300D01*
X1921600D02*
X1918300D01*
X1916400D02*
X1909500D01*
X1907800D02*
X1901100D01*
X1899400D02*
X1896100D01*
X1894400D02*
X1892700D01*
X1891000D02*
X1884100D01*
X1940000Y1490000D02*
X1933300D01*
X1931600D02*
X1930100D01*
X1924800D02*
X1923300D01*
X1921600D02*
X1918300D01*
X1916400D02*
X1909500D01*
X1907800D02*
X1901100D01*
X1899400D02*
X1896100D01*
X1894400D02*
X1892700D01*
X1891000D02*
X1884100D01*
X1940000Y1490200D02*
X1933300D01*
X1931600D02*
X1930100D01*
X1924800D02*
X1923300D01*
X1921600D02*
X1918300D01*
X1916400D02*
X1909500D01*
X1907800D02*
X1901100D01*
X1899400D02*
X1896100D01*
X1894400D02*
X1892700D01*
X1891000D02*
X1884100D01*
X1940000Y1490400D02*
X1933300D01*
X1931600D02*
X1930100D01*
X1924800D02*
X1923300D01*
X1921600D02*
X1918300D01*
X1916400D02*
X1909500D01*
X1907800D02*
X1901100D01*
X1899400D02*
X1896100D01*
X1894400D02*
X1892700D01*
X1891000D02*
X1884100D01*
X1940000Y1490600D02*
X1933300D01*
X1931600D02*
X1930100D01*
X1924800D02*
X1923300D01*
X1921600D02*
X1918300D01*
X1916400D02*
X1909500D01*
X1907800D02*
X1901100D01*
X1899400D02*
X1896100D01*
X1894400D02*
X1892700D01*
X1891000D02*
X1884100D01*
X1940000Y1490800D02*
X1933300D01*
X1931600D02*
X1930100D01*
X1924800D02*
X1923300D01*
X1921600D02*
X1918300D01*
X1901000D02*
X1897900D01*
X1896000D02*
X1884100D01*
X1940000Y1491000D02*
X1933300D01*
X1931600D02*
X1930100D01*
X1924800D02*
X1923300D01*
X1921600D02*
X1918300D01*
X1901000D02*
X1897900D01*
X1896000D02*
X1884100D01*
X1940000Y1491200D02*
X1933300D01*
X1931600D02*
X1930100D01*
X1924800D02*
X1923300D01*
X1921600D02*
X1918300D01*
X1901000D02*
X1897900D01*
X1896000D02*
X1884100D01*
X1940000Y1491400D02*
X1933300D01*
X1931600D02*
X1930100D01*
X1924800D02*
X1923300D01*
X1921600D02*
X1918300D01*
X1901000D02*
X1897900D01*
X1896000D02*
X1884100D01*
X1940000Y1491600D02*
X1933300D01*
X1931600D02*
X1930100D01*
X1924800D02*
X1923300D01*
X1921600D02*
X1918300D01*
X1901000D02*
X1897900D01*
X1896000D02*
X1884100D01*
X1940000Y1491800D02*
X1933300D01*
X1931600D02*
X1930100D01*
X1924800D02*
X1923300D01*
X1921600D02*
X1918300D01*
X1901000D02*
X1897900D01*
X1896000D02*
X1884100D01*
X1940000Y1492000D02*
X1933300D01*
X1931600D02*
X1930100D01*
X1924800D02*
X1923300D01*
X1921600D02*
X1918300D01*
X1901000D02*
X1897900D01*
X1896000D02*
X1884100D01*
X1940000Y1492200D02*
X1933300D01*
X1931600D02*
X1930100D01*
X1924800D02*
X1923300D01*
X1921600D02*
X1918300D01*
X1901000D02*
X1897900D01*
X1896000D02*
X1884100D01*
X1940000Y1492400D02*
X1933300D01*
X1931600D02*
X1930100D01*
X1924800D02*
X1923300D01*
X1921600D02*
X1918300D01*
X1901000D02*
X1897900D01*
X1896000D02*
X1884100D01*
X1940000Y1492600D02*
X1933300D01*
X1931600D02*
X1930100D01*
X1924800D02*
X1923300D01*
X1921600D02*
X1916500D01*
X1894400D02*
X1892700D01*
X1891000D02*
X1884100D01*
X1940000Y1492800D02*
X1933300D01*
X1931600D02*
X1930100D01*
X1924800D02*
X1923300D01*
X1921600D02*
X1916500D01*
X1894400D02*
X1892700D01*
X1891000D02*
X1884100D01*
X1940000Y1493000D02*
X1933300D01*
X1931600D02*
X1930100D01*
X1924800D02*
X1923300D01*
X1921600D02*
X1916500D01*
X1894400D02*
X1892700D01*
X1891000D02*
X1884100D01*
X1940000Y1493200D02*
X1933300D01*
X1931600D02*
X1930100D01*
X1924800D02*
X1923300D01*
X1921600D02*
X1916500D01*
X1894400D02*
X1892700D01*
X1891000D02*
X1884100D01*
X1940000Y1493400D02*
X1933300D01*
X1931600D02*
X1930100D01*
X1924800D02*
X1923300D01*
X1921600D02*
X1916500D01*
X1894400D02*
X1892700D01*
X1891000D02*
X1884100D01*
X1940000Y1493600D02*
X1933300D01*
X1931600D02*
X1930100D01*
X1924800D02*
X1923300D01*
X1921600D02*
X1916500D01*
X1894400D02*
X1892700D01*
X1891000D02*
X1884100D01*
X1940000Y1493800D02*
X1933300D01*
X1931600D02*
X1930100D01*
X1924800D02*
X1923300D01*
X1921600D02*
X1916500D01*
X1894400D02*
X1892700D01*
X1891000D02*
X1884100D01*
X1940000Y1494000D02*
X1933300D01*
X1931600D02*
X1930100D01*
X1924800D02*
X1923300D01*
X1921600D02*
X1916500D01*
X1894400D02*
X1892700D01*
X1891000D02*
X1884100D01*
X1940000Y1494200D02*
X1933300D01*
X1931600D02*
X1923300D01*
X1921600D02*
X1919900D01*
X1913200D02*
X1909500D01*
X1904400D02*
X1899500D01*
X1897800D02*
X1892700D01*
X1891000D02*
X1884100D01*
X1940000Y1494400D02*
X1933300D01*
X1931600D02*
X1923300D01*
X1921600D02*
X1919900D01*
X1913200D02*
X1909500D01*
X1904400D02*
X1899500D01*
X1897800D02*
X1892700D01*
X1891000D02*
X1884100D01*
X1940000Y1494600D02*
X1933300D01*
X1931600D02*
X1923300D01*
X1921600D02*
X1919900D01*
X1913200D02*
X1909500D01*
X1904400D02*
X1899500D01*
X1897800D02*
X1892700D01*
X1891000D02*
X1884100D01*
X1940000Y1494800D02*
X1933300D01*
X1931600D02*
X1923300D01*
X1921600D02*
X1919900D01*
X1913200D02*
X1909500D01*
X1904400D02*
X1899500D01*
X1897800D02*
X1892700D01*
X1891000D02*
X1884100D01*
X1940000Y1495000D02*
X1933300D01*
X1931600D02*
X1923300D01*
X1921600D02*
X1919900D01*
X1913200D02*
X1909500D01*
X1904400D02*
X1899500D01*
X1897800D02*
X1892700D01*
X1891000D02*
X1884100D01*
X1940000Y1495200D02*
X1933300D01*
X1931600D02*
X1923300D01*
X1921600D02*
X1919900D01*
X1913200D02*
X1909500D01*
X1904400D02*
X1899500D01*
X1897800D02*
X1892700D01*
X1891000D02*
X1884100D01*
X1940000Y1495400D02*
X1933300D01*
X1931600D02*
X1923300D01*
X1921600D02*
X1919900D01*
X1913200D02*
X1909500D01*
X1904400D02*
X1899500D01*
X1897800D02*
X1892700D01*
X1891000D02*
X1884100D01*
X1940000Y1495600D02*
X1933300D01*
X1931600D02*
X1923300D01*
X1921600D02*
X1919900D01*
X1913200D02*
X1909500D01*
X1904400D02*
X1899500D01*
X1897800D02*
X1892700D01*
X1891000D02*
X1884100D01*
X1940000Y1495800D02*
X1933300D01*
X1921600D02*
X1919900D01*
X1918200D02*
X1914900D01*
X1913200D02*
X1911300D01*
X1909400D02*
X1906300D01*
X1904400D02*
X1902900D01*
X1901000D02*
X1899500D01*
X1896000D02*
X1892700D01*
X1891000D02*
X1884100D01*
X1940000Y1496000D02*
X1933300D01*
X1921600D02*
X1919900D01*
X1918200D02*
X1914900D01*
X1913200D02*
X1911300D01*
X1909400D02*
X1906300D01*
X1904400D02*
X1902900D01*
X1901000D02*
X1899500D01*
X1896000D02*
X1892700D01*
X1891000D02*
X1884100D01*
X1940000Y1496200D02*
X1933300D01*
X1921600D02*
X1919900D01*
X1918200D02*
X1914900D01*
X1913200D02*
X1911300D01*
X1909400D02*
X1906300D01*
X1904400D02*
X1902900D01*
X1901000D02*
X1899500D01*
X1896000D02*
X1892700D01*
X1891000D02*
X1884100D01*
X1940000Y1496400D02*
X1933300D01*
X1921600D02*
X1919900D01*
X1918200D02*
X1914900D01*
X1913200D02*
X1911300D01*
X1909400D02*
X1906300D01*
X1904400D02*
X1902900D01*
X1901000D02*
X1899500D01*
X1896000D02*
X1892700D01*
X1891000D02*
X1884100D01*
X1940000Y1496600D02*
X1933300D01*
X1921600D02*
X1919900D01*
X1918200D02*
X1914900D01*
X1913200D02*
X1911300D01*
X1909400D02*
X1906300D01*
X1904400D02*
X1902900D01*
X1901000D02*
X1899500D01*
X1896000D02*
X1892700D01*
X1891000D02*
X1884100D01*
X1940000Y1496800D02*
X1933300D01*
X1921600D02*
X1919900D01*
X1918200D02*
X1914900D01*
X1913200D02*
X1911300D01*
X1909400D02*
X1906300D01*
X1904400D02*
X1902900D01*
X1901000D02*
X1899500D01*
X1896000D02*
X1892700D01*
X1891000D02*
X1884100D01*
X1940000Y1497000D02*
X1933300D01*
X1921600D02*
X1919900D01*
X1918200D02*
X1914900D01*
X1913200D02*
X1911300D01*
X1909400D02*
X1906300D01*
X1904400D02*
X1902900D01*
X1901000D02*
X1899500D01*
X1896000D02*
X1892700D01*
X1891000D02*
X1884100D01*
X1940000Y1497200D02*
X1933300D01*
X1921600D02*
X1919900D01*
X1918200D02*
X1914900D01*
X1913200D02*
X1911300D01*
X1909400D02*
X1906300D01*
X1904400D02*
X1902900D01*
X1901000D02*
X1899500D01*
X1896000D02*
X1892700D01*
X1891000D02*
X1884100D01*
X1940000Y1497400D02*
X1933300D01*
X1921600D02*
X1919900D01*
X1918200D02*
X1914900D01*
X1913200D02*
X1911300D01*
X1909400D02*
X1906300D01*
X1904400D02*
X1902900D01*
X1901000D02*
X1899500D01*
X1896000D02*
X1892700D01*
X1891000D02*
X1884100D01*
X1940000Y1497600D02*
X1919900D01*
X1918200D02*
X1916500D01*
X1914800D02*
X1906300D01*
X1904400D02*
X1899500D01*
X1897800D02*
X1896100D01*
X1894400D02*
X1884100D01*
X1940000Y1497800D02*
X1919900D01*
X1918200D02*
X1916500D01*
X1914800D02*
X1906300D01*
X1904400D02*
X1899500D01*
X1897800D02*
X1896100D01*
X1894400D02*
X1884100D01*
X1940000Y1498000D02*
X1919900D01*
X1918200D02*
X1916500D01*
X1914800D02*
X1906300D01*
X1904400D02*
X1899500D01*
X1897800D02*
X1896100D01*
X1894400D02*
X1884100D01*
X1940000Y1498200D02*
X1919900D01*
X1918200D02*
X1916500D01*
X1914800D02*
X1906300D01*
X1904400D02*
X1899500D01*
X1897800D02*
X1896100D01*
X1894400D02*
X1884100D01*
X1940000Y1498400D02*
X1919900D01*
X1918200D02*
X1916500D01*
X1914800D02*
X1906300D01*
X1904400D02*
X1899500D01*
X1897800D02*
X1896100D01*
X1894400D02*
X1884100D01*
X1940000Y1498600D02*
X1919900D01*
X1918200D02*
X1916500D01*
X1914800D02*
X1906300D01*
X1904400D02*
X1899500D01*
X1897800D02*
X1896100D01*
X1894400D02*
X1884100D01*
X1940000Y1498800D02*
X1919900D01*
X1918200D02*
X1916500D01*
X1914800D02*
X1906300D01*
X1904400D02*
X1899500D01*
X1897800D02*
X1896100D01*
X1894400D02*
X1884100D01*
X1940000Y1499000D02*
X1919900D01*
X1918200D02*
X1916500D01*
X1914800D02*
X1906300D01*
X1904400D02*
X1899500D01*
X1897800D02*
X1896100D01*
X1894400D02*
X1884100D01*
X1940000Y1499200D02*
X1931700D01*
X1928200D02*
X1923300D01*
X1921600D02*
X1919900D01*
X1918200D02*
X1913300D01*
X1897800D02*
X1896100D01*
X1894400D02*
X1884100D01*
X1940000Y1499400D02*
X1931700D01*
X1928200D02*
X1923300D01*
X1921600D02*
X1919900D01*
X1918200D02*
X1913300D01*
X1897800D02*
X1896100D01*
X1894400D02*
X1884100D01*
X1940000Y1499600D02*
X1931700D01*
X1928200D02*
X1923300D01*
X1921600D02*
X1919900D01*
X1918200D02*
X1913300D01*
X1897800D02*
X1896100D01*
X1894400D02*
X1884100D01*
X1940000Y1499800D02*
X1931700D01*
X1928200D02*
X1923300D01*
X1921600D02*
X1919900D01*
X1918200D02*
X1913300D01*
X1897800D02*
X1896100D01*
X1894400D02*
X1884100D01*
X1940000Y1500000D02*
X1931700D01*
X1928200D02*
X1923300D01*
X1921600D02*
X1919900D01*
X1918200D02*
X1913300D01*
X1897800D02*
X1896100D01*
X1894400D02*
X1884100D01*
X1940000Y1500200D02*
X1931700D01*
X1928200D02*
X1923300D01*
X1921600D02*
X1919900D01*
X1918200D02*
X1913300D01*
X1897800D02*
X1896100D01*
X1894400D02*
X1884100D01*
X1940000Y1500400D02*
X1931700D01*
X1928200D02*
X1923300D01*
X1921600D02*
X1919900D01*
X1918200D02*
X1913300D01*
X1897800D02*
X1896100D01*
X1894400D02*
X1884100D01*
X1940000Y1500600D02*
X1931700D01*
X1928200D02*
X1923300D01*
X1921600D02*
X1919900D01*
X1918200D02*
X1913300D01*
X1897800D02*
X1896100D01*
X1894400D02*
X1884100D01*
X1940000Y1500800D02*
X1931700D01*
X1928200D02*
X1923300D01*
X1921600D02*
X1919900D01*
X1918200D02*
X1913300D01*
X1897800D02*
X1896100D01*
X1894400D02*
X1884100D01*
X1940000Y1501000D02*
X1931700D01*
X1930000D02*
X1928300D01*
X1926600D02*
X1924900D01*
X1923200D02*
X1921700D01*
X1914800D02*
X1909500D01*
X1907800D02*
X1906300D01*
X1899400D02*
X1896100D01*
X1894400D02*
X1892700D01*
X1891000D02*
X1884100D01*
X1940000Y1501200D02*
X1931700D01*
X1930000D02*
X1928300D01*
X1926600D02*
X1924900D01*
X1923200D02*
X1921700D01*
X1914800D02*
X1909500D01*
X1907800D02*
X1906300D01*
X1899400D02*
X1896100D01*
X1894400D02*
X1892700D01*
X1891000D02*
X1884100D01*
X1940000Y1501400D02*
X1931700D01*
X1930000D02*
X1928300D01*
X1926600D02*
X1924900D01*
X1923200D02*
X1921700D01*
X1914800D02*
X1909500D01*
X1907800D02*
X1906300D01*
X1899400D02*
X1896100D01*
X1894400D02*
X1892700D01*
X1891000D02*
X1884100D01*
X1940000Y1501600D02*
X1931700D01*
X1930000D02*
X1928300D01*
X1926600D02*
X1924900D01*
X1923200D02*
X1921700D01*
X1914800D02*
X1909500D01*
X1907800D02*
X1906300D01*
X1899400D02*
X1896100D01*
X1894400D02*
X1892700D01*
X1891000D02*
X1884100D01*
X1940000Y1501800D02*
X1931700D01*
X1930000D02*
X1928300D01*
X1926600D02*
X1924900D01*
X1923200D02*
X1921700D01*
X1914800D02*
X1909500D01*
X1907800D02*
X1906300D01*
X1899400D02*
X1896100D01*
X1894400D02*
X1892700D01*
X1891000D02*
X1884100D01*
X1940000Y1502000D02*
X1931700D01*
X1930000D02*
X1928300D01*
X1926600D02*
X1924900D01*
X1923200D02*
X1921700D01*
X1914800D02*
X1909500D01*
X1907800D02*
X1906300D01*
X1899400D02*
X1896100D01*
X1894400D02*
X1892700D01*
X1891000D02*
X1884100D01*
X1940000Y1502200D02*
X1931700D01*
X1930000D02*
X1928300D01*
X1926600D02*
X1924900D01*
X1923200D02*
X1921700D01*
X1914800D02*
X1909500D01*
X1907800D02*
X1906300D01*
X1899400D02*
X1896100D01*
X1894400D02*
X1892700D01*
X1891000D02*
X1884100D01*
X1940000Y1502400D02*
X1931700D01*
X1930000D02*
X1928300D01*
X1926600D02*
X1924900D01*
X1923200D02*
X1921700D01*
X1914800D02*
X1909500D01*
X1907800D02*
X1906300D01*
X1899400D02*
X1896100D01*
X1894400D02*
X1892700D01*
X1891000D02*
X1884100D01*
X1940000Y1502600D02*
X1931700D01*
X1924800D02*
X1923300D01*
X1921600D02*
X1919900D01*
X1916400D02*
X1913300D01*
X1911200D02*
X1909500D01*
X1904400D02*
X1901100D01*
X1899400D02*
X1897900D01*
X1896000D02*
X1894500D01*
X1891000D02*
X1884100D01*
X1940000Y1502800D02*
X1931700D01*
X1924800D02*
X1923300D01*
X1921600D02*
X1919900D01*
X1916400D02*
X1913300D01*
X1911200D02*
X1909500D01*
X1904400D02*
X1901100D01*
X1899400D02*
X1897900D01*
X1896000D02*
X1894500D01*
X1891000D02*
X1884100D01*
X1940000Y1503000D02*
X1931700D01*
X1924800D02*
X1923300D01*
X1921600D02*
X1919900D01*
X1916400D02*
X1913300D01*
X1911200D02*
X1909500D01*
X1904400D02*
X1901100D01*
X1899400D02*
X1897900D01*
X1896000D02*
X1894500D01*
X1891000D02*
X1884100D01*
X1940000Y1503200D02*
X1931700D01*
X1924800D02*
X1923300D01*
X1921600D02*
X1919900D01*
X1916400D02*
X1913300D01*
X1911200D02*
X1909500D01*
X1904400D02*
X1901100D01*
X1899400D02*
X1897900D01*
X1896000D02*
X1894500D01*
X1891000D02*
X1884100D01*
X1940000Y1503400D02*
X1931700D01*
X1924800D02*
X1923300D01*
X1921600D02*
X1919900D01*
X1916400D02*
X1913300D01*
X1911200D02*
X1909500D01*
X1904400D02*
X1901100D01*
X1899400D02*
X1897900D01*
X1896000D02*
X1894500D01*
X1891000D02*
X1884100D01*
X1940000Y1503600D02*
X1931700D01*
X1924800D02*
X1923300D01*
X1921600D02*
X1919900D01*
X1916400D02*
X1913300D01*
X1911200D02*
X1909500D01*
X1904400D02*
X1901100D01*
X1899400D02*
X1897900D01*
X1896000D02*
X1894500D01*
X1891000D02*
X1884100D01*
X1940000Y1503800D02*
X1931700D01*
X1924800D02*
X1923300D01*
X1921600D02*
X1919900D01*
X1916400D02*
X1913300D01*
X1911200D02*
X1909500D01*
X1904400D02*
X1901100D01*
X1899400D02*
X1897900D01*
X1896000D02*
X1894500D01*
X1891000D02*
X1884100D01*
X1940000Y1504000D02*
X1931700D01*
X1924800D02*
X1923300D01*
X1921600D02*
X1919900D01*
X1916400D02*
X1913300D01*
X1911200D02*
X1909500D01*
X1904400D02*
X1901100D01*
X1899400D02*
X1897900D01*
X1896000D02*
X1894500D01*
X1891000D02*
X1884100D01*
X1940000Y1504200D02*
X1926700D01*
X1924800D02*
X1921700D01*
X1919800D02*
X1907900D01*
X1904400D02*
X1894500D01*
X1892600D02*
X1884100D01*
X1940000Y1504400D02*
X1926700D01*
X1924800D02*
X1921700D01*
X1919800D02*
X1907900D01*
X1904400D02*
X1894500D01*
X1892600D02*
X1884100D01*
X1940000Y1504600D02*
X1926700D01*
X1924800D02*
X1921700D01*
X1919800D02*
X1907900D01*
X1904400D02*
X1894500D01*
X1892600D02*
X1884100D01*
X1940000Y1504800D02*
X1926700D01*
X1924800D02*
X1921700D01*
X1919800D02*
X1907900D01*
X1904400D02*
X1894500D01*
X1892600D02*
X1884100D01*
X1940000Y1505000D02*
X1926700D01*
X1924800D02*
X1921700D01*
X1919800D02*
X1907900D01*
X1904400D02*
X1894500D01*
X1892600D02*
X1884100D01*
X1940000Y1505200D02*
X1926700D01*
X1924800D02*
X1921700D01*
X1919800D02*
X1907900D01*
X1904400D02*
X1894500D01*
X1892600D02*
X1884100D01*
X1940000Y1505400D02*
X1926700D01*
X1924800D02*
X1921700D01*
X1919800D02*
X1907900D01*
X1904400D02*
X1894500D01*
X1892600D02*
X1884100D01*
X1940000Y1505600D02*
X1926700D01*
X1924800D02*
X1921700D01*
X1919800D02*
X1907900D01*
X1904400D02*
X1894500D01*
X1892600D02*
X1884100D01*
X1940000Y1505800D02*
X1926700D01*
X1924800D02*
X1921700D01*
X1919800D02*
X1907900D01*
X1904400D02*
X1894500D01*
X1892600D02*
X1884100D01*
X1940000Y1506000D02*
X1933300D01*
X1931600D02*
X1930100D01*
X1926600D02*
X1924900D01*
X1911200D02*
X1907900D01*
X1906200D02*
X1902900D01*
X1899400D02*
X1892700D01*
X1891000D02*
X1884100D01*
X1940000Y1506200D02*
X1933300D01*
X1931600D02*
X1930100D01*
X1926600D02*
X1924900D01*
X1911200D02*
X1907900D01*
X1906200D02*
X1902900D01*
X1899400D02*
X1892700D01*
X1891000D02*
X1884100D01*
X1940000Y1506400D02*
X1933300D01*
X1931600D02*
X1930100D01*
X1926600D02*
X1924900D01*
X1911200D02*
X1907900D01*
X1906200D02*
X1902900D01*
X1899400D02*
X1892700D01*
X1891000D02*
X1884100D01*
X1940000Y1506600D02*
X1933300D01*
X1931600D02*
X1930100D01*
X1926600D02*
X1924900D01*
X1911200D02*
X1907900D01*
X1906200D02*
X1902900D01*
X1899400D02*
X1892700D01*
X1891000D02*
X1884100D01*
X1940000Y1506800D02*
X1933300D01*
X1931600D02*
X1930100D01*
X1926600D02*
X1924900D01*
X1911200D02*
X1907900D01*
X1906200D02*
X1902900D01*
X1899400D02*
X1892700D01*
X1891000D02*
X1884100D01*
X1940000Y1507000D02*
X1933300D01*
X1931600D02*
X1930100D01*
X1926600D02*
X1924900D01*
X1911200D02*
X1907900D01*
X1906200D02*
X1902900D01*
X1899400D02*
X1892700D01*
X1891000D02*
X1884100D01*
X1940000Y1507200D02*
X1933300D01*
X1931600D02*
X1930100D01*
X1926600D02*
X1924900D01*
X1911200D02*
X1907900D01*
X1906200D02*
X1902900D01*
X1899400D02*
X1892700D01*
X1891000D02*
X1884100D01*
X1940000Y1507400D02*
X1933300D01*
X1931600D02*
X1930100D01*
X1926600D02*
X1924900D01*
X1911200D02*
X1907900D01*
X1906200D02*
X1902900D01*
X1899400D02*
X1892700D01*
X1891000D02*
X1884100D01*
X1940000Y1507600D02*
X1933300D01*
X1931600D02*
X1930100D01*
X1926600D02*
X1924900D01*
X1911200D02*
X1907900D01*
X1906200D02*
X1902900D01*
X1899400D02*
X1892700D01*
X1891000D02*
X1884100D01*
X1940000Y1507800D02*
X1933300D01*
X1931600D02*
X1930100D01*
X1926600D02*
X1924900D01*
X1911200D02*
X1907900D01*
X1906200D02*
X1902900D01*
X1899400D02*
X1892700D01*
X1891000D02*
X1884100D01*
X1940000Y1508000D02*
X1930100D01*
X1928200D02*
X1926700D01*
X1924800D02*
X1921700D01*
X1918200D02*
X1914900D01*
X1911200D02*
X1909500D01*
X1906200D02*
X1902900D01*
X1896000D02*
X1892700D01*
X1891000D02*
X1884100D01*
X1940000Y1508200D02*
X1930100D01*
X1928200D02*
X1926700D01*
X1924800D02*
X1921700D01*
X1918200D02*
X1914900D01*
X1911200D02*
X1909500D01*
X1906200D02*
X1902900D01*
X1896000D02*
X1892700D01*
X1891000D02*
X1884100D01*
X1940000Y1508400D02*
X1930100D01*
X1928200D02*
X1926700D01*
X1924800D02*
X1921700D01*
X1918200D02*
X1914900D01*
X1911200D02*
X1909500D01*
X1906200D02*
X1902900D01*
X1896000D02*
X1892700D01*
X1891000D02*
X1884100D01*
X1940000Y1508600D02*
X1930100D01*
X1928200D02*
X1926700D01*
X1924800D02*
X1921700D01*
X1918200D02*
X1914900D01*
X1911200D02*
X1909500D01*
X1906200D02*
X1902900D01*
X1896000D02*
X1892700D01*
X1891000D02*
X1884100D01*
X1940000Y1508800D02*
X1930100D01*
X1928200D02*
X1926700D01*
X1924800D02*
X1921700D01*
X1918200D02*
X1914900D01*
X1911200D02*
X1909500D01*
X1906200D02*
X1902900D01*
X1896000D02*
X1892700D01*
X1891000D02*
X1884100D01*
X1940000Y1509000D02*
X1930100D01*
X1928200D02*
X1926700D01*
X1924800D02*
X1921700D01*
X1918200D02*
X1914900D01*
X1911200D02*
X1909500D01*
X1906200D02*
X1902900D01*
X1896000D02*
X1892700D01*
X1891000D02*
X1884100D01*
X1940000Y1509200D02*
X1930100D01*
X1928200D02*
X1926700D01*
X1924800D02*
X1921700D01*
X1918200D02*
X1914900D01*
X1911200D02*
X1909500D01*
X1906200D02*
X1902900D01*
X1896000D02*
X1892700D01*
X1891000D02*
X1884100D01*
X1940000Y1509400D02*
X1930100D01*
X1928200D02*
X1926700D01*
X1924800D02*
X1921700D01*
X1918200D02*
X1914900D01*
X1911200D02*
X1909500D01*
X1906200D02*
X1902900D01*
X1896000D02*
X1892700D01*
X1891000D02*
X1884100D01*
X1940000Y1509600D02*
X1930100D01*
X1928200D02*
X1924900D01*
X1919800D02*
X1911300D01*
X1906200D02*
X1904500D01*
X1902800D02*
X1899500D01*
X1896000D02*
X1894500D01*
X1891000D02*
X1884100D01*
X1940000Y1509800D02*
X1930100D01*
X1928200D02*
X1924900D01*
X1919800D02*
X1911300D01*
X1906200D02*
X1904500D01*
X1902800D02*
X1899500D01*
X1896000D02*
X1894500D01*
X1891000D02*
X1884100D01*
X1940000Y1510000D02*
X1930100D01*
X1928200D02*
X1924900D01*
X1919800D02*
X1911300D01*
X1906200D02*
X1904500D01*
X1902800D02*
X1899500D01*
X1896000D02*
X1894500D01*
X1891000D02*
X1884100D01*
X1940000Y1510200D02*
X1930100D01*
X1928200D02*
X1924900D01*
X1919800D02*
X1911300D01*
X1906200D02*
X1904500D01*
X1902800D02*
X1899500D01*
X1896000D02*
X1894500D01*
X1891000D02*
X1884100D01*
X1940000Y1510400D02*
X1930100D01*
X1928200D02*
X1924900D01*
X1919800D02*
X1911300D01*
X1906200D02*
X1904500D01*
X1902800D02*
X1899500D01*
X1896000D02*
X1894500D01*
X1891000D02*
X1884100D01*
X1940000Y1510600D02*
X1930100D01*
X1928200D02*
X1924900D01*
X1919800D02*
X1911300D01*
X1906200D02*
X1904500D01*
X1902800D02*
X1899500D01*
X1896000D02*
X1894500D01*
X1891000D02*
X1884100D01*
X1940000Y1510800D02*
X1930100D01*
X1928200D02*
X1924900D01*
X1919800D02*
X1911300D01*
X1906200D02*
X1904500D01*
X1902800D02*
X1899500D01*
X1896000D02*
X1894500D01*
X1891000D02*
X1884100D01*
X1940000Y1511000D02*
X1930100D01*
X1928200D02*
X1924900D01*
X1919800D02*
X1911300D01*
X1906200D02*
X1904500D01*
X1902800D02*
X1899500D01*
X1896000D02*
X1894500D01*
X1891000D02*
X1884100D01*
X1940000Y1511200D02*
X1931700D01*
X1928200D02*
X1924900D01*
X1923200D02*
X1919900D01*
X1918200D02*
X1916500D01*
X1904400D02*
X1901100D01*
X1892600D02*
X1884100D01*
X1940000Y1511400D02*
X1931700D01*
X1928200D02*
X1924900D01*
X1923200D02*
X1919900D01*
X1918200D02*
X1916500D01*
X1904400D02*
X1901100D01*
X1892600D02*
X1884100D01*
X1940000Y1511600D02*
X1931700D01*
X1928200D02*
X1924900D01*
X1923200D02*
X1919900D01*
X1918200D02*
X1916500D01*
X1904400D02*
X1901100D01*
X1892600D02*
X1884100D01*
X1940000Y1511800D02*
X1931700D01*
X1928200D02*
X1924900D01*
X1923200D02*
X1919900D01*
X1918200D02*
X1916500D01*
X1904400D02*
X1901100D01*
X1892600D02*
X1884100D01*
X1940000Y1512000D02*
X1931700D01*
X1928200D02*
X1924900D01*
X1923200D02*
X1919900D01*
X1918200D02*
X1916500D01*
X1904400D02*
X1901100D01*
X1892600D02*
X1884100D01*
X1940000Y1512200D02*
X1931700D01*
X1928200D02*
X1924900D01*
X1923200D02*
X1919900D01*
X1918200D02*
X1916500D01*
X1904400D02*
X1901100D01*
X1892600D02*
X1884100D01*
X1940000Y1512400D02*
X1931700D01*
X1928200D02*
X1924900D01*
X1923200D02*
X1919900D01*
X1918200D02*
X1916500D01*
X1904400D02*
X1901100D01*
X1892600D02*
X1884100D01*
X1940000Y1512600D02*
X1931700D01*
X1928200D02*
X1924900D01*
X1923200D02*
X1919900D01*
X1918200D02*
X1916500D01*
X1904400D02*
X1901100D01*
X1892600D02*
X1884100D01*
X1940000Y1512800D02*
X1931700D01*
X1928200D02*
X1924900D01*
X1923200D02*
X1919900D01*
X1918200D02*
X1916500D01*
X1904400D02*
X1901100D01*
X1892600D02*
X1884100D01*
X1940000Y1513000D02*
X1933300D01*
X1930000D02*
X1924900D01*
X1919800D02*
X1918300D01*
X1914800D02*
X1911300D01*
X1909400D02*
X1899500D01*
X1896000D02*
X1884100D01*
X1940000Y1513200D02*
X1933300D01*
X1930000D02*
X1924900D01*
X1919800D02*
X1918300D01*
X1914800D02*
X1911300D01*
X1909400D02*
X1899500D01*
X1896000D02*
X1884100D01*
X1940000Y1513400D02*
X1933300D01*
X1930000D02*
X1924900D01*
X1919800D02*
X1918300D01*
X1914800D02*
X1911300D01*
X1909400D02*
X1899500D01*
X1896000D02*
X1884100D01*
X1940000Y1513600D02*
X1933300D01*
X1930000D02*
X1924900D01*
X1919800D02*
X1918300D01*
X1914800D02*
X1911300D01*
X1909400D02*
X1899500D01*
X1896000D02*
X1884100D01*
X1940000Y1513800D02*
X1933300D01*
X1930000D02*
X1924900D01*
X1919800D02*
X1918300D01*
X1914800D02*
X1911300D01*
X1909400D02*
X1899500D01*
X1896000D02*
X1884100D01*
X1940000Y1514000D02*
X1933300D01*
X1930000D02*
X1924900D01*
X1919800D02*
X1918300D01*
X1914800D02*
X1911300D01*
X1909400D02*
X1899500D01*
X1896000D02*
X1884100D01*
X1940000Y1514200D02*
X1933300D01*
X1930000D02*
X1924900D01*
X1919800D02*
X1918300D01*
X1914800D02*
X1911300D01*
X1909400D02*
X1899500D01*
X1896000D02*
X1884100D01*
X1940000Y1514400D02*
X1933300D01*
X1930000D02*
X1924900D01*
X1919800D02*
X1918300D01*
X1914800D02*
X1911300D01*
X1909400D02*
X1899500D01*
X1896000D02*
X1884100D01*
X1940000Y1514600D02*
X1913300D01*
X1911200D02*
X1909500D01*
X1904400D02*
X1884100D01*
X1940000Y1514800D02*
X1913300D01*
X1911200D02*
X1909500D01*
X1904400D02*
X1884100D01*
X1940000Y1515000D02*
X1913300D01*
X1911200D02*
X1909500D01*
X1904400D02*
X1884100D01*
X1940000Y1515200D02*
X1913300D01*
X1911200D02*
X1909500D01*
X1904400D02*
X1884100D01*
X1940000Y1515400D02*
X1913300D01*
X1911200D02*
X1909500D01*
X1904400D02*
X1884100D01*
X1940000Y1515600D02*
X1913300D01*
X1911200D02*
X1909500D01*
X1904400D02*
X1884100D01*
X1940000Y1515800D02*
X1913300D01*
X1911200D02*
X1909500D01*
X1904400D02*
X1884100D01*
X1940000Y1516000D02*
X1913300D01*
X1911200D02*
X1909500D01*
X1904400D02*
X1884100D01*
X1940000Y1516200D02*
X1913300D01*
X1911200D02*
X1909500D01*
X1904400D02*
X1884100D01*
X1940000Y1516400D02*
X1933300D01*
X1921600D02*
X1919900D01*
X1918200D02*
X1916500D01*
X1914800D02*
X1913300D01*
X1911200D02*
X1909500D01*
X1907800D02*
X1906300D01*
X1904400D02*
X1902900D01*
X1891000D02*
X1884100D01*
X1940000Y1516600D02*
X1933300D01*
X1921600D02*
X1919900D01*
X1918200D02*
X1916500D01*
X1914800D02*
X1913300D01*
X1911200D02*
X1909500D01*
X1907800D02*
X1906300D01*
X1904400D02*
X1902900D01*
X1891000D02*
X1884100D01*
X1940000Y1516800D02*
X1933300D01*
X1921600D02*
X1919900D01*
X1918200D02*
X1916500D01*
X1914800D02*
X1913300D01*
X1911200D02*
X1909500D01*
X1907800D02*
X1906300D01*
X1904400D02*
X1902900D01*
X1891000D02*
X1884100D01*
X1940000Y1517000D02*
X1933300D01*
X1921600D02*
X1919900D01*
X1918200D02*
X1916500D01*
X1914800D02*
X1913300D01*
X1911200D02*
X1909500D01*
X1907800D02*
X1906300D01*
X1904400D02*
X1902900D01*
X1891000D02*
X1884100D01*
X1940000Y1517200D02*
X1933300D01*
X1921600D02*
X1919900D01*
X1918200D02*
X1916500D01*
X1914800D02*
X1913300D01*
X1911200D02*
X1909500D01*
X1907800D02*
X1906300D01*
X1904400D02*
X1902900D01*
X1891000D02*
X1884100D01*
X1940000Y1517400D02*
X1933300D01*
X1921600D02*
X1919900D01*
X1918200D02*
X1916500D01*
X1914800D02*
X1913300D01*
X1911200D02*
X1909500D01*
X1907800D02*
X1906300D01*
X1904400D02*
X1902900D01*
X1891000D02*
X1884100D01*
X1940000Y1517600D02*
X1933300D01*
X1921600D02*
X1919900D01*
X1918200D02*
X1916500D01*
X1914800D02*
X1913300D01*
X1911200D02*
X1909500D01*
X1907800D02*
X1906300D01*
X1904400D02*
X1902900D01*
X1891000D02*
X1884100D01*
X1940000Y1517800D02*
X1933300D01*
X1921600D02*
X1919900D01*
X1918200D02*
X1916500D01*
X1914800D02*
X1913300D01*
X1911200D02*
X1909500D01*
X1907800D02*
X1906300D01*
X1904400D02*
X1902900D01*
X1891000D02*
X1884100D01*
X1940000Y1518000D02*
X1933300D01*
X1931600D02*
X1923300D01*
X1921600D02*
X1918300D01*
X1916400D02*
X1909500D01*
X1907800D02*
X1902900D01*
X1901000D02*
X1892700D01*
X1891000D02*
X1884100D01*
X1940000Y1518200D02*
X1933300D01*
X1931600D02*
X1923300D01*
X1921600D02*
X1918300D01*
X1916400D02*
X1909500D01*
X1907800D02*
X1902900D01*
X1901000D02*
X1892700D01*
X1891000D02*
X1884100D01*
X1940000Y1518400D02*
X1933300D01*
X1931600D02*
X1923300D01*
X1921600D02*
X1918300D01*
X1916400D02*
X1909500D01*
X1907800D02*
X1902900D01*
X1901000D02*
X1892700D01*
X1891000D02*
X1884100D01*
X1940000Y1518600D02*
X1933300D01*
X1931600D02*
X1923300D01*
X1921600D02*
X1918300D01*
X1916400D02*
X1909500D01*
X1907800D02*
X1902900D01*
X1901000D02*
X1892700D01*
X1891000D02*
X1884100D01*
X1940000Y1518800D02*
X1933300D01*
X1931600D02*
X1923300D01*
X1921600D02*
X1918300D01*
X1916400D02*
X1909500D01*
X1907800D02*
X1902900D01*
X1901000D02*
X1892700D01*
X1891000D02*
X1884100D01*
X1940000Y1519000D02*
X1933300D01*
X1931600D02*
X1923300D01*
X1921600D02*
X1918300D01*
X1916400D02*
X1909500D01*
X1907800D02*
X1902900D01*
X1901000D02*
X1892700D01*
X1891000D02*
X1884100D01*
X1940000Y1519200D02*
X1933300D01*
X1931600D02*
X1923300D01*
X1921600D02*
X1918300D01*
X1916400D02*
X1909500D01*
X1907800D02*
X1902900D01*
X1901000D02*
X1892700D01*
X1891000D02*
X1884100D01*
X1940000Y1519400D02*
X1933300D01*
X1931600D02*
X1923300D01*
X1921600D02*
X1918300D01*
X1916400D02*
X1909500D01*
X1907800D02*
X1902900D01*
X1901000D02*
X1892700D01*
X1891000D02*
X1884100D01*
X1940000Y1519600D02*
X1933300D01*
X1931600D02*
X1930100D01*
X1924800D02*
X1923300D01*
X1921600D02*
X1919900D01*
X1909400D02*
X1906300D01*
X1904400D02*
X1902900D01*
X1901000D02*
X1899500D01*
X1894400D02*
X1892700D01*
X1891000D02*
X1884100D01*
X1940000Y1519800D02*
X1933300D01*
X1931600D02*
X1930100D01*
X1924800D02*
X1923300D01*
X1921600D02*
X1919900D01*
X1909400D02*
X1906300D01*
X1904400D02*
X1902900D01*
X1901000D02*
X1899500D01*
X1894400D02*
X1892700D01*
X1891000D02*
X1884100D01*
X1940000Y1520000D02*
X1933300D01*
X1931600D02*
X1930100D01*
X1924800D02*
X1923300D01*
X1921600D02*
X1919900D01*
X1909400D02*
X1906300D01*
X1904400D02*
X1902900D01*
X1901000D02*
X1899500D01*
X1894400D02*
X1892700D01*
X1891000D02*
X1884100D01*
X1940000Y1520200D02*
X1933300D01*
X1931600D02*
X1930100D01*
X1924800D02*
X1923300D01*
X1921600D02*
X1919900D01*
X1909400D02*
X1906300D01*
X1904400D02*
X1902900D01*
X1901000D02*
X1899500D01*
X1894400D02*
X1892700D01*
X1891000D02*
X1884100D01*
X1940000Y1520400D02*
X1933300D01*
X1931600D02*
X1930100D01*
X1924800D02*
X1923300D01*
X1921600D02*
X1919900D01*
X1909400D02*
X1906300D01*
X1904400D02*
X1902900D01*
X1901000D02*
X1899500D01*
X1894400D02*
X1892700D01*
X1891000D02*
X1884100D01*
X1940000Y1520600D02*
X1933300D01*
X1931600D02*
X1930100D01*
X1924800D02*
X1923300D01*
X1921600D02*
X1919900D01*
X1909400D02*
X1906300D01*
X1904400D02*
X1902900D01*
X1901000D02*
X1899500D01*
X1894400D02*
X1892700D01*
X1891000D02*
X1884100D01*
X1940000Y1520800D02*
X1933300D01*
X1931600D02*
X1930100D01*
X1924800D02*
X1923300D01*
X1921600D02*
X1919900D01*
X1909400D02*
X1906300D01*
X1904400D02*
X1902900D01*
X1901000D02*
X1899500D01*
X1894400D02*
X1892700D01*
X1891000D02*
X1884100D01*
X1940000Y1521000D02*
X1933300D01*
X1931600D02*
X1930100D01*
X1924800D02*
X1923300D01*
X1921600D02*
X1919900D01*
X1909400D02*
X1906300D01*
X1904400D02*
X1902900D01*
X1901000D02*
X1899500D01*
X1894400D02*
X1892700D01*
X1891000D02*
X1884100D01*
X1940000Y1521200D02*
X1933300D01*
X1931600D02*
X1930100D01*
X1924800D02*
X1923300D01*
X1921600D02*
X1919900D01*
X1909400D02*
X1906300D01*
X1904400D02*
X1902900D01*
X1901000D02*
X1899500D01*
X1894400D02*
X1892700D01*
X1891000D02*
X1884100D01*
X1940000Y1521400D02*
X1933300D01*
X1931600D02*
X1930100D01*
X1924800D02*
X1923300D01*
X1921600D02*
X1919900D01*
X1913200D02*
X1911300D01*
X1909400D02*
X1906300D01*
X1904400D02*
X1902900D01*
X1901000D02*
X1899500D01*
X1894400D02*
X1892700D01*
X1891000D02*
X1884100D01*
X1940000Y1521600D02*
X1933300D01*
X1931600D02*
X1930100D01*
X1924800D02*
X1923300D01*
X1921600D02*
X1919900D01*
X1913200D02*
X1911300D01*
X1909400D02*
X1906300D01*
X1904400D02*
X1902900D01*
X1901000D02*
X1899500D01*
X1894400D02*
X1892700D01*
X1891000D02*
X1884100D01*
X1940000Y1521800D02*
X1933300D01*
X1931600D02*
X1930100D01*
X1924800D02*
X1923300D01*
X1921600D02*
X1919900D01*
X1913200D02*
X1911300D01*
X1909400D02*
X1906300D01*
X1904400D02*
X1902900D01*
X1901000D02*
X1899500D01*
X1894400D02*
X1892700D01*
X1891000D02*
X1884100D01*
X1940000Y1522000D02*
X1933300D01*
X1931600D02*
X1930100D01*
X1924800D02*
X1923300D01*
X1921600D02*
X1919900D01*
X1913200D02*
X1911300D01*
X1909400D02*
X1906300D01*
X1904400D02*
X1902900D01*
X1901000D02*
X1899500D01*
X1894400D02*
X1892700D01*
X1891000D02*
X1884100D01*
X1940000Y1522200D02*
X1933300D01*
X1931600D02*
X1930100D01*
X1924800D02*
X1923300D01*
X1921600D02*
X1919900D01*
X1913200D02*
X1911300D01*
X1909400D02*
X1906300D01*
X1904400D02*
X1902900D01*
X1901000D02*
X1899500D01*
X1894400D02*
X1892700D01*
X1891000D02*
X1884100D01*
X1940000Y1522400D02*
X1933300D01*
X1931600D02*
X1930100D01*
X1924800D02*
X1923300D01*
X1921600D02*
X1919900D01*
X1913200D02*
X1911300D01*
X1909400D02*
X1906300D01*
X1904400D02*
X1902900D01*
X1901000D02*
X1899500D01*
X1894400D02*
X1892700D01*
X1891000D02*
X1884100D01*
X1940000Y1522600D02*
X1933300D01*
X1931600D02*
X1930100D01*
X1924800D02*
X1923300D01*
X1921600D02*
X1919900D01*
X1913200D02*
X1911300D01*
X1909400D02*
X1906300D01*
X1904400D02*
X1902900D01*
X1901000D02*
X1899500D01*
X1894400D02*
X1892700D01*
X1891000D02*
X1884100D01*
X1940000Y1522800D02*
X1933300D01*
X1931600D02*
X1930100D01*
X1924800D02*
X1923300D01*
X1921600D02*
X1919900D01*
X1913200D02*
X1911300D01*
X1909400D02*
X1906300D01*
X1904400D02*
X1902900D01*
X1901000D02*
X1899500D01*
X1894400D02*
X1892700D01*
X1891000D02*
X1884100D01*
X1940000Y1523000D02*
X1933300D01*
X1931600D02*
X1930100D01*
X1924800D02*
X1923300D01*
X1921600D02*
X1918300D01*
X1916400D02*
X1913300D01*
X1911200D02*
X1909500D01*
X1907800D02*
X1902900D01*
X1901000D02*
X1899500D01*
X1894400D02*
X1892700D01*
X1891000D02*
X1884100D01*
X1940000Y1523200D02*
X1933300D01*
X1931600D02*
X1930100D01*
X1924800D02*
X1923300D01*
X1921600D02*
X1918300D01*
X1916400D02*
X1913300D01*
X1911200D02*
X1909500D01*
X1907800D02*
X1902900D01*
X1901000D02*
X1899500D01*
X1894400D02*
X1892700D01*
X1891000D02*
X1884100D01*
X1940000Y1523400D02*
X1933300D01*
X1931600D02*
X1930100D01*
X1924800D02*
X1923300D01*
X1921600D02*
X1918300D01*
X1916400D02*
X1913300D01*
X1911200D02*
X1909500D01*
X1907800D02*
X1902900D01*
X1901000D02*
X1899500D01*
X1894400D02*
X1892700D01*
X1891000D02*
X1884100D01*
X1940000Y1523600D02*
X1933300D01*
X1931600D02*
X1930100D01*
X1924800D02*
X1923300D01*
X1921600D02*
X1918300D01*
X1916400D02*
X1913300D01*
X1911200D02*
X1909500D01*
X1907800D02*
X1902900D01*
X1901000D02*
X1899500D01*
X1894400D02*
X1892700D01*
X1891000D02*
X1884100D01*
X1940000Y1523800D02*
X1933300D01*
X1931600D02*
X1930100D01*
X1924800D02*
X1923300D01*
X1921600D02*
X1918300D01*
X1916400D02*
X1913300D01*
X1911200D02*
X1909500D01*
X1907800D02*
X1902900D01*
X1901000D02*
X1899500D01*
X1894400D02*
X1892700D01*
X1891000D02*
X1884100D01*
X1940000Y1524000D02*
X1933300D01*
X1931600D02*
X1930100D01*
X1924800D02*
X1923300D01*
X1921600D02*
X1918300D01*
X1916400D02*
X1913300D01*
X1911200D02*
X1909500D01*
X1907800D02*
X1902900D01*
X1901000D02*
X1899500D01*
X1894400D02*
X1892700D01*
X1891000D02*
X1884100D01*
X1940000Y1524200D02*
X1933300D01*
X1931600D02*
X1930100D01*
X1924800D02*
X1923300D01*
X1921600D02*
X1918300D01*
X1916400D02*
X1913300D01*
X1911200D02*
X1909500D01*
X1907800D02*
X1902900D01*
X1901000D02*
X1899500D01*
X1894400D02*
X1892700D01*
X1891000D02*
X1884100D01*
X1940000Y1524400D02*
X1933300D01*
X1931600D02*
X1930100D01*
X1924800D02*
X1923300D01*
X1921600D02*
X1918300D01*
X1916400D02*
X1913300D01*
X1911200D02*
X1909500D01*
X1907800D02*
X1902900D01*
X1901000D02*
X1899500D01*
X1894400D02*
X1892700D01*
X1891000D02*
X1884100D01*
X1940000Y1524600D02*
X1933300D01*
X1931600D02*
X1930100D01*
X1924800D02*
X1923300D01*
X1921600D02*
X1918300D01*
X1916400D02*
X1913300D01*
X1911200D02*
X1909500D01*
X1907800D02*
X1902900D01*
X1901000D02*
X1899500D01*
X1894400D02*
X1892700D01*
X1891000D02*
X1884100D01*
X1940000Y1524800D02*
X1933300D01*
X1931600D02*
X1923300D01*
X1921600D02*
X1911300D01*
X1907800D02*
X1906300D01*
X1904400D02*
X1902900D01*
X1901000D02*
X1892700D01*
X1891000D02*
X1884100D01*
X1940000Y1525000D02*
X1933300D01*
X1931600D02*
X1923300D01*
X1921600D02*
X1911300D01*
X1907800D02*
X1906300D01*
X1904400D02*
X1902900D01*
X1901000D02*
X1892700D01*
X1891000D02*
X1884100D01*
X1940000Y1525200D02*
X1933300D01*
X1931600D02*
X1923300D01*
X1921600D02*
X1911300D01*
X1907800D02*
X1906300D01*
X1904400D02*
X1902900D01*
X1901000D02*
X1892700D01*
X1891000D02*
X1884100D01*
X1940000Y1525400D02*
X1933300D01*
X1931600D02*
X1923300D01*
X1921600D02*
X1911300D01*
X1907800D02*
X1906300D01*
X1904400D02*
X1902900D01*
X1901000D02*
X1892700D01*
X1891000D02*
X1884100D01*
X1940000Y1525600D02*
X1933300D01*
X1931600D02*
X1923300D01*
X1921600D02*
X1911300D01*
X1907800D02*
X1906300D01*
X1904400D02*
X1902900D01*
X1901000D02*
X1892700D01*
X1891000D02*
X1884100D01*
X1940000Y1525800D02*
X1933300D01*
X1931600D02*
X1923300D01*
X1921600D02*
X1911300D01*
X1907800D02*
X1906300D01*
X1904400D02*
X1902900D01*
X1901000D02*
X1892700D01*
X1891000D02*
X1884100D01*
X1940000Y1526000D02*
X1933300D01*
X1931600D02*
X1923300D01*
X1921600D02*
X1911300D01*
X1907800D02*
X1906300D01*
X1904400D02*
X1902900D01*
X1901000D02*
X1892700D01*
X1891000D02*
X1884100D01*
X1940000Y1526200D02*
X1933300D01*
X1931600D02*
X1923300D01*
X1921600D02*
X1911300D01*
X1907800D02*
X1906300D01*
X1904400D02*
X1902900D01*
X1901000D02*
X1892700D01*
X1891000D02*
X1884100D01*
X1940000Y1526400D02*
X1933300D01*
X1921600D02*
X1918300D01*
X1916400D02*
X1913300D01*
X1911200D02*
X1909500D01*
X1907800D02*
X1902900D01*
X1891000D02*
X1884100D01*
X1940000Y1526600D02*
X1933300D01*
X1921600D02*
X1918300D01*
X1916400D02*
X1913300D01*
X1911200D02*
X1909500D01*
X1907800D02*
X1902900D01*
X1891000D02*
X1884100D01*
X1940000Y1526800D02*
X1933300D01*
X1921600D02*
X1918300D01*
X1916400D02*
X1913300D01*
X1911200D02*
X1909500D01*
X1907800D02*
X1902900D01*
X1891000D02*
X1884100D01*
X1940000Y1527000D02*
X1933300D01*
X1921600D02*
X1918300D01*
X1916400D02*
X1913300D01*
X1911200D02*
X1909500D01*
X1907800D02*
X1902900D01*
X1891000D02*
X1884100D01*
X1940000Y1527200D02*
X1933300D01*
X1921600D02*
X1918300D01*
X1916400D02*
X1913300D01*
X1911200D02*
X1909500D01*
X1907800D02*
X1902900D01*
X1891000D02*
X1884100D01*
X1940000Y1527400D02*
X1933300D01*
X1921600D02*
X1918300D01*
X1916400D02*
X1913300D01*
X1911200D02*
X1909500D01*
X1907800D02*
X1902900D01*
X1891000D02*
X1884100D01*
X1940000Y1527600D02*
X1933300D01*
X1921600D02*
X1918300D01*
X1916400D02*
X1913300D01*
X1911200D02*
X1909500D01*
X1907800D02*
X1902900D01*
X1891000D02*
X1884100D01*
X1940000Y1527800D02*
X1933300D01*
X1921600D02*
X1918300D01*
X1916400D02*
X1913300D01*
X1911200D02*
X1909500D01*
X1907800D02*
X1902900D01*
X1891000D02*
X1884100D01*
X1940000Y1528000D02*
X1884100D01*
X1940000Y1528200D02*
X1884100D01*
X1940000Y1528400D02*
X1884100D01*
X1940000Y1528600D02*
X1884100D01*
X1940000Y1528800D02*
X1884100D01*
X1940000Y1529000D02*
X1884100D01*
X1940000Y1529200D02*
X1884100D01*
X1940000Y1529400D02*
X1884100D01*
X1940000Y1529600D02*
X1884100D01*
X1940000Y1529800D02*
X1884100D01*
X1940000Y1530000D02*
X1884100D01*
X1940000Y1530200D02*
X1884100D01*
X1940000Y1530400D02*
X1884100D01*
X1940000Y1530600D02*
X1884100D01*
X1940000Y1530800D02*
X1884100D01*
X1940000Y1531000D02*
X1884100D01*
X1940000Y1531200D02*
X1884100D01*
X1940000Y1531400D02*
X1884100D01*
X1940000Y1531600D02*
X1884100D01*
X1940000Y1531800D02*
X1884100D01*
X1940000Y1532000D02*
X1884100D01*
X1940000Y1532200D02*
X1884100D01*
X1940000Y1532400D02*
X1884100D01*
X1940000Y1532600D02*
X1884100D01*
X1940000Y1532800D02*
X1884100D01*
X1940000Y1533000D02*
X1884100D01*
X1940000Y1533200D02*
X1884100D01*
X1940000Y1533400D02*
X1884100D01*
X1940000Y1533600D02*
X1884100D01*
X1940000Y1533800D02*
X1884100D01*
X1940000Y1534000D02*
X1884100D01*
X1940000Y1534200D02*
X1884100D01*
X1940000Y1534400D02*
X1884100D01*
X1940000Y1534600D02*
X1884100D01*
G74*
X0Y0D02*
M02*
