*
*
G04 PADS VX.0 Build Number: 635560 generated Gerber (RS-274-X) file*
G04 PC Version=2.1*
*
%IN "DC1823B-1.pcb"*%
*
%MOIN*%
*
%FSLAX35Y35*%
*
*
*
*
G04 PC Standard Apertures*
*
*
G04 Thermal Relief Aperture macro.*
%AMTER*
1,1,$1,0,0*
1,0,$1-$2,0,0*
21,0,$3,$4,0,0,45*
21,0,$3,$4,0,0,135*
%
*
*
G04 Annular Aperture macro.*
%AMANN*
1,1,$1,0,0*
1,0,$2,0,0*
%
*
*
G04 Odd Aperture macro.*
%AMODD*
1,1,$1,0,0*
1,0,$1-0.005,0,0*
%
*
*
G04 PC Custom Aperture Macros*
*
*
*
*
*
*
G04 PC Aperture Table*
*
%ADD010C,0.06*%
%ADD011C,0.15*%
%ADD012R,0.06X0.06*%
%ADD018C,0.07*%
%ADD019C,0.01*%
%ADD025C,0.005*%
%ADD026C,0.008*%
%ADD077C,0.024*%
%ADD095C,0.001*%
%ADD219C,0.065*%
%ADD236C,0.187*%
%ADD311C,0.018*%
%ADD369C,0.072*%
%ADD390C,0.325*%
*
*
*
*
G04 PC Circuitry*
G04 Layer Name DC1823B-1.pcb - circuitry*
%LPD*%
*
*
G04 PC Custom Flashes*
G04 Layer Name DC1823B-1.pcb - flashes*
%LPD*%
*
*
G04 PC Circuitry*
G04 Layer Name DC1823B-1.pcb - circuitry*
%LPD*%
*
G54D10*
G01X830000Y652500D03*
G54D11*
X530000Y600000D03*
Y700000D03*
X870000D03*
Y600000D03*
G54D12*
X810000Y652500D03*
G54D18*
X857500Y790000D03*
X542500Y510000D03*
G54D19*
X527500Y481563D02*
Y475000D01*
X530227*
X532273Y481563D02*
Y475000D01*
X534318Y481563D02*
Y475000D01*
Y481563D02*
X537500Y475000D01*
Y481563D02*
Y475000D01*
X539545Y481563D02*
Y475000D01*
Y481563D02*
X542500D01*
X539545Y478438D02*
X541364D01*
X539545Y475000D02*
X542500D01*
X546364Y481563D02*
X544545Y475000D01*
X546364Y481563D02*
X548182Y475000D01*
X545227Y477188D02*
X547500D01*
X550227Y481563D02*
Y475000D01*
Y481563D02*
X552273D01*
X552273D02*
X552955Y481250D01*
X553182Y480938*
X553182D02*
X553409Y480313D01*
X553409D02*
Y479688D01*
X553409D02*
X553182Y479063D01*
X553182D02*
X552955Y478750D01*
X552273Y478438*
X552273D02*
X550227D01*
X551818D02*
X553409Y475000D01*
X562273Y481563D02*
Y475000D01*
X560682Y481563D02*
X563864D01*
X565909D02*
Y475000D01*
Y481563D02*
X568864D01*
X565909Y478438D02*
X567727D01*
X565909Y475000D02*
X568864D01*
X574318Y480000D02*
X574091Y480625D01*
X573636Y481250*
X573182Y481563*
X573182D02*
X572273D01*
X572273D02*
X571818Y481250D01*
X571364Y480625*
X571136Y480000*
X570909Y479063*
X570909D02*
Y477500D01*
X571136Y476563*
X571136D02*
X571364Y475938D01*
X571364D02*
X571818Y475313D01*
X571818D02*
X572273Y475000D01*
X573182*
X573636Y475313*
X573636D02*
X574091Y475938D01*
X574091D02*
X574318Y476563D01*
X576364Y481563D02*
Y475000D01*
X579545Y481563D02*
Y475000D01*
X576364Y478438D02*
X579545D01*
X581591Y481563D02*
Y475000D01*
Y481563D02*
X584773Y475000D01*
Y481563D02*
Y475000D01*
X588182Y481563D02*
X587727Y481250D01*
X587273Y480625*
X587045Y480000*
X586818Y479063*
X586818D02*
Y477500D01*
X587045Y476563*
X587045D02*
X587273Y475938D01*
X587273D02*
X587727Y475313D01*
X587727D02*
X588182Y475000D01*
X589091*
X589545Y475313*
X589545D02*
X590000Y475938D01*
X590000D02*
X590227Y476563D01*
X590227D02*
X590455Y477500D01*
Y479063*
X590455D02*
X590227Y480000D01*
X590000Y480625*
X589545Y481250*
X589091Y481563*
X589091D02*
X588182D01*
X592500D02*
Y475000D01*
X595227*
X598636Y481563D02*
X598182Y481250D01*
X597727Y480625*
X597500Y480000*
X597273Y479063*
X597273D02*
Y477500D01*
X597500Y476563*
X597500D02*
X597727Y475938D01*
X597727D02*
X598182Y475313D01*
X598182D02*
X598636Y475000D01*
X599545*
X600000Y475313*
X600000D02*
X600455Y475938D01*
X600455D02*
X600682Y476563D01*
X600682D02*
X600909Y477500D01*
Y479063*
X600909D02*
X600682Y480000D01*
X600455Y480625*
X600000Y481250*
X599545Y481563*
X599545D02*
X598636D01*
X606364Y480000D02*
X606136Y480625D01*
X605682Y481250*
X605227Y481563*
X605227D02*
X604318D01*
X604318D02*
X603864Y481250D01*
X603409Y480625*
X603182Y480000*
X602955Y479063*
X602955D02*
Y477500D01*
X603182Y476563*
X603182D02*
X603409Y475938D01*
X603409D02*
X603864Y475313D01*
X603864D02*
X604318Y475000D01*
X605227*
X605682Y475313*
X605682D02*
X606136Y475938D01*
X606136D02*
X606364Y476563D01*
X606364D02*
Y477500D01*
X605227D02*
X606364D01*
X608409Y481563D02*
X610227Y478438D01*
X610227D02*
Y475000D01*
X612045Y481563D02*
X610227Y478438D01*
X527500Y469063D02*
Y462500D01*
Y469063D02*
X529091D01*
X529091D02*
X529773Y468750D01*
X530227Y468125*
X530455Y467500*
X530682Y466563*
X530682D02*
Y465000D01*
X530455Y464063*
X530455D02*
X530227Y463438D01*
X530227D02*
X529773Y462813D01*
X529773D02*
X529091Y462500D01*
X527500*
X536136Y467500D02*
X535909Y468125D01*
X535455Y468750*
X535000Y469063*
X535000D02*
X534091D01*
X534091D02*
X533636Y468750D01*
X533182Y468125*
X532955Y467500*
X532727Y466563*
X532727D02*
Y465000D01*
X532955Y464063*
X532955D02*
X533182Y463438D01*
X533182D02*
X533636Y462813D01*
X533636D02*
X534091Y462500D01*
X535000*
X535455Y462813*
X535455D02*
X535909Y463438D01*
X535909D02*
X536136Y464063D01*
X538182Y467813D02*
X538636Y468125D01*
X539318Y469063*
X539318D02*
Y462500D01*
X542500Y469063D02*
X541818Y468750D01*
X541591Y468125*
Y467500*
X541818Y466875*
X542273Y466563*
X542273D02*
X543182Y466250D01*
X543864Y465938*
X543864D02*
X544318Y465313D01*
X544318D02*
X544545Y464688D01*
X544545D02*
Y463750D01*
X544318Y463125*
X544091Y462813*
X544091D02*
X543409Y462500D01*
X542500*
X541818Y462813*
X541818D02*
X541591Y463125D01*
X541364Y463750*
Y464688*
X541364D02*
X541591Y465313D01*
X541591D02*
X542045Y465938D01*
X542045D02*
X542727Y466250D01*
X543636Y466563*
X543636D02*
X544091Y466875D01*
X544318Y467500*
Y468125*
X544091Y468750*
X543409Y469063*
X543409D02*
X542500D01*
X546818Y467500D02*
Y467813D01*
X546818D02*
X547045Y468438D01*
X547045D02*
X547273Y468750D01*
X547727Y469063*
X547727D02*
X548636D01*
X548636D02*
X549091Y468750D01*
X549318Y468438*
X549318D02*
X549545Y467813D01*
X549545D02*
Y467188D01*
X549545D02*
X549318Y466563D01*
X549318D02*
X548864Y465625D01*
X546591Y462500*
X549773*
X552273Y469063D02*
X554773D01*
X554773D02*
X553409Y466563D01*
X553409D02*
X554091D01*
X554091D02*
X554545Y466250D01*
X554773Y465938*
X554773D02*
X555000Y465000D01*
Y464375*
X554773Y463438*
X554773D02*
X554318Y462813D01*
X554318D02*
X553636Y462500D01*
X552955*
X552273Y462813*
X552273D02*
X552045Y463125D01*
X551818Y463750*
X557045Y469063D02*
Y462500D01*
Y469063D02*
X559091D01*
X559091D02*
X559773Y468750D01*
X560000Y468438*
X560000D02*
X560227Y467813D01*
X560227D02*
Y467188D01*
X560227D02*
X560000Y466563D01*
X560000D02*
X559773Y466250D01*
X559091Y465938*
X557045D02*
X559091D01*
X559091D02*
X559773Y465625D01*
X560000Y465313*
X560000D02*
X560227Y464688D01*
X560227D02*
Y463750D01*
X560000Y463125*
X559773Y462813*
X559773D02*
X559091Y462500D01*
X557045*
X562273Y465313D02*
X566364D01*
X568409Y467813D02*
X568864Y468125D01*
X569545Y469063*
X569545D02*
Y462500D01*
X587273Y469063D02*
Y462500D01*
X590000*
X593636Y469063D02*
Y462500D01*
X592045Y469063D02*
X595227D01*
X599545D02*
X597273Y464688D01*
X597273D02*
X600682D01*
X599545Y469063D02*
Y462500D01*
X603182Y469063D02*
X605682D01*
X605682D02*
X604318Y466563D01*
X604318D02*
X605000D01*
X605000D02*
X605455Y466250D01*
X605682Y465938*
X605682D02*
X605909Y465000D01*
Y464375*
X605682Y463438*
X605682D02*
X605227Y462813D01*
X605227D02*
X604545Y462500D01*
X603864*
X603182Y462813*
X603182D02*
X602955Y463125D01*
X602727Y463750*
X608182Y467500D02*
Y467813D01*
X608182D02*
X608409Y468438D01*
X608409D02*
X608636Y468750D01*
X609091Y469063*
X609091D02*
X610000D01*
X610000D02*
X610455Y468750D01*
X610682Y468438*
X610682D02*
X610909Y467813D01*
X610909D02*
Y467188D01*
X610909D02*
X610682Y466563D01*
X610682D02*
X610227Y465625D01*
X607955Y462500*
X611136*
X614545Y469063D02*
X613864Y468750D01*
X613409Y467813*
X613409D02*
X613182Y466250D01*
Y465313*
X613182D02*
X613409Y463750D01*
X613864Y462813*
X613864D02*
X614545Y462500D01*
X615000*
X615682Y462813*
X615682D02*
X616136Y463750D01*
X616364Y465313*
X616364D02*
Y466250D01*
X616136Y467813*
X616136D02*
X615682Y468750D01*
X615000Y469063*
X615000D02*
X614545D01*
X618409D02*
Y462500D01*
X620455Y469063D02*
Y462500D01*
Y469063D02*
X622045D01*
X622045D02*
X622727Y468750D01*
X623182Y468125*
X623409Y467500*
X623636Y466563*
X623636D02*
Y465000D01*
X623409Y464063*
X623409D02*
X623182Y463438D01*
X623182D02*
X622727Y462813D01*
X622727D02*
X622045Y462500D01*
X620455*
X625682Y469063D02*
Y462500D01*
Y469063D02*
X627273D01*
X627273D02*
X627955Y468750D01*
X628409Y468125*
X628636Y467500*
X628864Y466563*
X628864D02*
Y465000D01*
X628636Y464063*
X628636D02*
X628409Y463438D01*
X628409D02*
X627955Y462813D01*
X627955D02*
X627273Y462500D01*
X625682*
X622500Y481563D02*
Y475000D01*
Y481563D02*
X624091D01*
X624091D02*
X624773Y481250D01*
X625227Y480625*
X625455Y480000*
X625682Y479063*
X625682D02*
Y477500D01*
X625455Y476563*
X625455D02*
X625227Y475938D01*
X625227D02*
X624773Y475313D01*
X624773D02*
X624091Y475000D01*
X622500*
X629545Y481563D02*
X627727Y475000D01*
X629545Y481563D02*
X631364Y475000D01*
X628409Y477188D02*
X630682D01*
X635000Y481563D02*
Y475000D01*
X633409Y481563D02*
X636591D01*
X638636D02*
Y475000D01*
Y481563D02*
X641591D01*
X638636Y478438D02*
X640455D01*
X638636Y475000D02*
X641591D01*
X643864Y479375D02*
X643636Y479063D01*
X643636D02*
X643864Y478750D01*
X644091Y479063*
X644091D02*
X643864Y479375D01*
Y475625D02*
X643636Y475313D01*
X643636D02*
X643864Y475000D01*
X644091Y475313*
X644091D02*
X643864Y475625D01*
X651364Y480313D02*
X651818Y480625D01*
X652500Y481563*
X652500D02*
Y475000D01*
X655909Y481563D02*
X655227Y481250D01*
X654773Y480313*
X654773D02*
X654545Y478750D01*
Y477813*
X654545D02*
X654773Y476250D01*
X655227Y475313*
X655227D02*
X655909Y475000D01*
X656364*
X657045Y475313*
X657045D02*
X657500Y476250D01*
X657727Y477813*
X657727D02*
Y478750D01*
X657500Y480313*
X657500D02*
X657045Y481250D01*
X656364Y481563*
X656364D02*
X655909D01*
X659773Y477813D02*
X663864D01*
X667273Y481563D02*
X666591Y481250D01*
X666136Y480313*
X666136D02*
X665909Y478750D01*
Y477813*
X665909D02*
X666136Y476250D01*
X666591Y475313*
X666591D02*
X667273Y475000D01*
X667727*
X668409Y475313*
X668409D02*
X668864Y476250D01*
X669091Y477813*
X669091D02*
Y478750D01*
X668864Y480313*
X668864D02*
X668409Y481250D01*
X667727Y481563*
X667727D02*
X667273D01*
X673864Y480625D02*
X673636Y481250D01*
X672955Y481563*
X672955D02*
X672500D01*
X672500D02*
X671818Y481250D01*
X671364Y480313*
X671364D02*
X671136Y478750D01*
Y477188*
X671136D02*
X671364Y475938D01*
X671364D02*
X671818Y475313D01*
X671818D02*
X672500Y475000D01*
X672727*
X673409Y475313*
X673409D02*
X673864Y475938D01*
X673864D02*
X674091Y476875D01*
Y477188*
X674091D02*
X673864Y478125D01*
X673409Y478750*
X672727Y479063*
X672727D02*
X672500D01*
X672500D02*
X671818Y478750D01*
X671364Y478125*
X671136Y477188*
X676136Y477813D02*
X680227D01*
X682273Y480313D02*
X682727Y480625D01*
X683409Y481563*
X683409D02*
Y475000D01*
X688409Y481563D02*
X686136D01*
X686136D02*
X685909Y478750D01*
X686136Y479063*
X686136D02*
X686818Y479375D01*
X687500*
X688182Y479063*
X688182D02*
X688636Y478438D01*
X688636D02*
X688864Y477500D01*
X688636Y476875*
X688409Y475938*
X688409D02*
X687955Y475313D01*
X687955D02*
X687273Y475000D01*
X686591*
X685909Y475313*
X685909D02*
X685682Y475625D01*
X685455Y476250*
X527500Y456563D02*
Y450000D01*
X529545Y456563D02*
Y450000D01*
Y456563D02*
X531136D01*
X531136D02*
X531818Y456250D01*
X532273Y455625*
X532500Y455000*
X532727Y454063*
X532727D02*
Y452500D01*
X532500Y451563*
X532500D02*
X532273Y450938D01*
X532273D02*
X531818Y450313D01*
X531818D02*
X531136Y450000D01*
X529545*
X534773Y456563D02*
Y450000D01*
Y456563D02*
X537727D01*
X534773Y453438D02*
X536591D01*
X534773Y450000D02*
X537727D01*
X541591Y456563D02*
X539773Y450000D01*
X541591Y456563D02*
X543409Y450000D01*
X540455Y452188D02*
X542727D01*
X545455Y456563D02*
Y450000D01*
X548182*
X555455Y456563D02*
Y450000D01*
Y456563D02*
X557045D01*
X557045D02*
X557727Y456250D01*
X558182Y455625*
X558409Y455000*
X558636Y454063*
X558636D02*
Y452500D01*
X558409Y451563*
X558409D02*
X558182Y450938D01*
X558182D02*
X557727Y450313D01*
X557727D02*
X557045Y450000D01*
X555455*
X560682Y456563D02*
Y450000D01*
X564091Y456563D02*
X563636Y456250D01*
X563182Y455625*
X562955Y455000*
X562727Y454063*
X562727D02*
Y452500D01*
X562955Y451563*
X562955D02*
X563182Y450938D01*
X563182D02*
X563636Y450313D01*
X563636D02*
X564091Y450000D01*
X565000*
X565455Y450313*
X565455D02*
X565909Y450938D01*
X565909D02*
X566136Y451563D01*
X566136D02*
X566364Y452500D01*
Y454063*
X566364D02*
X566136Y455000D01*
X565909Y455625*
X565455Y456250*
X565000Y456563*
X565000D02*
X564091D01*
X568409D02*
Y450000D01*
Y456563D02*
X570000D01*
X570000D02*
X570682Y456250D01*
X571136Y455625*
X571364Y455000*
X571591Y454063*
X571591D02*
Y452500D01*
X571364Y451563*
X571364D02*
X571136Y450938D01*
X571136D02*
X570682Y450313D01*
X570682D02*
X570000Y450000D01*
X568409*
X573636Y456563D02*
Y450000D01*
Y456563D02*
X576591D01*
X573636Y453438D02*
X575455D01*
X573636Y450000D02*
X576591D01*
X583864Y456563D02*
Y450000D01*
Y456563D02*
X585909D01*
X585909D02*
X586591Y456250D01*
X586818Y455938*
X586818D02*
X587045Y455313D01*
X587045D02*
Y454688D01*
X587045D02*
X586818Y454063D01*
X586818D02*
X586591Y453750D01*
X585909Y453438*
X583864D02*
X585909D01*
X585909D02*
X586591Y453125D01*
X586818Y452813*
X586818D02*
X587045Y452188D01*
X587045D02*
Y451250D01*
X586818Y450625*
X586591Y450313*
X586591D02*
X585909Y450000D01*
X583864*
X589091Y456563D02*
Y450000D01*
Y456563D02*
X591136D01*
X591136D02*
X591818Y456250D01*
X592045Y455938*
X592045D02*
X592273Y455313D01*
X592273D02*
Y454688D01*
X592273D02*
X592045Y454063D01*
X592045D02*
X591818Y453750D01*
X591136Y453438*
X591136D02*
X589091D01*
X590682D02*
X592273Y450000D01*
X594318Y456563D02*
Y450000D01*
X596364Y456563D02*
Y450000D01*
Y456563D02*
X597955D01*
X597955D02*
X598636Y456250D01*
X599091Y455625*
X599318Y455000*
X599545Y454063*
X599545D02*
Y452500D01*
X599318Y451563*
X599318D02*
X599091Y450938D01*
X599091D02*
X598636Y450313D01*
X598636D02*
X597955Y450000D01*
X596364*
X605000Y455000D02*
X604773Y455625D01*
X604318Y456250*
X603864Y456563*
X603864D02*
X602955D01*
X602955D02*
X602500Y456250D01*
X602045Y455625*
X601818Y455000*
X601591Y454063*
X601591D02*
Y452500D01*
X601818Y451563*
X601818D02*
X602045Y450938D01*
X602045D02*
X602500Y450313D01*
X602500D02*
X602955Y450000D01*
X603864*
X604318Y450313*
X604318D02*
X604773Y450938D01*
X604773D02*
X605000Y451563D01*
X605000D02*
Y452500D01*
X603864D02*
X605000D01*
X607045Y456563D02*
Y450000D01*
Y456563D02*
X610000D01*
X607045Y453438D02*
X608864D01*
X607045Y450000D02*
X610000D01*
X617273Y456563D02*
Y450000D01*
Y456563D02*
X620227D01*
X617273Y453438D02*
X619091D01*
X622273Y456563D02*
Y451875D01*
X622500Y450938*
X622500D02*
X622955Y450313D01*
X622955D02*
X623636Y450000D01*
X624091*
X624773Y450313*
X624773D02*
X625227Y450938D01*
X625227D02*
X625455Y451875D01*
Y456563*
X627500D02*
Y450000D01*
X630227*
X632273Y456563D02*
Y450000D01*
X635000*
X642273Y456563D02*
X643409Y450000D01*
X644545Y456563D02*
X643409Y450000D01*
X644545Y456563D02*
X645682Y450000D01*
X646818Y456563D02*
X645682Y450000D01*
X650682Y456563D02*
X648864Y450000D01*
X650682Y456563D02*
X652500Y450000D01*
X649545Y452188D02*
X651818D01*
X654545Y456563D02*
X656364Y450000D01*
X658182Y456563D02*
X656364Y450000D01*
X660227Y456563D02*
Y450000D01*
Y456563D02*
X663182D01*
X660227Y453438D02*
X662045D01*
X660227Y450000D02*
X663182D01*
X670455Y456563D02*
Y450000D01*
Y456563D02*
X672500D01*
X672500D02*
X673182Y456250D01*
X673409Y455938*
X673409D02*
X673636Y455313D01*
X673636D02*
Y454688D01*
X673636D02*
X673409Y454063D01*
X673409D02*
X673182Y453750D01*
X672500Y453438*
X672500D02*
X670455D01*
X672045D02*
X673636Y450000D01*
X675682Y456563D02*
Y450000D01*
Y456563D02*
X678636D01*
X675682Y453438D02*
X677500D01*
X675682Y450000D02*
X678636D01*
X684091Y455000D02*
X683864Y455625D01*
X683409Y456250*
X682955Y456563*
X682955D02*
X682045D01*
X682045D02*
X681591Y456250D01*
X681136Y455625*
X680909Y455000*
X680682Y454063*
X680682D02*
Y452500D01*
X680909Y451563*
X680909D02*
X681136Y450938D01*
X681136D02*
X681591Y450313D01*
X681591D02*
X682045Y450000D01*
X682955*
X683409Y450313*
X683409D02*
X683864Y450938D01*
X683864D02*
X684091Y451563D01*
X687727Y456563D02*
Y450000D01*
X686136Y456563D02*
X689318D01*
X691364D02*
Y450000D01*
X693409Y456563D02*
Y450000D01*
Y456563D02*
X696364D01*
X693409Y453438D02*
X695227D01*
X698409Y456563D02*
Y450000D01*
X700455Y456563D02*
Y450000D01*
Y456563D02*
X703409D01*
X700455Y453438D02*
X702273D01*
X700455Y450000D02*
X703409D01*
X705455Y456563D02*
Y450000D01*
Y456563D02*
X707500D01*
X707500D02*
X708182Y456250D01*
X708409Y455938*
X708409D02*
X708636Y455313D01*
X708636D02*
Y454688D01*
X708636D02*
X708409Y454063D01*
X708409D02*
X708182Y453750D01*
X707500Y453438*
X707500D02*
X705455D01*
X707045D02*
X708636Y450000D01*
X527500Y496563D02*
Y490000D01*
X530227*
X534091Y496563D02*
X532273Y490000D01*
X534091Y496563D02*
X535909Y490000D01*
X532955Y492188D02*
X535227D01*
X537955Y496563D02*
X539773Y493438D01*
X539773D02*
Y490000D01*
X541591Y496563D02*
X539773Y493438D01*
X543636Y496563D02*
Y490000D01*
Y496563D02*
X546591D01*
X543636Y493438D02*
X545455D01*
X543636Y490000D02*
X546591D01*
X548636Y496563D02*
Y490000D01*
Y496563D02*
X550682D01*
X550682D02*
X551364Y496250D01*
X551591Y495938*
X551591D02*
X551818Y495313D01*
X551818D02*
Y494688D01*
X551818D02*
X551591Y494063D01*
X551591D02*
X551364Y493750D01*
X550682Y493438*
X550682D02*
X548636D01*
X550227D02*
X551818Y490000D01*
X559545Y496563D02*
X562045D01*
X562045D02*
X560682Y494063D01*
X560682D02*
X561364D01*
X561364D02*
X561818Y493750D01*
X562045Y493438*
X562045D02*
X562273Y492500D01*
Y491875*
X562045Y490938*
X562045D02*
X561591Y490313D01*
X561591D02*
X560909Y490000D01*
X560227*
X559545Y490313*
X559545D02*
X559318Y490625D01*
X559091Y491250*
X569545Y492813D02*
X573636D01*
X580909Y496563D02*
Y490000D01*
Y496563D02*
X582955D01*
X582955D02*
X583636Y496250D01*
X583864Y495938*
X583864D02*
X584091Y495313D01*
X584091D02*
Y494375D01*
X583864Y493750*
X583636Y493438*
X583636D02*
X582955Y493125D01*
X580909*
X586136Y496563D02*
X587273Y490000D01*
X588409Y496563D02*
X587273Y490000D01*
X588409Y496563D02*
X589545Y490000D01*
X590682Y496563D02*
X589545Y490000D01*
X592727Y496563D02*
Y490000D01*
Y496563D02*
X594773D01*
X594773D02*
X595455Y496250D01*
X595682Y495938*
X595682D02*
X595909Y495313D01*
X595909D02*
Y494688D01*
X595909D02*
X595682Y494063D01*
X595682D02*
X595455Y493750D01*
X594773Y493438*
X594773D02*
X592727D01*
X594318D02*
X595909Y490000D01*
X603182Y496563D02*
Y490000D01*
Y496563D02*
X605227D01*
X605227D02*
X605909Y496250D01*
X606136Y495938*
X606136D02*
X606364Y495313D01*
X606364D02*
Y494375D01*
X606136Y493750*
X605909Y493438*
X605909D02*
X605227Y493125D01*
X603182*
X608409Y496563D02*
Y490000D01*
X611136*
X615000Y496563D02*
X613182Y490000D01*
X615000Y496563D02*
X616818Y490000D01*
X613864Y492188D02*
X616136D01*
X618864Y496563D02*
Y490000D01*
Y496563D02*
X622045Y490000D01*
Y496563D02*
Y490000D01*
X624091Y496563D02*
Y490000D01*
Y496563D02*
X627045D01*
X624091Y493438D02*
X625909D01*
X624091Y490000D02*
X627045D01*
X634545Y495000D02*
Y495313D01*
X634545D02*
X634773Y495938D01*
X634773D02*
X635000Y496250D01*
X635455Y496563*
X635455D02*
X636364D01*
X636364D02*
X636818Y496250D01*
X637045Y495938*
X637045D02*
X637273Y495313D01*
X637273D02*
Y494688D01*
X637273D02*
X637045Y494063D01*
X637045D02*
X636591Y493125D01*
X634318Y490000*
X637500*
G54D25*
X690450Y682500D02*
G75*
G03X690450I-2450J0D01*
G01X887500Y560000D02*
G03X887500I-17500J0D01*
G01X878750Y600000D02*
G03X878750I-8750J0D01*
G01X834250Y652500D02*
G03X834250I-4250J0D01*
G01X741450Y667500D02*
G03X741450I-2450J0D01*
G01X724650Y649500D02*
G03X724650I-2150J0D01*
G01X698750Y663200D02*
Y794500D01*
G03X698500Y794750I-250J0*
G01X528825*
G03X528653Y794318I-0J-250*
G01X505723Y771304D02*
G03X528653Y794318I11777J11196D01*
G01X505723Y771304D02*
G03X505291Y771132I-182J-172D01*
G01Y771131*
X505499Y651250*
G03X505749Y651000I250J0*
G01X515144*
G03X515387Y651193I-0J250*
G01X525613D02*
G03X515387I-5113J-1193D01*
G01X525613D02*
G03X525856Y651000I243J57D01*
G01X532844*
G03X533087Y651193I-0J250*
G01X543313D02*
G03X533087I-5113J-1193D01*
G01X543313D02*
G03X543556Y651000I243J57D01*
G01X661604*
X665405Y647198*
G03X665582Y647125I177J177*
G01X677293*
G03X677470Y647198I-0J250*
G01X680709Y650437*
X684698*
G03X684863Y650499I-0J250*
G01X695406Y659750*
X695847*
G03X696092Y660046I-0J250*
G01X698500Y662950D02*
G03X696092Y660046I0J-2450D01*
G01X698500Y662950D02*
G03X698750Y663200I0J250D01*
G01X894250Y660500D02*
Y770668D01*
G03X893826Y770847I-250J-0*
G01X871347Y794318D02*
G03X893826Y770847I11153J-11818D01*
G01X871347Y794318D02*
G03X871175Y794750I-172J182D01*
G01X860662*
G03X860519Y794295I0J-250*
G01X854481D02*
G03X860519I3019J-4295D01*
G01X854481D02*
G03X854338Y794750I-143J205D01*
G01X700500*
G03X700250Y794500I0J-250*
G01Y662314*
G03X700315Y662146I250J-0*
G01X700908Y660046D02*
G03X700315Y662146I-2408J454D01*
G01X700908Y660046D02*
G03X701153Y659750I245J-46D01*
G01X716280*
G03X716464Y659831I0J250*
G01X721684Y665526*
G03X721750Y665694I-184J168*
G01Y674750*
X824611*
X839030Y660323*
G03X839207Y660250I177J177*
G01X894000*
G03X894250Y660500I0J250*
G01X894750Y528825D02*
Y658518D01*
G03X894464Y658765I-250J-0*
G01X894250Y658750D02*
G03X894464Y658765I0J1500D01*
G01X894250Y658750D02*
X839104D01*
X838043Y659190D02*
G03X839104Y658750I1061J1060D01*
G01X838043Y659190D02*
X824062Y673177D01*
G03X823885Y673250I-177J-177*
G01X723500*
G03X723250Y673000I0J-250*
G01Y665597*
X722856Y664584D02*
G03X723250Y665597I-1106J1013D01*
G01X722856Y664584D02*
X717496Y658736D01*
X716390Y658250D02*
G03X717496Y658736I0J1500D01*
G01X716390Y658250D02*
X700250D01*
X699786Y658323D02*
G03X700250Y658250I464J1427D01*
G01X699786Y658323D02*
G03X699597Y658309I-77J-237D01*
G01X697575Y658231D02*
G03X699597Y658309I925J2269D01*
G01X697575Y658231D02*
G03X697480Y658250I-95J-231D01*
G01X696065*
G03X695900Y658188I-0J-250*
G01X685781Y649309*
X684792Y648937D02*
G03X685781Y649309I-0J1500D01*
G01X684792Y648937D02*
X681434D01*
G03X681257Y648864I0J-250*
G01X678457Y646064*
X677396Y645625D02*
G03X678457Y646064I0J1500D01*
G01X677396Y645625D02*
X665479D01*
X664418Y646064D02*
G03X665479Y645625I1061J1061D01*
G01X664418Y646064D02*
X661055Y649427D01*
G03X660879Y649500I-176J-177*
G01X543649*
G03X543401Y649284I-0J-250*
G01X532999D02*
G03X543401I5201J716D01*
G01X532999D02*
G03X532751Y649500I-248J-34D01*
G01X525949*
G03X525701Y649284I-0J-250*
G01X515299D02*
G03X525701I5201J716D01*
G01X515299D02*
G03X515051Y649500I-248J-34D01*
G01X505500*
G03X505250Y649250I0J-250*
G01Y528825*
G03X505682Y528653I250J-0*
G01X528653Y505682D02*
G03X505682Y528653I-11153J11818D01*
G01X528653Y505682D02*
G03X528825Y505250I172J-182D01*
G01X539338*
G03X539481Y505705I-0J250*
G01X545519D02*
G03X539481I-3019J4295D01*
G01X545519D02*
G03X545662Y505250I143J-205D01*
G01X871175*
G03X871347Y505682I0J250*
G01X894318Y528653D02*
G03X871347Y505682I-11818J-11153D01*
G01X894318Y528653D02*
G03X894750Y528825I182J172D01*
G01X690450Y682500D02*
G03X690450I-2450J0D01*
G01X887500Y560000D02*
G03X887500I-17500J0D01*
G01X878750Y600000D02*
G03X878750I-8750J0D01*
G01X834250Y652500D02*
G03X834250I-4250J0D01*
G01X814250Y655500D02*
Y649500D01*
X813000Y648250D02*
G03X814250Y649500I0J1250D01*
G01X813000Y648250D02*
X807000D01*
X805750Y649500D02*
G03X807000Y648250I1250J0D01*
G01X805750Y649500D02*
Y655500D01*
X807000Y656750D02*
G03X805750Y655500I0J-1250D01*
G01X807000Y656750D02*
X813000D01*
X814250Y655500D02*
G03X813000Y656750I-1250J0D01*
G01X761354Y646458D02*
G03X761100Y650689I-1354J2042D01*
G01X761354Y646458D02*
G03Y646042I139J-208D01*
G01X761646Y642185D02*
G03X761354Y646042I-1646J1815D01*
G01X761646Y642185D02*
G03Y641815I168J-185D01*
G01X761354Y637958D02*
G03X761646Y641815I-1354J2042D01*
G01X761354Y637958D02*
G03Y637542I139J-208D01*
G01X761646Y633685D02*
G03X761354Y637542I-1646J1815D01*
G01X761646Y633685D02*
G03Y633315I168J-185D01*
G01Y629685D02*
G03Y633315I-1646J1815D01*
G01Y629685D02*
G03Y629315I168J-185D01*
G01X761866Y625912D02*
G03X761646Y629315I-1866J1588D01*
G01X761866Y625912D02*
G03Y625588I190J-162D01*
G01X758185Y622354D02*
G03X761866Y625588I1815J1646D01*
G01X758185Y622354D02*
G03X757815I-185J-168D01*
G01X754185D02*
G03X757815I1815J1646D01*
G01X754185D02*
G03X753815I-185J-168D01*
G01X750185D02*
G03X753815I1815J1646D01*
G01X750185D02*
G03X749815I-185J-168D01*
G01X746185D02*
G03X749815I1815J1646D01*
G01X746185D02*
G03X745815I-185J-168D01*
G01X741731Y623075D02*
G03X745815Y622354I2269J925D01*
G01X741731Y623075D02*
G03X741269I-231J-95D01*
G01X736958Y622646D02*
G03X741269Y623075I2042J1354D01*
G01X736958Y622646D02*
G03X736542I-208J-139D01*
G01X732912Y622134D02*
G03X736542Y622646I1588J1866D01*
G01X732912Y622134D02*
G03X732588I-162J-190D01*
G01X729134Y625588D02*
G03X732588Y622134I1866J-1588D01*
G01X729134Y625588D02*
G03Y625912I-190J162D01*
G01X729354Y629315D02*
G03X729134Y625912I1646J-1815D01*
G01X729354Y629315D02*
G03Y629685I-168J185D01*
G01Y633315D02*
G03Y629685I1646J-1815D01*
G01Y633315D02*
G03Y633685I-168J185D01*
G01X732588Y637366D02*
G03X729354Y633685I-1588J-1866D01*
G01X732588Y637366D02*
G03X732912I162J190D01*
G01X736542Y636854D02*
G03X732912Y637366I-2042J-1354D01*
G01X736542Y636854D02*
G03X736958I208J139D01*
G01X741269Y636425D02*
G03X736958Y636854I-2269J-925D01*
G01X741269Y636425D02*
G03X741731I231J95D01*
G01X742646Y637542D02*
G03X741731Y636425I1354J-2042D01*
G01X742646Y637542D02*
G03Y637958I-139J208D01*
G01X742354Y641815D02*
G03X742646Y637958I1646J-1815D01*
G01X742354Y641815D02*
G03Y642185I-168J185D01*
G01X742646Y646042D02*
G03X742354Y642185I1354J-2042D01*
G01X742646Y646042D02*
G03Y646458I-139J208D01*
G01X741597Y648022D02*
G03X742646Y646458I2403J478D01*
G01X741597Y648022D02*
G03X741159Y648132I-245J-49D01*
G01X738752Y651516D02*
G03X741159Y648132I748J-2016D01*
G01X738752Y651516D02*
G03Y651984I-87J234D01*
G01X741582Y654536D02*
G03X738752Y651984I-2082J-536D01*
G01X741582Y654536D02*
G03X742026Y654451I242J63D01*
G01X745588Y654866D02*
G03X742026Y654451I-1588J-1866D01*
G01X745588Y654866D02*
G03X745912I162J190D01*
G01X749315Y654646D02*
G03X745912Y654866I-1815J-1646D01*
G01X749315Y654646D02*
G03X749685I185J168D01*
G01X753315D02*
G03X749685I-1815J-1646D01*
G01X753315D02*
G03X753685I185J168D01*
G01X757315D02*
G03X753685I-1815J-1646D01*
G01X757315D02*
G03X757685I185J168D01*
G01X761054Y651106D02*
G03X757685Y654646I-1554J1894D01*
G01X761054Y651106D02*
G03X761100Y650689I158J-194D01*
G01X741450Y667500D02*
G03X741450I-2450J0D01*
G01X732248Y651984D02*
G03X730752I-748J2016D01*
G01X732248D02*
G03Y651516I87J-234D01*
G01Y647484D02*
G03Y651516I-748J2016D01*
G01Y647484D02*
G03Y647016I87J-234D01*
G01X730752D02*
G03X732248I748J-2016D01*
G01X730752D02*
G03Y647484I-87J234D01*
G01Y651516D02*
G03Y647484I748J-2016D01*
G01Y651516D02*
G03Y651984I-87J234D01*
G01X726425Y621731D02*
G03X726166Y626358I-925J2269D01*
G01X726425Y621731D02*
G03Y621269I95J-231D01*
G01X726854Y616958D02*
G03X726425Y621269I-1354J2042D01*
G01X726854Y616958D02*
G03Y616542I139J-208D01*
G01X726425Y612231D02*
G03X726854Y616542I-925J2269D01*
G01X726425Y612231D02*
G03Y611769I95J-231D01*
G01X723685Y607854D02*
G03X726425Y611769I1815J1646D01*
G01X723685Y607854D02*
G03X723315I-185J-168D01*
G01X719231Y608575D02*
G03X723315Y607854I2269J925D01*
G01X719231Y608575D02*
G03X718769I-231J-95D01*
G01X714946Y611394D02*
G03X718769Y608575I1554J-1894D01*
G01X714946Y611394D02*
G03X714900Y611811I-158J194D01*
G01X717554Y612106D02*
G03X714900Y611811I-1554J1894D01*
G01X717554Y612106D02*
G03X717600Y611689I158J-194D01*
G01X718769Y610425D02*
G03X717600Y611689I-2269J-925D01*
G01X718769Y610425D02*
G03X719231I231J95D01*
G01X720575Y611769D02*
G03X719231Y610425I925J-2269D01*
G01X720575Y611769D02*
G03Y612231I-95J231D01*
G01X720146Y616542D02*
G03X720575Y612231I1354J-2042D01*
G01X720146Y616542D02*
G03Y616958I-139J208D01*
G01X720380Y621179D02*
G03X720146Y616958I1120J-2179D01*
G01X720380Y621179D02*
G03X720334Y621642I-114J223D01*
G01X720075Y626269D02*
G03X720334Y621642I925J-2269D01*
G01X720075Y626269D02*
G03Y626731I-95J231D01*
G01X719354Y630815D02*
G03X720075Y626731I1646J-1815D01*
G01X719354Y630815D02*
G03Y631185I-168J185D01*
G01X722815Y634646D02*
G03X719354Y631185I-1815J-1646D01*
G01X722815Y634646D02*
G03X723185I185J168D01*
G01X726646Y631185D02*
G03X723185Y634646I-1646J1815D01*
G01X726646Y631185D02*
G03Y630815I168J-185D01*
G01X726120Y626821D02*
G03X726646Y630815I-1120J2179D01*
G01X726120Y626821D02*
G03X726166Y626358I114J-223D01*
G01X724650Y649500D02*
G03X724650I-2150J0D01*
G01X704185Y637854D02*
G03Y641146I1815J1646D01*
G01Y637854D02*
G03X703815I-185J-168D01*
G01X700185D02*
G03X703815I1815J1646D01*
G01X700185D02*
G03X699815I-185J-168D01*
G01Y641146D02*
G03Y637854I-1815J-1646D01*
G01Y641146D02*
G03X700185I185J168D01*
G01X703815D02*
G03X700185I-1815J-1646D01*
G01X703815D02*
G03X704185I185J168D01*
G01X705537Y650139D02*
G03X701912Y653366I-2037J1361D01*
G01X705537Y650139D02*
G03Y649861I208J-139D01*
G01X701912Y646634D02*
G03X705537Y649861I1588J1866D01*
G01X701912Y646634D02*
G03X701588I-162J-190D01*
G01X698412D02*
G03X701588I1588J1866D01*
G01X698412D02*
G03X698088I-162J-190D01*
G01X694463Y649861D02*
G03X698088Y646634I2037J-1361D01*
G01X694463Y649861D02*
G03Y650139I-208J139D01*
G01X698088Y653366D02*
G03X694463Y650139I-1588J-1866D01*
G01X698088Y653366D02*
G03X698412I162J190D01*
G01X701588D02*
G03X698412I-1588J-1866D01*
G01X701588D02*
G03X701912I162J190D01*
G01X685581Y633301D02*
G03X682458Y636854I-1081J2199D01*
G01X685581Y633301D02*
G03X685489Y632931I111J-224D01*
G01X681912Y629634D02*
G03X685489Y632931I1588J1866D01*
G01X681912Y629634D02*
G03X681588I-162J-190D01*
G01X677731Y630575D02*
G03X681588Y629634I2269J925D01*
G01X677731Y630575D02*
G03X677269I-231J-95D01*
G01X672731D02*
G03X677269I2269J925D01*
G01X672731D02*
G03X672269I-231J-95D01*
G01X667958Y630146D02*
G03X672269Y630575I2042J1354D01*
G01X667958Y630146D02*
G03X667542I-208J-139D01*
G01X663685Y629854D02*
G03X667542Y630146I1815J1646D01*
G01X663685Y629854D02*
G03X663315I-185J-168D01*
G01X659854Y633315D02*
G03X663315Y629854I1646J-1815D01*
G01X659854Y633315D02*
G03Y633685I-168J185D01*
G01Y637315D02*
G03Y633685I1646J-1815D01*
G01Y637315D02*
G03Y637685I-168J185D01*
G01X659634Y641088D02*
G03X659854Y637685I1866J-1588D01*
G01X659634Y641088D02*
G03Y641412I-190J162D01*
G01X663366D02*
G03X659634I-1866J1588D01*
G01X663366D02*
G03Y641088I190J-162D01*
G01X663769Y640425D02*
G03X663366Y641088I-2269J-925D01*
G01X663769Y640425D02*
G03X664231I231J95D01*
G01X667581Y637301D02*
G03X664231Y640425I-1081J2199D01*
G01X667581Y637301D02*
G03X667489Y636931I111J-224D01*
G01X667689Y636600D02*
G03X667489Y636931I-2189J-1100D01*
G01X667689Y636600D02*
G03X668106Y636554I223J112D01*
G01X672179Y636120D02*
G03X668106Y636554I-2179J-1120D01*
G01X672179Y636120D02*
G03X672642Y636166I223J114D01*
G01X677269Y636425D02*
G03X672642Y636166I-2269J-925D01*
G01X677269Y636425D02*
G03X677731I231J95D01*
G01X682042Y636854D02*
G03X677731Y636425I-2042J-1354D01*
G01X682042Y636854D02*
G03X682458I208J139D01*
G01X528700Y794274D02*
X698750D01*
X529155Y793824D02*
X698750D01*
X529576Y793374D02*
X698750D01*
X529966Y792924D02*
X698750D01*
X530329Y792474D02*
X698750D01*
X530667Y792024D02*
X698750D01*
X530981Y791574D02*
X698750D01*
X531273Y791124D02*
X698750D01*
X531545Y790674D02*
X698750D01*
X531797Y790224D02*
X698750D01*
X532031Y789774D02*
X698750D01*
X532248Y789324D02*
X698750D01*
X532448Y788874D02*
X698750D01*
X532632Y788424D02*
X698750D01*
X532800Y787974D02*
X698750D01*
X532954Y787524D02*
X698750D01*
X533093Y787074D02*
X698750D01*
X533218Y786624D02*
X698750D01*
X533329Y786174D02*
X698750D01*
X533427Y785724D02*
X698750D01*
X533512Y785274D02*
X698750D01*
X533583Y784824D02*
X698750D01*
X533642Y784374D02*
X698750D01*
X533688Y783924D02*
X698750D01*
X533721Y783474D02*
X698750D01*
X533742Y783024D02*
X698750D01*
X533750Y782574D02*
X698750D01*
X533746Y782124D02*
X698750D01*
X533729Y781674D02*
X698750D01*
X533700Y781224D02*
X698750D01*
X533658Y780774D02*
X698750D01*
X533604Y780324D02*
X698750D01*
X533536Y779874D02*
X698750D01*
X533456Y779424D02*
X698750D01*
X533363Y778974D02*
X698750D01*
X533256Y778524D02*
X698750D01*
X533136Y778074D02*
X698750D01*
X533001Y777624D02*
X698750D01*
X532852Y777174D02*
X698750D01*
X532689Y776724D02*
X698750D01*
X532510Y776274D02*
X698750D01*
X532315Y775824D02*
X698750D01*
X532104Y775374D02*
X698750D01*
X531876Y774924D02*
X698750D01*
X531629Y774474D02*
X698750D01*
X531364Y774024D02*
X698750D01*
X531079Y773574D02*
X698750D01*
X530772Y773124D02*
X698750D01*
X530442Y772674D02*
X698750D01*
X530088Y772224D02*
X698750D01*
X529707Y771774D02*
X698750D01*
X529296Y771324D02*
X698750D01*
X528853Y770874D02*
X698750D01*
X528373Y770424D02*
X698750D01*
X527852Y769974D02*
X698750D01*
X527282Y769524D02*
X698750D01*
X526654Y769074D02*
X698750D01*
X525956Y768624D02*
X698750D01*
X525169Y768174D02*
X698750D01*
X524262Y767724D02*
X698750D01*
X523176Y767274D02*
X698750D01*
X521780Y766824D02*
X698750D01*
X519501Y766374D02*
X698750D01*
X505300Y765924D02*
X698750D01*
X505301Y765474D02*
X698750D01*
X505302Y765024D02*
X698750D01*
X505303Y764574D02*
X698750D01*
X505304Y764124D02*
X698750D01*
X505304Y763674D02*
X698750D01*
X505305Y763224D02*
X698750D01*
X505306Y762774D02*
X698750D01*
X505307Y762324D02*
X698750D01*
X505307Y761874D02*
X698750D01*
X505308Y761424D02*
X698750D01*
X505309Y760974D02*
X698750D01*
X505310Y760524D02*
X698750D01*
X505311Y760074D02*
X698750D01*
X505311Y759624D02*
X698750D01*
X505312Y759174D02*
X698750D01*
X505313Y758724D02*
X698750D01*
X505314Y758274D02*
X698750D01*
X505314Y757824D02*
X698750D01*
X505315Y757374D02*
X698750D01*
X505316Y756924D02*
X698750D01*
X505317Y756474D02*
X698750D01*
X505318Y756024D02*
X698750D01*
X505318Y755574D02*
X698750D01*
X505319Y755124D02*
X698750D01*
X505320Y754674D02*
X698750D01*
X505321Y754224D02*
X698750D01*
X505321Y753774D02*
X698750D01*
X505322Y753324D02*
X698750D01*
X505323Y752874D02*
X698750D01*
X505324Y752424D02*
X698750D01*
X505325Y751974D02*
X698750D01*
X505325Y751524D02*
X698750D01*
X505326Y751074D02*
X698750D01*
X505327Y750624D02*
X698750D01*
X505328Y750174D02*
X698750D01*
X505328Y749724D02*
X698750D01*
X505329Y749274D02*
X698750D01*
X505330Y748824D02*
X698750D01*
X505331Y748374D02*
X698750D01*
X505332Y747924D02*
X698750D01*
X505332Y747474D02*
X698750D01*
X505333Y747024D02*
X698750D01*
X505334Y746574D02*
X698750D01*
X505335Y746124D02*
X698750D01*
X505335Y745674D02*
X698750D01*
X505336Y745224D02*
X698750D01*
X505337Y744774D02*
X698750D01*
X505338Y744324D02*
X698750D01*
X505339Y743874D02*
X698750D01*
X505339Y743424D02*
X698750D01*
X505340Y742974D02*
X698750D01*
X505341Y742524D02*
X698750D01*
X505342Y742074D02*
X698750D01*
X505343Y741624D02*
X698750D01*
X505343Y741174D02*
X698750D01*
X505344Y740724D02*
X698750D01*
X505345Y740274D02*
X698750D01*
X505346Y739824D02*
X698750D01*
X505346Y739374D02*
X698750D01*
X505347Y738924D02*
X698750D01*
X505348Y738474D02*
X698750D01*
X505349Y738024D02*
X698750D01*
X505350Y737574D02*
X698750D01*
X505350Y737124D02*
X698750D01*
X505351Y736674D02*
X698750D01*
X505352Y736224D02*
X698750D01*
X505353Y735774D02*
X698750D01*
X505353Y735324D02*
X698750D01*
X505354Y734874D02*
X698750D01*
X505355Y734424D02*
X698750D01*
X505356Y733974D02*
X698750D01*
X505357Y733524D02*
X698750D01*
X505357Y733074D02*
X698750D01*
X505358Y732624D02*
X698750D01*
X505359Y732174D02*
X698750D01*
X505360Y731724D02*
X698750D01*
X505360Y731274D02*
X698750D01*
X505361Y730824D02*
X698750D01*
X505362Y730374D02*
X698750D01*
X505363Y729924D02*
X698750D01*
X505364Y729474D02*
X698750D01*
X505364Y729024D02*
X698750D01*
X505365Y728574D02*
X698750D01*
X505366Y728124D02*
X698750D01*
X505367Y727674D02*
X698750D01*
X505367Y727224D02*
X698750D01*
X505368Y726774D02*
X698750D01*
X505369Y726324D02*
X698750D01*
X505370Y725874D02*
X698750D01*
X505371Y725424D02*
X698750D01*
X505371Y724974D02*
X698750D01*
X505372Y724524D02*
X698750D01*
X505373Y724074D02*
X698750D01*
X505374Y723624D02*
X698750D01*
X505374Y723174D02*
X698750D01*
X505375Y722724D02*
X698750D01*
X505376Y722274D02*
X698750D01*
X505377Y721824D02*
X698750D01*
X505378Y721374D02*
X698750D01*
X505378Y720924D02*
X698750D01*
X505379Y720474D02*
X698750D01*
X505380Y720024D02*
X698750D01*
X505381Y719574D02*
X698750D01*
X505382Y719124D02*
X698750D01*
X505382Y718674D02*
X698750D01*
X505383Y718224D02*
X698750D01*
X505384Y717774D02*
X698750D01*
X505385Y717324D02*
X698750D01*
X505385Y716874D02*
X698750D01*
X505386Y716424D02*
X698750D01*
X505387Y715974D02*
X698750D01*
X505388Y715524D02*
X698750D01*
X505389Y715074D02*
X698750D01*
X505389Y714624D02*
X698750D01*
X505390Y714174D02*
X698750D01*
X505391Y713724D02*
X698750D01*
X505392Y713274D02*
X698750D01*
X505392Y712824D02*
X698750D01*
X505393Y712374D02*
X698750D01*
X505394Y711924D02*
X698750D01*
X505395Y711474D02*
X698750D01*
X505396Y711024D02*
X698750D01*
X505396Y710574D02*
X698750D01*
X505397Y710124D02*
X698750D01*
X505398Y709674D02*
X698750D01*
X505399Y709224D02*
X698750D01*
X505399Y708774D02*
X698750D01*
X505400Y708324D02*
X698750D01*
X505401Y707874D02*
X698750D01*
X505402Y707424D02*
X698750D01*
X505403Y706974D02*
X698750D01*
X505403Y706524D02*
X698750D01*
X505404Y706074D02*
X698750D01*
X505405Y705624D02*
X698750D01*
X505406Y705174D02*
X698750D01*
X505406Y704724D02*
X698750D01*
X505407Y704274D02*
X698750D01*
X505408Y703824D02*
X698750D01*
X505409Y703374D02*
X698750D01*
X505410Y702924D02*
X698750D01*
X505410Y702474D02*
X698750D01*
X505411Y702024D02*
X698750D01*
X505412Y701574D02*
X698750D01*
X505413Y701124D02*
X698750D01*
X505413Y700674D02*
X698750D01*
X505414Y700224D02*
X698750D01*
X505415Y699774D02*
X698750D01*
X505416Y699324D02*
X698750D01*
X505417Y698874D02*
X698750D01*
X505417Y698424D02*
X698750D01*
X505418Y697974D02*
X698750D01*
X505419Y697524D02*
X698750D01*
X505420Y697074D02*
X698750D01*
X505420Y696624D02*
X698750D01*
X505421Y696174D02*
X698750D01*
X505422Y695724D02*
X698750D01*
X505423Y695274D02*
X698750D01*
X505424Y694824D02*
X698750D01*
X505424Y694374D02*
X698750D01*
X505425Y693924D02*
X698750D01*
X505426Y693474D02*
X698750D01*
X505427Y693024D02*
X698750D01*
X505428Y692574D02*
X698750D01*
X505428Y692124D02*
X698750D01*
X505429Y691674D02*
X698750D01*
X505430Y691224D02*
X698750D01*
X505431Y690774D02*
X698750D01*
X505431Y690324D02*
X698750D01*
X505432Y689874D02*
X698750D01*
X505433Y689424D02*
X698750D01*
X505434Y688974D02*
X698750D01*
X505435Y688524D02*
X698750D01*
X505435Y688074D02*
X698750D01*
X505436Y687624D02*
X698750D01*
X505437Y687174D02*
X698750D01*
X505438Y686724D02*
X698750D01*
X505438Y686274D02*
X698750D01*
X505439Y685824D02*
X698750D01*
X505440Y685374D02*
X698750D01*
X688358Y684924D02*
X698750D01*
X689452Y684474D02*
X698750D01*
X689919Y684024D02*
X698750D01*
X690202Y683574D02*
X698750D01*
X690369Y683124D02*
X698750D01*
X690444Y682674D02*
X698750D01*
X690434Y682224D02*
X698750D01*
X690340Y681774D02*
X698750D01*
X690149Y681324D02*
X698750D01*
X689832Y680874D02*
X698750D01*
X689301Y680424D02*
X698750D01*
X505449Y679974D02*
X698750D01*
X505450Y679524D02*
X698750D01*
X505451Y679074D02*
X698750D01*
X505452Y678624D02*
X698750D01*
X505452Y678174D02*
X698750D01*
X505453Y677724D02*
X698750D01*
X505454Y677274D02*
X698750D01*
X505455Y676824D02*
X698750D01*
X505456Y676374D02*
X698750D01*
X505456Y675924D02*
X698750D01*
X505457Y675474D02*
X698750D01*
X505458Y675024D02*
X698750D01*
X505459Y674574D02*
X698750D01*
X505459Y674124D02*
X698750D01*
X505460Y673674D02*
X698750D01*
X505461Y673224D02*
X698750D01*
X505462Y672774D02*
X698750D01*
X505463Y672324D02*
X698750D01*
X505463Y671874D02*
X698750D01*
X505464Y671424D02*
X698750D01*
X505465Y670974D02*
X698750D01*
X505466Y670524D02*
X698750D01*
X505467Y670074D02*
X698750D01*
X505467Y669624D02*
X698750D01*
X505468Y669174D02*
X698750D01*
X505469Y668724D02*
X698750D01*
X505470Y668274D02*
X698750D01*
X505470Y667824D02*
X698750D01*
X505471Y667374D02*
X698750D01*
X505472Y666924D02*
X698750D01*
X505473Y666474D02*
X698750D01*
X505474Y666024D02*
X698750D01*
X505474Y665574D02*
X698750D01*
X505475Y665124D02*
X698750D01*
X505476Y664674D02*
X698750D01*
X505477Y664224D02*
X698750D01*
X505477Y663774D02*
X698750D01*
X505478Y663324D02*
X698750D01*
X528713Y794724D02*
X698612D01*
X505479Y662874D02*
X697893D01*
X505480Y662424D02*
X696983D01*
X505481Y661974D02*
X696543D01*
X505481Y661524D02*
X696274D01*
X505482Y661074D02*
X696118D01*
X505484Y660174D02*
X696072D01*
X505483Y660624D02*
X696053D01*
X505484Y659724D02*
X695376D01*
X505485Y659274D02*
X694863D01*
X505486Y658824D02*
X694350D01*
X505487Y658374D02*
X693837D01*
X505488Y657924D02*
X693324D01*
X505488Y657474D02*
X692812D01*
X505489Y657024D02*
X692299D01*
X505490Y656574D02*
X691786D01*
X505491Y656124D02*
X691273D01*
X505491Y655674D02*
X690760D01*
X538725Y655224D02*
X690247D01*
X540385Y654774D02*
X689734D01*
X541178Y654324D02*
X689222D01*
X541744Y653874D02*
X688709D01*
X542180Y653424D02*
X688196D01*
X542527Y652974D02*
X687683D01*
X505441Y684924D02*
X687642D01*
X542804Y652524D02*
X687170D01*
X505449Y680424D02*
X686699D01*
X543023Y652074D02*
X686657D01*
X505442Y684474D02*
X686548D01*
X505448Y680874D02*
X686168D01*
X543193Y651624D02*
X686144D01*
X505442Y684024D02*
X686081D01*
X505447Y681324D02*
X685851D01*
X505443Y683574D02*
X685798D01*
X505446Y681774D02*
X685660D01*
X543318Y651174D02*
X685631D01*
X505444Y683124D02*
X685631D01*
X505445Y682224D02*
X685566D01*
X505445Y682674D02*
X685556D01*
X661880Y650724D02*
X685119D01*
X662330Y650274D02*
X680546D01*
X662780Y649824D02*
X680096D01*
X663230Y649374D02*
X679646D01*
X663680Y648924D02*
X679196D01*
X664130Y648474D02*
X678746D01*
X664580Y648024D02*
X678295D01*
X665030Y647574D02*
X677845D01*
X521025Y655224D02*
X537675D01*
X522685Y654774D02*
X536015D01*
X523478Y654324D02*
X535222D01*
X524044Y653874D02*
X534656D01*
X524480Y653424D02*
X534220D01*
X524827Y652974D02*
X533873D01*
X525104Y652524D02*
X533596D01*
X525323Y652074D02*
X533377D01*
X525493Y651624D02*
X533207D01*
X525618Y651174D02*
X533082D01*
X505492Y655224D02*
X519975D01*
X505493Y654774D02*
X518315D01*
X505494Y654324D02*
X517522D01*
X505495Y653874D02*
X516956D01*
X505495Y653424D02*
X516520D01*
X505496Y652974D02*
X516173D01*
X505497Y652524D02*
X515896D01*
X505498Y652074D02*
X515677D01*
X505498Y651624D02*
X515507D01*
X505300Y766374D02*
X515499D01*
X505511Y651174D02*
X515382D01*
X505299Y766824D02*
X513220D01*
X505298Y767274D02*
X511824D01*
X505297Y767724D02*
X510738D01*
X505296Y768174D02*
X509831D01*
X505296Y768624D02*
X509044D01*
X505295Y769074D02*
X508346D01*
X505294Y769524D02*
X507718D01*
X505293Y769974D02*
X507148D01*
X505293Y770424D02*
X506627D01*
X505292Y770874D02*
X506147D01*
X505381Y771324D02*
X505701D01*
X893401Y770449D02*
X894250D01*
X892882Y769999D02*
X894250D01*
X892315Y769549D02*
X894250D01*
X891691Y769099D02*
X894250D01*
X890997Y768649D02*
X894250D01*
X890216Y768199D02*
X894250D01*
X889316Y767749D02*
X894250D01*
X888243Y767299D02*
X894250D01*
X886870Y766849D02*
X894250D01*
X884693Y766399D02*
X894250D01*
X700250Y765949D02*
X894250D01*
X700250Y765499D02*
X894250D01*
X700250Y765049D02*
X894250D01*
X700250Y764599D02*
X894250D01*
X700250Y764149D02*
X894250D01*
X700250Y763699D02*
X894250D01*
X700250Y763249D02*
X894250D01*
X700250Y762799D02*
X894250D01*
X700250Y762349D02*
X894250D01*
X700250Y761899D02*
X894250D01*
X700250Y761449D02*
X894250D01*
X700250Y760999D02*
X894250D01*
X700250Y760549D02*
X894250D01*
X700250Y760099D02*
X894250D01*
X700250Y759649D02*
X894250D01*
X700250Y759199D02*
X894250D01*
X700250Y758749D02*
X894250D01*
X700250Y758299D02*
X894250D01*
X700250Y757849D02*
X894250D01*
X700250Y757399D02*
X894250D01*
X700250Y756949D02*
X894250D01*
X700250Y756499D02*
X894250D01*
X700250Y756049D02*
X894250D01*
X700250Y755599D02*
X894250D01*
X700250Y755149D02*
X894250D01*
X700250Y754699D02*
X894250D01*
X700250Y754249D02*
X894250D01*
X700250Y753799D02*
X894250D01*
X700250Y753349D02*
X894250D01*
X700250Y752899D02*
X894250D01*
X700250Y752449D02*
X894250D01*
X700250Y751999D02*
X894250D01*
X700250Y751549D02*
X894250D01*
X700250Y751099D02*
X894250D01*
X700250Y750649D02*
X894250D01*
X700250Y750199D02*
X894250D01*
X700250Y749749D02*
X894250D01*
X700250Y749299D02*
X894250D01*
X700250Y748849D02*
X894250D01*
X700250Y748399D02*
X894250D01*
X700250Y747949D02*
X894250D01*
X700250Y747499D02*
X894250D01*
X700250Y747049D02*
X894250D01*
X700250Y746599D02*
X894250D01*
X700250Y746149D02*
X894250D01*
X700250Y745699D02*
X894250D01*
X700250Y745249D02*
X894250D01*
X700250Y744799D02*
X894250D01*
X700250Y744349D02*
X894250D01*
X700250Y743899D02*
X894250D01*
X700250Y743449D02*
X894250D01*
X700250Y742999D02*
X894250D01*
X700250Y742549D02*
X894250D01*
X700250Y742099D02*
X894250D01*
X700250Y741649D02*
X894250D01*
X700250Y741199D02*
X894250D01*
X700250Y740749D02*
X894250D01*
X700250Y740299D02*
X894250D01*
X700250Y739849D02*
X894250D01*
X700250Y739399D02*
X894250D01*
X700250Y738949D02*
X894250D01*
X700250Y738499D02*
X894250D01*
X700250Y738049D02*
X894250D01*
X700250Y737599D02*
X894250D01*
X700250Y737149D02*
X894250D01*
X700250Y736699D02*
X894250D01*
X700250Y736249D02*
X894250D01*
X700250Y735799D02*
X894250D01*
X700250Y735349D02*
X894250D01*
X700250Y734899D02*
X894250D01*
X700250Y734449D02*
X894250D01*
X700250Y733999D02*
X894250D01*
X700250Y733549D02*
X894250D01*
X700250Y733099D02*
X894250D01*
X700250Y732649D02*
X894250D01*
X700250Y732199D02*
X894250D01*
X700250Y731749D02*
X894250D01*
X700250Y731299D02*
X894250D01*
X700250Y730849D02*
X894250D01*
X700250Y730399D02*
X894250D01*
X700250Y729949D02*
X894250D01*
X700250Y729499D02*
X894250D01*
X700250Y729049D02*
X894250D01*
X700250Y728599D02*
X894250D01*
X700250Y728149D02*
X894250D01*
X700250Y727699D02*
X894250D01*
X700250Y727249D02*
X894250D01*
X700250Y726799D02*
X894250D01*
X700250Y726349D02*
X894250D01*
X700250Y725899D02*
X894250D01*
X700250Y725449D02*
X894250D01*
X700250Y724999D02*
X894250D01*
X700250Y724549D02*
X894250D01*
X700250Y724099D02*
X894250D01*
X700250Y723649D02*
X894250D01*
X700250Y723199D02*
X894250D01*
X700250Y722749D02*
X894250D01*
X700250Y722299D02*
X894250D01*
X700250Y721849D02*
X894250D01*
X700250Y721399D02*
X894250D01*
X700250Y720949D02*
X894250D01*
X700250Y720499D02*
X894250D01*
X700250Y720049D02*
X894250D01*
X700250Y719599D02*
X894250D01*
X700250Y719149D02*
X894250D01*
X700250Y718699D02*
X894250D01*
X700250Y718249D02*
X894250D01*
X700250Y717799D02*
X894250D01*
X700250Y717349D02*
X894250D01*
X700250Y716899D02*
X894250D01*
X700250Y716449D02*
X894250D01*
X700250Y715999D02*
X894250D01*
X700250Y715549D02*
X894250D01*
X700250Y715099D02*
X894250D01*
X700250Y714649D02*
X894250D01*
X700250Y714199D02*
X894250D01*
X700250Y713749D02*
X894250D01*
X700250Y713299D02*
X894250D01*
X700250Y712849D02*
X894250D01*
X700250Y712399D02*
X894250D01*
X700250Y711949D02*
X894250D01*
X700250Y711499D02*
X894250D01*
X700250Y711049D02*
X894250D01*
X700250Y710599D02*
X894250D01*
X700250Y710149D02*
X894250D01*
X700250Y709699D02*
X894250D01*
X700250Y709249D02*
X894250D01*
X700250Y708799D02*
X894250D01*
X700250Y708349D02*
X894250D01*
X700250Y707899D02*
X894250D01*
X700250Y707449D02*
X894250D01*
X700250Y706999D02*
X894250D01*
X700250Y706549D02*
X894250D01*
X700250Y706099D02*
X894250D01*
X700250Y705649D02*
X894250D01*
X700250Y705199D02*
X894250D01*
X700250Y704749D02*
X894250D01*
X700250Y704299D02*
X894250D01*
X700250Y703849D02*
X894250D01*
X700250Y703399D02*
X894250D01*
X700250Y702949D02*
X894250D01*
X700250Y702499D02*
X894250D01*
X700250Y702049D02*
X894250D01*
X700250Y701599D02*
X894250D01*
X700250Y701149D02*
X894250D01*
X700250Y700699D02*
X894250D01*
X700250Y700249D02*
X894250D01*
X700250Y699799D02*
X894250D01*
X700250Y699349D02*
X894250D01*
X700250Y698899D02*
X894250D01*
X700250Y698449D02*
X894250D01*
X700250Y697999D02*
X894250D01*
X700250Y697549D02*
X894250D01*
X700250Y697099D02*
X894250D01*
X700250Y696649D02*
X894250D01*
X700250Y696199D02*
X894250D01*
X700250Y695749D02*
X894250D01*
X700250Y695299D02*
X894250D01*
X700250Y694849D02*
X894250D01*
X700250Y694399D02*
X894250D01*
X700250Y693949D02*
X894250D01*
X700250Y693499D02*
X894250D01*
X700250Y693049D02*
X894250D01*
X700250Y692599D02*
X894250D01*
X700250Y692149D02*
X894250D01*
X700250Y691699D02*
X894250D01*
X700250Y691249D02*
X894250D01*
X700250Y690799D02*
X894250D01*
X700250Y690349D02*
X894250D01*
X700250Y689899D02*
X894250D01*
X700250Y689449D02*
X894250D01*
X700250Y688999D02*
X894250D01*
X700250Y688549D02*
X894250D01*
X700250Y688099D02*
X894250D01*
X700250Y687649D02*
X894250D01*
X700250Y687199D02*
X894250D01*
X700250Y686749D02*
X894250D01*
X700250Y686299D02*
X894250D01*
X700250Y685849D02*
X894250D01*
X700250Y685399D02*
X894250D01*
X700250Y684949D02*
X894250D01*
X700250Y684499D02*
X894250D01*
X700250Y684049D02*
X894250D01*
X700250Y683599D02*
X894250D01*
X700250Y683149D02*
X894250D01*
X700250Y682699D02*
X894250D01*
X700250Y682249D02*
X894250D01*
X700250Y681799D02*
X894250D01*
X700250Y681349D02*
X894250D01*
X700250Y680899D02*
X894250D01*
X700250Y680449D02*
X894250D01*
X700250Y679999D02*
X894250D01*
X700250Y679549D02*
X894250D01*
X700250Y679099D02*
X894250D01*
X700250Y678649D02*
X894250D01*
X700250Y678199D02*
X894250D01*
X700250Y677749D02*
X894250D01*
X700250Y677299D02*
X894250D01*
X700250Y676849D02*
X894250D01*
X700250Y676399D02*
X894250D01*
X700250Y675949D02*
X894250D01*
X700250Y675499D02*
X894250D01*
X700250Y675049D02*
X894250D01*
X824762Y674599D02*
X894250D01*
X825212Y674149D02*
X894250D01*
X825661Y673699D02*
X894250D01*
X826111Y673249D02*
X894250D01*
X826561Y672799D02*
X894250D01*
X827011Y672349D02*
X894250D01*
X827461Y671899D02*
X894250D01*
X827910Y671449D02*
X894250D01*
X828360Y670999D02*
X894250D01*
X828810Y670549D02*
X894250D01*
X829260Y670099D02*
X894250D01*
X829709Y669649D02*
X894250D01*
X830159Y669199D02*
X894250D01*
X830609Y668749D02*
X894250D01*
X831059Y668299D02*
X894250D01*
X831509Y667849D02*
X894250D01*
X831958Y667399D02*
X894250D01*
X832408Y666949D02*
X894250D01*
X832858Y666499D02*
X894250D01*
X833308Y666049D02*
X894250D01*
X833757Y665599D02*
X894250D01*
X834207Y665149D02*
X894250D01*
X834657Y664699D02*
X894250D01*
X835107Y664249D02*
X894250D01*
X835557Y663799D02*
X894250D01*
X836006Y663349D02*
X894250D01*
X836456Y662899D02*
X894250D01*
X836906Y662449D02*
X894250D01*
X837356Y661999D02*
X894250D01*
X837806Y661549D02*
X894250D01*
X838255Y661099D02*
X894250D01*
X838705Y660649D02*
X894250D01*
X893904Y770899D02*
X894096D01*
X700250Y766399D02*
X880307D01*
X700250Y766849D02*
X878130D01*
X700250Y767299D02*
X876757D01*
X700250Y767749D02*
X875684D01*
X700250Y768199D02*
X874784D01*
X700250Y768649D02*
X874003D01*
X700250Y769099D02*
X873309D01*
X700250Y769549D02*
X872685D01*
X700250Y769999D02*
X872118D01*
X700250Y770449D02*
X871599D01*
X860514Y794299D02*
X871326D01*
X860637Y794749D02*
X871201D01*
X700250Y770899D02*
X871121D01*
X861071Y793849D02*
X870869D01*
X700250Y771349D02*
X870680D01*
X861501Y793399D02*
X870447D01*
X700250Y771799D02*
X870271D01*
X861844Y792949D02*
X870055D01*
X700250Y772249D02*
X869892D01*
X862117Y792499D02*
X869690D01*
X700250Y772699D02*
X869539D01*
X862334Y792049D02*
X869351D01*
X700250Y773149D02*
X869210D01*
X862501Y791599D02*
X869036D01*
X700250Y773599D02*
X868905D01*
X862623Y791149D02*
X868743D01*
X700250Y774049D02*
X868621D01*
X862703Y790699D02*
X868470D01*
X700250Y774499D02*
X868356D01*
X862744Y790249D02*
X868216D01*
X700250Y774949D02*
X868111D01*
X862746Y789799D02*
X867981D01*
X700250Y775399D02*
X867884D01*
X862709Y789349D02*
X867764D01*
X700250Y775849D02*
X867674D01*
X862633Y788899D02*
X867563D01*
X700250Y776299D02*
X867480D01*
X862516Y788449D02*
X867378D01*
X700250Y776749D02*
X867302D01*
X862354Y787999D02*
X867209D01*
X700250Y777199D02*
X867139D01*
X862143Y787549D02*
X867054D01*
X700250Y777649D02*
X866991D01*
X861876Y787099D02*
X866914D01*
X700250Y778099D02*
X866857D01*
X861541Y786649D02*
X866788D01*
X700250Y778549D02*
X866738D01*
X861121Y786199D02*
X866677D01*
X700250Y778999D02*
X866632D01*
X860580Y785749D02*
X866578D01*
X700250Y779449D02*
X866539D01*
X859837Y785299D02*
X866493D01*
X700250Y779899D02*
X866460D01*
X858513Y784849D02*
X866421D01*
X700250Y780349D02*
X866393D01*
X700250Y784399D02*
X866361D01*
X700250Y780799D02*
X866339D01*
X700250Y783949D02*
X866315D01*
X700250Y781249D02*
X866298D01*
X700250Y783499D02*
X866281D01*
X700250Y781699D02*
X866270D01*
X700250Y783049D02*
X866259D01*
X700250Y782149D02*
X866254D01*
X700250Y782599D02*
X866250D01*
X700250Y784849D02*
X856487D01*
X700250Y785299D02*
X855163D01*
X700250Y794299D02*
X854486D01*
X700250Y785749D02*
X854420D01*
X700474Y794749D02*
X854363D01*
X700250Y793849D02*
X853929D01*
X700250Y786199D02*
X853879D01*
X700250Y793399D02*
X853499D01*
X700250Y786649D02*
X853459D01*
X700250Y792949D02*
X853156D01*
X700250Y787099D02*
X853124D01*
X700250Y792499D02*
X852883D01*
X700250Y787549D02*
X852857D01*
X700250Y792049D02*
X852666D01*
X700250Y787999D02*
X852646D01*
X700250Y791599D02*
X852499D01*
X700250Y788449D02*
X852484D01*
X700250Y791149D02*
X852377D01*
X700250Y788899D02*
X852367D01*
X700250Y790699D02*
X852297D01*
X700250Y789349D02*
X852291D01*
X700250Y790249D02*
X852256D01*
X700250Y789799D02*
X852254D01*
X700250Y674599D02*
X721750D01*
X700250Y674149D02*
X721750D01*
X700250Y673699D02*
X721750D01*
X700250Y673249D02*
X721750D01*
X700250Y672799D02*
X721750D01*
X700250Y672349D02*
X721750D01*
X700250Y671899D02*
X721750D01*
X700250Y671449D02*
X721750D01*
X700250Y670999D02*
X721750D01*
X700250Y670549D02*
X721750D01*
X700250Y670099D02*
X721750D01*
X700250Y669649D02*
X721750D01*
X700250Y669199D02*
X721750D01*
X700250Y668749D02*
X721750D01*
X700250Y668299D02*
X721750D01*
X700250Y667849D02*
X721750D01*
X700250Y667399D02*
X721750D01*
X700250Y666949D02*
X721750D01*
X700250Y666499D02*
X721750D01*
X700250Y666049D02*
X721750D01*
X700250Y665599D02*
X721731D01*
X700250Y665149D02*
X721339D01*
X700250Y664699D02*
X720926D01*
X700250Y664249D02*
X720514D01*
X700250Y663799D02*
X720101D01*
X700250Y663349D02*
X719689D01*
X700250Y662899D02*
X719276D01*
X700250Y662449D02*
X718864D01*
X700438Y661999D02*
X718451D01*
X700714Y661549D02*
X718039D01*
X700876Y661099D02*
X717626D01*
X700946Y660649D02*
X717214D01*
X700931Y660199D02*
X716801D01*
X699467Y658249D02*
X894750D01*
X695456Y657799D02*
X894750D01*
X694943Y657349D02*
X894750D01*
X694431Y656899D02*
X894750D01*
X831572Y656449D02*
X894750D01*
X832413Y655999D02*
X894750D01*
X832961Y655549D02*
X894750D01*
X833363Y655099D02*
X894750D01*
X833667Y654649D02*
X894750D01*
X833896Y654199D02*
X894750D01*
X834062Y653749D02*
X894750D01*
X834174Y653299D02*
X894750D01*
X834236Y652849D02*
X894750D01*
X834249Y652399D02*
X894750D01*
X834214Y651949D02*
X894750D01*
X834130Y651499D02*
X894750D01*
X833995Y651049D02*
X894750D01*
X833801Y650599D02*
X894750D01*
X833540Y650149D02*
X894750D01*
X833196Y649699D02*
X894750D01*
X832737Y649249D02*
X894750D01*
X832089Y648799D02*
X894750D01*
X830911Y648349D02*
X894750D01*
X762375Y647899D02*
X894750D01*
X762213Y647449D02*
X894750D01*
X761936Y646999D02*
X894750D01*
X761482Y646549D02*
X894750D01*
X761294Y646099D02*
X894750D01*
X761812Y645649D02*
X894750D01*
X762137Y645199D02*
X894750D01*
X762333Y644749D02*
X894750D01*
X762432Y644299D02*
X894750D01*
X762445Y643849D02*
X894750D01*
X762375Y643399D02*
X894750D01*
X762213Y642949D02*
X894750D01*
X761936Y642499D02*
X894750D01*
X761569Y642049D02*
X894750D01*
X761857Y641599D02*
X894750D01*
X762164Y641149D02*
X894750D01*
X762348Y640699D02*
X894750D01*
X762437Y640249D02*
X894750D01*
X762442Y639799D02*
X894750D01*
X762362Y639349D02*
X894750D01*
X762189Y638899D02*
X894750D01*
X761896Y638449D02*
X894750D01*
X761413Y637999D02*
X894750D01*
X761344Y637549D02*
X894750D01*
X761857Y637099D02*
X894750D01*
X762164Y636649D02*
X894750D01*
X762348Y636199D02*
X894750D01*
X762437Y635749D02*
X894750D01*
X762442Y635299D02*
X894750D01*
X762362Y634849D02*
X894750D01*
X762189Y634399D02*
X894750D01*
X761896Y633949D02*
X894750D01*
X761564Y633499D02*
X894750D01*
X761898Y633049D02*
X894750D01*
X762190Y632599D02*
X894750D01*
X762363Y632149D02*
X894750D01*
X762442Y631699D02*
X894750D01*
X762437Y631249D02*
X894750D01*
X762348Y630799D02*
X894750D01*
X762163Y630349D02*
X894750D01*
X761854Y629899D02*
X894750D01*
X761569Y629449D02*
X894750D01*
X761938Y628999D02*
X894750D01*
X762214Y628549D02*
X894750D01*
X762376Y628099D02*
X894750D01*
X762446Y627649D02*
X894750D01*
X762431Y627199D02*
X894750D01*
X762332Y626749D02*
X894750D01*
X762135Y626299D02*
X894750D01*
X761826Y625849D02*
X894750D01*
X762012Y625399D02*
X894750D01*
X762259Y624949D02*
X894750D01*
X762399Y624499D02*
X894750D01*
X762450Y624049D02*
X894750D01*
X762417Y623599D02*
X894750D01*
X762297Y623149D02*
X894750D01*
X762076Y622699D02*
X894750D01*
X761713Y622249D02*
X894750D01*
X761076Y621799D02*
X894750D01*
X726321Y621349D02*
X894750D01*
X727048Y620899D02*
X894750D01*
X727476Y620449D02*
X894750D01*
X727737Y619999D02*
X894750D01*
X727888Y619549D02*
X894750D01*
X727948Y619099D02*
X894750D01*
X727925Y618649D02*
X894750D01*
X727815Y618199D02*
X894750D01*
X727606Y617749D02*
X894750D01*
X727263Y617299D02*
X894750D01*
X726763Y616849D02*
X894750D01*
X727048Y616399D02*
X894750D01*
X727476Y615949D02*
X894750D01*
X727737Y615499D02*
X894750D01*
X727888Y615049D02*
X894750D01*
X727948Y614599D02*
X894750D01*
X727925Y614149D02*
X894750D01*
X727815Y613699D02*
X894750D01*
X727606Y613249D02*
X894750D01*
X727263Y612799D02*
X894750D01*
X726672Y612349D02*
X894750D01*
X726291Y611899D02*
X894750D01*
X726985Y611449D02*
X894750D01*
X727438Y610999D02*
X894750D01*
X727714Y610549D02*
X894750D01*
X727876Y610099D02*
X894750D01*
X727946Y609649D02*
X894750D01*
X727931Y609199D02*
X894750D01*
X870153Y608749D02*
X894750D01*
X872774Y608299D02*
X894750D01*
X873868Y607849D02*
X894750D01*
X874671Y607399D02*
X894750D01*
X875318Y606949D02*
X894750D01*
X875859Y606499D02*
X894750D01*
X876323Y606049D02*
X894750D01*
X876724Y605599D02*
X894750D01*
X877075Y605149D02*
X894750D01*
X877381Y604699D02*
X894750D01*
X877649Y604249D02*
X894750D01*
X877882Y603799D02*
X894750D01*
X878084Y603349D02*
X894750D01*
X878256Y602899D02*
X894750D01*
X878400Y602449D02*
X894750D01*
X878519Y601999D02*
X894750D01*
X878612Y601549D02*
X894750D01*
X878681Y601099D02*
X894750D01*
X878726Y600649D02*
X894750D01*
X878748Y600199D02*
X894750D01*
X878746Y599749D02*
X894750D01*
X878722Y599299D02*
X894750D01*
X878674Y598849D02*
X894750D01*
X878602Y598399D02*
X894750D01*
X878506Y597949D02*
X894750D01*
X878385Y597499D02*
X894750D01*
X878237Y597049D02*
X894750D01*
X878062Y596599D02*
X894750D01*
X877857Y596149D02*
X894750D01*
X877620Y595699D02*
X894750D01*
X877348Y595249D02*
X894750D01*
X877036Y594799D02*
X894750D01*
X876680Y594349D02*
X894750D01*
X876272Y593899D02*
X894750D01*
X875800Y593449D02*
X894750D01*
X875248Y592999D02*
X894750D01*
X874587Y592549D02*
X894750D01*
X873759Y592099D02*
X894750D01*
X872611Y591649D02*
X894750D01*
X505250Y591199D02*
X894750D01*
X505250Y590749D02*
X894750D01*
X505250Y590299D02*
X894750D01*
X505250Y589849D02*
X894750D01*
X505250Y589399D02*
X894750D01*
X505250Y588949D02*
X894750D01*
X505250Y588499D02*
X894750D01*
X505250Y588049D02*
X894750D01*
X505250Y587599D02*
X894750D01*
X505250Y587149D02*
X894750D01*
X505250Y586699D02*
X894750D01*
X505250Y586249D02*
X894750D01*
X505250Y585799D02*
X894750D01*
X505250Y585349D02*
X894750D01*
X505250Y584899D02*
X894750D01*
X505250Y584449D02*
X894750D01*
X505250Y583999D02*
X894750D01*
X505250Y583549D02*
X894750D01*
X505250Y583099D02*
X894750D01*
X505250Y582649D02*
X894750D01*
X505250Y582199D02*
X894750D01*
X505250Y581749D02*
X894750D01*
X505250Y581299D02*
X894750D01*
X505250Y580849D02*
X894750D01*
X505250Y580399D02*
X894750D01*
X505250Y579949D02*
X894750D01*
X505250Y579499D02*
X894750D01*
X505250Y579049D02*
X894750D01*
X505250Y578599D02*
X894750D01*
X505250Y578149D02*
X894750D01*
X505250Y577699D02*
X894750D01*
X872955Y577249D02*
X894750D01*
X874905Y576799D02*
X894750D01*
X876243Y576349D02*
X894750D01*
X877313Y575899D02*
X894750D01*
X878221Y575449D02*
X894750D01*
X879016Y574999D02*
X894750D01*
X879726Y574549D02*
X894750D01*
X880367Y574099D02*
X894750D01*
X880953Y573649D02*
X894750D01*
X881491Y573199D02*
X894750D01*
X881988Y572749D02*
X894750D01*
X882450Y572299D02*
X894750D01*
X882879Y571849D02*
X894750D01*
X883279Y571399D02*
X894750D01*
X883652Y570949D02*
X894750D01*
X884001Y570499D02*
X894750D01*
X884327Y570049D02*
X894750D01*
X884633Y569599D02*
X894750D01*
X884918Y569149D02*
X894750D01*
X885185Y568699D02*
X894750D01*
X885434Y568249D02*
X894750D01*
X885666Y567799D02*
X894750D01*
X885882Y567349D02*
X894750D01*
X886083Y566899D02*
X894750D01*
X886269Y566449D02*
X894750D01*
X886440Y565999D02*
X894750D01*
X886597Y565549D02*
X894750D01*
X886741Y565099D02*
X894750D01*
X886871Y564649D02*
X894750D01*
X886989Y564199D02*
X894750D01*
X887094Y563749D02*
X894750D01*
X887186Y563299D02*
X894750D01*
X887267Y562849D02*
X894750D01*
X887335Y562399D02*
X894750D01*
X887391Y561949D02*
X894750D01*
X887436Y561499D02*
X894750D01*
X887469Y561049D02*
X894750D01*
X887490Y560599D02*
X894750D01*
X887499Y560149D02*
X894750D01*
X887497Y559699D02*
X894750D01*
X887484Y559249D02*
X894750D01*
X887459Y558799D02*
X894750D01*
X887422Y558349D02*
X894750D01*
X887373Y557899D02*
X894750D01*
X887313Y557449D02*
X894750D01*
X887241Y556999D02*
X894750D01*
X887156Y556549D02*
X894750D01*
X887060Y556099D02*
X894750D01*
X886950Y555649D02*
X894750D01*
X886828Y555199D02*
X894750D01*
X886694Y554749D02*
X894750D01*
X886545Y554299D02*
X894750D01*
X886383Y553849D02*
X894750D01*
X886207Y553399D02*
X894750D01*
X886017Y552949D02*
X894750D01*
X885811Y552499D02*
X894750D01*
X885589Y552049D02*
X894750D01*
X885352Y551599D02*
X894750D01*
X885097Y551149D02*
X894750D01*
X884824Y550699D02*
X894750D01*
X884531Y550249D02*
X894750D01*
X884219Y549799D02*
X894750D01*
X883885Y549349D02*
X894750D01*
X883528Y548899D02*
X894750D01*
X883146Y548449D02*
X894750D01*
X882737Y547999D02*
X894750D01*
X882297Y547549D02*
X894750D01*
X881824Y547099D02*
X894750D01*
X881313Y546649D02*
X894750D01*
X880760Y546199D02*
X894750D01*
X880156Y545749D02*
X894750D01*
X879493Y545299D02*
X894750D01*
X878757Y544849D02*
X894750D01*
X877928Y544399D02*
X894750D01*
X876972Y543949D02*
X894750D01*
X875827Y543499D02*
X894750D01*
X874348Y543049D02*
X894750D01*
X871856Y542599D02*
X894750D01*
X505250Y542149D02*
X894750D01*
X505250Y541699D02*
X894750D01*
X505250Y541249D02*
X894750D01*
X505250Y540799D02*
X894750D01*
X505250Y540349D02*
X894750D01*
X505250Y539899D02*
X894750D01*
X505250Y539449D02*
X894750D01*
X505250Y538999D02*
X894750D01*
X505250Y538549D02*
X894750D01*
X505250Y538099D02*
X894750D01*
X505250Y537649D02*
X894750D01*
X505250Y537199D02*
X894750D01*
X505250Y536749D02*
X894750D01*
X505250Y536299D02*
X894750D01*
X505250Y535849D02*
X894750D01*
X505250Y535399D02*
X894750D01*
X505250Y534949D02*
X894750D01*
X505250Y534499D02*
X894750D01*
X505250Y534049D02*
X894750D01*
X884713Y533599D02*
X894750D01*
X886880Y533149D02*
X894750D01*
X888250Y532699D02*
X894750D01*
X889322Y532249D02*
X894750D01*
X890221Y531799D02*
X894750D01*
X891002Y531349D02*
X894750D01*
X891694Y530899D02*
X894750D01*
X892318Y530449D02*
X894750D01*
X892885Y529999D02*
X894750D01*
X893404Y529549D02*
X894750D01*
X893881Y529099D02*
X894750D01*
X894323Y528649D02*
X894677D01*
X717460Y658699D02*
X894673D01*
X519713Y533599D02*
X880287D01*
X521880Y533149D02*
X878120D01*
X523250Y532699D02*
X876750D01*
X524322Y532249D02*
X875678D01*
X525221Y531799D02*
X874779D01*
X526002Y531349D02*
X873998D01*
X526694Y530899D02*
X873306D01*
X527318Y530449D02*
X872682D01*
X527885Y529999D02*
X872115D01*
X528404Y529549D02*
X871596D01*
X545511Y505699D02*
X871329D01*
X528881Y529099D02*
X871119D01*
X546068Y506149D02*
X870872D01*
X529322Y528649D02*
X870678D01*
X546499Y506599D02*
X870449D01*
X529731Y528199D02*
X870269D01*
X546842Y507049D02*
X870057D01*
X530111Y527749D02*
X869889D01*
X727832Y608749D02*
X869847D01*
X547116Y507499D02*
X869692D01*
X530463Y527299D02*
X869537D01*
X547333Y507949D02*
X869353D01*
X530792Y526849D02*
X869208D01*
X547500Y508399D02*
X869038D01*
X531097Y526399D02*
X868903D01*
X547622Y508849D02*
X868744D01*
X531381Y525949D02*
X868619D01*
X547703Y509299D02*
X868471D01*
X531645Y525499D02*
X868355D01*
X547744Y509749D02*
X868218D01*
X505250Y542599D02*
X868144D01*
X531890Y525049D02*
X868110D01*
X547746Y510199D02*
X867983D01*
X532118Y524599D02*
X867882D01*
X547710Y510649D02*
X867765D01*
X532328Y524149D02*
X867672D01*
X547634Y511099D02*
X867564D01*
X532521Y523699D02*
X867479D01*
X505250Y591649D02*
X867389D01*
X547516Y511549D02*
X867379D01*
X532699Y523249D02*
X867301D01*
X727635Y608299D02*
X867226D01*
X547355Y511999D02*
X867210D01*
X532862Y522799D02*
X867138D01*
X547144Y512449D02*
X867055D01*
X505250Y577249D02*
X867045D01*
X533010Y522349D02*
X866990D01*
X546877Y512899D02*
X866915D01*
X533143Y521899D02*
X866857D01*
X546543Y513349D02*
X866789D01*
X533263Y521449D02*
X866737D01*
X546124Y513799D02*
X866677D01*
X533369Y520999D02*
X866631D01*
X545584Y514249D02*
X866579D01*
X533461Y520549D02*
X866539D01*
X544842Y514699D02*
X866493D01*
X533541Y520099D02*
X866459D01*
X543527Y515149D02*
X866421D01*
X533607Y519649D02*
X866393D01*
X533638Y515599D02*
X866362D01*
X533661Y519199D02*
X866339D01*
X533685Y516049D02*
X866315D01*
X533702Y518749D02*
X866298D01*
X533719Y516499D02*
X866281D01*
X533730Y518299D02*
X866270D01*
X533741Y516949D02*
X866259D01*
X533746Y517849D02*
X866254D01*
X533750Y517399D02*
X866250D01*
X505250Y592099D02*
X866241D01*
X727310Y607849D02*
X866132D01*
X505250Y543049D02*
X865652D01*
X505250Y592549D02*
X865413D01*
X726760Y607399D02*
X865329D01*
X505250Y576799D02*
X865095D01*
X505250Y592999D02*
X864752D01*
X505250Y606949D02*
X864682D01*
X505250Y593449D02*
X864200D01*
X505250Y543499D02*
X864173D01*
X505250Y606499D02*
X864141D01*
X505250Y576349D02*
X863757D01*
X505250Y593899D02*
X863728D01*
X505250Y606049D02*
X863677D01*
X505250Y594349D02*
X863320D01*
X505250Y605599D02*
X863276D01*
X505250Y543949D02*
X863028D01*
X505250Y594799D02*
X862964D01*
X505250Y605149D02*
X862925D01*
X505250Y575899D02*
X862687D01*
X505250Y595249D02*
X862652D01*
X505250Y604699D02*
X862619D01*
X505250Y595699D02*
X862380D01*
X505250Y604249D02*
X862351D01*
X505250Y596149D02*
X862143D01*
X505250Y603799D02*
X862118D01*
X505250Y544399D02*
X862072D01*
X505250Y596599D02*
X861938D01*
X505250Y603349D02*
X861916D01*
X505250Y575449D02*
X861779D01*
X505250Y597049D02*
X861763D01*
X505250Y602899D02*
X861744D01*
X505250Y597499D02*
X861615D01*
X505250Y602449D02*
X861600D01*
X505250Y597949D02*
X861494D01*
X505250Y601999D02*
X861481D01*
X505250Y598399D02*
X861398D01*
X505250Y601549D02*
X861388D01*
X505250Y598849D02*
X861326D01*
X505250Y601099D02*
X861319D01*
X505250Y599299D02*
X861278D01*
X505250Y600649D02*
X861274D01*
X505250Y599749D02*
X861254D01*
X505250Y600199D02*
X861252D01*
X505250Y544849D02*
X861243D01*
X505250Y574999D02*
X860984D01*
X505250Y545299D02*
X860507D01*
X505250Y574549D02*
X860274D01*
X505250Y545749D02*
X859844D01*
X505250Y574099D02*
X859633D01*
X505250Y546199D02*
X859240D01*
X505250Y573649D02*
X859047D01*
X505250Y546649D02*
X858687D01*
X505250Y573199D02*
X858509D01*
X505250Y547099D02*
X858176D01*
X505250Y572749D02*
X858012D01*
X505250Y547549D02*
X857703D01*
X505250Y572299D02*
X857550D01*
X505250Y547999D02*
X857263D01*
X505250Y571849D02*
X857121D01*
X505250Y548449D02*
X856854D01*
X505250Y571399D02*
X856721D01*
X505250Y548899D02*
X856472D01*
X505250Y570949D02*
X856348D01*
X505250Y549349D02*
X856115D01*
X505250Y570499D02*
X855999D01*
X505250Y549799D02*
X855781D01*
X505250Y570049D02*
X855673D01*
X505250Y550249D02*
X855469D01*
X505250Y569599D02*
X855367D01*
X505250Y550699D02*
X855176D01*
X505250Y569149D02*
X855082D01*
X505250Y551149D02*
X854903D01*
X505250Y568699D02*
X854815D01*
X505250Y551599D02*
X854648D01*
X505250Y568249D02*
X854566D01*
X505250Y552049D02*
X854411D01*
X505250Y567799D02*
X854334D01*
X505250Y552499D02*
X854189D01*
X505250Y567349D02*
X854118D01*
X505250Y552949D02*
X853983D01*
X505250Y566899D02*
X853917D01*
X505250Y553399D02*
X853793D01*
X505250Y566449D02*
X853731D01*
X505250Y553849D02*
X853617D01*
X505250Y565999D02*
X853560D01*
X505250Y554299D02*
X853455D01*
X505250Y565549D02*
X853403D01*
X505250Y554749D02*
X853306D01*
X505250Y565099D02*
X853259D01*
X505250Y555199D02*
X853172D01*
X505250Y564649D02*
X853129D01*
X505250Y555649D02*
X853050D01*
X505250Y564199D02*
X853011D01*
X505250Y556099D02*
X852940D01*
X505250Y563749D02*
X852906D01*
X505250Y556549D02*
X852844D01*
X505250Y563299D02*
X852814D01*
X505250Y556999D02*
X852759D01*
X505250Y562849D02*
X852733D01*
X505250Y557449D02*
X852687D01*
X505250Y562399D02*
X852665D01*
X505250Y557899D02*
X852627D01*
X505250Y561949D02*
X852609D01*
X505250Y558349D02*
X852578D01*
X505250Y561499D02*
X852564D01*
X505250Y558799D02*
X852541D01*
X505250Y561049D02*
X852531D01*
X505250Y559249D02*
X852516D01*
X505250Y560599D02*
X852510D01*
X505250Y559699D02*
X852503D01*
X505250Y560149D02*
X852501D01*
X717874Y659149D02*
X838085D01*
X718286Y659599D02*
X837634D01*
X718699Y660049D02*
X837184D01*
X719111Y660499D02*
X836734D01*
X719524Y660949D02*
X836284D01*
X719936Y661399D02*
X835835D01*
X720349Y661849D02*
X835385D01*
X720761Y662299D02*
X834935D01*
X721174Y662749D02*
X834485D01*
X721586Y663199D02*
X834035D01*
X721999Y663649D02*
X833586D01*
X722411Y664099D02*
X833136D01*
X722824Y664549D02*
X832686D01*
X723125Y664999D02*
X832236D01*
X740340Y665449D02*
X831787D01*
X740854Y665899D02*
X831337D01*
X741163Y666349D02*
X830887D01*
X741348Y666799D02*
X830437D01*
X741437Y667249D02*
X829987D01*
X741442Y667699D02*
X829538D01*
X813487Y648349D02*
X829089D01*
X741363Y668149D02*
X829088D01*
X741190Y668599D02*
X828638D01*
X813814Y656449D02*
X828428D01*
X740898Y669049D02*
X828188D01*
X814035Y648799D02*
X827911D01*
X740417Y669499D02*
X827739D01*
X814146Y655999D02*
X827587D01*
X739081Y669949D02*
X827289D01*
X814224Y649249D02*
X827263D01*
X814249Y655549D02*
X827039D01*
X723250Y670399D02*
X826839D01*
X814250Y649699D02*
X826804D01*
X814250Y655099D02*
X826637D01*
X814250Y650149D02*
X826460D01*
X723250Y670849D02*
X826389D01*
X814250Y654649D02*
X826333D01*
X814250Y650599D02*
X826199D01*
X814250Y654199D02*
X826104D01*
X814250Y651049D02*
X826005D01*
X723250Y671299D02*
X825939D01*
X814250Y653749D02*
X825938D01*
X814250Y651499D02*
X825870D01*
X814250Y653299D02*
X825826D01*
X814250Y651949D02*
X825786D01*
X814250Y652849D02*
X825764D01*
X814250Y652399D02*
X825751D01*
X723250Y671749D02*
X825490D01*
X723250Y672199D02*
X825040D01*
X723250Y672649D02*
X824590D01*
X723270Y673099D02*
X824140D01*
X762445Y648349D02*
X806513D01*
X693918Y656449D02*
X806186D01*
X762432Y648799D02*
X805965D01*
X740292Y655999D02*
X805854D01*
X762333Y649249D02*
X805776D01*
X740991Y655549D02*
X805751D01*
X760764Y655099D02*
X805750D01*
X761312Y654649D02*
X805750D01*
X761637Y654199D02*
X805750D01*
X761833Y653749D02*
X805750D01*
X761932Y653299D02*
X805750D01*
X761945Y652849D02*
X805750D01*
X761875Y652399D02*
X805750D01*
X761713Y651949D02*
X805750D01*
X761436Y651499D02*
X805750D01*
X761003Y651049D02*
X805750D01*
X761264Y650599D02*
X805750D01*
X761812Y650149D02*
X805750D01*
X762137Y649699D02*
X805750D01*
X757076Y621799D02*
X758924D01*
X757713Y622249D02*
X758287D01*
X756764Y655099D02*
X758236D01*
X757312Y654649D02*
X757688D01*
X753076Y621799D02*
X754924D01*
X753713Y622249D02*
X754287D01*
X752764Y655099D02*
X754236D01*
X753312Y654649D02*
X753688D01*
X749076Y621799D02*
X750924D01*
X749713Y622249D02*
X750287D01*
X748764Y655099D02*
X750236D01*
X749312Y654649D02*
X749688D01*
X745076Y621799D02*
X746924D01*
X745713Y622249D02*
X746287D01*
X745264Y655099D02*
X746236D01*
X740076Y621799D02*
X742924D01*
X741348Y655099D02*
X742736D01*
X733348Y646099D02*
X742706D01*
X740344Y637549D02*
X742656D01*
X707936Y637999D02*
X742587D01*
X732991Y646549D02*
X742518D01*
X663758Y642049D02*
X742431D01*
X740713Y622249D02*
X742287D01*
X741550Y654649D02*
X742188D01*
X733550Y645649D02*
X742188D01*
X707264Y641599D02*
X742143D01*
X740857Y637099D02*
X742143D01*
X708213Y638449D02*
X742104D01*
X732292Y646999D02*
X742064D01*
X663898Y642499D02*
X742064D01*
X741076Y622699D02*
X741924D01*
X733641Y645199D02*
X741863D01*
X707812Y641149D02*
X741836D01*
X741164Y636649D02*
X741836D01*
X708375Y638899D02*
X741811D01*
X740144Y647449D02*
X741787D01*
X732144Y642949D02*
X741787D01*
X741315Y623149D02*
X741685D01*
X733635Y644749D02*
X741667D01*
X708137Y640699D02*
X741652D01*
X708445Y639349D02*
X741638D01*
X740935Y647899D02*
X741625D01*
X732935Y643399D02*
X741625D01*
X733532Y644299D02*
X741568D01*
X708333Y640249D02*
X741563D01*
X708432Y639799D02*
X741558D01*
X733316Y643849D02*
X741555D01*
X723250Y669949D02*
X738919D01*
X732183Y647449D02*
X738856D01*
X732183Y651949D02*
X738817D01*
X732292Y655999D02*
X738708D01*
X732292Y651499D02*
X738708D01*
X732935Y652399D02*
X738065D01*
X732935Y647899D02*
X738065D01*
X732991Y655549D02*
X738009D01*
X732991Y651049D02*
X738009D01*
X735576Y621799D02*
X737924D01*
X733316Y652849D02*
X737684D01*
X733316Y648349D02*
X737684D01*
X723243Y665449D02*
X737660D01*
X735844Y637549D02*
X737656D01*
X733348Y655099D02*
X737652D01*
X733348Y650599D02*
X737652D01*
X723250Y669499D02*
X737583D01*
X733532Y653299D02*
X737468D01*
X733532Y648799D02*
X737468D01*
X733550Y654649D02*
X737450D01*
X733550Y650149D02*
X737450D01*
X733635Y653749D02*
X737365D01*
X733635Y649249D02*
X737365D01*
X733641Y654199D02*
X737359D01*
X733641Y649699D02*
X737359D01*
X736213Y622249D02*
X737287D01*
X723250Y665899D02*
X737146D01*
X736357Y637099D02*
X737143D01*
X723250Y669049D02*
X737102D01*
X736589Y622699D02*
X736911D01*
X723250Y666349D02*
X736837D01*
X723250Y668599D02*
X736810D01*
X723250Y666799D02*
X736652D01*
X723250Y668149D02*
X736637D01*
X723250Y667249D02*
X736563D01*
X723250Y667699D02*
X736558D01*
X732076Y621799D02*
X733424D01*
X732344Y637549D02*
X733156D01*
X663949Y642949D02*
X730856D01*
X705909Y651949D02*
X730817D01*
X723144Y647449D02*
X730817D01*
X693405Y655999D02*
X730708D01*
X723292Y651499D02*
X730708D01*
X705436Y646999D02*
X730708D01*
X705779Y652399D02*
X730065D01*
X723935Y647899D02*
X730065D01*
X663917Y643399D02*
X730065D01*
X692892Y655549D02*
X730009D01*
X723991Y651049D02*
X730009D01*
X704982Y646549D02*
X730009D01*
X726576Y621799D02*
X729924D01*
X705545Y652849D02*
X729684D01*
X724316Y648349D02*
X729684D01*
X663798Y643849D02*
X729684D01*
X707482Y637549D02*
X729656D01*
X692379Y655099D02*
X729652D01*
X724348Y650599D02*
X729652D01*
X703986Y646099D02*
X729652D01*
X705164Y653299D02*
X729468D01*
X724532Y648799D02*
X729468D01*
X663578Y644299D02*
X729468D01*
X691866Y654649D02*
X729450D01*
X724550Y650149D02*
X729450D01*
X677662Y645649D02*
X729450D01*
X727399Y633499D02*
X729436D01*
X727409Y629449D02*
X729431D01*
X704473Y653749D02*
X729365D01*
X724635Y649249D02*
X729365D01*
X663216Y644749D02*
X729365D01*
X691353Y654199D02*
X729359D01*
X724641Y649699D02*
X729359D01*
X662581Y645199D02*
X729359D01*
X727213Y622249D02*
X729287D01*
X727108Y625849D02*
X729174D01*
X727279Y629899D02*
X729146D01*
X706486Y637099D02*
X729143D01*
X727259Y633949D02*
X729104D01*
X727450Y633049D02*
X729102D01*
X727450Y628999D02*
X729062D01*
X727512Y625399D02*
X728988D01*
X727576Y622699D02*
X728924D01*
X726348Y626299D02*
X728865D01*
X727045Y630349D02*
X728837D01*
X686664Y636649D02*
X728836D01*
X727012Y634399D02*
X728811D01*
X727417Y632599D02*
X728810D01*
X727408Y628549D02*
X728786D01*
X727759Y624949D02*
X728741D01*
X727797Y623149D02*
X728703D01*
X726034Y626749D02*
X728668D01*
X726664Y630799D02*
X728652D01*
X686848Y636199D02*
X728652D01*
X726608Y634849D02*
X728638D01*
X727297Y632149D02*
X728637D01*
X727278Y628099D02*
X728624D01*
X727899Y624499D02*
X728601D01*
X727917Y623599D02*
X728583D01*
X726661Y627199D02*
X728569D01*
X726713Y631249D02*
X728563D01*
X686937Y635749D02*
X728563D01*
X725848Y635299D02*
X728558D01*
X727076Y631699D02*
X728558D01*
X727044Y627649D02*
X728554D01*
X727950Y624049D02*
X728550D01*
X722760Y607399D02*
X724240D01*
X721848Y635299D02*
X724152D01*
X723310Y607849D02*
X723690D01*
X722608Y634849D02*
X723392D01*
X705713Y647449D02*
X721856D01*
X705950Y651499D02*
X721708D01*
X705875Y647899D02*
X721065D01*
X705908Y651049D02*
X721009D01*
X717463Y611899D02*
X720709D01*
X705945Y648349D02*
X720684D01*
X705778Y650599D02*
X720652D01*
X505250Y621349D02*
X720510D01*
X705932Y648799D02*
X720468D01*
X705544Y650149D02*
X720450D01*
X705833Y649249D02*
X720365D01*
X705637Y649699D02*
X720359D01*
X717810Y612349D02*
X720328D01*
X717760Y607399D02*
X720240D01*
X505250Y616849D02*
X720237D01*
X686942Y635299D02*
X720152D01*
X505250Y626299D02*
X720128D01*
X505250Y626749D02*
X720033D01*
X717985Y611449D02*
X720015D01*
X505250Y620899D02*
X719952D01*
X716499Y616399D02*
X719952D01*
X505250Y621799D02*
X719924D01*
X505250Y617299D02*
X719737D01*
X718135Y612799D02*
X719737D01*
X718310Y607849D02*
X719690D01*
X718438Y610999D02*
X719562D01*
X505250Y620449D02*
X719524D01*
X717485Y615949D02*
X719524D01*
X505250Y617749D02*
X719394D01*
X718332Y613249D02*
X719394D01*
X686862Y634849D02*
X719392D01*
X505250Y625849D02*
X719392D01*
X718635Y608299D02*
X719365D01*
X505250Y627199D02*
X719339D01*
X685848Y630799D02*
X719336D01*
X685937Y631249D02*
X719287D01*
X505250Y622249D02*
X719287D01*
X718714Y610549D02*
X719286D01*
X505250Y619999D02*
X719263D01*
X717938Y615499D02*
X719263D01*
X505250Y618199D02*
X719185D01*
X718431Y613699D02*
X719185D01*
X505250Y619549D02*
X719112D01*
X718214Y615049D02*
X719112D01*
X505250Y618649D02*
X719075D01*
X718446Y614149D02*
X719075D01*
X505250Y619099D02*
X719052D01*
X718376Y614599D02*
X719052D01*
X686689Y634399D02*
X718988D01*
X505250Y625399D02*
X718988D01*
X505250Y627649D02*
X718956D01*
X685663Y630349D02*
X718955D01*
X685942Y631699D02*
X718924D01*
X505250Y622699D02*
X718924D01*
X686396Y633949D02*
X718741D01*
X505250Y624949D02*
X718741D01*
X505250Y628099D02*
X718722D01*
X685354Y629899D02*
X718721D01*
X685863Y632149D02*
X718703D01*
X505250Y623149D02*
X718703D01*
X685913Y633499D02*
X718601D01*
X505250Y624499D02*
X718601D01*
X505250Y628549D02*
X718592D01*
X684840Y629449D02*
X718591D01*
X685690Y632599D02*
X718583D01*
X505250Y623599D02*
X718583D01*
X685443Y633049D02*
X718550D01*
X505250Y624049D02*
X718550D01*
X505250Y628999D02*
X718550D01*
X505250Y616399D02*
X715501D01*
X505250Y607399D02*
X715240D01*
X505250Y611449D02*
X714995D01*
X505250Y611899D02*
X714740D01*
X505250Y607849D02*
X714690D01*
X505250Y610999D02*
X714562D01*
X505250Y615949D02*
X714515D01*
X505250Y608299D02*
X714365D01*
X505250Y610549D02*
X714286D01*
X505250Y612349D02*
X714190D01*
X505250Y608749D02*
X714168D01*
X505250Y610099D02*
X714124D01*
X505250Y609199D02*
X714069D01*
X505250Y615499D02*
X714062D01*
X505250Y609649D02*
X714054D01*
X505250Y612799D02*
X713865D01*
X505250Y615049D02*
X713786D01*
X505250Y613249D02*
X713668D01*
X505250Y614599D02*
X713624D01*
X505250Y613699D02*
X713569D01*
X505250Y614149D02*
X713554D01*
X702486Y637099D02*
X705514D01*
X703264Y641599D02*
X704736D01*
X703482Y637549D02*
X704518D01*
X703812Y641149D02*
X704188D01*
X700486Y646099D02*
X703014D01*
X700973Y653749D02*
X702527D01*
X701482Y646549D02*
X702018D01*
X698486Y637099D02*
X701514D01*
X699264Y641599D02*
X700736D01*
X699482Y637549D02*
X700518D01*
X699812Y641149D02*
X700188D01*
X696986Y646099D02*
X699514D01*
X697473Y653749D02*
X699027D01*
X697982Y646549D02*
X698518D01*
X686357Y637099D02*
X697514D01*
X696039Y658249D02*
X697506D01*
X667764Y641599D02*
X696736D01*
X685844Y637549D02*
X696518D01*
X668312Y641149D02*
X696188D01*
X668436Y637999D02*
X696064D01*
X678492Y646099D02*
X696014D01*
X668637Y640699D02*
X695863D01*
X668713Y638449D02*
X695787D01*
X668833Y640249D02*
X695667D01*
X668875Y638899D02*
X695625D01*
X668932Y639799D02*
X695568D01*
X668945Y639349D02*
X695555D01*
X690841Y653749D02*
X695527D01*
X678942Y646549D02*
X695018D01*
X690328Y653299D02*
X694836D01*
X679392Y646999D02*
X694564D01*
X686738Y650149D02*
X694456D01*
X689815Y652849D02*
X694455D01*
X686225Y649699D02*
X694363D01*
X679842Y647449D02*
X694287D01*
X687251Y650599D02*
X694222D01*
X689302Y652399D02*
X694221D01*
X685707Y649249D02*
X694167D01*
X680292Y647899D02*
X694125D01*
X687763Y651049D02*
X694092D01*
X688789Y651949D02*
X694091D01*
X681192Y648799D02*
X694068D01*
X680742Y648349D02*
X694055D01*
X688276Y651499D02*
X694050D01*
X681344Y637549D02*
X683156D01*
X681857Y637099D02*
X682643D01*
X681340Y629449D02*
X682160D01*
X676340D02*
X678660D01*
X676344Y637549D02*
X678656D01*
X676854Y629899D02*
X678146D01*
X676857Y637099D02*
X678143D01*
X677163Y630349D02*
X677837D01*
X677164Y636649D02*
X677836D01*
X671340Y629449D02*
X673660D01*
X667982Y637549D02*
X673656D01*
X671854Y629899D02*
X673146D01*
X671264Y637099D02*
X673143D01*
X672163Y630349D02*
X672837D01*
X671812Y636649D02*
X672836D01*
X672137Y636199D02*
X672652D01*
X667442Y637099D02*
X668736D01*
X666840Y629449D02*
X668660D01*
X667664Y636649D02*
X668188D01*
X667354Y629899D02*
X668146D01*
X663510Y641599D02*
X665236D01*
X541137Y645649D02*
X665213D01*
X663328Y641149D02*
X664688D01*
X541713Y646099D02*
X664384D01*
X663637Y640699D02*
X664363D01*
X662840Y629449D02*
X664160D01*
X542156Y646549D02*
X663934D01*
X663368Y629899D02*
X663632D01*
X542508Y646999D02*
X663484D01*
X542788Y647449D02*
X663034D01*
X543011Y647899D02*
X662584D01*
X543184Y648349D02*
X662134D01*
X543311Y648799D02*
X661684D01*
X543396Y649249D02*
X661234D01*
X540324Y645199D02*
X660419D01*
X505250Y629449D02*
X660160D01*
X505250Y633499D02*
X659936D01*
X505250Y637549D02*
X659931D01*
X505250Y644749D02*
X659784D01*
X505250Y641149D02*
X659672D01*
X505250Y629899D02*
X659646D01*
X505250Y637099D02*
X659643D01*
X505250Y633949D02*
X659604D01*
X505250Y633049D02*
X659602D01*
X505250Y637999D02*
X659564D01*
X505250Y641599D02*
X659490D01*
X505250Y644299D02*
X659422D01*
X505250Y640699D02*
X659363D01*
X505250Y630349D02*
X659337D01*
X505250Y636649D02*
X659336D01*
X505250Y634399D02*
X659311D01*
X505250Y632599D02*
X659310D01*
X505250Y638449D02*
X659287D01*
X505250Y642049D02*
X659242D01*
X505250Y643849D02*
X659202D01*
X505250Y640249D02*
X659167D01*
X505250Y630799D02*
X659152D01*
X505250Y636199D02*
X659152D01*
X505250Y634849D02*
X659138D01*
X505250Y632149D02*
X659137D01*
X505250Y638899D02*
X659125D01*
X505250Y642499D02*
X659102D01*
X505250Y643399D02*
X659083D01*
X505250Y639799D02*
X659068D01*
X505250Y631249D02*
X659063D01*
X505250Y635749D02*
X659063D01*
X505250Y635299D02*
X659058D01*
X505250Y631699D02*
X659058D01*
X505250Y639349D02*
X659055D01*
X505250Y642949D02*
X659051D01*
X533579Y515149D02*
X541473D01*
X533507Y514699D02*
X540158D01*
X528671Y505699D02*
X539489D01*
X533421Y514249D02*
X539416D01*
X529128Y506149D02*
X538932D01*
X533323Y513799D02*
X538876D01*
X529551Y506599D02*
X538501D01*
X533211Y513349D02*
X538457D01*
X529943Y507049D02*
X538158D01*
X533085Y512899D02*
X538123D01*
X530308Y507499D02*
X537884D01*
X532945Y512449D02*
X537856D01*
X530647Y507949D02*
X537667D01*
X532790Y511999D02*
X537645D01*
X530962Y508399D02*
X537500D01*
X532621Y511549D02*
X537484D01*
X531256Y508849D02*
X537378D01*
X532436Y511099D02*
X537366D01*
X531529Y509299D02*
X537297D01*
X532235Y510649D02*
X537290D01*
X531782Y509749D02*
X537256D01*
X532017Y510199D02*
X537254D01*
X522624Y645199D02*
X536076D01*
X523437Y645649D02*
X535263D01*
X524013Y646099D02*
X534687D01*
X524456Y646549D02*
X534244D01*
X524808Y646999D02*
X533892D01*
X525088Y647449D02*
X533612D01*
X525311Y647899D02*
X533389D01*
X525484Y648349D02*
X533216D01*
X525611Y648799D02*
X533089D01*
X525696Y649249D02*
X533004D01*
X505250Y645199D02*
X518376D01*
X505250Y645649D02*
X517563D01*
X505250Y646099D02*
X516987D01*
X505250Y646549D02*
X516544D01*
X505250Y646999D02*
X516192D01*
X505250Y647449D02*
X515912D01*
X505250Y647899D02*
X515689D01*
X505250Y648349D02*
X515516D01*
X505250Y648799D02*
X515389D01*
X505250Y649249D02*
X515304D01*
X505250Y533599D02*
X515287D01*
X505250Y533149D02*
X513120D01*
X505250Y532699D02*
X511750D01*
X505250Y532249D02*
X510678D01*
X505250Y531799D02*
X509779D01*
X505250Y531349D02*
X508998D01*
X505250Y530899D02*
X508306D01*
X505250Y530449D02*
X507682D01*
X505250Y529999D02*
X507115D01*
X505250Y529549D02*
X506596D01*
X505250Y529099D02*
X506119D01*
X505323Y528649D02*
X505677D01*
G54D26*
X500000Y500000D02*
X900000D01*
Y800000*
X500000*
Y500000*
G54D77*
X676500Y608000D03*
Y612000D03*
X681000Y608000D03*
X672000Y612000D03*
X681000D03*
X685500Y608000D03*
Y612000D03*
X695500Y600000D03*
X672000Y608000D03*
X690500Y600000D03*
X676500Y596000D03*
X672000Y604000D03*
X690500Y612000D03*
X695500D03*
X676500Y604000D03*
X695500D03*
X690500D03*
X681000Y596000D03*
Y604000D03*
X685500D03*
X690500Y596000D03*
Y608000D03*
X695500D03*
Y596000D03*
X685500D03*
X672000Y618000D03*
Y596000D03*
X676500Y618000D03*
X672000Y600000D03*
X681000Y618000D03*
X685500D03*
Y600000D03*
X689000Y618000D03*
X676500Y600000D03*
X681000D03*
X716000Y614000D03*
X725500Y614500D03*
X716500Y609500D03*
X725500D03*
X721500D03*
Y614500D03*
Y619000D03*
X725500D03*
X700500Y600000D03*
Y612000D03*
X705500D03*
X700500Y604000D03*
X705500Y608000D03*
Y604000D03*
Y600000D03*
Y596000D03*
X700500Y608000D03*
Y596000D03*
X656000Y655000D03*
Y659000D03*
X651500Y655000D03*
Y659000D03*
X666500Y639500D03*
X684500Y635500D03*
X683500Y631500D03*
X680000Y635500D03*
Y631500D03*
X661500Y643000D03*
Y639500D03*
X665500Y635500D03*
X661500D03*
Y631500D03*
X665500D03*
X670000Y635000D03*
Y631500D03*
X675000D03*
Y635500D03*
X696500Y651500D03*
Y648500D03*
X689000Y632000D03*
X672000Y624000D03*
X676500D03*
X681000D03*
X689000Y628500D03*
X685500Y624000D03*
X689000D03*
X664500Y655000D03*
X660000D03*
X664500Y659000D03*
X660000D03*
X706000Y639500D03*
X702000D03*
X698000D03*
X734500Y631500D03*
Y624000D03*
Y635500D03*
X731000Y624000D03*
Y635500D03*
Y627500D03*
Y631500D03*
X734500Y627500D03*
X700000Y651500D03*
X703500D03*
Y648500D03*
X700000D03*
X725000Y629000D03*
Y633000D03*
X725500Y624000D03*
X721000D03*
Y629000D03*
Y633000D03*
X752000Y644000D03*
X760000Y640000D03*
Y627500D03*
X744000Y624000D03*
X756000Y644000D03*
X748000Y624000D03*
X756000D03*
X760000Y635500D03*
X744000Y631500D03*
X748000Y635500D03*
X752000Y640000D03*
X756000Y648500D03*
X739000Y624000D03*
X747500Y653000D03*
X752000Y624000D03*
X744000Y640000D03*
Y653000D03*
X739000Y631500D03*
X751500Y653000D03*
X756000Y640000D03*
X744000Y648500D03*
X748000Y631500D03*
X760000Y624000D03*
Y644000D03*
X752000Y635500D03*
X760000Y631500D03*
X748000Y627500D03*
X756000Y635500D03*
X748000Y640000D03*
X752000Y648500D03*
X756000Y627500D03*
X744000Y635500D03*
X752000Y631500D03*
X744000Y644000D03*
Y627500D03*
X760000Y648500D03*
X748000D03*
X759500Y653000D03*
X739000Y635500D03*
X755500Y653000D03*
X739000Y627500D03*
X756000Y631500D03*
X748000Y644000D03*
X752000Y627500D03*
X656000Y663500D03*
Y681000D03*
Y676500D03*
Y671500D03*
Y667500D03*
Y685500D03*
X651500Y663500D03*
Y681000D03*
Y676500D03*
Y671500D03*
Y667500D03*
Y685500D03*
X688000Y682500D03*
X688500Y666500D03*
X665000Y681000D03*
X660000D03*
X675000D03*
X680000Y685500D03*
Y681000D03*
X675000Y685500D03*
X660000Y676500D03*
X670000Y685500D03*
X665000Y676500D03*
Y685500D03*
X670000Y676500D03*
X660000Y685500D03*
X675000Y676500D03*
X680000D03*
X660000Y671500D03*
X664500Y663500D03*
X660000D03*
Y667500D03*
X664500D03*
X665000Y671500D03*
X684500Y676500D03*
X685000Y671500D03*
X680000D03*
X675000D03*
X670000D03*
X684000Y681000D03*
X675000Y667500D03*
X684000Y685500D03*
X680000Y667500D03*
X685000D03*
X688500Y671500D03*
Y676500D03*
X670000Y681000D03*
Y667500D03*
X698500Y660500D03*
X702000Y663000D03*
X708000Y687000D03*
X713500Y662000D03*
X720500Y676500D03*
X718000Y695000D03*
X736500Y687000D03*
X724000Y691000D03*
X720500Y667500D03*
X718000Y699000D03*
X724000Y687000D03*
X720500Y671500D03*
X736500Y699000D03*
X732500Y687000D03*
Y695000D03*
X713000Y687000D03*
X717000Y662500D03*
X728000Y695000D03*
X713000D03*
X708000Y699000D03*
X728000Y687000D03*
X732500Y699000D03*
X724000Y695000D03*
X728000Y691000D03*
X713000D03*
X703000Y699000D03*
Y687000D03*
X708000Y695000D03*
X718000Y687000D03*
X728000Y681500D03*
X710000Y662000D03*
X703000Y691000D03*
X736500Y681500D03*
X724500Y676500D03*
X724000Y681500D03*
Y699000D03*
X720500Y681500D03*
X728000Y699000D03*
X732500Y691000D03*
X736500Y676500D03*
Y691000D03*
X728500Y676500D03*
X732500Y681500D03*
X708000Y691000D03*
X732500Y676500D03*
X718000Y691000D03*
X703000Y695000D03*
X736500D03*
X713000Y699000D03*
X729000Y671500D03*
X734000D03*
X724500D03*
X729000Y667500D03*
X733500D03*
X724500D03*
X739000D03*
X747500Y671500D03*
X739500D03*
X744000D03*
Y666500D03*
X747500D03*
X744000Y662500D03*
X747500D03*
X703000Y703500D03*
X718000D03*
X728000D03*
X708000D03*
X736500D03*
X713000D03*
X732500D03*
X724000D03*
G54D95*
G54D219*
X520500Y650000D03*
G54D236*
X517500Y782500D03*
Y517500D03*
X882500D03*
Y782500D03*
G54D311*
X703000Y619000D03*
X677500Y649000D03*
Y658000D03*
Y653500D03*
X669500D03*
Y649000D03*
X731500Y654000D03*
Y645000D03*
Y649500D03*
X722500D03*
X699000Y624500D03*
X707500D03*
X703000Y629500D03*
Y624500D03*
X739500Y649500D03*
Y654000D03*
X706500Y667500D03*
X710500Y675000D03*
X701500D03*
X706500Y682000D03*
Y675000D03*
G54D369*
X538200Y650000D03*
G54D390*
X530000Y740000D03*
Y560000D03*
X870000Y740000D03*
Y560000D03*
G74*
X0Y0D02*
M02*
