%
T1C.008F0S0
X0699Y06245
X0703Y0619
X0703Y06295
X0703Y06245
X07075Y06245
X07395Y06495
X07395Y0654
X07315Y0645
X07315Y06495
X07315Y0654
X07225Y06495
X07105Y0675
X07065Y06675
X07065Y0682
X07065Y0675
X07015Y0675
X06775Y06535
X06775Y0658
X06775Y0649
X06695Y06535
X06695Y0649
T2C.012F095S3
X0672Y0608
X0672Y0604
X0672Y0596
X0672Y06
X06765Y0608
X06765Y0596
X06765Y0604
X06765Y06
X0681Y0596
X0681Y0604
X0681Y0608
X0681Y06
X06855Y0604
X06855Y0596
X06855Y0608
X06855Y06
X06905Y0596
X06905Y0608
X06905Y0604
X06905Y06
X06955Y06
X06955Y0596
X06955Y0604
X06955Y0608
X07005Y06
X07005Y0604
X07005Y0608
X07005Y0596
X07055Y0608
X07055Y0604
X07055Y06
X07055Y0596
X07165Y06095
X07215Y06095
X07255Y06095
X076Y06275
X076Y0624
X076Y06315
X0756Y0624
X0756Y06275
X0756Y06315
X0752Y0624
X0752Y06315
X0752Y06275
X0748Y0624
X0748Y06315
X0748Y06275
X0744Y0624
X0744Y06315
X0744Y06275
X0739Y0624
X0739Y06315
X0739Y06275
X07345Y06315
X07345Y0624
X07345Y06275
X0731Y0624
X0731Y06275
X0731Y06315
X07255Y0624
X07255Y06145
X07255Y0619
X0725Y0629
X0725Y0633
X07215Y0619
X07215Y06145
X0721Y0624
X0721Y0629
X0721Y0633
X0716Y0614
X07055Y0612
X07005Y0612
X06955Y0612
X06905Y0612
X0689Y0632
X0689Y0618
X0689Y06285
X0689Y0624
X06855Y0618
X06855Y0624
X06855Y0612
X06835Y06315
X0681Y0618
X0681Y0612
X0681Y0624
X068Y06315
X06765Y0624
X06765Y0612
X06765Y0618
X0675Y06315
X0672Y0618
X0672Y0624
X0672Y0612
X067Y06315
X06655Y06315
X06615Y06315
X06515Y0655
X06515Y0659
X0656Y0655
X0656Y0659
X066Y0655
X066Y0659
X06615Y0643
X06615Y06395
X06615Y06355
X06645Y0655
X06645Y0659
X06655Y06355
X06665Y06395
X067Y0635
X0675Y06355
X068Y06355
X06845Y06355
X06965Y06515
X06965Y06485
X0698Y06395
X07Y06515
X07Y06485
X0702Y06395
X07035Y06515
X07035Y06485
X0706Y06395
X0731Y06355
X07345Y06355
X0739Y06355
X0744Y06485
X0744Y064
X0744Y06355
X0744Y0644
X0744Y0653
X07475Y0653
X0748Y064
X0748Y06355
X0748Y06485
X0748Y0644
X07515Y0653
X0752Y0644
X0752Y06355
X0752Y06485
X0752Y064
X07555Y0653
X0756Y06355
X0756Y06485
X0756Y064
X0756Y0644
X07595Y0653
X076Y06485
X076Y06355
X076Y0644
X076Y064
X07475Y06715
X07475Y06665
X07475Y06625
X0744Y06715
X0744Y06665
X0744Y06625
X07395Y06715
X0739Y06675
X07365Y06815
X07365Y06765
X0734Y06715
X07335Y06675
X07325Y06815
X07325Y06765
X0729Y06715
X0729Y06675
X07285Y06765
X0728Y06815
X07245Y06765
X07245Y06715
X07245Y06675
X0724Y06815
X07205Y06765
X07205Y06675
X07205Y06715
X07205Y06815
X0717Y06625
X07135Y0662
X071Y0662
X0702Y0663
X06985Y06605
X06885Y06715
X06885Y06765
X06885Y06665
X0688Y06825
X0685Y06675
X0685Y06715
X06845Y06765
X0684Y0681
X068Y06715
X068Y06675
X068Y0681
X068Y06765
X0675Y0681
X0675Y06715
X0675Y06765
X0675Y06675
X067Y06715
X067Y06765
X067Y06675
X067Y0681
X0665Y0681
X0665Y06715
X0665Y06765
X06645Y06635
X06645Y06675
X066Y0681
X066Y06765
X066Y06635
X066Y06675
X066Y06715
X0656Y06635
X0656Y06715
X0656Y06675
X0656Y0681
X0656Y06765
X06515Y06675
X06515Y06765
X06515Y06715
X06515Y06635
X06515Y0681
X06515Y06855
X0656Y06855
X066Y06855
X0665Y06855
X067Y06855
X0675Y06855
X068Y06855
X0684Y06855
X0703Y0691
X0703Y0699
X0703Y0695
X0703Y0687
X0703Y07035
X0708Y0695
X0708Y0691
X0708Y0687
X0708Y0699
X0708Y07035
X0713Y0699
X0713Y0691
X0713Y0687
X0713Y0695
X0713Y07035
X0718Y0699
X0718Y0687
X0718Y0695
X0718Y07035
X0718Y0691
X0724Y0691
X0724Y0695
X0724Y0699
X0724Y0687
X0724Y07035
X0728Y0691
X0728Y0695
X0728Y0687
X0728Y07035
X0728Y0699
X07325Y0699
X07325Y0687
X07325Y0691
X07325Y0695
X07325Y07035
X07365Y0691
X07365Y07035
X07365Y0699
X07365Y0687
X07365Y0695
T3C.035F197S55
X081Y06525
X083Y06525
T4C.065F089S55
X05205Y065
T5C.07F081S55
X05425Y051
X08575Y079
T6C.072F081S55
X05382Y065
T7C.094F066S55
X053Y06
X053Y07
X087Y07
X087Y06
T8C.19F035S1033
X05175Y05175
X08825Y05175
X08825Y07825
X05175Y07825
T9C.205F0S0
X053Y056
X087Y056
X087Y074
X053Y074
M30
