*
*
G04 PADS VX.0 Build Number: 635560 generated Gerber (RS-274-X) file*
G04 PC Version=2.1*
*
%IN "DC1823B-1.pcb"*%
*
%MOIN*%
*
%FSLAX35Y35*%
*
*
*
*
G04 PC Standard Apertures*
*
*
G04 Thermal Relief Aperture macro.*
%AMTER*
1,1,$1,0,0*
1,0,$1-$2,0,0*
21,0,$3,$4,0,0,45*
21,0,$3,$4,0,0,135*
%
*
*
G04 Annular Aperture macro.*
%AMANN*
1,1,$1,0,0*
1,0,$2,0,0*
%
*
*
G04 Odd Aperture macro.*
%AMODD*
1,1,$1,0,0*
1,0,$1-0.005,0,0*
%
*
*
G04 PC Custom Aperture Macros*
*
*
*
*
*
*
G04 PC Aperture Table*
*
%ADD010C,0.06*%
%ADD011C,0.15*%
%ADD012R,0.06X0.06*%
%ADD018C,0.07*%
%ADD019C,0.01*%
%ADD025C,0.005*%
%ADD026C,0.008*%
%ADD075C,0.03*%
%ADD077C,0.024*%
%ADD095C,0.001*%
%ADD219C,0.065*%
%ADD236C,0.187*%
%ADD311C,0.018*%
%ADD369C,0.072*%
%ADD390C,0.325*%
%ADD397R,0.03X0.06*%
%ADD398R,0.06X0.03*%
*
*
*
*
G04 PC Circuitry*
G04 Layer Name DC1823B-1.pcb - circuitry*
%LPD*%
*
*
G04 PC Custom Flashes*
G04 Layer Name DC1823B-1.pcb - flashes*
%LPD*%
*
*
G04 PC Circuitry*
G04 Layer Name DC1823B-1.pcb - circuitry*
%LPD*%
*
G54D10*
G01X830000Y652500D03*
G54D11*
X530000Y600000D03*
Y700000D03*
X870000D03*
Y600000D03*
G54D12*
X810000Y652500D03*
G54D18*
X857500Y790000D03*
X542500Y510000D03*
G54D19*
X741000Y642000D02*
X722000D01*
Y655000*
X741000*
Y642000*
X722000D02*
Y655000D01*
X722500Y642000D02*
Y655000D01*
X723000Y642000D02*
Y655000D01*
X723500Y642000D02*
Y655000D01*
X724000Y642000D02*
Y655000D01*
X724500Y642000D02*
Y655000D01*
X725000Y642000D02*
Y655000D01*
X725500Y642000D02*
Y655000D01*
X726000Y642000D02*
Y655000D01*
X726500Y642000D02*
Y655000D01*
X727000Y642000D02*
Y655000D01*
X727500Y642000D02*
Y655000D01*
X728000Y642000D02*
Y655000D01*
X728500Y642000D02*
Y655000D01*
X729000Y642000D02*
Y655000D01*
X729500Y642000D02*
Y655000D01*
X730000Y642000D02*
Y655000D01*
X730500Y642000D02*
Y655000D01*
X731000Y642000D02*
Y655000D01*
X731500Y642000D02*
Y655000D01*
X732000Y642000D02*
Y655000D01*
X732500Y642000D02*
Y655000D01*
X733000Y642000D02*
Y655000D01*
X733500Y642000D02*
Y655000D01*
X734000Y642000D02*
Y655000D01*
X734500Y642000D02*
Y655000D01*
X735000Y642000D02*
Y655000D01*
X735500Y642000D02*
Y655000D01*
X736000Y642000D02*
Y655000D01*
X736500Y642000D02*
Y655000D01*
X737000Y642000D02*
Y655000D01*
X737500Y642000D02*
Y655000D01*
X738000Y642000D02*
Y655000D01*
X738500Y642000D02*
Y655000D01*
X739000Y642000D02*
Y655000D01*
X739500Y642000D02*
Y655000D01*
X740000Y642000D02*
Y655000D01*
X740500Y642000D02*
Y655000D01*
X714000Y684500D02*
Y665500D01*
X701000*
Y684500*
X714000*
X701000Y665500D02*
Y684500D01*
X701500Y665500D02*
Y684500D01*
X702000Y665500D02*
Y684500D01*
X702500Y665500D02*
Y684500D01*
X703000Y665500D02*
Y684500D01*
X703500Y665500D02*
Y684500D01*
X704000Y665500D02*
Y684500D01*
X704500Y665500D02*
Y684500D01*
X705000Y665500D02*
Y684500D01*
X705500Y665500D02*
Y684500D01*
X706000Y665500D02*
Y684500D01*
X706500Y665500D02*
Y684500D01*
X707000Y665500D02*
Y684500D01*
X707500Y665500D02*
Y684500D01*
X708000Y665500D02*
Y684500D01*
X708500Y665500D02*
Y684500D01*
X709000Y665500D02*
Y684500D01*
X709500Y665500D02*
Y684500D01*
X710000Y665500D02*
Y684500D01*
X710500Y665500D02*
Y684500D01*
X711000Y665500D02*
Y684500D01*
X711500Y665500D02*
Y684500D01*
X712000Y665500D02*
Y684500D01*
X712500Y665500D02*
Y684500D01*
X713000Y665500D02*
Y684500D01*
X713500Y665500D02*
Y684500D01*
X668000Y661000D02*
X687000D01*
Y648000*
X668000*
Y661000*
Y648000D02*
Y661000D01*
X668500Y648000D02*
Y661000D01*
X669000Y648000D02*
Y661000D01*
X669500Y648000D02*
Y661000D01*
X670000Y648000D02*
Y661000D01*
X670500Y648000D02*
Y661000D01*
X671000Y648000D02*
Y661000D01*
X671500Y648000D02*
Y661000D01*
X672000Y648000D02*
Y661000D01*
X672500Y648000D02*
Y661000D01*
X673000Y648000D02*
Y661000D01*
X673500Y648000D02*
Y661000D01*
X674000Y648000D02*
Y661000D01*
X674500Y648000D02*
Y661000D01*
X675000Y648000D02*
Y661000D01*
X675500Y648000D02*
Y661000D01*
X676000Y648000D02*
Y661000D01*
X676500Y648000D02*
Y661000D01*
X677000Y648000D02*
Y661000D01*
X677500Y648000D02*
Y661000D01*
X678000Y648000D02*
Y661000D01*
X678500Y648000D02*
Y661000D01*
X679000Y648000D02*
Y661000D01*
X679500Y648000D02*
Y661000D01*
X680000Y648000D02*
Y661000D01*
X680500Y648000D02*
Y661000D01*
X681000Y648000D02*
Y661000D01*
X681500Y648000D02*
Y661000D01*
X682000Y648000D02*
Y661000D01*
X682500Y648000D02*
Y661000D01*
X683000Y648000D02*
Y661000D01*
X683500Y648000D02*
Y661000D01*
X684000Y648000D02*
Y661000D01*
X684500Y648000D02*
Y661000D01*
X685000Y648000D02*
Y661000D01*
X685500Y648000D02*
Y661000D01*
X686000Y648000D02*
Y661000D01*
X686500Y648000D02*
Y661000D01*
X695500Y615000D02*
Y634000D01*
X708500*
Y615000*
X695500*
Y634000*
X696000Y615000D02*
Y634000D01*
X696500Y615000D02*
Y634000D01*
X697000Y615000D02*
Y634000D01*
X697500Y615000D02*
Y634000D01*
X698000Y615000D02*
Y634000D01*
X698500Y615000D02*
Y634000D01*
X699000Y615000D02*
Y634000D01*
X699500Y615000D02*
Y634000D01*
X700000Y615000D02*
Y634000D01*
X700500Y615000D02*
Y634000D01*
X701000Y615000D02*
Y634000D01*
X701500Y615000D02*
Y634000D01*
X702000Y615000D02*
Y634000D01*
X702500Y615000D02*
Y634000D01*
X703000Y615000D02*
Y634000D01*
X703500Y615000D02*
Y634000D01*
X704000Y615000D02*
Y634000D01*
X704500Y615000D02*
Y634000D01*
X705000Y615000D02*
Y634000D01*
X705500Y615000D02*
Y634000D01*
X706000Y615000D02*
Y634000D01*
X706500Y615000D02*
Y634000D01*
X707000Y615000D02*
Y634000D01*
X707500Y615000D02*
Y634000D01*
X708000Y615000D02*
Y634000D01*
X527500Y496563D02*
Y490000D01*
X530227*
X534091Y496563D02*
X532273Y490000D01*
X534091Y496563D02*
X535909Y490000D01*
X532955Y492188D02*
X535227D01*
X537955Y496563D02*
X539773Y493438D01*
X539773D02*
Y490000D01*
X541591Y496563D02*
X539773Y493438D01*
X543636Y496563D02*
Y490000D01*
Y496563D02*
X546591D01*
X543636Y493438D02*
X545455D01*
X543636Y490000D02*
X546591D01*
X548636Y496563D02*
Y490000D01*
Y496563D02*
X550682D01*
X550682D02*
X551364Y496250D01*
X551591Y495938*
X551591D02*
X551818Y495313D01*
X551818D02*
Y494688D01*
X551818D02*
X551591Y494063D01*
X551591D02*
X551364Y493750D01*
X550682Y493438*
X550682D02*
X548636D01*
X550227D02*
X551818Y490000D01*
X561364Y496563D02*
X559091Y492188D01*
X559091D02*
X562500D01*
X561364Y496563D02*
Y490000D01*
X569773Y492813D02*
X573864D01*
X581136Y496563D02*
Y490000D01*
Y496563D02*
X583182D01*
X583182D02*
X583864Y496250D01*
X584091Y495938*
X584091D02*
X584318Y495313D01*
X584318D02*
Y494688D01*
X584318D02*
X584091Y494063D01*
X584091D02*
X583864Y493750D01*
X583182Y493438*
X581136D02*
X583182D01*
X583182D02*
X583864Y493125D01*
X584091Y492813*
X584091D02*
X584318Y492188D01*
X584318D02*
Y491250D01*
X584091Y490625*
X583864Y490313*
X583864D02*
X583182Y490000D01*
X581136*
X587727Y496563D02*
X587273Y496250D01*
X586818Y495625*
X586591Y495000*
X586364Y494063*
X586364D02*
Y492500D01*
X586591Y491563*
X586591D02*
X586818Y490938D01*
X586818D02*
X587273Y490313D01*
X587273D02*
X587727Y490000D01*
X588636*
X589091Y490313*
X589091D02*
X589545Y490938D01*
X589545D02*
X589773Y491563D01*
X589773D02*
X590000Y492500D01*
Y494063*
X590000D02*
X589773Y495000D01*
X589545Y495625*
X589091Y496250*
X588636Y496563*
X588636D02*
X587727D01*
X593636D02*
Y490000D01*
X592045Y496563D02*
X595227D01*
X598864D02*
Y490000D01*
X597273Y496563D02*
X600455D01*
X603864D02*
X603409Y496250D01*
X602955Y495625*
X602727Y495000*
X602500Y494063*
X602500D02*
Y492500D01*
X602727Y491563*
X602727D02*
X602955Y490938D01*
X602955D02*
X603409Y490313D01*
X603409D02*
X603864Y490000D01*
X604773*
X605227Y490313*
X605227D02*
X605682Y490938D01*
X605682D02*
X605909Y491563D01*
X605909D02*
X606136Y492500D01*
Y494063*
X606136D02*
X605909Y495000D01*
X605682Y495625*
X605227Y496250*
X604773Y496563*
X604773D02*
X603864D01*
X608182D02*
Y490000D01*
Y496563D02*
X610000Y490000D01*
X611818Y496563D02*
X610000Y490000D01*
X611818Y496563D02*
Y490000D01*
X619091Y496563D02*
Y490000D01*
X621818*
X625682Y496563D02*
X623864Y490000D01*
X625682Y496563D02*
X627500Y490000D01*
X624545Y492188D02*
X626818D01*
X629545Y496563D02*
X631364Y493438D01*
X631364D02*
Y490000D01*
X633182Y496563D02*
X631364Y493438D01*
X635227Y496563D02*
Y490000D01*
Y496563D02*
X638182D01*
X635227Y493438D02*
X637045D01*
X635227Y490000D02*
X638182D01*
X640227Y496563D02*
Y490000D01*
Y496563D02*
X642273D01*
X642273D02*
X642955Y496250D01*
X643182Y495938*
X643182D02*
X643409Y495313D01*
X643409D02*
Y494688D01*
X643409D02*
X643182Y494063D01*
X643182D02*
X642955Y493750D01*
X642273Y493438*
X642273D02*
X640227D01*
X641818D02*
X643409Y490000D01*
X527500Y481563D02*
Y475000D01*
X530227*
X532273Y481563D02*
Y475000D01*
X534318Y481563D02*
Y475000D01*
Y481563D02*
X537500Y475000D01*
Y481563D02*
Y475000D01*
X539545Y481563D02*
Y475000D01*
Y481563D02*
X542500D01*
X539545Y478438D02*
X541364D01*
X539545Y475000D02*
X542500D01*
X546364Y481563D02*
X544545Y475000D01*
X546364Y481563D02*
X548182Y475000D01*
X545227Y477188D02*
X547500D01*
X550227Y481563D02*
Y475000D01*
Y481563D02*
X552273D01*
X552273D02*
X552955Y481250D01*
X553182Y480938*
X553182D02*
X553409Y480313D01*
X553409D02*
Y479688D01*
X553409D02*
X553182Y479063D01*
X553182D02*
X552955Y478750D01*
X552273Y478438*
X552273D02*
X550227D01*
X551818D02*
X553409Y475000D01*
X562273Y481563D02*
Y475000D01*
X560682Y481563D02*
X563864D01*
X565909D02*
Y475000D01*
Y481563D02*
X568864D01*
X565909Y478438D02*
X567727D01*
X565909Y475000D02*
X568864D01*
X574318Y480000D02*
X574091Y480625D01*
X573636Y481250*
X573182Y481563*
X573182D02*
X572273D01*
X572273D02*
X571818Y481250D01*
X571364Y480625*
X571136Y480000*
X570909Y479063*
X570909D02*
Y477500D01*
X571136Y476563*
X571136D02*
X571364Y475938D01*
X571364D02*
X571818Y475313D01*
X571818D02*
X572273Y475000D01*
X573182*
X573636Y475313*
X573636D02*
X574091Y475938D01*
X574091D02*
X574318Y476563D01*
X576364Y481563D02*
Y475000D01*
X579545Y481563D02*
Y475000D01*
X576364Y478438D02*
X579545D01*
X581591Y481563D02*
Y475000D01*
Y481563D02*
X584773Y475000D01*
Y481563D02*
Y475000D01*
X588182Y481563D02*
X587727Y481250D01*
X587273Y480625*
X587045Y480000*
X586818Y479063*
X586818D02*
Y477500D01*
X587045Y476563*
X587045D02*
X587273Y475938D01*
X587273D02*
X587727Y475313D01*
X587727D02*
X588182Y475000D01*
X589091*
X589545Y475313*
X589545D02*
X590000Y475938D01*
X590000D02*
X590227Y476563D01*
X590227D02*
X590455Y477500D01*
Y479063*
X590455D02*
X590227Y480000D01*
X590000Y480625*
X589545Y481250*
X589091Y481563*
X589091D02*
X588182D01*
X592500D02*
Y475000D01*
X595227*
X598636Y481563D02*
X598182Y481250D01*
X597727Y480625*
X597500Y480000*
X597273Y479063*
X597273D02*
Y477500D01*
X597500Y476563*
X597500D02*
X597727Y475938D01*
X597727D02*
X598182Y475313D01*
X598182D02*
X598636Y475000D01*
X599545*
X600000Y475313*
X600000D02*
X600455Y475938D01*
X600455D02*
X600682Y476563D01*
X600682D02*
X600909Y477500D01*
Y479063*
X600909D02*
X600682Y480000D01*
X600455Y480625*
X600000Y481250*
X599545Y481563*
X599545D02*
X598636D01*
X606364Y480000D02*
X606136Y480625D01*
X605682Y481250*
X605227Y481563*
X605227D02*
X604318D01*
X604318D02*
X603864Y481250D01*
X603409Y480625*
X603182Y480000*
X602955Y479063*
X602955D02*
Y477500D01*
X603182Y476563*
X603182D02*
X603409Y475938D01*
X603409D02*
X603864Y475313D01*
X603864D02*
X604318Y475000D01*
X605227*
X605682Y475313*
X605682D02*
X606136Y475938D01*
X606136D02*
X606364Y476563D01*
X606364D02*
Y477500D01*
X605227D02*
X606364D01*
X608409Y481563D02*
X610227Y478438D01*
X610227D02*
Y475000D01*
X612045Y481563D02*
X610227Y478438D01*
X527500Y469063D02*
Y462500D01*
Y469063D02*
X529091D01*
X529091D02*
X529773Y468750D01*
X530227Y468125*
X530455Y467500*
X530682Y466563*
X530682D02*
Y465000D01*
X530455Y464063*
X530455D02*
X530227Y463438D01*
X530227D02*
X529773Y462813D01*
X529773D02*
X529091Y462500D01*
X527500*
X536136Y467500D02*
X535909Y468125D01*
X535455Y468750*
X535000Y469063*
X535000D02*
X534091D01*
X534091D02*
X533636Y468750D01*
X533182Y468125*
X532955Y467500*
X532727Y466563*
X532727D02*
Y465000D01*
X532955Y464063*
X532955D02*
X533182Y463438D01*
X533182D02*
X533636Y462813D01*
X533636D02*
X534091Y462500D01*
X535000*
X535455Y462813*
X535455D02*
X535909Y463438D01*
X535909D02*
X536136Y464063D01*
X538182Y467813D02*
X538636Y468125D01*
X539318Y469063*
X539318D02*
Y462500D01*
X542500Y469063D02*
X541818Y468750D01*
X541591Y468125*
Y467500*
X541818Y466875*
X542273Y466563*
X542273D02*
X543182Y466250D01*
X543864Y465938*
X543864D02*
X544318Y465313D01*
X544318D02*
X544545Y464688D01*
X544545D02*
Y463750D01*
X544318Y463125*
X544091Y462813*
X544091D02*
X543409Y462500D01*
X542500*
X541818Y462813*
X541818D02*
X541591Y463125D01*
X541364Y463750*
Y464688*
X541364D02*
X541591Y465313D01*
X541591D02*
X542045Y465938D01*
X542045D02*
X542727Y466250D01*
X543636Y466563*
X543636D02*
X544091Y466875D01*
X544318Y467500*
Y468125*
X544091Y468750*
X543409Y469063*
X543409D02*
X542500D01*
X546818Y467500D02*
Y467813D01*
X546818D02*
X547045Y468438D01*
X547045D02*
X547273Y468750D01*
X547727Y469063*
X547727D02*
X548636D01*
X548636D02*
X549091Y468750D01*
X549318Y468438*
X549318D02*
X549545Y467813D01*
X549545D02*
Y467188D01*
X549545D02*
X549318Y466563D01*
X549318D02*
X548864Y465625D01*
X546591Y462500*
X549773*
X552273Y469063D02*
X554773D01*
X554773D02*
X553409Y466563D01*
X553409D02*
X554091D01*
X554091D02*
X554545Y466250D01*
X554773Y465938*
X554773D02*
X555000Y465000D01*
Y464375*
X554773Y463438*
X554773D02*
X554318Y462813D01*
X554318D02*
X553636Y462500D01*
X552955*
X552273Y462813*
X552273D02*
X552045Y463125D01*
X551818Y463750*
X557045Y469063D02*
Y462500D01*
Y469063D02*
X559091D01*
X559091D02*
X559773Y468750D01*
X560000Y468438*
X560000D02*
X560227Y467813D01*
X560227D02*
Y467188D01*
X560227D02*
X560000Y466563D01*
X560000D02*
X559773Y466250D01*
X559091Y465938*
X557045D02*
X559091D01*
X559091D02*
X559773Y465625D01*
X560000Y465313*
X560000D02*
X560227Y464688D01*
X560227D02*
Y463750D01*
X560000Y463125*
X559773Y462813*
X559773D02*
X559091Y462500D01*
X557045*
X562273Y465313D02*
X566364D01*
X568409Y467813D02*
X568864Y468125D01*
X569545Y469063*
X569545D02*
Y462500D01*
X587273Y469063D02*
Y462500D01*
X590000*
X593636Y469063D02*
Y462500D01*
X592045Y469063D02*
X595227D01*
X599545D02*
X597273Y464688D01*
X597273D02*
X600682D01*
X599545Y469063D02*
Y462500D01*
X603182Y469063D02*
X605682D01*
X605682D02*
X604318Y466563D01*
X604318D02*
X605000D01*
X605000D02*
X605455Y466250D01*
X605682Y465938*
X605682D02*
X605909Y465000D01*
Y464375*
X605682Y463438*
X605682D02*
X605227Y462813D01*
X605227D02*
X604545Y462500D01*
X603864*
X603182Y462813*
X603182D02*
X602955Y463125D01*
X602727Y463750*
X608182Y467500D02*
Y467813D01*
X608182D02*
X608409Y468438D01*
X608409D02*
X608636Y468750D01*
X609091Y469063*
X609091D02*
X610000D01*
X610000D02*
X610455Y468750D01*
X610682Y468438*
X610682D02*
X610909Y467813D01*
X610909D02*
Y467188D01*
X610909D02*
X610682Y466563D01*
X610682D02*
X610227Y465625D01*
X607955Y462500*
X611136*
X614545Y469063D02*
X613864Y468750D01*
X613409Y467813*
X613409D02*
X613182Y466250D01*
Y465313*
X613182D02*
X613409Y463750D01*
X613864Y462813*
X613864D02*
X614545Y462500D01*
X615000*
X615682Y462813*
X615682D02*
X616136Y463750D01*
X616364Y465313*
X616364D02*
Y466250D01*
X616136Y467813*
X616136D02*
X615682Y468750D01*
X615000Y469063*
X615000D02*
X614545D01*
X618409D02*
Y462500D01*
X620455Y469063D02*
Y462500D01*
Y469063D02*
X622045D01*
X622045D02*
X622727Y468750D01*
X623182Y468125*
X623409Y467500*
X623636Y466563*
X623636D02*
Y465000D01*
X623409Y464063*
X623409D02*
X623182Y463438D01*
X623182D02*
X622727Y462813D01*
X622727D02*
X622045Y462500D01*
X620455*
X625682Y469063D02*
Y462500D01*
Y469063D02*
X627273D01*
X627273D02*
X627955Y468750D01*
X628409Y468125*
X628636Y467500*
X628864Y466563*
X628864D02*
Y465000D01*
X628636Y464063*
X628636D02*
X628409Y463438D01*
X628409D02*
X627955Y462813D01*
X627955D02*
X627273Y462500D01*
X625682*
X622500Y481563D02*
Y475000D01*
Y481563D02*
X624091D01*
X624091D02*
X624773Y481250D01*
X625227Y480625*
X625455Y480000*
X625682Y479063*
X625682D02*
Y477500D01*
X625455Y476563*
X625455D02*
X625227Y475938D01*
X625227D02*
X624773Y475313D01*
X624773D02*
X624091Y475000D01*
X622500*
X629545Y481563D02*
X627727Y475000D01*
X629545Y481563D02*
X631364Y475000D01*
X628409Y477188D02*
X630682D01*
X635000Y481563D02*
Y475000D01*
X633409Y481563D02*
X636591D01*
X638636D02*
Y475000D01*
Y481563D02*
X641591D01*
X638636Y478438D02*
X640455D01*
X638636Y475000D02*
X641591D01*
X643864Y479375D02*
X643636Y479063D01*
X643636D02*
X643864Y478750D01*
X644091Y479063*
X644091D02*
X643864Y479375D01*
Y475625D02*
X643636Y475313D01*
X643636D02*
X643864Y475000D01*
X644091Y475313*
X644091D02*
X643864Y475625D01*
X651364Y480313D02*
X651818Y480625D01*
X652500Y481563*
X652500D02*
Y475000D01*
X655909Y481563D02*
X655227Y481250D01*
X654773Y480313*
X654773D02*
X654545Y478750D01*
Y477813*
X654545D02*
X654773Y476250D01*
X655227Y475313*
X655227D02*
X655909Y475000D01*
X656364*
X657045Y475313*
X657045D02*
X657500Y476250D01*
X657727Y477813*
X657727D02*
Y478750D01*
X657500Y480313*
X657500D02*
X657045Y481250D01*
X656364Y481563*
X656364D02*
X655909D01*
X659773Y477813D02*
X663864D01*
X667273Y481563D02*
X666591Y481250D01*
X666136Y480313*
X666136D02*
X665909Y478750D01*
Y477813*
X665909D02*
X666136Y476250D01*
X666591Y475313*
X666591D02*
X667273Y475000D01*
X667727*
X668409Y475313*
X668409D02*
X668864Y476250D01*
X669091Y477813*
X669091D02*
Y478750D01*
X668864Y480313*
X668864D02*
X668409Y481250D01*
X667727Y481563*
X667727D02*
X667273D01*
X673864Y480625D02*
X673636Y481250D01*
X672955Y481563*
X672955D02*
X672500D01*
X672500D02*
X671818Y481250D01*
X671364Y480313*
X671364D02*
X671136Y478750D01*
Y477188*
X671136D02*
X671364Y475938D01*
X671364D02*
X671818Y475313D01*
X671818D02*
X672500Y475000D01*
X672727*
X673409Y475313*
X673409D02*
X673864Y475938D01*
X673864D02*
X674091Y476875D01*
Y477188*
X674091D02*
X673864Y478125D01*
X673409Y478750*
X672727Y479063*
X672727D02*
X672500D01*
X672500D02*
X671818Y478750D01*
X671364Y478125*
X671136Y477188*
X676136Y477813D02*
X680227D01*
X682273Y480313D02*
X682727Y480625D01*
X683409Y481563*
X683409D02*
Y475000D01*
X688409Y481563D02*
X686136D01*
X686136D02*
X685909Y478750D01*
X686136Y479063*
X686136D02*
X686818Y479375D01*
X687500*
X688182Y479063*
X688182D02*
X688636Y478438D01*
X688636D02*
X688864Y477500D01*
X688636Y476875*
X688409Y475938*
X688409D02*
X687955Y475313D01*
X687955D02*
X687273Y475000D01*
X686591*
X685909Y475313*
X685909D02*
X685682Y475625D01*
X685455Y476250*
X527500Y456563D02*
Y450000D01*
X529545Y456563D02*
Y450000D01*
Y456563D02*
X531136D01*
X531136D02*
X531818Y456250D01*
X532273Y455625*
X532500Y455000*
X532727Y454063*
X532727D02*
Y452500D01*
X532500Y451563*
X532500D02*
X532273Y450938D01*
X532273D02*
X531818Y450313D01*
X531818D02*
X531136Y450000D01*
X529545*
X534773Y456563D02*
Y450000D01*
Y456563D02*
X537727D01*
X534773Y453438D02*
X536591D01*
X534773Y450000D02*
X537727D01*
X541591Y456563D02*
X539773Y450000D01*
X541591Y456563D02*
X543409Y450000D01*
X540455Y452188D02*
X542727D01*
X545455Y456563D02*
Y450000D01*
X548182*
X555455Y456563D02*
Y450000D01*
Y456563D02*
X557045D01*
X557045D02*
X557727Y456250D01*
X558182Y455625*
X558409Y455000*
X558636Y454063*
X558636D02*
Y452500D01*
X558409Y451563*
X558409D02*
X558182Y450938D01*
X558182D02*
X557727Y450313D01*
X557727D02*
X557045Y450000D01*
X555455*
X560682Y456563D02*
Y450000D01*
X564091Y456563D02*
X563636Y456250D01*
X563182Y455625*
X562955Y455000*
X562727Y454063*
X562727D02*
Y452500D01*
X562955Y451563*
X562955D02*
X563182Y450938D01*
X563182D02*
X563636Y450313D01*
X563636D02*
X564091Y450000D01*
X565000*
X565455Y450313*
X565455D02*
X565909Y450938D01*
X565909D02*
X566136Y451563D01*
X566136D02*
X566364Y452500D01*
Y454063*
X566364D02*
X566136Y455000D01*
X565909Y455625*
X565455Y456250*
X565000Y456563*
X565000D02*
X564091D01*
X568409D02*
Y450000D01*
Y456563D02*
X570000D01*
X570000D02*
X570682Y456250D01*
X571136Y455625*
X571364Y455000*
X571591Y454063*
X571591D02*
Y452500D01*
X571364Y451563*
X571364D02*
X571136Y450938D01*
X571136D02*
X570682Y450313D01*
X570682D02*
X570000Y450000D01*
X568409*
X573636Y456563D02*
Y450000D01*
Y456563D02*
X576591D01*
X573636Y453438D02*
X575455D01*
X573636Y450000D02*
X576591D01*
X583864Y456563D02*
Y450000D01*
Y456563D02*
X585909D01*
X585909D02*
X586591Y456250D01*
X586818Y455938*
X586818D02*
X587045Y455313D01*
X587045D02*
Y454688D01*
X587045D02*
X586818Y454063D01*
X586818D02*
X586591Y453750D01*
X585909Y453438*
X583864D02*
X585909D01*
X585909D02*
X586591Y453125D01*
X586818Y452813*
X586818D02*
X587045Y452188D01*
X587045D02*
Y451250D01*
X586818Y450625*
X586591Y450313*
X586591D02*
X585909Y450000D01*
X583864*
X589091Y456563D02*
Y450000D01*
Y456563D02*
X591136D01*
X591136D02*
X591818Y456250D01*
X592045Y455938*
X592045D02*
X592273Y455313D01*
X592273D02*
Y454688D01*
X592273D02*
X592045Y454063D01*
X592045D02*
X591818Y453750D01*
X591136Y453438*
X591136D02*
X589091D01*
X590682D02*
X592273Y450000D01*
X594318Y456563D02*
Y450000D01*
X596364Y456563D02*
Y450000D01*
Y456563D02*
X597955D01*
X597955D02*
X598636Y456250D01*
X599091Y455625*
X599318Y455000*
X599545Y454063*
X599545D02*
Y452500D01*
X599318Y451563*
X599318D02*
X599091Y450938D01*
X599091D02*
X598636Y450313D01*
X598636D02*
X597955Y450000D01*
X596364*
X605000Y455000D02*
X604773Y455625D01*
X604318Y456250*
X603864Y456563*
X603864D02*
X602955D01*
X602955D02*
X602500Y456250D01*
X602045Y455625*
X601818Y455000*
X601591Y454063*
X601591D02*
Y452500D01*
X601818Y451563*
X601818D02*
X602045Y450938D01*
X602045D02*
X602500Y450313D01*
X602500D02*
X602955Y450000D01*
X603864*
X604318Y450313*
X604318D02*
X604773Y450938D01*
X604773D02*
X605000Y451563D01*
X605000D02*
Y452500D01*
X603864D02*
X605000D01*
X607045Y456563D02*
Y450000D01*
Y456563D02*
X610000D01*
X607045Y453438D02*
X608864D01*
X607045Y450000D02*
X610000D01*
X617273Y456563D02*
Y450000D01*
Y456563D02*
X620227D01*
X617273Y453438D02*
X619091D01*
X622273Y456563D02*
Y451875D01*
X622500Y450938*
X622500D02*
X622955Y450313D01*
X622955D02*
X623636Y450000D01*
X624091*
X624773Y450313*
X624773D02*
X625227Y450938D01*
X625227D02*
X625455Y451875D01*
Y456563*
X627500D02*
Y450000D01*
X630227*
X632273Y456563D02*
Y450000D01*
X635000*
X642273Y456563D02*
X643409Y450000D01*
X644545Y456563D02*
X643409Y450000D01*
X644545Y456563D02*
X645682Y450000D01*
X646818Y456563D02*
X645682Y450000D01*
X650682Y456563D02*
X648864Y450000D01*
X650682Y456563D02*
X652500Y450000D01*
X649545Y452188D02*
X651818D01*
X654545Y456563D02*
X656364Y450000D01*
X658182Y456563D02*
X656364Y450000D01*
X660227Y456563D02*
Y450000D01*
Y456563D02*
X663182D01*
X660227Y453438D02*
X662045D01*
X660227Y450000D02*
X663182D01*
X670455Y456563D02*
Y450000D01*
Y456563D02*
X672500D01*
X672500D02*
X673182Y456250D01*
X673409Y455938*
X673409D02*
X673636Y455313D01*
X673636D02*
Y454688D01*
X673636D02*
X673409Y454063D01*
X673409D02*
X673182Y453750D01*
X672500Y453438*
X672500D02*
X670455D01*
X672045D02*
X673636Y450000D01*
X675682Y456563D02*
Y450000D01*
Y456563D02*
X678636D01*
X675682Y453438D02*
X677500D01*
X675682Y450000D02*
X678636D01*
X684091Y455000D02*
X683864Y455625D01*
X683409Y456250*
X682955Y456563*
X682955D02*
X682045D01*
X682045D02*
X681591Y456250D01*
X681136Y455625*
X680909Y455000*
X680682Y454063*
X680682D02*
Y452500D01*
X680909Y451563*
X680909D02*
X681136Y450938D01*
X681136D02*
X681591Y450313D01*
X681591D02*
X682045Y450000D01*
X682955*
X683409Y450313*
X683409D02*
X683864Y450938D01*
X683864D02*
X684091Y451563D01*
X687727Y456563D02*
Y450000D01*
X686136Y456563D02*
X689318D01*
X691364D02*
Y450000D01*
X693409Y456563D02*
Y450000D01*
Y456563D02*
X696364D01*
X693409Y453438D02*
X695227D01*
X698409Y456563D02*
Y450000D01*
X700455Y456563D02*
Y450000D01*
Y456563D02*
X703409D01*
X700455Y453438D02*
X702273D01*
X700455Y450000D02*
X703409D01*
X705455Y456563D02*
Y450000D01*
Y456563D02*
X707500D01*
X707500D02*
X708182Y456250D01*
X708409Y455938*
X708409D02*
X708636Y455313D01*
X708636D02*
Y454688D01*
X708636D02*
X708409Y454063D01*
X708409D02*
X708182Y453750D01*
X707500Y453438*
X707500D02*
X705455D01*
X707045D02*
X708636Y450000D01*
G54D25*
X887500Y560000D02*
G75*
G03X887500I-17500J0D01*
G01X878750Y600000D02*
G03X878750I-8750J0D01*
G01X834250Y652500D02*
G03X834250I-4250J0D01*
G01X709750Y505500D02*
Y597741D01*
Y597743*
Y597750D02*
G03Y597743I1500J0D01*
G01Y597750D02*
Y637000D01*
G03X709500Y637250I-250J-0*
G01X707020*
G03X706925Y637231I-0J-250*
G01X705075D02*
G03X706925I925J2269D01*
G01X705075D02*
G03X704980Y637250I-95J-231D01*
G01X703020*
G03X702925Y637231I-0J-250*
G01X701075D02*
G03X702925I925J2269D01*
G01X701075D02*
G03X700980Y637250I-95J-231D01*
G01X699020*
G03X698925Y637231I-0J-250*
G01X697075D02*
G03X698925I925J2269D01*
G01X697075D02*
G03X696980Y637250I-95J-231D01*
G01X690750*
X689996*
G03X689766Y637097I-0J-250*
G01X686216Y628668*
X685860Y628156D02*
G03X686216Y628668I-1026J1094D01*
G01X685860Y628156D02*
G03X685801Y628071I171J-182D01*
G01X685666Y627750*
X684843*
X684841*
X684834D02*
G03X684841I0J1500D01*
G01X684834D02*
X659250D01*
X659243D02*
G03X659250I7J1500D01*
G01X659243D02*
X659241D01*
X657750*
Y629241*
Y629243*
Y629250D02*
G03Y629243I1500J0D01*
G01Y629250D02*
Y646250D01*
Y646257D02*
G03Y646250I1500J-7D01*
G01Y646257D02*
Y646259D01*
Y647741*
Y647743*
Y647750D02*
G03Y647743I1500J0D01*
G01Y647750D02*
Y649500D01*
G03X657500Y649750I-250J-0*
G01X543677*
G03X543428Y649523I0J-250*
G01X532972D02*
G03X543428I5228J477D01*
G01X532972D02*
G03X532723Y649750I-249J-23D01*
G01X525977*
G03X525728Y649523I0J-250*
G01X515272D02*
G03X525728I5228J477D01*
G01X515272D02*
G03X515023Y649750I-249J-23D01*
G01X505500*
G03X505250Y649500I0J-250*
G01Y528825*
G03X505682Y528653I250J-0*
G01X528653Y505682D02*
G03X505682Y528653I-11153J11818D01*
G01X528653Y505682D02*
G03X528825Y505250I172J-182D01*
G01X539338*
G03X539481Y505705I-0J250*
G01X545519D02*
G03X539481I-3019J4295D01*
G01X545519D02*
G03X545662Y505250I143J-205D01*
G01X709500*
G03X709750Y505500I0J250*
G01X698750Y663200D02*
Y684293D01*
G03X698677Y684470I-250J-0*
G01X689500Y693646*
Y794001*
G03X689251Y794251I-250J0*
G01X528894Y794685*
G03X528720Y794254I-1J-250*
G01X505682Y771347D02*
G03X528720Y794254I11818J11153D01*
G01X505682Y771347D02*
G03X505250Y771175I-182J-172D01*
G01Y651500*
G03X505500Y651250I250J0*
G01X515208*
G03X515449Y651432I0J250*
G01X525551D02*
G03X515449I-5051J-1432D01*
G01X525551D02*
G03X525792Y651250I241J68D01*
G01X532908*
G03X533149Y651432I0J250*
G01X543251D02*
G03X533149I-5051J-1432D01*
G01X543251D02*
G03X543492Y651250I241J68D01*
G01X657750*
X657757D02*
G03X657750I-7J-1500D01*
G01X657757D02*
X657759D01*
X659250*
Y649759*
Y649757*
Y649750D02*
G03Y649757I-1500J0D01*
G01Y649750D02*
Y648000D01*
G03X659500Y647750I250J0*
G01X687293*
G03X687470Y647823I-0J250*
G01X689211Y649565*
G03X689279Y649692I-177J176*
G01X689689Y650457D02*
G03X689279Y649692I1061J-1061D01*
G01X689689Y650457D02*
X694543Y655311D01*
X695323Y655724D02*
G03X694543Y655311I281J-1474D01*
G01X695323Y655724D02*
G03X695396Y655750I-47J245D01*
G01X695595*
X695596*
X695604D02*
G03X695596I-0J-1500D01*
G01X695604D02*
X698500D01*
G03X698750Y656000I0J250*
G01Y657800*
G03X698500Y658050I-250J-0*
G01Y662950D02*
G03Y658050I0J-2450D01*
G01Y662950D02*
G03X698750Y663200I0J250D01*
G01X726750Y598000D02*
Y635000D01*
G03X726500Y635250I-250J0*
G01X718750*
Y646758*
G03X718655Y646954I-250J-0*
G01X709481Y654196*
G03X709326Y654250I-155J-196*
G01X698759*
X698757*
X698750D02*
G03X698757I0J1500D01*
G01X698750D02*
X696121D01*
G03X695945Y654177I0J-250*
G01X690823Y649055*
G03X690750Y648879I177J-176*
G01Y639000*
G03X691000Y638750I250J0*
G01X695347*
G03X695592Y639046I-0J250*
G01X699815Y641146D02*
G03X695592Y639046I-1815J-1646D01*
G01X699815Y641146D02*
G03X700185I185J168D01*
G01X703815D02*
G03X700185I-1815J-1646D01*
G01X703815D02*
G03X704185I185J168D01*
G01X708408Y639046D02*
G03X704185Y641146I-2408J454D01*
G01X708408Y639046D02*
G03X708653Y638750I245J-46D01*
G01X709750*
X709757D02*
G03X709750I-7J-1500D01*
G01X709757D02*
X709759D01*
X711250*
Y637259*
Y637257*
Y637250D02*
G03Y637257I-1500J0D01*
G01Y637250D02*
Y618511D01*
G03X711750Y618509I250J0*
G01X713000Y619750D02*
G03X711750Y618509I0J-1250D01*
G01X713000Y619750D02*
X719000D01*
X720250Y618500D02*
G03X719000Y619750I-1250J0D01*
G01X720250Y618500D02*
Y615500D01*
X719000Y614250D02*
G03X720250Y615500I0J1250D01*
G01X719000Y614250D02*
G03X718750Y614000I0J-250D01*
G01X713250D02*
G03X718750I2750J0D01*
G01X713250D02*
G03X713000Y614250I-250J-0D01*
G01X711750Y615491D02*
G03X713000Y614250I1250J9D01*
G01X711750Y615491D02*
G03X711250Y615489I-250J-2D01*
G01Y598000*
G03X711500Y597750I250J0*
G01X726500*
G03X726750Y598000I0J250*
G01X750750Y659000D02*
Y673000D01*
G03X750500Y673250I-250J0*
G01X723650*
G03X723400Y673000I0J-250*
G01Y665400*
X722954*
G03X722704Y665150I-0J-250*
G01Y665148*
X722747Y658998*
G03X722997Y658750I250J2*
G01X736086*
G03X736321Y659083I-0J250*
G01X736250Y659500D02*
G03X736321Y659083I1250J0D01*
G01X736250Y659500D02*
Y662500D01*
Y667500*
X741750D02*
G03X736250I-2750J0D01*
G01X741750D02*
Y665500D01*
Y662500*
Y659500*
X741679Y659083D02*
G03X741750Y659500I-1179J417D01*
G01X741679Y659083D02*
G03X741914Y658750I235J-83D01*
G01X750500*
G03X750750Y659000I0J250*
G01X691250Y639000D02*
Y648793D01*
G03X690823Y648970I-250J-0*
G01X688104Y646250*
X687508*
X687507*
X687500D02*
G03X687507I0J1250D01*
G01X687500D02*
X667500D01*
X659500*
G03X659250Y646000I0J-250*
G01Y629500*
G03X659500Y629250I250J0*
G01X684504*
G03X684734Y629403I0J250*
G01X688284Y637832*
X688640Y638344D02*
G03X688284Y637832I1026J-1094D01*
G01X688640Y638344D02*
G03X688699Y638429I-171J182D01*
G01X688834Y638750*
X689658*
X689659*
X689666D02*
G03X689659I-0J-1500D01*
G01X689666D02*
X691000D01*
G03X691250Y639000I0J250*
G01X894750Y528825D02*
Y771175D01*
G03X894318Y771347I-250J0*
G01X871347Y794318D02*
G03X894318Y771347I11153J-11818D01*
G01X871347Y794318D02*
G03X871175Y794750I-172J182D01*
G01X860662*
G03X860519Y794295I0J-250*
G01X854481D02*
G03X860519I3019J-4295D01*
G01X854481D02*
G03X854338Y794750I-143J205D01*
G01X691232*
G03X690985Y794464I0J-250*
G01X691000Y794251D02*
G03X690985Y794464I-1500J-0D01*
G01X691000Y794251D02*
Y694371D01*
G03X691073Y694195I250J0*
G01X699811Y685457*
X700250Y684396D02*
G03X699811Y685457I-1500J0D01*
G01X700250Y684396D02*
Y662314D01*
G03X700315Y662146I250J-0*
G01Y658854D02*
G03Y662146I-1815J1646D01*
G01Y658854D02*
G03X700250Y658686I185J-168D01*
G01Y656000*
G03X700500Y655750I250J0*
G01X709413*
X710343Y655427D02*
G03X709413Y655750I-930J-1177D01*
G01X710343Y655427D02*
X719679Y648056D01*
X720250Y646879D02*
G03X719679Y648056I-1500J-0D01*
G01X720250Y646879D02*
Y637000D01*
G03X720500Y636750I250J0*
G01X726750*
X728250Y635250D02*
G03X726750Y636750I-1500J0D01*
G01X728250Y635250D02*
Y597750D01*
X726750Y596250D02*
G03X728250Y597750I0J1500D01*
G01X726750Y596250D02*
X711500D01*
G03X711250Y596000I0J-250*
G01Y505500*
G03X711500Y505250I250J0*
G01X871175*
G03X871347Y505682I0J250*
G01X894318Y528653D02*
G03X871347Y505682I-11818J-11153D01*
G01X894318Y528653D02*
G03X894750Y528825I182J172D01*
G01X697750Y684000D02*
Y681000D01*
X696500Y679750D02*
G03X697750Y681000I0J1250D01*
G01X696500Y679750D02*
X690500D01*
X688000*
Y685250D02*
G03Y679750I0J-2750D01*
G01Y685250D02*
X693500D01*
X696500*
X697750Y684000D02*
G03X696500Y685250I-1250J0D01*
G01X672750Y643500D02*
Y640500D01*
Y639500*
Y637500*
X671500Y636250D02*
G03X672750Y637500I0J1250D01*
G01X671500Y636250D02*
X668500D01*
X667568Y636667D02*
G03X668500Y636250I932J833D01*
G01X667568Y636667D02*
G03X667382Y636750I-186J-167D01*
G01X666500*
Y642250D02*
G03Y636750I0J-2750D01*
G01Y642250D02*
X667000D01*
G03X667250Y642500I-0J250*
G01Y643500*
X668500Y644750D02*
G03X667250Y643500I0J-1250D01*
G01X668500Y644750D02*
X671500D01*
X672750Y643500D02*
G03X671500Y644750I-1250J0D01*
G01X887500Y560000D02*
G03X887500I-17500J0D01*
G01X878750Y600000D02*
G03X878750I-8750J0D01*
G01X834250Y652500D02*
G03X834250I-4250J0D01*
G01X752250Y673250D02*
Y658750D01*
X750750Y657250D02*
G03X752250Y658750I0J1500D01*
G01X750750Y657250D02*
X722748D01*
X721248Y658740D02*
G03X722748Y657250I1500J10D01*
G01X721248Y658740D02*
X721202Y665390D01*
X721800Y666599D02*
G03X721202Y665390I902J-1199D01*
G01X721800Y666599D02*
G03X721900Y666799I-150J200D01*
G01Y673179*
X721920Y673426D02*
G03X721900Y673179I1480J-247D01*
G01X721920Y673426D02*
X721932Y673497D01*
X723412Y674750D02*
G03X721932Y673497I-0J-1500D01*
G01X723412Y674750D02*
X750750D01*
X752250Y673250D02*
G03X750750Y674750I-1500J0D01*
G01X505250Y597499D02*
X709750D01*
X505250Y597049D02*
X709750D01*
X505250Y596599D02*
X709750D01*
X505250Y596149D02*
X709750D01*
X505250Y595699D02*
X709750D01*
X505250Y595249D02*
X709750D01*
X505250Y594799D02*
X709750D01*
X505250Y594349D02*
X709750D01*
X505250Y593899D02*
X709750D01*
X505250Y593449D02*
X709750D01*
X505250Y592999D02*
X709750D01*
X505250Y592549D02*
X709750D01*
X505250Y592099D02*
X709750D01*
X505250Y591649D02*
X709750D01*
X505250Y591199D02*
X709750D01*
X505250Y590749D02*
X709750D01*
X505250Y590299D02*
X709750D01*
X505250Y589849D02*
X709750D01*
X505250Y589399D02*
X709750D01*
X505250Y588949D02*
X709750D01*
X505250Y588499D02*
X709750D01*
X505250Y588049D02*
X709750D01*
X505250Y587599D02*
X709750D01*
X505250Y587149D02*
X709750D01*
X505250Y586699D02*
X709750D01*
X505250Y586249D02*
X709750D01*
X505250Y585799D02*
X709750D01*
X505250Y585349D02*
X709750D01*
X505250Y584899D02*
X709750D01*
X505250Y584449D02*
X709750D01*
X505250Y583999D02*
X709750D01*
X505250Y583549D02*
X709750D01*
X505250Y583099D02*
X709750D01*
X505250Y582649D02*
X709750D01*
X505250Y582199D02*
X709750D01*
X505250Y581749D02*
X709750D01*
X505250Y581299D02*
X709750D01*
X505250Y580849D02*
X709750D01*
X505250Y580399D02*
X709750D01*
X505250Y579949D02*
X709750D01*
X505250Y579499D02*
X709750D01*
X505250Y579049D02*
X709750D01*
X505250Y578599D02*
X709750D01*
X505250Y578149D02*
X709750D01*
X505250Y577699D02*
X709750D01*
X505250Y577249D02*
X709750D01*
X505250Y576799D02*
X709750D01*
X505250Y576349D02*
X709750D01*
X505250Y575899D02*
X709750D01*
X505250Y575449D02*
X709750D01*
X505250Y574999D02*
X709750D01*
X505250Y574549D02*
X709750D01*
X505250Y574099D02*
X709750D01*
X505250Y573649D02*
X709750D01*
X505250Y573199D02*
X709750D01*
X505250Y572749D02*
X709750D01*
X505250Y572299D02*
X709750D01*
X505250Y571849D02*
X709750D01*
X505250Y571399D02*
X709750D01*
X505250Y570949D02*
X709750D01*
X505250Y570499D02*
X709750D01*
X505250Y570049D02*
X709750D01*
X505250Y569599D02*
X709750D01*
X505250Y569149D02*
X709750D01*
X505250Y568699D02*
X709750D01*
X505250Y568249D02*
X709750D01*
X505250Y567799D02*
X709750D01*
X505250Y567349D02*
X709750D01*
X505250Y566899D02*
X709750D01*
X505250Y566449D02*
X709750D01*
X505250Y565999D02*
X709750D01*
X505250Y565549D02*
X709750D01*
X505250Y565099D02*
X709750D01*
X505250Y564649D02*
X709750D01*
X505250Y564199D02*
X709750D01*
X505250Y563749D02*
X709750D01*
X505250Y563299D02*
X709750D01*
X505250Y562849D02*
X709750D01*
X505250Y562399D02*
X709750D01*
X505250Y561949D02*
X709750D01*
X505250Y561499D02*
X709750D01*
X505250Y561049D02*
X709750D01*
X505250Y560599D02*
X709750D01*
X505250Y560149D02*
X709750D01*
X505250Y559699D02*
X709750D01*
X505250Y559249D02*
X709750D01*
X505250Y558799D02*
X709750D01*
X505250Y558349D02*
X709750D01*
X505250Y557899D02*
X709750D01*
X505250Y557449D02*
X709750D01*
X505250Y556999D02*
X709750D01*
X505250Y556549D02*
X709750D01*
X505250Y556099D02*
X709750D01*
X505250Y555649D02*
X709750D01*
X505250Y555199D02*
X709750D01*
X505250Y554749D02*
X709750D01*
X505250Y554299D02*
X709750D01*
X505250Y553849D02*
X709750D01*
X505250Y553399D02*
X709750D01*
X505250Y552949D02*
X709750D01*
X505250Y552499D02*
X709750D01*
X505250Y552049D02*
X709750D01*
X505250Y551599D02*
X709750D01*
X505250Y551149D02*
X709750D01*
X505250Y550699D02*
X709750D01*
X505250Y550249D02*
X709750D01*
X505250Y549799D02*
X709750D01*
X505250Y549349D02*
X709750D01*
X505250Y548899D02*
X709750D01*
X505250Y548449D02*
X709750D01*
X505250Y547999D02*
X709750D01*
X505250Y547549D02*
X709750D01*
X505250Y547099D02*
X709750D01*
X505250Y546649D02*
X709750D01*
X505250Y546199D02*
X709750D01*
X505250Y545749D02*
X709750D01*
X505250Y545299D02*
X709750D01*
X505250Y544849D02*
X709750D01*
X505250Y544399D02*
X709750D01*
X505250Y543949D02*
X709750D01*
X505250Y543499D02*
X709750D01*
X505250Y543049D02*
X709750D01*
X505250Y542599D02*
X709750D01*
X505250Y542149D02*
X709750D01*
X505250Y541699D02*
X709750D01*
X505250Y541249D02*
X709750D01*
X505250Y540799D02*
X709750D01*
X505250Y540349D02*
X709750D01*
X505250Y539899D02*
X709750D01*
X505250Y539449D02*
X709750D01*
X505250Y538999D02*
X709750D01*
X505250Y538549D02*
X709750D01*
X505250Y538099D02*
X709750D01*
X505250Y537649D02*
X709750D01*
X505250Y537199D02*
X709750D01*
X505250Y536749D02*
X709750D01*
X505250Y536299D02*
X709750D01*
X505250Y535849D02*
X709750D01*
X505250Y535399D02*
X709750D01*
X505250Y534949D02*
X709750D01*
X505250Y534499D02*
X709750D01*
X505250Y534049D02*
X709750D01*
X519713Y533599D02*
X709750D01*
X521880Y533149D02*
X709750D01*
X523250Y532699D02*
X709750D01*
X524322Y532249D02*
X709750D01*
X525221Y531799D02*
X709750D01*
X526002Y531349D02*
X709750D01*
X526694Y530899D02*
X709750D01*
X527318Y530449D02*
X709750D01*
X527885Y529999D02*
X709750D01*
X528404Y529549D02*
X709750D01*
X528881Y529099D02*
X709750D01*
X529322Y528649D02*
X709750D01*
X529731Y528199D02*
X709750D01*
X530111Y527749D02*
X709750D01*
X530463Y527299D02*
X709750D01*
X530792Y526849D02*
X709750D01*
X531097Y526399D02*
X709750D01*
X531381Y525949D02*
X709750D01*
X531645Y525499D02*
X709750D01*
X531890Y525049D02*
X709750D01*
X532118Y524599D02*
X709750D01*
X532328Y524149D02*
X709750D01*
X532521Y523699D02*
X709750D01*
X532699Y523249D02*
X709750D01*
X532862Y522799D02*
X709750D01*
X533010Y522349D02*
X709750D01*
X533143Y521899D02*
X709750D01*
X533263Y521449D02*
X709750D01*
X533369Y520999D02*
X709750D01*
X533461Y520549D02*
X709750D01*
X533541Y520099D02*
X709750D01*
X533607Y519649D02*
X709750D01*
X533661Y519199D02*
X709750D01*
X533702Y518749D02*
X709750D01*
X533730Y518299D02*
X709750D01*
X533746Y517849D02*
X709750D01*
X533750Y517399D02*
X709750D01*
X533741Y516949D02*
X709750D01*
X533719Y516499D02*
X709750D01*
X533685Y516049D02*
X709750D01*
X533638Y515599D02*
X709750D01*
X543527Y515149D02*
X709750D01*
X544842Y514699D02*
X709750D01*
X545584Y514249D02*
X709750D01*
X546124Y513799D02*
X709750D01*
X546543Y513349D02*
X709750D01*
X546877Y512899D02*
X709750D01*
X547144Y512449D02*
X709750D01*
X547355Y511999D02*
X709750D01*
X547516Y511549D02*
X709750D01*
X547634Y511099D02*
X709750D01*
X547710Y510649D02*
X709750D01*
X547746Y510199D02*
X709750D01*
X547744Y509749D02*
X709750D01*
X547703Y509299D02*
X709750D01*
X547622Y508849D02*
X709750D01*
X547500Y508399D02*
X709750D01*
X547333Y507949D02*
X709750D01*
X547116Y507499D02*
X709750D01*
X546842Y507049D02*
X709750D01*
X546499Y506599D02*
X709750D01*
X546068Y506149D02*
X709750D01*
X545511Y505699D02*
X709750D01*
X689577Y636649D02*
X709750D01*
X689387Y636199D02*
X709750D01*
X689198Y635749D02*
X709750D01*
X689008Y635299D02*
X709750D01*
X688819Y634849D02*
X709750D01*
X688629Y634399D02*
X709750D01*
X688440Y633949D02*
X709750D01*
X688250Y633499D02*
X709750D01*
X688061Y633049D02*
X709750D01*
X687872Y632599D02*
X709750D01*
X687682Y632149D02*
X709750D01*
X687493Y631699D02*
X709750D01*
X687303Y631249D02*
X709750D01*
X687114Y630799D02*
X709750D01*
X686924Y630349D02*
X709750D01*
X686735Y629899D02*
X709750D01*
X686545Y629449D02*
X709750D01*
X686356Y628999D02*
X709750D01*
X686160Y628549D02*
X709750D01*
X685815Y628099D02*
X709750D01*
X505250Y627649D02*
X709750D01*
X505250Y627199D02*
X709750D01*
X505250Y626749D02*
X709750D01*
X505250Y626299D02*
X709750D01*
X505250Y625849D02*
X709750D01*
X505250Y625399D02*
X709750D01*
X505250Y624949D02*
X709750D01*
X505250Y624499D02*
X709750D01*
X505250Y624049D02*
X709750D01*
X505250Y623599D02*
X709750D01*
X505250Y623149D02*
X709750D01*
X505250Y622699D02*
X709750D01*
X505250Y622249D02*
X709750D01*
X505250Y621799D02*
X709750D01*
X505250Y621349D02*
X709750D01*
X505250Y620899D02*
X709750D01*
X505250Y620449D02*
X709750D01*
X505250Y619999D02*
X709750D01*
X505250Y619549D02*
X709750D01*
X505250Y619099D02*
X709750D01*
X505250Y618649D02*
X709750D01*
X505250Y618199D02*
X709750D01*
X505250Y617749D02*
X709750D01*
X505250Y617299D02*
X709750D01*
X505250Y616849D02*
X709750D01*
X505250Y616399D02*
X709750D01*
X505250Y615949D02*
X709750D01*
X505250Y615499D02*
X709750D01*
X505250Y615049D02*
X709750D01*
X505250Y614599D02*
X709750D01*
X505250Y614149D02*
X709750D01*
X505250Y613699D02*
X709750D01*
X505250Y613249D02*
X709750D01*
X505250Y612799D02*
X709750D01*
X505250Y612349D02*
X709750D01*
X505250Y611899D02*
X709750D01*
X505250Y611449D02*
X709750D01*
X505250Y610999D02*
X709750D01*
X505250Y610549D02*
X709750D01*
X505250Y610099D02*
X709750D01*
X505250Y609649D02*
X709750D01*
X505250Y609199D02*
X709750D01*
X505250Y608749D02*
X709750D01*
X505250Y608299D02*
X709750D01*
X505250Y607849D02*
X709750D01*
X505250Y607399D02*
X709750D01*
X505250Y606949D02*
X709750D01*
X505250Y606499D02*
X709750D01*
X505250Y606049D02*
X709750D01*
X505250Y605599D02*
X709750D01*
X505250Y605149D02*
X709750D01*
X505250Y604699D02*
X709750D01*
X505250Y604249D02*
X709750D01*
X505250Y603799D02*
X709750D01*
X505250Y603349D02*
X709750D01*
X505250Y602899D02*
X709750D01*
X505250Y602449D02*
X709750D01*
X505250Y601999D02*
X709750D01*
X505250Y601549D02*
X709750D01*
X505250Y601099D02*
X709750D01*
X505250Y600649D02*
X709750D01*
X505250Y600199D02*
X709750D01*
X505250Y599749D02*
X709750D01*
X505250Y599299D02*
X709750D01*
X505250Y598849D02*
X709750D01*
X505250Y598399D02*
X709750D01*
X505250Y597949D02*
X709750D01*
X706486Y637099D02*
X709730D01*
X702486D02*
X705514D01*
X698486D02*
X701514D01*
X689766D02*
X697514D01*
X542788Y647449D02*
X657750D01*
X542508Y646999D02*
X657750D01*
X542156Y646549D02*
X657750D01*
X505250Y628999D02*
X657750D01*
X505250Y628549D02*
X657750D01*
X505250Y628099D02*
X657750D01*
X543396Y649249D02*
X657750D01*
X543311Y648799D02*
X657750D01*
X543184Y648349D02*
X657750D01*
X543011Y647899D02*
X657750D01*
X541713Y646099D02*
X657750D01*
X541137Y645649D02*
X657750D01*
X540324Y645199D02*
X657750D01*
X505250Y644749D02*
X657750D01*
X505250Y644299D02*
X657750D01*
X505250Y643849D02*
X657750D01*
X505250Y643399D02*
X657750D01*
X505250Y642949D02*
X657750D01*
X505250Y642499D02*
X657750D01*
X505250Y642049D02*
X657750D01*
X505250Y641599D02*
X657750D01*
X505250Y641149D02*
X657750D01*
X505250Y640699D02*
X657750D01*
X505250Y640249D02*
X657750D01*
X505250Y639799D02*
X657750D01*
X505250Y639349D02*
X657750D01*
X505250Y638899D02*
X657750D01*
X505250Y638449D02*
X657750D01*
X505250Y637999D02*
X657750D01*
X505250Y637549D02*
X657750D01*
X505250Y637099D02*
X657750D01*
X505250Y636649D02*
X657750D01*
X505250Y636199D02*
X657750D01*
X505250Y635749D02*
X657750D01*
X505250Y635299D02*
X657750D01*
X505250Y634849D02*
X657750D01*
X505250Y634399D02*
X657750D01*
X505250Y633949D02*
X657750D01*
X505250Y633499D02*
X657750D01*
X505250Y633049D02*
X657750D01*
X505250Y632599D02*
X657750D01*
X505250Y632149D02*
X657750D01*
X505250Y631699D02*
X657750D01*
X505250Y631249D02*
X657750D01*
X505250Y630799D02*
X657750D01*
X505250Y630349D02*
X657750D01*
X505250Y629899D02*
X657750D01*
X505250Y629449D02*
X657750D01*
X543526Y649699D02*
X657652D01*
X533579Y515149D02*
X541473D01*
X533507Y514699D02*
X540158D01*
X528671Y505699D02*
X539489D01*
X533421Y514249D02*
X539416D01*
X529128Y506149D02*
X538932D01*
X533323Y513799D02*
X538876D01*
X529551Y506599D02*
X538501D01*
X533211Y513349D02*
X538457D01*
X529943Y507049D02*
X538158D01*
X533085Y512899D02*
X538123D01*
X530308Y507499D02*
X537884D01*
X532945Y512449D02*
X537856D01*
X530647Y507949D02*
X537667D01*
X532790Y511999D02*
X537645D01*
X530962Y508399D02*
X537500D01*
X532621Y511549D02*
X537484D01*
X531256Y508849D02*
X537378D01*
X532436Y511099D02*
X537366D01*
X531529Y509299D02*
X537297D01*
X532235Y510649D02*
X537290D01*
X531782Y509749D02*
X537256D01*
X532017Y510199D02*
X537254D01*
X522624Y645199D02*
X536076D01*
X523437Y645649D02*
X535263D01*
X524013Y646099D02*
X534687D01*
X524456Y646549D02*
X534244D01*
X524808Y646999D02*
X533892D01*
X525088Y647449D02*
X533612D01*
X525311Y647899D02*
X533389D01*
X525484Y648349D02*
X533216D01*
X525611Y648799D02*
X533089D01*
X525696Y649249D02*
X533004D01*
X525826Y649699D02*
X532874D01*
X505250Y645199D02*
X518376D01*
X505250Y645649D02*
X517563D01*
X505250Y646099D02*
X516987D01*
X505250Y646549D02*
X516544D01*
X505250Y646999D02*
X516192D01*
X505250Y647449D02*
X515912D01*
X505250Y647899D02*
X515689D01*
X505250Y648349D02*
X515516D01*
X505250Y648799D02*
X515389D01*
X505250Y649249D02*
X515304D01*
X505250Y533599D02*
X515287D01*
X505348Y649699D02*
X515174D01*
X505250Y533149D02*
X513120D01*
X505250Y532699D02*
X511750D01*
X505250Y532249D02*
X510678D01*
X505250Y531799D02*
X509779D01*
X505250Y531349D02*
X508998D01*
X505250Y530899D02*
X508306D01*
X505250Y530449D02*
X507682D01*
X505250Y529999D02*
X507115D01*
X505250Y529549D02*
X506596D01*
X505250Y529099D02*
X506119D01*
X505323Y528649D02*
X505677D01*
X697734Y684199D02*
X698750D01*
X697750Y683749D02*
X698750D01*
X697750Y683299D02*
X698750D01*
X697750Y682849D02*
X698750D01*
X697750Y682399D02*
X698750D01*
X697750Y681949D02*
X698750D01*
X697750Y681499D02*
X698750D01*
X697750Y681049D02*
X698750D01*
X697684Y680599D02*
X698750D01*
X697415Y680149D02*
X698750D01*
X505250Y679699D02*
X698750D01*
X505250Y679249D02*
X698750D01*
X505250Y678799D02*
X698750D01*
X505250Y678349D02*
X698750D01*
X505250Y677899D02*
X698750D01*
X505250Y677449D02*
X698750D01*
X505250Y676999D02*
X698750D01*
X505250Y676549D02*
X698750D01*
X505250Y676099D02*
X698750D01*
X505250Y675649D02*
X698750D01*
X505250Y675199D02*
X698750D01*
X505250Y674749D02*
X698750D01*
X505250Y674299D02*
X698750D01*
X505250Y673849D02*
X698750D01*
X505250Y673399D02*
X698750D01*
X505250Y672949D02*
X698750D01*
X505250Y672499D02*
X698750D01*
X505250Y672049D02*
X698750D01*
X505250Y671599D02*
X698750D01*
X505250Y671149D02*
X698750D01*
X505250Y670699D02*
X698750D01*
X505250Y670249D02*
X698750D01*
X505250Y669799D02*
X698750D01*
X505250Y669349D02*
X698750D01*
X505250Y668899D02*
X698750D01*
X505250Y668449D02*
X698750D01*
X505250Y667999D02*
X698750D01*
X505250Y667549D02*
X698750D01*
X505250Y667099D02*
X698750D01*
X505250Y666649D02*
X698750D01*
X505250Y666199D02*
X698750D01*
X505250Y665749D02*
X698750D01*
X505250Y665299D02*
X698750D01*
X505250Y664849D02*
X698750D01*
X505250Y664399D02*
X698750D01*
X505250Y663949D02*
X698750D01*
X505250Y663499D02*
X698750D01*
X505250Y657649D02*
X698750D01*
X505250Y657199D02*
X698750D01*
X505250Y656749D02*
X698750D01*
X505250Y656299D02*
X698750D01*
X505250Y663049D02*
X698699D01*
X505250Y655849D02*
X698699D01*
X697569Y684649D02*
X698498D01*
X697096Y685099D02*
X698048D01*
X505250Y658099D02*
X698014D01*
X505250Y685549D02*
X697598D01*
X505250Y662599D02*
X697236D01*
X505250Y685999D02*
X697148D01*
X505250Y658549D02*
X697018D01*
X505250Y686449D02*
X696698D01*
X505250Y662149D02*
X696688D01*
X505250Y658999D02*
X696564D01*
X505250Y661699D02*
X696363D01*
X505250Y659449D02*
X696287D01*
X505250Y686899D02*
X696248D01*
X505250Y661249D02*
X696167D01*
X505250Y659899D02*
X696125D01*
X505250Y660799D02*
X696068D01*
X505250Y660349D02*
X696055D01*
X505250Y687349D02*
X695798D01*
X505250Y687799D02*
X695348D01*
X505250Y688249D02*
X694898D01*
X505250Y655399D02*
X694639D01*
X505250Y688699D02*
X694448D01*
X539953Y654949D02*
X694181D01*
X505250Y689149D02*
X693998D01*
X540906Y654499D02*
X693731D01*
X505250Y689599D02*
X693548D01*
X541542Y654049D02*
X693281D01*
X505250Y690049D02*
X693098D01*
X542023Y653599D02*
X692831D01*
X505250Y690499D02*
X692648D01*
X542401Y653149D02*
X692381D01*
X505250Y690949D02*
X692198D01*
X542703Y652699D02*
X691931D01*
X505250Y691399D02*
X691748D01*
X542944Y652249D02*
X691481D01*
X505250Y691849D02*
X691298D01*
X543132Y651799D02*
X691031D01*
X505250Y692299D02*
X690848D01*
X543293Y651349D02*
X690581D01*
X505250Y692749D02*
X690398D01*
X659250Y650899D02*
X690131D01*
X505250Y693199D02*
X689948D01*
X659250Y650449D02*
X689681D01*
X528982Y793999D02*
X689500D01*
X529416Y793549D02*
X689500D01*
X529818Y793099D02*
X689500D01*
X530191Y792649D02*
X689500D01*
X530538Y792199D02*
X689500D01*
X530861Y791749D02*
X689500D01*
X531162Y791299D02*
X689500D01*
X531441Y790849D02*
X689500D01*
X531701Y790399D02*
X689500D01*
X531942Y789949D02*
X689500D01*
X532166Y789499D02*
X689500D01*
X532372Y789049D02*
X689500D01*
X532562Y788599D02*
X689500D01*
X532737Y788149D02*
X689500D01*
X532896Y787699D02*
X689500D01*
X533041Y787249D02*
X689500D01*
X533171Y786799D02*
X689500D01*
X533288Y786349D02*
X689500D01*
X533391Y785899D02*
X689500D01*
X533480Y785449D02*
X689500D01*
X533557Y784999D02*
X689500D01*
X533620Y784549D02*
X689500D01*
X533671Y784099D02*
X689500D01*
X533709Y783649D02*
X689500D01*
X533735Y783199D02*
X689500D01*
X533748Y782749D02*
X689500D01*
X533749Y782299D02*
X689500D01*
X533737Y781849D02*
X689500D01*
X533713Y781399D02*
X689500D01*
X533676Y780949D02*
X689500D01*
X533626Y780499D02*
X689500D01*
X533564Y780049D02*
X689500D01*
X533489Y779599D02*
X689500D01*
X533401Y779149D02*
X689500D01*
X533299Y778699D02*
X689500D01*
X533184Y778249D02*
X689500D01*
X533055Y777799D02*
X689500D01*
X532912Y777349D02*
X689500D01*
X532754Y776899D02*
X689500D01*
X532581Y776449D02*
X689500D01*
X532393Y775999D02*
X689500D01*
X532188Y775549D02*
X689500D01*
X531967Y775099D02*
X689500D01*
X531727Y774649D02*
X689500D01*
X531470Y774199D02*
X689500D01*
X531192Y773749D02*
X689500D01*
X530894Y773299D02*
X689500D01*
X530573Y772849D02*
X689500D01*
X530229Y772399D02*
X689500D01*
X529859Y771949D02*
X689500D01*
X529460Y771499D02*
X689500D01*
X529030Y771049D02*
X689500D01*
X528564Y770599D02*
X689500D01*
X528060Y770149D02*
X689500D01*
X527509Y769699D02*
X689500D01*
X526906Y769249D02*
X689500D01*
X526237Y768799D02*
X689500D01*
X525488Y768349D02*
X689500D01*
X524632Y767899D02*
X689500D01*
X523625Y767449D02*
X689500D01*
X522376Y766999D02*
X689500D01*
X520601Y766549D02*
X689500D01*
X505250Y766099D02*
X689500D01*
X505250Y765649D02*
X689500D01*
X505250Y765199D02*
X689500D01*
X505250Y764749D02*
X689500D01*
X505250Y764299D02*
X689500D01*
X505250Y763849D02*
X689500D01*
X505250Y763399D02*
X689500D01*
X505250Y762949D02*
X689500D01*
X505250Y762499D02*
X689500D01*
X505250Y762049D02*
X689500D01*
X505250Y761599D02*
X689500D01*
X505250Y761149D02*
X689500D01*
X505250Y760699D02*
X689500D01*
X505250Y760249D02*
X689500D01*
X505250Y759799D02*
X689500D01*
X505250Y759349D02*
X689500D01*
X505250Y758899D02*
X689500D01*
X505250Y758449D02*
X689500D01*
X505250Y757999D02*
X689500D01*
X505250Y757549D02*
X689500D01*
X505250Y757099D02*
X689500D01*
X505250Y756649D02*
X689500D01*
X505250Y756199D02*
X689500D01*
X505250Y755749D02*
X689500D01*
X505250Y755299D02*
X689500D01*
X505250Y754849D02*
X689500D01*
X505250Y754399D02*
X689500D01*
X505250Y753949D02*
X689500D01*
X505250Y753499D02*
X689500D01*
X505250Y753049D02*
X689500D01*
X505250Y752599D02*
X689500D01*
X505250Y752149D02*
X689500D01*
X505250Y751699D02*
X689500D01*
X505250Y751249D02*
X689500D01*
X505250Y750799D02*
X689500D01*
X505250Y750349D02*
X689500D01*
X505250Y749899D02*
X689500D01*
X505250Y749449D02*
X689500D01*
X505250Y748999D02*
X689500D01*
X505250Y748549D02*
X689500D01*
X505250Y748099D02*
X689500D01*
X505250Y747649D02*
X689500D01*
X505250Y747199D02*
X689500D01*
X505250Y746749D02*
X689500D01*
X505250Y746299D02*
X689500D01*
X505250Y745849D02*
X689500D01*
X505250Y745399D02*
X689500D01*
X505250Y744949D02*
X689500D01*
X505250Y744499D02*
X689500D01*
X505250Y744049D02*
X689500D01*
X505250Y743599D02*
X689500D01*
X505250Y743149D02*
X689500D01*
X505250Y742699D02*
X689500D01*
X505250Y742249D02*
X689500D01*
X505250Y741799D02*
X689500D01*
X505250Y741349D02*
X689500D01*
X505250Y740899D02*
X689500D01*
X505250Y740449D02*
X689500D01*
X505250Y739999D02*
X689500D01*
X505250Y739549D02*
X689500D01*
X505250Y739099D02*
X689500D01*
X505250Y738649D02*
X689500D01*
X505250Y738199D02*
X689500D01*
X505250Y737749D02*
X689500D01*
X505250Y737299D02*
X689500D01*
X505250Y736849D02*
X689500D01*
X505250Y736399D02*
X689500D01*
X505250Y735949D02*
X689500D01*
X505250Y735499D02*
X689500D01*
X505250Y735049D02*
X689500D01*
X505250Y734599D02*
X689500D01*
X505250Y734149D02*
X689500D01*
X505250Y733699D02*
X689500D01*
X505250Y733249D02*
X689500D01*
X505250Y732799D02*
X689500D01*
X505250Y732349D02*
X689500D01*
X505250Y731899D02*
X689500D01*
X505250Y731449D02*
X689500D01*
X505250Y730999D02*
X689500D01*
X505250Y730549D02*
X689500D01*
X505250Y730099D02*
X689500D01*
X505250Y729649D02*
X689500D01*
X505250Y729199D02*
X689500D01*
X505250Y728749D02*
X689500D01*
X505250Y728299D02*
X689500D01*
X505250Y727849D02*
X689500D01*
X505250Y727399D02*
X689500D01*
X505250Y726949D02*
X689500D01*
X505250Y726499D02*
X689500D01*
X505250Y726049D02*
X689500D01*
X505250Y725599D02*
X689500D01*
X505250Y725149D02*
X689500D01*
X505250Y724699D02*
X689500D01*
X505250Y724249D02*
X689500D01*
X505250Y723799D02*
X689500D01*
X505250Y723349D02*
X689500D01*
X505250Y722899D02*
X689500D01*
X505250Y722449D02*
X689500D01*
X505250Y721999D02*
X689500D01*
X505250Y721549D02*
X689500D01*
X505250Y721099D02*
X689500D01*
X505250Y720649D02*
X689500D01*
X505250Y720199D02*
X689500D01*
X505250Y719749D02*
X689500D01*
X505250Y719299D02*
X689500D01*
X505250Y718849D02*
X689500D01*
X505250Y718399D02*
X689500D01*
X505250Y717949D02*
X689500D01*
X505250Y717499D02*
X689500D01*
X505250Y717049D02*
X689500D01*
X505250Y716599D02*
X689500D01*
X505250Y716149D02*
X689500D01*
X505250Y715699D02*
X689500D01*
X505250Y715249D02*
X689500D01*
X505250Y714799D02*
X689500D01*
X505250Y714349D02*
X689500D01*
X505250Y713899D02*
X689500D01*
X505250Y713449D02*
X689500D01*
X505250Y712999D02*
X689500D01*
X505250Y712549D02*
X689500D01*
X505250Y712099D02*
X689500D01*
X505250Y711649D02*
X689500D01*
X505250Y711199D02*
X689500D01*
X505250Y710749D02*
X689500D01*
X505250Y710299D02*
X689500D01*
X505250Y709849D02*
X689500D01*
X505250Y709399D02*
X689500D01*
X505250Y708949D02*
X689500D01*
X505250Y708499D02*
X689500D01*
X505250Y708049D02*
X689500D01*
X505250Y707599D02*
X689500D01*
X505250Y707149D02*
X689500D01*
X505250Y706699D02*
X689500D01*
X505250Y706249D02*
X689500D01*
X505250Y705799D02*
X689500D01*
X505250Y705349D02*
X689500D01*
X505250Y704899D02*
X689500D01*
X505250Y704449D02*
X689500D01*
X505250Y703999D02*
X689500D01*
X505250Y703549D02*
X689500D01*
X505250Y703099D02*
X689500D01*
X505250Y702649D02*
X689500D01*
X505250Y702199D02*
X689500D01*
X505250Y701749D02*
X689500D01*
X505250Y701299D02*
X689500D01*
X505250Y700849D02*
X689500D01*
X505250Y700399D02*
X689500D01*
X505250Y699949D02*
X689500D01*
X505250Y699499D02*
X689500D01*
X505250Y699049D02*
X689500D01*
X505250Y698599D02*
X689500D01*
X505250Y698149D02*
X689500D01*
X505250Y697699D02*
X689500D01*
X505250Y697249D02*
X689500D01*
X505250Y696799D02*
X689500D01*
X505250Y696349D02*
X689500D01*
X505250Y695899D02*
X689500D01*
X505250Y695449D02*
X689500D01*
X505250Y694999D02*
X689500D01*
X505250Y694549D02*
X689500D01*
X505250Y694099D02*
X689500D01*
X505250Y693649D02*
X689500D01*
X659250Y649999D02*
X689376D01*
X659250Y649549D02*
X689195D01*
X659250Y649099D02*
X688745D01*
X659250Y648649D02*
X688295D01*
X659250Y648199D02*
X687845D01*
X505250Y685099D02*
X687100D01*
X505250Y680149D02*
X686574D01*
X505250Y684649D02*
X686284D01*
X505250Y680599D02*
X686013D01*
X505250Y684199D02*
X685837D01*
X505250Y681049D02*
X685664D01*
X505250Y683749D02*
X685550D01*
X505250Y681499D02*
X685439D01*
X505250Y683299D02*
X685369D01*
X505250Y681949D02*
X685306D01*
X505250Y682849D02*
X685272D01*
X505250Y682399D02*
X685252D01*
X528643Y794449D02*
X616335D01*
X522253Y654949D02*
X536447D01*
X523206Y654499D02*
X535494D01*
X523842Y654049D02*
X534858D01*
X524323Y653599D02*
X534377D01*
X524701Y653149D02*
X533999D01*
X525003Y652699D02*
X533697D01*
X525244Y652249D02*
X533456D01*
X525432Y651799D02*
X533268D01*
X525593Y651349D02*
X533107D01*
X505250Y654949D02*
X518747D01*
X505250Y654499D02*
X517794D01*
X505250Y654049D02*
X517158D01*
X505250Y653599D02*
X516677D01*
X505250Y653149D02*
X516299D01*
X505250Y652699D02*
X515997D01*
X505250Y652249D02*
X515756D01*
X505250Y651799D02*
X515568D01*
X505301Y651349D02*
X515407D01*
X505250Y766549D02*
X514399D01*
X505250Y766999D02*
X512624D01*
X505250Y767449D02*
X511375D01*
X505250Y767899D02*
X510368D01*
X505250Y768349D02*
X509512D01*
X505250Y768799D02*
X508763D01*
X505250Y769249D02*
X508094D01*
X505250Y769699D02*
X507491D01*
X505250Y770149D02*
X506940D01*
X505250Y770599D02*
X506436D01*
X505250Y771049D02*
X505970D01*
X711250Y634649D02*
X726750D01*
X711250Y634199D02*
X726750D01*
X711250Y633749D02*
X726750D01*
X711250Y633299D02*
X726750D01*
X711250Y632849D02*
X726750D01*
X711250Y632399D02*
X726750D01*
X711250Y631949D02*
X726750D01*
X711250Y631499D02*
X726750D01*
X711250Y631049D02*
X726750D01*
X711250Y630599D02*
X726750D01*
X711250Y630149D02*
X726750D01*
X711250Y629699D02*
X726750D01*
X711250Y629249D02*
X726750D01*
X711250Y628799D02*
X726750D01*
X711250Y628349D02*
X726750D01*
X711250Y627899D02*
X726750D01*
X711250Y627449D02*
X726750D01*
X711250Y626999D02*
X726750D01*
X711250Y626549D02*
X726750D01*
X711250Y626099D02*
X726750D01*
X711250Y625649D02*
X726750D01*
X711250Y625199D02*
X726750D01*
X711250Y624749D02*
X726750D01*
X711250Y624299D02*
X726750D01*
X711250Y623849D02*
X726750D01*
X711250Y623399D02*
X726750D01*
X711250Y622949D02*
X726750D01*
X711250Y622499D02*
X726750D01*
X711250Y622049D02*
X726750D01*
X711250Y621599D02*
X726750D01*
X711250Y621149D02*
X726750D01*
X711250Y620699D02*
X726750D01*
X711250Y620249D02*
X726750D01*
X711250Y619799D02*
X726750D01*
X719918Y619349D02*
X726750D01*
X720185Y618899D02*
X726750D01*
X720250Y618449D02*
X726750D01*
X720250Y617999D02*
X726750D01*
X720250Y617549D02*
X726750D01*
X720250Y617099D02*
X726750D01*
X720250Y616649D02*
X726750D01*
X720250Y616199D02*
X726750D01*
X720250Y615749D02*
X726750D01*
X720234Y615299D02*
X726750D01*
X720067Y614849D02*
X726750D01*
X719591Y614399D02*
X726750D01*
X718750Y613949D02*
X726750D01*
X718704Y613499D02*
X726750D01*
X718580Y613049D02*
X726750D01*
X718366Y612599D02*
X726750D01*
X718034Y612149D02*
X726750D01*
X717506Y611699D02*
X726750D01*
X711250Y611249D02*
X726750D01*
X711250Y610799D02*
X726750D01*
X711250Y610349D02*
X726750D01*
X711250Y609899D02*
X726750D01*
X711250Y609449D02*
X726750D01*
X711250Y608999D02*
X726750D01*
X711250Y608549D02*
X726750D01*
X711250Y608099D02*
X726750D01*
X711250Y607649D02*
X726750D01*
X711250Y607199D02*
X726750D01*
X711250Y606749D02*
X726750D01*
X711250Y606299D02*
X726750D01*
X711250Y605849D02*
X726750D01*
X711250Y605399D02*
X726750D01*
X711250Y604949D02*
X726750D01*
X711250Y604499D02*
X726750D01*
X711250Y604049D02*
X726750D01*
X711250Y603599D02*
X726750D01*
X711250Y603149D02*
X726750D01*
X711250Y602699D02*
X726750D01*
X711250Y602249D02*
X726750D01*
X711250Y601799D02*
X726750D01*
X711250Y601349D02*
X726750D01*
X711250Y600899D02*
X726750D01*
X711250Y600449D02*
X726750D01*
X711250Y599999D02*
X726750D01*
X711250Y599549D02*
X726750D01*
X711250Y599099D02*
X726750D01*
X711250Y598649D02*
X726750D01*
X711250Y598199D02*
X726750D01*
X711250Y635099D02*
X726730D01*
X690750Y646349D02*
X718750D01*
X690750Y645899D02*
X718750D01*
X690750Y645449D02*
X718750D01*
X690750Y644999D02*
X718750D01*
X690750Y644549D02*
X718750D01*
X690750Y644099D02*
X718750D01*
X690750Y643649D02*
X718750D01*
X690750Y643199D02*
X718750D01*
X690750Y642749D02*
X718750D01*
X690750Y642299D02*
X718750D01*
X706697Y641849D02*
X718750D01*
X707548Y641399D02*
X718750D01*
X707976Y640949D02*
X718750D01*
X708237Y640499D02*
X718750D01*
X708388Y640049D02*
X718750D01*
X708448Y639599D02*
X718750D01*
X708425Y639149D02*
X718750D01*
X711250Y638699D02*
X718750D01*
X711250Y638249D02*
X718750D01*
X711250Y637799D02*
X718750D01*
X711250Y637349D02*
X718750D01*
X711250Y636899D02*
X718750D01*
X711250Y636449D02*
X718750D01*
X711250Y635999D02*
X718750D01*
X711250Y635549D02*
X718750D01*
X690750Y646799D02*
X718747D01*
X690750Y647249D02*
X718282D01*
X690750Y647699D02*
X717712D01*
X690750Y648149D02*
X717142D01*
X690750Y648599D02*
X716572D01*
X690817Y649049D02*
X716002D01*
X691266Y649499D02*
X715432D01*
X691716Y649949D02*
X714862D01*
X711250Y611699D02*
X714494D01*
X692166Y650399D02*
X714292D01*
X711250Y612149D02*
X713966D01*
X692616Y650849D02*
X713722D01*
X711250Y612599D02*
X713634D01*
X711250Y613049D02*
X713420D01*
X711250Y613499D02*
X713296D01*
X711250Y613949D02*
X713250D01*
X693066Y651299D02*
X713152D01*
X693516Y651749D02*
X712582D01*
X711250Y614399D02*
X712409D01*
X711250Y619349D02*
X712082D01*
X693966Y652199D02*
X712012D01*
X711250Y614849D02*
X711933D01*
X711250Y618899D02*
X711815D01*
X711250Y615299D02*
X711766D01*
X711258Y618449D02*
X711742D01*
X694416Y652649D02*
X711442D01*
X694866Y653099D02*
X710872D01*
X695316Y653549D02*
X710302D01*
X695766Y653999D02*
X709732D01*
X702697Y641849D02*
X705303D01*
X703548Y641399D02*
X704452D01*
X698697Y641849D02*
X701303D01*
X699548Y641399D02*
X700452D01*
X690750Y641849D02*
X697303D01*
X690750Y641399D02*
X696452D01*
X690750Y640949D02*
X696024D01*
X690750Y640499D02*
X695763D01*
X690750Y640049D02*
X695612D01*
X690750Y639149D02*
X695575D01*
X690750Y639599D02*
X695552D01*
X723400Y672699D02*
X750750D01*
X723400Y672249D02*
X750750D01*
X723400Y671799D02*
X750750D01*
X723400Y671349D02*
X750750D01*
X723400Y670899D02*
X750750D01*
X723400Y670449D02*
X750750D01*
X740149Y669999D02*
X750750D01*
X740835Y669549D02*
X750750D01*
X741238Y669099D02*
X750750D01*
X741499Y668649D02*
X750750D01*
X741660Y668199D02*
X750750D01*
X741739Y667749D02*
X750750D01*
X741750Y667299D02*
X750750D01*
X741750Y666849D02*
X750750D01*
X741750Y666399D02*
X750750D01*
X741750Y665949D02*
X750750D01*
X741750Y665499D02*
X750750D01*
X741750Y665049D02*
X750750D01*
X741750Y664599D02*
X750750D01*
X741750Y664149D02*
X750750D01*
X741750Y663699D02*
X750750D01*
X741750Y663249D02*
X750750D01*
X741750Y662799D02*
X750750D01*
X741750Y662349D02*
X750750D01*
X741750Y661899D02*
X750750D01*
X741750Y661449D02*
X750750D01*
X741750Y660999D02*
X750750D01*
X741750Y660549D02*
X750750D01*
X741750Y660099D02*
X750750D01*
X741750Y659649D02*
X750750D01*
X741713Y659199D02*
X750750D01*
X723449Y673149D02*
X750701D01*
X723400Y669999D02*
X737851D01*
X723400Y669549D02*
X737165D01*
X723400Y669099D02*
X736762D01*
X723400Y668649D02*
X736501D01*
X723400Y668199D02*
X736340D01*
X722745Y659199D02*
X736287D01*
X723400Y667749D02*
X736261D01*
X723400Y667299D02*
X736250D01*
X723400Y666849D02*
X736250D01*
X723400Y666399D02*
X736250D01*
X723400Y665949D02*
X736250D01*
X723400Y665499D02*
X736250D01*
X722704Y665049D02*
X736250D01*
X722707Y664599D02*
X736250D01*
X722711Y664149D02*
X736250D01*
X722714Y663699D02*
X736250D01*
X722717Y663249D02*
X736250D01*
X722720Y662799D02*
X736250D01*
X722723Y662349D02*
X736250D01*
X722726Y661899D02*
X736250D01*
X722729Y661449D02*
X736250D01*
X722733Y660999D02*
X736250D01*
X722736Y660549D02*
X736250D01*
X722739Y660099D02*
X736250D01*
X722742Y659649D02*
X736250D01*
X690452Y648599D02*
X691250D01*
X690002Y648149D02*
X691250D01*
X689552Y647699D02*
X691250D01*
X689102Y647249D02*
X691250D01*
X688652Y646799D02*
X691250D01*
X688202Y646349D02*
X691250D01*
X659250Y645899D02*
X691250D01*
X659250Y645449D02*
X691250D01*
X659250Y644999D02*
X691250D01*
X672180Y644549D02*
X691250D01*
X672597Y644099D02*
X691250D01*
X672741Y643649D02*
X691250D01*
X672750Y643199D02*
X691250D01*
X672750Y642749D02*
X691250D01*
X672750Y642299D02*
X691250D01*
X672750Y641849D02*
X691250D01*
X672750Y641399D02*
X691250D01*
X672750Y640949D02*
X691250D01*
X672750Y640499D02*
X691250D01*
X672750Y640049D02*
X691250D01*
X672750Y639599D02*
X691250D01*
X672750Y639149D02*
X691250D01*
X672750Y638699D02*
X688812D01*
X672750Y638249D02*
X688547D01*
X672750Y637799D02*
X688269D01*
X672741Y637349D02*
X688080D01*
X672596Y636899D02*
X687891D01*
X672176Y636449D02*
X687701D01*
X659250Y635999D02*
X687512D01*
X659250Y635549D02*
X687322D01*
X659250Y635099D02*
X687133D01*
X659250Y634649D02*
X686943D01*
X659250Y634199D02*
X686754D01*
X659250Y633749D02*
X686564D01*
X659250Y633299D02*
X686375D01*
X659250Y632849D02*
X686185D01*
X659250Y632399D02*
X685996D01*
X659250Y631949D02*
X685806D01*
X659250Y631499D02*
X685617D01*
X659250Y631049D02*
X685427D01*
X659250Y630599D02*
X685238D01*
X659250Y630149D02*
X685048D01*
X659250Y629699D02*
X684859D01*
X659250Y636449D02*
X667824D01*
X659250Y644549D02*
X667820D01*
X659250Y644099D02*
X667403D01*
X659250Y643649D02*
X667259D01*
X659250Y643199D02*
X667250D01*
X659250Y642749D02*
X667250D01*
X659250Y642299D02*
X667148D01*
X659250Y636899D02*
X665608D01*
X659250Y641849D02*
X665070D01*
X659250Y637349D02*
X664787D01*
X659250Y641399D02*
X664511D01*
X659250Y637799D02*
X664339D01*
X659250Y640949D02*
X664162D01*
X659250Y638249D02*
X664051D01*
X659250Y640499D02*
X663938D01*
X659250Y638699D02*
X663869D01*
X659250Y640049D02*
X663805D01*
X659250Y639149D02*
X663773D01*
X659250Y639599D02*
X663752D01*
X893724Y770749D02*
X894750D01*
X893233Y770299D02*
X894750D01*
X892698Y769849D02*
X894750D01*
X892113Y769399D02*
X894750D01*
X891468Y768949D02*
X894750D01*
X890748Y768499D02*
X894750D01*
X889931Y768049D02*
X894750D01*
X888982Y767599D02*
X894750D01*
X887829Y767149D02*
X894750D01*
X886292Y766699D02*
X894750D01*
X691000Y766249D02*
X894750D01*
X691000Y765799D02*
X894750D01*
X691000Y765349D02*
X894750D01*
X691000Y764899D02*
X894750D01*
X691000Y764449D02*
X894750D01*
X691000Y763999D02*
X894750D01*
X691000Y763549D02*
X894750D01*
X691000Y763099D02*
X894750D01*
X691000Y762649D02*
X894750D01*
X691000Y762199D02*
X894750D01*
X691000Y761749D02*
X894750D01*
X691000Y761299D02*
X894750D01*
X691000Y760849D02*
X894750D01*
X691000Y760399D02*
X894750D01*
X691000Y759949D02*
X894750D01*
X691000Y759499D02*
X894750D01*
X691000Y759049D02*
X894750D01*
X691000Y758599D02*
X894750D01*
X691000Y758149D02*
X894750D01*
X691000Y757699D02*
X894750D01*
X691000Y757249D02*
X894750D01*
X691000Y756799D02*
X894750D01*
X691000Y756349D02*
X894750D01*
X691000Y755899D02*
X894750D01*
X691000Y755449D02*
X894750D01*
X691000Y754999D02*
X894750D01*
X691000Y754549D02*
X894750D01*
X691000Y754099D02*
X894750D01*
X691000Y753649D02*
X894750D01*
X691000Y753199D02*
X894750D01*
X691000Y752749D02*
X894750D01*
X691000Y752299D02*
X894750D01*
X691000Y751849D02*
X894750D01*
X691000Y751399D02*
X894750D01*
X691000Y750949D02*
X894750D01*
X691000Y750499D02*
X894750D01*
X691000Y750049D02*
X894750D01*
X691000Y749599D02*
X894750D01*
X691000Y749149D02*
X894750D01*
X691000Y748699D02*
X894750D01*
X691000Y748249D02*
X894750D01*
X691000Y747799D02*
X894750D01*
X691000Y747349D02*
X894750D01*
X691000Y746899D02*
X894750D01*
X691000Y746449D02*
X894750D01*
X691000Y745999D02*
X894750D01*
X691000Y745549D02*
X894750D01*
X691000Y745099D02*
X894750D01*
X691000Y744649D02*
X894750D01*
X691000Y744199D02*
X894750D01*
X691000Y743749D02*
X894750D01*
X691000Y743299D02*
X894750D01*
X691000Y742849D02*
X894750D01*
X691000Y742399D02*
X894750D01*
X691000Y741949D02*
X894750D01*
X691000Y741499D02*
X894750D01*
X691000Y741049D02*
X894750D01*
X691000Y740599D02*
X894750D01*
X691000Y740149D02*
X894750D01*
X691000Y739699D02*
X894750D01*
X691000Y739249D02*
X894750D01*
X691000Y738799D02*
X894750D01*
X691000Y738349D02*
X894750D01*
X691000Y737899D02*
X894750D01*
X691000Y737449D02*
X894750D01*
X691000Y736999D02*
X894750D01*
X691000Y736549D02*
X894750D01*
X691000Y736099D02*
X894750D01*
X691000Y735649D02*
X894750D01*
X691000Y735199D02*
X894750D01*
X691000Y734749D02*
X894750D01*
X691000Y734299D02*
X894750D01*
X691000Y733849D02*
X894750D01*
X691000Y733399D02*
X894750D01*
X691000Y732949D02*
X894750D01*
X691000Y732499D02*
X894750D01*
X691000Y732049D02*
X894750D01*
X691000Y731599D02*
X894750D01*
X691000Y731149D02*
X894750D01*
X691000Y730699D02*
X894750D01*
X691000Y730249D02*
X894750D01*
X691000Y729799D02*
X894750D01*
X691000Y729349D02*
X894750D01*
X691000Y728899D02*
X894750D01*
X691000Y728449D02*
X894750D01*
X691000Y727999D02*
X894750D01*
X691000Y727549D02*
X894750D01*
X691000Y727099D02*
X894750D01*
X691000Y726649D02*
X894750D01*
X691000Y726199D02*
X894750D01*
X691000Y725749D02*
X894750D01*
X691000Y725299D02*
X894750D01*
X691000Y724849D02*
X894750D01*
X691000Y724399D02*
X894750D01*
X691000Y723949D02*
X894750D01*
X691000Y723499D02*
X894750D01*
X691000Y723049D02*
X894750D01*
X691000Y722599D02*
X894750D01*
X691000Y722149D02*
X894750D01*
X691000Y721699D02*
X894750D01*
X691000Y721249D02*
X894750D01*
X691000Y720799D02*
X894750D01*
X691000Y720349D02*
X894750D01*
X691000Y719899D02*
X894750D01*
X691000Y719449D02*
X894750D01*
X691000Y718999D02*
X894750D01*
X691000Y718549D02*
X894750D01*
X691000Y718099D02*
X894750D01*
X691000Y717649D02*
X894750D01*
X691000Y717199D02*
X894750D01*
X691000Y716749D02*
X894750D01*
X691000Y716299D02*
X894750D01*
X691000Y715849D02*
X894750D01*
X691000Y715399D02*
X894750D01*
X691000Y714949D02*
X894750D01*
X691000Y714499D02*
X894750D01*
X691000Y714049D02*
X894750D01*
X691000Y713599D02*
X894750D01*
X691000Y713149D02*
X894750D01*
X691000Y712699D02*
X894750D01*
X691000Y712249D02*
X894750D01*
X691000Y711799D02*
X894750D01*
X691000Y711349D02*
X894750D01*
X691000Y710899D02*
X894750D01*
X691000Y710449D02*
X894750D01*
X691000Y709999D02*
X894750D01*
X691000Y709549D02*
X894750D01*
X691000Y709099D02*
X894750D01*
X691000Y708649D02*
X894750D01*
X691000Y708199D02*
X894750D01*
X691000Y707749D02*
X894750D01*
X691000Y707299D02*
X894750D01*
X691000Y706849D02*
X894750D01*
X691000Y706399D02*
X894750D01*
X691000Y705949D02*
X894750D01*
X691000Y705499D02*
X894750D01*
X691000Y705049D02*
X894750D01*
X691000Y704599D02*
X894750D01*
X691000Y704149D02*
X894750D01*
X691000Y703699D02*
X894750D01*
X691000Y703249D02*
X894750D01*
X691000Y702799D02*
X894750D01*
X691000Y702349D02*
X894750D01*
X691000Y701899D02*
X894750D01*
X691000Y701449D02*
X894750D01*
X691000Y700999D02*
X894750D01*
X691000Y700549D02*
X894750D01*
X691000Y700099D02*
X894750D01*
X691000Y699649D02*
X894750D01*
X691000Y699199D02*
X894750D01*
X691000Y698749D02*
X894750D01*
X691000Y698299D02*
X894750D01*
X691000Y697849D02*
X894750D01*
X691000Y697399D02*
X894750D01*
X691000Y696949D02*
X894750D01*
X691000Y696499D02*
X894750D01*
X691000Y696049D02*
X894750D01*
X691000Y695599D02*
X894750D01*
X691000Y695149D02*
X894750D01*
X691000Y694699D02*
X894750D01*
X691032Y694249D02*
X894750D01*
X691469Y693799D02*
X894750D01*
X691919Y693349D02*
X894750D01*
X692369Y692899D02*
X894750D01*
X692819Y692449D02*
X894750D01*
X693269Y691999D02*
X894750D01*
X693719Y691549D02*
X894750D01*
X694169Y691099D02*
X894750D01*
X694619Y690649D02*
X894750D01*
X695069Y690199D02*
X894750D01*
X695519Y689749D02*
X894750D01*
X695969Y689299D02*
X894750D01*
X696419Y688849D02*
X894750D01*
X696869Y688399D02*
X894750D01*
X697319Y687949D02*
X894750D01*
X697769Y687499D02*
X894750D01*
X698219Y687049D02*
X894750D01*
X698669Y686599D02*
X894750D01*
X699119Y686149D02*
X894750D01*
X699569Y685699D02*
X894750D01*
X699984Y685249D02*
X894750D01*
X700195Y684799D02*
X894750D01*
X700250Y684349D02*
X894750D01*
X700250Y683899D02*
X894750D01*
X700250Y683449D02*
X894750D01*
X700250Y682999D02*
X894750D01*
X700250Y682549D02*
X894750D01*
X700250Y682099D02*
X894750D01*
X700250Y681649D02*
X894750D01*
X700250Y681199D02*
X894750D01*
X700250Y680749D02*
X894750D01*
X700250Y680299D02*
X894750D01*
X700250Y679849D02*
X894750D01*
X700250Y679399D02*
X894750D01*
X700250Y678949D02*
X894750D01*
X700250Y678499D02*
X894750D01*
X700250Y678049D02*
X894750D01*
X700250Y677599D02*
X894750D01*
X700250Y677149D02*
X894750D01*
X700250Y676699D02*
X894750D01*
X700250Y676249D02*
X894750D01*
X700250Y675799D02*
X894750D01*
X700250Y675349D02*
X894750D01*
X700250Y674899D02*
X894750D01*
X751652Y674449D02*
X894750D01*
X752050Y673999D02*
X894750D01*
X752220Y673549D02*
X894750D01*
X752250Y673099D02*
X894750D01*
X752250Y672649D02*
X894750D01*
X752250Y672199D02*
X894750D01*
X752250Y671749D02*
X894750D01*
X752250Y671299D02*
X894750D01*
X752250Y670849D02*
X894750D01*
X752250Y670399D02*
X894750D01*
X752250Y669949D02*
X894750D01*
X752250Y669499D02*
X894750D01*
X752250Y669049D02*
X894750D01*
X752250Y668599D02*
X894750D01*
X752250Y668149D02*
X894750D01*
X752250Y667699D02*
X894750D01*
X752250Y667249D02*
X894750D01*
X752250Y666799D02*
X894750D01*
X752250Y666349D02*
X894750D01*
X752250Y665899D02*
X894750D01*
X752250Y665449D02*
X894750D01*
X752250Y664999D02*
X894750D01*
X752250Y664549D02*
X894750D01*
X752250Y664099D02*
X894750D01*
X752250Y663649D02*
X894750D01*
X752250Y663199D02*
X894750D01*
X752250Y662749D02*
X894750D01*
X752250Y662299D02*
X894750D01*
X752250Y661849D02*
X894750D01*
X752250Y661399D02*
X894750D01*
X752250Y660949D02*
X894750D01*
X752250Y660499D02*
X894750D01*
X752250Y660049D02*
X894750D01*
X752250Y659599D02*
X894750D01*
X752250Y659149D02*
X894750D01*
X752249Y658699D02*
X894750D01*
X752164Y658249D02*
X894750D01*
X751910Y657799D02*
X894750D01*
X751285Y657349D02*
X894750D01*
X700250Y656899D02*
X894750D01*
X831572Y656449D02*
X894750D01*
X832413Y655999D02*
X894750D01*
X832961Y655549D02*
X894750D01*
X833363Y655099D02*
X894750D01*
X833667Y654649D02*
X894750D01*
X833896Y654199D02*
X894750D01*
X834062Y653749D02*
X894750D01*
X834174Y653299D02*
X894750D01*
X834236Y652849D02*
X894750D01*
X834249Y652399D02*
X894750D01*
X834214Y651949D02*
X894750D01*
X834130Y651499D02*
X894750D01*
X833995Y651049D02*
X894750D01*
X833801Y650599D02*
X894750D01*
X833540Y650149D02*
X894750D01*
X833196Y649699D02*
X894750D01*
X832737Y649249D02*
X894750D01*
X832089Y648799D02*
X894750D01*
X830911Y648349D02*
X894750D01*
X719850Y647899D02*
X894750D01*
X720138Y647449D02*
X894750D01*
X720245Y646999D02*
X894750D01*
X720250Y646549D02*
X894750D01*
X720250Y646099D02*
X894750D01*
X720250Y645649D02*
X894750D01*
X720250Y645199D02*
X894750D01*
X720250Y644749D02*
X894750D01*
X720250Y644299D02*
X894750D01*
X720250Y643849D02*
X894750D01*
X720250Y643399D02*
X894750D01*
X720250Y642949D02*
X894750D01*
X720250Y642499D02*
X894750D01*
X720250Y642049D02*
X894750D01*
X720250Y641599D02*
X894750D01*
X720250Y641149D02*
X894750D01*
X720250Y640699D02*
X894750D01*
X720250Y640249D02*
X894750D01*
X720250Y639799D02*
X894750D01*
X720250Y639349D02*
X894750D01*
X720250Y638899D02*
X894750D01*
X720250Y638449D02*
X894750D01*
X720250Y637999D02*
X894750D01*
X720250Y637549D02*
X894750D01*
X720250Y637099D02*
X894750D01*
X727292Y636649D02*
X894750D01*
X727912Y636199D02*
X894750D01*
X728165Y635749D02*
X894750D01*
X728249Y635299D02*
X894750D01*
X728250Y634849D02*
X894750D01*
X728250Y634399D02*
X894750D01*
X728250Y633949D02*
X894750D01*
X728250Y633499D02*
X894750D01*
X728250Y633049D02*
X894750D01*
X728250Y632599D02*
X894750D01*
X728250Y632149D02*
X894750D01*
X728250Y631699D02*
X894750D01*
X728250Y631249D02*
X894750D01*
X728250Y630799D02*
X894750D01*
X728250Y630349D02*
X894750D01*
X728250Y629899D02*
X894750D01*
X728250Y629449D02*
X894750D01*
X728250Y628999D02*
X894750D01*
X728250Y628549D02*
X894750D01*
X728250Y628099D02*
X894750D01*
X728250Y627649D02*
X894750D01*
X728250Y627199D02*
X894750D01*
X728250Y626749D02*
X894750D01*
X728250Y626299D02*
X894750D01*
X728250Y625849D02*
X894750D01*
X728250Y625399D02*
X894750D01*
X728250Y624949D02*
X894750D01*
X728250Y624499D02*
X894750D01*
X728250Y624049D02*
X894750D01*
X728250Y623599D02*
X894750D01*
X728250Y623149D02*
X894750D01*
X728250Y622699D02*
X894750D01*
X728250Y622249D02*
X894750D01*
X728250Y621799D02*
X894750D01*
X728250Y621349D02*
X894750D01*
X728250Y620899D02*
X894750D01*
X728250Y620449D02*
X894750D01*
X728250Y619999D02*
X894750D01*
X728250Y619549D02*
X894750D01*
X728250Y619099D02*
X894750D01*
X728250Y618649D02*
X894750D01*
X728250Y618199D02*
X894750D01*
X728250Y617749D02*
X894750D01*
X728250Y617299D02*
X894750D01*
X728250Y616849D02*
X894750D01*
X728250Y616399D02*
X894750D01*
X728250Y615949D02*
X894750D01*
X728250Y615499D02*
X894750D01*
X728250Y615049D02*
X894750D01*
X728250Y614599D02*
X894750D01*
X728250Y614149D02*
X894750D01*
X728250Y613699D02*
X894750D01*
X728250Y613249D02*
X894750D01*
X728250Y612799D02*
X894750D01*
X728250Y612349D02*
X894750D01*
X728250Y611899D02*
X894750D01*
X728250Y611449D02*
X894750D01*
X728250Y610999D02*
X894750D01*
X728250Y610549D02*
X894750D01*
X728250Y610099D02*
X894750D01*
X728250Y609649D02*
X894750D01*
X728250Y609199D02*
X894750D01*
X870153Y608749D02*
X894750D01*
X872774Y608299D02*
X894750D01*
X873868Y607849D02*
X894750D01*
X874671Y607399D02*
X894750D01*
X875318Y606949D02*
X894750D01*
X875859Y606499D02*
X894750D01*
X876323Y606049D02*
X894750D01*
X876724Y605599D02*
X894750D01*
X877075Y605149D02*
X894750D01*
X877381Y604699D02*
X894750D01*
X877649Y604249D02*
X894750D01*
X877882Y603799D02*
X894750D01*
X878084Y603349D02*
X894750D01*
X878256Y602899D02*
X894750D01*
X878400Y602449D02*
X894750D01*
X878519Y601999D02*
X894750D01*
X878612Y601549D02*
X894750D01*
X878681Y601099D02*
X894750D01*
X878726Y600649D02*
X894750D01*
X878748Y600199D02*
X894750D01*
X878746Y599749D02*
X894750D01*
X878722Y599299D02*
X894750D01*
X878674Y598849D02*
X894750D01*
X878602Y598399D02*
X894750D01*
X878506Y597949D02*
X894750D01*
X878385Y597499D02*
X894750D01*
X878237Y597049D02*
X894750D01*
X878062Y596599D02*
X894750D01*
X877857Y596149D02*
X894750D01*
X877620Y595699D02*
X894750D01*
X877348Y595249D02*
X894750D01*
X877036Y594799D02*
X894750D01*
X876680Y594349D02*
X894750D01*
X876272Y593899D02*
X894750D01*
X875800Y593449D02*
X894750D01*
X875248Y592999D02*
X894750D01*
X874587Y592549D02*
X894750D01*
X873759Y592099D02*
X894750D01*
X872611Y591649D02*
X894750D01*
X711250Y591199D02*
X894750D01*
X711250Y590749D02*
X894750D01*
X711250Y590299D02*
X894750D01*
X711250Y589849D02*
X894750D01*
X711250Y589399D02*
X894750D01*
X711250Y588949D02*
X894750D01*
X711250Y588499D02*
X894750D01*
X711250Y588049D02*
X894750D01*
X711250Y587599D02*
X894750D01*
X711250Y587149D02*
X894750D01*
X711250Y586699D02*
X894750D01*
X711250Y586249D02*
X894750D01*
X711250Y585799D02*
X894750D01*
X711250Y585349D02*
X894750D01*
X711250Y584899D02*
X894750D01*
X711250Y584449D02*
X894750D01*
X711250Y583999D02*
X894750D01*
X711250Y583549D02*
X894750D01*
X711250Y583099D02*
X894750D01*
X711250Y582649D02*
X894750D01*
X711250Y582199D02*
X894750D01*
X711250Y581749D02*
X894750D01*
X711250Y581299D02*
X894750D01*
X711250Y580849D02*
X894750D01*
X711250Y580399D02*
X894750D01*
X711250Y579949D02*
X894750D01*
X711250Y579499D02*
X894750D01*
X711250Y579049D02*
X894750D01*
X711250Y578599D02*
X894750D01*
X711250Y578149D02*
X894750D01*
X711250Y577699D02*
X894750D01*
X872955Y577249D02*
X894750D01*
X874905Y576799D02*
X894750D01*
X876243Y576349D02*
X894750D01*
X877313Y575899D02*
X894750D01*
X878221Y575449D02*
X894750D01*
X879016Y574999D02*
X894750D01*
X879726Y574549D02*
X894750D01*
X880367Y574099D02*
X894750D01*
X880953Y573649D02*
X894750D01*
X881491Y573199D02*
X894750D01*
X881988Y572749D02*
X894750D01*
X882450Y572299D02*
X894750D01*
X882879Y571849D02*
X894750D01*
X883279Y571399D02*
X894750D01*
X883652Y570949D02*
X894750D01*
X884001Y570499D02*
X894750D01*
X884327Y570049D02*
X894750D01*
X884633Y569599D02*
X894750D01*
X884918Y569149D02*
X894750D01*
X885185Y568699D02*
X894750D01*
X885434Y568249D02*
X894750D01*
X885666Y567799D02*
X894750D01*
X885882Y567349D02*
X894750D01*
X886083Y566899D02*
X894750D01*
X886269Y566449D02*
X894750D01*
X886440Y565999D02*
X894750D01*
X886597Y565549D02*
X894750D01*
X886741Y565099D02*
X894750D01*
X886871Y564649D02*
X894750D01*
X886989Y564199D02*
X894750D01*
X887094Y563749D02*
X894750D01*
X887186Y563299D02*
X894750D01*
X887267Y562849D02*
X894750D01*
X887335Y562399D02*
X894750D01*
X887391Y561949D02*
X894750D01*
X887436Y561499D02*
X894750D01*
X887469Y561049D02*
X894750D01*
X887490Y560599D02*
X894750D01*
X887499Y560149D02*
X894750D01*
X887497Y559699D02*
X894750D01*
X887484Y559249D02*
X894750D01*
X887459Y558799D02*
X894750D01*
X887422Y558349D02*
X894750D01*
X887373Y557899D02*
X894750D01*
X887313Y557449D02*
X894750D01*
X887241Y556999D02*
X894750D01*
X887156Y556549D02*
X894750D01*
X887060Y556099D02*
X894750D01*
X886950Y555649D02*
X894750D01*
X886828Y555199D02*
X894750D01*
X886694Y554749D02*
X894750D01*
X886545Y554299D02*
X894750D01*
X886383Y553849D02*
X894750D01*
X886207Y553399D02*
X894750D01*
X886017Y552949D02*
X894750D01*
X885811Y552499D02*
X894750D01*
X885589Y552049D02*
X894750D01*
X885352Y551599D02*
X894750D01*
X885097Y551149D02*
X894750D01*
X884824Y550699D02*
X894750D01*
X884531Y550249D02*
X894750D01*
X884219Y549799D02*
X894750D01*
X883885Y549349D02*
X894750D01*
X883528Y548899D02*
X894750D01*
X883146Y548449D02*
X894750D01*
X882737Y547999D02*
X894750D01*
X882297Y547549D02*
X894750D01*
X881824Y547099D02*
X894750D01*
X881313Y546649D02*
X894750D01*
X880760Y546199D02*
X894750D01*
X880156Y545749D02*
X894750D01*
X879493Y545299D02*
X894750D01*
X878757Y544849D02*
X894750D01*
X877928Y544399D02*
X894750D01*
X876972Y543949D02*
X894750D01*
X875827Y543499D02*
X894750D01*
X874348Y543049D02*
X894750D01*
X871856Y542599D02*
X894750D01*
X711250Y542149D02*
X894750D01*
X711250Y541699D02*
X894750D01*
X711250Y541249D02*
X894750D01*
X711250Y540799D02*
X894750D01*
X711250Y540349D02*
X894750D01*
X711250Y539899D02*
X894750D01*
X711250Y539449D02*
X894750D01*
X711250Y538999D02*
X894750D01*
X711250Y538549D02*
X894750D01*
X711250Y538099D02*
X894750D01*
X711250Y537649D02*
X894750D01*
X711250Y537199D02*
X894750D01*
X711250Y536749D02*
X894750D01*
X711250Y536299D02*
X894750D01*
X711250Y535849D02*
X894750D01*
X711250Y535399D02*
X894750D01*
X711250Y534949D02*
X894750D01*
X711250Y534499D02*
X894750D01*
X711250Y534049D02*
X894750D01*
X884713Y533599D02*
X894750D01*
X886880Y533149D02*
X894750D01*
X888250Y532699D02*
X894750D01*
X889322Y532249D02*
X894750D01*
X890221Y531799D02*
X894750D01*
X891002Y531349D02*
X894750D01*
X891694Y530899D02*
X894750D01*
X892318Y530449D02*
X894750D01*
X892885Y529999D02*
X894750D01*
X893404Y529549D02*
X894750D01*
X893881Y529099D02*
X894750D01*
X894177Y771199D02*
X894749D01*
X894323Y528649D02*
X894677D01*
X711250Y533599D02*
X880287D01*
X691000Y766699D02*
X878708D01*
X711250Y533149D02*
X878120D01*
X691000Y767149D02*
X877171D01*
X711250Y532699D02*
X876750D01*
X691000Y767599D02*
X876018D01*
X711250Y532249D02*
X875678D01*
X691000Y768049D02*
X875069D01*
X711250Y531799D02*
X874779D01*
X691000Y768499D02*
X874252D01*
X711250Y531349D02*
X873998D01*
X691000Y768949D02*
X873532D01*
X711250Y530899D02*
X873306D01*
X691000Y769399D02*
X872887D01*
X711250Y530449D02*
X872682D01*
X691000Y769849D02*
X872302D01*
X711250Y529999D02*
X872115D01*
X691000Y770299D02*
X871767D01*
X711250Y529549D02*
X871596D01*
X860433Y794599D02*
X871405D01*
X711250Y505699D02*
X871329D01*
X691000Y770749D02*
X871276D01*
X860717Y794149D02*
X871170D01*
X711250Y529099D02*
X871119D01*
X711250Y506149D02*
X870872D01*
X691000Y771199D02*
X870823D01*
X861226Y793699D02*
X870725D01*
X711250Y528649D02*
X870678D01*
X711250Y506599D02*
X870449D01*
X691000Y771649D02*
X870404D01*
X861624Y793249D02*
X870313D01*
X711250Y528199D02*
X870269D01*
X711250Y507049D02*
X870057D01*
X691000Y772099D02*
X870015D01*
X861942Y792799D02*
X869930D01*
X711250Y527749D02*
X869889D01*
X728250Y608749D02*
X869847D01*
X711250Y507499D02*
X869692D01*
X691000Y772549D02*
X869653D01*
X862195Y792349D02*
X869575D01*
X711250Y527299D02*
X869537D01*
X711250Y507949D02*
X869353D01*
X691000Y772999D02*
X869317D01*
X862395Y791899D02*
X869244D01*
X711250Y526849D02*
X869208D01*
X711250Y508399D02*
X869038D01*
X691000Y773449D02*
X869004D01*
X862546Y791449D02*
X868936D01*
X711250Y526399D02*
X868903D01*
X711250Y508849D02*
X868744D01*
X691000Y773899D02*
X868713D01*
X862654Y790999D02*
X868650D01*
X711250Y525949D02*
X868619D01*
X711250Y509299D02*
X868471D01*
X691000Y774349D02*
X868442D01*
X862721Y790549D02*
X868383D01*
X711250Y525499D02*
X868355D01*
X711250Y509749D02*
X868218D01*
X691000Y774799D02*
X868191D01*
X711250Y542599D02*
X868144D01*
X862749Y790099D02*
X868136D01*
X711250Y525049D02*
X868110D01*
X711250Y510199D02*
X867983D01*
X691000Y775249D02*
X867958D01*
X862738Y789649D02*
X867907D01*
X711250Y524599D02*
X867882D01*
X711250Y510649D02*
X867765D01*
X691000Y775699D02*
X867742D01*
X862689Y789199D02*
X867695D01*
X711250Y524149D02*
X867672D01*
X711250Y511099D02*
X867564D01*
X691000Y776149D02*
X867543D01*
X862599Y788749D02*
X867499D01*
X711250Y523699D02*
X867479D01*
X711250Y591649D02*
X867389D01*
X711250Y511549D02*
X867379D01*
X691000Y776599D02*
X867359D01*
X862467Y788299D02*
X867320D01*
X711250Y523249D02*
X867301D01*
X728250Y608299D02*
X867226D01*
X711250Y511999D02*
X867210D01*
X691000Y777049D02*
X867192D01*
X862289Y787849D02*
X867155D01*
X711250Y522799D02*
X867138D01*
X711250Y512449D02*
X867055D01*
X711250Y577249D02*
X867045D01*
X691000Y777499D02*
X867039D01*
X862060Y787399D02*
X867006D01*
X711250Y522349D02*
X866990D01*
X711250Y512899D02*
X866915D01*
X691000Y777949D02*
X866900D01*
X861772Y786949D02*
X866871D01*
X711250Y521899D02*
X866857D01*
X711250Y513349D02*
X866789D01*
X691000Y778399D02*
X866776D01*
X861412Y786499D02*
X866750D01*
X711250Y521449D02*
X866737D01*
X711250Y513799D02*
X866677D01*
X691000Y778849D02*
X866666D01*
X860957Y786049D02*
X866642D01*
X711250Y520999D02*
X866631D01*
X711250Y514249D02*
X866579D01*
X691000Y779299D02*
X866568D01*
X860362Y785599D02*
X866548D01*
X711250Y520549D02*
X866539D01*
X711250Y514699D02*
X866493D01*
X691000Y779749D02*
X866485D01*
X859507Y785149D02*
X866467D01*
X711250Y520099D02*
X866459D01*
X711250Y515149D02*
X866421D01*
X691000Y780199D02*
X866414D01*
X691000Y784699D02*
X866399D01*
X711250Y519649D02*
X866393D01*
X711250Y515599D02*
X866362D01*
X691000Y780649D02*
X866356D01*
X691000Y784249D02*
X866344D01*
X711250Y519199D02*
X866339D01*
X711250Y516049D02*
X866315D01*
X691000Y781099D02*
X866311D01*
X691000Y783799D02*
X866302D01*
X711250Y518749D02*
X866298D01*
X711250Y516499D02*
X866281D01*
X691000Y781549D02*
X866278D01*
X691000Y783349D02*
X866272D01*
X711250Y518299D02*
X866270D01*
X711250Y516949D02*
X866259D01*
X691000Y781999D02*
X866258D01*
X691000Y782899D02*
X866255D01*
X711250Y517849D02*
X866254D01*
X711250Y517399D02*
X866250D01*
X691000Y782449D02*
X866250D01*
X711250Y592099D02*
X866241D01*
X728250Y607849D02*
X866132D01*
X711250Y543049D02*
X865652D01*
X711250Y592549D02*
X865413D01*
X728250Y607399D02*
X865329D01*
X711250Y576799D02*
X865095D01*
X711250Y592999D02*
X864752D01*
X728250Y606949D02*
X864682D01*
X711250Y593449D02*
X864200D01*
X711250Y543499D02*
X864173D01*
X728250Y606499D02*
X864141D01*
X711250Y576349D02*
X863757D01*
X711250Y593899D02*
X863728D01*
X728250Y606049D02*
X863677D01*
X711250Y594349D02*
X863320D01*
X728250Y605599D02*
X863276D01*
X711250Y543949D02*
X863028D01*
X711250Y594799D02*
X862964D01*
X728250Y605149D02*
X862925D01*
X711250Y575899D02*
X862687D01*
X711250Y595249D02*
X862652D01*
X728250Y604699D02*
X862619D01*
X711250Y595699D02*
X862380D01*
X728250Y604249D02*
X862351D01*
X711299Y596149D02*
X862143D01*
X728250Y603799D02*
X862118D01*
X711250Y544399D02*
X862072D01*
X727712Y596599D02*
X861938D01*
X728250Y603349D02*
X861916D01*
X711250Y575449D02*
X861779D01*
X728076Y597049D02*
X861763D01*
X728250Y602899D02*
X861744D01*
X728229Y597499D02*
X861615D01*
X728250Y602449D02*
X861600D01*
X728250Y597949D02*
X861494D01*
X728250Y601999D02*
X861481D01*
X728250Y598399D02*
X861398D01*
X728250Y601549D02*
X861388D01*
X728250Y598849D02*
X861326D01*
X728250Y601099D02*
X861319D01*
X728250Y599299D02*
X861278D01*
X728250Y600649D02*
X861274D01*
X728250Y599749D02*
X861254D01*
X728250Y600199D02*
X861252D01*
X711250Y544849D02*
X861243D01*
X711250Y574999D02*
X860984D01*
X711250Y545299D02*
X860507D01*
X711250Y574549D02*
X860274D01*
X711250Y545749D02*
X859844D01*
X711250Y574099D02*
X859633D01*
X711250Y546199D02*
X859240D01*
X711250Y573649D02*
X859047D01*
X711250Y546649D02*
X858687D01*
X711250Y573199D02*
X858509D01*
X711250Y547099D02*
X858176D01*
X711250Y572749D02*
X858012D01*
X711250Y547549D02*
X857703D01*
X711250Y572299D02*
X857550D01*
X711250Y547999D02*
X857263D01*
X711250Y571849D02*
X857121D01*
X711250Y548449D02*
X856854D01*
X711250Y571399D02*
X856721D01*
X711250Y548899D02*
X856472D01*
X711250Y570949D02*
X856348D01*
X711250Y549349D02*
X856115D01*
X711250Y570499D02*
X855999D01*
X711250Y549799D02*
X855781D01*
X711250Y570049D02*
X855673D01*
X691000Y785149D02*
X855493D01*
X711250Y550249D02*
X855469D01*
X711250Y569599D02*
X855367D01*
X711250Y550699D02*
X855176D01*
X711250Y569149D02*
X855082D01*
X711250Y551149D02*
X854903D01*
X711250Y568699D02*
X854815D01*
X711250Y551599D02*
X854648D01*
X691000Y785599D02*
X854638D01*
X691002Y794599D02*
X854567D01*
X711250Y568249D02*
X854566D01*
X711250Y552049D02*
X854411D01*
X711250Y567799D02*
X854334D01*
X691000Y794149D02*
X854283D01*
X711250Y552499D02*
X854189D01*
X711250Y567349D02*
X854118D01*
X691000Y786049D02*
X854043D01*
X711250Y552949D02*
X853983D01*
X711250Y566899D02*
X853917D01*
X711250Y553399D02*
X853793D01*
X691000Y793699D02*
X853774D01*
X711250Y566449D02*
X853731D01*
X711250Y553849D02*
X853617D01*
X691000Y786499D02*
X853588D01*
X711250Y565999D02*
X853560D01*
X711250Y554299D02*
X853455D01*
X711250Y565549D02*
X853403D01*
X691000Y793249D02*
X853376D01*
X711250Y554749D02*
X853306D01*
X711250Y565099D02*
X853259D01*
X691000Y786949D02*
X853228D01*
X711250Y555199D02*
X853172D01*
X711250Y564649D02*
X853129D01*
X691000Y792799D02*
X853058D01*
X711250Y555649D02*
X853050D01*
X711250Y564199D02*
X853011D01*
X711250Y556099D02*
X852940D01*
X691000Y787399D02*
X852940D01*
X711250Y563749D02*
X852906D01*
X711250Y556549D02*
X852844D01*
X711250Y563299D02*
X852814D01*
X691000Y792349D02*
X852805D01*
X711250Y556999D02*
X852759D01*
X711250Y562849D02*
X852733D01*
X691000Y787849D02*
X852711D01*
X711250Y557449D02*
X852687D01*
X711250Y562399D02*
X852665D01*
X711250Y557899D02*
X852627D01*
X711250Y561949D02*
X852609D01*
X691000Y791899D02*
X852605D01*
X711250Y558349D02*
X852578D01*
X711250Y561499D02*
X852564D01*
X711250Y558799D02*
X852541D01*
X691000Y788299D02*
X852533D01*
X711250Y561049D02*
X852531D01*
X711250Y559249D02*
X852516D01*
X711250Y560599D02*
X852510D01*
X711250Y559699D02*
X852503D01*
X711250Y560149D02*
X852501D01*
X691000Y791449D02*
X852454D01*
X691000Y788749D02*
X852401D01*
X691000Y790999D02*
X852346D01*
X691000Y789199D02*
X852311D01*
X691000Y790549D02*
X852279D01*
X691000Y789649D02*
X852262D01*
X691000Y790099D02*
X852251D01*
X719309Y648349D02*
X829089D01*
X700250Y656449D02*
X828428D01*
X718739Y648799D02*
X827911D01*
X700250Y655999D02*
X827587D01*
X718169Y649249D02*
X827263D01*
X710164Y655549D02*
X827039D01*
X717599Y649699D02*
X826804D01*
X710759Y655099D02*
X826637D01*
X717029Y650149D02*
X826460D01*
X711329Y654649D02*
X826333D01*
X716459Y650599D02*
X826199D01*
X711899Y654199D02*
X826104D01*
X715889Y651049D02*
X826005D01*
X712469Y653749D02*
X825938D01*
X715319Y651499D02*
X825870D01*
X713039Y653299D02*
X825826D01*
X714749Y651949D02*
X825786D01*
X713609Y652849D02*
X825764D01*
X714179Y652399D02*
X825751D01*
X700250Y674449D02*
X722510D01*
X700250Y657349D02*
X722213D01*
X700250Y673999D02*
X722112D01*
X700250Y673549D02*
X721942D01*
X700250Y673099D02*
X721900D01*
X700250Y672649D02*
X721900D01*
X700250Y672199D02*
X721900D01*
X700250Y671749D02*
X721900D01*
X700250Y671299D02*
X721900D01*
X700250Y670849D02*
X721900D01*
X700250Y670399D02*
X721900D01*
X700250Y669949D02*
X721900D01*
X700250Y669499D02*
X721900D01*
X700250Y669049D02*
X721900D01*
X700250Y668599D02*
X721900D01*
X700250Y668149D02*
X721900D01*
X700250Y667699D02*
X721900D01*
X700250Y667249D02*
X721900D01*
X700250Y666799D02*
X721900D01*
X700250Y657799D02*
X721588D01*
X700250Y666349D02*
X721540D01*
X700250Y658249D02*
X721334D01*
X700250Y665899D02*
X721287D01*
X700250Y658699D02*
X721249D01*
X700544Y659149D02*
X721245D01*
X700778Y659599D02*
X721242D01*
X700908Y660049D02*
X721239D01*
X700950Y660499D02*
X721236D01*
X700909Y660949D02*
X721233D01*
X700779Y661399D02*
X721230D01*
X700545Y661849D02*
X721227D01*
X700250Y662299D02*
X721223D01*
X700250Y662749D02*
X721220D01*
X700250Y663199D02*
X721217D01*
X700250Y663649D02*
X721214D01*
X700250Y664099D02*
X721211D01*
X700250Y664549D02*
X721208D01*
X700250Y664999D02*
X721205D01*
X700250Y665449D02*
X721203D01*
G54D26*
X500000Y500000D02*
X900000D01*
Y800000*
X500000*
Y500000*
G54D75*
X716000Y617000D02*
Y614000D01*
X666500Y639500D02*
X670000D01*
Y640500*
X688000Y682500D02*
X693500D01*
X739000Y662500D02*
Y667500D01*
G54D77*
X676500Y608000D03*
Y612000D03*
X681000Y608000D03*
X672000Y612000D03*
X681000D03*
X685500Y608000D03*
Y612000D03*
X695500Y600000D03*
X672000Y608000D03*
X690500Y600000D03*
X676500Y596000D03*
X672000Y604000D03*
X690500Y612000D03*
X695500D03*
X676500Y604000D03*
X695500D03*
X690500D03*
X681000Y596000D03*
Y604000D03*
X685500D03*
X690500Y596000D03*
Y608000D03*
X695500D03*
Y596000D03*
X685500D03*
X672000Y618000D03*
Y596000D03*
X676500Y618000D03*
X672000Y600000D03*
X681000Y618000D03*
X685500D03*
Y600000D03*
X689000Y618000D03*
X676500Y600000D03*
X681000D03*
X716000Y614000D03*
X725500Y614500D03*
X716500Y609500D03*
X725500D03*
X721500D03*
Y614500D03*
Y619000D03*
X725500D03*
X700500Y600000D03*
Y612000D03*
X705500D03*
X700500Y604000D03*
X705500Y608000D03*
Y604000D03*
Y600000D03*
Y596000D03*
X700500Y608000D03*
Y596000D03*
X656000Y655000D03*
Y659000D03*
X651500Y655000D03*
Y659000D03*
X666500Y639500D03*
X684500Y635500D03*
X683500Y631500D03*
X680000Y635500D03*
Y631500D03*
X661500Y643000D03*
Y639500D03*
X665500Y635500D03*
X661500D03*
Y631500D03*
X665500D03*
X670000Y635000D03*
Y631500D03*
X675000D03*
Y635500D03*
X696500Y651500D03*
Y648500D03*
X689000Y632000D03*
X672000Y624000D03*
X676500D03*
X681000D03*
X689000Y628500D03*
X685500Y624000D03*
X689000D03*
X664500Y655000D03*
X660000D03*
X664500Y659000D03*
X660000D03*
X706000Y639500D03*
X702000D03*
X698000D03*
X734500Y631500D03*
Y624000D03*
Y635500D03*
X731000Y624000D03*
Y635500D03*
Y627500D03*
Y631500D03*
X734500Y627500D03*
X700000Y651500D03*
X703500D03*
Y648500D03*
X700000D03*
X725000Y629000D03*
Y633000D03*
X725500Y624000D03*
X721000D03*
Y629000D03*
Y633000D03*
X752000Y644000D03*
X760000Y640000D03*
Y627500D03*
X744000Y624000D03*
X756000Y644000D03*
X748000Y624000D03*
X756000D03*
X760000Y635500D03*
X744000Y631500D03*
X748000Y635500D03*
X752000Y640000D03*
X756000Y648500D03*
X739000Y624000D03*
X747500Y653000D03*
X752000Y624000D03*
X744000Y640000D03*
Y653000D03*
X739000Y631500D03*
X751500Y653000D03*
X756000Y640000D03*
X744000Y648500D03*
X748000Y631500D03*
X760000Y624000D03*
Y644000D03*
X752000Y635500D03*
X760000Y631500D03*
X748000Y627500D03*
X756000Y635500D03*
X748000Y640000D03*
X752000Y648500D03*
X756000Y627500D03*
X744000Y635500D03*
X752000Y631500D03*
X744000Y644000D03*
Y627500D03*
X760000Y648500D03*
X748000D03*
X759500Y653000D03*
X739000Y635500D03*
X755500Y653000D03*
X739000Y627500D03*
X756000Y631500D03*
X748000Y644000D03*
X752000Y627500D03*
X656000Y663500D03*
Y681000D03*
Y676500D03*
Y671500D03*
Y667500D03*
Y685500D03*
X651500Y663500D03*
Y681000D03*
Y676500D03*
Y671500D03*
Y667500D03*
Y685500D03*
X688000Y682500D03*
X688500Y666500D03*
X665000Y681000D03*
X660000D03*
X675000D03*
X680000Y685500D03*
Y681000D03*
X675000Y685500D03*
X660000Y676500D03*
X670000Y685500D03*
X665000Y676500D03*
Y685500D03*
X670000Y676500D03*
X660000Y685500D03*
X675000Y676500D03*
X680000D03*
X660000Y671500D03*
X664500Y663500D03*
X660000D03*
Y667500D03*
X664500D03*
X665000Y671500D03*
X684500Y676500D03*
X685000Y671500D03*
X680000D03*
X675000D03*
X670000D03*
X684000Y681000D03*
X675000Y667500D03*
X684000Y685500D03*
X680000Y667500D03*
X685000D03*
X688500Y671500D03*
Y676500D03*
X670000Y681000D03*
Y667500D03*
X698500Y660500D03*
X702000Y663000D03*
X708000Y687000D03*
X713500Y662000D03*
X720500Y676500D03*
X718000Y695000D03*
X736500Y687000D03*
X724000Y691000D03*
X720500Y667500D03*
X718000Y699000D03*
X724000Y687000D03*
X720500Y671500D03*
X736500Y699000D03*
X732500Y687000D03*
Y695000D03*
X713000Y687000D03*
X717000Y662500D03*
X728000Y695000D03*
X713000D03*
X708000Y699000D03*
X728000Y687000D03*
X732500Y699000D03*
X724000Y695000D03*
X728000Y691000D03*
X713000D03*
X703000Y699000D03*
Y687000D03*
X708000Y695000D03*
X718000Y687000D03*
X728000Y681500D03*
X710000Y662000D03*
X703000Y691000D03*
X736500Y681500D03*
X724500Y676500D03*
X724000Y681500D03*
Y699000D03*
X720500Y681500D03*
X728000Y699000D03*
X732500Y691000D03*
X736500Y676500D03*
Y691000D03*
X728500Y676500D03*
X732500Y681500D03*
X708000Y691000D03*
X732500Y676500D03*
X718000Y691000D03*
X703000Y695000D03*
X736500D03*
X713000Y699000D03*
X729000Y671500D03*
X734000D03*
X724500D03*
X729000Y667500D03*
X733500D03*
X724500D03*
X739000D03*
X747500Y671500D03*
X739500D03*
X744000D03*
Y666500D03*
X747500D03*
X744000Y662500D03*
X747500D03*
X703000Y703500D03*
X718000D03*
X728000D03*
X708000D03*
X736500D03*
X713000D03*
X732500D03*
X724000D03*
G54D95*
G54D219*
X520500Y650000D03*
G54D236*
X517500Y782500D03*
Y517500D03*
X882500D03*
Y782500D03*
G54D311*
X703000Y619000D03*
X677500Y649000D03*
Y658000D03*
Y653500D03*
X669500D03*
Y649000D03*
X731500Y654000D03*
Y645000D03*
Y649500D03*
X722500D03*
X699000Y624500D03*
X707500D03*
X703000Y629500D03*
Y624500D03*
X739500Y649500D03*
Y654000D03*
X706500Y667500D03*
X710500Y675000D03*
X701500D03*
X706500Y682000D03*
Y675000D03*
G54D369*
X538200Y650000D03*
G54D390*
X530000Y740000D03*
Y560000D03*
X870000Y740000D03*
Y560000D03*
G54D397*
X724000Y662500D03*
X729000D03*
X734000D03*
X739000D03*
Y640500D03*
X734000D03*
X729000D03*
X724000D03*
X685000D03*
X680000D03*
X675000D03*
X670000D03*
Y662500D03*
X675000D03*
X680000D03*
X685000D03*
G54D398*
X693500Y667500D03*
Y672500D03*
Y677500D03*
Y682500D03*
X715500D03*
Y677500D03*
Y672500D03*
Y667500D03*
X716000Y632000D03*
Y627000D03*
Y622000D03*
Y617000D03*
X694000D03*
Y622000D03*
Y627000D03*
Y632000D03*
G74*
X0Y0D02*
M02*
