*
*
G04 PADS VX.0 Build Number: 635560 generated Gerber (RS-274-X) file*
G04 PC Version=2.1*
*
%IN "DC1823B-1.pcb"*%
*
%MOIN*%
*
%FSLAX35Y35*%
*
*
*
*
G04 PC Standard Apertures*
*
*
G04 Thermal Relief Aperture macro.*
%AMTER*
1,1,$1,0,0*
1,0,$1-$2,0,0*
21,0,$3,$4,0,0,45*
21,0,$3,$4,0,0,135*
%
*
*
G04 Annular Aperture macro.*
%AMANN*
1,1,$1,0,0*
1,0,$2,0,0*
%
*
*
G04 Odd Aperture macro.*
%AMODD*
1,1,$1,0,0*
1,0,$1-0.005,0,0*
%
*
*
G04 PC Custom Aperture Macros*
*
*
*
*
*
*
G04 PC Aperture Table*
*
%ADD019C,0.01*%
%ADD026C,0.008*%
%ADD092R,0.064X0.064*%
%ADD093C,0.064*%
%ADD095C,0.001*%
%ADD153C,0.076*%
%ADD173C,0.074*%
%ADD191R,0.016X0.044*%
%ADD200C,0.154*%
%ADD204R,0.057X0.054*%
%ADD224C,0.069*%
%ADD261C,0.191*%
%ADD400R,0.079X0.094*%
%ADD401C,0.329*%
%ADD402R,0.134X0.054*%
%ADD403R,0.114X0.094*%
%ADD404R,0.104X0.069*%
%ADD405R,0.094X0.094*%
%ADD406R,0.069X0.064*%
*
*
*
*
G04 PC Circuitry*
G04 Layer Name DC1823B-1.pcb - circuitry*
%LPD*%
*
*
G04 PC Custom Flashes*
G04 Layer Name DC1823B-1.pcb - flashes*
%LPD*%
*
*
G04 PC Circuitry*
G04 Layer Name DC1823B-1.pcb - circuitry*
%LPD*%
*
G54D19*
G01X525700Y676700D02*
X515300D01*
Y668300*
X525700*
Y676700*
X515500Y668300D02*
Y676700D01*
X516000Y668300D02*
Y676700D01*
X516500Y668300D02*
Y676700D01*
X517000Y668300D02*
Y676700D01*
X517500Y668300D02*
Y676700D01*
X518000Y668300D02*
Y676700D01*
X518500Y668300D02*
Y676700D01*
X519000Y668300D02*
Y676700D01*
X519500Y668300D02*
Y676700D01*
X520000Y668300D02*
Y676700D01*
X520500Y668300D02*
Y676700D01*
X521000Y668300D02*
Y676700D01*
X521500Y668300D02*
Y676700D01*
X522000Y668300D02*
Y676700D01*
X522500Y668300D02*
Y676700D01*
X523000Y668300D02*
Y676700D01*
X523500Y668300D02*
Y676700D01*
X524000Y668300D02*
Y676700D01*
X524500Y668300D02*
Y676700D01*
X525000Y668300D02*
Y676700D01*
X525500Y668300D02*
Y676700D01*
X529091Y496563D02*
Y490000D01*
X527500Y496563D02*
X530682D01*
X534091D02*
X533636Y496250D01*
X533182Y495625*
X532955Y495000*
X532727Y494063*
X532727D02*
Y492500D01*
X532955Y491563*
X532955D02*
X533182Y490938D01*
X533182D02*
X533636Y490313D01*
X533636D02*
X534091Y490000D01*
X535000*
X535455Y490313*
X535455D02*
X535909Y490938D01*
X535909D02*
X536136Y491563D01*
X536136D02*
X536364Y492500D01*
Y494063*
X536364D02*
X536136Y495000D01*
X535909Y495625*
X535455Y496250*
X535000Y496563*
X535000D02*
X534091D01*
X538409D02*
Y490000D01*
Y496563D02*
X540455D01*
X540455D02*
X541136Y496250D01*
X541364Y495938*
X541364D02*
X541591Y495313D01*
X541591D02*
Y494375D01*
X541364Y493750*
X541136Y493438*
X541136D02*
X540455Y493125D01*
X538409*
X552045Y495625D02*
X551591Y496250D01*
X550909Y496563*
X550909D02*
X550000D01*
X550000D02*
X549318Y496250D01*
X548864Y495625*
Y495000*
X549091Y494375*
X549318Y494063*
X549318D02*
X549773Y493750D01*
X551136Y493125*
X551591Y492813*
X551591D02*
X551818Y492500D01*
X552045Y491875*
Y490938*
X552045D02*
X551591Y490313D01*
X551591D02*
X550909Y490000D01*
X550000*
X549318Y490313*
X549318D02*
X548864Y490938D01*
X555455Y496563D02*
X555000Y496250D01*
X554545Y495625*
X554318Y495000*
X554091Y494063*
X554091D02*
Y492500D01*
X554318Y491563*
X554318D02*
X554545Y490938D01*
X554545D02*
X555000Y490313D01*
X555000D02*
X555455Y490000D01*
X556364*
X556818Y490313*
X556818D02*
X557273Y490938D01*
X557273D02*
X557500Y491563D01*
X557500D02*
X557727Y492500D01*
Y494063*
X557727D02*
X557500Y495000D01*
X557273Y495625*
X556818Y496250*
X556364Y496563*
X556364D02*
X555455D01*
X559773D02*
Y490000D01*
X562500*
X564545Y496563D02*
Y490000D01*
Y496563D02*
X566136D01*
X566136D02*
X566818Y496250D01*
X567273Y495625*
X567500Y495000*
X567727Y494063*
X567727D02*
Y492500D01*
X567500Y491563*
X567500D02*
X567273Y490938D01*
X567273D02*
X566818Y490313D01*
X566818D02*
X566136Y490000D01*
X564545*
X569773Y496563D02*
Y490000D01*
Y496563D02*
X572727D01*
X569773Y493438D02*
X571591D01*
X569773Y490000D02*
X572727D01*
X574773Y496563D02*
Y490000D01*
Y496563D02*
X576818D01*
X576818D02*
X577500Y496250D01*
X577727Y495938*
X577727D02*
X577955Y495313D01*
X577955D02*
Y494688D01*
X577955D02*
X577727Y494063D01*
X577727D02*
X577500Y493750D01*
X576818Y493438*
X576818D02*
X574773D01*
X576364D02*
X577955Y490000D01*
X585227Y496563D02*
Y490000D01*
Y496563D02*
X587045Y490000D01*
X588864Y496563D02*
X587045Y490000D01*
X588864Y496563D02*
Y490000D01*
X592727Y496563D02*
X590909Y490000D01*
X592727Y496563D02*
X594545Y490000D01*
X591591Y492188D02*
X593864D01*
X599773Y495625D02*
X599318Y496250D01*
X598636Y496563*
X598636D02*
X597727D01*
X597727D02*
X597045Y496250D01*
X596591Y495625*
Y495000*
X596818Y494375*
X597045Y494063*
X597045D02*
X597500Y493750D01*
X598864Y493125*
X599318Y492813*
X599318D02*
X599545Y492500D01*
X599773Y491875*
Y490938*
X599773D02*
X599318Y490313D01*
X599318D02*
X598636Y490000D01*
X597727*
X597045Y490313*
X597045D02*
X596591Y490938D01*
X601818Y496563D02*
Y490000D01*
X605000Y496563D02*
X601818Y492188D01*
X602955Y493750D02*
X605000Y490000D01*
X527500Y481563D02*
Y475000D01*
X530227*
X532273Y481563D02*
Y475000D01*
X534318Y481563D02*
Y475000D01*
Y481563D02*
X537500Y475000D01*
Y481563D02*
Y475000D01*
X539545Y481563D02*
Y475000D01*
Y481563D02*
X542500D01*
X539545Y478438D02*
X541364D01*
X539545Y475000D02*
X542500D01*
X546364Y481563D02*
X544545Y475000D01*
X546364Y481563D02*
X548182Y475000D01*
X545227Y477188D02*
X547500D01*
X550227Y481563D02*
Y475000D01*
Y481563D02*
X552273D01*
X552273D02*
X552955Y481250D01*
X553182Y480938*
X553182D02*
X553409Y480313D01*
X553409D02*
Y479688D01*
X553409D02*
X553182Y479063D01*
X553182D02*
X552955Y478750D01*
X552273Y478438*
X552273D02*
X550227D01*
X551818D02*
X553409Y475000D01*
X562273Y481563D02*
Y475000D01*
X560682Y481563D02*
X563864D01*
X565909D02*
Y475000D01*
Y481563D02*
X568864D01*
X565909Y478438D02*
X567727D01*
X565909Y475000D02*
X568864D01*
X574318Y480000D02*
X574091Y480625D01*
X573636Y481250*
X573182Y481563*
X573182D02*
X572273D01*
X572273D02*
X571818Y481250D01*
X571364Y480625*
X571136Y480000*
X570909Y479063*
X570909D02*
Y477500D01*
X571136Y476563*
X571136D02*
X571364Y475938D01*
X571364D02*
X571818Y475313D01*
X571818D02*
X572273Y475000D01*
X573182*
X573636Y475313*
X573636D02*
X574091Y475938D01*
X574091D02*
X574318Y476563D01*
X576364Y481563D02*
Y475000D01*
X579545Y481563D02*
Y475000D01*
X576364Y478438D02*
X579545D01*
X581591Y481563D02*
Y475000D01*
Y481563D02*
X584773Y475000D01*
Y481563D02*
Y475000D01*
X588182Y481563D02*
X587727Y481250D01*
X587273Y480625*
X587045Y480000*
X586818Y479063*
X586818D02*
Y477500D01*
X587045Y476563*
X587045D02*
X587273Y475938D01*
X587273D02*
X587727Y475313D01*
X587727D02*
X588182Y475000D01*
X589091*
X589545Y475313*
X589545D02*
X590000Y475938D01*
X590000D02*
X590227Y476563D01*
X590227D02*
X590455Y477500D01*
Y479063*
X590455D02*
X590227Y480000D01*
X590000Y480625*
X589545Y481250*
X589091Y481563*
X589091D02*
X588182D01*
X592500D02*
Y475000D01*
X595227*
X598636Y481563D02*
X598182Y481250D01*
X597727Y480625*
X597500Y480000*
X597273Y479063*
X597273D02*
Y477500D01*
X597500Y476563*
X597500D02*
X597727Y475938D01*
X597727D02*
X598182Y475313D01*
X598182D02*
X598636Y475000D01*
X599545*
X600000Y475313*
X600000D02*
X600455Y475938D01*
X600455D02*
X600682Y476563D01*
X600682D02*
X600909Y477500D01*
Y479063*
X600909D02*
X600682Y480000D01*
X600455Y480625*
X600000Y481250*
X599545Y481563*
X599545D02*
X598636D01*
X606364Y480000D02*
X606136Y480625D01*
X605682Y481250*
X605227Y481563*
X605227D02*
X604318D01*
X604318D02*
X603864Y481250D01*
X603409Y480625*
X603182Y480000*
X602955Y479063*
X602955D02*
Y477500D01*
X603182Y476563*
X603182D02*
X603409Y475938D01*
X603409D02*
X603864Y475313D01*
X603864D02*
X604318Y475000D01*
X605227*
X605682Y475313*
X605682D02*
X606136Y475938D01*
X606136D02*
X606364Y476563D01*
X606364D02*
Y477500D01*
X605227D02*
X606364D01*
X608409Y481563D02*
X610227Y478438D01*
X610227D02*
Y475000D01*
X612045Y481563D02*
X610227Y478438D01*
X527500Y469063D02*
Y462500D01*
Y469063D02*
X529091D01*
X529091D02*
X529773Y468750D01*
X530227Y468125*
X530455Y467500*
X530682Y466563*
X530682D02*
Y465000D01*
X530455Y464063*
X530455D02*
X530227Y463438D01*
X530227D02*
X529773Y462813D01*
X529773D02*
X529091Y462500D01*
X527500*
X536136Y467500D02*
X535909Y468125D01*
X535455Y468750*
X535000Y469063*
X535000D02*
X534091D01*
X534091D02*
X533636Y468750D01*
X533182Y468125*
X532955Y467500*
X532727Y466563*
X532727D02*
Y465000D01*
X532955Y464063*
X532955D02*
X533182Y463438D01*
X533182D02*
X533636Y462813D01*
X533636D02*
X534091Y462500D01*
X535000*
X535455Y462813*
X535455D02*
X535909Y463438D01*
X535909D02*
X536136Y464063D01*
X538182Y467813D02*
X538636Y468125D01*
X539318Y469063*
X539318D02*
Y462500D01*
X542500Y469063D02*
X541818Y468750D01*
X541591Y468125*
Y467500*
X541818Y466875*
X542273Y466563*
X542273D02*
X543182Y466250D01*
X543864Y465938*
X543864D02*
X544318Y465313D01*
X544318D02*
X544545Y464688D01*
X544545D02*
Y463750D01*
X544318Y463125*
X544091Y462813*
X544091D02*
X543409Y462500D01*
X542500*
X541818Y462813*
X541818D02*
X541591Y463125D01*
X541364Y463750*
Y464688*
X541364D02*
X541591Y465313D01*
X541591D02*
X542045Y465938D01*
X542045D02*
X542727Y466250D01*
X543636Y466563*
X543636D02*
X544091Y466875D01*
X544318Y467500*
Y468125*
X544091Y468750*
X543409Y469063*
X543409D02*
X542500D01*
X546818Y467500D02*
Y467813D01*
X546818D02*
X547045Y468438D01*
X547045D02*
X547273Y468750D01*
X547727Y469063*
X547727D02*
X548636D01*
X548636D02*
X549091Y468750D01*
X549318Y468438*
X549318D02*
X549545Y467813D01*
X549545D02*
Y467188D01*
X549545D02*
X549318Y466563D01*
X549318D02*
X548864Y465625D01*
X546591Y462500*
X549773*
X552273Y469063D02*
X554773D01*
X554773D02*
X553409Y466563D01*
X553409D02*
X554091D01*
X554091D02*
X554545Y466250D01*
X554773Y465938*
X554773D02*
X555000Y465000D01*
Y464375*
X554773Y463438*
X554773D02*
X554318Y462813D01*
X554318D02*
X553636Y462500D01*
X552955*
X552273Y462813*
X552273D02*
X552045Y463125D01*
X551818Y463750*
X557045Y469063D02*
Y462500D01*
Y469063D02*
X559091D01*
X559091D02*
X559773Y468750D01*
X560000Y468438*
X560000D02*
X560227Y467813D01*
X560227D02*
Y467188D01*
X560227D02*
X560000Y466563D01*
X560000D02*
X559773Y466250D01*
X559091Y465938*
X557045D02*
X559091D01*
X559091D02*
X559773Y465625D01*
X560000Y465313*
X560000D02*
X560227Y464688D01*
X560227D02*
Y463750D01*
X560000Y463125*
X559773Y462813*
X559773D02*
X559091Y462500D01*
X557045*
X562273Y465313D02*
X566364D01*
X568409Y467813D02*
X568864Y468125D01*
X569545Y469063*
X569545D02*
Y462500D01*
X587273Y469063D02*
Y462500D01*
X590000*
X593636Y469063D02*
Y462500D01*
X592045Y469063D02*
X595227D01*
X599545D02*
X597273Y464688D01*
X597273D02*
X600682D01*
X599545Y469063D02*
Y462500D01*
X603182Y469063D02*
X605682D01*
X605682D02*
X604318Y466563D01*
X604318D02*
X605000D01*
X605000D02*
X605455Y466250D01*
X605682Y465938*
X605682D02*
X605909Y465000D01*
Y464375*
X605682Y463438*
X605682D02*
X605227Y462813D01*
X605227D02*
X604545Y462500D01*
X603864*
X603182Y462813*
X603182D02*
X602955Y463125D01*
X602727Y463750*
X608182Y467500D02*
Y467813D01*
X608182D02*
X608409Y468438D01*
X608409D02*
X608636Y468750D01*
X609091Y469063*
X609091D02*
X610000D01*
X610000D02*
X610455Y468750D01*
X610682Y468438*
X610682D02*
X610909Y467813D01*
X610909D02*
Y467188D01*
X610909D02*
X610682Y466563D01*
X610682D02*
X610227Y465625D01*
X607955Y462500*
X611136*
X614545Y469063D02*
X613864Y468750D01*
X613409Y467813*
X613409D02*
X613182Y466250D01*
Y465313*
X613182D02*
X613409Y463750D01*
X613864Y462813*
X613864D02*
X614545Y462500D01*
X615000*
X615682Y462813*
X615682D02*
X616136Y463750D01*
X616364Y465313*
X616364D02*
Y466250D01*
X616136Y467813*
X616136D02*
X615682Y468750D01*
X615000Y469063*
X615000D02*
X614545D01*
X618409D02*
Y462500D01*
X620455Y469063D02*
Y462500D01*
Y469063D02*
X622045D01*
X622045D02*
X622727Y468750D01*
X623182Y468125*
X623409Y467500*
X623636Y466563*
X623636D02*
Y465000D01*
X623409Y464063*
X623409D02*
X623182Y463438D01*
X623182D02*
X622727Y462813D01*
X622727D02*
X622045Y462500D01*
X620455*
X625682Y469063D02*
Y462500D01*
Y469063D02*
X627273D01*
X627273D02*
X627955Y468750D01*
X628409Y468125*
X628636Y467500*
X628864Y466563*
X628864D02*
Y465000D01*
X628636Y464063*
X628636D02*
X628409Y463438D01*
X628409D02*
X627955Y462813D01*
X627955D02*
X627273Y462500D01*
X625682*
X622500Y481563D02*
Y475000D01*
Y481563D02*
X624091D01*
X624091D02*
X624773Y481250D01*
X625227Y480625*
X625455Y480000*
X625682Y479063*
X625682D02*
Y477500D01*
X625455Y476563*
X625455D02*
X625227Y475938D01*
X625227D02*
X624773Y475313D01*
X624773D02*
X624091Y475000D01*
X622500*
X629545Y481563D02*
X627727Y475000D01*
X629545Y481563D02*
X631364Y475000D01*
X628409Y477188D02*
X630682D01*
X635000Y481563D02*
Y475000D01*
X633409Y481563D02*
X636591D01*
X638636D02*
Y475000D01*
Y481563D02*
X641591D01*
X638636Y478438D02*
X640455D01*
X638636Y475000D02*
X641591D01*
X643864Y479375D02*
X643636Y479063D01*
X643636D02*
X643864Y478750D01*
X644091Y479063*
X644091D02*
X643864Y479375D01*
Y475625D02*
X643636Y475313D01*
X643636D02*
X643864Y475000D01*
X644091Y475313*
X644091D02*
X643864Y475625D01*
X651364Y480313D02*
X651818Y480625D01*
X652500Y481563*
X652500D02*
Y475000D01*
X655909Y481563D02*
X655227Y481250D01*
X654773Y480313*
X654773D02*
X654545Y478750D01*
Y477813*
X654545D02*
X654773Y476250D01*
X655227Y475313*
X655227D02*
X655909Y475000D01*
X656364*
X657045Y475313*
X657045D02*
X657500Y476250D01*
X657727Y477813*
X657727D02*
Y478750D01*
X657500Y480313*
X657500D02*
X657045Y481250D01*
X656364Y481563*
X656364D02*
X655909D01*
X659773Y477813D02*
X663864D01*
X667273Y481563D02*
X666591Y481250D01*
X666136Y480313*
X666136D02*
X665909Y478750D01*
Y477813*
X665909D02*
X666136Y476250D01*
X666591Y475313*
X666591D02*
X667273Y475000D01*
X667727*
X668409Y475313*
X668409D02*
X668864Y476250D01*
X669091Y477813*
X669091D02*
Y478750D01*
X668864Y480313*
X668864D02*
X668409Y481250D01*
X667727Y481563*
X667727D02*
X667273D01*
X673864Y480625D02*
X673636Y481250D01*
X672955Y481563*
X672955D02*
X672500D01*
X672500D02*
X671818Y481250D01*
X671364Y480313*
X671364D02*
X671136Y478750D01*
Y477188*
X671136D02*
X671364Y475938D01*
X671364D02*
X671818Y475313D01*
X671818D02*
X672500Y475000D01*
X672727*
X673409Y475313*
X673409D02*
X673864Y475938D01*
X673864D02*
X674091Y476875D01*
Y477188*
X674091D02*
X673864Y478125D01*
X673409Y478750*
X672727Y479063*
X672727D02*
X672500D01*
X672500D02*
X671818Y478750D01*
X671364Y478125*
X671136Y477188*
X676136Y477813D02*
X680227D01*
X682273Y480313D02*
X682727Y480625D01*
X683409Y481563*
X683409D02*
Y475000D01*
X688409Y481563D02*
X686136D01*
X686136D02*
X685909Y478750D01*
X686136Y479063*
X686136D02*
X686818Y479375D01*
X687500*
X688182Y479063*
X688182D02*
X688636Y478438D01*
X688636D02*
X688864Y477500D01*
X688636Y476875*
X688409Y475938*
X688409D02*
X687955Y475313D01*
X687955D02*
X687273Y475000D01*
X686591*
X685909Y475313*
X685909D02*
X685682Y475625D01*
X685455Y476250*
X527500Y456563D02*
Y450000D01*
X529545Y456563D02*
Y450000D01*
Y456563D02*
X531136D01*
X531136D02*
X531818Y456250D01*
X532273Y455625*
X532500Y455000*
X532727Y454063*
X532727D02*
Y452500D01*
X532500Y451563*
X532500D02*
X532273Y450938D01*
X532273D02*
X531818Y450313D01*
X531818D02*
X531136Y450000D01*
X529545*
X534773Y456563D02*
Y450000D01*
Y456563D02*
X537727D01*
X534773Y453438D02*
X536591D01*
X534773Y450000D02*
X537727D01*
X541591Y456563D02*
X539773Y450000D01*
X541591Y456563D02*
X543409Y450000D01*
X540455Y452188D02*
X542727D01*
X545455Y456563D02*
Y450000D01*
X548182*
X555455Y456563D02*
Y450000D01*
Y456563D02*
X557045D01*
X557045D02*
X557727Y456250D01*
X558182Y455625*
X558409Y455000*
X558636Y454063*
X558636D02*
Y452500D01*
X558409Y451563*
X558409D02*
X558182Y450938D01*
X558182D02*
X557727Y450313D01*
X557727D02*
X557045Y450000D01*
X555455*
X560682Y456563D02*
Y450000D01*
X564091Y456563D02*
X563636Y456250D01*
X563182Y455625*
X562955Y455000*
X562727Y454063*
X562727D02*
Y452500D01*
X562955Y451563*
X562955D02*
X563182Y450938D01*
X563182D02*
X563636Y450313D01*
X563636D02*
X564091Y450000D01*
X565000*
X565455Y450313*
X565455D02*
X565909Y450938D01*
X565909D02*
X566136Y451563D01*
X566136D02*
X566364Y452500D01*
Y454063*
X566364D02*
X566136Y455000D01*
X565909Y455625*
X565455Y456250*
X565000Y456563*
X565000D02*
X564091D01*
X568409D02*
Y450000D01*
Y456563D02*
X570000D01*
X570000D02*
X570682Y456250D01*
X571136Y455625*
X571364Y455000*
X571591Y454063*
X571591D02*
Y452500D01*
X571364Y451563*
X571364D02*
X571136Y450938D01*
X571136D02*
X570682Y450313D01*
X570682D02*
X570000Y450000D01*
X568409*
X573636Y456563D02*
Y450000D01*
Y456563D02*
X576591D01*
X573636Y453438D02*
X575455D01*
X573636Y450000D02*
X576591D01*
X583864Y456563D02*
Y450000D01*
Y456563D02*
X585909D01*
X585909D02*
X586591Y456250D01*
X586818Y455938*
X586818D02*
X587045Y455313D01*
X587045D02*
Y454688D01*
X587045D02*
X586818Y454063D01*
X586818D02*
X586591Y453750D01*
X585909Y453438*
X583864D02*
X585909D01*
X585909D02*
X586591Y453125D01*
X586818Y452813*
X586818D02*
X587045Y452188D01*
X587045D02*
Y451250D01*
X586818Y450625*
X586591Y450313*
X586591D02*
X585909Y450000D01*
X583864*
X589091Y456563D02*
Y450000D01*
Y456563D02*
X591136D01*
X591136D02*
X591818Y456250D01*
X592045Y455938*
X592045D02*
X592273Y455313D01*
X592273D02*
Y454688D01*
X592273D02*
X592045Y454063D01*
X592045D02*
X591818Y453750D01*
X591136Y453438*
X591136D02*
X589091D01*
X590682D02*
X592273Y450000D01*
X594318Y456563D02*
Y450000D01*
X596364Y456563D02*
Y450000D01*
Y456563D02*
X597955D01*
X597955D02*
X598636Y456250D01*
X599091Y455625*
X599318Y455000*
X599545Y454063*
X599545D02*
Y452500D01*
X599318Y451563*
X599318D02*
X599091Y450938D01*
X599091D02*
X598636Y450313D01*
X598636D02*
X597955Y450000D01*
X596364*
X605000Y455000D02*
X604773Y455625D01*
X604318Y456250*
X603864Y456563*
X603864D02*
X602955D01*
X602955D02*
X602500Y456250D01*
X602045Y455625*
X601818Y455000*
X601591Y454063*
X601591D02*
Y452500D01*
X601818Y451563*
X601818D02*
X602045Y450938D01*
X602045D02*
X602500Y450313D01*
X602500D02*
X602955Y450000D01*
X603864*
X604318Y450313*
X604318D02*
X604773Y450938D01*
X604773D02*
X605000Y451563D01*
X605000D02*
Y452500D01*
X603864D02*
X605000D01*
X607045Y456563D02*
Y450000D01*
Y456563D02*
X610000D01*
X607045Y453438D02*
X608864D01*
X607045Y450000D02*
X610000D01*
X617273Y456563D02*
Y450000D01*
Y456563D02*
X620227D01*
X617273Y453438D02*
X619091D01*
X622273Y456563D02*
Y451875D01*
X622500Y450938*
X622500D02*
X622955Y450313D01*
X622955D02*
X623636Y450000D01*
X624091*
X624773Y450313*
X624773D02*
X625227Y450938D01*
X625227D02*
X625455Y451875D01*
Y456563*
X627500D02*
Y450000D01*
X630227*
X632273Y456563D02*
Y450000D01*
X635000*
X642273Y456563D02*
X643409Y450000D01*
X644545Y456563D02*
X643409Y450000D01*
X644545Y456563D02*
X645682Y450000D01*
X646818Y456563D02*
X645682Y450000D01*
X650682Y456563D02*
X648864Y450000D01*
X650682Y456563D02*
X652500Y450000D01*
X649545Y452188D02*
X651818D01*
X654545Y456563D02*
X656364Y450000D01*
X658182Y456563D02*
X656364Y450000D01*
X660227Y456563D02*
Y450000D01*
Y456563D02*
X663182D01*
X660227Y453438D02*
X662045D01*
X660227Y450000D02*
X663182D01*
X670455Y456563D02*
Y450000D01*
Y456563D02*
X672500D01*
X672500D02*
X673182Y456250D01*
X673409Y455938*
X673409D02*
X673636Y455313D01*
X673636D02*
Y454688D01*
X673636D02*
X673409Y454063D01*
X673409D02*
X673182Y453750D01*
X672500Y453438*
X672500D02*
X670455D01*
X672045D02*
X673636Y450000D01*
X675682Y456563D02*
Y450000D01*
Y456563D02*
X678636D01*
X675682Y453438D02*
X677500D01*
X675682Y450000D02*
X678636D01*
X684091Y455000D02*
X683864Y455625D01*
X683409Y456250*
X682955Y456563*
X682955D02*
X682045D01*
X682045D02*
X681591Y456250D01*
X681136Y455625*
X680909Y455000*
X680682Y454063*
X680682D02*
Y452500D01*
X680909Y451563*
X680909D02*
X681136Y450938D01*
X681136D02*
X681591Y450313D01*
X681591D02*
X682045Y450000D01*
X682955*
X683409Y450313*
X683409D02*
X683864Y450938D01*
X683864D02*
X684091Y451563D01*
X687727Y456563D02*
Y450000D01*
X686136Y456563D02*
X689318D01*
X691364D02*
Y450000D01*
X693409Y456563D02*
Y450000D01*
Y456563D02*
X696364D01*
X693409Y453438D02*
X695227D01*
X698409Y456563D02*
Y450000D01*
X700455Y456563D02*
Y450000D01*
Y456563D02*
X703409D01*
X700455Y453438D02*
X702273D01*
X700455Y450000D02*
X703409D01*
X705455Y456563D02*
Y450000D01*
Y456563D02*
X707500D01*
X707500D02*
X708182Y456250D01*
X708409Y455938*
X708409D02*
X708636Y455313D01*
X708636D02*
Y454688D01*
X708636D02*
X708409Y454063D01*
X708409D02*
X708182Y453750D01*
X707500Y453438*
X707500D02*
X705455D01*
X707045D02*
X708636Y450000D01*
G54D26*
X500000Y500000D02*
X900000D01*
Y800000*
X500000*
Y500000*
G54D92*
X810000Y652500D03*
G54D93*
X830000D03*
G54D95*
G54D153*
X538200Y650000D03*
G54D173*
X857500Y790000D03*
X542500Y510000D03*
G54D191*
X697000Y643500D03*
X699000D03*
X701000D03*
X703000D03*
Y656500D03*
X701000D03*
X699000D03*
X697000D03*
G54D200*
X530000Y600000D03*
Y700000D03*
X870000D03*
Y600000D03*
G54D204*
X713500Y654000D03*
Y646000D03*
G54D224*
X520500Y650000D03*
G54D261*
X517500Y782500D03*
Y517500D03*
X882500D03*
Y782500D03*
G54D400*
X723500Y658000D03*
Y640000D03*
G54D401*
X530000Y740000D03*
Y560000D03*
X870000Y740000D03*
Y560000D03*
G54D402*
Y675000D03*
Y650000D03*
G54D403*
X544500Y672500D03*
X520500Y627500D03*
X544500D03*
G54D404*
X700000Y650000D03*
G54D405*
X580000Y659000D03*
Y641000D03*
G54D406*
X870000Y639000D03*
Y627000D03*
X0Y0D02*
M02*
