*
*
G04 PADS VX.0 Build Number: 635560 generated Gerber (RS-274-X) file*
G04 PC Version=2.1*
*
%IN "DC1823B-1.pcb"*%
*
%MOIN*%
*
%FSLAX35Y35*%
*
*
*
*
G04 PC Standard Apertures*
*
*
G04 Thermal Relief Aperture macro.*
%AMTER*
1,1,$1,0,0*
1,0,$1-$2,0,0*
21,0,$3,$4,0,0,45*
21,0,$3,$4,0,0,135*
%
*
*
G04 Annular Aperture macro.*
%AMANN*
1,1,$1,0,0*
1,0,$2,0,0*
%
*
*
G04 Odd Aperture macro.*
%AMODD*
1,1,$1,0,0*
1,0,$1-0.005,0,0*
%
*
*
G04 PC Custom Aperture Macros*
*
*
*
*
*
*
G04 PC Aperture Table*
*
%ADD010C,0.06*%
%ADD011C,0.15*%
%ADD012R,0.06X0.06*%
%ADD018C,0.07*%
%ADD019C,0.01*%
%ADD025C,0.005*%
%ADD026C,0.008*%
%ADD075C,0.03*%
%ADD077C,0.024*%
%ADD095C,0.001*%
%ADD219C,0.065*%
%ADD236C,0.187*%
%ADD311C,0.018*%
%ADD369C,0.072*%
%ADD390C,0.325*%
*
*
*
*
G04 PC Circuitry*
G04 Layer Name DC1823B-1.pcb - circuitry*
%LPD*%
*
*
G04 PC Custom Flashes*
G04 Layer Name DC1823B-1.pcb - flashes*
%LPD*%
*
*
G04 PC Circuitry*
G04 Layer Name DC1823B-1.pcb - circuitry*
%LPD*%
*
G54D10*
G01X830000Y652500D03*
G54D11*
X530000Y600000D03*
Y700000D03*
X870000D03*
Y600000D03*
G54D12*
X810000Y652500D03*
G54D18*
X857500Y790000D03*
X542500Y510000D03*
G54D19*
X527500Y481563D02*
Y475000D01*
X530227*
X532273Y481563D02*
Y475000D01*
X534318Y481563D02*
Y475000D01*
Y481563D02*
X537500Y475000D01*
Y481563D02*
Y475000D01*
X539545Y481563D02*
Y475000D01*
Y481563D02*
X542500D01*
X539545Y478438D02*
X541364D01*
X539545Y475000D02*
X542500D01*
X546364Y481563D02*
X544545Y475000D01*
X546364Y481563D02*
X548182Y475000D01*
X545227Y477188D02*
X547500D01*
X550227Y481563D02*
Y475000D01*
Y481563D02*
X552273D01*
X552273D02*
X552955Y481250D01*
X553182Y480938*
X553182D02*
X553409Y480313D01*
X553409D02*
Y479688D01*
X553409D02*
X553182Y479063D01*
X553182D02*
X552955Y478750D01*
X552273Y478438*
X552273D02*
X550227D01*
X551818D02*
X553409Y475000D01*
X562273Y481563D02*
Y475000D01*
X560682Y481563D02*
X563864D01*
X565909D02*
Y475000D01*
Y481563D02*
X568864D01*
X565909Y478438D02*
X567727D01*
X565909Y475000D02*
X568864D01*
X574318Y480000D02*
X574091Y480625D01*
X573636Y481250*
X573182Y481563*
X573182D02*
X572273D01*
X572273D02*
X571818Y481250D01*
X571364Y480625*
X571136Y480000*
X570909Y479063*
X570909D02*
Y477500D01*
X571136Y476563*
X571136D02*
X571364Y475938D01*
X571364D02*
X571818Y475313D01*
X571818D02*
X572273Y475000D01*
X573182*
X573636Y475313*
X573636D02*
X574091Y475938D01*
X574091D02*
X574318Y476563D01*
X576364Y481563D02*
Y475000D01*
X579545Y481563D02*
Y475000D01*
X576364Y478438D02*
X579545D01*
X581591Y481563D02*
Y475000D01*
Y481563D02*
X584773Y475000D01*
Y481563D02*
Y475000D01*
X588182Y481563D02*
X587727Y481250D01*
X587273Y480625*
X587045Y480000*
X586818Y479063*
X586818D02*
Y477500D01*
X587045Y476563*
X587045D02*
X587273Y475938D01*
X587273D02*
X587727Y475313D01*
X587727D02*
X588182Y475000D01*
X589091*
X589545Y475313*
X589545D02*
X590000Y475938D01*
X590000D02*
X590227Y476563D01*
X590227D02*
X590455Y477500D01*
Y479063*
X590455D02*
X590227Y480000D01*
X590000Y480625*
X589545Y481250*
X589091Y481563*
X589091D02*
X588182D01*
X592500D02*
Y475000D01*
X595227*
X598636Y481563D02*
X598182Y481250D01*
X597727Y480625*
X597500Y480000*
X597273Y479063*
X597273D02*
Y477500D01*
X597500Y476563*
X597500D02*
X597727Y475938D01*
X597727D02*
X598182Y475313D01*
X598182D02*
X598636Y475000D01*
X599545*
X600000Y475313*
X600000D02*
X600455Y475938D01*
X600455D02*
X600682Y476563D01*
X600682D02*
X600909Y477500D01*
Y479063*
X600909D02*
X600682Y480000D01*
X600455Y480625*
X600000Y481250*
X599545Y481563*
X599545D02*
X598636D01*
X606364Y480000D02*
X606136Y480625D01*
X605682Y481250*
X605227Y481563*
X605227D02*
X604318D01*
X604318D02*
X603864Y481250D01*
X603409Y480625*
X603182Y480000*
X602955Y479063*
X602955D02*
Y477500D01*
X603182Y476563*
X603182D02*
X603409Y475938D01*
X603409D02*
X603864Y475313D01*
X603864D02*
X604318Y475000D01*
X605227*
X605682Y475313*
X605682D02*
X606136Y475938D01*
X606136D02*
X606364Y476563D01*
X606364D02*
Y477500D01*
X605227D02*
X606364D01*
X608409Y481563D02*
X610227Y478438D01*
X610227D02*
Y475000D01*
X612045Y481563D02*
X610227Y478438D01*
X527500Y469063D02*
Y462500D01*
Y469063D02*
X529091D01*
X529091D02*
X529773Y468750D01*
X530227Y468125*
X530455Y467500*
X530682Y466563*
X530682D02*
Y465000D01*
X530455Y464063*
X530455D02*
X530227Y463438D01*
X530227D02*
X529773Y462813D01*
X529773D02*
X529091Y462500D01*
X527500*
X536136Y467500D02*
X535909Y468125D01*
X535455Y468750*
X535000Y469063*
X535000D02*
X534091D01*
X534091D02*
X533636Y468750D01*
X533182Y468125*
X532955Y467500*
X532727Y466563*
X532727D02*
Y465000D01*
X532955Y464063*
X532955D02*
X533182Y463438D01*
X533182D02*
X533636Y462813D01*
X533636D02*
X534091Y462500D01*
X535000*
X535455Y462813*
X535455D02*
X535909Y463438D01*
X535909D02*
X536136Y464063D01*
X538182Y467813D02*
X538636Y468125D01*
X539318Y469063*
X539318D02*
Y462500D01*
X542500Y469063D02*
X541818Y468750D01*
X541591Y468125*
Y467500*
X541818Y466875*
X542273Y466563*
X542273D02*
X543182Y466250D01*
X543864Y465938*
X543864D02*
X544318Y465313D01*
X544318D02*
X544545Y464688D01*
X544545D02*
Y463750D01*
X544318Y463125*
X544091Y462813*
X544091D02*
X543409Y462500D01*
X542500*
X541818Y462813*
X541818D02*
X541591Y463125D01*
X541364Y463750*
Y464688*
X541364D02*
X541591Y465313D01*
X541591D02*
X542045Y465938D01*
X542045D02*
X542727Y466250D01*
X543636Y466563*
X543636D02*
X544091Y466875D01*
X544318Y467500*
Y468125*
X544091Y468750*
X543409Y469063*
X543409D02*
X542500D01*
X546818Y467500D02*
Y467813D01*
X546818D02*
X547045Y468438D01*
X547045D02*
X547273Y468750D01*
X547727Y469063*
X547727D02*
X548636D01*
X548636D02*
X549091Y468750D01*
X549318Y468438*
X549318D02*
X549545Y467813D01*
X549545D02*
Y467188D01*
X549545D02*
X549318Y466563D01*
X549318D02*
X548864Y465625D01*
X546591Y462500*
X549773*
X552273Y469063D02*
X554773D01*
X554773D02*
X553409Y466563D01*
X553409D02*
X554091D01*
X554091D02*
X554545Y466250D01*
X554773Y465938*
X554773D02*
X555000Y465000D01*
Y464375*
X554773Y463438*
X554773D02*
X554318Y462813D01*
X554318D02*
X553636Y462500D01*
X552955*
X552273Y462813*
X552273D02*
X552045Y463125D01*
X551818Y463750*
X557045Y469063D02*
Y462500D01*
Y469063D02*
X559091D01*
X559091D02*
X559773Y468750D01*
X560000Y468438*
X560000D02*
X560227Y467813D01*
X560227D02*
Y467188D01*
X560227D02*
X560000Y466563D01*
X560000D02*
X559773Y466250D01*
X559091Y465938*
X557045D02*
X559091D01*
X559091D02*
X559773Y465625D01*
X560000Y465313*
X560000D02*
X560227Y464688D01*
X560227D02*
Y463750D01*
X560000Y463125*
X559773Y462813*
X559773D02*
X559091Y462500D01*
X557045*
X562273Y465313D02*
X566364D01*
X568409Y467813D02*
X568864Y468125D01*
X569545Y469063*
X569545D02*
Y462500D01*
X587273Y469063D02*
Y462500D01*
X590000*
X593636Y469063D02*
Y462500D01*
X592045Y469063D02*
X595227D01*
X599545D02*
X597273Y464688D01*
X597273D02*
X600682D01*
X599545Y469063D02*
Y462500D01*
X603182Y469063D02*
X605682D01*
X605682D02*
X604318Y466563D01*
X604318D02*
X605000D01*
X605000D02*
X605455Y466250D01*
X605682Y465938*
X605682D02*
X605909Y465000D01*
Y464375*
X605682Y463438*
X605682D02*
X605227Y462813D01*
X605227D02*
X604545Y462500D01*
X603864*
X603182Y462813*
X603182D02*
X602955Y463125D01*
X602727Y463750*
X608182Y467500D02*
Y467813D01*
X608182D02*
X608409Y468438D01*
X608409D02*
X608636Y468750D01*
X609091Y469063*
X609091D02*
X610000D01*
X610000D02*
X610455Y468750D01*
X610682Y468438*
X610682D02*
X610909Y467813D01*
X610909D02*
Y467188D01*
X610909D02*
X610682Y466563D01*
X610682D02*
X610227Y465625D01*
X607955Y462500*
X611136*
X614545Y469063D02*
X613864Y468750D01*
X613409Y467813*
X613409D02*
X613182Y466250D01*
Y465313*
X613182D02*
X613409Y463750D01*
X613864Y462813*
X613864D02*
X614545Y462500D01*
X615000*
X615682Y462813*
X615682D02*
X616136Y463750D01*
X616364Y465313*
X616364D02*
Y466250D01*
X616136Y467813*
X616136D02*
X615682Y468750D01*
X615000Y469063*
X615000D02*
X614545D01*
X618409D02*
Y462500D01*
X620455Y469063D02*
Y462500D01*
Y469063D02*
X622045D01*
X622045D02*
X622727Y468750D01*
X623182Y468125*
X623409Y467500*
X623636Y466563*
X623636D02*
Y465000D01*
X623409Y464063*
X623409D02*
X623182Y463438D01*
X623182D02*
X622727Y462813D01*
X622727D02*
X622045Y462500D01*
X620455*
X625682Y469063D02*
Y462500D01*
Y469063D02*
X627273D01*
X627273D02*
X627955Y468750D01*
X628409Y468125*
X628636Y467500*
X628864Y466563*
X628864D02*
Y465000D01*
X628636Y464063*
X628636D02*
X628409Y463438D01*
X628409D02*
X627955Y462813D01*
X627955D02*
X627273Y462500D01*
X625682*
X622500Y481563D02*
Y475000D01*
Y481563D02*
X624091D01*
X624091D02*
X624773Y481250D01*
X625227Y480625*
X625455Y480000*
X625682Y479063*
X625682D02*
Y477500D01*
X625455Y476563*
X625455D02*
X625227Y475938D01*
X625227D02*
X624773Y475313D01*
X624773D02*
X624091Y475000D01*
X622500*
X629545Y481563D02*
X627727Y475000D01*
X629545Y481563D02*
X631364Y475000D01*
X628409Y477188D02*
X630682D01*
X635000Y481563D02*
Y475000D01*
X633409Y481563D02*
X636591D01*
X638636D02*
Y475000D01*
Y481563D02*
X641591D01*
X638636Y478438D02*
X640455D01*
X638636Y475000D02*
X641591D01*
X643864Y479375D02*
X643636Y479063D01*
X643636D02*
X643864Y478750D01*
X644091Y479063*
X644091D02*
X643864Y479375D01*
Y475625D02*
X643636Y475313D01*
X643636D02*
X643864Y475000D01*
X644091Y475313*
X644091D02*
X643864Y475625D01*
X651364Y480313D02*
X651818Y480625D01*
X652500Y481563*
X652500D02*
Y475000D01*
X655909Y481563D02*
X655227Y481250D01*
X654773Y480313*
X654773D02*
X654545Y478750D01*
Y477813*
X654545D02*
X654773Y476250D01*
X655227Y475313*
X655227D02*
X655909Y475000D01*
X656364*
X657045Y475313*
X657045D02*
X657500Y476250D01*
X657727Y477813*
X657727D02*
Y478750D01*
X657500Y480313*
X657500D02*
X657045Y481250D01*
X656364Y481563*
X656364D02*
X655909D01*
X659773Y477813D02*
X663864D01*
X667273Y481563D02*
X666591Y481250D01*
X666136Y480313*
X666136D02*
X665909Y478750D01*
Y477813*
X665909D02*
X666136Y476250D01*
X666591Y475313*
X666591D02*
X667273Y475000D01*
X667727*
X668409Y475313*
X668409D02*
X668864Y476250D01*
X669091Y477813*
X669091D02*
Y478750D01*
X668864Y480313*
X668864D02*
X668409Y481250D01*
X667727Y481563*
X667727D02*
X667273D01*
X673864Y480625D02*
X673636Y481250D01*
X672955Y481563*
X672955D02*
X672500D01*
X672500D02*
X671818Y481250D01*
X671364Y480313*
X671364D02*
X671136Y478750D01*
Y477188*
X671136D02*
X671364Y475938D01*
X671364D02*
X671818Y475313D01*
X671818D02*
X672500Y475000D01*
X672727*
X673409Y475313*
X673409D02*
X673864Y475938D01*
X673864D02*
X674091Y476875D01*
Y477188*
X674091D02*
X673864Y478125D01*
X673409Y478750*
X672727Y479063*
X672727D02*
X672500D01*
X672500D02*
X671818Y478750D01*
X671364Y478125*
X671136Y477188*
X676136Y477813D02*
X680227D01*
X682273Y480313D02*
X682727Y480625D01*
X683409Y481563*
X683409D02*
Y475000D01*
X688409Y481563D02*
X686136D01*
X686136D02*
X685909Y478750D01*
X686136Y479063*
X686136D02*
X686818Y479375D01*
X687500*
X688182Y479063*
X688182D02*
X688636Y478438D01*
X688636D02*
X688864Y477500D01*
X688636Y476875*
X688409Y475938*
X688409D02*
X687955Y475313D01*
X687955D02*
X687273Y475000D01*
X686591*
X685909Y475313*
X685909D02*
X685682Y475625D01*
X685455Y476250*
X527500Y456563D02*
Y450000D01*
X529545Y456563D02*
Y450000D01*
Y456563D02*
X531136D01*
X531136D02*
X531818Y456250D01*
X532273Y455625*
X532500Y455000*
X532727Y454063*
X532727D02*
Y452500D01*
X532500Y451563*
X532500D02*
X532273Y450938D01*
X532273D02*
X531818Y450313D01*
X531818D02*
X531136Y450000D01*
X529545*
X534773Y456563D02*
Y450000D01*
Y456563D02*
X537727D01*
X534773Y453438D02*
X536591D01*
X534773Y450000D02*
X537727D01*
X541591Y456563D02*
X539773Y450000D01*
X541591Y456563D02*
X543409Y450000D01*
X540455Y452188D02*
X542727D01*
X545455Y456563D02*
Y450000D01*
X548182*
X555455Y456563D02*
Y450000D01*
Y456563D02*
X557045D01*
X557045D02*
X557727Y456250D01*
X558182Y455625*
X558409Y455000*
X558636Y454063*
X558636D02*
Y452500D01*
X558409Y451563*
X558409D02*
X558182Y450938D01*
X558182D02*
X557727Y450313D01*
X557727D02*
X557045Y450000D01*
X555455*
X560682Y456563D02*
Y450000D01*
X564091Y456563D02*
X563636Y456250D01*
X563182Y455625*
X562955Y455000*
X562727Y454063*
X562727D02*
Y452500D01*
X562955Y451563*
X562955D02*
X563182Y450938D01*
X563182D02*
X563636Y450313D01*
X563636D02*
X564091Y450000D01*
X565000*
X565455Y450313*
X565455D02*
X565909Y450938D01*
X565909D02*
X566136Y451563D01*
X566136D02*
X566364Y452500D01*
Y454063*
X566364D02*
X566136Y455000D01*
X565909Y455625*
X565455Y456250*
X565000Y456563*
X565000D02*
X564091D01*
X568409D02*
Y450000D01*
Y456563D02*
X570000D01*
X570000D02*
X570682Y456250D01*
X571136Y455625*
X571364Y455000*
X571591Y454063*
X571591D02*
Y452500D01*
X571364Y451563*
X571364D02*
X571136Y450938D01*
X571136D02*
X570682Y450313D01*
X570682D02*
X570000Y450000D01*
X568409*
X573636Y456563D02*
Y450000D01*
Y456563D02*
X576591D01*
X573636Y453438D02*
X575455D01*
X573636Y450000D02*
X576591D01*
X583864Y456563D02*
Y450000D01*
Y456563D02*
X585909D01*
X585909D02*
X586591Y456250D01*
X586818Y455938*
X586818D02*
X587045Y455313D01*
X587045D02*
Y454688D01*
X587045D02*
X586818Y454063D01*
X586818D02*
X586591Y453750D01*
X585909Y453438*
X583864D02*
X585909D01*
X585909D02*
X586591Y453125D01*
X586818Y452813*
X586818D02*
X587045Y452188D01*
X587045D02*
Y451250D01*
X586818Y450625*
X586591Y450313*
X586591D02*
X585909Y450000D01*
X583864*
X589091Y456563D02*
Y450000D01*
Y456563D02*
X591136D01*
X591136D02*
X591818Y456250D01*
X592045Y455938*
X592045D02*
X592273Y455313D01*
X592273D02*
Y454688D01*
X592273D02*
X592045Y454063D01*
X592045D02*
X591818Y453750D01*
X591136Y453438*
X591136D02*
X589091D01*
X590682D02*
X592273Y450000D01*
X594318Y456563D02*
Y450000D01*
X596364Y456563D02*
Y450000D01*
Y456563D02*
X597955D01*
X597955D02*
X598636Y456250D01*
X599091Y455625*
X599318Y455000*
X599545Y454063*
X599545D02*
Y452500D01*
X599318Y451563*
X599318D02*
X599091Y450938D01*
X599091D02*
X598636Y450313D01*
X598636D02*
X597955Y450000D01*
X596364*
X605000Y455000D02*
X604773Y455625D01*
X604318Y456250*
X603864Y456563*
X603864D02*
X602955D01*
X602955D02*
X602500Y456250D01*
X602045Y455625*
X601818Y455000*
X601591Y454063*
X601591D02*
Y452500D01*
X601818Y451563*
X601818D02*
X602045Y450938D01*
X602045D02*
X602500Y450313D01*
X602500D02*
X602955Y450000D01*
X603864*
X604318Y450313*
X604318D02*
X604773Y450938D01*
X604773D02*
X605000Y451563D01*
X605000D02*
Y452500D01*
X603864D02*
X605000D01*
X607045Y456563D02*
Y450000D01*
Y456563D02*
X610000D01*
X607045Y453438D02*
X608864D01*
X607045Y450000D02*
X610000D01*
X617273Y456563D02*
Y450000D01*
Y456563D02*
X620227D01*
X617273Y453438D02*
X619091D01*
X622273Y456563D02*
Y451875D01*
X622500Y450938*
X622500D02*
X622955Y450313D01*
X622955D02*
X623636Y450000D01*
X624091*
X624773Y450313*
X624773D02*
X625227Y450938D01*
X625227D02*
X625455Y451875D01*
Y456563*
X627500D02*
Y450000D01*
X630227*
X632273Y456563D02*
Y450000D01*
X635000*
X642273Y456563D02*
X643409Y450000D01*
X644545Y456563D02*
X643409Y450000D01*
X644545Y456563D02*
X645682Y450000D01*
X646818Y456563D02*
X645682Y450000D01*
X650682Y456563D02*
X648864Y450000D01*
X650682Y456563D02*
X652500Y450000D01*
X649545Y452188D02*
X651818D01*
X654545Y456563D02*
X656364Y450000D01*
X658182Y456563D02*
X656364Y450000D01*
X660227Y456563D02*
Y450000D01*
Y456563D02*
X663182D01*
X660227Y453438D02*
X662045D01*
X660227Y450000D02*
X663182D01*
X670455Y456563D02*
Y450000D01*
Y456563D02*
X672500D01*
X672500D02*
X673182Y456250D01*
X673409Y455938*
X673409D02*
X673636Y455313D01*
X673636D02*
Y454688D01*
X673636D02*
X673409Y454063D01*
X673409D02*
X673182Y453750D01*
X672500Y453438*
X672500D02*
X670455D01*
X672045D02*
X673636Y450000D01*
X675682Y456563D02*
Y450000D01*
Y456563D02*
X678636D01*
X675682Y453438D02*
X677500D01*
X675682Y450000D02*
X678636D01*
X684091Y455000D02*
X683864Y455625D01*
X683409Y456250*
X682955Y456563*
X682955D02*
X682045D01*
X682045D02*
X681591Y456250D01*
X681136Y455625*
X680909Y455000*
X680682Y454063*
X680682D02*
Y452500D01*
X680909Y451563*
X680909D02*
X681136Y450938D01*
X681136D02*
X681591Y450313D01*
X681591D02*
X682045Y450000D01*
X682955*
X683409Y450313*
X683409D02*
X683864Y450938D01*
X683864D02*
X684091Y451563D01*
X687727Y456563D02*
Y450000D01*
X686136Y456563D02*
X689318D01*
X691364D02*
Y450000D01*
X693409Y456563D02*
Y450000D01*
Y456563D02*
X696364D01*
X693409Y453438D02*
X695227D01*
X698409Y456563D02*
Y450000D01*
X700455Y456563D02*
Y450000D01*
Y456563D02*
X703409D01*
X700455Y453438D02*
X702273D01*
X700455Y450000D02*
X703409D01*
X705455Y456563D02*
Y450000D01*
Y456563D02*
X707500D01*
X707500D02*
X708182Y456250D01*
X708409Y455938*
X708409D02*
X708636Y455313D01*
X708636D02*
Y454688D01*
X708636D02*
X708409Y454063D01*
X708409D02*
X708182Y453750D01*
X707500Y453438*
X707500D02*
X705455D01*
X707045D02*
X708636Y450000D01*
X527500Y496563D02*
Y490000D01*
X530227*
X534091Y496563D02*
X532273Y490000D01*
X534091Y496563D02*
X535909Y490000D01*
X532955Y492188D02*
X535227D01*
X537955Y496563D02*
X539773Y493438D01*
X539773D02*
Y490000D01*
X541591Y496563D02*
X539773Y493438D01*
X543636Y496563D02*
Y490000D01*
Y496563D02*
X546591D01*
X543636Y493438D02*
X545455D01*
X543636Y490000D02*
X546591D01*
X548636Y496563D02*
Y490000D01*
Y496563D02*
X550682D01*
X550682D02*
X551364Y496250D01*
X551591Y495938*
X551591D02*
X551818Y495313D01*
X551818D02*
Y494688D01*
X551818D02*
X551591Y494063D01*
X551591D02*
X551364Y493750D01*
X550682Y493438*
X550682D02*
X548636D01*
X550227D02*
X551818Y490000D01*
X559318Y495000D02*
Y495313D01*
X559318D02*
X559545Y495938D01*
X559545D02*
X559773Y496250D01*
X560227Y496563*
X560227D02*
X561136D01*
X561136D02*
X561591Y496250D01*
X561818Y495938*
X561818D02*
X562045Y495313D01*
X562045D02*
Y494688D01*
X562045D02*
X561818Y494063D01*
X561818D02*
X561364Y493125D01*
X559091Y490000*
X562273*
X569545Y492813D02*
X573636D01*
X580909Y496563D02*
Y490000D01*
Y496563D02*
X582955D01*
X582955D02*
X583636Y496250D01*
X583864Y495938*
X583864D02*
X584091Y495313D01*
X584091D02*
Y494375D01*
X583864Y493750*
X583636Y493438*
X583636D02*
X582955Y493125D01*
X580909*
X586136Y496563D02*
X587273Y490000D01*
X588409Y496563D02*
X587273Y490000D01*
X588409Y496563D02*
X589545Y490000D01*
X590682Y496563D02*
X589545Y490000D01*
X592727Y496563D02*
Y490000D01*
Y496563D02*
X594773D01*
X594773D02*
X595455Y496250D01*
X595682Y495938*
X595682D02*
X595909Y495313D01*
X595909D02*
Y494688D01*
X595909D02*
X595682Y494063D01*
X595682D02*
X595455Y493750D01*
X594773Y493438*
X594773D02*
X592727D01*
X594318D02*
X595909Y490000D01*
X603182Y496563D02*
Y490000D01*
Y496563D02*
X605227D01*
X605227D02*
X605909Y496250D01*
X606136Y495938*
X606136D02*
X606364Y495313D01*
X606364D02*
Y494375D01*
X606136Y493750*
X605909Y493438*
X605909D02*
X605227Y493125D01*
X603182*
X608409Y496563D02*
Y490000D01*
X611136*
X615000Y496563D02*
X613182Y490000D01*
X615000Y496563D02*
X616818Y490000D01*
X613864Y492188D02*
X616136D01*
X618864Y496563D02*
Y490000D01*
Y496563D02*
X622045Y490000D01*
Y496563D02*
Y490000D01*
X624091Y496563D02*
Y490000D01*
Y496563D02*
X627045D01*
X624091Y493438D02*
X625909D01*
X624091Y490000D02*
X627045D01*
X634318Y495313D02*
X634773Y495625D01*
X635455Y496563*
X635455D02*
Y490000D01*
X641591Y497813D02*
X637500Y487812D01*
X652045Y495625D02*
X651591Y496250D01*
X650909Y496563*
X650909D02*
X650000D01*
X650000D02*
X649318Y496250D01*
X648864Y495625*
Y495000*
X649091Y494375*
X649318Y494063*
X649318D02*
X649773Y493750D01*
X651136Y493125*
X651591Y492813*
X651591D02*
X651818Y492500D01*
X652045Y491875*
Y490938*
X652045D02*
X651591Y490313D01*
X651591D02*
X650909Y490000D01*
X650000*
X649318Y490313*
X649318D02*
X648864Y490938D01*
X654091Y496563D02*
Y490000D01*
X659545Y495000D02*
X659318Y495625D01*
X658864Y496250*
X658409Y496563*
X658409D02*
X657500D01*
X657500D02*
X657045Y496250D01*
X656591Y495625*
X656364Y495000*
X656136Y494063*
X656136D02*
Y492500D01*
X656364Y491563*
X656364D02*
X656591Y490938D01*
X656591D02*
X657045Y490313D01*
X657045D02*
X657500Y490000D01*
X658409*
X658864Y490313*
X658864D02*
X659318Y490938D01*
X659318D02*
X659545Y491563D01*
X659545D02*
Y492500D01*
X658409D02*
X659545D01*
X661591Y496563D02*
Y490000D01*
Y496563D02*
X664773Y490000D01*
Y496563D02*
Y490000D01*
X668636Y496563D02*
X666818Y490000D01*
X668636Y496563D02*
X670455Y490000D01*
X667500Y492188D02*
X669773D01*
X672500Y496563D02*
Y490000D01*
X675227*
X680455Y495625D02*
X680000Y496250D01*
X679318Y496563*
X679318D02*
X678409D01*
X678409D02*
X677727Y496250D01*
X677273Y495625*
Y495000*
X677500Y494375*
X677727Y494063*
X677727D02*
X678182Y493750D01*
X679545Y493125*
X680000Y492813*
X680000D02*
X680227Y492500D01*
X680455Y491875*
Y490938*
X680455D02*
X680000Y490313D01*
X680000D02*
X679318Y490000D01*
X678409*
X677727Y490313*
X677727D02*
X677273Y490938D01*
G54D25*
X547500Y560000D02*
G75*
G03X547500I-17500J0D01*
G01X538750Y600000D02*
G03X538750I-8750J0D01*
G01X705150Y619000D02*
G03X705150I-2150J0D01*
G01Y629500D02*
G03X705150I-2150J0D01*
G01X698250Y665243D02*
Y794500D01*
G03X698000Y794750I-250J0*
G01X528825*
G03X528653Y794318I-0J-250*
G01X505682Y771347D02*
G03X528653Y794318I11818J11153D01*
G01X505682Y771347D02*
G03X505250Y771175I-182J-172D01*
G01Y650500*
G03X505500Y650250I250J0*
G01X515023*
G03X515272Y650477I-0J250*
G01X525728D02*
G03X515272I-5228J-477D01*
G01X525728D02*
G03X525977Y650250I249J23D01*
G01X532723*
G03X532972Y650477I-0J250*
G01X543428D02*
G03X532972I-5228J-477D01*
G01X543428D02*
G03X543677Y650250I249J23D01*
G01X662399*
X664634Y647830*
G03X664818Y647750I184J170*
G01X678500*
G03X678750Y648000I0J250*
G01Y659750*
X694757*
G03X694934Y660177I0J250*
G01X692055Y663055*
X691250Y665000D02*
G03X692055Y663055I2750J0D01*
G01X691250Y665000D02*
Y675757D01*
G03X691177Y675934I-250J0*
G01X687305Y679806*
G03X687200Y679869I-177J-176*
G01X688000Y685250D02*
G03X687200Y679869I0J-2750D01*
G01X688000Y685250D02*
X688500D01*
X690445Y684445D02*
G03X688500Y685250I-1945J-1945D01*
G01X690445Y684445D02*
X695945Y678945D01*
X696750Y677000D02*
G03X695945Y678945I-2750J0D01*
G01X696750Y677000D02*
Y666243D01*
G03X696823Y666066I250J-0*
G01X697823Y665066*
G03X698250Y665243I177J177*
G01X894750Y661000D02*
Y771175D01*
G03X894318Y771347I-250J0*
G01X871347Y794318D02*
G03X894318Y771347I11153J-11818D01*
G01X871347Y794318D02*
G03X871175Y794750I-172J182D01*
G01X860662*
G03X860519Y794295I0J-250*
G01X854481D02*
G03X860519I3019J-4295D01*
G01X854481D02*
G03X854338Y794750I-143J205D01*
G01X700500*
G03X700250Y794500I0J-250*
G01Y662743*
G03X700323Y662566I250J-0*
G01X700445Y662445*
X701212Y660042D02*
G03X700445Y662445I-2712J458D01*
G01X701212Y660042D02*
G03X701458Y659750I246J-42D01*
G01X710604*
X716805Y653548*
G03X717159I177J177*
G01X728360Y664750*
G03X728259Y665165I-176J176*
G01X726958Y666146D02*
G03X728259Y665165I2042J1354D01*
G01X726958Y666146D02*
G03X726542I-208J-139D01*
G01X722854Y669315D02*
G03X726542Y666146I1646J-1815D01*
G01X722854Y669315D02*
G03Y669685I-168J185D01*
G01X726542Y672854D02*
G03X722854Y669685I-2042J-1354D01*
G01X726542Y672854D02*
G03X726958I208J139D01*
G01X731269Y672425D02*
G03X726958Y672854I-2269J-925D01*
G01X731269Y672425D02*
G03X731731I231J95D01*
G01X735391Y669483D02*
G03X731731Y672425I-1391J2017D01*
G01X735391Y669483D02*
G03X735344Y669113I142J-206D01*
G01X735854Y668178D02*
G03X735344Y669113I-2354J-678D01*
G01X735854Y668178D02*
G03X736337Y668185I241J69D01*
G01X737426Y669755D02*
G03X736337Y668185I1574J-2255D01*
G01X737426Y669755D02*
G03X737488Y670102I-144J205D01*
G01X741542Y672854D02*
G03X737488Y670102I-2042J-1354D01*
G01X741542Y672854D02*
G03X741958I208J139D01*
G01X745588Y673366D02*
G03X741958Y672854I-1588J-1866D01*
G01X745588Y673366D02*
G03X745912I162J190D01*
G01X748425Y669231D02*
G03X745912Y673366I-925J2269D01*
G01X748425Y669231D02*
G03Y668769I95J-231D01*
G01X749146Y664685D02*
G03X748425Y668769I-1646J1815D01*
G01X749146Y664685D02*
G03Y664315I168J-185D01*
G01X745912Y660634D02*
G03X749146Y664315I1588J1866D01*
G01X745912Y660634D02*
G03X745588I-162J-190D01*
G01X742354Y664315D02*
G03X745588Y660634I1646J-1815D01*
G01X742354Y664315D02*
G03Y664685I-168J185D01*
G01X741978Y665117D02*
G03X742354Y664685I2022J1383D01*
G01X741978Y665117D02*
G03X741540Y665072I-207J-141D01*
G01X740945Y664180D02*
G03X741540Y665072I-1945J1945D01*
G01X740945Y664180D02*
X737820Y661055D01*
X735875Y660250D02*
G03X737820Y661055I0J2750D01*
G01X735875Y660250D02*
X731743D01*
G03X731566Y660177I-0J-250*
G01X721048Y649659*
G03Y649305I177J-177*
G01X728250Y642104*
Y621000*
G03X728500Y620750I250J0*
G01X790793*
G03X790970Y620823I-0J250*
G01X830896Y660750*
X894500*
G03X894750Y661000I0J250*
G01Y528825D02*
Y659000D01*
G03X894500Y659250I-250J-0*
G01X831621*
G03X831445Y659177I0J-250*
G01X791957Y619689*
X790896Y619250D02*
G03X791957Y619689I0J1500D01*
G01X790896Y619250D02*
X728250D01*
X726750Y620750D02*
G03X728250Y619250I1500J0D01*
G01X726750Y620750D02*
Y641379D01*
G03X726677Y641555I-250J-0*
G01X719987Y648245*
G03X719634I-176J-177*
G01X712695Y641305*
X710750Y640500D02*
G03X712695Y641305I0J2750D01*
G01X710750Y640500D02*
X709493D01*
G03X709316Y640073I-0J-250*
G01X717945Y631445*
X718750Y629500D02*
G03X717945Y631445I-2750J0D01*
G01X718750Y629500D02*
Y614000D01*
X713250D02*
G03X718750I2750J0D01*
G01X713250D02*
Y628257D01*
G03X713177Y628434I-250J0*
G01X704986Y636625*
G03X704575Y636536I-177J-177*
G01X703945Y635555D02*
G03X704575Y636536I-1945J1945D01*
G01X703945Y635555D02*
X701945Y633555D01*
X700000Y632750D02*
G03X701945Y633555I0J2750D01*
G01X700000Y632750D02*
X696000D01*
X694055Y633555D02*
G03X696000Y632750I1945J1945D01*
G01X694055Y633555D02*
X690934Y636677D01*
G03X690757Y636750I-177J-177*
G01X666500*
Y642250D02*
G03Y636750I0J-2750D01*
G01Y642250D02*
X692000D01*
X693945Y641445D02*
G03X692000Y642250I-1945J-1945D01*
G01X693945Y641445D02*
X694823Y640566D01*
G03X695250Y640743I177J177*
G01Y641750*
X696055Y643695D02*
G03X695250Y641750I1945J-1945D01*
G01X696055Y643695D02*
X697555Y645195D01*
X699500Y646000D02*
G03X697555Y645195I0J-2750D01*
G01X699500Y646000D02*
X709507D01*
G03X709684Y646073I0J250*
G01X715745Y652134*
G03Y652487I-177J177*
G01X710055Y658177*
G03X709879Y658250I-176J-177*
G01X700158*
G03X700020Y658208I0J-250*
G01X696980D02*
G03X700020I1520J2292D01*
G01X696980D02*
G03X696842Y658250I-138J-208D01*
G01X680500*
G03X680250Y658000I0J-250*
G01Y647750*
X678750Y646250D02*
G03X680250Y647750I0J1500D01*
G01X678750Y646250D02*
X664708D01*
X663606Y646732D02*
G03X664708Y646250I1102J1018D01*
G01X663606Y646732D02*
X661817Y648670D01*
G03X661633Y648750I-184J-170*
G01X543492*
G03X543251Y648568I-0J-250*
G01X533149D02*
G03X543251I5051J1432D01*
G01X533149D02*
G03X532908Y648750I-241J-68D01*
G01X525792*
G03X525551Y648568I-0J-250*
G01X515449D02*
G03X525551I5051J1432D01*
G01X515449D02*
G03X515208Y648750I-241J-68D01*
G01X505500*
G03X505250Y648500I0J-250*
G01Y528825*
G03X505682Y528653I250J-0*
G01X528653Y505682D02*
G03X505682Y528653I-11153J11818D01*
G01X528653Y505682D02*
G03X528825Y505250I172J-182D01*
G01X539338*
G03X539481Y505705I-0J250*
G01X545519D02*
G03X539481I-3019J4295D01*
G01X545519D02*
G03X545662Y505250I143J-205D01*
G01X871175*
G03X871347Y505682I0J250*
G01X894318Y528653D02*
G03X871347Y505682I-11818J-11153D01*
G01X894318Y528653D02*
G03X894750Y528825I182J172D01*
G01X547500Y560000D02*
G03X547500I-17500J0D01*
G01X538750Y600000D02*
G03X538750I-8750J0D01*
G01X707146Y610185D02*
G03X703231Y612925I-1646J1815D01*
G01X707146Y610185D02*
G03Y609815I168J-185D01*
G01Y606185D02*
G03Y609815I-1646J1815D01*
G01Y606185D02*
G03Y605815I168J-185D01*
G01Y602185D02*
G03Y605815I-1646J1815D01*
G01Y602185D02*
G03Y601815I168J-185D01*
G01Y598185D02*
G03Y601815I-1646J1815D01*
G01Y598185D02*
G03Y597815I168J-185D01*
G01X703231Y595075D02*
G03X707146Y597815I2269J925D01*
G01X703231Y595075D02*
G03X702769I-231J-95D01*
G01X698231D02*
G03X702769I2269J925D01*
G01X698231D02*
G03X697769I-231J-95D01*
G01X693231D02*
G03X697769I2269J925D01*
G01X693231D02*
G03X692769I-231J-95D01*
G01X688231D02*
G03X692769I2269J925D01*
G01X688231D02*
G03X687769I-231J-95D01*
G01X683458Y594646D02*
G03X687769Y595075I2042J1354D01*
G01X683458Y594646D02*
G03X683042I-208J-139D01*
G01X678958D02*
G03X683042I2042J1354D01*
G01X678958D02*
G03X678542I-208J-139D01*
G01X674458D02*
G03X678542I2042J1354D01*
G01X674458D02*
G03X674042I-208J-139D01*
G01X670354Y597815D02*
G03X674042Y594646I1646J-1815D01*
G01X670354Y597815D02*
G03Y598185I-168J185D01*
G01Y601815D02*
G03Y598185I1646J-1815D01*
G01Y601815D02*
G03Y602185I-168J185D01*
G01Y605815D02*
G03Y602185I1646J-1815D01*
G01Y605815D02*
G03Y606185I-168J185D01*
G01Y609815D02*
G03Y606185I1646J-1815D01*
G01Y609815D02*
G03Y610185I-168J185D01*
G01X674042Y613354D02*
G03X670354Y610185I-2042J-1354D01*
G01X674042Y613354D02*
G03X674458I208J139D01*
G01X678542D02*
G03X674458I-2042J-1354D01*
G01X678542D02*
G03X678958I208J139D01*
G01X683042D02*
G03X678958I-2042J-1354D01*
G01X683042D02*
G03X683458I208J139D01*
G01X687769Y612925D02*
G03X683458Y613354I-2269J-925D01*
G01X687769Y612925D02*
G03X688231I231J95D01*
G01X692769D02*
G03X688231I-2269J-925D01*
G01X692769D02*
G03X693231I231J95D01*
G01X697769D02*
G03X693231I-2269J-925D01*
G01X697769D02*
G03X698231I231J95D01*
G01X702769D02*
G03X698231I-2269J-925D01*
G01X702769D02*
G03X703231I231J95D01*
G01X705150Y619000D02*
G03X705150I-2150J0D01*
G01X705484Y623752D02*
G03Y625248I2016J748D01*
G01Y623752D02*
G03X705016I-234J-87D01*
G01X701208Y623312D02*
G03X705016Y623752I1792J1188D01*
G01X701208Y623312D02*
G03X700792I-208J-139D01*
G01Y625688D02*
G03Y623312I-1792J-1188D01*
G01Y625688D02*
G03X701208I208J139D01*
G01X705016Y625248D02*
G03X701208Y625688I-2016J-748D01*
G01X705016Y625248D02*
G03X705484I234J87D01*
G01X705150Y629500D02*
G03X705150I-2150J0D01*
G01X687412Y616134D02*
G03Y619866I1588J1866D01*
G01Y616134D02*
G03X687088I-162J-190D01*
G01X683458Y616646D02*
G03X687088Y616134I2042J1354D01*
G01X683458Y616646D02*
G03X683042I-208J-139D01*
G01X678958D02*
G03X683042I2042J1354D01*
G01X678958D02*
G03X678542I-208J-139D01*
G01X674458D02*
G03X678542I2042J1354D01*
G01X674458D02*
G03X674042I-208J-139D01*
G01Y619354D02*
G03Y616646I-2042J-1354D01*
G01Y619354D02*
G03X674458I208J139D01*
G01X678542D02*
G03X674458I-2042J-1354D01*
G01X678542D02*
G03X678958I208J139D01*
G01X683042D02*
G03X678958I-2042J-1354D01*
G01X683042D02*
G03X683458I208J139D01*
G01X687088Y619866D02*
G03X683458Y619354I-1588J-1866D01*
G01X687088Y619866D02*
G03X687412I162J190D01*
G01X690866Y630412D02*
G03X687134I-1866J1588D01*
G01X690866D02*
G03Y630088I190J-162D01*
G01X690354Y626458D02*
G03X690866Y630088I-1354J2042D01*
G01X690354Y626458D02*
G03Y626042I139J-208D01*
G01X687412Y622134D02*
G03X690354Y626042I1588J1866D01*
G01X687412Y622134D02*
G03X687088I-162J-190D01*
G01X683458Y622646D02*
G03X687088Y622134I2042J1354D01*
G01X683458Y622646D02*
G03X683042I-208J-139D01*
G01X678958D02*
G03X683042I2042J1354D01*
G01X678958D02*
G03X678542I-208J-139D01*
G01X674458D02*
G03X678542I2042J1354D01*
G01X674458D02*
G03X674042I-208J-139D01*
G01Y625354D02*
G03Y622646I-2042J-1354D01*
G01Y625354D02*
G03X674458I208J139D01*
G01X678542D02*
G03X674458I-2042J-1354D01*
G01X678542D02*
G03X678958I208J139D01*
G01X683042D02*
G03X678958I-2042J-1354D01*
G01X683042D02*
G03X683458I208J139D01*
G01X687088Y625866D02*
G03X683458Y625354I-1588J-1866D01*
G01X687088Y625866D02*
G03X687412I162J190D01*
G01X687646Y626042D02*
G03X687412Y625866I1354J-2042D01*
G01X687646Y626042D02*
G03Y626458I-139J208D01*
G01X687134Y630088D02*
G03X687646Y626458I1866J-1588D01*
G01X687134Y630088D02*
G03Y630412I-190J162D01*
G01X528580Y794449D02*
X698250D01*
X528982Y793999D02*
X698250D01*
X529416Y793549D02*
X698250D01*
X529818Y793099D02*
X698250D01*
X530191Y792649D02*
X698250D01*
X530538Y792199D02*
X698250D01*
X530861Y791749D02*
X698250D01*
X531162Y791299D02*
X698250D01*
X531441Y790849D02*
X698250D01*
X531701Y790399D02*
X698250D01*
X531942Y789949D02*
X698250D01*
X532166Y789499D02*
X698250D01*
X532372Y789049D02*
X698250D01*
X532562Y788599D02*
X698250D01*
X532737Y788149D02*
X698250D01*
X532896Y787699D02*
X698250D01*
X533041Y787249D02*
X698250D01*
X533171Y786799D02*
X698250D01*
X533288Y786349D02*
X698250D01*
X533391Y785899D02*
X698250D01*
X533480Y785449D02*
X698250D01*
X533557Y784999D02*
X698250D01*
X533620Y784549D02*
X698250D01*
X533671Y784099D02*
X698250D01*
X533709Y783649D02*
X698250D01*
X533735Y783199D02*
X698250D01*
X533748Y782749D02*
X698250D01*
X533749Y782299D02*
X698250D01*
X533737Y781849D02*
X698250D01*
X533713Y781399D02*
X698250D01*
X533676Y780949D02*
X698250D01*
X533626Y780499D02*
X698250D01*
X533564Y780049D02*
X698250D01*
X533489Y779599D02*
X698250D01*
X533401Y779149D02*
X698250D01*
X533299Y778699D02*
X698250D01*
X533184Y778249D02*
X698250D01*
X533055Y777799D02*
X698250D01*
X532912Y777349D02*
X698250D01*
X532754Y776899D02*
X698250D01*
X532581Y776449D02*
X698250D01*
X532393Y775999D02*
X698250D01*
X532188Y775549D02*
X698250D01*
X531967Y775099D02*
X698250D01*
X531727Y774649D02*
X698250D01*
X531470Y774199D02*
X698250D01*
X531192Y773749D02*
X698250D01*
X530894Y773299D02*
X698250D01*
X530573Y772849D02*
X698250D01*
X530229Y772399D02*
X698250D01*
X529859Y771949D02*
X698250D01*
X529460Y771499D02*
X698250D01*
X529030Y771049D02*
X698250D01*
X528564Y770599D02*
X698250D01*
X528060Y770149D02*
X698250D01*
X527509Y769699D02*
X698250D01*
X526906Y769249D02*
X698250D01*
X526237Y768799D02*
X698250D01*
X525488Y768349D02*
X698250D01*
X524632Y767899D02*
X698250D01*
X523625Y767449D02*
X698250D01*
X522376Y766999D02*
X698250D01*
X520601Y766549D02*
X698250D01*
X505250Y766099D02*
X698250D01*
X505250Y765649D02*
X698250D01*
X505250Y765199D02*
X698250D01*
X505250Y764749D02*
X698250D01*
X505250Y764299D02*
X698250D01*
X505250Y763849D02*
X698250D01*
X505250Y763399D02*
X698250D01*
X505250Y762949D02*
X698250D01*
X505250Y762499D02*
X698250D01*
X505250Y762049D02*
X698250D01*
X505250Y761599D02*
X698250D01*
X505250Y761149D02*
X698250D01*
X505250Y760699D02*
X698250D01*
X505250Y760249D02*
X698250D01*
X505250Y759799D02*
X698250D01*
X505250Y759349D02*
X698250D01*
X505250Y758899D02*
X698250D01*
X505250Y758449D02*
X698250D01*
X505250Y757999D02*
X698250D01*
X505250Y757549D02*
X698250D01*
X505250Y757099D02*
X698250D01*
X505250Y756649D02*
X698250D01*
X505250Y756199D02*
X698250D01*
X505250Y755749D02*
X698250D01*
X505250Y755299D02*
X698250D01*
X505250Y754849D02*
X698250D01*
X505250Y754399D02*
X698250D01*
X505250Y753949D02*
X698250D01*
X505250Y753499D02*
X698250D01*
X505250Y753049D02*
X698250D01*
X505250Y752599D02*
X698250D01*
X505250Y752149D02*
X698250D01*
X505250Y751699D02*
X698250D01*
X505250Y751249D02*
X698250D01*
X505250Y750799D02*
X698250D01*
X505250Y750349D02*
X698250D01*
X505250Y749899D02*
X698250D01*
X505250Y749449D02*
X698250D01*
X505250Y748999D02*
X698250D01*
X505250Y748549D02*
X698250D01*
X505250Y748099D02*
X698250D01*
X505250Y747649D02*
X698250D01*
X505250Y747199D02*
X698250D01*
X505250Y746749D02*
X698250D01*
X505250Y746299D02*
X698250D01*
X505250Y745849D02*
X698250D01*
X505250Y745399D02*
X698250D01*
X505250Y744949D02*
X698250D01*
X505250Y744499D02*
X698250D01*
X505250Y744049D02*
X698250D01*
X505250Y743599D02*
X698250D01*
X505250Y743149D02*
X698250D01*
X505250Y742699D02*
X698250D01*
X505250Y742249D02*
X698250D01*
X505250Y741799D02*
X698250D01*
X505250Y741349D02*
X698250D01*
X505250Y740899D02*
X698250D01*
X505250Y740449D02*
X698250D01*
X505250Y739999D02*
X698250D01*
X505250Y739549D02*
X698250D01*
X505250Y739099D02*
X698250D01*
X505250Y738649D02*
X698250D01*
X505250Y738199D02*
X698250D01*
X505250Y737749D02*
X698250D01*
X505250Y737299D02*
X698250D01*
X505250Y736849D02*
X698250D01*
X505250Y736399D02*
X698250D01*
X505250Y735949D02*
X698250D01*
X505250Y735499D02*
X698250D01*
X505250Y735049D02*
X698250D01*
X505250Y734599D02*
X698250D01*
X505250Y734149D02*
X698250D01*
X505250Y733699D02*
X698250D01*
X505250Y733249D02*
X698250D01*
X505250Y732799D02*
X698250D01*
X505250Y732349D02*
X698250D01*
X505250Y731899D02*
X698250D01*
X505250Y731449D02*
X698250D01*
X505250Y730999D02*
X698250D01*
X505250Y730549D02*
X698250D01*
X505250Y730099D02*
X698250D01*
X505250Y729649D02*
X698250D01*
X505250Y729199D02*
X698250D01*
X505250Y728749D02*
X698250D01*
X505250Y728299D02*
X698250D01*
X505250Y727849D02*
X698250D01*
X505250Y727399D02*
X698250D01*
X505250Y726949D02*
X698250D01*
X505250Y726499D02*
X698250D01*
X505250Y726049D02*
X698250D01*
X505250Y725599D02*
X698250D01*
X505250Y725149D02*
X698250D01*
X505250Y724699D02*
X698250D01*
X505250Y724249D02*
X698250D01*
X505250Y723799D02*
X698250D01*
X505250Y723349D02*
X698250D01*
X505250Y722899D02*
X698250D01*
X505250Y722449D02*
X698250D01*
X505250Y721999D02*
X698250D01*
X505250Y721549D02*
X698250D01*
X505250Y721099D02*
X698250D01*
X505250Y720649D02*
X698250D01*
X505250Y720199D02*
X698250D01*
X505250Y719749D02*
X698250D01*
X505250Y719299D02*
X698250D01*
X505250Y718849D02*
X698250D01*
X505250Y718399D02*
X698250D01*
X505250Y717949D02*
X698250D01*
X505250Y717499D02*
X698250D01*
X505250Y717049D02*
X698250D01*
X505250Y716599D02*
X698250D01*
X505250Y716149D02*
X698250D01*
X505250Y715699D02*
X698250D01*
X505250Y715249D02*
X698250D01*
X505250Y714799D02*
X698250D01*
X505250Y714349D02*
X698250D01*
X505250Y713899D02*
X698250D01*
X505250Y713449D02*
X698250D01*
X505250Y712999D02*
X698250D01*
X505250Y712549D02*
X698250D01*
X505250Y712099D02*
X698250D01*
X505250Y711649D02*
X698250D01*
X505250Y711199D02*
X698250D01*
X505250Y710749D02*
X698250D01*
X505250Y710299D02*
X698250D01*
X505250Y709849D02*
X698250D01*
X505250Y709399D02*
X698250D01*
X505250Y708949D02*
X698250D01*
X505250Y708499D02*
X698250D01*
X505250Y708049D02*
X698250D01*
X505250Y707599D02*
X698250D01*
X505250Y707149D02*
X698250D01*
X505250Y706699D02*
X698250D01*
X505250Y706249D02*
X698250D01*
X505250Y705799D02*
X698250D01*
X505250Y705349D02*
X698250D01*
X505250Y704899D02*
X698250D01*
X505250Y704449D02*
X698250D01*
X505250Y703999D02*
X698250D01*
X505250Y703549D02*
X698250D01*
X505250Y703099D02*
X698250D01*
X505250Y702649D02*
X698250D01*
X505250Y702199D02*
X698250D01*
X505250Y701749D02*
X698250D01*
X505250Y701299D02*
X698250D01*
X505250Y700849D02*
X698250D01*
X505250Y700399D02*
X698250D01*
X505250Y699949D02*
X698250D01*
X505250Y699499D02*
X698250D01*
X505250Y699049D02*
X698250D01*
X505250Y698599D02*
X698250D01*
X505250Y698149D02*
X698250D01*
X505250Y697699D02*
X698250D01*
X505250Y697249D02*
X698250D01*
X505250Y696799D02*
X698250D01*
X505250Y696349D02*
X698250D01*
X505250Y695899D02*
X698250D01*
X505250Y695449D02*
X698250D01*
X505250Y694999D02*
X698250D01*
X505250Y694549D02*
X698250D01*
X505250Y694099D02*
X698250D01*
X505250Y693649D02*
X698250D01*
X505250Y693199D02*
X698250D01*
X505250Y692749D02*
X698250D01*
X505250Y692299D02*
X698250D01*
X505250Y691849D02*
X698250D01*
X505250Y691399D02*
X698250D01*
X505250Y690949D02*
X698250D01*
X505250Y690499D02*
X698250D01*
X505250Y690049D02*
X698250D01*
X505250Y689599D02*
X698250D01*
X505250Y689149D02*
X698250D01*
X505250Y688699D02*
X698250D01*
X505250Y688249D02*
X698250D01*
X505250Y687799D02*
X698250D01*
X505250Y687349D02*
X698250D01*
X505250Y686899D02*
X698250D01*
X505250Y686449D02*
X698250D01*
X505250Y685999D02*
X698250D01*
X505250Y685549D02*
X698250D01*
X689400Y685099D02*
X698250D01*
X690216Y684649D02*
X698250D01*
X690690Y684199D02*
X698250D01*
X691140Y683749D02*
X698250D01*
X691590Y683299D02*
X698250D01*
X692040Y682849D02*
X698250D01*
X692490Y682399D02*
X698250D01*
X692940Y681949D02*
X698250D01*
X693390Y681499D02*
X698250D01*
X693840Y681049D02*
X698250D01*
X694290Y680599D02*
X698250D01*
X694740Y680149D02*
X698250D01*
X695190Y679699D02*
X698250D01*
X695640Y679249D02*
X698250D01*
X696080Y678799D02*
X698250D01*
X696397Y678349D02*
X698250D01*
X696599Y677899D02*
X698250D01*
X696713Y677449D02*
X698250D01*
X696750Y676999D02*
X698250D01*
X696750Y676549D02*
X698250D01*
X696750Y676099D02*
X698250D01*
X696750Y675649D02*
X698250D01*
X696750Y675199D02*
X698250D01*
X696750Y674749D02*
X698250D01*
X696750Y674299D02*
X698250D01*
X696750Y673849D02*
X698250D01*
X696750Y673399D02*
X698250D01*
X696750Y672949D02*
X698250D01*
X696750Y672499D02*
X698250D01*
X696750Y672049D02*
X698250D01*
X696750Y671599D02*
X698250D01*
X696750Y671149D02*
X698250D01*
X696750Y670699D02*
X698250D01*
X696750Y670249D02*
X698250D01*
X696750Y669799D02*
X698250D01*
X696750Y669349D02*
X698250D01*
X696750Y668899D02*
X698250D01*
X696750Y668449D02*
X698250D01*
X696750Y667999D02*
X698250D01*
X696750Y667549D02*
X698250D01*
X696750Y667099D02*
X698250D01*
X696750Y666649D02*
X698250D01*
X696754Y666199D02*
X698250D01*
X697140Y665749D02*
X698250D01*
X697590Y665299D02*
X698250D01*
X505250Y659899D02*
X694986D01*
X505250Y660349D02*
X694762D01*
X505250Y660799D02*
X694312D01*
X505250Y661249D02*
X693862D01*
X505250Y661699D02*
X693412D01*
X505250Y662149D02*
X692962D01*
X505250Y662599D02*
X692512D01*
X505250Y663049D02*
X692062D01*
X505250Y663499D02*
X691696D01*
X505250Y663949D02*
X691459D01*
X505250Y664399D02*
X691317D01*
X505250Y664849D02*
X691254D01*
X505250Y675649D02*
X691250D01*
X505250Y675199D02*
X691250D01*
X505250Y674749D02*
X691250D01*
X505250Y674299D02*
X691250D01*
X505250Y673849D02*
X691250D01*
X505250Y673399D02*
X691250D01*
X505250Y672949D02*
X691250D01*
X505250Y672499D02*
X691250D01*
X505250Y672049D02*
X691250D01*
X505250Y671599D02*
X691250D01*
X505250Y671149D02*
X691250D01*
X505250Y670699D02*
X691250D01*
X505250Y670249D02*
X691250D01*
X505250Y669799D02*
X691250D01*
X505250Y669349D02*
X691250D01*
X505250Y668899D02*
X691250D01*
X505250Y668449D02*
X691250D01*
X505250Y667999D02*
X691250D01*
X505250Y667549D02*
X691250D01*
X505250Y667099D02*
X691250D01*
X505250Y666649D02*
X691250D01*
X505250Y666199D02*
X691250D01*
X505250Y665749D02*
X691250D01*
X505250Y665299D02*
X691250D01*
X505250Y676099D02*
X691012D01*
X505250Y676549D02*
X690562D01*
X505250Y676999D02*
X690112D01*
X505250Y677449D02*
X689662D01*
X505250Y677899D02*
X689212D01*
X505250Y678349D02*
X688762D01*
X505250Y678799D02*
X688312D01*
X505250Y679249D02*
X687862D01*
X505250Y679699D02*
X687412D01*
X505250Y685099D02*
X687100D01*
X505250Y680149D02*
X686574D01*
X505250Y684649D02*
X686284D01*
X505250Y680599D02*
X686013D01*
X505250Y684199D02*
X685837D01*
X505250Y681049D02*
X685664D01*
X505250Y683749D02*
X685550D01*
X505250Y681499D02*
X685439D01*
X505250Y683299D02*
X685369D01*
X505250Y681949D02*
X685306D01*
X505250Y682849D02*
X685272D01*
X505250Y682399D02*
X685252D01*
X505250Y659449D02*
X678750D01*
X505250Y658999D02*
X678750D01*
X505250Y658549D02*
X678750D01*
X505250Y658099D02*
X678750D01*
X505250Y657649D02*
X678750D01*
X505250Y657199D02*
X678750D01*
X505250Y656749D02*
X678750D01*
X505250Y656299D02*
X678750D01*
X505250Y655849D02*
X678750D01*
X505250Y655399D02*
X678750D01*
X539953Y654949D02*
X678750D01*
X540906Y654499D02*
X678750D01*
X541542Y654049D02*
X678750D01*
X542023Y653599D02*
X678750D01*
X542401Y653149D02*
X678750D01*
X542703Y652699D02*
X678750D01*
X542944Y652249D02*
X678750D01*
X543132Y651799D02*
X678750D01*
X543274Y651349D02*
X678750D01*
X543373Y650899D02*
X678750D01*
X543433Y650449D02*
X678750D01*
X662632Y649999D02*
X678750D01*
X663047Y649549D02*
X678750D01*
X663463Y649099D02*
X678750D01*
X663878Y648649D02*
X678750D01*
X664294Y648199D02*
X678750D01*
X522253Y654949D02*
X536447D01*
X523206Y654499D02*
X535494D01*
X523842Y654049D02*
X534858D01*
X524323Y653599D02*
X534377D01*
X524701Y653149D02*
X533999D01*
X525003Y652699D02*
X533697D01*
X525244Y652249D02*
X533456D01*
X525432Y651799D02*
X533268D01*
X525574Y651349D02*
X533126D01*
X525673Y650899D02*
X533027D01*
X525733Y650449D02*
X532967D01*
X505250Y654949D02*
X518747D01*
X505250Y654499D02*
X517794D01*
X505250Y654049D02*
X517158D01*
X505250Y653599D02*
X516677D01*
X505250Y653149D02*
X516299D01*
X505250Y652699D02*
X515997D01*
X505250Y652249D02*
X515756D01*
X505250Y651799D02*
X515568D01*
X505250Y651349D02*
X515426D01*
X505250Y650899D02*
X515327D01*
X505255Y650449D02*
X515267D01*
X505250Y766549D02*
X514399D01*
X505250Y766999D02*
X512624D01*
X505250Y767449D02*
X511375D01*
X505250Y767899D02*
X510368D01*
X505250Y768349D02*
X509512D01*
X505250Y768799D02*
X508763D01*
X505250Y769249D02*
X508094D01*
X505250Y769699D02*
X507491D01*
X505250Y770149D02*
X506940D01*
X505250Y770599D02*
X506436D01*
X505250Y771049D02*
X505970D01*
X894030D02*
X894750D01*
X893564Y770599D02*
X894750D01*
X893060Y770149D02*
X894750D01*
X892509Y769699D02*
X894750D01*
X891906Y769249D02*
X894750D01*
X891237Y768799D02*
X894750D01*
X890488Y768349D02*
X894750D01*
X889632Y767899D02*
X894750D01*
X888625Y767449D02*
X894750D01*
X887376Y766999D02*
X894750D01*
X885601Y766549D02*
X894750D01*
X700250Y766099D02*
X894750D01*
X700250Y765649D02*
X894750D01*
X700250Y765199D02*
X894750D01*
X700250Y764749D02*
X894750D01*
X700250Y764299D02*
X894750D01*
X700250Y763849D02*
X894750D01*
X700250Y763399D02*
X894750D01*
X700250Y762949D02*
X894750D01*
X700250Y762499D02*
X894750D01*
X700250Y762049D02*
X894750D01*
X700250Y761599D02*
X894750D01*
X700250Y761149D02*
X894750D01*
X700250Y760699D02*
X894750D01*
X700250Y760249D02*
X894750D01*
X700250Y759799D02*
X894750D01*
X700250Y759349D02*
X894750D01*
X700250Y758899D02*
X894750D01*
X700250Y758449D02*
X894750D01*
X700250Y757999D02*
X894750D01*
X700250Y757549D02*
X894750D01*
X700250Y757099D02*
X894750D01*
X700250Y756649D02*
X894750D01*
X700250Y756199D02*
X894750D01*
X700250Y755749D02*
X894750D01*
X700250Y755299D02*
X894750D01*
X700250Y754849D02*
X894750D01*
X700250Y754399D02*
X894750D01*
X700250Y753949D02*
X894750D01*
X700250Y753499D02*
X894750D01*
X700250Y753049D02*
X894750D01*
X700250Y752599D02*
X894750D01*
X700250Y752149D02*
X894750D01*
X700250Y751699D02*
X894750D01*
X700250Y751249D02*
X894750D01*
X700250Y750799D02*
X894750D01*
X700250Y750349D02*
X894750D01*
X700250Y749899D02*
X894750D01*
X700250Y749449D02*
X894750D01*
X700250Y748999D02*
X894750D01*
X700250Y748549D02*
X894750D01*
X700250Y748099D02*
X894750D01*
X700250Y747649D02*
X894750D01*
X700250Y747199D02*
X894750D01*
X700250Y746749D02*
X894750D01*
X700250Y746299D02*
X894750D01*
X700250Y745849D02*
X894750D01*
X700250Y745399D02*
X894750D01*
X700250Y744949D02*
X894750D01*
X700250Y744499D02*
X894750D01*
X700250Y744049D02*
X894750D01*
X700250Y743599D02*
X894750D01*
X700250Y743149D02*
X894750D01*
X700250Y742699D02*
X894750D01*
X700250Y742249D02*
X894750D01*
X700250Y741799D02*
X894750D01*
X700250Y741349D02*
X894750D01*
X700250Y740899D02*
X894750D01*
X700250Y740449D02*
X894750D01*
X700250Y739999D02*
X894750D01*
X700250Y739549D02*
X894750D01*
X700250Y739099D02*
X894750D01*
X700250Y738649D02*
X894750D01*
X700250Y738199D02*
X894750D01*
X700250Y737749D02*
X894750D01*
X700250Y737299D02*
X894750D01*
X700250Y736849D02*
X894750D01*
X700250Y736399D02*
X894750D01*
X700250Y735949D02*
X894750D01*
X700250Y735499D02*
X894750D01*
X700250Y735049D02*
X894750D01*
X700250Y734599D02*
X894750D01*
X700250Y734149D02*
X894750D01*
X700250Y733699D02*
X894750D01*
X700250Y733249D02*
X894750D01*
X700250Y732799D02*
X894750D01*
X700250Y732349D02*
X894750D01*
X700250Y731899D02*
X894750D01*
X700250Y731449D02*
X894750D01*
X700250Y730999D02*
X894750D01*
X700250Y730549D02*
X894750D01*
X700250Y730099D02*
X894750D01*
X700250Y729649D02*
X894750D01*
X700250Y729199D02*
X894750D01*
X700250Y728749D02*
X894750D01*
X700250Y728299D02*
X894750D01*
X700250Y727849D02*
X894750D01*
X700250Y727399D02*
X894750D01*
X700250Y726949D02*
X894750D01*
X700250Y726499D02*
X894750D01*
X700250Y726049D02*
X894750D01*
X700250Y725599D02*
X894750D01*
X700250Y725149D02*
X894750D01*
X700250Y724699D02*
X894750D01*
X700250Y724249D02*
X894750D01*
X700250Y723799D02*
X894750D01*
X700250Y723349D02*
X894750D01*
X700250Y722899D02*
X894750D01*
X700250Y722449D02*
X894750D01*
X700250Y721999D02*
X894750D01*
X700250Y721549D02*
X894750D01*
X700250Y721099D02*
X894750D01*
X700250Y720649D02*
X894750D01*
X700250Y720199D02*
X894750D01*
X700250Y719749D02*
X894750D01*
X700250Y719299D02*
X894750D01*
X700250Y718849D02*
X894750D01*
X700250Y718399D02*
X894750D01*
X700250Y717949D02*
X894750D01*
X700250Y717499D02*
X894750D01*
X700250Y717049D02*
X894750D01*
X700250Y716599D02*
X894750D01*
X700250Y716149D02*
X894750D01*
X700250Y715699D02*
X894750D01*
X700250Y715249D02*
X894750D01*
X700250Y714799D02*
X894750D01*
X700250Y714349D02*
X894750D01*
X700250Y713899D02*
X894750D01*
X700250Y713449D02*
X894750D01*
X700250Y712999D02*
X894750D01*
X700250Y712549D02*
X894750D01*
X700250Y712099D02*
X894750D01*
X700250Y711649D02*
X894750D01*
X700250Y711199D02*
X894750D01*
X700250Y710749D02*
X894750D01*
X700250Y710299D02*
X894750D01*
X700250Y709849D02*
X894750D01*
X700250Y709399D02*
X894750D01*
X700250Y708949D02*
X894750D01*
X700250Y708499D02*
X894750D01*
X700250Y708049D02*
X894750D01*
X700250Y707599D02*
X894750D01*
X700250Y707149D02*
X894750D01*
X700250Y706699D02*
X894750D01*
X700250Y706249D02*
X894750D01*
X700250Y705799D02*
X894750D01*
X700250Y705349D02*
X894750D01*
X700250Y704899D02*
X894750D01*
X700250Y704449D02*
X894750D01*
X700250Y703999D02*
X894750D01*
X700250Y703549D02*
X894750D01*
X700250Y703099D02*
X894750D01*
X700250Y702649D02*
X894750D01*
X700250Y702199D02*
X894750D01*
X700250Y701749D02*
X894750D01*
X700250Y701299D02*
X894750D01*
X700250Y700849D02*
X894750D01*
X700250Y700399D02*
X894750D01*
X700250Y699949D02*
X894750D01*
X700250Y699499D02*
X894750D01*
X700250Y699049D02*
X894750D01*
X700250Y698599D02*
X894750D01*
X700250Y698149D02*
X894750D01*
X700250Y697699D02*
X894750D01*
X700250Y697249D02*
X894750D01*
X700250Y696799D02*
X894750D01*
X700250Y696349D02*
X894750D01*
X700250Y695899D02*
X894750D01*
X700250Y695449D02*
X894750D01*
X700250Y694999D02*
X894750D01*
X700250Y694549D02*
X894750D01*
X700250Y694099D02*
X894750D01*
X700250Y693649D02*
X894750D01*
X700250Y693199D02*
X894750D01*
X700250Y692749D02*
X894750D01*
X700250Y692299D02*
X894750D01*
X700250Y691849D02*
X894750D01*
X700250Y691399D02*
X894750D01*
X700250Y690949D02*
X894750D01*
X700250Y690499D02*
X894750D01*
X700250Y690049D02*
X894750D01*
X700250Y689599D02*
X894750D01*
X700250Y689149D02*
X894750D01*
X700250Y688699D02*
X894750D01*
X700250Y688249D02*
X894750D01*
X700250Y687799D02*
X894750D01*
X700250Y687349D02*
X894750D01*
X700250Y686899D02*
X894750D01*
X700250Y686449D02*
X894750D01*
X700250Y685999D02*
X894750D01*
X700250Y685549D02*
X894750D01*
X700250Y685099D02*
X894750D01*
X700250Y684649D02*
X894750D01*
X700250Y684199D02*
X894750D01*
X700250Y683749D02*
X894750D01*
X700250Y683299D02*
X894750D01*
X700250Y682849D02*
X894750D01*
X700250Y682399D02*
X894750D01*
X700250Y681949D02*
X894750D01*
X700250Y681499D02*
X894750D01*
X700250Y681049D02*
X894750D01*
X700250Y680599D02*
X894750D01*
X700250Y680149D02*
X894750D01*
X700250Y679699D02*
X894750D01*
X700250Y679249D02*
X894750D01*
X700250Y678799D02*
X894750D01*
X700250Y678349D02*
X894750D01*
X700250Y677899D02*
X894750D01*
X700250Y677449D02*
X894750D01*
X700250Y676999D02*
X894750D01*
X700250Y676549D02*
X894750D01*
X700250Y676099D02*
X894750D01*
X700250Y675649D02*
X894750D01*
X700250Y675199D02*
X894750D01*
X700250Y674749D02*
X894750D01*
X700250Y674299D02*
X894750D01*
X748197Y673849D02*
X894750D01*
X749048Y673399D02*
X894750D01*
X749476Y672949D02*
X894750D01*
X749737Y672499D02*
X894750D01*
X749888Y672049D02*
X894750D01*
X749948Y671599D02*
X894750D01*
X749925Y671149D02*
X894750D01*
X749815Y670699D02*
X894750D01*
X749606Y670249D02*
X894750D01*
X749263Y669799D02*
X894750D01*
X748672Y669349D02*
X894750D01*
X748291Y668899D02*
X894750D01*
X748985Y668449D02*
X894750D01*
X749438Y667999D02*
X894750D01*
X749714Y667549D02*
X894750D01*
X749876Y667099D02*
X894750D01*
X749946Y666649D02*
X894750D01*
X749931Y666199D02*
X894750D01*
X749832Y665749D02*
X894750D01*
X749635Y665299D02*
X894750D01*
X749310Y664849D02*
X894750D01*
X749085Y664399D02*
X894750D01*
X749476Y663949D02*
X894750D01*
X749737Y663499D02*
X894750D01*
X749888Y663049D02*
X894750D01*
X749948Y662599D02*
X894750D01*
X749925Y662149D02*
X894750D01*
X749815Y661699D02*
X894750D01*
X749606Y661249D02*
X894750D01*
X749263Y660799D02*
X894648D01*
X700250Y766549D02*
X879399D01*
X700250Y766999D02*
X877624D01*
X700250Y767449D02*
X876375D01*
X700250Y767899D02*
X875368D01*
X700250Y768349D02*
X874512D01*
X700250Y768799D02*
X873763D01*
X700250Y769249D02*
X873094D01*
X700250Y769699D02*
X872491D01*
X700250Y770149D02*
X871940D01*
X700250Y770599D02*
X871436D01*
X860418Y794449D02*
X871420D01*
X860902Y793999D02*
X871018D01*
X700250Y771049D02*
X870970D01*
X861369Y793549D02*
X870584D01*
X700250Y771499D02*
X870540D01*
X861738Y793099D02*
X870182D01*
X700250Y771949D02*
X870141D01*
X862033Y792649D02*
X869809D01*
X700250Y772399D02*
X869771D01*
X862267Y792199D02*
X869462D01*
X700250Y772849D02*
X869427D01*
X862450Y791749D02*
X869139D01*
X700250Y773299D02*
X869106D01*
X862587Y791299D02*
X868838D01*
X700250Y773749D02*
X868808D01*
X862681Y790849D02*
X868559D01*
X700250Y774199D02*
X868530D01*
X862735Y790399D02*
X868299D01*
X700250Y774649D02*
X868273D01*
X862750Y789949D02*
X868058D01*
X700250Y775099D02*
X868033D01*
X862726Y789499D02*
X867834D01*
X700250Y775549D02*
X867812D01*
X862663Y789049D02*
X867628D01*
X700250Y775999D02*
X867607D01*
X862560Y788599D02*
X867438D01*
X700250Y776449D02*
X867419D01*
X862413Y788149D02*
X867263D01*
X700250Y776899D02*
X867246D01*
X862219Y787699D02*
X867104D01*
X700250Y777349D02*
X867088D01*
X861971Y787249D02*
X866959D01*
X700250Y777799D02*
X866945D01*
X861661Y786799D02*
X866829D01*
X700250Y778249D02*
X866816D01*
X861272Y786349D02*
X866712D01*
X700250Y778699D02*
X866701D01*
X860777Y785899D02*
X866609D01*
X700250Y779149D02*
X866599D01*
X860117Y785449D02*
X866520D01*
X700250Y779599D02*
X866511D01*
X859097Y784999D02*
X866443D01*
X700250Y780049D02*
X866436D01*
X700250Y784549D02*
X866380D01*
X700250Y780499D02*
X866374D01*
X700250Y784099D02*
X866329D01*
X700250Y780949D02*
X866324D01*
X700250Y783649D02*
X866291D01*
X700250Y781399D02*
X866287D01*
X700250Y783199D02*
X866265D01*
X700250Y781849D02*
X866263D01*
X700250Y782749D02*
X866252D01*
X700250Y782299D02*
X866251D01*
X700250Y784999D02*
X855903D01*
X700250Y785449D02*
X854883D01*
X700250Y794449D02*
X854582D01*
X700250Y785899D02*
X854223D01*
X700250Y793999D02*
X854098D01*
X700250Y786349D02*
X853728D01*
X700250Y793549D02*
X853631D01*
X700250Y786799D02*
X853339D01*
X700250Y793099D02*
X853262D01*
X700250Y787249D02*
X853029D01*
X700250Y792649D02*
X852967D01*
X700250Y787699D02*
X852781D01*
X700250Y792199D02*
X852733D01*
X700250Y788149D02*
X852587D01*
X700250Y791749D02*
X852550D01*
X700250Y788599D02*
X852440D01*
X700250Y791299D02*
X852413D01*
X700250Y789049D02*
X852337D01*
X700250Y790849D02*
X852319D01*
X700250Y789499D02*
X852274D01*
X700250Y790399D02*
X852265D01*
X700250Y789949D02*
X852250D01*
X748672Y660349D02*
X830495D01*
X731288Y659899D02*
X830045D01*
X730838Y659449D02*
X829595D01*
X730388Y658999D02*
X829145D01*
X729938Y658549D02*
X828695D01*
X729488Y658099D02*
X828245D01*
X729038Y657649D02*
X827795D01*
X728588Y657199D02*
X827345D01*
X728138Y656749D02*
X826895D01*
X727688Y656299D02*
X826445D01*
X727238Y655849D02*
X825995D01*
X726788Y655399D02*
X825545D01*
X726338Y654949D02*
X825095D01*
X725888Y654499D02*
X824645D01*
X725438Y654049D02*
X824195D01*
X724988Y653599D02*
X823745D01*
X724538Y653149D02*
X823295D01*
X724088Y652699D02*
X822845D01*
X723638Y652249D02*
X822395D01*
X723188Y651799D02*
X821945D01*
X722738Y651349D02*
X821495D01*
X722288Y650899D02*
X821045D01*
X721838Y650449D02*
X820595D01*
X721388Y649999D02*
X820145D01*
X720984Y649549D02*
X819695D01*
X721255Y649099D02*
X819245D01*
X721705Y648649D02*
X818795D01*
X722155Y648199D02*
X818345D01*
X722605Y647749D02*
X817895D01*
X723055Y647299D02*
X817445D01*
X723505Y646849D02*
X816995D01*
X723955Y646399D02*
X816545D01*
X724405Y645949D02*
X816095D01*
X724855Y645499D02*
X815645D01*
X725305Y645049D02*
X815195D01*
X725755Y644599D02*
X814745D01*
X726205Y644149D02*
X814295D01*
X726655Y643699D02*
X813845D01*
X727105Y643249D02*
X813395D01*
X727555Y642799D02*
X812945D01*
X728005Y642349D02*
X812495D01*
X728250Y641899D02*
X812045D01*
X728250Y641449D02*
X811595D01*
X728250Y640999D02*
X811145D01*
X728250Y640549D02*
X810695D01*
X728250Y640099D02*
X810245D01*
X728250Y639649D02*
X809795D01*
X728250Y639199D02*
X809345D01*
X728250Y638749D02*
X808895D01*
X728250Y638299D02*
X808445D01*
X728250Y637849D02*
X807995D01*
X728250Y637399D02*
X807545D01*
X728250Y636949D02*
X807095D01*
X728250Y636499D02*
X806645D01*
X728250Y636049D02*
X806195D01*
X728250Y635599D02*
X805745D01*
X728250Y635149D02*
X805295D01*
X728250Y634699D02*
X804845D01*
X728250Y634249D02*
X804395D01*
X728250Y633799D02*
X803945D01*
X728250Y633349D02*
X803495D01*
X728250Y632899D02*
X803045D01*
X728250Y632449D02*
X802595D01*
X728250Y631999D02*
X802145D01*
X728250Y631549D02*
X801695D01*
X728250Y631099D02*
X801245D01*
X728250Y630649D02*
X800795D01*
X728250Y630199D02*
X800345D01*
X728250Y629749D02*
X799895D01*
X728250Y629299D02*
X799445D01*
X728250Y628849D02*
X798995D01*
X728250Y628399D02*
X798545D01*
X728250Y627949D02*
X798095D01*
X728250Y627499D02*
X797645D01*
X728250Y627049D02*
X797195D01*
X728250Y626599D02*
X796745D01*
X728250Y626149D02*
X796295D01*
X728250Y625699D02*
X795845D01*
X728250Y625249D02*
X795395D01*
X728250Y624799D02*
X794945D01*
X728250Y624349D02*
X794495D01*
X728250Y623899D02*
X794045D01*
X728250Y623449D02*
X793595D01*
X728250Y622999D02*
X793145D01*
X728250Y622549D02*
X792695D01*
X728250Y622099D02*
X792245D01*
X728250Y621649D02*
X791795D01*
X728250Y621199D02*
X791345D01*
X744697Y673849D02*
X746803D01*
X745172Y660349D02*
X746328D01*
X745548Y673399D02*
X745952D01*
X740197Y673849D02*
X743303D01*
X736605Y660349D02*
X742828D01*
X741048Y673399D02*
X742452D01*
X741141Y664399D02*
X742415D01*
X737523Y660799D02*
X742237D01*
X741436Y664849D02*
X742190D01*
X741476Y672949D02*
X742024D01*
X740713Y663949D02*
X742024D01*
X738013Y661249D02*
X741894D01*
X740263Y663499D02*
X741763D01*
X738463Y661699D02*
X741685D01*
X739813Y663049D02*
X741612D01*
X738913Y662149D02*
X741575D01*
X739363Y662599D02*
X741552D01*
X734697Y673849D02*
X738803D01*
X735548Y673399D02*
X737952D01*
X735976Y672949D02*
X737524D01*
X735763Y669799D02*
X737474D01*
X736106Y670249D02*
X737394D01*
X736237Y672499D02*
X737263D01*
X736315Y670699D02*
X737185D01*
X736388Y672049D02*
X737112D01*
X736425Y671149D02*
X737075D01*
X736448Y671599D02*
X737052D01*
X735293Y669349D02*
X736964D01*
X735512Y668899D02*
X736632D01*
X735759Y668449D02*
X736419D01*
X736068Y667999D02*
X736121D01*
X729697Y673849D02*
X733303D01*
X730548Y673399D02*
X732452D01*
X730976Y672949D02*
X732024D01*
X731237Y672499D02*
X731763D01*
X700250Y664849D02*
X728421D01*
X725197Y673849D02*
X728303D01*
X700250Y664399D02*
X728010D01*
X725576Y665299D02*
X727924D01*
X700250Y663949D02*
X727560D01*
X726048Y673399D02*
X727452D01*
X726213Y665749D02*
X727287D01*
X700250Y663499D02*
X727110D01*
X726476Y672949D02*
X727024D01*
X726589Y666199D02*
X726911D01*
X700250Y663049D02*
X726660D01*
X700296Y662599D02*
X726210D01*
X700701Y662149D02*
X725760D01*
X700975Y661699D02*
X725310D01*
X701146Y661249D02*
X724860D01*
X701234Y660799D02*
X724410D01*
X701246Y660349D02*
X723960D01*
X700250Y673849D02*
X723803D01*
X701230Y659899D02*
X723510D01*
X700250Y665299D02*
X723424D01*
X710905Y659449D02*
X723060D01*
X700250Y673399D02*
X722952D01*
X700250Y669349D02*
X722885D01*
X700250Y665749D02*
X722787D01*
X700250Y669799D02*
X722737D01*
X711355Y658999D02*
X722610D01*
X700250Y672949D02*
X722524D01*
X700250Y668899D02*
X722488D01*
X700250Y666199D02*
X722424D01*
X700250Y670249D02*
X722394D01*
X700250Y672499D02*
X722263D01*
X700250Y668449D02*
X722241D01*
X700250Y666649D02*
X722203D01*
X700250Y670699D02*
X722185D01*
X711805Y658549D02*
X722160D01*
X700250Y672049D02*
X722112D01*
X700250Y667999D02*
X722101D01*
X700250Y667099D02*
X722083D01*
X700250Y671149D02*
X722075D01*
X700250Y671599D02*
X722052D01*
X700250Y667549D02*
X722050D01*
X712255Y658099D02*
X721710D01*
X712705Y657649D02*
X721260D01*
X713155Y657199D02*
X720810D01*
X713605Y656749D02*
X720360D01*
X714055Y656299D02*
X719910D01*
X714505Y655849D02*
X719460D01*
X714955Y655399D02*
X719010D01*
X715405Y654949D02*
X718560D01*
X715855Y654499D02*
X718110D01*
X716305Y654049D02*
X717660D01*
X716755Y653599D02*
X717210D01*
X830966Y658699D02*
X894750D01*
X830516Y658249D02*
X894750D01*
X830066Y657799D02*
X894750D01*
X829616Y657349D02*
X894750D01*
X829166Y656899D02*
X894750D01*
X828716Y656449D02*
X894750D01*
X828266Y655999D02*
X894750D01*
X827816Y655549D02*
X894750D01*
X827366Y655099D02*
X894750D01*
X826916Y654649D02*
X894750D01*
X826466Y654199D02*
X894750D01*
X826016Y653749D02*
X894750D01*
X825566Y653299D02*
X894750D01*
X825116Y652849D02*
X894750D01*
X824666Y652399D02*
X894750D01*
X824216Y651949D02*
X894750D01*
X823766Y651499D02*
X894750D01*
X823316Y651049D02*
X894750D01*
X822866Y650599D02*
X894750D01*
X822416Y650149D02*
X894750D01*
X821966Y649699D02*
X894750D01*
X821516Y649249D02*
X894750D01*
X821066Y648799D02*
X894750D01*
X820616Y648349D02*
X894750D01*
X820166Y647899D02*
X894750D01*
X819716Y647449D02*
X894750D01*
X819266Y646999D02*
X894750D01*
X818816Y646549D02*
X894750D01*
X818366Y646099D02*
X894750D01*
X817916Y645649D02*
X894750D01*
X817466Y645199D02*
X894750D01*
X817016Y644749D02*
X894750D01*
X816566Y644299D02*
X894750D01*
X816116Y643849D02*
X894750D01*
X815666Y643399D02*
X894750D01*
X815216Y642949D02*
X894750D01*
X814766Y642499D02*
X894750D01*
X814316Y642049D02*
X894750D01*
X813866Y641599D02*
X894750D01*
X813416Y641149D02*
X894750D01*
X812966Y640699D02*
X894750D01*
X812516Y640249D02*
X894750D01*
X812066Y639799D02*
X894750D01*
X811616Y639349D02*
X894750D01*
X811166Y638899D02*
X894750D01*
X810716Y638449D02*
X894750D01*
X810266Y637999D02*
X894750D01*
X809816Y637549D02*
X894750D01*
X809366Y637099D02*
X894750D01*
X808916Y636649D02*
X894750D01*
X808466Y636199D02*
X894750D01*
X808016Y635749D02*
X894750D01*
X807566Y635299D02*
X894750D01*
X807116Y634849D02*
X894750D01*
X806666Y634399D02*
X894750D01*
X806216Y633949D02*
X894750D01*
X805766Y633499D02*
X894750D01*
X805316Y633049D02*
X894750D01*
X804866Y632599D02*
X894750D01*
X804416Y632149D02*
X894750D01*
X803966Y631699D02*
X894750D01*
X803516Y631249D02*
X894750D01*
X803066Y630799D02*
X894750D01*
X802616Y630349D02*
X894750D01*
X802166Y629899D02*
X894750D01*
X801716Y629449D02*
X894750D01*
X801266Y628999D02*
X894750D01*
X800816Y628549D02*
X894750D01*
X800366Y628099D02*
X894750D01*
X799916Y627649D02*
X894750D01*
X799466Y627199D02*
X894750D01*
X799016Y626749D02*
X894750D01*
X798566Y626299D02*
X894750D01*
X798116Y625849D02*
X894750D01*
X797666Y625399D02*
X894750D01*
X797216Y624949D02*
X894750D01*
X796766Y624499D02*
X894750D01*
X796316Y624049D02*
X894750D01*
X795866Y623599D02*
X894750D01*
X795416Y623149D02*
X894750D01*
X794966Y622699D02*
X894750D01*
X794516Y622249D02*
X894750D01*
X794066Y621799D02*
X894750D01*
X793616Y621349D02*
X894750D01*
X793166Y620899D02*
X894750D01*
X792716Y620449D02*
X894750D01*
X792266Y619999D02*
X894750D01*
X791795Y619549D02*
X894750D01*
X718750Y619099D02*
X894750D01*
X718750Y618649D02*
X894750D01*
X718750Y618199D02*
X894750D01*
X718750Y617749D02*
X894750D01*
X718750Y617299D02*
X894750D01*
X718750Y616849D02*
X894750D01*
X718750Y616399D02*
X894750D01*
X718750Y615949D02*
X894750D01*
X718750Y615499D02*
X894750D01*
X718750Y615049D02*
X894750D01*
X718750Y614599D02*
X894750D01*
X718750Y614149D02*
X894750D01*
X718733Y613699D02*
X894750D01*
X718645Y613249D02*
X894750D01*
X718474Y612799D02*
X894750D01*
X718199Y612349D02*
X894750D01*
X717774Y611899D02*
X894750D01*
X717026Y611449D02*
X894750D01*
X707736Y610999D02*
X894750D01*
X707474Y610549D02*
X894750D01*
X707084Y610099D02*
X894750D01*
X707312Y609649D02*
X894750D01*
X707637Y609199D02*
X894750D01*
X707833Y608749D02*
X894750D01*
X707932Y608299D02*
X894750D01*
X707945Y607849D02*
X894750D01*
X707875Y607399D02*
X894750D01*
X707713Y606949D02*
X894750D01*
X707436Y606499D02*
X894750D01*
X707069Y606049D02*
X894750D01*
X707357Y605599D02*
X894750D01*
X707664Y605149D02*
X894750D01*
X707848Y604699D02*
X894750D01*
X707937Y604249D02*
X894750D01*
X707942Y603799D02*
X894750D01*
X707862Y603349D02*
X894750D01*
X707689Y602899D02*
X894750D01*
X707396Y602449D02*
X894750D01*
X707064Y601999D02*
X894750D01*
X707398Y601549D02*
X894750D01*
X707690Y601099D02*
X894750D01*
X707863Y600649D02*
X894750D01*
X707942Y600199D02*
X894750D01*
X707937Y599749D02*
X894750D01*
X707848Y599299D02*
X894750D01*
X707663Y598849D02*
X894750D01*
X707354Y598399D02*
X894750D01*
X707069Y597949D02*
X894750D01*
X707438Y597499D02*
X894750D01*
X707714Y597049D02*
X894750D01*
X707876Y596599D02*
X894750D01*
X707946Y596149D02*
X894750D01*
X707931Y595699D02*
X894750D01*
X707832Y595249D02*
X894750D01*
X707635Y594799D02*
X894750D01*
X707310Y594349D02*
X894750D01*
X706760Y593899D02*
X894750D01*
X535800Y593449D02*
X894750D01*
X535248Y592999D02*
X894750D01*
X534587Y592549D02*
X894750D01*
X533759Y592099D02*
X894750D01*
X532611Y591649D02*
X894750D01*
X505250Y591199D02*
X894750D01*
X505250Y590749D02*
X894750D01*
X505250Y590299D02*
X894750D01*
X505250Y589849D02*
X894750D01*
X505250Y589399D02*
X894750D01*
X505250Y588949D02*
X894750D01*
X505250Y588499D02*
X894750D01*
X505250Y588049D02*
X894750D01*
X505250Y587599D02*
X894750D01*
X505250Y587149D02*
X894750D01*
X505250Y586699D02*
X894750D01*
X505250Y586249D02*
X894750D01*
X505250Y585799D02*
X894750D01*
X505250Y585349D02*
X894750D01*
X505250Y584899D02*
X894750D01*
X505250Y584449D02*
X894750D01*
X505250Y583999D02*
X894750D01*
X505250Y583549D02*
X894750D01*
X505250Y583099D02*
X894750D01*
X505250Y582649D02*
X894750D01*
X505250Y582199D02*
X894750D01*
X505250Y581749D02*
X894750D01*
X505250Y581299D02*
X894750D01*
X505250Y580849D02*
X894750D01*
X505250Y580399D02*
X894750D01*
X505250Y579949D02*
X894750D01*
X505250Y579499D02*
X894750D01*
X505250Y579049D02*
X894750D01*
X505250Y578599D02*
X894750D01*
X505250Y578149D02*
X894750D01*
X505250Y577699D02*
X894750D01*
X532955Y577249D02*
X894750D01*
X534905Y576799D02*
X894750D01*
X536243Y576349D02*
X894750D01*
X537313Y575899D02*
X894750D01*
X538221Y575449D02*
X894750D01*
X539016Y574999D02*
X894750D01*
X539726Y574549D02*
X894750D01*
X540367Y574099D02*
X894750D01*
X540953Y573649D02*
X894750D01*
X541491Y573199D02*
X894750D01*
X541988Y572749D02*
X894750D01*
X542450Y572299D02*
X894750D01*
X542879Y571849D02*
X894750D01*
X543279Y571399D02*
X894750D01*
X543652Y570949D02*
X894750D01*
X544001Y570499D02*
X894750D01*
X544327Y570049D02*
X894750D01*
X544633Y569599D02*
X894750D01*
X544918Y569149D02*
X894750D01*
X545185Y568699D02*
X894750D01*
X545434Y568249D02*
X894750D01*
X545666Y567799D02*
X894750D01*
X545882Y567349D02*
X894750D01*
X546083Y566899D02*
X894750D01*
X546269Y566449D02*
X894750D01*
X546440Y565999D02*
X894750D01*
X546597Y565549D02*
X894750D01*
X546741Y565099D02*
X894750D01*
X546871Y564649D02*
X894750D01*
X546989Y564199D02*
X894750D01*
X547094Y563749D02*
X894750D01*
X547186Y563299D02*
X894750D01*
X547267Y562849D02*
X894750D01*
X547335Y562399D02*
X894750D01*
X547391Y561949D02*
X894750D01*
X547436Y561499D02*
X894750D01*
X547469Y561049D02*
X894750D01*
X547490Y560599D02*
X894750D01*
X547499Y560149D02*
X894750D01*
X547497Y559699D02*
X894750D01*
X547484Y559249D02*
X894750D01*
X547459Y558799D02*
X894750D01*
X547422Y558349D02*
X894750D01*
X547373Y557899D02*
X894750D01*
X547313Y557449D02*
X894750D01*
X547241Y556999D02*
X894750D01*
X547156Y556549D02*
X894750D01*
X547060Y556099D02*
X894750D01*
X546950Y555649D02*
X894750D01*
X546828Y555199D02*
X894750D01*
X546694Y554749D02*
X894750D01*
X546545Y554299D02*
X894750D01*
X546383Y553849D02*
X894750D01*
X546207Y553399D02*
X894750D01*
X546017Y552949D02*
X894750D01*
X545811Y552499D02*
X894750D01*
X545589Y552049D02*
X894750D01*
X545352Y551599D02*
X894750D01*
X545097Y551149D02*
X894750D01*
X544824Y550699D02*
X894750D01*
X544531Y550249D02*
X894750D01*
X544219Y549799D02*
X894750D01*
X543885Y549349D02*
X894750D01*
X543528Y548899D02*
X894750D01*
X543146Y548449D02*
X894750D01*
X542737Y547999D02*
X894750D01*
X542297Y547549D02*
X894750D01*
X541824Y547099D02*
X894750D01*
X541313Y546649D02*
X894750D01*
X540760Y546199D02*
X894750D01*
X540156Y545749D02*
X894750D01*
X539493Y545299D02*
X894750D01*
X538757Y544849D02*
X894750D01*
X537928Y544399D02*
X894750D01*
X536972Y543949D02*
X894750D01*
X535827Y543499D02*
X894750D01*
X534348Y543049D02*
X894750D01*
X531856Y542599D02*
X894750D01*
X505250Y542149D02*
X894750D01*
X505250Y541699D02*
X894750D01*
X505250Y541249D02*
X894750D01*
X505250Y540799D02*
X894750D01*
X505250Y540349D02*
X894750D01*
X505250Y539899D02*
X894750D01*
X505250Y539449D02*
X894750D01*
X505250Y538999D02*
X894750D01*
X505250Y538549D02*
X894750D01*
X505250Y538099D02*
X894750D01*
X505250Y537649D02*
X894750D01*
X505250Y537199D02*
X894750D01*
X505250Y536749D02*
X894750D01*
X505250Y536299D02*
X894750D01*
X505250Y535849D02*
X894750D01*
X505250Y535399D02*
X894750D01*
X505250Y534949D02*
X894750D01*
X505250Y534499D02*
X894750D01*
X505250Y534049D02*
X894750D01*
X884713Y533599D02*
X894750D01*
X886880Y533149D02*
X894750D01*
X888250Y532699D02*
X894750D01*
X889322Y532249D02*
X894750D01*
X890221Y531799D02*
X894750D01*
X891002Y531349D02*
X894750D01*
X891694Y530899D02*
X894750D01*
X892318Y530449D02*
X894750D01*
X892885Y529999D02*
X894750D01*
X893404Y529549D02*
X894750D01*
X893881Y529099D02*
X894750D01*
X831416Y659149D02*
X894701D01*
X894323Y528649D02*
X894677D01*
X519713Y533599D02*
X880287D01*
X521880Y533149D02*
X878120D01*
X523250Y532699D02*
X876750D01*
X524322Y532249D02*
X875678D01*
X525221Y531799D02*
X874779D01*
X526002Y531349D02*
X873998D01*
X526694Y530899D02*
X873306D01*
X527318Y530449D02*
X872682D01*
X527885Y529999D02*
X872115D01*
X528404Y529549D02*
X871596D01*
X545511Y505699D02*
X871329D01*
X528881Y529099D02*
X871119D01*
X546068Y506149D02*
X870872D01*
X529322Y528649D02*
X870678D01*
X546499Y506599D02*
X870449D01*
X529731Y528199D02*
X870269D01*
X546842Y507049D02*
X870057D01*
X530111Y527749D02*
X869889D01*
X547116Y507499D02*
X869692D01*
X530463Y527299D02*
X869537D01*
X547333Y507949D02*
X869353D01*
X530792Y526849D02*
X869208D01*
X547500Y508399D02*
X869038D01*
X531097Y526399D02*
X868903D01*
X547622Y508849D02*
X868744D01*
X531381Y525949D02*
X868619D01*
X547703Y509299D02*
X868471D01*
X531645Y525499D02*
X868355D01*
X547744Y509749D02*
X868218D01*
X531890Y525049D02*
X868110D01*
X547746Y510199D02*
X867983D01*
X532118Y524599D02*
X867882D01*
X547710Y510649D02*
X867765D01*
X532328Y524149D02*
X867672D01*
X547634Y511099D02*
X867564D01*
X532521Y523699D02*
X867479D01*
X547516Y511549D02*
X867379D01*
X532699Y523249D02*
X867301D01*
X547355Y511999D02*
X867210D01*
X532862Y522799D02*
X867138D01*
X547144Y512449D02*
X867055D01*
X533010Y522349D02*
X866990D01*
X546877Y512899D02*
X866915D01*
X533143Y521899D02*
X866857D01*
X546543Y513349D02*
X866789D01*
X533263Y521449D02*
X866737D01*
X546124Y513799D02*
X866677D01*
X533369Y520999D02*
X866631D01*
X545584Y514249D02*
X866579D01*
X533461Y520549D02*
X866539D01*
X544842Y514699D02*
X866493D01*
X533541Y520099D02*
X866459D01*
X543527Y515149D02*
X866421D01*
X533607Y519649D02*
X866393D01*
X533638Y515599D02*
X866362D01*
X533661Y519199D02*
X866339D01*
X533685Y516049D02*
X866315D01*
X533702Y518749D02*
X866298D01*
X533719Y516499D02*
X866281D01*
X533730Y518299D02*
X866270D01*
X533741Y516949D02*
X866259D01*
X533746Y517849D02*
X866254D01*
X533750Y517399D02*
X866250D01*
X718750Y619549D02*
X727352D01*
X718750Y619999D02*
X726952D01*
X718750Y620449D02*
X726781D01*
X712524Y641149D02*
X726750D01*
X711776Y640699D02*
X726750D01*
X709243Y640249D02*
X726750D01*
X709590Y639799D02*
X726750D01*
X710040Y639349D02*
X726750D01*
X710490Y638899D02*
X726750D01*
X710940Y638449D02*
X726750D01*
X711390Y637999D02*
X726750D01*
X711840Y637549D02*
X726750D01*
X712290Y637099D02*
X726750D01*
X712740Y636649D02*
X726750D01*
X713190Y636199D02*
X726750D01*
X713640Y635749D02*
X726750D01*
X714090Y635299D02*
X726750D01*
X714540Y634849D02*
X726750D01*
X714990Y634399D02*
X726750D01*
X715440Y633949D02*
X726750D01*
X715890Y633499D02*
X726750D01*
X716340Y633049D02*
X726750D01*
X716790Y632599D02*
X726750D01*
X717240Y632149D02*
X726750D01*
X717690Y631699D02*
X726750D01*
X718122Y631249D02*
X726750D01*
X718424Y630799D02*
X726750D01*
X718616Y630349D02*
X726750D01*
X718721Y629899D02*
X726750D01*
X718750Y629449D02*
X726750D01*
X718750Y628999D02*
X726750D01*
X718750Y628549D02*
X726750D01*
X718750Y628099D02*
X726750D01*
X718750Y627649D02*
X726750D01*
X718750Y627199D02*
X726750D01*
X718750Y626749D02*
X726750D01*
X718750Y626299D02*
X726750D01*
X718750Y625849D02*
X726750D01*
X718750Y625399D02*
X726750D01*
X718750Y624949D02*
X726750D01*
X718750Y624499D02*
X726750D01*
X718750Y624049D02*
X726750D01*
X718750Y623599D02*
X726750D01*
X718750Y623149D02*
X726750D01*
X718750Y622699D02*
X726750D01*
X718750Y622249D02*
X726750D01*
X718750Y621799D02*
X726750D01*
X718750Y621349D02*
X726750D01*
X718750Y620899D02*
X726750D01*
X712988Y641599D02*
X726634D01*
X713438Y642049D02*
X726184D01*
X713888Y642499D02*
X725734D01*
X714338Y642949D02*
X725284D01*
X714788Y643399D02*
X724834D01*
X715238Y643849D02*
X724384D01*
X715688Y644299D02*
X723934D01*
X716138Y644749D02*
X723484D01*
X716588Y645199D02*
X723034D01*
X717038Y645649D02*
X722584D01*
X717488Y646099D02*
X722134D01*
X717938Y646549D02*
X721684D01*
X718388Y646999D02*
X721234D01*
X718838Y647449D02*
X720784D01*
X719288Y647899D02*
X720334D01*
X680250Y652399D02*
X715802D01*
X680250Y651949D02*
X715560D01*
X680250Y652849D02*
X715384D01*
X680250Y651499D02*
X715110D01*
X707887Y611449D02*
X714974D01*
X680250Y653299D02*
X714934D01*
X680250Y651049D02*
X714660D01*
X680250Y653749D02*
X714484D01*
X707948Y611899D02*
X714226D01*
X680250Y650599D02*
X714210D01*
X680250Y654199D02*
X714034D01*
X707925Y612349D02*
X713801D01*
X680250Y650149D02*
X713760D01*
X680250Y654649D02*
X713584D01*
X707816Y612799D02*
X713526D01*
X707608Y613249D02*
X713355D01*
X680250Y649699D02*
X713310D01*
X707266Y613699D02*
X713267D01*
X704631Y628099D02*
X713250D01*
X704093Y627649D02*
X713250D01*
X691076Y627199D02*
X713250D01*
X690713Y626749D02*
X713250D01*
X708678Y626299D02*
X713250D01*
X709174Y625849D02*
X713250D01*
X709453Y625399D02*
X713250D01*
X709603Y624949D02*
X713250D01*
X709650Y624499D02*
X713250D01*
X709602Y624049D02*
X713250D01*
X709452Y623599D02*
X713250D01*
X709172Y623149D02*
X713250D01*
X708674Y622699D02*
X713250D01*
X690713Y622249D02*
X713250D01*
X690076Y621799D02*
X713250D01*
X505250Y621349D02*
X713250D01*
X704009Y620899D02*
X713250D01*
X704589Y620449D02*
X713250D01*
X704904Y619999D02*
X713250D01*
X705079Y619549D02*
X713250D01*
X705148Y619099D02*
X713250D01*
X705121Y618649D02*
X713250D01*
X704995Y618199D02*
X713250D01*
X704748Y617749D02*
X713250D01*
X704315Y617299D02*
X713250D01*
X691163Y616849D02*
X713250D01*
X690854Y616399D02*
X713250D01*
X690340Y615949D02*
X713250D01*
X505250Y615499D02*
X713250D01*
X505250Y615049D02*
X713250D01*
X505250Y614599D02*
X713250D01*
X706677Y614149D02*
X713250D01*
X680250Y655099D02*
X713134D01*
X704928Y628549D02*
X713062D01*
X680250Y649249D02*
X712860D01*
X680250Y655549D02*
X712684D01*
X705091Y628999D02*
X712612D01*
X680250Y648799D02*
X712410D01*
X680250Y655999D02*
X712234D01*
X705149Y629449D02*
X712162D01*
X680250Y648349D02*
X711960D01*
X680250Y656449D02*
X711784D01*
X705113Y629899D02*
X711712D01*
X680250Y647899D02*
X711510D01*
X680250Y656899D02*
X711334D01*
X704975Y630349D02*
X711262D01*
X680219Y647449D02*
X711060D01*
X680250Y657349D02*
X710884D01*
X704713Y630799D02*
X710812D01*
X680048Y646999D02*
X710610D01*
X699015Y657799D02*
X710434D01*
X704251Y631249D02*
X710362D01*
X679648Y646549D02*
X710160D01*
X691431Y631699D02*
X709912D01*
X700133Y658249D02*
X709904D01*
X541713Y646099D02*
X709710D01*
X691446Y632149D02*
X709462D01*
X691376Y632599D02*
X709012D01*
X701246Y633049D02*
X708562D01*
X701886Y633499D02*
X708112D01*
X702338Y633949D02*
X707662D01*
X702788Y634399D02*
X707212D01*
X703238Y634849D02*
X706762D01*
X704174Y622699D02*
X706326D01*
X704178Y626299D02*
X706322D01*
X703688Y635299D02*
X706312D01*
X704120Y635749D02*
X705862D01*
X704672Y623149D02*
X705828D01*
X704674Y625849D02*
X705826D01*
X704952Y623599D02*
X705548D01*
X704953Y625399D02*
X705547D01*
X704423Y636199D02*
X705412D01*
X704661Y636649D02*
X704958D01*
X701677Y614149D02*
X704323D01*
X701760Y593899D02*
X704240D01*
X702266Y613699D02*
X703734D01*
X702310Y594349D02*
X703690D01*
X702608Y613249D02*
X703392D01*
X702635Y594799D02*
X703365D01*
X702883Y612799D02*
X703117D01*
X505250Y620899D02*
X701991D01*
X691297Y627649D02*
X701907D01*
X700174Y622699D02*
X701826D01*
X700178Y626299D02*
X701822D01*
X691332Y631249D02*
X701749D01*
X691348Y617299D02*
X701685D01*
X689081Y620449D02*
X701411D01*
X691417Y628099D02*
X701369D01*
X700672Y623149D02*
X701328D01*
X700674Y625849D02*
X701326D01*
X691135Y630799D02*
X701287D01*
X691437Y617749D02*
X701252D01*
X690417Y619999D02*
X701096D01*
X691450Y628549D02*
X701072D01*
X690826Y630349D02*
X701025D01*
X691442Y618199D02*
X701005D01*
X690898Y619549D02*
X700921D01*
X691399Y628999D02*
X700909D01*
X691012Y629899D02*
X700887D01*
X691363Y618649D02*
X700879D01*
X691190Y619099D02*
X700852D01*
X691259Y629449D02*
X700851D01*
X696677Y614149D02*
X699323D01*
X696760Y593899D02*
X699240D01*
X697266Y613699D02*
X698734D01*
X697310Y594349D02*
X698690D01*
X697608Y613249D02*
X698392D01*
X697635Y594799D02*
X698365D01*
X541137Y645649D02*
X698155D01*
X697883Y612799D02*
X698117D01*
X680250Y657799D02*
X697985D01*
X691076Y622699D02*
X697826D01*
X690247Y626299D02*
X697822D01*
X540324Y645199D02*
X697560D01*
X691297Y623149D02*
X697328D01*
X690608Y625849D02*
X697326D01*
X505250Y644749D02*
X697110D01*
X691417Y623599D02*
X697048D01*
X691012Y625399D02*
X697047D01*
X691450Y624049D02*
X696898D01*
X691259Y624949D02*
X696897D01*
X680475Y658249D02*
X696867D01*
X691399Y624499D02*
X696850D01*
X505250Y644299D02*
X696660D01*
X505250Y643849D02*
X696210D01*
X505250Y643399D02*
X695799D01*
X505250Y642949D02*
X695525D01*
X505250Y642499D02*
X695354D01*
X693033Y642049D02*
X695266D01*
X693777Y641599D02*
X695250D01*
X694240Y641149D02*
X695250D01*
X694690Y640699D02*
X695246D01*
X691214Y633049D02*
X694754D01*
X691677Y614149D02*
X694323D01*
X691760Y593899D02*
X694240D01*
X690938Y633499D02*
X694114D01*
X692266Y613699D02*
X693734D01*
X692310Y594349D02*
X693690D01*
X690485Y633949D02*
X693662D01*
X692608Y613249D02*
X693392D01*
X692635Y594799D02*
X693365D01*
X689499Y634399D02*
X693212D01*
X692883Y612799D02*
X693117D01*
X505250Y634849D02*
X692762D01*
X505250Y635299D02*
X692312D01*
X505250Y635749D02*
X691862D01*
X505250Y636199D02*
X691412D01*
X505250Y636649D02*
X690962D01*
X686677Y614149D02*
X689323D01*
X686760Y593899D02*
X689240D01*
X685581Y620449D02*
X688919D01*
X687266Y613699D02*
X688734D01*
X687310Y594349D02*
X688690D01*
X505250Y634399D02*
X688501D01*
X687608Y613249D02*
X688392D01*
X687635Y594799D02*
X688365D01*
X687883Y612799D02*
X688117D01*
X686576Y621799D02*
X687924D01*
X686348Y626299D02*
X687753D01*
X686840Y615949D02*
X687660D01*
X686917Y619999D02*
X687583D01*
X505250Y633949D02*
X687515D01*
X687110Y625849D02*
X687390D01*
X505250Y626749D02*
X687287D01*
X505250Y630349D02*
X687174D01*
X505250Y633499D02*
X687062D01*
X505250Y629899D02*
X686988D01*
X505250Y627199D02*
X686924D01*
X505250Y630799D02*
X686865D01*
X505250Y633049D02*
X686786D01*
X505250Y629449D02*
X686741D01*
X505250Y627649D02*
X686703D01*
X505250Y631249D02*
X686668D01*
X505250Y632599D02*
X686624D01*
X505250Y628999D02*
X686601D01*
X505250Y628099D02*
X686583D01*
X505250Y631699D02*
X686569D01*
X505250Y632149D02*
X686554D01*
X505250Y628549D02*
X686550D01*
X681081Y620449D02*
X685419D01*
X681848Y626299D02*
X684652D01*
X682076Y621799D02*
X684424D01*
X682177Y614149D02*
X684323D01*
X682260Y593899D02*
X684240D01*
X682340Y615949D02*
X684160D01*
X682417Y619999D02*
X684083D01*
X682608Y625849D02*
X683892D01*
X682713Y622249D02*
X683787D01*
X682766Y613699D02*
X683734D01*
X682810Y594349D02*
X683690D01*
X682854Y616399D02*
X683646D01*
X682898Y619549D02*
X683602D01*
X683012Y625399D02*
X683488D01*
X683089Y622699D02*
X683411D01*
X683195Y613249D02*
X683305D01*
X676581Y620449D02*
X680919D01*
X677348Y626299D02*
X680152D01*
X677576Y621799D02*
X679924D01*
X677677Y614149D02*
X679823D01*
X677760Y593899D02*
X679740D01*
X677840Y615949D02*
X679660D01*
X677917Y619999D02*
X679583D01*
X678108Y625849D02*
X679392D01*
X678213Y622249D02*
X679287D01*
X678266Y613699D02*
X679234D01*
X678310Y594349D02*
X679190D01*
X678354Y616399D02*
X679146D01*
X678398Y619549D02*
X679102D01*
X678512Y625399D02*
X678988D01*
X678589Y622699D02*
X678911D01*
X678695Y613249D02*
X678805D01*
X672081Y620449D02*
X676419D01*
X672848Y626299D02*
X675652D01*
X673076Y621799D02*
X675424D01*
X673177Y614149D02*
X675323D01*
X673260Y593899D02*
X675240D01*
X673340Y615949D02*
X675160D01*
X673417Y619999D02*
X675083D01*
X673608Y625849D02*
X674892D01*
X673713Y622249D02*
X674787D01*
X673766Y613699D02*
X674734D01*
X673810Y594349D02*
X674690D01*
X673854Y616399D02*
X674646D01*
X673898Y619549D02*
X674602D01*
X674012Y625399D02*
X674488D01*
X674089Y622699D02*
X674411D01*
X674195Y613249D02*
X674305D01*
X505250Y620449D02*
X671919D01*
X505250Y626299D02*
X671152D01*
X505250Y621799D02*
X670924D01*
X505250Y614149D02*
X670823D01*
X536272Y593899D02*
X670740D01*
X505250Y615949D02*
X670660D01*
X505250Y619999D02*
X670583D01*
X538519Y601999D02*
X670436D01*
X536323Y606049D02*
X670431D01*
X538506Y597949D02*
X670431D01*
X505250Y610099D02*
X670416D01*
X505250Y625849D02*
X670392D01*
X505250Y622249D02*
X670287D01*
X505250Y613699D02*
X670234D01*
X536680Y594349D02*
X670190D01*
X505250Y609649D02*
X670188D01*
X505250Y616399D02*
X670146D01*
X538602Y598399D02*
X670146D01*
X536724Y605599D02*
X670143D01*
X538400Y602449D02*
X670104D01*
X505250Y619549D02*
X670102D01*
X538612Y601549D02*
X670102D01*
X535859Y606499D02*
X670064D01*
X538385Y597499D02*
X670062D01*
X505250Y610549D02*
X670026D01*
X505250Y625399D02*
X669988D01*
X505250Y622699D02*
X669924D01*
X505250Y613249D02*
X669892D01*
X537036Y594799D02*
X669865D01*
X505250Y609199D02*
X669863D01*
X505250Y616849D02*
X669837D01*
X538674Y598849D02*
X669837D01*
X537075Y605149D02*
X669836D01*
X538256Y602899D02*
X669811D01*
X505250Y619099D02*
X669810D01*
X538681Y601099D02*
X669810D01*
X535318Y606949D02*
X669787D01*
X538237Y597049D02*
X669786D01*
X505250Y610999D02*
X669764D01*
X505250Y624949D02*
X669741D01*
X505250Y623149D02*
X669703D01*
X505250Y612799D02*
X669684D01*
X537348Y595249D02*
X669668D01*
X530153Y608749D02*
X669667D01*
X505250Y617299D02*
X669652D01*
X538722Y599299D02*
X669652D01*
X537381Y604699D02*
X669652D01*
X538084Y603349D02*
X669638D01*
X505250Y618649D02*
X669637D01*
X538726Y600649D02*
X669637D01*
X534671Y607399D02*
X669625D01*
X538062Y596599D02*
X669624D01*
X505250Y611449D02*
X669613D01*
X505250Y624499D02*
X669601D01*
X505250Y623599D02*
X669583D01*
X505250Y612349D02*
X669575D01*
X537620Y595699D02*
X669569D01*
X532774Y608299D02*
X669568D01*
X505250Y617749D02*
X669563D01*
X538746Y599749D02*
X669563D01*
X537649Y604249D02*
X669563D01*
X537882Y603799D02*
X669558D01*
X505250Y618199D02*
X669558D01*
X538748Y600199D02*
X669558D01*
X533868Y607849D02*
X669555D01*
X537857Y596149D02*
X669554D01*
X505250Y611899D02*
X669552D01*
X505250Y624049D02*
X669550D01*
X505250Y642049D02*
X665467D01*
X505250Y637099D02*
X665160D01*
X505250Y641599D02*
X664723D01*
X505250Y637549D02*
X664562D01*
X505250Y641149D02*
X664299D01*
X505250Y637999D02*
X664196D01*
X505250Y640699D02*
X664025D01*
X505250Y638449D02*
X663959D01*
X505250Y640249D02*
X663854D01*
X505250Y638899D02*
X663817D01*
X542156Y646549D02*
X663810D01*
X505250Y639799D02*
X663766D01*
X505250Y639349D02*
X663754D01*
X542508Y646999D02*
X663360D01*
X542788Y647449D02*
X662945D01*
X543011Y647899D02*
X662529D01*
X543184Y648349D02*
X662114D01*
X533579Y515149D02*
X541473D01*
X533507Y514699D02*
X540158D01*
X528671Y505699D02*
X539489D01*
X533421Y514249D02*
X539416D01*
X529128Y506149D02*
X538932D01*
X533323Y513799D02*
X538876D01*
X529551Y506599D02*
X538501D01*
X533211Y513349D02*
X538457D01*
X529943Y507049D02*
X538158D01*
X533085Y512899D02*
X538123D01*
X530308Y507499D02*
X537884D01*
X532945Y512449D02*
X537856D01*
X530647Y507949D02*
X537667D01*
X532790Y511999D02*
X537645D01*
X530962Y508399D02*
X537500D01*
X532621Y511549D02*
X537484D01*
X531256Y508849D02*
X537378D01*
X532436Y511099D02*
X537366D01*
X531529Y509299D02*
X537297D01*
X532235Y510649D02*
X537290D01*
X531782Y509749D02*
X537256D01*
X532017Y510199D02*
X537254D01*
X522624Y645199D02*
X536076D01*
X523437Y645649D02*
X535263D01*
X524013Y646099D02*
X534687D01*
X524456Y646549D02*
X534244D01*
X524808Y646999D02*
X533892D01*
X525088Y647449D02*
X533612D01*
X525311Y647899D02*
X533389D01*
X525484Y648349D02*
X533216D01*
X505250Y608749D02*
X529847D01*
X505250Y542599D02*
X528144D01*
X505250Y591649D02*
X527389D01*
X505250Y608299D02*
X527226D01*
X505250Y577249D02*
X527045D01*
X505250Y592099D02*
X526241D01*
X505250Y607849D02*
X526132D01*
X505250Y543049D02*
X525652D01*
X505250Y592549D02*
X525413D01*
X505250Y607399D02*
X525329D01*
X505250Y576799D02*
X525095D01*
X505250Y592999D02*
X524752D01*
X505250Y606949D02*
X524682D01*
X505250Y593449D02*
X524200D01*
X505250Y543499D02*
X524173D01*
X505250Y606499D02*
X524141D01*
X505250Y576349D02*
X523757D01*
X505250Y593899D02*
X523728D01*
X505250Y606049D02*
X523677D01*
X505250Y594349D02*
X523320D01*
X505250Y605599D02*
X523276D01*
X505250Y543949D02*
X523028D01*
X505250Y594799D02*
X522964D01*
X505250Y605149D02*
X522925D01*
X505250Y575899D02*
X522687D01*
X505250Y595249D02*
X522652D01*
X505250Y604699D02*
X522619D01*
X505250Y595699D02*
X522380D01*
X505250Y604249D02*
X522351D01*
X505250Y596149D02*
X522143D01*
X505250Y603799D02*
X522118D01*
X505250Y544399D02*
X522072D01*
X505250Y596599D02*
X521938D01*
X505250Y603349D02*
X521916D01*
X505250Y575449D02*
X521779D01*
X505250Y597049D02*
X521763D01*
X505250Y602899D02*
X521744D01*
X505250Y597499D02*
X521615D01*
X505250Y602449D02*
X521600D01*
X505250Y597949D02*
X521494D01*
X505250Y601999D02*
X521481D01*
X505250Y598399D02*
X521398D01*
X505250Y601549D02*
X521388D01*
X505250Y598849D02*
X521326D01*
X505250Y601099D02*
X521319D01*
X505250Y599299D02*
X521278D01*
X505250Y600649D02*
X521274D01*
X505250Y599749D02*
X521254D01*
X505250Y600199D02*
X521252D01*
X505250Y544849D02*
X521243D01*
X505250Y574999D02*
X520984D01*
X505250Y545299D02*
X520507D01*
X505250Y574549D02*
X520274D01*
X505250Y545749D02*
X519844D01*
X505250Y574099D02*
X519633D01*
X505250Y546199D02*
X519240D01*
X505250Y573649D02*
X519047D01*
X505250Y546649D02*
X518687D01*
X505250Y573199D02*
X518509D01*
X505250Y645199D02*
X518376D01*
X505250Y547099D02*
X518176D01*
X505250Y572749D02*
X518012D01*
X505250Y547549D02*
X517703D01*
X505250Y645649D02*
X517563D01*
X505250Y572299D02*
X517550D01*
X505250Y547999D02*
X517263D01*
X505250Y571849D02*
X517121D01*
X505250Y646099D02*
X516987D01*
X505250Y548449D02*
X516854D01*
X505250Y571399D02*
X516721D01*
X505250Y646549D02*
X516544D01*
X505250Y548899D02*
X516472D01*
X505250Y570949D02*
X516348D01*
X505250Y646999D02*
X516192D01*
X505250Y549349D02*
X516115D01*
X505250Y570499D02*
X515999D01*
X505250Y647449D02*
X515912D01*
X505250Y549799D02*
X515781D01*
X505250Y647899D02*
X515689D01*
X505250Y570049D02*
X515673D01*
X505250Y648349D02*
X515516D01*
X505250Y550249D02*
X515469D01*
X505250Y569599D02*
X515367D01*
X505250Y533599D02*
X515287D01*
X505250Y550699D02*
X515176D01*
X505250Y569149D02*
X515082D01*
X505250Y551149D02*
X514903D01*
X505250Y568699D02*
X514815D01*
X505250Y551599D02*
X514648D01*
X505250Y568249D02*
X514566D01*
X505250Y552049D02*
X514411D01*
X505250Y567799D02*
X514334D01*
X505250Y552499D02*
X514189D01*
X505250Y567349D02*
X514118D01*
X505250Y552949D02*
X513983D01*
X505250Y566899D02*
X513917D01*
X505250Y553399D02*
X513793D01*
X505250Y566449D02*
X513731D01*
X505250Y553849D02*
X513617D01*
X505250Y565999D02*
X513560D01*
X505250Y554299D02*
X513455D01*
X505250Y565549D02*
X513403D01*
X505250Y554749D02*
X513306D01*
X505250Y565099D02*
X513259D01*
X505250Y555199D02*
X513172D01*
X505250Y564649D02*
X513129D01*
X505250Y533149D02*
X513120D01*
X505250Y555649D02*
X513050D01*
X505250Y564199D02*
X513011D01*
X505250Y556099D02*
X512940D01*
X505250Y563749D02*
X512906D01*
X505250Y556549D02*
X512844D01*
X505250Y563299D02*
X512814D01*
X505250Y556999D02*
X512759D01*
X505250Y562849D02*
X512733D01*
X505250Y557449D02*
X512687D01*
X505250Y562399D02*
X512665D01*
X505250Y557899D02*
X512627D01*
X505250Y561949D02*
X512609D01*
X505250Y558349D02*
X512578D01*
X505250Y561499D02*
X512564D01*
X505250Y558799D02*
X512541D01*
X505250Y561049D02*
X512531D01*
X505250Y559249D02*
X512516D01*
X505250Y560599D02*
X512510D01*
X505250Y559699D02*
X512503D01*
X505250Y560149D02*
X512501D01*
X505250Y532699D02*
X511750D01*
X505250Y532249D02*
X510678D01*
X505250Y531799D02*
X509779D01*
X505250Y531349D02*
X508998D01*
X505250Y530899D02*
X508306D01*
X505250Y530449D02*
X507682D01*
X505250Y529999D02*
X507115D01*
X505250Y529549D02*
X506596D01*
X505250Y529099D02*
X506119D01*
X505323Y528649D02*
X505677D01*
G54D26*
X500000Y500000D02*
X900000D01*
Y800000*
X500000*
Y500000*
G54D75*
X666500Y639500D02*
X692000D01*
X696000Y635500*
X700000*
X702000Y637500*
Y639500*
X706000D02*
X716000Y629500D01*
Y614000*
X698000Y639500D02*
Y641750D01*
X699500Y643250*
X710750*
X730500Y663000*
X735875*
X739000Y666125*
Y667500*
X688000Y682500D02*
X688500D01*
X694000Y677000*
Y665000*
X698500Y660500*
G54D77*
X676500Y608000D03*
Y612000D03*
X681000Y608000D03*
X672000Y612000D03*
X681000D03*
X685500Y608000D03*
Y612000D03*
X695500Y600000D03*
X672000Y608000D03*
X690500Y600000D03*
X676500Y596000D03*
X672000Y604000D03*
X690500Y612000D03*
X695500D03*
X676500Y604000D03*
X695500D03*
X690500D03*
X681000Y596000D03*
Y604000D03*
X685500D03*
X690500Y596000D03*
Y608000D03*
X695500D03*
Y596000D03*
X685500D03*
X672000Y618000D03*
Y596000D03*
X676500Y618000D03*
X672000Y600000D03*
X681000Y618000D03*
X685500D03*
Y600000D03*
X689000Y618000D03*
X676500Y600000D03*
X681000D03*
X716000Y614000D03*
X725500Y614500D03*
X716500Y609500D03*
X725500D03*
X721500D03*
Y614500D03*
Y619000D03*
X725500D03*
X700500Y600000D03*
Y612000D03*
X705500D03*
X700500Y604000D03*
X705500Y608000D03*
Y604000D03*
Y600000D03*
Y596000D03*
X700500Y608000D03*
Y596000D03*
X656000Y655000D03*
Y659000D03*
X651500Y655000D03*
Y659000D03*
X666500Y639500D03*
X684500Y635500D03*
X683500Y631500D03*
X680000Y635500D03*
Y631500D03*
X661500Y643000D03*
Y639500D03*
X665500Y635500D03*
X661500D03*
Y631500D03*
X665500D03*
X670000Y635000D03*
Y631500D03*
X675000D03*
Y635500D03*
X696500Y651500D03*
Y648500D03*
X689000Y632000D03*
X672000Y624000D03*
X676500D03*
X681000D03*
X689000Y628500D03*
X685500Y624000D03*
X689000D03*
X664500Y655000D03*
X660000D03*
X664500Y659000D03*
X660000D03*
X706000Y639500D03*
X702000D03*
X698000D03*
X734500Y631500D03*
Y624000D03*
Y635500D03*
X731000Y624000D03*
Y635500D03*
Y627500D03*
Y631500D03*
X734500Y627500D03*
X700000Y651500D03*
X703500D03*
Y648500D03*
X700000D03*
X725000Y629000D03*
Y633000D03*
X725500Y624000D03*
X721000D03*
Y629000D03*
Y633000D03*
X752000Y644000D03*
X760000Y640000D03*
Y627500D03*
X744000Y624000D03*
X756000Y644000D03*
X748000Y624000D03*
X756000D03*
X760000Y635500D03*
X744000Y631500D03*
X748000Y635500D03*
X752000Y640000D03*
X756000Y648500D03*
X739000Y624000D03*
X747500Y653000D03*
X752000Y624000D03*
X744000Y640000D03*
Y653000D03*
X739000Y631500D03*
X751500Y653000D03*
X756000Y640000D03*
X744000Y648500D03*
X748000Y631500D03*
X760000Y624000D03*
Y644000D03*
X752000Y635500D03*
X760000Y631500D03*
X748000Y627500D03*
X756000Y635500D03*
X748000Y640000D03*
X752000Y648500D03*
X756000Y627500D03*
X744000Y635500D03*
X752000Y631500D03*
X744000Y644000D03*
Y627500D03*
X760000Y648500D03*
X748000D03*
X759500Y653000D03*
X739000Y635500D03*
X755500Y653000D03*
X739000Y627500D03*
X756000Y631500D03*
X748000Y644000D03*
X752000Y627500D03*
X656000Y663500D03*
Y681000D03*
Y676500D03*
Y671500D03*
Y667500D03*
Y685500D03*
X651500Y663500D03*
Y681000D03*
Y676500D03*
Y671500D03*
Y667500D03*
Y685500D03*
X688000Y682500D03*
X688500Y666500D03*
X665000Y681000D03*
X660000D03*
X675000D03*
X680000Y685500D03*
Y681000D03*
X675000Y685500D03*
X660000Y676500D03*
X670000Y685500D03*
X665000Y676500D03*
Y685500D03*
X670000Y676500D03*
X660000Y685500D03*
X675000Y676500D03*
X680000D03*
X660000Y671500D03*
X664500Y663500D03*
X660000D03*
Y667500D03*
X664500D03*
X665000Y671500D03*
X684500Y676500D03*
X685000Y671500D03*
X680000D03*
X675000D03*
X670000D03*
X684000Y681000D03*
X675000Y667500D03*
X684000Y685500D03*
X680000Y667500D03*
X685000D03*
X688500Y671500D03*
Y676500D03*
X670000Y681000D03*
Y667500D03*
X698500Y660500D03*
X702000Y663000D03*
X708000Y687000D03*
X713500Y662000D03*
X720500Y676500D03*
X718000Y695000D03*
X736500Y687000D03*
X724000Y691000D03*
X720500Y667500D03*
X718000Y699000D03*
X724000Y687000D03*
X720500Y671500D03*
X736500Y699000D03*
X732500Y687000D03*
Y695000D03*
X713000Y687000D03*
X717000Y662500D03*
X728000Y695000D03*
X713000D03*
X708000Y699000D03*
X728000Y687000D03*
X732500Y699000D03*
X724000Y695000D03*
X728000Y691000D03*
X713000D03*
X703000Y699000D03*
Y687000D03*
X708000Y695000D03*
X718000Y687000D03*
X728000Y681500D03*
X710000Y662000D03*
X703000Y691000D03*
X736500Y681500D03*
X724500Y676500D03*
X724000Y681500D03*
Y699000D03*
X720500Y681500D03*
X728000Y699000D03*
X732500Y691000D03*
X736500Y676500D03*
Y691000D03*
X728500Y676500D03*
X732500Y681500D03*
X708000Y691000D03*
X732500Y676500D03*
X718000Y691000D03*
X703000Y695000D03*
X736500D03*
X713000Y699000D03*
X729000Y671500D03*
X734000D03*
X724500D03*
X729000Y667500D03*
X733500D03*
X724500D03*
X739000D03*
X747500Y671500D03*
X739500D03*
X744000D03*
Y666500D03*
X747500D03*
X744000Y662500D03*
X747500D03*
X703000Y703500D03*
X718000D03*
X728000D03*
X708000D03*
X736500D03*
X713000D03*
X732500D03*
X724000D03*
G54D95*
G54D219*
X520500Y650000D03*
G54D236*
X517500Y782500D03*
Y517500D03*
X882500D03*
Y782500D03*
G54D311*
X703000Y619000D03*
X677500Y649000D03*
Y658000D03*
Y653500D03*
X669500D03*
Y649000D03*
X731500Y654000D03*
Y645000D03*
Y649500D03*
X722500D03*
X699000Y624500D03*
X707500D03*
X703000Y629500D03*
Y624500D03*
X739500Y649500D03*
Y654000D03*
X706500Y667500D03*
X710500Y675000D03*
X701500D03*
X706500Y682000D03*
Y675000D03*
G54D369*
X538200Y650000D03*
G54D390*
X530000Y740000D03*
Y560000D03*
X870000Y740000D03*
Y560000D03*
G74*
X0Y0D02*
M02*
