*
*
G04 PADS VX.1.1 Build Number: 678707 generated Gerber (RS-274-X) file*
G04 PC Version=2.1*
*
%IN "DC2047A REV03 (6-27-201"*%
*
%MOIN*%
*
%FSLAX35Y35*%
*
*
*
*
G04 PC Standard Apertures*
*
*
G04 Thermal Relief Aperture macro.*
%AMTER*
1,1,$1,0,0*
1,0,$1-$2,0,0*
21,0,$3,$4,0,0,45*
21,0,$3,$4,0,0,135*
%
*
*
G04 Annular Aperture macro.*
%AMANN*
1,1,$1,0,0*
1,0,$2,0,0*
%
*
*
G04 Odd Aperture macro.*
%AMODD*
1,1,$1,0,0*
1,0,$1-0.005,0,0*
%
*
*
G04 PC Custom Aperture Macros*
*
*
*
*
*
*
G04 PC Aperture Table*
*
%ADD010C,0.001*%
%ADD011R,0.06X0.13*%
%ADD012R,0.05X0.07*%
%ADD013R,0.053X0.05*%
%ADD014R,0.07X0.05*%
%ADD015R,0.035X0.03*%
%ADD016R,0.03X0.02*%
%ADD019R,0.05X0.105*%
%ADD020R,0.05X0.053*%
%ADD021R,0.09X0.055*%
%ADD022R,0.025X0.03*%
%ADD023R,0.03X0.025*%
%ADD024R,0.035X0.04*%
%ADD025R,0.04X0.035*%
%ADD026R,0.065X0.06*%
%ADD031R,0.018X0.05*%
%ADD032R,0.05X0.018*%
%ADD033R,0.03X0.06*%
%ADD034R,0.06X0.03*%
%ADD035R,0.036X0.036*%
%ADD036R,0.05X0.036*%
%ADD037R,0.036X0.05*%
%ADD038R,0.03X0.035*%
%ADD039R,0.02X0.03*%
%ADD040R,0.00984X0.02756*%
%ADD041R,0.02756X0.00984*%
%ADD042R,0.1437X0.10433*%
%ADD050C,0.01*%
%ADD125R,0.12X0.06*%
%ADD126C,0.024*%
%ADD127R,0.04724X0.0315*%
*
*
*
*
G04 PC Circuitry*
G04 Layer Name DC2047A REV03 (6-27-201 - circuitry*
%LPD*%
*
*
G04 PC Custom Flashes*
G04 Layer Name DC2047A REV03 (6-27-201 - flashes*
%LPD*%
*
*
G04 PC Circuitry*
G04 Layer Name DC2047A REV03 (6-27-201 - circuitry*
%LPD*%
*
G54D10*
G54D11*
G01X385500Y237000D03*
X402500D03*
X385500Y265000D03*
X402500D03*
Y280000D03*
X385500D03*
G54D12*
X358900Y282600D03*
X345900D03*
X410500Y241000D03*
X423500D03*
X363500Y249000D03*
X376500D03*
X129500Y423000D03*
X116500D03*
G54D13*
X438000Y305000D03*
Y297000D03*
X333500Y214000D03*
Y222000D03*
X346000Y325000D03*
Y317000D03*
X584000Y316000D03*
Y324000D03*
X340000Y325000D03*
Y317000D03*
X418500Y276000D03*
Y268000D03*
G54D14*
X434000Y276500D03*
Y263500D03*
X442000Y276500D03*
Y263500D03*
X366000Y241500D03*
Y228500D03*
X374000Y241500D03*
Y228500D03*
X412000Y261500D03*
Y248500D03*
X420000Y261500D03*
Y248500D03*
G54D15*
X419000Y285000D03*
X413000D03*
X321500Y302500D03*
X327500D03*
X321500Y293500D03*
X327500D03*
Y298000D03*
X321500D03*
X345500Y276500D03*
X351500D03*
X413000Y289000D03*
X419000D03*
X321500D03*
X327500D03*
X419000Y293000D03*
X413000D03*
X321500Y307000D03*
X327500D03*
X321500Y284500D03*
X327500D03*
X417500Y311000D03*
X423500D03*
X199000Y456000D03*
X193000D03*
X199000Y452000D03*
X193000D03*
X199000Y396000D03*
X193000D03*
X199000Y392000D03*
X193000D03*
G54D16*
X338000Y286500D03*
X334000D03*
G54D19*
X348000Y233000D03*
X336000D03*
X348000Y245000D03*
X336000D03*
G54D20*
X434000Y311000D03*
X442000D03*
X366000Y329500D03*
X358000D03*
G54D21*
X193000Y463000D03*
Y481000D03*
G54D22*
X414000Y297000D03*
Y307000D03*
X412000Y277000D03*
Y267000D03*
G54D23*
X362500Y276500D03*
X372500D03*
G54D24*
X330750Y315000D03*
X317250D03*
X352250Y221500D03*
X338750D03*
X314250Y217000D03*
X327750D03*
X367250Y311500D03*
X380750D03*
G54D25*
X327000Y224250D03*
Y237750D03*
X317000Y224250D03*
Y237750D03*
G54D26*
X584000Y308000D03*
Y296000D03*
G54D31*
X280100Y234500D03*
X282700D03*
X285300D03*
X287900D03*
Y247500D03*
X285300D03*
X282700D03*
X280100D03*
Y276500D03*
X282700D03*
X285300D03*
X287900D03*
Y289500D03*
X285300D03*
X282700D03*
X280100D03*
Y318500D03*
X282700D03*
X285300D03*
X287900D03*
Y331500D03*
X285300D03*
X282700D03*
X280100D03*
Y255500D03*
X282700D03*
X285300D03*
X287900D03*
Y268500D03*
X285300D03*
X282700D03*
X280100D03*
Y297500D03*
X282700D03*
X285300D03*
X287900D03*
Y310500D03*
X285300D03*
X282700D03*
X280100D03*
X287900Y227500D03*
X285300D03*
X282700D03*
X280100D03*
Y214500D03*
X282700D03*
X285300D03*
X287900D03*
G54D32*
X295500Y286900D03*
Y284300D03*
Y281700D03*
Y279100D03*
X308500D03*
Y281700D03*
Y284300D03*
Y286900D03*
X295500Y328900D03*
Y326300D03*
Y323700D03*
Y321100D03*
X308500D03*
Y323700D03*
Y326300D03*
Y328900D03*
X295500Y265900D03*
Y263300D03*
Y260700D03*
Y258100D03*
X308500D03*
Y260700D03*
Y263300D03*
Y265900D03*
X295500Y307900D03*
Y305300D03*
Y302700D03*
Y300100D03*
X308500D03*
Y302700D03*
Y305300D03*
Y307900D03*
X295500Y222900D03*
Y220300D03*
Y217700D03*
Y215100D03*
X308500D03*
Y217700D03*
Y220300D03*
Y222900D03*
X295500Y244900D03*
Y242300D03*
Y239700D03*
Y237100D03*
X308500D03*
Y239700D03*
Y242300D03*
Y244900D03*
G54D33*
X445500Y255000D03*
X440500D03*
X435500D03*
X430500D03*
Y233000D03*
X435500D03*
X440500D03*
X445500D03*
G54D34*
X333000Y270500D03*
Y265500D03*
Y260500D03*
Y255500D03*
X355000D03*
Y260500D03*
Y265500D03*
Y270500D03*
G54D35*
X424350Y292750D03*
Y285250D03*
X424250Y299350D03*
X431750D03*
X365750Y323150D03*
X358250D03*
G54D36*
X432350Y289000D03*
G54D37*
X428000Y307350D03*
X362000Y315150D03*
G54D38*
X318500Y325000D03*
Y331000D03*
X386500Y311500D03*
Y305500D03*
X322500Y325000D03*
Y331000D03*
G54D39*
X338000Y283000D03*
Y279000D03*
X334000Y283000D03*
Y279000D03*
X326500Y330000D03*
Y326000D03*
G54D40*
X350890Y306480D03*
X348921D03*
X346953D03*
X344984D03*
X343016D03*
X341047D03*
X339079D03*
X337110D03*
Y291520D03*
X339079D03*
X341047D03*
X343016D03*
X344984D03*
X346953D03*
X348921D03*
X350890D03*
G54D41*
X334551Y303921D03*
Y301953D03*
Y299984D03*
Y298016D03*
Y296047D03*
Y294079D03*
X353449D03*
Y296047D03*
Y298016D03*
Y299984D03*
Y301953D03*
Y303921D03*
G54D42*
X344000Y299000D03*
G54D50*
X277500Y246000D02*
Y239000D01*
X290500*
Y246000*
X277500*
Y239000D02*
Y246000D01*
X278000Y239000D02*
Y246000D01*
X278500Y239000D02*
Y246000D01*
X279000Y239000D02*
Y246000D01*
X279500Y239000D02*
Y246000D01*
X280000Y239000D02*
Y246000D01*
X280500Y239000D02*
Y246000D01*
X281000Y239000D02*
Y246000D01*
X281500Y239000D02*
Y246000D01*
X282000Y239000D02*
Y246000D01*
X282500Y239000D02*
Y246000D01*
X283000Y239000D02*
Y246000D01*
X283500Y239000D02*
Y246000D01*
X284000Y239000D02*
Y246000D01*
X284500Y239000D02*
Y246000D01*
X285000Y239000D02*
Y246000D01*
X285500Y239000D02*
Y246000D01*
X286000Y239000D02*
Y246000D01*
X286500Y239000D02*
Y246000D01*
X287000Y239000D02*
Y246000D01*
X287500Y239000D02*
Y246000D01*
X288000Y239000D02*
Y246000D01*
X288500Y239000D02*
Y246000D01*
X289000Y239000D02*
Y246000D01*
X289500Y239000D02*
Y246000D01*
X290000Y239000D02*
Y246000D01*
X307000Y289500D02*
X300000D01*
Y276500*
X307000*
Y289500*
X300000Y276500D02*
Y289500D01*
X300500Y276500D02*
Y289500D01*
X301000Y276500D02*
Y289500D01*
X301500Y276500D02*
Y289500D01*
X302000Y276500D02*
Y289500D01*
X302500Y276500D02*
Y289500D01*
X303000Y276500D02*
Y289500D01*
X303500Y276500D02*
Y289500D01*
X304000Y276500D02*
Y289500D01*
X304500Y276500D02*
Y289500D01*
X305000Y276500D02*
Y289500D01*
X305500Y276500D02*
Y289500D01*
X306000Y276500D02*
Y289500D01*
X306500Y276500D02*
Y289500D01*
X277500Y288000D02*
Y281000D01*
X290500*
Y288000*
X277500*
Y281000D02*
Y288000D01*
X278000Y281000D02*
Y288000D01*
X278500Y281000D02*
Y288000D01*
X279000Y281000D02*
Y288000D01*
X279500Y281000D02*
Y288000D01*
X280000Y281000D02*
Y288000D01*
X280500Y281000D02*
Y288000D01*
X281000Y281000D02*
Y288000D01*
X281500Y281000D02*
Y288000D01*
X282000Y281000D02*
Y288000D01*
X282500Y281000D02*
Y288000D01*
X283000Y281000D02*
Y288000D01*
X283500Y281000D02*
Y288000D01*
X284000Y281000D02*
Y288000D01*
X284500Y281000D02*
Y288000D01*
X285000Y281000D02*
Y288000D01*
X285500Y281000D02*
Y288000D01*
X286000Y281000D02*
Y288000D01*
X286500Y281000D02*
Y288000D01*
X287000Y281000D02*
Y288000D01*
X287500Y281000D02*
Y288000D01*
X288000Y281000D02*
Y288000D01*
X288500Y281000D02*
Y288000D01*
X289000Y281000D02*
Y288000D01*
X289500Y281000D02*
Y288000D01*
X290000Y281000D02*
Y288000D01*
X307000Y331500D02*
X300000D01*
Y318500*
X307000*
Y331500*
X300000Y318500D02*
Y331500D01*
X300500Y318500D02*
Y331500D01*
X301000Y318500D02*
Y331500D01*
X301500Y318500D02*
Y331500D01*
X302000Y318500D02*
Y331500D01*
X302500Y318500D02*
Y331500D01*
X303000Y318500D02*
Y331500D01*
X303500Y318500D02*
Y331500D01*
X304000Y318500D02*
Y331500D01*
X304500Y318500D02*
Y331500D01*
X305000Y318500D02*
Y331500D01*
X305500Y318500D02*
Y331500D01*
X306000Y318500D02*
Y331500D01*
X306500Y318500D02*
Y331500D01*
X277500Y330000D02*
Y323000D01*
X290500*
Y330000*
X277500*
Y323000D02*
Y330000D01*
X278000Y323000D02*
Y330000D01*
X278500Y323000D02*
Y330000D01*
X279000Y323000D02*
Y330000D01*
X279500Y323000D02*
Y330000D01*
X280000Y323000D02*
Y330000D01*
X280500Y323000D02*
Y330000D01*
X281000Y323000D02*
Y330000D01*
X281500Y323000D02*
Y330000D01*
X282000Y323000D02*
Y330000D01*
X282500Y323000D02*
Y330000D01*
X283000Y323000D02*
Y330000D01*
X283500Y323000D02*
Y330000D01*
X284000Y323000D02*
Y330000D01*
X284500Y323000D02*
Y330000D01*
X285000Y323000D02*
Y330000D01*
X285500Y323000D02*
Y330000D01*
X286000Y323000D02*
Y330000D01*
X286500Y323000D02*
Y330000D01*
X287000Y323000D02*
Y330000D01*
X287500Y323000D02*
Y330000D01*
X288000Y323000D02*
Y330000D01*
X288500Y323000D02*
Y330000D01*
X289000Y323000D02*
Y330000D01*
X289500Y323000D02*
Y330000D01*
X290000Y323000D02*
Y330000D01*
X307000Y268500D02*
X300000D01*
Y255500*
X307000*
Y268500*
X300000Y255500D02*
Y268500D01*
X300500Y255500D02*
Y268500D01*
X301000Y255500D02*
Y268500D01*
X301500Y255500D02*
Y268500D01*
X302000Y255500D02*
Y268500D01*
X302500Y255500D02*
Y268500D01*
X303000Y255500D02*
Y268500D01*
X303500Y255500D02*
Y268500D01*
X304000Y255500D02*
Y268500D01*
X304500Y255500D02*
Y268500D01*
X305000Y255500D02*
Y268500D01*
X305500Y255500D02*
Y268500D01*
X306000Y255500D02*
Y268500D01*
X306500Y255500D02*
Y268500D01*
X277500Y267000D02*
Y260000D01*
X290500*
Y267000*
X277500*
Y260000D02*
Y267000D01*
X278000Y260000D02*
Y267000D01*
X278500Y260000D02*
Y267000D01*
X279000Y260000D02*
Y267000D01*
X279500Y260000D02*
Y267000D01*
X280000Y260000D02*
Y267000D01*
X280500Y260000D02*
Y267000D01*
X281000Y260000D02*
Y267000D01*
X281500Y260000D02*
Y267000D01*
X282000Y260000D02*
Y267000D01*
X282500Y260000D02*
Y267000D01*
X283000Y260000D02*
Y267000D01*
X283500Y260000D02*
Y267000D01*
X284000Y260000D02*
Y267000D01*
X284500Y260000D02*
Y267000D01*
X285000Y260000D02*
Y267000D01*
X285500Y260000D02*
Y267000D01*
X286000Y260000D02*
Y267000D01*
X286500Y260000D02*
Y267000D01*
X287000Y260000D02*
Y267000D01*
X287500Y260000D02*
Y267000D01*
X288000Y260000D02*
Y267000D01*
X288500Y260000D02*
Y267000D01*
X289000Y260000D02*
Y267000D01*
X289500Y260000D02*
Y267000D01*
X290000Y260000D02*
Y267000D01*
X307000Y310500D02*
X300000D01*
Y297500*
X307000*
Y310500*
X300000Y297500D02*
Y310500D01*
X300500Y297500D02*
Y310500D01*
X301000Y297500D02*
Y310500D01*
X301500Y297500D02*
Y310500D01*
X302000Y297500D02*
Y310500D01*
X302500Y297500D02*
Y310500D01*
X303000Y297500D02*
Y310500D01*
X303500Y297500D02*
Y310500D01*
X304000Y297500D02*
Y310500D01*
X304500Y297500D02*
Y310500D01*
X305000Y297500D02*
Y310500D01*
X305500Y297500D02*
Y310500D01*
X306000Y297500D02*
Y310500D01*
X306500Y297500D02*
Y310500D01*
X277500Y309000D02*
Y302000D01*
X290500*
Y309000*
X277500*
Y302000D02*
Y309000D01*
X278000Y302000D02*
Y309000D01*
X278500Y302000D02*
Y309000D01*
X279000Y302000D02*
Y309000D01*
X279500Y302000D02*
Y309000D01*
X280000Y302000D02*
Y309000D01*
X280500Y302000D02*
Y309000D01*
X281000Y302000D02*
Y309000D01*
X281500Y302000D02*
Y309000D01*
X282000Y302000D02*
Y309000D01*
X282500Y302000D02*
Y309000D01*
X283000Y302000D02*
Y309000D01*
X283500Y302000D02*
Y309000D01*
X284000Y302000D02*
Y309000D01*
X284500Y302000D02*
Y309000D01*
X285000Y302000D02*
Y309000D01*
X285500Y302000D02*
Y309000D01*
X286000Y302000D02*
Y309000D01*
X286500Y302000D02*
Y309000D01*
X287000Y302000D02*
Y309000D01*
X287500Y302000D02*
Y309000D01*
X288000Y302000D02*
Y309000D01*
X288500Y302000D02*
Y309000D01*
X289000Y302000D02*
Y309000D01*
X289500Y302000D02*
Y309000D01*
X290000Y302000D02*
Y309000D01*
X290500Y216000D02*
Y223000D01*
X277500*
Y216000*
X290500*
X277500D02*
Y223000D01*
X278000Y216000D02*
Y223000D01*
X278500Y216000D02*
Y223000D01*
X279000Y216000D02*
Y223000D01*
X279500Y216000D02*
Y223000D01*
X280000Y216000D02*
Y223000D01*
X280500Y216000D02*
Y223000D01*
X281000Y216000D02*
Y223000D01*
X281500Y216000D02*
Y223000D01*
X282000Y216000D02*
Y223000D01*
X282500Y216000D02*
Y223000D01*
X283000Y216000D02*
Y223000D01*
X283500Y216000D02*
Y223000D01*
X284000Y216000D02*
Y223000D01*
X284500Y216000D02*
Y223000D01*
X285000Y216000D02*
Y223000D01*
X285500Y216000D02*
Y223000D01*
X286000Y216000D02*
Y223000D01*
X286500Y216000D02*
Y223000D01*
X287000Y216000D02*
Y223000D01*
X287500Y216000D02*
Y223000D01*
X288000Y216000D02*
Y223000D01*
X288500Y216000D02*
Y223000D01*
X289000Y216000D02*
Y223000D01*
X289500Y216000D02*
Y223000D01*
X290000Y216000D02*
Y223000D01*
X428500Y234500D02*
X447500D01*
Y247500*
X428500*
Y234500*
Y247500*
X429000Y234500D02*
Y247500D01*
X429500Y234500D02*
Y247500D01*
X430000Y234500D02*
Y247500D01*
X430500Y234500D02*
Y247500D01*
X431000Y234500D02*
Y247500D01*
X431500Y234500D02*
Y247500D01*
X432000Y234500D02*
Y247500D01*
X432500Y234500D02*
Y247500D01*
X433000Y234500D02*
Y247500D01*
X433500Y234500D02*
Y247500D01*
X434000Y234500D02*
Y247500D01*
X434500Y234500D02*
Y247500D01*
X435000Y234500D02*
Y247500D01*
X435500Y234500D02*
Y247500D01*
X436000Y234500D02*
Y247500D01*
X436500Y234500D02*
Y247500D01*
X437000Y234500D02*
Y247500D01*
X437500Y234500D02*
Y247500D01*
X438000Y234500D02*
Y247500D01*
X438500Y234500D02*
Y247500D01*
X439000Y234500D02*
Y247500D01*
X439500Y234500D02*
Y247500D01*
X440000Y234500D02*
Y247500D01*
X440500Y234500D02*
Y247500D01*
X441000Y234500D02*
Y247500D01*
X441500Y234500D02*
Y247500D01*
X442000Y234500D02*
Y247500D01*
X442500Y234500D02*
Y247500D01*
X443000Y234500D02*
Y247500D01*
X443500Y234500D02*
Y247500D01*
X444000Y234500D02*
Y247500D01*
X444500Y234500D02*
Y247500D01*
X445000Y234500D02*
Y247500D01*
X445500Y234500D02*
Y247500D01*
X446000Y234500D02*
Y247500D01*
X446500Y234500D02*
Y247500D01*
X447000Y234500D02*
Y247500D01*
X353500Y253500D02*
Y272500D01*
X340500*
Y253500*
X353500*
X340500D02*
Y272500D01*
X341000Y253500D02*
Y272500D01*
X341500Y253500D02*
Y272500D01*
X342000Y253500D02*
Y272500D01*
X342500Y253500D02*
Y272500D01*
X343000Y253500D02*
Y272500D01*
X343500Y253500D02*
Y272500D01*
X344000Y253500D02*
Y272500D01*
X344500Y253500D02*
Y272500D01*
X345000Y253500D02*
Y272500D01*
X345500Y253500D02*
Y272500D01*
X346000Y253500D02*
Y272500D01*
X346500Y253500D02*
Y272500D01*
X347000Y253500D02*
Y272500D01*
X347500Y253500D02*
Y272500D01*
X348000Y253500D02*
Y272500D01*
X348500Y253500D02*
Y272500D01*
X349000Y253500D02*
Y272500D01*
X349500Y253500D02*
Y272500D01*
X350000Y253500D02*
Y272500D01*
X350500Y253500D02*
Y272500D01*
X351000Y253500D02*
Y272500D01*
X351500Y253500D02*
Y272500D01*
X352000Y253500D02*
Y272500D01*
X352500Y253500D02*
Y272500D01*
X353000Y253500D02*
Y272500D01*
X307000Y225500D02*
X300000D01*
Y212500*
X307000*
Y225500*
X300000Y212500D02*
Y225500D01*
X300500Y212500D02*
Y225500D01*
X301000Y212500D02*
Y225500D01*
X301500Y212500D02*
Y225500D01*
X302000Y212500D02*
Y225500D01*
X302500Y212500D02*
Y225500D01*
X303000Y212500D02*
Y225500D01*
X303500Y212500D02*
Y225500D01*
X304000Y212500D02*
Y225500D01*
X304500Y212500D02*
Y225500D01*
X305000Y212500D02*
Y225500D01*
X305500Y212500D02*
Y225500D01*
X306000Y212500D02*
Y225500D01*
X306500Y212500D02*
Y225500D01*
X307000Y247500D02*
X300000D01*
Y234500*
X307000*
Y247500*
X300000Y234500D02*
Y247500D01*
X300500Y234500D02*
Y247500D01*
X301000Y234500D02*
Y247500D01*
X301500Y234500D02*
Y247500D01*
X302000Y234500D02*
Y247500D01*
X302500Y234500D02*
Y247500D01*
X303000Y234500D02*
Y247500D01*
X303500Y234500D02*
Y247500D01*
X304000Y234500D02*
Y247500D01*
X304500Y234500D02*
Y247500D01*
X305000Y234500D02*
Y247500D01*
X305500Y234500D02*
Y247500D01*
X306000Y234500D02*
Y247500D01*
X306500Y234500D02*
Y247500D01*
X100000Y500000D02*
X600000D01*
Y100000*
X100000*
Y500000*
G54D125*
X322000Y265500D03*
Y246500D03*
G54D126*
X378650Y291350D02*
Y286650D01*
X363350*
Y291350*
X378650*
X363350Y287200D02*
X378650D01*
X363350Y289600D02*
X378650D01*
X364000Y286650D02*
Y291350D01*
X366400Y286650D02*
Y291350D01*
X368800Y286650D02*
Y291350D01*
X371200Y286650D02*
Y291350D01*
X373600Y286650D02*
Y291350D01*
X376000Y286650D02*
Y291350D01*
X378400Y286650D02*
Y291350D01*
X378650Y304350D02*
Y299650D01*
X363350*
Y304350*
X378650*
X363350Y301600D02*
X378650D01*
X363350Y304000D02*
X378650D01*
X364000Y299650D02*
Y304350D01*
X366400Y299650D02*
Y304350D01*
X368800Y299650D02*
Y304350D01*
X371200Y299650D02*
Y304350D01*
X373600Y299650D02*
Y304350D01*
X376000Y299650D02*
Y304350D01*
X378400Y299650D02*
Y304350D01*
G54D127*
X383098Y298520D03*
Y293480D03*
X407902D03*
Y298520D03*
X0Y0D02*
M02*
