*
*
G04 PADS VX.1.1 Build Number: 678707 generated Gerber (RS-274-X) file*
G04 PC Version=2.1*
*
%IN "DC2047A REV03 (6-27-201"*%
*
%MOIN*%
*
%FSLAX35Y35*%
*
*
*
*
G04 PC Standard Apertures*
*
*
G04 Thermal Relief Aperture macro.*
%AMTER*
1,1,$1,0,0*
1,0,$1-$2,0,0*
21,0,$3,$4,0,0,45*
21,0,$3,$4,0,0,135*
%
*
*
G04 Annular Aperture macro.*
%AMANN*
1,1,$1,0,0*
1,0,$2,0,0*
%
*
*
G04 Odd Aperture macro.*
%AMODD*
1,1,$1,0,0*
1,0,$1-0.005,0,0*
%
*
*
G04 PC Custom Aperture Macros*
*
*
*
*
*
*
G04 PC Aperture Table*
*
%ADD010C,0.001*%
%ADD050C,0.01*%
%ADD051C,0.012*%
%ADD052C,0.008*%
%ADD053C,0.02*%
%ADD068C,0.007*%
%ADD070C,0.006*%
*
*
*
*
G04 PC Circuitry*
G04 Layer Name DC2047A REV03 (6-27-201 - circuitry*
%LPD*%
*
*
G04 PC Custom Flashes*
G04 Layer Name DC2047A REV03 (6-27-201 - flashes*
%LPD*%
*
*
G04 PC Circuitry*
G04 Layer Name DC2047A REV03 (6-27-201 - circuitry*
%LPD*%
*
G54D10*
G54D50*
G01X349000Y226800D02*
X335000D01*
X349000Y239200D02*
X335000D01*
X349000Y238800D02*
X335000D01*
X349000Y251200D02*
X335000D01*
X329750Y317500D02*
Y319000D01*
X318250*
Y317625*
Y312500D02*
Y311000D01*
X329750*
Y312375*
X327250Y319000D02*
Y311000D01*
X326750Y319000D02*
Y311000D01*
X351250Y224000D02*
Y225500D01*
X339750*
Y224125*
Y219000D02*
Y217500D01*
X351250*
Y218875*
X348750Y225500D02*
Y217500D01*
X348250Y225500D02*
Y217500D01*
X315250Y214500D02*
Y213000D01*
X326750*
Y214375*
Y219500D02*
Y221000D01*
X315250*
Y219625*
X317750Y213000D02*
Y221000D01*
X318250Y213000D02*
Y221000D01*
X329500Y225250D02*
X331000D01*
Y236750*
X329625*
X324500D02*
X323000D01*
Y225250*
X324375*
X331000Y227750D02*
X323000D01*
X331000Y228250D02*
X323000D01*
X319500Y225250D02*
X321000D01*
Y236750*
X319625*
X314500D02*
X313000D01*
Y225250*
X314375*
X321000Y227750D02*
X313000D01*
X321000Y228250D02*
X313000D01*
X582500Y300307D02*
X585500D01*
X584000Y300807D02*
X582500Y303807D01*
X585500*
X584000Y300807*
X588000Y312000D02*
Y292000D01*
X580000*
Y312000*
X588000*
X289000Y233500D02*
X291500D01*
Y248500*
X289000*
X279000Y233500D02*
X278500D01*
X276500Y235500*
Y248500*
X279000*
X294500Y278000D02*
Y275500D01*
X309500*
Y278000*
X294500Y288000D02*
Y288500D01*
X296500Y290500*
X309500*
Y288000*
X289000Y275500D02*
X291500D01*
Y290500*
X289000*
X279000Y275500D02*
X278500D01*
X276500Y277500*
Y290500*
X279000*
X294500Y320000D02*
Y317500D01*
X309500*
Y320000*
X294500Y330000D02*
Y330500D01*
X296500Y332500*
X309500*
Y330000*
X289000Y317500D02*
X291500D01*
Y332500*
X289000*
X279000Y317500D02*
X278500D01*
X276500Y319500*
Y332500*
X279000*
X294500Y257000D02*
Y254500D01*
X309500*
Y257000*
X294500Y267000D02*
Y267500D01*
X296500Y269500*
X309500*
Y267000*
X289000Y254500D02*
X291500D01*
Y269500*
X289000*
X279000Y254500D02*
X278500D01*
X276500Y256500*
Y269500*
X279000*
X294500Y299000D02*
Y296500D01*
X309500*
Y299000*
X294500Y309000D02*
Y309500D01*
X296500Y311500*
X309500*
Y309000*
X289000Y296500D02*
X291500D01*
Y311500*
X289000*
X279000Y296500D02*
X278500D01*
X276500Y298500*
Y311500*
X279000*
Y228500D02*
X276500D01*
Y213500*
X279000*
X289000Y228500D02*
X289500D01*
X291500Y226500*
Y213500*
X289000*
X447500Y237000D02*
X448500D01*
Y248000*
X445500Y251000*
X427500*
Y237000*
X428500*
X351000Y272500D02*
Y273500D01*
X340000*
X337000Y270500*
Y252500*
X351000*
Y253500*
X294500Y214000D02*
Y211500D01*
X309500*
Y214000*
X294500Y224000D02*
Y224500D01*
X296500Y226500*
X309500*
Y224000*
X294500Y236000D02*
Y233500D01*
X309500*
Y236000*
X294500Y246000D02*
Y246500D01*
X296500Y248500*
X309500*
Y246000*
X354000Y305000D02*
Y305500D01*
X352500Y307000*
X352000*
X336000D02*
X334000D01*
Y305000*
X336000Y291000D02*
X334000D01*
Y293000*
X354000Y291000D02*
Y293000D01*
Y291000D02*
X352000D01*
X351500Y309500D02*
G75*
G03X351500I-500J0D01*
G01X328500Y266000D02*
Y246000D01*
X315500Y266000D02*
Y246000D01*
X380500Y292000D02*
Y299000D01*
X361500Y292000D02*
Y299000D01*
X368250Y309000D02*
Y307500D01*
X379750*
Y308875*
Y314000D02*
Y315500D01*
X368250*
Y314125*
X370750Y307500D02*
Y315500D01*
X371250Y307500D02*
Y315500D01*
X386563Y290882D02*
X404437D01*
Y301118*
X386563*
Y290882*
X390433Y298598D02*
G03X390433I-1232J0D01*
G01X308000Y478063D02*
Y471500D01*
X310727*
X314364Y478063D02*
Y471500D01*
X312773Y478063D02*
X315955D01*
X320273D02*
X318000Y473688D01*
X318000D02*
X321409D01*
X320273Y478063D02*
Y471500D01*
X323682Y476500D02*
Y476813D01*
X323682D02*
X323909Y477438D01*
X323909D02*
X324136Y477750D01*
X324591Y478063*
X324591D02*
X325500D01*
X325500D02*
X325955Y477750D01*
X326182Y477438*
X326182D02*
X326409Y476813D01*
X326409D02*
Y476188D01*
X326409D02*
X326182Y475563D01*
X326182D02*
X325727Y474625D01*
X323455Y471500*
X326636*
X331864Y478063D02*
X329591Y471500D01*
X328682Y478063D02*
X331864D01*
X336636Y477125D02*
X336409Y477750D01*
X335727Y478063*
X335727D02*
X335273D01*
X335273D02*
X334591Y477750D01*
X334136Y476813*
X334136D02*
X333909Y475250D01*
Y473688*
X333909D02*
X334136Y472438D01*
X334136D02*
X334591Y471813D01*
X334591D02*
X335273Y471500D01*
X335500*
X336182Y471813*
X336182D02*
X336636Y472438D01*
X336636D02*
X336864Y473375D01*
Y473688*
X336864D02*
X336636Y474625D01*
X336182Y475250*
X335500Y475563*
X335500D02*
X335273D01*
X335273D02*
X334591Y475250D01*
X334136Y474625*
X333909Y473688*
X339364Y471813D02*
X339136Y471500D01*
X338909Y471813*
X338909D02*
X339136Y472125D01*
X339364Y471813*
X339364D02*
Y471187D01*
X339364D02*
X339136Y470562D01*
X339136D02*
X338909Y470250D01*
X346636Y478063D02*
Y471500D01*
X349364*
X353000Y478063D02*
Y471500D01*
X351409Y478063D02*
X354591D01*
X358909D02*
X356636Y473688D01*
X356636D02*
X360045D01*
X358909Y478063D02*
Y471500D01*
X362545Y478063D02*
X365045D01*
X365045D02*
X363682Y475563D01*
X363682D02*
X364364D01*
X364364D02*
X364818Y475250D01*
X365045Y474938*
X365045D02*
X365273Y474000D01*
Y473375*
X365045Y472438*
X365045D02*
X364591Y471813D01*
X364591D02*
X363909Y471500D01*
X363227*
X362545Y471813*
X362545D02*
X362318Y472125D01*
X362091Y472750*
X367545Y476500D02*
Y476813D01*
X367545D02*
X367773Y477438D01*
X367773D02*
X368000Y477750D01*
X368455Y478063*
X368455D02*
X369364D01*
X369364D02*
X369818Y477750D01*
X370045Y477438*
X370045D02*
X370273Y476813D01*
X370273D02*
Y476188D01*
X370273D02*
X370045Y475563D01*
X370045D02*
X369591Y474625D01*
X367318Y471500*
X370500*
X372545Y476813D02*
X373000Y477125D01*
X373682Y478063*
X373682D02*
Y471500D01*
X376182Y471813D02*
X375955Y471500D01*
X375727Y471813*
X375727D02*
X375955Y472125D01*
X376182Y471813*
X376182D02*
Y471187D01*
X376182D02*
X375955Y470562D01*
X375955D02*
X375727Y470250D01*
X383455Y478063D02*
Y471500D01*
X386182*
X389818Y478063D02*
Y471500D01*
X388227Y478063D02*
X391409D01*
X395727D02*
X393455Y473688D01*
X393455D02*
X396864D01*
X395727Y478063D02*
Y471500D01*
X399364Y478063D02*
X401864D01*
X401864D02*
X400500Y475563D01*
X400500D02*
X401182D01*
X401182D02*
X401636Y475250D01*
X401864Y474938*
X401864D02*
X402091Y474000D01*
Y473375*
X401864Y472438*
X401864D02*
X401409Y471813D01*
X401409D02*
X400727Y471500D01*
X400045*
X399364Y471813*
X399364D02*
X399136Y472125D01*
X398909Y472750*
X404364Y476500D02*
Y476813D01*
X404364D02*
X404591Y477438D01*
X404591D02*
X404818Y477750D01*
X405273Y478063*
X405273D02*
X406182D01*
X406182D02*
X406636Y477750D01*
X406864Y477438*
X406864D02*
X407091Y476813D01*
X407091D02*
Y476188D01*
X407091D02*
X406864Y475563D01*
X406864D02*
X406409Y474625D01*
X404136Y471500*
X407318*
X410727Y478063D02*
X410045Y477750D01*
X409591Y476813*
X409591D02*
X409364Y475250D01*
Y474313*
X409364D02*
X409591Y472750D01*
X410045Y471813*
X410045D02*
X410727Y471500D01*
X411182*
X411864Y471813*
X411864D02*
X412318Y472750D01*
X412545Y474313*
X412545D02*
Y475250D01*
X412318Y476813*
X412318D02*
X411864Y477750D01*
X411182Y478063*
X411182D02*
X410727D01*
X308000Y467063D02*
Y460500D01*
X311182Y467063D02*
Y460500D01*
X308000Y463938D02*
X311182D01*
X313227Y467063D02*
Y460500D01*
X318682Y465500D02*
X318455Y466125D01*
X318000Y466750*
X317545Y467063*
X317545D02*
X316636D01*
X316636D02*
X316182Y466750D01*
X315727Y466125*
X315500Y465500*
X315273Y464563*
X315273D02*
Y463000D01*
X315500Y462063*
X315500D02*
X315727Y461438D01*
X315727D02*
X316182Y460813D01*
X316182D02*
X316636Y460500D01*
X317545*
X318000Y460813*
X318000D02*
X318455Y461438D01*
X318455D02*
X318682Y462063D01*
X318682D02*
Y463000D01*
X317545D02*
X318682D01*
X320727Y467063D02*
Y460500D01*
X323909Y467063D02*
Y460500D01*
X320727Y463938D02*
X323909D01*
X331182Y467063D02*
Y460500D01*
Y467063D02*
X334136D01*
X331182Y463938D02*
X333000D01*
X331182Y460500D02*
X334136D01*
X336182Y467063D02*
Y460500D01*
Y467063D02*
X339136D01*
X336182Y463938D02*
X338000D01*
X341182Y467063D02*
Y460500D01*
Y467063D02*
X344136D01*
X341182Y463938D02*
X343000D01*
X346182Y467063D02*
Y460500D01*
X351636Y465500D02*
X351409Y466125D01*
X350955Y466750*
X350500Y467063*
X350500D02*
X349591D01*
X349591D02*
X349136Y466750D01*
X348682Y466125*
X348455Y465500*
X348227Y464563*
X348227D02*
Y463000D01*
X348455Y462063*
X348455D02*
X348682Y461438D01*
X348682D02*
X349136Y460813D01*
X349136D02*
X349591Y460500D01*
X350500*
X350955Y460813*
X350955D02*
X351409Y461438D01*
X351409D02*
X351636Y462063D01*
X353682Y467063D02*
Y460500D01*
X355727Y467063D02*
Y460500D01*
Y467063D02*
X358682D01*
X355727Y463938D02*
X357545D01*
X355727Y460500D02*
X358682D01*
X360727Y467063D02*
Y460500D01*
Y467063D02*
X363909Y460500D01*
Y467063D02*
Y460500D01*
X369364Y465500D02*
X369136Y466125D01*
X368682Y466750*
X368227Y467063*
X368227D02*
X367318D01*
X367318D02*
X366864Y466750D01*
X366409Y466125*
X366182Y465500*
X365955Y464563*
X365955D02*
Y463000D01*
X366182Y462063*
X366182D02*
X366409Y461438D01*
X366409D02*
X366864Y460813D01*
X366864D02*
X367318Y460500D01*
X368227*
X368682Y460813*
X368682D02*
X369136Y461438D01*
X369136D02*
X369364Y462063D01*
X371409Y467063D02*
X373227Y463938D01*
X373227D02*
Y460500D01*
X375045Y467063D02*
X373227Y463938D01*
X382318Y467063D02*
Y460500D01*
Y467063D02*
X384364D01*
X384364D02*
X385045Y466750D01*
X385273Y466438*
X385273D02*
X385500Y465813D01*
X385500D02*
Y464875D01*
X385273Y464250*
X385045Y463938*
X385045D02*
X384364Y463625D01*
X382318*
X388909Y467063D02*
X388455Y466750D01*
X388000Y466125*
X387773Y465500*
X387545Y464563*
X387545D02*
Y463000D01*
X387773Y462063*
X387773D02*
X388000Y461438D01*
X388000D02*
X388455Y460813D01*
X388455D02*
X388909Y460500D01*
X389818*
X390273Y460813*
X390273D02*
X390727Y461438D01*
X390727D02*
X390955Y462063D01*
X390955D02*
X391182Y463000D01*
Y464563*
X391182D02*
X390955Y465500D01*
X390727Y466125*
X390273Y466750*
X389818Y467063*
X389818D02*
X388909D01*
X393227D02*
Y460500D01*
Y467063D02*
X396182D01*
X393227Y463938D02*
X395045D01*
X393227Y460500D02*
X396182D01*
X403455Y467063D02*
Y460500D01*
Y467063D02*
X405500D01*
X405500D02*
X406182Y466750D01*
X406409Y466438*
X406409D02*
X406636Y465813D01*
X406636D02*
Y464875D01*
X406409Y464250*
X406182Y463938*
X406182D02*
X405500Y463625D01*
X403455*
X408682Y467063D02*
Y460500D01*
Y467063D02*
X410273D01*
X410273D02*
X410955Y466750D01*
X411409Y466125*
X411636Y465500*
X411864Y464563*
X411864D02*
Y463000D01*
X411636Y462063*
X411636D02*
X411409Y461438D01*
X411409D02*
X410955Y460813D01*
X410955D02*
X410273Y460500D01*
X408682*
X419136Y467063D02*
Y460500D01*
X421182Y467063D02*
Y460500D01*
Y467063D02*
X424364Y460500D01*
Y467063D02*
Y460500D01*
X428000Y467063D02*
Y460500D01*
X426409Y467063D02*
X429591D01*
X431636D02*
Y460500D01*
Y467063D02*
X434591D01*
X431636Y463938D02*
X433455D01*
X431636Y460500D02*
X434591D01*
X436636Y467063D02*
Y460500D01*
Y467063D02*
X438682D01*
X438682D02*
X439364Y466750D01*
X439591Y466438*
X439591D02*
X439818Y465813D01*
X439818D02*
Y465188D01*
X439818D02*
X439591Y464563D01*
X439591D02*
X439364Y464250D01*
X438682Y463938*
X438682D02*
X436636D01*
X438227D02*
X439818Y460500D01*
X441864Y467063D02*
Y460500D01*
Y467063D02*
X444818D01*
X441864Y463938D02*
X443682D01*
X448682Y467063D02*
X446864Y460500D01*
X448682Y467063D02*
X450500Y460500D01*
X447545Y462688D02*
X449818D01*
X455955Y465500D02*
X455727Y466125D01*
X455273Y466750*
X454818Y467063*
X454818D02*
X453909D01*
X453909D02*
X453455Y466750D01*
X453000Y466125*
X452773Y465500*
X452545Y464563*
X452545D02*
Y463000D01*
X452773Y462063*
X452773D02*
X453000Y461438D01*
X453000D02*
X453455Y460813D01*
X453455D02*
X453909Y460500D01*
X454818*
X455273Y460813*
X455273D02*
X455727Y461438D01*
X455727D02*
X455955Y462063D01*
X458000Y467063D02*
Y460500D01*
Y467063D02*
X460955D01*
X458000Y463938D02*
X459818D01*
X458000Y460500D02*
X460955D01*
X307500Y456063D02*
X308636Y449500D01*
X309773Y456063D02*
X308636Y449500D01*
X309773Y456063D02*
X310909Y449500D01*
X312045Y456063D02*
X310909Y449500D01*
X314091Y456063D02*
Y449500D01*
X317727Y456063D02*
Y449500D01*
X316136Y456063D02*
X319318D01*
X321364D02*
Y449500D01*
X324545Y456063D02*
Y449500D01*
X321364Y452938D02*
X324545D01*
X331818Y456063D02*
Y449500D01*
X333864Y456063D02*
Y449500D01*
Y456063D02*
X337045Y449500D01*
Y456063D02*
Y449500D01*
X340682Y456063D02*
Y449500D01*
X339091Y456063D02*
X342273D01*
X344318D02*
Y449500D01*
Y456063D02*
X347273D01*
X344318Y452938D02*
X346136D01*
X344318Y449500D02*
X347273D01*
X352727Y454500D02*
X352500Y455125D01*
X352045Y455750*
X351591Y456063*
X351591D02*
X350682D01*
X350682D02*
X350227Y455750D01*
X349773Y455125*
X349545Y454500*
X349318Y453563*
X349318D02*
Y452000D01*
X349545Y451063*
X349545D02*
X349773Y450438D01*
X349773D02*
X350227Y449813D01*
X350227D02*
X350682Y449500D01*
X351591*
X352045Y449813*
X352045D02*
X352500Y450438D01*
X352500D02*
X352727Y451063D01*
X352727D02*
Y452000D01*
X351591D02*
X352727D01*
X354773Y456063D02*
Y449500D01*
Y456063D02*
X356818D01*
X356818D02*
X357500Y455750D01*
X357727Y455438*
X357727D02*
X357955Y454813D01*
X357955D02*
Y454188D01*
X357955D02*
X357727Y453563D01*
X357727D02*
X357500Y453250D01*
X356818Y452938*
X356818D02*
X354773D01*
X356364D02*
X357955Y449500D01*
X361818Y456063D02*
X360000Y449500D01*
X361818Y456063D02*
X363636Y449500D01*
X360682Y451688D02*
X362955D01*
X367273Y456063D02*
Y449500D01*
X365682Y456063D02*
X368864D01*
X370909D02*
Y449500D01*
Y456063D02*
X373864D01*
X370909Y452938D02*
X372727D01*
X370909Y449500D02*
X373864D01*
X375909Y456063D02*
Y449500D01*
Y456063D02*
X377500D01*
X377500D02*
X378182Y455750D01*
X378636Y455125*
X378864Y454500*
X379091Y453563*
X379091D02*
Y452000D01*
X378864Y451063*
X378864D02*
X378636Y450438D01*
X378636D02*
X378182Y449813D01*
X378182D02*
X377500Y449500D01*
X375909*
X389545Y455125D02*
X389091Y455750D01*
X388409Y456063*
X388409D02*
X387500D01*
X387500D02*
X386818Y455750D01*
X386364Y455125*
Y454500*
X386591Y453875*
X386818Y453563*
X386818D02*
X387273Y453250D01*
X388636Y452625*
X389091Y452313*
X389091D02*
X389318Y452000D01*
X389545Y451375*
Y450438*
X389545D02*
X389091Y449813D01*
X389091D02*
X388409Y449500D01*
X387500*
X386818Y449813*
X386818D02*
X386364Y450438D01*
X391591Y456063D02*
X392727Y449500D01*
X393864Y456063D02*
X392727Y449500D01*
X393864Y456063D02*
X395000Y449500D01*
X396136Y456063D02*
X395000Y449500D01*
X398182Y456063D02*
Y449500D01*
X401818Y456063D02*
Y449500D01*
X400227Y456063D02*
X403409D01*
X408864Y454500D02*
X408636Y455125D01*
X408182Y455750*
X407727Y456063*
X407727D02*
X406818D01*
X406818D02*
X406364Y455750D01*
X405909Y455125*
X405682Y454500*
X405455Y453563*
X405455D02*
Y452000D01*
X405682Y451063*
X405682D02*
X405909Y450438D01*
X405909D02*
X406364Y449813D01*
X406364D02*
X406818Y449500D01*
X407727*
X408182Y449813*
X408182D02*
X408636Y450438D01*
X408636D02*
X408864Y451063D01*
X410909Y456063D02*
Y449500D01*
X414091Y456063D02*
Y449500D01*
X410909Y452938D02*
X414091D01*
X416136Y456063D02*
Y449500D01*
X418182Y456063D02*
Y449500D01*
Y456063D02*
X421364Y449500D01*
Y456063D02*
Y449500D01*
X426818Y454500D02*
X426591Y455125D01*
X426136Y455750*
X425682Y456063*
X425682D02*
X424773D01*
X424773D02*
X424318Y455750D01*
X423864Y455125*
X423636Y454500*
X423409Y453563*
X423409D02*
Y452000D01*
X423636Y451063*
X423636D02*
X423864Y450438D01*
X423864D02*
X424318Y449813D01*
X424318D02*
X424773Y449500D01*
X425682*
X426136Y449813*
X426136D02*
X426591Y450438D01*
X426591D02*
X426818Y451063D01*
X426818D02*
Y452000D01*
X425682D02*
X426818D01*
X434091Y456063D02*
Y449500D01*
Y456063D02*
X436136D01*
X436136D02*
X436818Y455750D01*
X437045Y455438*
X437045D02*
X437273Y454813D01*
X437273D02*
Y454188D01*
X437273D02*
X437045Y453563D01*
X437045D02*
X436818Y453250D01*
X436136Y452938*
X436136D02*
X434091D01*
X435682D02*
X437273Y449500D01*
X439318Y456063D02*
Y449500D01*
Y456063D02*
X442273D01*
X439318Y452938D02*
X441136D01*
X439318Y449500D02*
X442273D01*
X447727Y454500D02*
X447500Y455125D01*
X447045Y455750*
X446591Y456063*
X446591D02*
X445682D01*
X445682D02*
X445227Y455750D01*
X444773Y455125*
X444545Y454500*
X444318Y453563*
X444318D02*
Y452000D01*
X444545Y451063*
X444545D02*
X444773Y450438D01*
X444773D02*
X445227Y449813D01*
X445227D02*
X445682Y449500D01*
X446591*
X447045Y449813*
X447045D02*
X447500Y450438D01*
X447500D02*
X447727Y451063D01*
X447727D02*
Y452000D01*
X446591D02*
X447727D01*
X449773Y456063D02*
Y451375D01*
X450000Y450438*
X450000D02*
X450455Y449813D01*
X450455D02*
X451136Y449500D01*
X451591*
X452273Y449813*
X452273D02*
X452727Y450438D01*
X452727D02*
X452955Y451375D01*
Y456063*
X455000D02*
Y449500D01*
X457727*
X461591Y456063D02*
X459773Y449500D01*
X461591Y456063D02*
X463409Y449500D01*
X460455Y451688D02*
X462727D01*
X467045Y456063D02*
Y449500D01*
X465455Y456063D02*
X468636D01*
X472045D02*
X471591Y455750D01*
X471136Y455125*
X470909Y454500*
X470682Y453563*
X470682D02*
Y452000D01*
X470909Y451063*
X470909D02*
X471136Y450438D01*
X471136D02*
X471591Y449813D01*
X471591D02*
X472045Y449500D01*
X472955*
X473409Y449813*
X473409D02*
X473864Y450438D01*
X473864D02*
X474091Y451063D01*
X474091D02*
X474318Y452000D01*
Y453563*
X474318D02*
X474091Y454500D01*
X473864Y455125*
X473409Y455750*
X472955Y456063*
X472955D02*
X472045D01*
X476364D02*
Y449500D01*
Y456063D02*
X478409D01*
X478409D02*
X479091Y455750D01*
X479318Y455438*
X479318D02*
X479545Y454813D01*
X479545D02*
Y454188D01*
X479545D02*
X479318Y453563D01*
X479318D02*
X479091Y453250D01*
X478409Y452938*
X478409D02*
X476364D01*
X477955D02*
X479545Y449500D01*
X309818Y446063D02*
X308000Y439500D01*
X309818Y446063D02*
X311636Y439500D01*
X308682Y441688D02*
X310955D01*
X313682Y446063D02*
Y439500D01*
Y446063D02*
X316864Y439500D01*
Y446063D02*
Y439500D01*
X318909Y446063D02*
Y439500D01*
Y446063D02*
X320500D01*
X320500D02*
X321182Y445750D01*
X321636Y445125*
X321864Y444500*
X322091Y443563*
X322091D02*
Y442000D01*
X321864Y441063*
X321864D02*
X321636Y440438D01*
X321636D02*
X321182Y439813D01*
X321182D02*
X320500Y439500D01*
X318909*
X332318Y443875D02*
X332091Y442938D01*
X332091D02*
X331636Y442313D01*
X331636D02*
X330955Y442000D01*
X330727*
X330045Y442313*
X330045D02*
X329591Y442938D01*
X329591D02*
X329364Y443875D01*
Y444188*
X329364D02*
X329591Y445125D01*
X330045Y445750*
X330727Y446063*
X330727D02*
X330955D01*
X330955D02*
X331636Y445750D01*
X332091Y445125*
X332318Y443875*
Y442313*
X332318D02*
X332091Y440750D01*
X331636Y439813*
X331636D02*
X330955Y439500D01*
X330500*
X329818Y439813*
X329818D02*
X329591Y440438D01*
X334364Y446063D02*
X336182Y439500D01*
X338000Y446063D02*
X336182Y439500D01*
X340045Y442313D02*
X344136D01*
X349136Y446063D02*
X346864D01*
X346864D02*
X346636Y443250D01*
X346864Y443563*
X346864D02*
X347545Y443875D01*
X348227*
X348909Y443563*
X348909D02*
X349364Y442938D01*
X349364D02*
X349591Y442000D01*
X349364Y441375*
X349136Y440438*
X349136D02*
X348682Y439813D01*
X348682D02*
X348000Y439500D01*
X347318*
X346636Y439813*
X346636D02*
X346409Y440125D01*
X346182Y440750*
X354818Y446063D02*
X352545Y439500D01*
X351636Y446063D02*
X354818D01*
X356864D02*
X358682Y439500D01*
X360500Y446063D02*
X358682Y439500D01*
X369591Y446063D02*
X367773Y439500D01*
X369591Y446063D02*
X371409Y439500D01*
X368455Y441688D02*
X370727D01*
X373455Y446063D02*
Y441375D01*
X373682Y440438*
X373682D02*
X374136Y439813D01*
X374136D02*
X374818Y439500D01*
X375273*
X375955Y439813*
X375955D02*
X376409Y440438D01*
X376409D02*
X376636Y441375D01*
Y446063*
X378682D02*
X381864Y439500D01*
Y446063D02*
X378682Y439500D01*
X392318Y445125D02*
X391864Y445750D01*
X391182Y446063*
X391182D02*
X390273D01*
X390273D02*
X389591Y445750D01*
X389136Y445125*
Y444500*
X389364Y443875*
X389591Y443563*
X389591D02*
X390045Y443250D01*
X391409Y442625*
X391864Y442313*
X391864D02*
X392091Y442000D01*
X392318Y441375*
Y440438*
X392318D02*
X391864Y439813D01*
X391864D02*
X391182Y439500D01*
X390273*
X389591Y439813*
X389591D02*
X389136Y440438D01*
X394364Y446063D02*
Y441375D01*
X394591Y440438*
X394591D02*
X395045Y439813D01*
X395045D02*
X395727Y439500D01*
X396182*
X396864Y439813*
X396864D02*
X397318Y440438D01*
X397318D02*
X397545Y441375D01*
Y446063*
X399591D02*
Y439500D01*
Y446063D02*
X401636D01*
X401636D02*
X402318Y445750D01*
X402545Y445438*
X402545D02*
X402773Y444813D01*
X402773D02*
Y443875D01*
X402545Y443250*
X402318Y442938*
X402318D02*
X401636Y442625D01*
X399591*
X404818Y446063D02*
Y439500D01*
Y446063D02*
X406864D01*
X406864D02*
X407545Y445750D01*
X407773Y445438*
X407773D02*
X408000Y444813D01*
X408000D02*
Y443875D01*
X407773Y443250*
X407545Y442938*
X407545D02*
X406864Y442625D01*
X404818*
X411409Y446063D02*
X410955Y445750D01*
X410500Y445125*
X410273Y444500*
X410045Y443563*
X410045D02*
Y442000D01*
X410273Y441063*
X410273D02*
X410500Y440438D01*
X410500D02*
X410955Y439813D01*
X410955D02*
X411409Y439500D01*
X412318*
X412773Y439813*
X412773D02*
X413227Y440438D01*
X413227D02*
X413455Y441063D01*
X413455D02*
X413682Y442000D01*
Y443563*
X413682D02*
X413455Y444500D01*
X413227Y445125*
X412773Y445750*
X412318Y446063*
X412318D02*
X411409D01*
X415727D02*
Y439500D01*
Y446063D02*
X417773D01*
X417773D02*
X418455Y445750D01*
X418682Y445438*
X418682D02*
X418909Y444813D01*
X418909D02*
Y444188D01*
X418909D02*
X418682Y443563D01*
X418682D02*
X418455Y443250D01*
X417773Y442938*
X417773D02*
X415727D01*
X417318D02*
X418909Y439500D01*
X422545Y446063D02*
Y439500D01*
X420955Y446063D02*
X424136D01*
X308000Y434563D02*
Y428000D01*
Y434563D02*
X309591D01*
X309591D02*
X310273Y434250D01*
X310727Y433625*
X310955Y433000*
X311182Y432063*
X311182D02*
Y430500D01*
X310955Y429563*
X310955D02*
X310727Y428938D01*
X310727D02*
X310273Y428313D01*
X310273D02*
X309591Y428000D01*
X308000*
X313227Y434563D02*
Y428000D01*
Y434563D02*
X316182D01*
X313227Y431438D02*
X315045D01*
X313227Y428000D02*
X316182D01*
X318227Y434563D02*
Y428000D01*
Y434563D02*
X320045Y428000D01*
X321864Y434563D02*
X320045Y428000D01*
X321864Y434563D02*
Y428000D01*
X325273Y434563D02*
X324818Y434250D01*
X324364Y433625*
X324136Y433000*
X323909Y432063*
X323909D02*
Y430500D01*
X324136Y429563*
X324136D02*
X324364Y428938D01*
X324364D02*
X324818Y428313D01*
X324818D02*
X325273Y428000D01*
X326182*
X326636Y428313*
X326636D02*
X327091Y428938D01*
X327091D02*
X327318Y429563D01*
X327318D02*
X327545Y430500D01*
Y432063*
X327545D02*
X327318Y433000D01*
X327091Y433625*
X326636Y434250*
X326182Y434563*
X326182D02*
X325273D01*
X338227Y433000D02*
X338000Y433625D01*
X337545Y434250*
X337091Y434563*
X337091D02*
X336182D01*
X336182D02*
X335727Y434250D01*
X335273Y433625*
X335045Y433000*
X334818Y432063*
X334818D02*
Y430500D01*
X335045Y429563*
X335045D02*
X335273Y428938D01*
X335273D02*
X335727Y428313D01*
X335727D02*
X336182Y428000D01*
X337091*
X337545Y428313*
X337545D02*
X338000Y428938D01*
X338000D02*
X338227Y429563D01*
X340273Y434563D02*
Y428000D01*
X342318Y434563D02*
Y428000D01*
Y434563D02*
X344364D01*
X344364D02*
X345045Y434250D01*
X345273Y433938*
X345273D02*
X345500Y433313D01*
X345500D02*
Y432688D01*
X345500D02*
X345273Y432063D01*
X345273D02*
X345045Y431750D01*
X344364Y431438*
X344364D02*
X342318D01*
X343909D02*
X345500Y428000D01*
X350955Y433000D02*
X350727Y433625D01*
X350273Y434250*
X349818Y434563*
X349818D02*
X348909D01*
X348909D02*
X348455Y434250D01*
X348000Y433625*
X347773Y433000*
X347545Y432063*
X347545D02*
Y430500D01*
X347773Y429563*
X347773D02*
X348000Y428938D01*
X348000D02*
X348455Y428313D01*
X348455D02*
X348909Y428000D01*
X349818*
X350273Y428313*
X350273D02*
X350727Y428938D01*
X350727D02*
X350955Y429563D01*
X353000Y434563D02*
Y429875D01*
X353227Y428938*
X353227D02*
X353682Y428313D01*
X353682D02*
X354364Y428000D01*
X354818*
X355500Y428313*
X355500D02*
X355955Y428938D01*
X355955D02*
X356182Y429875D01*
Y434563*
X358227D02*
Y428000D01*
X361864Y434563D02*
Y428000D01*
X360273Y434563D02*
X363455D01*
X370955Y433000D02*
Y433313D01*
X370955D02*
X371182Y433938D01*
X371182D02*
X371409Y434250D01*
X371864Y434563*
X371864D02*
X372773D01*
X372773D02*
X373227Y434250D01*
X373455Y433938*
X373455D02*
X373682Y433313D01*
X373682D02*
Y432688D01*
X373682D02*
X373455Y432063D01*
X373455D02*
X373000Y431125D01*
X370727Y428000*
X373909*
X377318Y434563D02*
X376636Y434250D01*
X376182Y433313*
X376182D02*
X375955Y431750D01*
Y430813*
X375955D02*
X376182Y429250D01*
X376636Y428313*
X376636D02*
X377318Y428000D01*
X377773*
X378455Y428313*
X378455D02*
X378909Y429250D01*
X379136Y430813*
X379136D02*
Y431750D01*
X378909Y433313*
X378909D02*
X378455Y434250D01*
X377773Y434563*
X377773D02*
X377318D01*
X383455D02*
X381182Y430188D01*
X381182D02*
X384591D01*
X383455Y434563D02*
Y428000D01*
X389818Y434563D02*
X387545Y428000D01*
X386636Y434563D02*
X389818D01*
X393682D02*
X391864Y428000D01*
X393682Y434563D02*
X395500Y428000D01*
X392545Y430188D02*
X394818D01*
X402773Y430813D02*
X406864D01*
X545545Y357625D02*
Y352000D01*
X543500Y354813D02*
X547591D01*
X549636Y358563D02*
X551455Y352000D01*
X553273Y358563D02*
X551455Y352000D01*
X556682Y358563D02*
X556227Y358250D01*
X555773Y357625*
X555545Y357000*
X555318Y356063*
X555318D02*
Y354500D01*
X555545Y353563*
X555545D02*
X555773Y352938D01*
X555773D02*
X556227Y352313D01*
X556227D02*
X556682Y352000D01*
X557591*
X558045Y352313*
X558045D02*
X558500Y352938D01*
X558500D02*
X558727Y353563D01*
X558727D02*
X558955Y354500D01*
Y356063*
X558955D02*
X558727Y357000D01*
X558500Y357625*
X558045Y358250*
X557591Y358563*
X557591D02*
X556682D01*
X561000D02*
Y353875D01*
X561227Y352938*
X561227D02*
X561682Y352313D01*
X561682D02*
X562364Y352000D01*
X562818*
X563500Y352313*
X563500D02*
X563955Y352938D01*
X563955D02*
X564182Y353875D01*
Y358563*
X567818D02*
Y352000D01*
X566227Y358563D02*
X569409D01*
X543500Y254813D02*
X547591D01*
X549636Y258563D02*
X551455Y252000D01*
X553273Y258563D02*
X551455Y252000D01*
X556682Y258563D02*
X556227Y258250D01*
X555773Y257625*
X555545Y257000*
X555318Y256063*
X555318D02*
Y254500D01*
X555545Y253563*
X555545D02*
X555773Y252938D01*
X555773D02*
X556227Y252313D01*
X556227D02*
X556682Y252000D01*
X557591*
X558045Y252313*
X558045D02*
X558500Y252938D01*
X558500D02*
X558727Y253563D01*
X558727D02*
X558955Y254500D01*
Y256063*
X558955D02*
X558727Y257000D01*
X558500Y257625*
X558045Y258250*
X557591Y258563*
X557591D02*
X556682D01*
X561000D02*
Y253875D01*
X561227Y252938*
X561227D02*
X561682Y252313D01*
X561682D02*
X562364Y252000D01*
X562818*
X563500Y252313*
X563500D02*
X563955Y252938D01*
X563955D02*
X564182Y253875D01*
Y258563*
X567818D02*
Y252000D01*
X566227Y258563D02*
X569409D01*
X331409Y132500D02*
X331182Y133125D01*
X330727Y133750*
X330273Y134063*
X330273D02*
X329364D01*
X329364D02*
X328909Y133750D01*
X328455Y133125*
X328227Y132500*
X328000Y131563*
X328000D02*
Y130000D01*
X328227Y129063*
X328227D02*
X328455Y128438D01*
X328455D02*
X328909Y127813D01*
X328909D02*
X329364Y127500D01*
X330273*
X330727Y127813*
X330727D02*
X331182Y128438D01*
X331182D02*
X331409Y129063D01*
X331409D02*
Y130000D01*
X330273D02*
X331409D01*
X333455Y134063D02*
Y127500D01*
Y134063D02*
X336636Y127500D01*
Y134063D02*
Y127500D01*
X338682Y134063D02*
Y127500D01*
Y134063D02*
X340273D01*
X340273D02*
X340955Y133750D01*
X341409Y133125*
X341636Y132500*
X341864Y131563*
X341864D02*
Y130000D01*
X341636Y129063*
X341636D02*
X341409Y128438D01*
X341409D02*
X340955Y127813D01*
X340955D02*
X340273Y127500D01*
X338682*
X555591Y156563D02*
Y150000D01*
X554000Y156563D02*
X557182D01*
X559455Y155000D02*
Y155313D01*
X559455D02*
X559682Y155938D01*
X559682D02*
X559909Y156250D01*
X560364Y156563*
X560364D02*
X561273D01*
X561273D02*
X561727Y156250D01*
X561955Y155938*
X561955D02*
X562182Y155313D01*
X562182D02*
Y154688D01*
X562182D02*
X561955Y154063D01*
X561955D02*
X561500Y153125D01*
X559227Y150000*
X562409*
X564455Y156563D02*
Y150000D01*
Y156563D02*
X566500D01*
X566500D02*
X567182Y156250D01*
X567409Y155938*
X567409D02*
X567636Y155313D01*
X567636D02*
Y154375D01*
X567409Y153750*
X567182Y153438*
X567182D02*
X566500Y153125D01*
X564455*
X174318Y133563D02*
X172500Y127000D01*
X174318Y133563D02*
X176136Y127000D01*
X173182Y129188D02*
X175455D01*
X178182Y133563D02*
Y128875D01*
X178409Y127938*
X178409D02*
X178864Y127313D01*
X178864D02*
X179545Y127000D01*
X180000*
X180682Y127313*
X180682D02*
X181136Y127938D01*
X181136D02*
X181364Y128875D01*
Y133563*
X183409D02*
X186591Y127000D01*
Y133563D02*
X183409Y127000D01*
X190682Y132625D02*
Y127000D01*
X188636Y129813D02*
X192727D01*
X231818Y134063D02*
X230000Y127500D01*
X231818Y134063D02*
X233636Y127500D01*
X230682Y129688D02*
X232955D01*
X235682Y134063D02*
Y129375D01*
X235909Y128438*
X235909D02*
X236364Y127813D01*
X236364D02*
X237045Y127500D01*
X237500*
X238182Y127813*
X238182D02*
X238636Y128438D01*
X238636D02*
X238864Y129375D01*
Y134063*
X240909D02*
X244091Y127500D01*
Y134063D02*
X240909Y127500D01*
X246136Y130313D02*
X250227D01*
X130500Y264063D02*
X132318Y257500D01*
X134136Y264063D02*
X132318Y257500D01*
X136182Y264063D02*
Y257500D01*
Y264063D02*
X138227D01*
X138227D02*
X138909Y263750D01*
X139136Y263438*
X139136D02*
X139364Y262813D01*
X139364D02*
Y261875D01*
X139136Y261250*
X138909Y260938*
X138909D02*
X138227Y260625D01*
X136182*
X142773Y264063D02*
X142318Y263750D01*
X141864Y263125*
X141636Y262500*
X141409Y261563*
X141409D02*
Y260000D01*
X141636Y259063*
X141636D02*
X141864Y258438D01*
X141864D02*
X142318Y257813D01*
X142318D02*
X142773Y257500D01*
X143682*
X144136Y257813*
X144136D02*
X144591Y258438D01*
X144591D02*
X144818Y259063D01*
X144818D02*
X145045Y260000D01*
Y261563*
X145045D02*
X144818Y262500D01*
X144591Y263125*
X144136Y263750*
X143682Y264063*
X143682D02*
X142773D01*
X147091D02*
Y257500D01*
Y264063D02*
X149136D01*
X149136D02*
X149818Y263750D01*
X150045Y263438*
X150045D02*
X150273Y262813D01*
X150273D02*
Y262188D01*
X150273D02*
X150045Y261563D01*
X150045D02*
X149818Y261250D01*
X149136Y260938*
X149136D02*
X147091D01*
X148682D02*
X150273Y257500D01*
X153909Y264063D02*
Y257500D01*
X152318Y264063D02*
X155500D01*
X157545D02*
Y257500D01*
Y264063D02*
X159591D01*
X159591D02*
X160273Y263750D01*
X160500Y263438*
X160500D02*
X160727Y262813D01*
X160727D02*
Y261875D01*
X160500Y261250*
X160273Y260938*
X160273D02*
X159591Y260625D01*
X157545*
X130000Y199563D02*
X131818Y193000D01*
X133636Y199563D02*
X131818Y193000D01*
X135682Y199563D02*
Y193000D01*
Y199563D02*
X137727D01*
X137727D02*
X138409Y199250D01*
X138636Y198938*
X138636D02*
X138864Y198313D01*
X138864D02*
Y197375D01*
X138636Y196750*
X138409Y196438*
X138409D02*
X137727Y196125D01*
X135682*
X142273Y199563D02*
X141818Y199250D01*
X141364Y198625*
X141136Y198000*
X140909Y197063*
X140909D02*
Y195500D01*
X141136Y194563*
X141136D02*
X141364Y193938D01*
X141364D02*
X141818Y193313D01*
X141818D02*
X142273Y193000D01*
X143182*
X143636Y193313*
X143636D02*
X144091Y193938D01*
X144091D02*
X144318Y194563D01*
X144318D02*
X144545Y195500D01*
Y197063*
X144545D02*
X144318Y198000D01*
X144091Y198625*
X143636Y199250*
X143182Y199563*
X143182D02*
X142273D01*
X146591D02*
Y193000D01*
Y199563D02*
X148636D01*
X148636D02*
X149318Y199250D01*
X149545Y198938*
X149545D02*
X149773Y198313D01*
X149773D02*
Y197688D01*
X149773D02*
X149545Y197063D01*
X149545D02*
X149318Y196750D01*
X148636Y196438*
X148636D02*
X146591D01*
X148182D02*
X149773Y193000D01*
X153409Y199563D02*
Y193000D01*
X151818Y199563D02*
X155000D01*
X157045D02*
Y193000D01*
Y199563D02*
X160227Y193000D01*
Y199563D02*
Y193000D01*
X197455Y123375D02*
X197227Y122438D01*
X197227D02*
X196773Y121813D01*
X196773D02*
X196091Y121500D01*
X195864*
X195182Y121813*
X195182D02*
X194727Y122438D01*
X194727D02*
X194500Y123375D01*
Y123688*
X194500D02*
X194727Y124625D01*
X195182Y125250*
X195864Y125563*
X195864D02*
X196091D01*
X196091D02*
X196773Y125250D01*
X197227Y124625*
X197455Y123375*
Y121813*
X197455D02*
X197227Y120250D01*
X196773Y119313*
X196773D02*
X196091Y119000D01*
X195636*
X194955Y119313*
X194955D02*
X194727Y119938D01*
X199500Y125563D02*
X201318Y119000D01*
X203136Y125563D02*
X201318Y119000D01*
X205182Y121813D02*
X209273D01*
X214273Y125563D02*
X212000D01*
X212000D02*
X211773Y122750D01*
X212000Y123063*
X212000D02*
X212682Y123375D01*
X213364*
X214045Y123063*
X214045D02*
X214500Y122438D01*
X214500D02*
X214727Y121500D01*
X214500Y120875*
X214273Y119938*
X214273D02*
X213818Y119313D01*
X213818D02*
X213136Y119000D01*
X212455*
X211773Y119313*
X211773D02*
X211545Y119625D01*
X211318Y120250*
X219955Y125563D02*
X217682Y119000D01*
X216773Y125563D02*
X219955D01*
X222000D02*
X223818Y119000D01*
X225636Y125563D02*
X223818Y119000D01*
X532500Y345063D02*
X534318Y338500D01*
X536136Y345063D02*
X534318Y338500D01*
X542273Y346313D02*
X538182Y336312D01*
X570318Y345563D02*
X568500Y339000D01*
X570318Y345563D02*
X572136Y339000D01*
X569182Y341188D02*
X571455D01*
X196227Y114800D02*
Y115113D01*
X196227D02*
X196455Y115738D01*
X196455D02*
X196682Y116050D01*
X197136Y116363*
X197136D02*
X198045D01*
X198045D02*
X198500Y116050D01*
X198727Y115738*
X198727D02*
X198955Y115113D01*
X198955D02*
Y114488D01*
X198955D02*
X198727Y113863D01*
X198727D02*
X198273Y112925D01*
X196000Y109800*
X199182*
X203500Y116363D02*
X201227Y111988D01*
X201227D02*
X204636D01*
X203500Y116363D02*
Y109800D01*
X206682Y116363D02*
X208500Y109800D01*
X210318Y116363D02*
X208500Y109800D01*
X214182Y116363D02*
X212364Y109800D01*
X214182Y116363D02*
X216000Y109800D01*
X213045Y111988D02*
X215318D01*
X221455Y114800D02*
X221227Y115425D01*
X220773Y116050*
X220318Y116363*
X220318D02*
X219409D01*
X219409D02*
X218955Y116050D01*
X218500Y115425*
X218273Y114800*
X218045Y113863*
X218045D02*
Y112300D01*
X218273Y111363*
X218273D02*
X218500Y110738D01*
X218500D02*
X218955Y110113D01*
X218955D02*
X219409Y109800D01*
X220318*
X220773Y110113*
X220773D02*
X221227Y110738D01*
X221227D02*
X221455Y111363D01*
X410500Y437500D02*
X431500D01*
Y424500*
X410500*
Y437500*
X508500Y348000D02*
X529500D01*
Y335000*
X508500*
Y348000*
X545000D02*
X566000D01*
Y335000*
X545000*
Y348000*
X410500Y437099D02*
X431500D01*
X410500Y436199D02*
X431500D01*
X410500Y435299D02*
X431500D01*
X410500Y434399D02*
X431500D01*
X410500Y433499D02*
X431500D01*
X410500Y432599D02*
X431500D01*
X410500Y431699D02*
X431500D01*
X410500Y430799D02*
X431500D01*
X410500Y429899D02*
X431500D01*
X410500Y428999D02*
X431500D01*
X410500Y428099D02*
X431500D01*
X410500Y427199D02*
X431500D01*
X410500Y426299D02*
X431500D01*
X410500Y425399D02*
X431500D01*
X508500Y347599D02*
X529500D01*
X508500Y346699D02*
X529500D01*
X508500Y345799D02*
X529500D01*
X508500Y344899D02*
X529500D01*
X508500Y343999D02*
X529500D01*
X508500Y343099D02*
X529500D01*
X508500Y342199D02*
X529500D01*
X508500Y341299D02*
X529500D01*
X508500Y340399D02*
X529500D01*
X508500Y339499D02*
X529500D01*
X508500Y338599D02*
X529500D01*
X508500Y337699D02*
X529500D01*
X508500Y336799D02*
X529500D01*
X508500Y335899D02*
X529500D01*
X545000Y347599D02*
X566000D01*
X545000Y346699D02*
X566000D01*
X545000Y345799D02*
X566000D01*
X545000Y344899D02*
X566000D01*
X545000Y343999D02*
X566000D01*
X545000Y343099D02*
X566000D01*
X545000Y342199D02*
X566000D01*
X545000Y341299D02*
X566000D01*
X545000Y340399D02*
X566000D01*
X545000Y339499D02*
X566000D01*
X545000Y338599D02*
X566000D01*
X545000Y337699D02*
X566000D01*
X545000Y336799D02*
X566000D01*
X545000Y335899D02*
X566000D01*
X100000Y500000D02*
X600000D01*
Y100000*
X100000*
Y500000*
X553000Y159000D02*
X567500D01*
X324000Y277000D02*
X329000Y282000D01*
X326000*
X329000Y279000*
Y282000*
G54D51*
X385000Y244500D02*
X403000D01*
X385000Y229500D02*
X403000D01*
X385000Y272500D02*
X403000D01*
X385000Y257500D02*
X403000D01*
X187500Y463000D02*
Y481000D01*
X198500Y463000D02*
Y481000D01*
X416500Y301000D02*
X411500D01*
X412000Y305500D02*
X411500D01*
Y298500*
X412000*
X416000D02*
X416500D01*
Y305500*
X416000*
X416500Y300500D02*
X411500D01*
X366500Y274000D02*
Y279000D01*
X371000Y278500D02*
Y279000D01*
X364000*
Y278500*
Y274500D02*
Y274000D01*
X371000*
Y274500*
X366000Y274000D02*
Y279000D01*
X409500Y273000D02*
X414500D01*
X414000Y268500D02*
X414500D01*
Y275500*
X414000*
X410000D02*
X409500D01*
Y268500*
X410000*
X409500Y273500D02*
X414500D01*
X247055Y114000D02*
G03X247055I-9055J0D01*
G01X191055D02*
G03X191055I-9055J0D01*
G01X403000Y272500D02*
X385000D01*
X403000Y287500D02*
X385000D01*
G54D52*
X355900Y279100D02*
X348900D01*
X355900Y286100D02*
X348900D01*
X440650Y302000D02*
Y300000D01*
X435350Y302000D02*
Y300000D01*
X437500Y273500D02*
Y266500D01*
X430500Y273500D02*
Y266500D01*
X415200Y283500D02*
X416800D01*
X415200Y286500D02*
X416800D01*
X325300Y304000D02*
X323700D01*
X325300Y301000D02*
X323700D01*
X325300Y295000D02*
X323700D01*
X325300Y292000D02*
X323700D01*
X445500Y273500D02*
Y266500D01*
X438500Y273500D02*
Y266500D01*
X330850Y217000D02*
Y219000D01*
X336150Y217000D02*
Y219000D01*
X413500Y244500D02*
X420500D01*
X413500Y237500D02*
X420500D01*
X366500Y252500D02*
X373500D01*
X366500Y245500D02*
X373500D01*
X126500Y419500D02*
X119500D01*
X126500Y426500D02*
X119500D01*
X323700Y296500D02*
X325300D01*
X323700Y299500D02*
X325300D01*
X349300Y278000D02*
X347700D01*
X349300Y275000D02*
X347700D01*
X416800Y290500D02*
X415200D01*
X416800Y287500D02*
X415200D01*
X437000Y313650D02*
X439000D01*
X437000Y308350D02*
X439000D01*
X325300Y290500D02*
X323700D01*
X325300Y287500D02*
X323700D01*
X415200Y291500D02*
X416800D01*
X415200Y294500D02*
X416800D01*
X348650Y322000D02*
Y320000D01*
X343350Y322000D02*
Y320000D01*
X581350Y319000D02*
Y321000D01*
X586650Y319000D02*
Y321000D01*
X342650Y322000D02*
Y320000D01*
X337350Y322000D02*
Y320000D01*
X317000Y328800D02*
Y327200D01*
X320000Y328800D02*
Y327200D01*
X325300Y308500D02*
X323700D01*
X325300Y305500D02*
X323700D01*
X325300Y286000D02*
X323700D01*
X325300Y283000D02*
X323700D01*
X421300Y312500D02*
X419700D01*
X421300Y309500D02*
X419700D01*
X388000Y307700D02*
Y309300D01*
X385000Y307700D02*
Y309300D01*
X321000Y328800D02*
Y327200D01*
X324000Y328800D02*
Y327200D01*
X369500Y238500D02*
Y231500D01*
X362500Y238500D02*
Y231500D01*
X421150Y273000D02*
Y271000D01*
X415850Y273000D02*
Y271000D01*
X377500Y238500D02*
Y231500D01*
X370500Y238500D02*
Y231500D01*
X363000Y326850D02*
X361000D01*
X363000Y332150D02*
X361000D01*
X415500Y258500D02*
Y251500D01*
X408500Y258500D02*
Y251500D01*
X423500Y258500D02*
Y251500D01*
X416500Y258500D02*
Y251500D01*
X195200Y454500D02*
X196800D01*
X195200Y457500D02*
X196800D01*
X195200Y450500D02*
X196800D01*
X195200Y453500D02*
X196800D01*
X195200Y394500D02*
X196800D01*
X195200Y397500D02*
X196800D01*
X195200Y390500D02*
X196800D01*
X195200Y393500D02*
X196800D01*
X582000Y485938D02*
X583909Y482000D01*
Y485938D02*
X582000Y482000D01*
X585136Y485188D02*
X585409Y485375D01*
X585818Y485938*
X585818D02*
Y482000D01*
X582000Y121938D02*
X583909Y118000D01*
Y121938D02*
X582000Y118000D01*
X585273Y121000D02*
Y121188D01*
X585273D02*
X585409Y121563D01*
X585409D02*
X585545Y121750D01*
X585818Y121938*
X585818D02*
X586364D01*
X586364D02*
X586636Y121750D01*
X586773Y121563*
X586773D02*
X586909Y121188D01*
X586909D02*
Y120813D01*
X586909D02*
X586773Y120438D01*
X586773D02*
X586500Y119875D01*
X585136Y118000*
X587045*
X118000Y121938D02*
X119909Y118000D01*
Y121938D02*
X118000Y118000D01*
X121409Y121938D02*
X122909D01*
X122909D02*
X122091Y120438D01*
X122091D02*
X122500D01*
X122500D02*
X122773Y120250D01*
X122909Y120063*
X122909D02*
X123045Y119500D01*
Y119125*
X122909Y118563*
X122909D02*
X122636Y118188D01*
X122636D02*
X122227Y118000D01*
X121818*
X121409Y118188*
X121409D02*
X121273Y118375D01*
X121136Y118750*
X118000Y485938D02*
X119909Y482000D01*
Y485938D02*
X118000Y482000D01*
X122500Y485938D02*
X121136Y483313D01*
X121136D02*
X123182D01*
X122500Y485938D02*
Y482000D01*
X112000Y380250D02*
Y375000D01*
Y380250D02*
X113273D01*
X113818Y380000*
X114182Y379500*
X114364Y379000*
X114545Y378250*
Y377000*
X114364Y376250*
X114182Y375750*
X113818Y375250*
X113273Y375000*
X112000*
X117636Y380250D02*
X116182Y375000D01*
X117636Y380250D02*
X119091Y375000D01*
X116727Y376750D02*
X118545D01*
X122000Y380250D02*
Y375000D01*
X120727Y380250D02*
X123273D01*
X126364D02*
X124909Y375000D01*
X126364Y380250D02*
X127818Y375000D01*
X125455Y376750D02*
X127273D01*
X135091Y380250D02*
X133636Y375000D01*
X135091Y380250D02*
X136545Y375000D01*
X134182Y376750D02*
X136000D01*
X138182Y380250D02*
Y375000D01*
Y380250D02*
X140727Y375000D01*
Y380250D02*
Y375000D01*
X142364Y380250D02*
Y375000D01*
Y380250D02*
X143636D01*
X144182Y380000*
X144545Y379500*
X144727Y379000*
X144909Y378250*
Y377000*
X144727Y376250*
X144545Y375750*
X144182Y375250*
X143636Y375000*
X142364*
X150727Y380250D02*
Y375000D01*
Y380250D02*
X152364D01*
X152909Y380000*
X153091Y379750*
X153273Y379250*
Y378500*
X153091Y378000*
X152909Y377750*
X152364Y377500*
X150727*
X156000Y380250D02*
X155636Y380000D01*
X155273Y379500*
X155091Y379000*
X154909Y378250*
Y377000*
X155091Y376250*
X155273Y375750*
X155636Y375250*
X156000Y375000*
X156727*
X157091Y375250*
X157455Y375750*
X157636Y376250*
X157818Y377000*
Y378250*
X157636Y379000*
X157455Y379500*
X157091Y380000*
X156727Y380250*
X156000*
X159455D02*
X160364Y375000D01*
X161273Y380250D02*
X160364Y375000D01*
X161273Y380250D02*
X162182Y375000D01*
X163091Y380250D02*
X162182Y375000D01*
X164727Y380250D02*
Y375000D01*
Y380250D02*
X167091D01*
X164727Y377750D02*
X166182D01*
X164727Y375000D02*
X167091D01*
X168727Y380250D02*
Y375000D01*
Y380250D02*
X170364D01*
X170909Y380000*
X171091Y379750*
X171273Y379250*
Y378750*
X171091Y378250*
X170909Y378000*
X170364Y377750*
X168727*
X170000D02*
X171273Y375000D01*
X177091Y380250D02*
Y375000D01*
X178727Y380250D02*
Y375000D01*
Y380250D02*
X181273Y375000D01*
Y380250D02*
Y375000D01*
X111864Y372250D02*
X113864D01*
X112773Y370250*
X113318*
X113682Y370000*
X113864Y369750*
X114045Y369000*
Y368500*
X113864Y367750*
X113500Y367250*
X112955Y367000*
X112409*
X111864Y367250*
X111682Y367500*
X111500Y368000*
X118227Y372250D02*
X116409Y367000D01*
X115682Y372250D02*
X118227D01*
X119864D02*
X121318Y367000D01*
X122773Y372250D02*
X121318Y367000D01*
X124409Y369250D02*
X127682D01*
X131682Y372250D02*
X129864D01*
X129682Y370000*
X129864Y370250*
X130409Y370500*
X130955*
X131500Y370250*
X131864Y369750*
X132045Y369000*
X131864Y368500*
X131682Y367750*
X131318Y367250*
X130773Y367000*
X130227*
X129682Y367250*
X129500Y367500*
X129318Y368000*
X136227Y372250D02*
X134409Y367000D01*
X133682Y372250D02*
X136227D01*
X137864D02*
X139318Y367000D01*
X140773Y372250D02*
X139318Y367000D01*
X513000Y117563D02*
X513636Y114500D01*
X514273Y117563D02*
X513636Y114500D01*
X514273Y117563D02*
X514909Y114500D01*
X515545Y117563D02*
X514909Y114500D01*
X516977Y117563D02*
X517614Y114500D01*
X518250Y117563D02*
X517614Y114500D01*
X518250Y117563D02*
X518886Y114500D01*
X519523Y117563D02*
X518886Y114500D01*
X520955Y117563D02*
X521591Y114500D01*
X522227Y117563D02*
X521591Y114500D01*
X522227Y117563D02*
X522864Y114500D01*
X523500Y117563D02*
X522864Y114500D01*
X525091Y114938D02*
X524932Y114719D01*
X525091Y114500*
X525250Y114719*
X525091Y114938*
X526682Y119094D02*
Y114500D01*
X528114Y119094D02*
X528273Y118875D01*
X528432Y119094*
X528273Y119313*
X528273D02*
X528114Y119094D01*
X528273Y117563D02*
Y114500D01*
X529864Y117563D02*
Y114500D01*
Y116688D02*
X530341Y117344D01*
X530659Y117563*
X530659D02*
X531136D01*
X531136D02*
X531455Y117344D01*
X531614Y116688*
X531614D02*
Y114500D01*
X533045Y116250D02*
X534955D01*
Y116688*
X534955D02*
X534795Y117125D01*
X534636Y117344*
X534318Y117563*
X534318D02*
X533841D01*
X533841D02*
X533523Y117344D01*
X533205Y116906*
X533045Y116250*
Y115813*
X533045D02*
X533205Y115156D01*
X533523Y114719*
X533841Y114500*
X534318*
X534636Y114719*
X534955Y115156*
X538295Y117563D02*
Y114500D01*
Y116906D02*
X537977Y117344D01*
X537659Y117563*
X537659D02*
X537182D01*
X537182D02*
X536864Y117344D01*
X536545Y116906*
X536386Y116250*
Y115813*
X536386D02*
X536545Y115156D01*
X536864Y114719*
X537182Y114500*
X537659*
X537977Y114719*
X538295Y115156*
X539727Y117563D02*
Y114500D01*
Y116250D02*
X539886Y116906D01*
X540205Y117344*
X540523Y117563*
X540523D02*
X541000D01*
X542591Y114938D02*
X542432Y114719D01*
X542591Y114500*
X542750Y114719*
X542591Y114938*
X546091Y116906D02*
X545773Y117344D01*
X545455Y117563*
X545455D02*
X544977D01*
X544977D02*
X544659Y117344D01*
X544341Y116906*
X544182Y116250*
Y115813*
X544182D02*
X544341Y115156D01*
X544659Y114719*
X544977Y114500*
X545455*
X545773Y114719*
X546091Y115156*
X548318Y117563D02*
X548000Y117344D01*
X547682Y116906*
X547523Y116250*
Y115813*
X547523D02*
X547682Y115156D01*
X548000Y114719*
X548318Y114500*
X548795*
X549114Y114719*
X549432Y115156*
X549591Y115813*
X549591D02*
Y116250D01*
X549432Y116906*
X549114Y117344*
X548795Y117563*
X548795D02*
X548318D01*
X551023D02*
Y114500D01*
Y116688D02*
X551500Y117344D01*
X551818Y117563*
X551818D02*
X552295D01*
X552295D02*
X552614Y117344D01*
X552773Y116688*
X552773D02*
Y114500D01*
Y116688D02*
X553250Y117344D01*
X553568Y117563*
X553568D02*
X554045D01*
X554045D02*
X554364Y117344D01*
X554523Y116688*
X554523D02*
Y114500D01*
X513955Y125188D02*
X513682Y124813D01*
X513682D02*
X513409Y124250D01*
X513136Y123500*
X513000Y122563*
X513000D02*
Y121813D01*
X513000D02*
X513136Y120875D01*
X513409Y120125*
X513682Y119562*
X513682D02*
X513955Y119187D01*
X516545Y124438D02*
X515182Y121813D01*
X515182D02*
X517227D01*
X516545Y124438D02*
Y120500D01*
X519273Y124438D02*
X518864Y124250D01*
X518591Y123688*
X518591D02*
X518455Y122750D01*
Y122188*
X518455D02*
X518591Y121250D01*
X518864Y120688*
X518864D02*
X519273Y120500D01*
X519545*
X519955Y120688*
X519955D02*
X520227Y121250D01*
X520364Y122188*
X520364D02*
Y122750D01*
X520227Y123688*
X520227D02*
X519955Y124250D01*
X519545Y124438*
X519545D02*
X519273D01*
X522273D02*
X521864Y124250D01*
X521727Y123875*
Y123500*
X521864Y123125*
X522136Y122938*
X522136D02*
X522682Y122750D01*
X523091Y122563*
X523091D02*
X523364Y122188D01*
X523364D02*
X523500Y121813D01*
X523500D02*
Y121250D01*
X523364Y120875*
X523227Y120688*
X523227D02*
X522818Y120500D01*
X522273*
X521864Y120688*
X521864D02*
X521727Y120875D01*
X521591Y121250*
Y121813*
X521591D02*
X521727Y122188D01*
X521727D02*
X522000Y122563D01*
X522000D02*
X522409Y122750D01*
X522955Y122938*
X522955D02*
X523227Y123125D01*
X523364Y123500*
Y123875*
X523227Y124250*
X522818Y124438*
X522818D02*
X522273D01*
X524727Y125188D02*
X525000Y124813D01*
X525000D02*
X525273Y124250D01*
X525545Y123500*
X525682Y122563*
X525682D02*
Y121813D01*
X525682D02*
X525545Y120875D01*
X525273Y120125*
X525000Y119562*
X525000D02*
X524727Y119187D01*
X531409Y124438D02*
X530045Y121813D01*
X530045D02*
X532091D01*
X531409Y124438D02*
Y120500D01*
X533591Y124438D02*
X535091D01*
X535091D02*
X534273Y122938D01*
X534273D02*
X534682D01*
X534682D02*
X534955Y122750D01*
X535091Y122563*
X535091D02*
X535227Y122000D01*
Y121625*
X535091Y121063*
X535091D02*
X534818Y120688D01*
X534818D02*
X534409Y120500D01*
X534000*
X533591Y120688*
X533591D02*
X533455Y120875D01*
X533318Y121250*
X536591Y123500D02*
Y123688D01*
X536591D02*
X536727Y124063D01*
X536727D02*
X536864Y124250D01*
X537136Y124438*
X537136D02*
X537682D01*
X537682D02*
X537955Y124250D01*
X538091Y124063*
X538091D02*
X538227Y123688D01*
X538227D02*
Y123313D01*
X538227D02*
X538091Y122938D01*
X538091D02*
X537818Y122375D01*
X536455Y120500*
X538364*
X539591Y122188D02*
X542045D01*
X543273Y123688D02*
X543545Y123875D01*
X543955Y124438*
X543955D02*
Y120500D01*
X546955Y123125D02*
X546818Y122563D01*
X546818D02*
X546545Y122188D01*
X546545D02*
X546136Y122000D01*
X546000*
X545591Y122188*
X545591D02*
X545318Y122563D01*
X545318D02*
X545182Y123125D01*
Y123313*
X545182D02*
X545318Y123875D01*
X545591Y124250*
X546000Y124438*
X546000D02*
X546136D01*
X546136D02*
X546545Y124250D01*
X546818Y123875*
X546955Y123125*
Y122188*
X546955D02*
X546818Y121250D01*
X546545Y120688*
X546545D02*
X546136Y120500D01*
X545864*
X545455Y120688*
X545455D02*
X545318Y121063D01*
X549000Y124438D02*
X548591Y124250D01*
X548318Y123688*
X548318D02*
X548182Y122750D01*
Y122188*
X548182D02*
X548318Y121250D01*
X548591Y120688*
X548591D02*
X549000Y120500D01*
X549273*
X549682Y120688*
X549682D02*
X549955Y121250D01*
X550091Y122188*
X550091D02*
Y122750D01*
X549955Y123688*
X549955D02*
X549682Y124250D01*
X549273Y124438*
X549273D02*
X549000D01*
X552136D02*
X551727Y124250D01*
X551455Y123688*
X551455D02*
X551318Y122750D01*
Y122188*
X551318D02*
X551455Y121250D01*
X551727Y120688*
X551727D02*
X552136Y120500D01*
X552409*
X552818Y120688*
X552818D02*
X553091Y121250D01*
X553227Y122188*
X553227D02*
Y122750D01*
X553091Y123688*
X553091D02*
X552818Y124250D01*
X552409Y124438*
X552409D02*
X552136D01*
X552800Y427250D02*
Y422000D01*
Y427250D02*
X554073D01*
X554618Y427000*
X554982Y426500*
X555164Y426000*
X555345Y425250*
Y424000*
X555164Y423250*
X554982Y422750*
X554618Y422250*
X554073Y422000*
X552800*
X558436Y427250D02*
X556982Y422000D01*
X558436Y427250D02*
X559891Y422000D01*
X557527Y423750D02*
X559345D01*
X562800Y427250D02*
Y422000D01*
X561527Y427250D02*
X564073D01*
X567164D02*
X565709Y422000D01*
X567164Y427250D02*
X568618Y422000D01*
X566255Y423750D02*
X568073D01*
X575527Y427250D02*
X575164Y427000D01*
X574800Y426500*
X574618Y426000*
X574436Y425250*
Y424000*
X574618Y423250*
X574800Y422750*
X575164Y422250*
X575527Y422000*
X576255*
X576618Y422250*
X576982Y422750*
X577164Y423250*
X577345Y424000*
Y425250*
X577164Y426000*
X576982Y426500*
X576618Y427000*
X576255Y427250*
X575527*
X578982D02*
Y423500D01*
X579164Y422750*
X579527Y422250*
X580073Y422000*
X580436*
X580982Y422250*
X581345Y422750*
X581527Y423500*
Y427250*
X584436D02*
Y422000D01*
X583164Y427250D02*
X585709D01*
G54D53*
X587000Y289000D02*
X581000D01*
X446207Y260500D02*
G03X446207I-707J0D01*
G01X328207Y270500D02*
G03X328207I-707J0D01*
G54D68*
G01X338000Y285000D02*
X334000D01*
X338000Y288000D02*
X334000D01*
X427000Y294400D02*
X432550D01*
Y292050*
X427000Y283650D02*
X432550D01*
Y286100*
X424200Y289700D02*
Y288150D01*
X422600Y302000D02*
Y307550D01*
X424950*
X433350Y302000D02*
Y307550D01*
X430900*
X427300Y299200D02*
X428850D01*
X367400Y320500D02*
Y314950D01*
X365050*
X356650Y320500D02*
Y314950D01*
X359100*
X362700Y323300D02*
X361150D01*
X339500Y283000D02*
Y279000D01*
X336500Y283000D02*
Y279000D01*
X335500Y283000D02*
Y279000D01*
X332500Y283000D02*
Y279000D01*
X328000Y330000D02*
Y326000D01*
X325000Y330000D02*
Y326000D01*
X480383Y116570D02*
X481004Y117044D01*
X481773Y120710D02*
X480028Y116807D01*
X480708Y123696D02*
X481270Y122928D01*
X487597Y125677D02*
X476894D01*
X478254Y124317D02*
X478521D01*
X478876Y124288*
X478876D02*
X479408Y124170D01*
X479408D02*
X480028Y123874D01*
X480590Y123430*
X480857Y123135*
X480857D02*
X481034Y122868D01*
X481241Y122484*
X481300Y122336*
X481389Y122070*
X481389D02*
X481418Y121952D01*
X481477Y121657*
X481477D02*
X481507Y121390D01*
Y120947*
X481477Y120681*
X481418Y120414*
X481329Y120089*
X480857Y119143*
X480857D02*
X480590Y118581D01*
X480324Y118049*
X480117Y117606*
X479732Y116866*
X479260Y115861*
X487597Y125677D02*
X487065Y125411D01*
X487065D02*
X486503Y125056D01*
X486031Y124731*
X485498Y124258*
X484937Y123667*
X484493Y123105*
X484138Y122573*
X483724Y121804*
X483399Y121065*
X483222Y120296*
X483104Y119793*
X483104D02*
X482956Y119291D01*
X482956D02*
X482689Y118729D01*
X482541Y118433*
X482128Y117842*
X481832Y117517*
X481655Y117310*
X481655D02*
X481359Y117044D01*
X481359D02*
X481093Y116807D01*
X480826Y116600*
X480560Y116423*
X480147Y116215*
X479881Y116068*
X479555Y115949*
X479348Y115861*
X479348D02*
X479289D01*
X477101Y125322D02*
X486179D01*
X485587Y124879*
X476924Y124909*
X476864Y124672*
X485351Y124613*
X485351D02*
X484877Y124228D01*
X480117Y124258*
X480738Y123874*
X484522Y123844*
X484138Y123401*
X481152Y123371*
X481507Y122868*
X483872Y122928*
X483517Y122307*
X481684Y122336*
X481891Y121686*
X483192*
X482956Y121094*
X482512Y119468*
X481984Y118019*
X481984D02*
X479624Y116183D01*
X480886Y118226*
X480886D02*
X481507Y119439D01*
X481980Y120621*
X482009Y121568*
X482535Y122427*
X482535D02*
X482364Y120592D01*
X482009Y119439*
X480727Y117346*
X476953Y125500D02*
X476510Y124524D01*
X475357Y125441D02*
X474765Y125056D01*
X474795Y124672D02*
X475357Y125441D01*
X476894Y125707D02*
X476185Y124317D01*
X478254*
X477722Y116157D02*
X468644D01*
X469236Y116600*
X477900Y116570*
X477958Y116807*
X477958D02*
X469472Y116866D01*
X469946Y117251*
X474706Y117221*
X474085Y117606*
X470301Y117635*
X470301D02*
X470685Y118078D01*
X473671Y118108*
X473316Y118611*
X470951Y118551*
X471306Y119172*
X473139Y119143*
X472932Y119793*
X471631*
X471868Y120385*
X472311Y122011*
X472851Y123341*
X475149Y125273*
X473937Y123253*
X473937D02*
X473316Y122041D01*
X472844Y120858*
X472814Y119911*
X472814D02*
X472193Y119942D01*
X472193D02*
X472459Y120887D01*
X472814Y122041*
X472814D02*
X473937Y123815D01*
X467225Y115802D02*
X467757Y116068D01*
X468319Y116423*
X468319D02*
X468793Y116748D01*
X469325Y117221*
X469887Y117812*
X470330Y118374*
X470685Y118906*
X471099Y119675*
X471099D02*
X471424Y120414D01*
X471601Y121183*
X471719Y121686*
X471868Y122189*
X471868D02*
X472134Y122750D01*
X472281Y123046*
X472281D02*
X472695Y123638D01*
X472695D02*
X472991Y123962D01*
X473168Y124170*
X473168D02*
X473465Y124436D01*
X473465D02*
X473731Y124672D01*
X473731D02*
X473997Y124879D01*
X473997D02*
X474263Y125056D01*
X474263D02*
X474676Y125264D01*
X474943Y125411*
X475268Y125530*
X475475Y125618*
X475475D02*
X475534D01*
X476569Y117162D02*
X476303D01*
X475948Y117191*
X475415Y117310*
X475415D02*
X474795Y117606D01*
X474795D02*
X474233Y118049D01*
X473967Y118345*
X473789Y118611*
X473583Y118995*
X473523Y119143*
X473434Y119409*
X473405Y119527*
X473346Y119823*
X473316Y120089*
Y120532*
X473346Y120799*
X473405Y121065*
X473494Y121390*
X473967Y122336*
X474233Y122898*
X474499Y123430*
X474706Y123874*
X475091Y124613*
X475564Y125618*
X471395Y118877D02*
X470655Y118522D01*
X471099Y119232D02*
X471484Y119498D01*
X471690Y120799D02*
X471099Y119232D01*
X467225Y115802D02*
X477929D01*
X470655Y118522D02*
X468674Y115979D01*
X468497Y116068D02*
X468201Y116009D01*
X468438Y116186D02*
X468497Y116068D01*
X467788Y115949D02*
X468438Y116186D01*
X468674Y115979D02*
X467788Y115949D01*
X474943Y117251D02*
X474115Y117783D01*
X478313Y116955D02*
X475475Y117073D01*
X474943Y117251*
X477929Y115772D02*
X478639Y117162D01*
X476569*
X477870Y115979D02*
X478313Y116955D01*
X480058Y116423D02*
X480383Y116570D01*
X479466Y116038D02*
X480058Y116423D01*
X480028Y116807D02*
X479466Y116038D01*
X471838Y121479D02*
X471690Y120799D01*
X473050Y120769D02*
X474795Y124672D01*
X474115Y117783D02*
X473553Y118551D01*
X471750Y118877D02*
X471395D01*
X472873Y119409D02*
X471750Y118877D01*
X471484Y119498D02*
X472873Y119409D01*
X473110Y120060D02*
X473050Y120769D01*
X473376Y118936D02*
X473110Y120060D01*
X473553Y118551D02*
X473376Y118936D01*
X472962Y118729D02*
X472340Y118817D01*
X473819Y124436D02*
X472873Y123578D01*
X472163Y122336D02*
X471838Y121479D01*
X472873Y123578D02*
X472163Y122336D01*
X474440Y124909D02*
X473819Y124436D01*
X474765Y125056D02*
X474440Y124909D01*
X476510Y124524D02*
X479348Y124406D01*
X479881Y124228D02*
X480708Y123696D01*
X479348Y124406D02*
X479881Y124228D01*
X484168Y122957D02*
X486149Y125500D01*
X489207Y118061D02*
X490777D01*
X481004Y117044D02*
X481950Y117901D01*
X483133Y120681D02*
X483724Y122247D01*
X481714Y121420D02*
X481773Y120710D01*
X482985Y120000D02*
X483133Y120681D01*
X482660Y119143D02*
X482985Y120000D01*
X481950Y117901D02*
X482660Y119143D01*
X483074Y122602D02*
X483428D01*
X483230Y122382D02*
X481840Y122471D01*
X481950Y122070D02*
X483074Y122602D01*
X481447Y122543D02*
X481714Y121420D01*
X481270Y122928D02*
X481447Y122543D01*
X481862Y122750D02*
X482483Y122662D01*
X483428Y122602D02*
X484168Y122957D01*
X483724Y122247D02*
X483340Y121981D01*
X495003Y117517D02*
G03X493449I-777J-263D01*
G01X492226Y116943D02*
X491336D01*
X497344D02*
X495789D01*
X491336Y118061D02*
X492785D01*
X486326Y125411D02*
X486622Y125470D01*
X486385Y125293D02*
X486326Y125411D01*
X487036Y125530D02*
X486385Y125293D01*
X486149Y125500D02*
X487036Y125530D01*
X509496Y118061D02*
X510386Y116943D01*
X502250Y117517D02*
G03X500695I-778J-264D01*
G01X509043D02*
G03X507488I-778J-264D01*
G01X506598D02*
G03X505042I-778J-263D01*
G01X510386Y116943D02*
X511277Y118061D01*
X489648Y125401D02*
Y119541D01*
X492013*
X493550Y125401D02*
Y119541D01*
X495022Y125401D02*
Y119541D01*
X497899Y125401D02*
Y119541D01*
X495050Y125240D02*
X495238D01*
X495480Y125212*
X495480D02*
X495829Y125132D01*
X496152Y125052*
X496152D02*
X496448Y124944D01*
X496770Y124783*
X497012Y124621*
X497200Y124487*
X497415Y124272*
X497576Y124083*
X497792Y123842*
X499794Y121987D02*
Y121638D01*
X499820Y121395*
X499901Y121046*
X500036Y120777*
X500223Y120508*
X500223D02*
X500412Y120267D01*
X500654Y120051*
X501003Y119837*
X501003D02*
X501380Y119702D01*
X501702Y119648*
X502052Y119595*
X503247*
X499337Y123495D02*
X502239D01*
X499794Y125374D02*
Y122095D01*
Y125427D02*
X502267D01*
X507064Y119595D02*
X505197Y125401D01*
X505075*
X502965Y119595*
X508014Y125401D02*
Y119541D01*
X511078D02*
X510782Y119568D01*
X510084Y119729*
X509734Y119864*
X509062Y120267*
X508713Y120536*
X508417Y120858*
X503893Y123467D02*
X505506D01*
X508390Y125401D02*
X508659D01*
X508820Y125374*
X509385Y125186*
X509573Y125105*
X509815Y124890*
X510057Y124621*
X510272Y124352*
X510433Y124137*
X510567Y123842*
X510621Y123600*
X510675Y123116*
Y122982*
X510648Y122874*
X510595Y122552*
X510379Y122067*
X510164Y121745*
X509815Y121395*
X509438Y121100*
X509223Y120992*
X508766Y120912*
X508363*
Y120885*
X491336Y115721D02*
Y118061D01*
X495789D02*
Y115721D01*
X497344D02*
Y118061D01*
X498234Y115721D02*
Y118061D01*
X499804Y115721*
Y118061*
X492785Y115721D02*
X491336D01*
X493448Y117516D02*
G03X493449Y116278I1529J-617D01*
G01Y116280D02*
G03X495003I777J263D01*
G01X503140Y118061D02*
Y115721D01*
X505042Y117516D02*
G03X505043Y116278I1528J-617D01*
G01X502250Y116280D02*
G03Y117518I-1525J619D01*
G01X500695Y117517D02*
G03Y116280I1531J-618D01*
G01X500695D02*
G03X502250I777J265D01*
G01X503140Y115721D02*
X504484D01*
X507488Y117516D02*
G03X507489Y116278I1528J-617D01*
G01X505042Y116280D02*
G03X506598I778J263D01*
G01X506597D02*
G03Y117518I-1524J619D01*
G01X508484Y116612D02*
X509043D01*
X507488Y116280D02*
G03X509043I777J264D01*
G01Y116612D02*
Y116280D01*
X510386Y116943D02*
Y115721D01*
X489992Y118061D02*
Y115721D01*
G54D70*
X393705Y226500D02*
X393591Y226813D01*
X393591D02*
X393364Y227125D01*
X393136Y227281*
X392682*
X392455Y227125*
X392227Y226813*
X392227D02*
X392114Y226500D01*
X392000Y226031*
Y225250*
X392114Y224781*
X392227Y224469*
X392455Y224156*
X392682Y224000*
X393136*
X393364Y224156*
X393591Y224469*
X393705Y224781*
X394727Y226656D02*
X394955Y226813D01*
X394955D02*
X395295Y227281D01*
Y224000*
X355205Y289500D02*
X355091Y289813D01*
X355091D02*
X354864Y290125D01*
X354636Y290281*
X354182*
X353955Y290125*
X353727Y289813*
X353727D02*
X353614Y289500D01*
X353500Y289031*
Y288250*
X353614Y287781*
X353727Y287469*
X353955Y287156*
X354182Y287000*
X354636*
X354864Y287156*
X355091Y287469*
X355205Y287781*
X356227Y289656D02*
X356455Y289813D01*
X356455D02*
X356795Y290281D01*
Y287000*
X358045Y290281D02*
X359295D01*
X358614Y289031*
X358955*
X359182Y288875*
X359295Y288719*
X359409Y288250*
Y287938*
X359409D02*
X359295Y287469D01*
X359068Y287156*
X358727Y287000*
X358386*
X358045Y287156*
X357932Y287313*
X357932D02*
X357818Y287625D01*
X444500Y302295D02*
X444812Y302409D01*
X444812D02*
X445125Y302636D01*
X445281Y302864*
Y303318*
X445125Y303545*
X444812Y303773*
X444812D02*
X444500Y303886D01*
X444031Y304000*
X443250*
X442781Y303886*
X442469Y303773*
X442156Y303545*
X442000Y303318*
Y302864*
X442156Y302636*
X442469Y302409*
X442781Y302295*
X444656Y301273D02*
X444812Y301045D01*
X444812D02*
X445281Y300705D01*
X442000*
X444812Y298318D02*
X445125Y298432D01*
X445281Y298773*
Y299000*
X445125Y299341*
X444656Y299568*
X443875Y299682*
X443094*
X442469Y299568*
X442156Y299341*
X442000Y299000*
Y298886*
X442156Y298545*
X442469Y298318*
X442937Y298205*
X442937D02*
X443094D01*
X443562Y298318*
X443562D02*
X443875Y298545D01*
X444031Y298886*
Y299000*
X443875Y299341*
X443562Y299568*
X443562D02*
X443094Y299682D01*
X436000Y282795D02*
X436313Y282909D01*
X436313D02*
X436625Y283136D01*
X436781Y283364*
Y283818*
X436625Y284045*
X436313Y284273*
X436313D02*
X436000Y284386D01*
X435531Y284500*
X434750*
X434281Y284386*
X433969Y284273*
X433656Y284045*
X433500Y283818*
Y283364*
X433656Y283136*
X433969Y282909*
X434281Y282795*
X436000Y281659D02*
X436156D01*
X436469Y281545*
X436625Y281432*
X436781Y281205*
Y280750*
X436625Y280523*
X436469Y280409*
X436156Y280295*
X435844*
X435531Y280409*
X435063Y280636*
X435063D02*
X433500Y281773D01*
Y280182*
X424705Y271500D02*
X424591Y271813D01*
X424591D02*
X424364Y272125D01*
X424136Y272281*
X423682*
X423455Y272125*
X423227Y271813*
X423227D02*
X423114Y271500D01*
X423000Y271031*
Y270250*
X423114Y269781*
X423227Y269469*
X423455Y269156*
X423682Y269000*
X424136*
X424364Y269156*
X424591Y269469*
X424705Y269781*
X425841Y271500D02*
Y271656D01*
X425955Y271969*
X426068Y272125*
X426295Y272281*
X426750*
X426977Y272125*
X427091Y271969*
X427205Y271656*
Y271344*
X427091Y271031*
X426864Y270563*
X426864D02*
X425727Y269000D01*
X427318*
X429023Y272281D02*
X428682Y272125D01*
X428455Y271656*
X428341Y270875*
Y270406*
X428455Y269625*
X428682Y269156*
X429023Y269000*
X429250*
X429591Y269156*
X429818Y269625*
X429932Y270406*
Y270875*
X429818Y271656*
X429591Y272125*
X429250Y272281*
X429023*
X391705Y254500D02*
X391591Y254813D01*
X391591D02*
X391364Y255125D01*
X391136Y255281*
X390682*
X390455Y255125*
X390227Y254813*
X390227D02*
X390114Y254500D01*
X390000Y254031*
Y253250*
X390114Y252781*
X390227Y252469*
X390455Y252156*
X390682Y252000*
X391136*
X391364Y252156*
X391591Y252469*
X391705Y252781*
X392841Y254500D02*
Y254656D01*
X392955Y254969*
X393068Y255125*
X393295Y255281*
X393750*
X393977Y255125*
X394091Y254969*
X394205Y254656*
Y254344*
X394091Y254031*
X393864Y253563*
X393864D02*
X392727Y252000D01*
X394318*
X395568Y255281D02*
X396818D01*
X396136Y254031*
X396477*
X396705Y253875*
X396818Y253719*
X396932Y253250*
Y252938*
X396932D02*
X396818Y252469D01*
X396591Y252156*
X396250Y252000*
X395909*
X395568Y252156*
X395455Y252313*
X395455D02*
X395341Y252625D01*
X313205Y303000D02*
X313091Y303313D01*
X313091D02*
X312864Y303625D01*
X312636Y303781*
X312182*
X311955Y303625*
X311727Y303313*
X311727D02*
X311614Y303000D01*
X311500Y302531*
Y301750*
X311614Y301281*
X311727Y300969*
X311955Y300656*
X312182Y300500*
X312636*
X312864Y300656*
X313091Y300969*
X313205Y301281*
X314341Y303000D02*
Y303156D01*
X314455Y303469*
X314568Y303625*
X314795Y303781*
X315250*
X315477Y303625*
X315591Y303469*
X315705Y303156*
Y302844*
X315591Y302531*
X315364Y302063*
X315364D02*
X314227Y300500D01*
X315818*
X317977Y303781D02*
X316841Y301594D01*
X318545*
X317977Y303781D02*
Y300500D01*
X313205Y294000D02*
X313091Y294313D01*
X313091D02*
X312864Y294625D01*
X312636Y294781*
X312182*
X311955Y294625*
X311727Y294313*
X311727D02*
X311614Y294000D01*
X311500Y293531*
Y292750*
X311614Y292281*
X311727Y291969*
X311955Y291656*
X312182Y291500*
X312636*
X312864Y291656*
X313091Y291969*
X313205Y292281*
X314341Y294000D02*
Y294156D01*
X314455Y294469*
X314568Y294625*
X314795Y294781*
X315250*
X315477Y294625*
X315591Y294469*
X315705Y294156*
Y293844*
X315591Y293531*
X315364Y293063*
X315364D02*
X314227Y291500D01*
X315818*
X318318Y294781D02*
X317182D01*
X317068Y293375*
X317182Y293531*
X317523Y293688*
X317523D02*
X317864D01*
X317864D02*
X318205Y293531D01*
X318432Y293219*
X318545Y292750*
X318432Y292438*
X318432D02*
X318318Y291969D01*
X318091Y291656*
X317750Y291500*
X317409*
X317068Y291656*
X316955Y291813*
X316955D02*
X316841Y292125D01*
X318705Y281000D02*
X318591Y281313D01*
X318591D02*
X318364Y281625D01*
X318136Y281781*
X317682*
X317455Y281625*
X317227Y281313*
X317227D02*
X317114Y281000D01*
X317000Y280531*
Y279750*
X317114Y279281*
X317227Y278969*
X317455Y278656*
X317682Y278500*
X318136*
X318364Y278656*
X318591Y278969*
X318705Y279281*
X319841Y281000D02*
Y281156D01*
X319955Y281469*
X320068Y281625*
X320295Y281781*
X320750*
X320977Y281625*
X321091Y281469*
X321205Y281156*
Y280844*
X321091Y280531*
X320864Y280063*
X320864D02*
X319727Y278500D01*
X321318*
X323932Y281781D02*
X322795Y278500D01*
X322341Y281781D02*
X323932D01*
X353705Y233500D02*
X353591Y233813D01*
X353364Y234125*
X353136Y234281*
X352682*
X352455Y234125*
X352227Y233813*
X352114Y233500*
X352000Y233031*
Y232250*
X352114Y231781*
X352227Y231469*
X352455Y231156*
X352682Y231000*
X353136*
X353364Y231156*
X353591Y231469*
X353705Y231781*
X354841Y233500D02*
Y233656D01*
X354955Y233969*
X355068Y234125*
X355295Y234281*
X355750*
X355977Y234125*
X356091Y233969*
X356205Y233656*
Y233344*
X356091Y233031*
X355864Y232563*
X354727Y231000*
X356318*
X358818Y233188D02*
X358705Y232719D01*
X358477Y232406*
X358136Y232250*
X358023*
X357682Y232406*
X357455Y232719*
X357341Y233188*
Y233344*
X357455Y233813*
X357682Y234125*
X358023Y234281*
X358136*
X358477Y234125*
X358705Y233813*
X358818Y233188*
Y232406*
X358705Y231625*
X358477Y231156*
X358136Y231000*
X357909*
X357568Y231156*
X357455Y231469*
X442500Y282795D02*
X442813Y282909D01*
X442813D02*
X443125Y283136D01*
X443281Y283364*
Y283818*
X443125Y284045*
X442813Y284273*
X442813D02*
X442500Y284386D01*
X442031Y284500*
X441250*
X440781Y284386*
X440469Y284273*
X440156Y284045*
X440000Y283818*
Y283364*
X440156Y283136*
X440469Y282909*
X440781Y282795*
X443281Y281545D02*
Y280295D01*
X442031Y280977*
Y280636*
X441875Y280409*
X441719Y280295*
X441250Y280182*
X440938*
X440938D02*
X440469Y280295D01*
X440156Y280523*
X440000Y280864*
Y281205*
X440156Y281545*
X440313Y281659*
X440313D02*
X440625Y281773D01*
X334500Y209295D02*
X334813Y209409D01*
X335125Y209636*
X335281Y209864*
Y210318*
X335125Y210545*
X334813Y210773*
X334500Y210886*
X334031Y211000*
X333250*
X332781Y210886*
X332469Y210773*
X332156Y210545*
X332000Y210318*
Y209864*
X332156Y209636*
X332469Y209409*
X332781Y209295*
X335281Y208045D02*
Y206795D01*
X334031Y207477*
Y207136*
X333875Y206909*
X333719Y206795*
X333250Y206682*
X332938*
X332469Y206795*
X332156Y207023*
X332000Y207364*
Y207705*
X332156Y208045*
X332313Y208159*
X332625Y208273*
X334656Y205659D02*
X334813Y205432D01*
X335281Y205091*
X332000*
X353705Y245500D02*
X353591Y245813D01*
X353364Y246125*
X353136Y246281*
X352682*
X352455Y246125*
X352227Y245813*
X352114Y245500*
X352000Y245031*
Y244250*
X352114Y243781*
X352227Y243469*
X352455Y243156*
X352682Y243000*
X353136*
X353364Y243156*
X353591Y243469*
X353705Y243781*
X356318Y246281D02*
X355182Y243000D01*
X354727Y246281D02*
X356318D01*
X415705Y235500D02*
X415591Y235813D01*
X415591D02*
X415364Y236125D01*
X415136Y236281*
X414682*
X414455Y236125*
X414227Y235813*
X414227D02*
X414114Y235500D01*
X414000Y235031*
Y234250*
X414114Y233781*
X414227Y233469*
X414455Y233156*
X414682Y233000*
X415136*
X415364Y233156*
X415591Y233469*
X415705Y233781*
X417295Y236281D02*
X416955Y236125D01*
X416841Y235813*
X416841D02*
Y235500D01*
X416955Y235188*
X416955D02*
X417182Y235031D01*
X417636Y234875*
X417977Y234719*
X418205Y234406*
X418318Y234094*
Y233625*
X418205Y233313*
X418205D02*
X418091Y233156D01*
X417750Y233000*
X417295*
X416955Y233156*
X416841Y233313*
X416841D02*
X416727Y233625D01*
Y234094*
X416841Y234406*
X417068Y234719*
X417409Y234875*
X417864Y235031*
X418091Y235188*
X418091D02*
X418205Y235500D01*
Y235813*
X418205D02*
X418091Y236125D01*
X417750Y236281*
X417295*
X381705Y250500D02*
X381591Y250813D01*
X381591D02*
X381364Y251125D01*
X381136Y251281*
X380682*
X380455Y251125*
X380227Y250813*
X380227D02*
X380114Y250500D01*
X380000Y250031*
Y249250*
X380114Y248781*
X380227Y248469*
X380455Y248156*
X380682Y248000*
X381136*
X381364Y248156*
X381591Y248469*
X381705Y248781*
X384205Y250188D02*
X384091Y249719D01*
X383864Y249406*
X383523Y249250*
X383409*
X383068Y249406*
X382841Y249719*
X382727Y250188*
X382727D02*
Y250344D01*
X382841Y250813*
X382841D02*
X383068Y251125D01*
X383409Y251281*
X383523*
X383864Y251125*
X384091Y250813*
X384091D02*
X384205Y250188D01*
X384205D02*
Y249406D01*
X384091Y248625*
X383864Y248156*
X383523Y248000*
X383295*
X382955Y248156*
X382841Y248469*
X193500Y486705D02*
X193187Y486591D01*
X193187D02*
X192875Y486364D01*
X192719Y486136*
Y485682*
X192875Y485455*
X193187Y485227*
X193187D02*
X193500Y485114D01*
X193969Y485000*
X194750*
X195219Y485114*
X195531Y485227*
X195844Y485455*
X196000Y485682*
Y486136*
X195844Y486364*
X195531Y486591*
X195219Y486705*
X193500Y489432D02*
X193187Y489318D01*
X193187D02*
X192875Y489091D01*
X192719Y488864*
Y488409*
X192875Y488182*
X193187Y487955*
X193187D02*
X193500Y487841D01*
X193969Y487727*
X194750*
X195219Y487841*
X195531Y487955*
X195844Y488182*
X196000Y488409*
Y488864*
X195844Y489091*
X195531Y489318*
X195219Y489432*
X194750*
Y488864D02*
Y489432D01*
X193344Y490455D02*
X193187Y490682D01*
X193187D02*
X192719Y491023D01*
X196000*
X107705Y424000D02*
X107591Y424313D01*
X107591D02*
X107364Y424625D01*
X107136Y424781*
X106682*
X106455Y424625*
X106227Y424313*
X106227D02*
X106114Y424000D01*
X106000Y423531*
Y422750*
X106114Y422281*
X106227Y421969*
X106455Y421656*
X106682Y421500*
X107136*
X107364Y421656*
X107591Y421969*
X107705Y422281*
X110432Y424000D02*
X110318Y424313D01*
X110318D02*
X110091Y424625D01*
X109864Y424781*
X109409*
X109182Y424625*
X108955Y424313*
X108955D02*
X108841Y424000D01*
X108727Y423531*
Y422750*
X108841Y422281*
X108955Y421969*
X109182Y421656*
X109409Y421500*
X109864*
X110091Y421656*
X110318Y421969*
X110432Y422281*
Y422750*
X109864D02*
X110432D01*
X111568Y424000D02*
Y424156D01*
X111682Y424469*
X111795Y424625*
X112023Y424781*
X112477*
X112705Y424625*
X112818Y424469*
X112932Y424156*
Y423844*
X112818Y423531*
X112591Y423063*
X112591D02*
X111455Y421500D01*
X113045*
X417719Y300000D02*
X421000D01*
X417719D02*
Y300795D01*
X417875Y301136*
X418187Y301364*
X418187D02*
X418500Y301477D01*
X418969Y301591*
X419750*
X420219Y301477*
X420531Y301364*
X420844Y301136*
X421000Y300795*
Y300000*
X418344Y302614D02*
X418187Y302841D01*
X418187D02*
X417719Y303182D01*
X421000*
X417719Y304432D02*
Y305682D01*
X418969Y305000*
Y305341*
X419125Y305568*
X419281Y305682*
X419750Y305795*
X420062*
X420062D02*
X420531Y305682D01*
X420844Y305455*
X421000Y305114*
Y304773*
X420844Y304432*
X420687Y304318*
X420687D02*
X420375Y304205D01*
X324500Y323781D02*
Y320500D01*
Y323781D02*
X325295D01*
X325636Y323625*
X325864Y323313*
X325864D02*
X325977Y323000D01*
X326091Y322531*
Y321750*
X325977Y321281*
X325864Y320969*
X325636Y320656*
X325295Y320500*
X324500*
X327114Y323156D02*
X327341Y323313D01*
X327341D02*
X327682Y323781D01*
Y320500*
X330068Y323313D02*
X329955Y323625D01*
X329614Y323781*
X329386*
X329045Y323625*
X328818Y323156*
X328705Y322375*
Y321594*
X328818Y320969*
X329045Y320656*
X329386Y320500*
X329500*
X329841Y320656*
X330068Y320969*
X330182Y321438*
X330182D02*
Y321594D01*
X330068Y322063*
X330068D02*
X329841Y322375D01*
X329500Y322531*
X329386*
X329045Y322375*
X328818Y322063*
X328818D02*
X328705Y321594D01*
X375000Y278281D02*
Y275000D01*
Y278281D02*
X375795D01*
X376136Y278125*
X376364Y277813*
X376364D02*
X376477Y277500D01*
X376591Y277031*
Y276250*
X376477Y275781*
X376364Y275469*
X376136Y275156*
X375795Y275000*
X375000*
X377614Y277656D02*
X377841Y277813D01*
X377841D02*
X378182Y278281D01*
Y275000*
X380795Y278281D02*
X379659Y275000D01*
X379205Y278281D02*
X380795D01*
X409781Y284000D02*
X406500D01*
X409781D02*
Y283205D01*
X409625Y282864*
X409313Y282636*
X409313D02*
X409000Y282523D01*
X408531Y282409*
X407750*
X407281Y282523*
X406969Y282636*
X406656Y282864*
X406500Y283205*
Y284000*
X409156Y281386D02*
X409313Y281159D01*
X409313D02*
X409781Y280818D01*
X406500*
X409781Y279227D02*
X409625Y279568D01*
X409313Y279682*
X409313D02*
X409000D01*
X408688Y279568*
X408688D02*
X408531Y279341D01*
X408375Y278886*
X408219Y278545*
X407906Y278318*
X407594Y278205*
X407125*
X406813Y278318*
X406813D02*
X406656Y278432D01*
X406500Y278773*
Y279227*
X406656Y279568*
X406813Y279682*
X406813D02*
X407125Y279795D01*
X407594*
X407906Y279682*
X408219Y279455*
X408375Y279114*
X408531Y278659*
X408688Y278432*
X408688D02*
X409000Y278318D01*
X409313*
X409313D02*
X409625Y278432D01*
X409781Y278773*
Y279227*
X341500Y215781D02*
Y212500D01*
Y215781D02*
X342295D01*
X342636Y215625*
X342864Y215313*
X342864D02*
X342977Y215000D01*
X343091Y214531*
Y213750*
X342977Y213281*
X342864Y212969*
X342636Y212656*
X342295Y212500*
X341500*
X344114Y215156D02*
X344341Y215313D01*
X344341D02*
X344682Y215781D01*
Y212500*
X347182Y214688D02*
X347068Y214219D01*
X346841Y213906*
X346500Y213750*
X346386*
X346045Y213906*
X345818Y214219*
X345705Y214688*
X345705D02*
Y214844D01*
X345818Y215313*
X345818D02*
X346045Y215625D01*
X346386Y215781*
X346500*
X346841Y215625*
X347068Y215313*
X347068D02*
X347182Y214688D01*
X347182D02*
Y213906D01*
X347068Y213125*
X346841Y212656*
X346500Y212500*
X346273*
X345932Y212656*
X345818Y212969*
X317500Y211781D02*
Y208500D01*
Y211781D02*
X318295D01*
X318636Y211625*
X318864Y211313*
X318864D02*
X318977Y211000D01*
X319091Y210531*
Y209750*
X318977Y209281*
X318864Y208969*
X318636Y208656*
X318295Y208500*
X317500*
X320227Y211000D02*
Y211156D01*
X320341Y211469*
X320455Y211625*
X320682Y211781*
X321136*
X321364Y211625*
X321477Y211469*
X321591Y211156*
Y210844*
X321477Y210531*
X321250Y210063*
X321250D02*
X320114Y208500D01*
X321705*
X323409Y211781D02*
X323068Y211625D01*
X322841Y211156*
X322727Y210375*
Y209906*
X322841Y209125*
X323068Y208656*
X323409Y208500*
X323636*
X323977Y208656*
X324205Y209125*
X324318Y209906*
Y210375*
X324205Y211156*
X323977Y211625*
X323636Y211781*
X323409*
X332781Y245500D02*
X329500D01*
X332781D02*
Y244705D01*
X332625Y244364*
X332312Y244136*
X332312D02*
X332000Y244023D01*
X331531Y243909*
X330750*
X330281Y244023*
X329969Y244136*
X329656Y244364*
X329500Y244705*
Y245500*
X332000Y242773D02*
X332156D01*
X332469Y242659*
X332625Y242545*
X332781Y242318*
Y241864*
X332625Y241636*
X332469Y241523*
X332156Y241409*
X331844*
X331531Y241523*
X331062Y241750*
X331062D02*
X329500Y242886D01*
Y241295*
X332156Y240273D02*
X332312Y240045D01*
X332312D02*
X332781Y239705D01*
X329500*
X311781Y233000D02*
X308500D01*
X311781D02*
Y232205D01*
X311625Y231864*
X311313Y231636*
X311313D02*
X311000Y231523D01*
X310531Y231409*
X309750*
X309281Y231523*
X308969Y231636*
X308656Y231864*
X308500Y232205*
Y233000*
X311000Y230273D02*
X311156D01*
X311469Y230159*
X311625Y230045*
X311781Y229818*
Y229364*
X311625Y229136*
X311469Y229023*
X311156Y228909*
X310844*
X310531Y229023*
X310063Y229250*
X310063D02*
X308500Y230386D01*
Y228795*
X311000Y227659D02*
X311156D01*
X311469Y227545*
X311625Y227432*
X311781Y227205*
Y226750*
X311625Y226523*
X311469Y226409*
X311156Y226295*
X310844*
X310531Y226409*
X310063Y226636*
X310063D02*
X308500Y227773D01*
Y226182*
X592781Y304000D02*
X589500D01*
X592781D02*
Y303205D01*
X592625Y302864*
X592312Y302636*
X592312D02*
X592000Y302523D01*
X591531Y302409*
X590750*
X590281Y302523*
X589969Y302636*
X589656Y302864*
X589500Y303205*
Y304000*
X592781Y300250D02*
X590594Y301386D01*
Y299682*
X592781Y300250D02*
X589500D01*
X179500Y438281D02*
Y435000D01*
Y438281D02*
X180295D01*
X180636Y438125*
X180864Y437813*
X180864D02*
X180977Y437500D01*
X181091Y437031*
Y436250*
X180977Y435781*
X180864Y435469*
X180636Y435156*
X180295Y435000*
X179500*
X183023Y438281D02*
X182114Y435000D01*
X183023Y438281D02*
X183932Y435000D01*
X182455Y436094D02*
X183591D01*
X185750Y438281D02*
Y435000D01*
X184955Y438281D02*
X186545D01*
X188477D02*
X187568Y435000D01*
X188477Y438281D02*
X189386Y435000D01*
X187909Y436094D02*
X189045D01*
X190409Y437656D02*
X190636Y437813D01*
X190636D02*
X190977Y438281D01*
Y435000*
X192000Y436406D02*
X194045D01*
X195068Y437656D02*
X195295Y437813D01*
X195295D02*
X195636Y438281D01*
Y435000*
X179000Y388281D02*
Y385000D01*
Y388281D02*
X179795D01*
X180136Y388125*
X180364Y387813*
X180364D02*
X180477Y387500D01*
X180591Y387031*
Y386250*
X180477Y385781*
X180364Y385469*
X180136Y385156*
X179795Y385000*
X179000*
X182523Y388281D02*
X181614Y385000D01*
X182523Y388281D02*
X183432Y385000D01*
X181955Y386094D02*
X183091D01*
X185250Y388281D02*
Y385000D01*
X184455Y388281D02*
X186045D01*
X187977D02*
X187068Y385000D01*
X187977Y388281D02*
X188886Y385000D01*
X187409Y386094D02*
X188545D01*
X189909Y387656D02*
X190136Y387813D01*
X190136D02*
X190477Y388281D01*
Y385000*
X191500Y386406D02*
X193545D01*
X194682Y387500D02*
Y387656D01*
X194795Y387969*
X194909Y388125*
X195136Y388281*
X195591*
X195818Y388125*
X195932Y387969*
X196045Y387656*
Y387344*
X195932Y387031*
X195705Y386563*
X195705D02*
X194568Y385000D01*
X196159*
X140500Y437781D02*
Y434500D01*
Y437781D02*
X141295D01*
X141636Y437625*
X141864Y437313*
X141864D02*
X141977Y437000D01*
X142091Y436531*
Y435750*
X141977Y435281*
X141864Y434969*
X141636Y434656*
X141295Y434500*
X140500*
X144023Y437781D02*
X143114Y434500D01*
X144023Y437781D02*
X144932Y434500D01*
X143455Y435594D02*
X144591D01*
X146750Y437781D02*
Y434500D01*
X145955Y437781D02*
X147545D01*
X149477D02*
X148568Y434500D01*
X149477Y437781D02*
X150386Y434500D01*
X148909Y435594D02*
X150045D01*
X151523Y437000D02*
Y437156D01*
X151636Y437469*
X151750Y437625*
X151977Y437781*
X152432*
X152659Y437625*
X152773Y437469*
X152886Y437156*
Y436844*
X152773Y436531*
X152545Y436063*
X152545D02*
X151409Y434500D01*
X153000*
X154023Y435906D02*
X156068D01*
X157091Y437156D02*
X157318Y437313D01*
X157318D02*
X157659Y437781D01*
Y434500*
X144500Y388281D02*
Y385000D01*
Y388281D02*
X145295D01*
X145636Y388125*
X145864Y387813*
X145864D02*
X145977Y387500D01*
X146091Y387031*
Y386250*
X145977Y385781*
X145864Y385469*
X145636Y385156*
X145295Y385000*
X144500*
X148023Y388281D02*
X147114Y385000D01*
X148023Y388281D02*
X148932Y385000D01*
X147455Y386094D02*
X148591D01*
X150750Y388281D02*
Y385000D01*
X149955Y388281D02*
X151545D01*
X153477D02*
X152568Y385000D01*
X153477Y388281D02*
X154386Y385000D01*
X152909Y386094D02*
X154045D01*
X155523Y387500D02*
Y387656D01*
X155636Y387969*
X155750Y388125*
X155977Y388281*
X156432*
X156659Y388125*
X156773Y387969*
X156886Y387656*
Y387344*
X156773Y387031*
X156545Y386563*
X156545D02*
X155409Y385000D01*
X157000*
X158023Y386406D02*
X160068D01*
X161205Y387500D02*
Y387656D01*
X161318Y387969*
X161432Y388125*
X161659Y388281*
X162114*
X162341Y388125*
X162455Y387969*
X162568Y387656*
Y387344*
X162455Y387031*
X162227Y386563*
X162227D02*
X161091Y385000D01*
X162682*
X250000Y115681D02*
Y112400D01*
Y115681D02*
X251477D01*
X250000Y114119D02*
X250909D01*
X250000Y112400D02*
X251477D01*
X253977Y115681D02*
X252841D01*
X252727Y114275*
X252841Y114431*
X253182Y114588*
X253182D02*
X253523D01*
X253523D02*
X253864Y114431D01*
X254091Y114119*
X254205Y113650*
X254091Y113338*
X254091D02*
X253977Y112869D01*
X253750Y112556*
X253409Y112400*
X253068*
X252727Y112556*
X252614Y112713*
X252614D02*
X252500Y113025D01*
X166000Y115781D02*
Y112500D01*
Y115781D02*
X167477D01*
X166000Y114219D02*
X166909D01*
X166000Y112500D02*
X167477D01*
X170091Y115781D02*
X168955Y112500D01*
X168500Y115781D02*
X170091D01*
X356000Y338281D02*
Y335000D01*
X357591Y338281D02*
Y335000D01*
X356000Y336719D02*
X357591D01*
X360205Y337813D02*
X359977Y338125D01*
X359636Y338281*
X359182*
X358841Y338125*
X358614Y337813*
X358614D02*
Y337500D01*
X358727Y337188*
X358727D02*
X358841Y337031D01*
X359068Y336875*
X359750Y336563*
X359750D02*
X359977Y336406D01*
X360091Y336250*
X360205Y335938*
X360205D02*
Y335469D01*
X359977Y335156*
X359636Y335000*
X359182*
X358841Y335156*
X358614Y335469*
X362818Y337813D02*
X362591Y338125D01*
X362250Y338281*
X361795*
X361455Y338125*
X361227Y337813*
X361227D02*
Y337500D01*
X361341Y337188*
X361341D02*
X361455Y337031D01*
X361682Y336875*
X362364Y336563*
X362364D02*
X362591Y336406D01*
X362705Y336250*
X362818Y335938*
X362818D02*
Y335469D01*
X362591Y335156*
X362250Y335000*
X361795*
X361455Y335156*
X361227Y335469*
X274781Y246318D02*
X274625Y246545D01*
X274313Y246773*
X274313D02*
X274000Y246886D01*
X273531Y247000*
X272750*
X272281Y246886*
X271969Y246773*
X271656Y246545*
X271500Y246318*
Y245864*
X271656Y245636*
X271969Y245409*
X272281Y245295*
X272750Y245182*
X273531*
X274000Y245295*
X274313Y245409*
X274313D02*
X274625Y245636D01*
X274781Y245864*
Y246318*
X272125Y245977D02*
X271187Y245295D01*
X274156Y244159D02*
X274313Y243932D01*
X274313D02*
X274781Y243591D01*
X271500*
X274781Y241886D02*
X274625Y242227D01*
X274156Y242455*
X273375Y242568*
X272906*
X272125Y242455*
X271656Y242227*
X271500Y241886*
Y241659*
X271656Y241318*
X272125Y241091*
X272906Y240977*
X273375*
X274156Y241091*
X274625Y241318*
X274781Y241659*
Y241886*
X299682Y295281D02*
X299455Y295125D01*
X299227Y294813*
X299227D02*
X299114Y294500D01*
X299000Y294031*
Y293250*
X299114Y292781*
X299227Y292469*
X299455Y292156*
X299682Y292000*
X300136*
X300364Y292156*
X300591Y292469*
X300705Y292781*
X300818Y293250*
Y294031*
X300705Y294500*
X300591Y294813*
X300591D02*
X300364Y295125D01*
X300136Y295281*
X299682*
X300023Y292625D02*
X300705Y291687D01*
X301841Y294656D02*
X302068Y294813D01*
X302068D02*
X302409Y295281D01*
Y292000*
X303432Y294656D02*
X303659Y294813D01*
X303659D02*
X304000Y295281D01*
Y292000*
X274781Y288318D02*
X274625Y288545D01*
X274313Y288773*
X274313D02*
X274000Y288886D01*
X273531Y289000*
X272750*
X272281Y288886*
X271969Y288773*
X271656Y288545*
X271500Y288318*
Y287864*
X271656Y287636*
X271969Y287409*
X272281Y287295*
X272750Y287182*
X273531*
X274000Y287295*
X274313Y287409*
X274313D02*
X274625Y287636D01*
X274781Y287864*
Y288318*
X272125Y287977D02*
X271187Y287295D01*
X274156Y286159D02*
X274313Y285932D01*
X274313D02*
X274781Y285591D01*
X271500*
X274000Y284455D02*
X274156D01*
X274469Y284341*
X274625Y284227*
X274781Y284000*
Y283545*
X274625Y283318*
X274469Y283205*
X274156Y283091*
X273844*
X273531Y283205*
X273063Y283432*
X273063D02*
X271500Y284568D01*
Y282977*
X299682Y337281D02*
X299455Y337125D01*
X299227Y336813*
X299227D02*
X299114Y336500D01*
X299000Y336031*
Y335250*
X299114Y334781*
X299227Y334469*
X299455Y334156*
X299682Y334000*
X300136*
X300364Y334156*
X300591Y334469*
X300705Y334781*
X300818Y335250*
Y336031*
X300705Y336500*
X300591Y336813*
X300591D02*
X300364Y337125D01*
X300136Y337281*
X299682*
X300023Y334625D02*
X300705Y333687D01*
X301841Y336656D02*
X302068Y336813D01*
X302068D02*
X302409Y337281D01*
Y334000*
X303659Y337281D02*
X304909D01*
X304227Y336031*
X304568*
X304795Y335875*
X304909Y335719*
X305023Y335250*
Y334938*
X305023D02*
X304909Y334469D01*
X304682Y334156*
X304341Y334000*
X304000*
X303659Y334156*
X303545Y334313*
X303545D02*
X303432Y334625D01*
X274781Y325818D02*
X274625Y326045D01*
X274313Y326273*
X274313D02*
X274000Y326386D01*
X273531Y326500*
X272750*
X272281Y326386*
X271969Y326273*
X271656Y326045*
X271500Y325818*
Y325364*
X271656Y325136*
X271969Y324909*
X272281Y324795*
X272750Y324682*
X273531*
X274000Y324795*
X274313Y324909*
X274313D02*
X274625Y325136D01*
X274781Y325364*
Y325818*
X272125Y325477D02*
X271187Y324795D01*
X274156Y323659D02*
X274313Y323432D01*
X274313D02*
X274781Y323091D01*
X271500*
X274781Y320932D02*
X272594Y322068D01*
Y320364*
X274781Y320932D02*
X271500D01*
X299682Y274281D02*
X299455Y274125D01*
X299227Y273813*
X299227D02*
X299114Y273500D01*
X299000Y273031*
Y272250*
X299114Y271781*
X299227Y271469*
X299455Y271156*
X299682Y271000*
X300136*
X300364Y271156*
X300591Y271469*
X300705Y271781*
X300818Y272250*
Y273031*
X300705Y273500*
X300591Y273813*
X300591D02*
X300364Y274125D01*
X300136Y274281*
X299682*
X300023Y271625D02*
X300705Y270687D01*
X301841Y273656D02*
X302068Y273813D01*
X302068D02*
X302409Y274281D01*
Y271000*
X304909Y274281D02*
X303773D01*
X303659Y272875*
X303773Y273031*
X304114Y273188*
X304114D02*
X304455D01*
X304455D02*
X304795Y273031D01*
X305023Y272719*
X305136Y272250*
X305023Y271938*
X305023D02*
X304909Y271469D01*
X304682Y271156*
X304341Y271000*
X304000*
X303659Y271156*
X303545Y271313*
X303545D02*
X303432Y271625D01*
X274781Y267318D02*
X274625Y267545D01*
X274313Y267773*
X274313D02*
X274000Y267886D01*
X273531Y268000*
X272750*
X272281Y267886*
X271969Y267773*
X271656Y267545*
X271500Y267318*
Y266864*
X271656Y266636*
X271969Y266409*
X272281Y266295*
X272750Y266182*
X273531*
X274000Y266295*
X274313Y266409*
X274313D02*
X274625Y266636D01*
X274781Y266864*
Y267318*
X272125Y266977D02*
X271187Y266295D01*
X274156Y265159D02*
X274313Y264932D01*
X274313D02*
X274781Y264591D01*
X271500*
X274313Y262205D02*
X274625Y262318D01*
X274781Y262659*
Y262886*
X274625Y263227*
X274156Y263455*
X273375Y263568*
X272594*
X271969Y263455*
X271656Y263227*
X271500Y262886*
Y262773*
X271656Y262432*
X271969Y262205*
X272438Y262091*
X272438D02*
X272594D01*
X273063Y262205*
X273063D02*
X273375Y262432D01*
X273531Y262773*
Y262886*
X273375Y263227*
X273063Y263455*
X273063D02*
X272594Y263568D01*
X299682Y316281D02*
X299455Y316125D01*
X299227Y315813*
X299227D02*
X299114Y315500D01*
X299000Y315031*
Y314250*
X299114Y313781*
X299227Y313469*
X299455Y313156*
X299682Y313000*
X300136*
X300364Y313156*
X300591Y313469*
X300705Y313781*
X300818Y314250*
Y315031*
X300705Y315500*
X300591Y315813*
X300591D02*
X300364Y316125D01*
X300136Y316281*
X299682*
X300023Y313625D02*
X300705Y312687D01*
X301841Y315656D02*
X302068Y315813D01*
X302068D02*
X302409Y316281D01*
Y313000*
X305023Y316281D02*
X303886Y313000D01*
X303432Y316281D02*
X305023D01*
X274781Y309318D02*
X274625Y309545D01*
X274313Y309773*
X274313D02*
X274000Y309886D01*
X273531Y310000*
X272750*
X272281Y309886*
X271969Y309773*
X271656Y309545*
X271500Y309318*
Y308864*
X271656Y308636*
X271969Y308409*
X272281Y308295*
X272750Y308182*
X273531*
X274000Y308295*
X274313Y308409*
X274313D02*
X274625Y308636D01*
X274781Y308864*
Y309318*
X272125Y308977D02*
X271187Y308295D01*
X274156Y307159D02*
X274313Y306932D01*
X274313D02*
X274781Y306591D01*
X271500*
X274781Y305000D02*
X274625Y305341D01*
X274313Y305455*
X274313D02*
X274000D01*
X273688Y305341*
X273688D02*
X273531Y305114D01*
X273375Y304659*
X273219Y304318*
X272906Y304091*
X272594Y303977*
X272125*
X271813Y304091*
X271813D02*
X271656Y304205D01*
X271500Y304545*
Y305000*
X271656Y305341*
X271813Y305455*
X271813D02*
X272125Y305568D01*
X272594*
X272906Y305455*
X273219Y305227*
X273375Y304886*
X273531Y304432*
X273688Y304205*
X273688D02*
X274000Y304091D01*
X274313*
X274313D02*
X274625Y304205D01*
X274781Y304545*
Y305000*
X274281Y218318D02*
X274125Y218545D01*
X273813Y218773*
X273813D02*
X273500Y218886D01*
X273031Y219000*
X272250*
X271781Y218886*
X271469Y218773*
X271156Y218545*
X271000Y218318*
Y217864*
X271156Y217636*
X271469Y217409*
X271781Y217295*
X272250Y217182*
X273031*
X273500Y217295*
X273813Y217409*
X273813D02*
X274125Y217636D01*
X274281Y217864*
Y218318*
X271625Y217977D02*
X270687Y217295D01*
X273656Y216159D02*
X273813Y215932D01*
X273813D02*
X274281Y215591D01*
X271000*
X273188Y213091D02*
X272719Y213205D01*
X272406Y213432*
X272250Y213773*
Y213886*
X272406Y214227*
X272719Y214455*
X273188Y214568*
X273188D02*
X273344D01*
X273813Y214455*
X273813D02*
X274125Y214227D01*
X274281Y213886*
Y213773*
X274125Y213432*
X273813Y213205*
X273813D02*
X273188Y213091D01*
X273188D02*
X272406D01*
X271625Y213205*
X271156Y213432*
X271000Y213773*
Y214000*
X271156Y214341*
X271469Y214455*
X450682Y242281D02*
X450455Y242125D01*
X450227Y241813*
X450114Y241500*
X450000Y241031*
Y240250*
X450114Y239781*
X450227Y239469*
X450455Y239156*
X450682Y239000*
X451136*
X451364Y239156*
X451591Y239469*
X451705Y239781*
X451818Y240250*
Y241031*
X451705Y241500*
X451591Y241813*
X451364Y242125*
X451136Y242281*
X450682*
X451023Y239625D02*
X451705Y238688D01*
X452955Y241500D02*
Y241656D01*
X453068Y241969*
X453182Y242125*
X453409Y242281*
X453864*
X454091Y242125*
X454205Y241969*
X454318Y241656*
Y241344*
X454205Y241031*
X453977Y240563*
X452841Y239000*
X454432*
X363281Y265318D02*
X363125Y265545D01*
X362813Y265773*
X362813D02*
X362500Y265886D01*
X362031Y266000*
X361250*
X360781Y265886*
X360469Y265773*
X360156Y265545*
X360000Y265318*
Y264864*
X360156Y264636*
X360469Y264409*
X360781Y264295*
X361250Y264182*
X362031*
X362500Y264295*
X362813Y264409*
X362813D02*
X363125Y264636D01*
X363281Y264864*
Y265318*
X360625Y264977D02*
X359687Y264295D01*
X363281Y262023D02*
X361094Y263159D01*
Y261455*
X363281Y262023D02*
X360000D01*
X437682Y291281D02*
X437455Y291125D01*
X437227Y290813*
X437114Y290500*
X437000Y290031*
Y289250*
X437114Y288781*
X437227Y288469*
X437455Y288156*
X437682Y288000*
X438136*
X438364Y288156*
X438591Y288469*
X438705Y288781*
X438818Y289250*
Y290031*
X438705Y290500*
X438591Y290813*
X438364Y291125*
X438136Y291281*
X437682*
X438023Y288625D02*
X438705Y287688D01*
X441318Y291281D02*
X440182D01*
X440068Y289875*
X440182Y290031*
X440523Y290188*
X440864*
X441205Y290031*
X441432Y289719*
X441545Y289250*
X441432Y288938*
X441318Y288469*
X441091Y288156*
X440750Y288000*
X440409*
X440068Y288156*
X439955Y288313*
X439841Y288625*
X426682Y315281D02*
X426455Y315125D01*
X426227Y314813*
X426227D02*
X426114Y314500D01*
X426000Y314031*
Y313250*
X426114Y312781*
X426227Y312469*
X426455Y312156*
X426682Y312000*
X427136*
X427364Y312156*
X427591Y312469*
X427705Y312781*
X427818Y313250*
Y314031*
X427705Y314500*
X427591Y314813*
X427591D02*
X427364Y315125D01*
X427136Y315281*
X426682*
X427023Y312625D02*
X427705Y311687D01*
X430205Y314813D02*
X430091Y315125D01*
X429750Y315281*
X429523*
X429182Y315125*
X428955Y314656*
X428841Y313875*
Y313094*
X428955Y312469*
X429182Y312156*
X429523Y312000*
X429636*
X429977Y312156*
X430205Y312469*
X430318Y312938*
X430318D02*
Y313094D01*
X430205Y313563*
X430205D02*
X429977Y313875D01*
X429636Y314031*
X429523*
X429182Y313875*
X428955Y313563*
X428955D02*
X428841Y313094D01*
X351682Y324281D02*
X351455Y324125D01*
X351227Y323812*
X351227D02*
X351114Y323500D01*
X351000Y323031*
Y322250*
X351114Y321781*
X351227Y321469*
X351455Y321156*
X351682Y321000*
X352136*
X352364Y321156*
X352591Y321469*
X352705Y321781*
X352818Y322250*
Y323031*
X352705Y323500*
X352591Y323812*
X352591D02*
X352364Y324125D01*
X352136Y324281*
X351682*
X352023Y321625D02*
X352705Y320687D01*
X355432Y324281D02*
X354295Y321000D01*
X353841Y324281D02*
X355432D01*
X299682Y231281D02*
X299455Y231125D01*
X299227Y230813*
X299227D02*
X299114Y230500D01*
X299000Y230031*
Y229250*
X299114Y228781*
X299227Y228469*
X299455Y228156*
X299682Y228000*
X300136*
X300364Y228156*
X300591Y228469*
X300705Y228781*
X300818Y229250*
Y230031*
X300705Y230500*
X300591Y230813*
X300591D02*
X300364Y231125D01*
X300136Y231281*
X299682*
X300023Y228625D02*
X300705Y227687D01*
X302409Y231281D02*
X302068Y231125D01*
X301955Y230813*
X301955D02*
Y230500D01*
X302068Y230188*
X302068D02*
X302295Y230031D01*
X302750Y229875*
X303091Y229719*
X303318Y229406*
X303432Y229094*
Y228625*
X303318Y228313*
X303318D02*
X303205Y228156D01*
X302864Y228000*
X302409*
X302068Y228156*
X301955Y228313*
X301955D02*
X301841Y228625D01*
Y229094*
X301955Y229406*
X302182Y229719*
X302523Y229875*
X302977Y230031*
X303205Y230188*
X303205D02*
X303318Y230500D01*
Y230813*
X303318D02*
X303205Y231125D01*
X302864Y231281*
X302409*
X299682Y253281D02*
X299455Y253125D01*
X299227Y252813*
X299227D02*
X299114Y252500D01*
X299000Y252031*
Y251250*
X299114Y250781*
X299227Y250469*
X299455Y250156*
X299682Y250000*
X300136*
X300364Y250156*
X300591Y250469*
X300705Y250781*
X300818Y251250*
Y252031*
X300705Y252500*
X300591Y252813*
X300591D02*
X300364Y253125D01*
X300136Y253281*
X299682*
X300023Y250625D02*
X300705Y249687D01*
X303318Y252188D02*
X303205Y251719D01*
X302977Y251406*
X302636Y251250*
X302523*
X302182Y251406*
X301955Y251719*
X301841Y252188*
X301841D02*
Y252344D01*
X301955Y252813*
X301955D02*
X302182Y253125D01*
X302523Y253281*
X302636*
X302977Y253125*
X303205Y252813*
X303205D02*
X303318Y252188D01*
X303318D02*
Y251406D01*
X303205Y250625*
X302977Y250156*
X302636Y250000*
X302409*
X302068Y250156*
X301955Y250469*
X311500Y299281D02*
Y296000D01*
Y299281D02*
X312523D01*
X312864Y299125*
X312977Y298969*
X313091Y298656*
Y298344*
X312977Y298031*
X312864Y297875*
X312523Y297719*
X311500*
X312295D02*
X313091Y296000D01*
X314114Y298656D02*
X314341Y298813D01*
X314341D02*
X314682Y299281D01*
Y296000*
X315705Y298656D02*
X315932Y298813D01*
X315932D02*
X316273Y299281D01*
Y296000*
X354000Y278281D02*
Y275000D01*
Y278281D02*
X355023D01*
X355364Y278125*
X355477Y277969*
X355591Y277656*
Y277344*
X355477Y277031*
X355364Y276875*
X355023Y276719*
X354000*
X354795D02*
X355591Y275000D01*
X356614Y277656D02*
X356841Y277813D01*
X356841D02*
X357182Y278281D01*
Y275000*
X358318Y277500D02*
Y277656D01*
X358432Y277969*
X358545Y278125*
X358773Y278281*
X359227*
X359455Y278125*
X359568Y277969*
X359682Y277656*
Y277344*
X359568Y277031*
X359341Y276563*
X359341D02*
X358205Y275000D01*
X359795*
X423000Y276281D02*
Y273000D01*
Y276281D02*
X424023D01*
X424364Y276125*
X424477Y275969*
X424591Y275656*
Y275344*
X424477Y275031*
X424364Y274875*
X424023Y274719*
X423000*
X423795D02*
X424591Y273000D01*
X425614Y275656D02*
X425841Y275813D01*
X425841D02*
X426182Y276281D01*
Y273000*
X428682Y276281D02*
X427545D01*
X427432Y274875*
X427545Y275031*
X427886Y275188*
X427886D02*
X428227D01*
X428227D02*
X428568Y275031D01*
X428795Y274719*
X428909Y274250*
X428795Y273938*
X428795D02*
X428682Y273469D01*
X428455Y273156*
X428114Y273000*
X427773*
X427432Y273156*
X427318Y273313*
X427318D02*
X427205Y273625D01*
X435000Y318281D02*
Y315000D01*
Y318281D02*
X436023D01*
X436364Y318125*
X436477Y317969*
X436591Y317656*
Y317344*
X436477Y317031*
X436364Y316875*
X436023Y316719*
X435000*
X435795D02*
X436591Y315000D01*
X437614Y317656D02*
X437841Y317813D01*
X437841D02*
X438182Y318281D01*
Y315000*
X440568Y317813D02*
X440455Y318125D01*
X440114Y318281*
X439886*
X439545Y318125*
X439318Y317656*
X439205Y316875*
Y316094*
X439318Y315469*
X439545Y315156*
X439886Y315000*
X440000*
X440341Y315156*
X440568Y315469*
X440682Y315938*
X440682D02*
Y316094D01*
X440568Y316563*
X440568D02*
X440341Y316875D01*
X440000Y317031*
X439886*
X439545Y316875*
X439318Y316563*
X439318D02*
X439205Y316094D01*
X311500Y290281D02*
Y287000D01*
Y290281D02*
X312523D01*
X312864Y290125*
X312977Y289969*
X313091Y289656*
Y289344*
X312977Y289031*
X312864Y288875*
X312523Y288719*
X311500*
X312295D02*
X313091Y287000D01*
X314114Y289656D02*
X314341Y289813D01*
X314341D02*
X314682Y290281D01*
Y287000*
X317295Y290281D02*
X316159Y287000D01*
X315705Y290281D02*
X317295D01*
X423000Y280281D02*
Y277000D01*
Y280281D02*
X424023D01*
X424364Y280125*
X424477Y279969*
X424591Y279656*
Y279344*
X424477Y279031*
X424364Y278875*
X424023Y278719*
X423000*
X423795D02*
X424591Y277000D01*
X425614Y279656D02*
X425841Y279813D01*
X425841D02*
X426182Y280281D01*
Y277000*
X427773Y280281D02*
X427432Y280125D01*
X427318Y279813*
X427318D02*
Y279500D01*
X427432Y279188*
X427432D02*
X427659Y279031D01*
X428114Y278875*
X428455Y278719*
X428682Y278406*
X428795Y278094*
Y277625*
X428682Y277313*
X428682D02*
X428568Y277156D01*
X428227Y277000*
X427773*
X427432Y277156*
X427318Y277313*
X427318D02*
X427205Y277625D01*
Y278094*
X427318Y278406*
X427545Y278719*
X427886Y278875*
X428341Y279031*
X428568Y279188*
X428568D02*
X428682Y279500D01*
Y279813*
X428682D02*
X428568Y280125D01*
X428227Y280281*
X427773*
X347281Y334500D02*
X344000D01*
X347281D02*
Y333477D01*
X347125Y333136*
X346969Y333023*
X346656Y332909*
X346344*
X346031Y333023*
X345875Y333136*
X345719Y333477*
Y334500*
Y333705D02*
X344000Y332909D01*
X346656Y331886D02*
X346813Y331659D01*
X346813D02*
X347281Y331318D01*
X344000*
X346188Y328818D02*
X345719Y328932D01*
X345406Y329159*
X345250Y329500*
Y329614*
X345406Y329955*
X345719Y330182*
X346188Y330295*
X346188D02*
X346344D01*
X346813Y330182*
X346813D02*
X347125Y329955D01*
X347281Y329614*
Y329500*
X347125Y329159*
X346813Y328932*
X346813D02*
X346188Y328818D01*
X346188D02*
X345406D01*
X344625Y328932*
X344156Y329159*
X344000Y329500*
Y329727*
X344156Y330068*
X344469Y330182*
X592281Y322000D02*
X589000D01*
X592281D02*
Y320977D01*
X592125Y320636*
X591969Y320523*
X591656Y320409*
X591344*
X591031Y320523*
X590875Y320636*
X590719Y320977*
Y322000*
Y321205D02*
X589000Y320409D01*
X591500Y319273D02*
X591656D01*
X591969Y319159*
X592125Y319045*
X592281Y318818*
Y318364*
X592125Y318136*
X591969Y318023*
X591656Y317909*
X591344*
X591031Y318023*
X590563Y318250*
X590563D02*
X589000Y319386D01*
Y317795*
X341281Y335000D02*
X338000D01*
X341281D02*
Y333977D01*
X341125Y333636*
X340969Y333523*
X340656Y333409*
X340344*
X340031Y333523*
X339875Y333636*
X339719Y333977*
Y335000*
Y334205D02*
X338000Y333409D01*
X340500Y332273D02*
X340656D01*
X340969Y332159*
X341125Y332045*
X341281Y331818*
Y331364*
X341125Y331136*
X340969Y331023*
X340656Y330909*
X340344*
X340031Y331023*
X339563Y331250*
X339563D02*
X338000Y332386D01*
Y330795*
X341281Y329091D02*
X341125Y329432D01*
X340656Y329659*
X339875Y329773*
X339406*
X338625Y329659*
X338156Y329432*
X338000Y329091*
Y328864*
X338156Y328523*
X338625Y328295*
X339406Y328182*
X339875*
X340656Y328295*
X341125Y328523*
X341281Y328864*
Y329091*
X320281Y342000D02*
X317000D01*
X320281D02*
Y340977D01*
X320125Y340636*
X319969Y340523*
X319656Y340409*
X319344*
X319031Y340523*
X318875Y340636*
X318719Y340977*
Y342000*
Y341205D02*
X317000Y340409D01*
X319500Y339273D02*
X319656D01*
X319969Y339159*
X320125Y339045*
X320281Y338818*
Y338364*
X320125Y338136*
X319969Y338023*
X319656Y337909*
X319344*
X319031Y338023*
X318563Y338250*
X318563D02*
X317000Y339386D01*
Y337795*
X319656Y336773D02*
X319813Y336545D01*
X319813D02*
X320281Y336205D01*
X317000*
X311500Y308281D02*
Y305000D01*
Y308281D02*
X312523D01*
X312864Y308125*
X312977Y307969*
X313091Y307656*
Y307344*
X312977Y307031*
X312864Y306875*
X312523Y306719*
X311500*
X312295D02*
X313091Y305000D01*
X314227Y307500D02*
Y307656D01*
X314341Y307969*
X314455Y308125*
X314682Y308281*
X315136*
X315364Y308125*
X315477Y307969*
X315591Y307656*
Y307344*
X315477Y307031*
X315250Y306563*
X315250D02*
X314114Y305000D01*
X315705*
X316841Y307500D02*
Y307656D01*
X316955Y307969*
X317068Y308125*
X317295Y308281*
X317750*
X317977Y308125*
X318091Y307969*
X318205Y307656*
Y307344*
X318091Y307031*
X317864Y306563*
X317864D02*
X316727Y305000D01*
X318318*
X311500Y285781D02*
Y282500D01*
Y285781D02*
X312523D01*
X312864Y285625*
X312977Y285469*
X313091Y285156*
Y284844*
X312977Y284531*
X312864Y284375*
X312523Y284219*
X311500*
X312295D02*
X313091Y282500D01*
X314227Y285000D02*
Y285156D01*
X314341Y285469*
X314455Y285625*
X314682Y285781*
X315136*
X315364Y285625*
X315477Y285469*
X315591Y285156*
Y284844*
X315477Y284531*
X315250Y284063*
X315250D02*
X314114Y282500D01*
X315705*
X316955Y285781D02*
X318205D01*
X317523Y284531*
X317864*
X318091Y284375*
X318205Y284219*
X318318Y283750*
Y283438*
X318318D02*
X318205Y282969D01*
X317977Y282656*
X317636Y282500*
X317295*
X316955Y282656*
X316841Y282813*
X316841D02*
X316727Y283125D01*
X417500Y318781D02*
Y315500D01*
Y318781D02*
X418523D01*
X418864Y318625*
X418977Y318469*
X419091Y318156*
Y317844*
X418977Y317531*
X418864Y317375*
X418523Y317219*
X417500*
X418295D02*
X419091Y315500D01*
X420227Y318000D02*
Y318156D01*
X420341Y318469*
X420455Y318625*
X420682Y318781*
X421136*
X421364Y318625*
X421477Y318469*
X421591Y318156*
Y317844*
X421477Y317531*
X421250Y317063*
X421250D02*
X420114Y315500D01*
X421705*
X424205Y318781D02*
X423068D01*
X422955Y317375*
X423068Y317531*
X423409Y317688*
X423409D02*
X423750D01*
X423750D02*
X424091Y317531D01*
X424318Y317219*
X424432Y316750*
X424318Y316438*
X424318D02*
X424205Y315969D01*
X423977Y315656*
X423636Y315500*
X423295*
X422955Y315656*
X422841Y315813*
X422841D02*
X422727Y316125D01*
X392281Y313500D02*
X389000D01*
X392281D02*
Y312477D01*
X392125Y312136*
X391969Y312023*
X391656Y311909*
X391344*
X391031Y312023*
X390875Y312136*
X390719Y312477*
Y313500*
Y312705D02*
X389000Y311909D01*
X391500Y310773D02*
X391656D01*
X391969Y310659*
X392125Y310545*
X392281Y310318*
Y309864*
X392125Y309636*
X391969Y309523*
X391656Y309409*
X391344*
X391031Y309523*
X390562Y309750*
X390562D02*
X389000Y310886D01*
Y309295*
X391812Y306909D02*
X392125Y307023D01*
X392281Y307364*
Y307591*
X392125Y307932*
X391656Y308159*
X390875Y308273*
X390094*
X389469Y308159*
X389156Y307932*
X389000Y307591*
Y307477*
X389156Y307136*
X389469Y306909*
X389937Y306795*
X389937D02*
X390094D01*
X390562Y306909*
X390562D02*
X390875Y307136D01*
X391031Y307477*
Y307591*
X390875Y307932*
X390562Y308159*
X390562D02*
X390094Y308273D01*
X323281Y277500D02*
X320000D01*
X323281D02*
Y276477D01*
X323125Y276136*
X322969Y276023*
X322656Y275909*
X322344*
X322031Y276023*
X321875Y276136*
X321719Y276477*
Y277500*
Y276705D02*
X320000Y275909D01*
X322500Y274773D02*
X322656D01*
X322969Y274659*
X323125Y274545*
X323281Y274318*
Y273864*
X323125Y273636*
X322969Y273523*
X322656Y273409*
X322344*
X322031Y273523*
X321563Y273750*
X321563D02*
X320000Y274886D01*
Y273295*
X323281Y270682D02*
X320000Y271818D01*
X323281Y272273D02*
Y270682D01*
X324281Y340500D02*
X321000D01*
X324281D02*
Y339477D01*
X324125Y339136*
X323969Y339023*
X323656Y338909*
X323344*
X323031Y339023*
X322875Y339136*
X322719Y339477*
Y340500*
Y339705D02*
X321000Y338909D01*
X323500Y337773D02*
X323656D01*
X323969Y337659*
X324125Y337545*
X324281Y337318*
Y336864*
X324125Y336636*
X323969Y336523*
X323656Y336409*
X323344*
X323031Y336523*
X322563Y336750*
X322563D02*
X321000Y337886D01*
Y336295*
X323188Y333795D02*
X322719Y333909D01*
X322406Y334136*
X322250Y334477*
Y334591*
X322406Y334932*
X322719Y335159*
X323188Y335273*
X323188D02*
X323344D01*
X323813Y335159*
X323813D02*
X324125Y334932D01*
X324281Y334591*
Y334477*
X324125Y334136*
X323813Y333909*
X323813D02*
X323188Y333795D01*
X323188D02*
X322406D01*
X321625Y333909*
X321156Y334136*
X321000Y334477*
Y334705*
X321156Y335045*
X321469Y335159*
X366281Y225000D02*
X363000D01*
X366281D02*
Y223977D01*
X366125Y223636*
X365969Y223523*
X365656Y223409*
X365344*
X365031Y223523*
X364875Y223636*
X364719Y223977*
Y225000*
Y224205D02*
X363000Y223409D01*
X366281Y222159D02*
Y220909D01*
X365031Y221591*
Y221250*
X364875Y221023*
X364719Y220909*
X364250Y220795*
X363938*
X363469Y220909*
X363156Y221136*
X363000Y221477*
Y221818*
X363156Y222159*
X363313Y222273*
X363625Y222386*
X427781Y267000D02*
X424500D01*
X427781D02*
Y265977D01*
X427625Y265636*
X427469Y265523*
X427156Y265409*
X426844*
X426531Y265523*
X426375Y265636*
X426219Y265977*
Y267000*
Y266205D02*
X424500Y265409D01*
X427781Y264159D02*
Y262909D01*
X426531Y263591*
Y263250*
X426375Y263023*
X426219Y262909*
X425750Y262795*
X425438*
X425438D02*
X424969Y262909D01*
X424656Y263136*
X424500Y263477*
Y263818*
X424656Y264159*
X424813Y264273*
X424813D02*
X425125Y264386D01*
X427781Y261091D02*
X427625Y261432D01*
X427156Y261659*
X426375Y261773*
X425906*
X425125Y261659*
X424656Y261432*
X424500Y261091*
Y260864*
X424656Y260523*
X425125Y260295*
X425906Y260182*
X426375*
X427156Y260295*
X427625Y260523*
X427781Y260864*
Y261091*
X319281Y277500D02*
X316000D01*
X319281D02*
Y276477D01*
X319125Y276136*
X318969Y276023*
X318656Y275909*
X318344*
X318031Y276023*
X317875Y276136*
X317719Y276477*
Y277500*
Y276705D02*
X316000Y275909D01*
X319281Y274659D02*
Y273409D01*
X318031Y274091*
Y273750*
X317875Y273523*
X317719Y273409*
X317250Y273295*
X316938*
X316938D02*
X316469Y273409D01*
X316156Y273636*
X316000Y273977*
Y274318*
X316156Y274659*
X316313Y274773*
X316313D02*
X316625Y274886D01*
X318656Y272273D02*
X318813Y272045D01*
X318813D02*
X319281Y271705D01*
X316000*
X390000Y281281D02*
Y278000D01*
Y281281D02*
X391023D01*
X391364Y281125*
X391477Y280969*
X391591Y280656*
Y280344*
X391477Y280031*
X391364Y279875*
X391023Y279719*
X390000*
X390795D02*
X391591Y278000D01*
X392841Y281281D02*
X394091D01*
X393409Y280031*
X393750*
X393977Y279875*
X394091Y279719*
X394205Y279250*
Y278938*
X394205D02*
X394091Y278469D01*
X393864Y278156*
X393523Y278000*
X393182*
X392841Y278156*
X392727Y278313*
X392727D02*
X392614Y278625D01*
X395341Y280500D02*
Y280656D01*
X395455Y280969*
X395568Y281125*
X395795Y281281*
X396250*
X396477Y281125*
X396591Y280969*
X396705Y280656*
Y280344*
X396591Y280031*
X396364Y279563*
X396364D02*
X395227Y278000D01*
X396818*
X378281Y225000D02*
X375000D01*
X378281D02*
Y223977D01*
X378125Y223636*
X377969Y223523*
X377656Y223409*
X377344*
X377031Y223523*
X376875Y223636*
X376719Y223977*
Y225000*
Y224205D02*
X375000Y223409D01*
X378281Y221250D02*
X376094Y222386D01*
Y220682*
X378281Y221250D02*
X375000D01*
X350000Y330781D02*
Y327500D01*
Y330781D02*
X351023D01*
X351364Y330625*
X351477Y330469*
X351591Y330156*
Y329844*
X351477Y329531*
X351364Y329375*
X351023Y329219*
X350000*
X350795D02*
X351591Y327500D01*
X354205Y330781D02*
X353068Y327500D01*
X352614Y330781D02*
X354205D01*
X407281Y257000D02*
X404000D01*
X407281D02*
Y255977D01*
X407125Y255636*
X406969Y255523*
X406656Y255409*
X406344*
X406031Y255523*
X405875Y255636*
X405719Y255977*
Y257000*
Y256205D02*
X404000Y255409D01*
X407281Y253818D02*
X407125Y254159D01*
X406813Y254273*
X406813D02*
X406500D01*
X406188Y254159*
X406188D02*
X406031Y253932D01*
X405875Y253477*
X405719Y253136*
X405406Y252909*
X405094Y252795*
X404625*
X404313Y252909*
X404313D02*
X404156Y253023D01*
X404000Y253364*
Y253818*
X404156Y254159*
X404313Y254273*
X404313D02*
X404625Y254386D01*
X405094*
X405406Y254273*
X405719Y254045*
X405875Y253705*
X406031Y253250*
X406188Y253023*
X406188D02*
X406500Y252909D01*
X406813*
X406813D02*
X407125Y253023D01*
X407281Y253364*
Y253818*
X428281Y258000D02*
X425000D01*
X428281D02*
Y256977D01*
X428125Y256636*
X427969Y256523*
X427656Y256409*
X427344*
X427031Y256523*
X426875Y256636*
X426719Y256977*
Y258000*
Y257205D02*
X425000Y256409D01*
X427187Y253909D02*
X426719Y254023D01*
X426406Y254250*
X426250Y254591*
Y254705*
X426406Y255045*
X426719Y255273*
X427187Y255386*
X427187D02*
X427344D01*
X427812Y255273*
X427812D02*
X428125Y255045D01*
X428281Y254705*
Y254591*
X428125Y254250*
X427812Y254023*
X427812D02*
X427187Y253909D01*
X427187D02*
X426406D01*
X425625Y254023*
X425156Y254250*
X425000Y254591*
Y254818*
X425156Y255159*
X425469Y255273*
X183500Y458281D02*
Y455000D01*
Y458281D02*
X184523D01*
X184864Y458125*
X184977Y457969*
X185091Y457656*
Y457344*
X184977Y457031*
X184864Y456875*
X184523Y456719*
X183500*
X184295D02*
X185091Y455000D01*
X186909Y458281D02*
Y455000D01*
X186114Y458281D02*
X187705D01*
X188727Y457656D02*
X188955Y457813D01*
X188955D02*
X189295Y458281D01*
Y455000*
X183500Y453781D02*
Y450500D01*
Y453781D02*
X184523D01*
X184864Y453625*
X184977Y453469*
X185091Y453156*
Y452844*
X184977Y452531*
X184864Y452375*
X184523Y452219*
X183500*
X184295D02*
X185091Y450500D01*
X186909Y453781D02*
Y450500D01*
X186114Y453781D02*
X187705D01*
X188841Y453000D02*
Y453156D01*
X188955Y453469*
X189068Y453625*
X189295Y453781*
X189750*
X189977Y453625*
X190091Y453469*
X190205Y453156*
Y452844*
X190091Y452531*
X189864Y452063*
X189864D02*
X188727Y450500D01*
X190318*
X183500Y398281D02*
Y395000D01*
Y398281D02*
X184523D01*
X184864Y398125*
X184977Y397969*
X185091Y397656*
Y397344*
X184977Y397031*
X184864Y396875*
X184523Y396719*
X183500*
X184295D02*
X185091Y395000D01*
X186909Y398281D02*
Y395000D01*
X186114Y398281D02*
X187705D01*
X188955D02*
X190205D01*
X189523Y397031*
X189864*
X190091Y396875*
X190205Y396719*
X190318Y396250*
Y395938*
X190318D02*
X190205Y395469D01*
X189977Y395156*
X189636Y395000*
X189295*
X188955Y395156*
X188841Y395313*
X188841D02*
X188727Y395625D01*
X183500Y393781D02*
Y390500D01*
Y393781D02*
X184523D01*
X184864Y393625*
X184977Y393469*
X185091Y393156*
Y392844*
X184977Y392531*
X184864Y392375*
X184523Y392219*
X183500*
X184295D02*
X185091Y390500D01*
X186909Y393781D02*
Y390500D01*
X186114Y393781D02*
X187705D01*
X189864D02*
X188727Y391594D01*
X190432*
X189864Y393781D02*
Y390500D01*
X330000Y310281D02*
Y307937D01*
X330000D02*
X330114Y307469D01*
X330341Y307156*
X330682Y307000*
X330909*
X331250Y307156*
X331477Y307469*
X331591Y307937*
X331591D02*
Y310281D01*
X332614Y309656D02*
X332841Y309812D01*
X332841D02*
X333182Y310281D01*
Y307000*
X331500Y329795D02*
X331812Y329909D01*
X331812D02*
X332125Y330136D01*
X332281Y330364*
Y330818*
X332125Y331045*
X331812Y331273*
X331812D02*
X331500Y331386D01*
X331031Y331500*
X330250*
X329781Y331386*
X329469Y331273*
X329156Y331045*
X329000Y330818*
Y330364*
X329156Y330136*
X329469Y329909*
X329781Y329795*
X331500Y328659D02*
X331656D01*
X331969Y328545*
X332125Y328432*
X332281Y328205*
Y327750*
X332125Y327523*
X331969Y327409*
X331656Y327295*
X331344*
X331031Y327409*
X330562Y327636*
X330562D02*
X329000Y328773D01*
Y327182*
X331812Y324795D02*
X332125Y324909D01*
X332281Y325250*
Y325477*
X332125Y325818*
X331656Y326045*
X330875Y326159*
X330094*
X329469Y326045*
X329156Y325818*
X329000Y325477*
Y325364*
X329156Y325023*
X329469Y324795*
X329937Y324682*
X329937D02*
X330094D01*
X330562Y324795*
X330562D02*
X330875Y325023D01*
X331031Y325364*
Y325477*
X330875Y325818*
X330562Y326045*
X330562D02*
X330094Y326159D01*
X109000Y275281D02*
Y272000D01*
Y275281D02*
X110477D01*
X109000Y273719D02*
X109909D01*
X109000Y272000D02*
X110477D01*
X112636Y275281D02*
X111500Y273094D01*
X113205*
X112636Y275281D02*
Y272000D01*
X577000Y169281D02*
Y166000D01*
Y169281D02*
X578477D01*
X577000Y167719D02*
X577909D01*
X577000Y166000D02*
X578477D01*
X579500Y168656D02*
X579727Y168813D01*
X579727D02*
X580068Y169281D01*
Y166000*
X581091Y168656D02*
X581318Y168813D01*
X581318D02*
X581659Y169281D01*
Y166000*
X317500Y115281D02*
Y112000D01*
Y115281D02*
X318977D01*
X317500Y113719D02*
X318409D01*
X317500Y112000D02*
X318977D01*
X320000Y114656D02*
X320227Y114813D01*
X320227D02*
X320568Y115281D01*
Y112000*
X321705Y114500D02*
Y114656D01*
X321818Y114969*
X321932Y115125*
X322159Y115281*
X322614*
X322841Y115125*
X322955Y114969*
X323068Y114656*
Y114344*
X322955Y114031*
X322727Y113563*
X322727D02*
X321591Y112000D01*
X323182*
X582000Y342781D02*
Y339500D01*
Y342781D02*
X583477D01*
X582000Y341219D02*
X582909D01*
X582000Y339500D02*
X583477D01*
X584614Y342000D02*
Y342156D01*
X584727Y342469*
X584841Y342625*
X585068Y342781*
X585523*
X585750Y342625*
X585864Y342469*
X585977Y342156*
Y341844*
X585864Y341531*
X585636Y341063*
X585636D02*
X584500Y339500D01*
X586091*
X582000Y272781D02*
Y269500D01*
Y272781D02*
X583477D01*
X582000Y271219D02*
X582909D01*
X582000Y269500D02*
X583477D01*
X584727Y272781D02*
X585977D01*
X585295Y271531*
X585636*
X585864Y271375*
X585977Y271219*
X586091Y270750*
Y270438*
X586091D02*
X585977Y269969D01*
X585750Y269656*
X585409Y269500*
X585068*
X584727Y269656*
X584614Y269813*
X584614D02*
X584500Y270125D01*
X109000Y211281D02*
Y208000D01*
Y211281D02*
X110477D01*
X109000Y209719D02*
X109909D01*
X109000Y208000D02*
X110477D01*
X112977Y210188D02*
X112864Y209719D01*
X112636Y209406*
X112295Y209250*
X112182*
X111841Y209406*
X111614Y209719*
X111500Y210188*
X111500D02*
Y210344D01*
X111614Y210813*
X111614D02*
X111841Y211125D01*
X112182Y211281*
X112295*
X112636Y211125*
X112864Y210813*
X112864D02*
X112977Y210188D01*
X112977D02*
Y209406D01*
X112864Y208625*
X112636Y208156*
X112295Y208000*
X112068*
X111727Y208156*
X111614Y208469*
X314781Y268000D02*
X311500D01*
X314781D02*
Y266977D01*
X314625Y266636*
X314469Y266523*
X314156Y266409*
X313844*
X313531Y266523*
X313375Y266636*
X313219Y266977*
Y268000*
Y267205D02*
X311500Y266409D01*
X314156Y265386D02*
X314313Y265159D01*
X314313D02*
X314781Y264818D01*
X311500*
X314781Y262659D02*
X312594Y263795D01*
Y262091*
X314781Y262659D02*
X311500D01*
X376500Y284281D02*
Y281000D01*
X377864*
X380023Y284281D02*
X378886Y282094D01*
X380591*
X380023Y284281D02*
Y281000D01*
X371500Y320281D02*
Y317000D01*
Y320281D02*
X372295D01*
X372636Y320125*
X372864Y319813*
X372864D02*
X372977Y319500D01*
X373091Y319031*
Y318250*
X372977Y317781*
X372864Y317469*
X372636Y317156*
X372295Y317000*
X371500*
X374114Y319656D02*
X374341Y319813D01*
X374341D02*
X374682Y320281D01*
Y317000*
X377182Y320281D02*
X376045D01*
X375932Y318875*
X376045Y319031*
X376386Y319188*
X376386D02*
X376727D01*
X376727D02*
X377068Y319031D01*
X377295Y318719*
X377409Y318250*
X377295Y317938*
X377295D02*
X377182Y317469D01*
X376955Y317156*
X376614Y317000*
X376273*
X375932Y317156*
X375818Y317313*
X375818D02*
X375705Y317625D01*
X390500Y305781D02*
Y302500D01*
X393114Y305313D02*
X392886Y305625D01*
X392545Y305781*
X392091*
X391750Y305625*
X391523Y305313*
X391523D02*
Y305000D01*
X391636Y304688*
X391636D02*
X391750Y304531D01*
X391977Y304375*
X392659Y304063*
X392659D02*
X392886Y303906D01*
X393000Y303750*
X393114Y303438*
X393114D02*
Y302969D01*
X392886Y302656*
X392545Y302500*
X392091*
X391750Y302656*
X391523Y302969*
X394818Y305781D02*
X394591Y305625D01*
X394364Y305313*
X394364D02*
X394250Y305000D01*
X394136Y304531*
Y303750*
X394250Y303281*
X394364Y302969*
X394591Y302656*
X394818Y302500*
X395273*
X395500Y302656*
X395727Y302969*
X395841Y303281*
X395955Y303750*
Y304531*
X395841Y305000*
X395727Y305313*
X395727D02*
X395500Y305625D01*
X395273Y305781*
X394818*
X396977Y305156D02*
X397205Y305313D01*
X397205D02*
X397545Y305781D01*
Y302500*
X423500Y281000D02*
X422000D01*
Y268000*
X423500*
X421500Y279000D02*
X418000Y282500D01*
Y280500*
X420000Y282500*
X418000*
G74*
X0Y0D02*
M02*
