*
*
G04 PADS VX.1.1 Build Number: 678707 generated Gerber (RS-274-X) file*
G04 PC Version=2.1*
*
%IN "DC2047A REV03 (6-27-201"*%
*
%MOIN*%
*
%FSLAX35Y35*%
*
*
*
*
G04 PC Standard Apertures*
*
*
G04 Thermal Relief Aperture macro.*
%AMTER*
1,1,$1,0,0*
1,0,$1-$2,0,0*
21,0,$3,$4,0,0,45*
21,0,$3,$4,0,0,135*
%
*
*
G04 Annular Aperture macro.*
%AMANN*
1,1,$1,0,0*
1,0,$2,0,0*
%
*
*
G04 Odd Aperture macro.*
%AMODD*
1,1,$1,0,0*
1,0,$1-0.005,0,0*
%
*
*
G04 PC Custom Aperture Macros*
*
*
*
*
*
*
G04 PC Aperture Table*
*
%ADD010C,0.001*%
%ADD028C,0.082*%
%ADD048C,0.076*%
%ADD050C,0.01*%
%ADD054C,0.03*%
%ADD073R,0.066X0.136*%
%ADD074R,0.056X0.076*%
%ADD075R,0.059X0.056*%
%ADD076R,0.076X0.056*%
%ADD077R,0.041X0.036*%
%ADD078R,0.036X0.026*%
%ADD079R,0.066X0.066*%
%ADD080C,0.066*%
%ADD081R,0.056X0.111*%
%ADD082R,0.056X0.059*%
%ADD083R,0.096X0.061*%
%ADD084R,0.031X0.036*%
%ADD085R,0.036X0.031*%
%ADD086R,0.041X0.046*%
%ADD087R,0.046X0.041*%
%ADD088R,0.071X0.066*%
%ADD089C,0.156*%
%ADD090C,0.088*%
%ADD091C,0.134*%
%ADD093R,0.024X0.056*%
%ADD094R,0.056X0.024*%
%ADD095R,0.036X0.066*%
%ADD096R,0.066X0.036*%
%ADD097R,0.042X0.042*%
%ADD098R,0.056X0.042*%
%ADD099R,0.042X0.056*%
%ADD100R,0.036X0.041*%
%ADD101R,0.026X0.036*%
%ADD102R,0.01584X0.03356*%
%ADD103R,0.03356X0.01584*%
%ADD104R,0.1497X0.11033*%
%ADD106C,0.286*%
%ADD107O,0.177X0.176*%
%ADD108C,0.056*%
%ADD109C,0.061*%
%ADD132R,0.126X0.066*%
%ADD133R,0.05324X0.0375*%
*
*
*
*
G04 PC Circuitry*
G04 Layer Name DC2047A REV03 (6-27-201 - circuitry*
%LPD*%
*
*
G04 PC Custom Flashes*
G04 Layer Name DC2047A REV03 (6-27-201 - flashes*
%LPD*%
*
*
G04 PC Circuitry*
G04 Layer Name DC2047A REV03 (6-27-201 - circuitry*
%LPD*%
*
G54D10*
G54D28*
G01X129500Y392250D03*
Y455750D03*
G54D48*
X555800Y485400D03*
X144200Y114600D03*
G54D50*
X277200Y246300D02*
Y238700D01*
X290800*
Y246300*
X277200*
X277500Y238700D02*
Y246300D01*
X278000Y238700D02*
Y246300D01*
X278500Y238700D02*
Y246300D01*
X279000Y238700D02*
Y246300D01*
X279500Y238700D02*
Y246300D01*
X280000Y238700D02*
Y246300D01*
X280500Y238700D02*
Y246300D01*
X281000Y238700D02*
Y246300D01*
X281500Y238700D02*
Y246300D01*
X282000Y238700D02*
Y246300D01*
X282500Y238700D02*
Y246300D01*
X283000Y238700D02*
Y246300D01*
X283500Y238700D02*
Y246300D01*
X284000Y238700D02*
Y246300D01*
X284500Y238700D02*
Y246300D01*
X285000Y238700D02*
Y246300D01*
X285500Y238700D02*
Y246300D01*
X286000Y238700D02*
Y246300D01*
X286500Y238700D02*
Y246300D01*
X287000Y238700D02*
Y246300D01*
X287500Y238700D02*
Y246300D01*
X288000Y238700D02*
Y246300D01*
X288500Y238700D02*
Y246300D01*
X289000Y238700D02*
Y246300D01*
X289500Y238700D02*
Y246300D01*
X290000Y238700D02*
Y246300D01*
X290500Y238700D02*
Y246300D01*
X307300Y289800D02*
X299700D01*
Y276200*
X307300*
Y289800*
X300000Y276200D02*
Y289800D01*
X300500Y276200D02*
Y289800D01*
X301000Y276200D02*
Y289800D01*
X301500Y276200D02*
Y289800D01*
X302000Y276200D02*
Y289800D01*
X302500Y276200D02*
Y289800D01*
X303000Y276200D02*
Y289800D01*
X303500Y276200D02*
Y289800D01*
X304000Y276200D02*
Y289800D01*
X304500Y276200D02*
Y289800D01*
X305000Y276200D02*
Y289800D01*
X305500Y276200D02*
Y289800D01*
X306000Y276200D02*
Y289800D01*
X306500Y276200D02*
Y289800D01*
X307000Y276200D02*
Y289800D01*
X277200Y288300D02*
Y280700D01*
X290800*
Y288300*
X277200*
X277500Y280700D02*
Y288300D01*
X278000Y280700D02*
Y288300D01*
X278500Y280700D02*
Y288300D01*
X279000Y280700D02*
Y288300D01*
X279500Y280700D02*
Y288300D01*
X280000Y280700D02*
Y288300D01*
X280500Y280700D02*
Y288300D01*
X281000Y280700D02*
Y288300D01*
X281500Y280700D02*
Y288300D01*
X282000Y280700D02*
Y288300D01*
X282500Y280700D02*
Y288300D01*
X283000Y280700D02*
Y288300D01*
X283500Y280700D02*
Y288300D01*
X284000Y280700D02*
Y288300D01*
X284500Y280700D02*
Y288300D01*
X285000Y280700D02*
Y288300D01*
X285500Y280700D02*
Y288300D01*
X286000Y280700D02*
Y288300D01*
X286500Y280700D02*
Y288300D01*
X287000Y280700D02*
Y288300D01*
X287500Y280700D02*
Y288300D01*
X288000Y280700D02*
Y288300D01*
X288500Y280700D02*
Y288300D01*
X289000Y280700D02*
Y288300D01*
X289500Y280700D02*
Y288300D01*
X290000Y280700D02*
Y288300D01*
X290500Y280700D02*
Y288300D01*
X307300Y331800D02*
X299700D01*
Y318200*
X307300*
Y331800*
X300000Y318200D02*
Y331800D01*
X300500Y318200D02*
Y331800D01*
X301000Y318200D02*
Y331800D01*
X301500Y318200D02*
Y331800D01*
X302000Y318200D02*
Y331800D01*
X302500Y318200D02*
Y331800D01*
X303000Y318200D02*
Y331800D01*
X303500Y318200D02*
Y331800D01*
X304000Y318200D02*
Y331800D01*
X304500Y318200D02*
Y331800D01*
X305000Y318200D02*
Y331800D01*
X305500Y318200D02*
Y331800D01*
X306000Y318200D02*
Y331800D01*
X306500Y318200D02*
Y331800D01*
X307000Y318200D02*
Y331800D01*
X277200Y330300D02*
Y322700D01*
X290800*
Y330300*
X277200*
X277500Y322700D02*
Y330300D01*
X278000Y322700D02*
Y330300D01*
X278500Y322700D02*
Y330300D01*
X279000Y322700D02*
Y330300D01*
X279500Y322700D02*
Y330300D01*
X280000Y322700D02*
Y330300D01*
X280500Y322700D02*
Y330300D01*
X281000Y322700D02*
Y330300D01*
X281500Y322700D02*
Y330300D01*
X282000Y322700D02*
Y330300D01*
X282500Y322700D02*
Y330300D01*
X283000Y322700D02*
Y330300D01*
X283500Y322700D02*
Y330300D01*
X284000Y322700D02*
Y330300D01*
X284500Y322700D02*
Y330300D01*
X285000Y322700D02*
Y330300D01*
X285500Y322700D02*
Y330300D01*
X286000Y322700D02*
Y330300D01*
X286500Y322700D02*
Y330300D01*
X287000Y322700D02*
Y330300D01*
X287500Y322700D02*
Y330300D01*
X288000Y322700D02*
Y330300D01*
X288500Y322700D02*
Y330300D01*
X289000Y322700D02*
Y330300D01*
X289500Y322700D02*
Y330300D01*
X290000Y322700D02*
Y330300D01*
X290500Y322700D02*
Y330300D01*
X307300Y268800D02*
X299700D01*
Y255200*
X307300*
Y268800*
X300000Y255200D02*
Y268800D01*
X300500Y255200D02*
Y268800D01*
X301000Y255200D02*
Y268800D01*
X301500Y255200D02*
Y268800D01*
X302000Y255200D02*
Y268800D01*
X302500Y255200D02*
Y268800D01*
X303000Y255200D02*
Y268800D01*
X303500Y255200D02*
Y268800D01*
X304000Y255200D02*
Y268800D01*
X304500Y255200D02*
Y268800D01*
X305000Y255200D02*
Y268800D01*
X305500Y255200D02*
Y268800D01*
X306000Y255200D02*
Y268800D01*
X306500Y255200D02*
Y268800D01*
X307000Y255200D02*
Y268800D01*
X277200Y267300D02*
Y259700D01*
X290800*
Y267300*
X277200*
X277500Y259700D02*
Y267300D01*
X278000Y259700D02*
Y267300D01*
X278500Y259700D02*
Y267300D01*
X279000Y259700D02*
Y267300D01*
X279500Y259700D02*
Y267300D01*
X280000Y259700D02*
Y267300D01*
X280500Y259700D02*
Y267300D01*
X281000Y259700D02*
Y267300D01*
X281500Y259700D02*
Y267300D01*
X282000Y259700D02*
Y267300D01*
X282500Y259700D02*
Y267300D01*
X283000Y259700D02*
Y267300D01*
X283500Y259700D02*
Y267300D01*
X284000Y259700D02*
Y267300D01*
X284500Y259700D02*
Y267300D01*
X285000Y259700D02*
Y267300D01*
X285500Y259700D02*
Y267300D01*
X286000Y259700D02*
Y267300D01*
X286500Y259700D02*
Y267300D01*
X287000Y259700D02*
Y267300D01*
X287500Y259700D02*
Y267300D01*
X288000Y259700D02*
Y267300D01*
X288500Y259700D02*
Y267300D01*
X289000Y259700D02*
Y267300D01*
X289500Y259700D02*
Y267300D01*
X290000Y259700D02*
Y267300D01*
X290500Y259700D02*
Y267300D01*
X307300Y310800D02*
X299700D01*
Y297200*
X307300*
Y310800*
X300000Y297200D02*
Y310800D01*
X300500Y297200D02*
Y310800D01*
X301000Y297200D02*
Y310800D01*
X301500Y297200D02*
Y310800D01*
X302000Y297200D02*
Y310800D01*
X302500Y297200D02*
Y310800D01*
X303000Y297200D02*
Y310800D01*
X303500Y297200D02*
Y310800D01*
X304000Y297200D02*
Y310800D01*
X304500Y297200D02*
Y310800D01*
X305000Y297200D02*
Y310800D01*
X305500Y297200D02*
Y310800D01*
X306000Y297200D02*
Y310800D01*
X306500Y297200D02*
Y310800D01*
X307000Y297200D02*
Y310800D01*
X277200Y309300D02*
Y301700D01*
X290800*
Y309300*
X277200*
X277500Y301700D02*
Y309300D01*
X278000Y301700D02*
Y309300D01*
X278500Y301700D02*
Y309300D01*
X279000Y301700D02*
Y309300D01*
X279500Y301700D02*
Y309300D01*
X280000Y301700D02*
Y309300D01*
X280500Y301700D02*
Y309300D01*
X281000Y301700D02*
Y309300D01*
X281500Y301700D02*
Y309300D01*
X282000Y301700D02*
Y309300D01*
X282500Y301700D02*
Y309300D01*
X283000Y301700D02*
Y309300D01*
X283500Y301700D02*
Y309300D01*
X284000Y301700D02*
Y309300D01*
X284500Y301700D02*
Y309300D01*
X285000Y301700D02*
Y309300D01*
X285500Y301700D02*
Y309300D01*
X286000Y301700D02*
Y309300D01*
X286500Y301700D02*
Y309300D01*
X287000Y301700D02*
Y309300D01*
X287500Y301700D02*
Y309300D01*
X288000Y301700D02*
Y309300D01*
X288500Y301700D02*
Y309300D01*
X289000Y301700D02*
Y309300D01*
X289500Y301700D02*
Y309300D01*
X290000Y301700D02*
Y309300D01*
X290500Y301700D02*
Y309300D01*
X290800Y215700D02*
Y223300D01*
X277200*
Y215700*
X290800*
X277500D02*
Y223300D01*
X278000Y215700D02*
Y223300D01*
X278500Y215700D02*
Y223300D01*
X279000Y215700D02*
Y223300D01*
X279500Y215700D02*
Y223300D01*
X280000Y215700D02*
Y223300D01*
X280500Y215700D02*
Y223300D01*
X281000Y215700D02*
Y223300D01*
X281500Y215700D02*
Y223300D01*
X282000Y215700D02*
Y223300D01*
X282500Y215700D02*
Y223300D01*
X283000Y215700D02*
Y223300D01*
X283500Y215700D02*
Y223300D01*
X284000Y215700D02*
Y223300D01*
X284500Y215700D02*
Y223300D01*
X285000Y215700D02*
Y223300D01*
X285500Y215700D02*
Y223300D01*
X286000Y215700D02*
Y223300D01*
X286500Y215700D02*
Y223300D01*
X287000Y215700D02*
Y223300D01*
X287500Y215700D02*
Y223300D01*
X288000Y215700D02*
Y223300D01*
X288500Y215700D02*
Y223300D01*
X289000Y215700D02*
Y223300D01*
X289500Y215700D02*
Y223300D01*
X290000Y215700D02*
Y223300D01*
X290500Y215700D02*
Y223300D01*
X428200Y234200D02*
X447800D01*
Y247800*
X428200*
Y234200*
X428500D02*
Y247800D01*
X429000Y234200D02*
Y247800D01*
X429500Y234200D02*
Y247800D01*
X430000Y234200D02*
Y247800D01*
X430500Y234200D02*
Y247800D01*
X431000Y234200D02*
Y247800D01*
X431500Y234200D02*
Y247800D01*
X432000Y234200D02*
Y247800D01*
X432500Y234200D02*
Y247800D01*
X433000Y234200D02*
Y247800D01*
X433500Y234200D02*
Y247800D01*
X434000Y234200D02*
Y247800D01*
X434500Y234200D02*
Y247800D01*
X435000Y234200D02*
Y247800D01*
X435500Y234200D02*
Y247800D01*
X436000Y234200D02*
Y247800D01*
X436500Y234200D02*
Y247800D01*
X437000Y234200D02*
Y247800D01*
X437500Y234200D02*
Y247800D01*
X438000Y234200D02*
Y247800D01*
X438500Y234200D02*
Y247800D01*
X439000Y234200D02*
Y247800D01*
X439500Y234200D02*
Y247800D01*
X440000Y234200D02*
Y247800D01*
X440500Y234200D02*
Y247800D01*
X441000Y234200D02*
Y247800D01*
X441500Y234200D02*
Y247800D01*
X442000Y234200D02*
Y247800D01*
X442500Y234200D02*
Y247800D01*
X443000Y234200D02*
Y247800D01*
X443500Y234200D02*
Y247800D01*
X444000Y234200D02*
Y247800D01*
X444500Y234200D02*
Y247800D01*
X445000Y234200D02*
Y247800D01*
X445500Y234200D02*
Y247800D01*
X446000Y234200D02*
Y247800D01*
X446500Y234200D02*
Y247800D01*
X447000Y234200D02*
Y247800D01*
X447500Y234200D02*
Y247800D01*
X353800Y253200D02*
Y272800D01*
X340200*
Y253200*
X353800*
X340500D02*
Y272800D01*
X341000Y253200D02*
Y272800D01*
X341500Y253200D02*
Y272800D01*
X342000Y253200D02*
Y272800D01*
X342500Y253200D02*
Y272800D01*
X343000Y253200D02*
Y272800D01*
X343500Y253200D02*
Y272800D01*
X344000Y253200D02*
Y272800D01*
X344500Y253200D02*
Y272800D01*
X345000Y253200D02*
Y272800D01*
X345500Y253200D02*
Y272800D01*
X346000Y253200D02*
Y272800D01*
X346500Y253200D02*
Y272800D01*
X347000Y253200D02*
Y272800D01*
X347500Y253200D02*
Y272800D01*
X348000Y253200D02*
Y272800D01*
X348500Y253200D02*
Y272800D01*
X349000Y253200D02*
Y272800D01*
X349500Y253200D02*
Y272800D01*
X350000Y253200D02*
Y272800D01*
X350500Y253200D02*
Y272800D01*
X351000Y253200D02*
Y272800D01*
X351500Y253200D02*
Y272800D01*
X352000Y253200D02*
Y272800D01*
X352500Y253200D02*
Y272800D01*
X353000Y253200D02*
Y272800D01*
X353500Y253200D02*
Y272800D01*
X307300Y225800D02*
X299700D01*
Y212200*
X307300*
Y225800*
X300000Y212200D02*
Y225800D01*
X300500Y212200D02*
Y225800D01*
X301000Y212200D02*
Y225800D01*
X301500Y212200D02*
Y225800D01*
X302000Y212200D02*
Y225800D01*
X302500Y212200D02*
Y225800D01*
X303000Y212200D02*
Y225800D01*
X303500Y212200D02*
Y225800D01*
X304000Y212200D02*
Y225800D01*
X304500Y212200D02*
Y225800D01*
X305000Y212200D02*
Y225800D01*
X305500Y212200D02*
Y225800D01*
X306000Y212200D02*
Y225800D01*
X306500Y212200D02*
Y225800D01*
X307000Y212200D02*
Y225800D01*
X307300Y247800D02*
X299700D01*
Y234200*
X307300*
Y247800*
X300000Y234200D02*
Y247800D01*
X300500Y234200D02*
Y247800D01*
X301000Y234200D02*
Y247800D01*
X301500Y234200D02*
Y247800D01*
X302000Y234200D02*
Y247800D01*
X302500Y234200D02*
Y247800D01*
X303000Y234200D02*
Y247800D01*
X303500Y234200D02*
Y247800D01*
X304000Y234200D02*
Y247800D01*
X304500Y234200D02*
Y247800D01*
X305000Y234200D02*
Y247800D01*
X305500Y234200D02*
Y247800D01*
X306000Y234200D02*
Y247800D01*
X306500Y234200D02*
Y247800D01*
X307000Y234200D02*
Y247800D01*
X100000Y500000D02*
X600000D01*
Y100000*
X100000*
Y500000*
G54D54*
X378650Y291350D02*
Y286650D01*
X363350*
Y291350*
X378650*
X363350Y289000D02*
X378650D01*
X364000Y286650D02*
Y291350D01*
X367000Y286650D02*
Y291350D01*
X370000Y286650D02*
Y291350D01*
X373000Y286650D02*
Y291350D01*
X376000Y286650D02*
Y291350D01*
X378650Y304350D02*
Y299650D01*
X363350*
Y304350*
X378650*
X363350Y301000D02*
X378650D01*
X363350Y304000D02*
X378650D01*
X364000Y299650D02*
Y304350D01*
X367000Y299650D02*
Y304350D01*
X370000Y299650D02*
Y304350D01*
X373000Y299650D02*
Y304350D01*
X376000Y299650D02*
Y304350D01*
G54D73*
X385500Y237000D03*
X402500D03*
X385500Y265000D03*
X402500D03*
Y280000D03*
X385500D03*
G54D74*
X358900Y282600D03*
X345900D03*
X410500Y241000D03*
X423500D03*
X363500Y249000D03*
X376500D03*
X129500Y423000D03*
X116500D03*
G54D75*
X438000Y305000D03*
Y297000D03*
X333500Y214000D03*
Y222000D03*
X346000Y325000D03*
Y317000D03*
X584000Y316000D03*
Y324000D03*
X340000Y325000D03*
Y317000D03*
X418500Y276000D03*
Y268000D03*
G54D76*
X434000Y276500D03*
Y263500D03*
X442000Y276500D03*
Y263500D03*
X366000Y241500D03*
Y228500D03*
X374000Y241500D03*
Y228500D03*
X412000Y261500D03*
Y248500D03*
X420000Y261500D03*
Y248500D03*
G54D77*
X419000Y285000D03*
X413000D03*
X321500Y302500D03*
X327500D03*
X321500Y293500D03*
X327500D03*
Y298000D03*
X321500D03*
X345500Y276500D03*
X351500D03*
X413000Y289000D03*
X419000D03*
X321500D03*
X327500D03*
X419000Y293000D03*
X413000D03*
X321500Y307000D03*
X327500D03*
X321500Y284500D03*
X327500D03*
X417500Y311000D03*
X423500D03*
X199000Y456000D03*
X193000D03*
X199000Y452000D03*
X193000D03*
X199000Y396000D03*
X193000D03*
X199000Y392000D03*
X193000D03*
G54D78*
X338000Y286500D03*
X334000D03*
G54D79*
X219500Y157000D03*
X532000Y441000D03*
G54D80*
X199500Y157000D03*
X175000Y436500D03*
Y386500D03*
X162500Y436500D03*
X167000Y386500D03*
X352000Y336000D03*
X522000Y436000D03*
X532000Y431000D03*
X522000Y426000D03*
X532000Y421000D03*
X522000Y416000D03*
X532000Y411000D03*
X522000Y406000D03*
G54D81*
X348000Y233000D03*
X336000D03*
X348000Y245000D03*
X336000D03*
G54D82*
X434000Y311000D03*
X442000D03*
X366000Y329500D03*
X358000D03*
G54D83*
X193000Y463000D03*
Y481000D03*
G54D84*
X414000Y297000D03*
Y307000D03*
X412000Y277000D03*
Y267000D03*
G54D85*
X362500Y276500D03*
X372500D03*
G54D86*
X330750Y315000D03*
X317250D03*
X352250Y221500D03*
X338750D03*
X314250Y217000D03*
X327750D03*
X367250Y311500D03*
X380750D03*
G54D87*
X327000Y224250D03*
Y237750D03*
X317000Y224250D03*
Y237750D03*
G54D88*
X584000Y308000D03*
Y296000D03*
G54D89*
X238000Y114000D03*
X182000D03*
G54D90*
X545000Y454000D03*
Y393000D03*
G54D91*
X557000Y446000D03*
Y401000D03*
X142000Y399000D03*
Y449000D03*
G54D93*
X280100Y234500D03*
X282700D03*
X285300D03*
X287900D03*
Y247500D03*
X285300D03*
X282700D03*
X280100D03*
Y276500D03*
X282700D03*
X285300D03*
X287900D03*
Y289500D03*
X285300D03*
X282700D03*
X280100D03*
Y318500D03*
X282700D03*
X285300D03*
X287900D03*
Y331500D03*
X285300D03*
X282700D03*
X280100D03*
Y255500D03*
X282700D03*
X285300D03*
X287900D03*
Y268500D03*
X285300D03*
X282700D03*
X280100D03*
Y297500D03*
X282700D03*
X285300D03*
X287900D03*
Y310500D03*
X285300D03*
X282700D03*
X280100D03*
X287900Y227500D03*
X285300D03*
X282700D03*
X280100D03*
Y214500D03*
X282700D03*
X285300D03*
X287900D03*
G54D94*
X295500Y286900D03*
Y284300D03*
Y281700D03*
Y279100D03*
X308500D03*
Y281700D03*
Y284300D03*
Y286900D03*
X295500Y328900D03*
Y326300D03*
Y323700D03*
Y321100D03*
X308500D03*
Y323700D03*
Y326300D03*
Y328900D03*
X295500Y265900D03*
Y263300D03*
Y260700D03*
Y258100D03*
X308500D03*
Y260700D03*
Y263300D03*
Y265900D03*
X295500Y307900D03*
Y305300D03*
Y302700D03*
Y300100D03*
X308500D03*
Y302700D03*
Y305300D03*
Y307900D03*
X295500Y222900D03*
Y220300D03*
Y217700D03*
Y215100D03*
X308500D03*
Y217700D03*
Y220300D03*
Y222900D03*
X295500Y244900D03*
Y242300D03*
Y239700D03*
Y237100D03*
X308500D03*
Y239700D03*
Y242300D03*
Y244900D03*
G54D95*
X445500Y255000D03*
X440500D03*
X435500D03*
X430500D03*
Y233000D03*
X435500D03*
X440500D03*
X445500D03*
G54D96*
X333000Y270500D03*
Y265500D03*
Y260500D03*
Y255500D03*
X355000D03*
Y260500D03*
Y265500D03*
Y270500D03*
G54D97*
X424350Y292750D03*
Y285250D03*
X424250Y299350D03*
X431750D03*
X365750Y323150D03*
X358250D03*
G54D98*
X432350Y289000D03*
G54D99*
X428000Y307350D03*
X362000Y315150D03*
G54D100*
X318500Y325000D03*
Y331000D03*
X386500Y311500D03*
Y305500D03*
X322500Y325000D03*
Y331000D03*
G54D101*
X338000Y283000D03*
Y279000D03*
X334000Y283000D03*
Y279000D03*
X326500Y330000D03*
Y326000D03*
G54D102*
X350890Y306480D03*
X348921D03*
X346953D03*
X344984D03*
X343016D03*
X341047D03*
X339079D03*
X337110D03*
Y291520D03*
X339079D03*
X341047D03*
X343016D03*
X344984D03*
X346953D03*
X348921D03*
X350890D03*
G54D103*
X334551Y303921D03*
Y301953D03*
Y299984D03*
Y298016D03*
Y296047D03*
Y294079D03*
X353449D03*
Y296047D03*
Y298016D03*
Y299984D03*
Y301953D03*
Y303921D03*
G54D104*
X344000Y299000D03*
G54D106*
X582000Y482000D03*
Y118000D03*
X118000D03*
Y482000D03*
G54D107*
X116000Y260000D03*
X584000Y154000D03*
X336000Y114000D03*
X584000Y356000D03*
Y256000D03*
X116000Y196000D03*
G54D108*
X202000Y444000D03*
Y436000D03*
Y428000D03*
Y420000D03*
Y412000D03*
Y404000D03*
X212000Y448000D03*
Y440000D03*
Y432000D03*
Y416000D03*
Y408000D03*
Y400000D03*
X174000Y446000D03*
Y402000D03*
X168000Y446000D03*
Y402000D03*
G54D109*
X222000Y448100D03*
Y438100D03*
Y409900D03*
Y399900D03*
G54D132*
X322000Y265500D03*
Y246500D03*
G54D133*
X383098Y298520D03*
Y293480D03*
X407902D03*
Y298520D03*
X0Y0D02*
M02*
