*
*
G04 PADS VX.1.1 Build Number: 678707 generated Gerber (RS-274-X) file*
G04 PC Version=2.1*
*
%IN "DC2047A REV03 (6-27-201"*%
*
%MOIN*%
*
%FSLAX35Y35*%
*
*
*
*
G04 PC Standard Apertures*
*
*
G04 Thermal Relief Aperture macro.*
%AMTER*
1,1,$1,0,0*
1,0,$1-$2,0,0*
21,0,$3,$4,0,0,45*
21,0,$3,$4,0,0,135*
%
*
*
G04 Annular Aperture macro.*
%AMANN*
1,1,$1,0,0*
1,0,$2,0,0*
%
*
*
G04 Odd Aperture macro.*
%AMODD*
1,1,$1,0,0*
1,0,$1-0.005,0,0*
%
*
*
G04 PC Custom Aperture Macros*
*
*
*
*
*
*
G04 PC Aperture Table*
*
%ADD010C,0.001*%
%ADD017R,0.06X0.06*%
%ADD018C,0.06*%
%ADD027C,0.15*%
%ADD028C,0.082*%
%ADD029C,0.128*%
%ADD044C,0.28*%
%ADD045O,0.171X0.17*%
%ADD046C,0.05*%
%ADD047C,0.055*%
%ADD048C,0.076*%
%ADD049C,0.07*%
%ADD050C,0.01*%
%ADD051C,0.012*%
%ADD052C,0.008*%
%ADD053C,0.02*%
*
*
*
*
G04 PC Circuitry*
G04 Layer Name DC2047A REV03 (6-27-201 - circuitry*
%LPD*%
*
*
G04 PC Custom Flashes*
G04 Layer Name DC2047A REV03 (6-27-201 - flashes*
%LPD*%
*
*
G04 PC Circuitry*
G04 Layer Name DC2047A REV03 (6-27-201 - circuitry*
%LPD*%
*
G54D10*
G54D17*
G01X219500Y157000D03*
G54D18*
X199500D03*
X532000Y441000D03*
X522000Y436000D03*
X532000Y431000D03*
X522000Y426000D03*
X532000Y421000D03*
X522000Y416000D03*
X532000Y411000D03*
X522000Y406000D03*
G54D27*
X238000Y114000D03*
X182000D03*
G54D28*
X545000Y454000D03*
Y393000D03*
G54D29*
X557000Y446000D03*
Y401000D03*
X142000Y399000D03*
Y449000D03*
G54D44*
X582000Y482000D03*
Y118000D03*
X118000D03*
Y482000D03*
G54D45*
X116000Y260000D03*
X584000Y154000D03*
X336000Y114000D03*
X584000Y356000D03*
Y256000D03*
X116000Y196000D03*
G54D46*
X202000Y444000D03*
Y436000D03*
Y428000D03*
Y420000D03*
Y412000D03*
Y404000D03*
X212000Y448000D03*
Y440000D03*
Y432000D03*
Y416000D03*
Y408000D03*
Y400000D03*
X174000Y446000D03*
Y402000D03*
X168000Y446000D03*
Y402000D03*
G54D47*
X222000Y448100D03*
Y438100D03*
Y409900D03*
Y399900D03*
G54D48*
X129500Y392250D03*
Y455750D03*
G54D49*
X555800Y485400D03*
X144200Y114600D03*
G54D50*
X258500Y274500D02*
Y327000D01*
X260000Y329000*
X261000Y286000D02*
Y262000D01*
X265500Y257500*
X269000*
X297000Y274500D02*
X298000Y273500D01*
Y252000*
X321500Y281000D02*
X340500D01*
X343900Y277600*
X359100*
X360500Y279000*
X385000*
X385500Y279500*
X341500Y285500D02*
X359000D01*
X365000Y291500*
X376500*
X379500Y294500*
X342600Y309400D02*
X346200Y313000D01*
X352000*
X355000Y316000*
Y336500*
X357000Y338500*
X382500*
X386500Y334500*
Y315000*
X290500Y318000D02*
X293000Y315500D01*
Y255000*
X370500Y325500D02*
X373500D01*
X379500Y319500*
Y294500*
X267500Y292000D02*
G75*
G03X267500I-2500J0D01*
G01X333500Y315000D02*
G03X333500I-2500J0D01*
G01X319500D02*
G03X319500I-2500J0D01*
G01X321000Y322000D02*
G03X321000I-2500J0D01*
G01X306500Y258000D02*
G03X306500I-2500J0D01*
G01Y266000D02*
G03X306500I-2500J0D01*
G01Y280000D02*
G03X306500I-2500J0D01*
G01Y287000D02*
G03X306500I-2500J0D01*
G01X308500Y295000D02*
G03X308500I-2500J0D01*
G01X336000Y252500D02*
G03X336000I-2500J0D01*
G01X149700Y114600D02*
G03X149700I-5500J0D01*
G01X329500Y238000D02*
G03X329500I-2500J0D01*
G01X564700Y401000D02*
G03X564700I-7700J0D01*
G01Y446000D02*
G03X564700I-7700J0D01*
G01X561300Y485400D02*
G03X561300I-5500J0D01*
G01X430000Y257000D02*
G03X430000I-2500J0D01*
G01X420000Y314000D02*
G03X420000I-2500J0D01*
G01X410500Y311000D02*
G03X410500I-2500J0D01*
G01X134800Y392250D02*
G03X134800I-5300J0D01*
G01Y455750D02*
G03X134800I-5300J0D01*
G01X467500Y209000D02*
Y247000D01*
G03X467000Y247500I-500J0*
G01X409400*
G03X408900Y247000I0J-500*
G01Y209000*
G03X409400Y208500I500J0*
G01X467000*
G03X467500Y209000I0J500*
G01X388500D02*
Y244000D01*
G03X388000Y244500I-500J0*
G01X381500*
G03X381100Y244300I0J-500*
G01X380700Y243900D02*
G03X381100Y244300I-1200J1600D01*
G01X380700Y243900D02*
G03X380500Y243500I300J-400D01*
G01Y237500*
X361500*
Y243000*
G03X361000Y243500I-500J-0*
G01X360500*
X360492D02*
G03X360500I8J2000D01*
G01X360492D02*
X360490D01*
X358500*
Y245490*
Y245492*
Y245500D02*
G03Y245492I2000J0D01*
G01Y245500D02*
Y250000D01*
G03X358000Y250500I-500J-0*
G01X343000*
G03X342500Y250000I0J-500*
G01Y209000*
G03X343000Y208500I500J0*
G01X388000*
G03X388500Y209000I0J500*
G01X295500Y317000D02*
Y331000D01*
G03X295000Y331500I-500J0*
G01X272011*
G03X272000I0J-500*
X271989I-11J-500*
G01X269011*
G03X269000I0J-500*
X268989I-11J-500*
G01X262236*
G03X261863Y330667I0J-500*
G01X260838Y326644D02*
G03X261863Y330667I-838J2356D01*
G01X260838Y326644D02*
G03X260605Y326473I167J-471D01*
G01X260600Y326467*
G03X260500Y326167I400J-300*
G01Y309828*
G03X261167Y309357I500J0*
G01Y304643D02*
G03Y309357I833J2357D01*
G01Y304643D02*
G03X260500Y304172I-167J-471D01*
G01Y289000*
G03X261000Y288500I500J0*
G01X263352Y285152D02*
G03X261000Y288500I-2352J848D01*
G01X263352Y285152D02*
G03X263769Y284486I470J-169D01*
G01X263500Y279500D02*
G03X263769Y284486I0J2500D01*
G01X263500Y279500D02*
G03X263000Y279000I0J-500D01*
G01Y263036*
G03X263146Y262682I500J-0*
G01X266182Y259646*
G03X266536Y259500I354J354*
G01X267342*
G03X267618Y259583I-0J500*
G01X268917Y259999D02*
G03X267618Y259583I83J-2499D01*
G01X268917Y259999D02*
G03X269334Y260249I-16J499D01*
G01X271583Y256501D02*
G03X269334Y260249I-83J2499D01*
G01X271583Y256501D02*
G03X271166Y256251I16J-499D01*
G01X267618Y255417D02*
G03X271166Y256251I1382J2083D01*
G01X267618Y255417D02*
G03X267342Y255500I-276J-417D01*
G01X265500*
X264086Y256086D02*
G03X265500Y255500I1414J1414D01*
G01X264086Y256086D02*
X259586Y260586D01*
X259000Y262000D02*
G03X259586Y260586I2000J0D01*
G01X259000Y262000D02*
Y265984D01*
G03Y266000I-500J0*
Y266016I-500J16*
G01Y268000*
G03X258500Y268500I-500J-0*
G01X257755Y268613D02*
G03X258500Y268500I745J2387D01*
G01X257755Y268613D02*
G03X257255Y267780I-149J-477D01*
G01X258000Y266013D02*
G03X257255Y267780I-2500J-13D01*
G01X258000Y266013D02*
G03Y266000I500J3D01*
Y265987I500J-16*
G01X256245Y268387D02*
G03X258000Y265987I-745J-2387D01*
G01X256245Y268387D02*
G03X256745Y269220I149J477D01*
G01X256469Y272458D02*
G03X256745Y269220I2031J-1458D01*
G01X256469Y272458D02*
G03Y273042I-406J292D01*
G01X256417Y275882D02*
G03X256469Y273042I2083J-1382D01*
G01X256417Y275882D02*
G03X256500Y276158I-417J276D01*
G01Y327000*
X256900Y328200D02*
G03X256500Y327000I1600J-1200D01*
G01X256900Y328200D02*
X257405Y328873D01*
G03X257504Y329144I-400J300*
G01X258137Y330667D02*
G03X257504Y329144I1863J-1667D01*
G01X258137Y330667D02*
G03X257764Y331500I-373J333D01*
G01X225000*
G03X224500Y331000I0J-500*
G01Y217500*
X108571*
G03X108076Y216930I-0J-500*
G01X105100Y214132D02*
G03X108076Y216930I500J2449D01*
G01X105100Y214132D02*
G03X104500Y213642I-100J-490D01*
G01Y209521*
G03X105100Y209031I500J-0*
G01Y204132D02*
G03Y209031I500J2449D01*
G01Y204132D02*
G03X104500Y203642I-100J-490D01*
G01Y185521*
G03X105100Y185031I500J-0*
G01X107079Y184597D02*
G03X105100Y185031I-1479J-2016D01*
G01X107079Y184597D02*
G03X107375Y184500I296J403D01*
G01X295000*
G03X295500Y185000I0J500*
G01Y209764*
G03X294667Y210137I-500J-0*
G01Y213863D02*
G03Y210137I-1667J-1863D01*
G01Y213863D02*
G03X295500Y214236I333J373D01*
G01Y230172*
G03X295167Y230643I-500J-0*
G01X293917Y231618D02*
G03X295167Y230643I2083J1382D01*
G01X293917Y231618D02*
G03X293083I-417J-276D01*
G01Y234382D02*
G03Y231618I-2083J-1382D01*
G01Y234382D02*
G03X293917I417J276D01*
G01X295167Y235357D02*
G03X293917Y234382I833J-2357D01*
G01X295167Y235357D02*
G03X295500Y235828I-167J471D01*
G01Y251989*
Y251991*
Y252009D02*
G03Y251991I2500J-9D01*
G01Y252009D02*
Y252011D01*
Y252109*
G03X295133Y252591I-500J-0*
G01X294633Y252789D02*
G03X295133Y252591I1167J2211D01*
G01X294633Y252789D02*
G03X294167I-233J-442D01*
G01X292104Y252666D02*
G03X294167Y252789I896J2334D01*
G01X292104Y252666D02*
G03X291604Y252583I-179J-467D01*
G01X290417Y256965D02*
G03X291604Y252583I-417J-2465D01*
G01X290417Y256965D02*
G03X291000Y257458I83J493D01*
G01Y272015*
G03X290550Y272513I-500J0*
G01Y277487D02*
G03Y272513I250J-2487D01*
G01Y277487D02*
G03X291000Y277985I-50J498D01*
G01Y293802*
G03X290517Y294301I-500J-0*
G01Y299299D02*
G03Y294301I83J-2499D01*
G01Y299299D02*
G03X291000Y299798I-17J499D01*
G01Y312000*
G03X290500Y312500I-500J-0*
G01X288335Y316250D02*
G03X290500Y312500I2165J-1250D01*
G01X288335Y316250D02*
G03Y316750I-433J250D01*
G01X292950Y318496D02*
G03X288335Y316750I-2450J-496D01*
G01X292950Y318496D02*
G03X293087Y318242I490J99D01*
G01X294414Y316914*
X294600Y316700D02*
G03X294414Y316914I-1600J-1200D01*
G01X294600Y316700D02*
G03X295500Y317000I400J300D01*
G01X349500Y321236D02*
Y333000D01*
G03X349000Y333500I-500J0*
G01X321098*
G03X320665Y333250I0J-500*
G01X316335D02*
G03X320665I2165J1250D01*
G01X316335D02*
G03X315902Y333500I-433J-250D01*
G01X299000*
G03X298500Y333000I0J-500*
G01Y322236*
G03X299333Y321863I500J0*
G01X302667D02*
G03X299333I-1667J-1863D01*
G01X302667D02*
G03X303333I333J373D01*
G01Y318137D02*
G03Y321863I1667J1863D01*
G01Y318137D02*
G03X302667I-333J-373D01*
G01X299333D02*
G03X302667I1667J1863D01*
G01X299333D02*
G03X298500Y317764I-333J-373D01*
G01Y298000*
G03X299000Y297500I500J0*
G01Y292500D02*
G03Y297500I0J2500D01*
G01Y292500D02*
G03X298500Y292000I0J-500D01*
G01Y276736*
G03X298667Y276363I500J0*
G01X299454Y274975D02*
G03X298667Y276363I-2454J-475D01*
G01X299454Y274975D02*
G03X299556Y274756I491J95D01*
G01X300000Y273500D02*
G03X299556Y274756I-2000J0D01*
G01X300000Y273500D02*
Y253658D01*
G03X300083Y253382I500J0*
G01X298833Y249643D02*
G03X300083Y253382I-833J2357D01*
G01X298833Y249643D02*
G03X298500Y249172I167J-471D01*
G01Y233011*
Y233009*
Y232991D02*
G03Y233009I-2500J9D01*
G01Y232991D02*
Y232989D01*
Y182000*
X207000*
G03X206500Y181500I0J-500*
G01Y141500*
G03X207000Y141000I500J0*
G01X319000*
G03X319500Y141500I0J500*
G01Y235764*
G03X318667Y236137I-500J-0*
G01X315855Y240222D02*
G03X318667Y236137I1145J-2222D01*
G01X315855Y240222D02*
G03X316021Y240972I-230J445D01*
G01X315835Y243750D02*
G03X316021Y240972I2165J-1250D01*
G01X315835Y243750D02*
G03Y244250I-433J250D01*
G01X318000Y248000D02*
G03X315835Y244250I0J-2500D01*
G01X318000Y248000D02*
G03X318500Y248500I-0J500D01*
G01X319333Y250363D02*
G03X318500Y248500I1667J-1863D01*
G01X319333Y250363D02*
G03X319500Y250736I-333J373D01*
G01Y279342*
G03X319417Y279618I-500J-0*
G01Y282382D02*
G03Y279618I2083J-1382D01*
G01Y282382D02*
G03X319500Y282658I-417J276D01*
G01Y286402*
G03X318750Y286835I-500J-0*
G01X315846Y290875D02*
G03X318750Y286835I1654J-1875D01*
G01X315846Y290875D02*
G03Y291625I-330J375D01*
G01Y295375D02*
G03Y291625I1654J-1875D01*
G01Y295375D02*
G03Y296125I-330J375D01*
G01Y299875D02*
G03Y296125I1654J-1875D01*
G01Y299875D02*
G03Y300625I-330J375D01*
G01Y304375D02*
G03Y300625I1654J-1875D01*
G01Y304375D02*
G03Y305125I-330J375D01*
G01X319303Y308732D02*
G03X315846Y305125I-1803J-1732D01*
G01X319303Y308732D02*
G03X320017Y308724I361J346D01*
G01X321793Y310500*
X340062*
G03X340485Y310733I0J500*
G01X342020Y311832D02*
G03X340485Y310733I580J-2432D01*
G01X342020Y311832D02*
G03X342257Y311965I-116J486D01*
G01X342257D02*
X348402Y318109D01*
G03X348540Y318552I-354J354*
G01X349333Y320863D02*
G03X348540Y318552I1667J-1863D01*
G01X349333Y320863D02*
G03X349500Y321236I-333J373D01*
G01X379500Y246500D02*
Y273000D01*
G03X379000Y273500I-500J0*
G01X341011*
X341009*
X341000D02*
G03X341009I0J2500D01*
G01X341000D02*
G03X340500Y273000I0J-500D01*
G01Y253000*
G03X341000Y252500I500J0*
G01X342490*
X342492*
X342500D02*
G03X342492I0J-2000D01*
G01X342500D02*
X358500D01*
X358508D02*
G03X358500I-8J-2000D01*
G01X358508D02*
X358510D01*
X360500*
Y250510*
Y250508*
Y250500D02*
G03Y250508I-2000J0D01*
G01Y250500D02*
Y246000D01*
G03X361000Y245500I500J0*
G01X361500*
X361508D02*
G03X361500I-8J-2000D01*
G01X361508D02*
X361510D01*
X378500*
G03X378900Y245700I-0J500*
G01X379300Y246100D02*
G03X378900Y245700I1200J-1600D01*
G01X379300Y246100D02*
G03X379500Y246500I-300J400D01*
G01X405100Y271538D02*
Y285000D01*
G03X404600Y285500I-500J0*
G01X400000*
G03X399500Y285000I0J-500*
G01Y269011*
G03Y269000I500J0*
Y268989I500J-11*
G01Y261511*
G03Y261500I500J0*
Y261489I500J-11*
G01Y253639*
G03X400100Y253149I500J-0*
G01Y248250D02*
G03Y253149I500J2449D01*
G01Y248250D02*
G03X399500Y247760I-100J-490D01*
G01Y233000*
G03X400000Y232500I500J0*
G01X404600*
G03X405100Y233000I-0J500*
G01Y258962*
G03X404333Y259385I-500J0*
G01X400500Y261491D02*
G03X404333Y259385I2500J9D01*
G01X400500Y261491D02*
G03Y261500I-500J-2D01*
Y261509I-500J11*
G01X404333Y263615D02*
G03X400500Y261509I-1333J-2115D01*
G01X404333Y263615D02*
G03X405100Y264038I267J423D01*
G01Y266462*
G03X404333Y266885I-500J0*
G01X400500Y268991D02*
G03X404333Y266885I2500J9D01*
G01X400500Y268991D02*
G03Y269000I-500J-2D01*
Y269009I-500J11*
G01X404333Y271115D02*
G03X400500Y269009I-1333J-2115D01*
G01X404333Y271115D02*
G03X405100Y271538I267J423D01*
G01X388500Y105000D02*
Y206000D01*
G03X388000Y206500I-500J-0*
G01X342500*
X340500Y208500D02*
G03X342500Y206500I2000J0D01*
G01X340500Y208500D02*
Y250050D01*
G03X340100Y250540I-500J0*
G01X338500Y252500D02*
G03X340100Y250540I2000J0D01*
G01X338500Y252500D02*
Y273500D01*
X338741Y274452D02*
G03X338500Y273500I1759J-952D01*
G01X338741Y274452D02*
G03X338751Y274908I-440J238D01*
G01X339618Y278083D02*
G03X338751Y274908I1382J-2083D01*
G01X339618Y278083D02*
G03X339342Y279000I-276J417D01*
G01X323158*
G03X322882Y278917I0J-500*
G01X321917Y278535D02*
G03X322882Y278917I-417J2465D01*
G01X321917Y278535D02*
G03X321500Y278042I83J-493D01*
G01Y218658*
G03X322417Y218382I500J0*
G01Y215618D02*
G03Y218382I2083J1382D01*
G01Y215618D02*
G03X321500Y215342I-417J-276D01*
G01Y141000*
X319500Y139000D02*
G03X321500Y141000I0J2000D01*
G01X319500Y139000D02*
X206500D01*
X204500Y141000D02*
G03X206500Y139000I2000J0D01*
G01X204500Y141000D02*
Y182000D01*
G03X204000Y182500I-500J-0*
G01X105000*
G03X104500Y182000I0J-500*
G01Y128954*
G03X105382Y128632I500J0*
G01X128632Y105382D02*
G03X105382Y128632I-10632J12618D01*
G01X128632Y105382D02*
G03X128954Y104500I322J-382D01*
G01X179657*
G03X179783Y105484I-0J500*
G01X184217D02*
G03X179783I-2217J8516D01*
G01X184217D02*
G03X184343Y104500I126J-484D01*
G01X235657*
G03X235783Y105484I-0J500*
G01X240217D02*
G03X235783I-2217J8516D01*
G01X240217D02*
G03X240343Y104500I126J-484D01*
G01X388000*
G03X388500Y105000I0J500*
G01Y247000D02*
Y277842D01*
G03X387583Y278118I-500J-0*
G01X385282Y277009D02*
G03X387583Y278118I218J2491D01*
G01X385282Y277009D02*
G03X385191I-43J-498D01*
G01X385000Y277000D02*
G03X385191Y277009I0J2000D01*
G01X385000Y277000D02*
X361536D01*
G03X361182Y276854I-0J-500*
G01X360682Y276354*
G03X361036Y275500I354J-354*
G01X379500*
X381500Y273500D02*
G03X379500Y275500I-2000J0D01*
G01X381500Y273500D02*
Y247000D01*
G03X382000Y246500I500J0*
G01X388000*
G03X388500Y247000I0J500*
G01Y281158D02*
Y312402D01*
G03X387750Y312835I-500J-0*
G01X384417Y316382D02*
G03X387750Y312835I2083J-1382D01*
G01X384417Y316382D02*
G03X384500Y316658I-417J276D01*
G01Y333464*
G03X384354Y333818I-500J0*
G01X381818Y336354*
G03X381464Y336500I-354J-354*
G01X358036*
G03X357682Y336354I-0J-500*
G01X357146Y335818*
G03X357000Y335464I354J-354*
G01Y316000*
X356414Y314586D02*
G03X357000Y316000I-1414J1414D01*
G01X356414Y314586D02*
X353414Y311586D01*
X352082Y311002D02*
G03X353414Y311586I-82J1998D01*
G01X352082Y311002D02*
G03X351652Y310285I21J-500D01*
G01X351885Y309472D02*
G03X351652Y310285I-2485J-272D01*
G01X351885Y309472D02*
G03X352652Y309105I497J54D01*
G01X351515Y306728D02*
G03X352652Y309105I2485J272D01*
G01X351515Y306728D02*
G03X350748Y307095I-497J-54D01*
G01X346936Y309623D02*
G03X350748Y307095I2464J-423D01*
G01X346936Y309623D02*
G03X346090Y310061I-493J85D01*
G01X345187Y309158*
G03X345050Y308904I353J-353*
G01X340389Y308233D02*
G03X345050Y308904I2211J1167D01*
G01X340389Y308233D02*
G03X339947Y308500I-442J-233D01*
G01X336828*
G03X336357Y307833I0J-500*
G01X331643D02*
G03X336357I2357J-833D01*
G01X331643D02*
G03X331172Y308500I-471J167D01*
G01X322828*
G03X322475Y308354I0J-500*
G01X321646Y307525*
G03X321500Y307172I354J-353*
G01Y283958*
G03X321917Y283465I500J0*
G01X322882Y283083D02*
G03X321917Y283465I-1382J-2083D01*
G01X322882Y283083D02*
G03X323158Y283000I276J417D01*
G01X339264*
G03X339637Y283833I-0J500*
G01X342882Y287583D02*
G03X339637Y283833I-1382J-2083D01*
G01X342882Y287583D02*
G03X343158Y287500I276J417D01*
G01X357964*
G03X358318Y287646I0J500*
G01X361359Y290687*
G03X361088Y291534I-354J354*
G01X359335Y295250D02*
G03X361088Y291534I2165J-1250D01*
G01X359335Y295250D02*
G03Y295750I-433J250D01*
G01X359323Y295771D02*
G03X359335Y295750I2177J1229D01*
G01X359323Y295771D02*
G03X358823Y296021I-435J-246D01*
G01X356001Y298424D02*
G03X358823Y296021I2499J76D01*
G01X356001Y298424D02*
G03X355684Y298874I-500J-16D01*
G01X359099Y301276D02*
G03X355684Y298874I-2499J-76D01*
G01X359099Y301276D02*
G03X359416Y300826I500J16D01*
G01X360677Y299729D02*
G03X359416Y300826I-2177J-1229D01*
G01X360677Y299729D02*
G03X361177Y299479I435J246D01*
G01X363978Y296667D02*
G03X361177Y299479I-2478J333D01*
G01X363978Y296667D02*
G03X364473Y296100I495J-67D01*
G01X374900*
G03X375400Y296600I-0J500*
G01Y317423*
G03X375254Y317777I-500J0*
G01X372277Y320754*
G03X371923Y320900I-354J-354*
G01X367497*
G03X367247Y320833I-0J-500*
G01Y325167D02*
G03Y320833I-1247J-2167D01*
G01Y325167D02*
G03X367497Y325100I250J433D01*
G01X367502*
G03X368001Y325583I-0J500*
G01X368637Y327167D02*
G03X368001Y325583I1863J-1667D01*
G01X368637Y327167D02*
G03Y327833I-373J333D01*
G01X372665Y328250D02*
G03X368637Y327833I-2165J1250D01*
G01X372665Y328250D02*
G03X373098Y327500I433J-250D01*
G01X373500*
X374914Y326914D02*
G03X373500Y327500I-1414J-1414D01*
G01X374914Y326914D02*
X380914Y320914D01*
X381500Y319500D02*
G03X380914Y320914I-2000J0D01*
G01X381500Y319500D02*
Y294500D01*
X380914Y293086D02*
G03X381500Y294500I-1414J1414D01*
G01X380914Y293086D02*
X377914Y290086D01*
X376500Y289500D02*
G03X377914Y290086I0J2000D01*
G01X376500Y289500D02*
X366036D01*
G03X365682Y289354I-0J-500*
G01X360414Y284086*
X359000Y283500D02*
G03X360414Y284086I0J2000D01*
G01X359000Y283500D02*
X343158D01*
G03X342882Y283417I0J-500*
G01X342248Y283115D02*
G03X342882Y283417I-748J2385D01*
G01X342248Y283115D02*
G03X342044Y282284I150J-477D01*
G01X344582Y279746*
G03X344936Y279600I354J354*
G01X358064*
G03X358418Y279746I0J500*
G01X359086Y280414*
X360500Y281000D02*
G03X359086Y280414I0J-2000D01*
G01X360500Y281000D02*
X366402D01*
G03X366835Y281750I-0J500*
G01X371165D02*
G03X366835I-2165J1250D01*
G01X371165D02*
G03X371598Y281000I433J-250D01*
G01X383264*
G03X383637Y281167I-0J500*
G01X387583Y280882D02*
G03X383637Y281167I-2083J-1382D01*
G01X387583Y280882D02*
G03X388500Y281158I417J276D01*
G01Y336536D02*
Y353000D01*
G03X388000Y353500I-500J0*
G01X269011*
G03X269000I0J-500*
X268989I-11J-500*
G01X261011*
G03X261000I0J-500*
X260989I-11J-500*
G01X105000*
G03X104500Y353000I0J-500*
G01Y220000*
G03X105000Y219500I500J0*
G01X222000*
G03X222500Y220000I-0J500*
G01Y331500*
X224500Y333500D02*
G03X222500Y331500I0J-2000D01*
G01X224500Y333500D02*
X295500D01*
X295931Y333453D02*
G03X295500Y333500I-431J-1953D01*
G01X295931Y333453D02*
G03X296531Y333853I108J488D01*
G01X298500Y335500D02*
G03X296531Y333853I0J-2000D01*
G01X298500Y335500D02*
X315902D01*
G03X316335Y335750I-0J500*
G01X320665D02*
G03X316335I-2165J-1250D01*
G01X320665D02*
G03X321098Y335500I433J250D01*
G01X349500*
X351500Y333500D02*
G03X349500Y335500I-2000J0D01*
G01X351500Y333500D02*
Y321828D01*
G03X351833Y321357I500J0*
G01X352250Y321165D02*
G03X351833Y321357I-1250J-2165D01*
G01X352250Y321165D02*
G03X353000Y321598I250J433D01*
G01Y336500*
X353586Y337914D02*
G03X353000Y336500I1414J-1414D01*
G01X353586Y337914D02*
X355586Y339914D01*
X357000Y340500D02*
G03X355586Y339914I0J-2000D01*
G01X357000Y340500D02*
X382500D01*
X383914Y339914D02*
G03X382500Y340500I-1414J-1414D01*
G01X383914Y339914D02*
X387646Y336182D01*
G03X388500Y336536I354J354*
G01X595500Y128954D02*
Y471046D01*
G03X594618Y471368I-500J-0*
G01X571368Y494618D02*
G03X594618Y471368I10632J-12618D01*
G01X571368Y494618D02*
G03X571046Y495500I-322J382D01*
G01X128954*
G03X128632Y494618I0J-500*
G01X105382Y471368D02*
G03X128632Y494618I12618J10632D01*
G01X105382Y471368D02*
G03X104500Y471046I-382J-322D01*
G01Y365500*
G03X105000Y365000I500J0*
G01X135500*
G03X136000Y365500I-0J500*
G01Y394001*
G03X135896Y394306I-500J-0*
G01Y403694D02*
G03Y394306I6104J-4694D01*
G01Y403694D02*
G03X136000Y403999I-396J305D01*
G01Y442707*
X136146Y443061D02*
G03X136000Y442707I354J-354D01*
G01X136146Y443061D02*
X136253Y443167D01*
G03X136271Y443855I-354J354*
G01X147145Y454729D02*
G03X136271Y443855I-5145J-5729D01*
G01X147145Y454729D02*
G03X147833Y454747I334J372D01*
G01X156939Y463854*
X157293Y464000D02*
G03X156939Y463854I-0J-500D01*
G01X157293Y464000D02*
X191000D01*
X191500Y463500D02*
G03X191000Y464000I-500J0D01*
G01X191500Y463500D02*
Y455843D01*
G03X192323Y455461I500J-0*
G01X201615Y458995D02*
G03X192323Y455461I385J-14995D01*
G01X201615Y458995D02*
G03X201937Y459124I-13J500D01*
G01X226492Y444129D02*
G03X201937Y459124I-14492J3871D01*
G01X226492Y444129D02*
G03Y443871I483J-129D01*
G01Y436129D02*
G03Y443871I-14492J3871D01*
G01Y436129D02*
G03Y435871I483J-129D01*
G01X224848Y424258D02*
G03X226492Y435871I-12848J7742D01*
G01X224848Y424258D02*
G03Y423742I428J-258D01*
G01X226492Y412129D02*
G03X224848Y423742I-14492J3871D01*
G01X226492Y412129D02*
G03Y411871I483J-129D01*
G01Y404129D02*
G03Y411871I-14492J3871D01*
G01Y404129D02*
G03Y403871I483J-129D01*
G01X201937Y388876D02*
G03X226492Y403871I10063J11124D01*
G01X201937Y388876D02*
G03X201615Y389005I-335J-371D01*
G01X192323Y392539D02*
G03X201615Y389005I9677J11461D01*
G01X192323Y392539D02*
G03X191500Y392157I-323J-382D01*
G01Y365500*
G03X192000Y365000I500J0*
G01X399500*
Y288000*
G03X400000Y287500I500J0*
G01X404600*
G03X405100Y288000I-0J500*
G01Y292506*
G03X404954Y292859I-500J-0*
G01X403929Y293884*
G03X403646Y294025I-353J-354*
G01X406475Y296854D02*
G03X403646Y294025I-2475J-354D01*
G01X406475Y296854D02*
G03X406616Y296571I495J70D01*
G01X408344Y294844*
X408900Y293500D02*
G03X408344Y294844I-1900J0D01*
G01X408900Y293500D02*
Y269498D01*
G03X409417Y268999I500J0*
G01Y264001D02*
G03Y268999I83J2499D01*
G01Y264001D02*
G03X408900Y263502I-17J-499D01*
G01Y250000*
G03X409400Y249500I500J0*
G01X467500*
X469500Y247500D02*
G03X467500Y249500I-2000J0D01*
G01X469500Y247500D02*
Y208500D01*
X467500Y206500D02*
G03X469500Y208500I0J2000D01*
G01X467500Y206500D02*
X409400D01*
G03X408900Y206000I0J-500*
G01Y162994*
G03X409046Y162641I500J0*
G01X415641Y156046*
G03X415994Y155900I353J354*
G01X573933*
G03X574420Y156284I0J500*
G01X583950Y163800D02*
G03X574420Y156284I0J-9800D01*
G01X583950Y163800D02*
X584050D01*
Y144200D02*
G03Y163800I0J9800D01*
G01Y144200D02*
X583950D01*
X574420Y151716D02*
G03X583950Y144200I9530J2284D01*
G01X574420Y151716D02*
G03X573933Y152100I-487J-116D01*
G01X415000*
X413656Y152656D02*
G03X415000Y152100I1344J1344D01*
G01X413656Y152656D02*
X405656Y160656D01*
X405100Y162000D02*
G03X405656Y160656I1900J0D01*
G01X405100Y162000D02*
Y230000D01*
G03X404600Y230500I-500J-0*
G01X400000*
G03X399500Y230000I0J-500*
G01Y105000*
G03X400000Y104500I500J0*
G01X571046*
G03X571368Y105382I-0J500*
G01X594618Y128632D02*
G03X571368Y105382I-12618J-10632D01*
G01X594618Y128632D02*
G03X595500Y128954I382J322D01*
G01X458815Y296480D02*
G03X459149Y297397I63J496D01*
G01X458208Y298501D02*
G03X459149Y297397I2292J999D01*
G01X458208Y298501D02*
G03X457292I-458J-200D01*
G01X454685Y297020D02*
G03X457292Y298501I315J2480D01*
G01X454685Y297020D02*
G03X454351Y296103I-63J-496D01*
G01X455292Y294999D02*
G03X454351Y296103I-2292J-999D01*
G01X455292Y294999D02*
G03X456208I458J200D01*
G01X458815Y296480D02*
G03X456208Y294999I-315J-2480D01*
G01X453315Y296480D02*
G03X453649Y297397I63J496D01*
G01X452708Y298501D02*
G03X453649Y297397I2292J999D01*
G01X452708Y298501D02*
G03X451792I-458J-200D01*
G01X449185Y297020D02*
G03X451792Y298501I315J2480D01*
G01X449185Y297020D02*
G03X448851Y296103I-63J-496D01*
G01X449792Y294999D02*
G03X448851Y296103I-2292J-999D01*
G01X449792Y294999D02*
G03X450708I458J200D01*
G01X453315Y296480D02*
G03X450708Y294999I-315J-2480D01*
G01X284333Y218137D02*
G03Y221863I1667J1863D01*
G01Y218137D02*
G03X283667I-333J-373D01*
G01Y221863D02*
G03Y218137I-1667J-1863D01*
G01Y221863D02*
G03X284333I333J373D01*
G01X283958Y228727D02*
G03Y233273I1042J2273D01*
G01Y228727D02*
G03X283542I-208J-454D01*
G01Y233273D02*
G03Y228727I-1042J-2273D01*
G01Y233273D02*
G03X283958I208J454D01*
G01X284333Y238137D02*
G03Y241863I1667J1863D01*
G01Y238137D02*
G03X283667I-333J-373D01*
G01Y241863D02*
G03Y238137I-1667J-1863D01*
G01Y241863D02*
G03X284333I333J373D01*
G01X271821Y222226D02*
G03X275345Y223107I2179J-1226D01*
G01X271821Y222226D02*
G03X271655Y222893I-435J245D01*
G01X275179Y223774D02*
G03X271655Y222893I-2179J1226D01*
G01X275179Y223774D02*
G03X275345Y223107I435J-245D01*
G01X275083Y291001D02*
G03X272834Y294749I-83J2499D01*
G01X275083Y291001D02*
G03X274666Y290751I16J-499D01*
G01X272417Y294499D02*
G03X274666Y290751I83J-2499D01*
G01X272417Y294499D02*
G03X272834Y294749I-16J499D01*
G01X267500Y292000D02*
G03X267500I-2500J0D01*
G01X270750Y325835D02*
G03X272009Y330500I1250J2165D01*
G01X270750Y325835D02*
G03X270250I-250J-433D01*
G01X268991Y330500D02*
G03X270250Y325835I9J-2500D01*
G01X268991Y330500D02*
G03X269000I-2J500D01*
X269009I11J500*
G01X270250Y330165D02*
G03X269009Y330500I-1250J-2165D01*
G01X270250Y330165D02*
G03X270750I250J433D01*
G01X271991Y330500D02*
G03X270750Y330165I9J-2500D01*
G01X271991Y330500D02*
G03X272000I-2J500D01*
X272009I11J500*
G01X333500Y315000D02*
G03X333500I-2500J0D01*
G01X319500D02*
G03X319500I-2500J0D01*
G01X321000Y322000D02*
G03X321000I-2500J0D01*
G01X306500Y258000D02*
G03X306500I-2500J0D01*
G01Y266000D02*
G03X306500I-2500J0D01*
G01Y280000D02*
G03X306500I-2500J0D01*
G01Y287000D02*
G03X306500I-2500J0D01*
G01X308500Y295000D02*
G03X308500I-2500J0D01*
G01X304750Y306835D02*
G03Y311165I1250J2165D01*
G01Y306835D02*
G03X304250I-250J-433D01*
G01Y311165D02*
G03Y306835I-1250J-2165D01*
G01Y311165D02*
G03X304750I250J433D01*
G01X336000Y252500D02*
G03X336000I-2500J0D01*
G01X149700Y114600D02*
G03X149700I-5500J0D01*
G01X329500Y238000D02*
G03X329500I-2500J0D01*
G01X329509Y293212D02*
G03X333658Y294871I2491J-212D01*
G01X329509Y293212D02*
G03X329342Y293629I-498J42D01*
G01X333491Y295288D02*
G03X329342Y293629I-2491J212D01*
G01X333491Y295288D02*
G03X333658Y294871I498J-42D01*
G01X268991Y352500D02*
G03X269009I9J-2500D01*
G01X268991D02*
G03X269000I-2J500D01*
X269009I11J500*
G01X260991D02*
G03X261009I9J-2500D01*
G01X260991D02*
G03X261000I-2J500D01*
X261009I11J500*
G01X116050Y250200D02*
G03Y269800I0J9800D01*
G01Y250200D02*
X115950D01*
Y269800D02*
G03Y250200I0J-9800D01*
G01Y269800D02*
X116050D01*
X576531Y318042D02*
G03X572833Y321363I-2031J1458D01*
G01X576531Y318042D02*
G03Y317458I406J-292D01*
G01Y314542D02*
G03Y317458I-2031J1458D01*
G01Y314542D02*
G03Y313958I406J-292D01*
G01X572833Y310637D02*
G03X576531Y313958I1667J1863D01*
G01X572833Y310637D02*
G03X572167I-333J-373D01*
G01X568469Y313958D02*
G03X572167Y310637I2031J-1458D01*
G01X568469Y313958D02*
G03Y314542I-406J292D01*
G01Y317458D02*
G03Y314542I2031J-1458D01*
G01Y317458D02*
G03Y318042I-406J292D01*
G01X572167Y321363D02*
G03X568469Y318042I-1667J-1863D01*
G01X572167Y321363D02*
G03X572833I333J373D01*
G01X584050Y346200D02*
G03Y365800I0J9800D01*
G01Y346200D02*
X583950D01*
Y365800D02*
G03Y346200I0J-9800D01*
G01Y365800D02*
X584050D01*
X564700Y401000D02*
G03X564700I-7700J0D01*
G01Y446000D02*
G03X564700I-7700J0D01*
G01X561300Y485400D02*
G03X561300I-5500J0D01*
G01X546724Y436156D02*
G03X520661Y451568I-14724J4844D01*
G01X546724Y436156D02*
G03Y435844I475J-156D01*
G01Y426156D02*
G03Y435844I-14724J4844D01*
G01Y426156D02*
G03Y425844I475J-156D01*
G01Y416156D02*
G03Y425844I-14724J4844D01*
G01Y416156D02*
G03Y415844I475J-156D01*
G01X533651Y395588D02*
G03X546724Y415844I-1651J15412D01*
G01X533651Y395588D02*
G03X533339Y395432I53J-497D01*
G01X507276Y410844D02*
G03X533339Y395432I14724J-4844D01*
G01X507276Y410844D02*
G03Y411156I-475J156D01*
G01Y420844D02*
G03Y411156I14724J-4844D01*
G01Y420844D02*
G03Y421156I-475J156D01*
G01Y430844D02*
G03Y421156I14724J-4844D01*
G01Y430844D02*
G03Y431156I-475J156D01*
G01X520349Y451412D02*
G03X507276Y431156I1651J-15412D01*
G01X520349Y451412D02*
G03X520661Y451568I-53J497D01*
G01X430000Y257000D02*
G03X430000I-2500J0D01*
G01X460154Y280125D02*
G03X456208Y282999I-1654J1875D01*
G01X460154Y280125D02*
G03Y279375I330J-375D01*
G01X456208Y276501D02*
G03X460154Y279375I2292J999D01*
G01X456208Y276501D02*
G03X455292I-458J-200D01*
G01X450708D02*
G03X455292I2292J999D01*
G01X450708D02*
G03X449792I-458J-200D01*
G01X446588Y275172D02*
G03X449792Y276501I912J2328D01*
G01X446588Y275172D02*
G03X446004Y275006I-183J-465D01*
G01X442333Y274637D02*
G03X446004Y275006I1667J1863D01*
G01X442333Y274637D02*
G03X441667I-333J-373D01*
G01X438333D02*
G03X441667I1667J1863D01*
G01X438333D02*
G03X437667I-333J-373D01*
G01X434333D02*
G03X437667I1667J1863D01*
G01X434333D02*
G03X433667I-333J-373D01*
G01X430137Y278167D02*
G03X433667Y274637I1863J-1667D01*
G01X430137Y278167D02*
G03Y278833I-373J333D01*
G01X433667Y282363D02*
G03X430137Y278833I-1667J-1863D01*
G01X433667Y282363D02*
G03X434333I333J373D01*
G01X437667D02*
G03X434333I-1667J-1863D01*
G01X437667D02*
G03X438333I333J373D01*
G01X441667D02*
G03X438333I-1667J-1863D01*
G01X441667D02*
G03X442333I333J373D01*
G01X444697Y282901D02*
G03X442333Y282363I-697J-2401D01*
G01X444697Y282901D02*
G03X445281Y283151I140J480D01*
G01X449792Y282999D02*
G03X445281Y283151I-2292J-999D01*
G01X449792Y282999D02*
G03X450708I458J200D01*
G01X455292D02*
G03X450708I-2292J-999D01*
G01X455292D02*
G03X456208I458J200D01*
G01X462154Y302125D02*
G03X458208Y304999I-1654J1875D01*
G01X462154Y302125D02*
G03Y301375I330J-375D01*
G01X460185Y297020D02*
G03X462154Y301375I315J2480D01*
G01X460185Y297020D02*
G03X459851Y296103I-63J-496D01*
G01X460154Y292125D02*
G03X459851Y296103I-1654J1875D01*
G01X460154Y292125D02*
G03Y291375I330J-375D01*
G01X456208Y288501D02*
G03X460154Y291375I2292J999D01*
G01X456208Y288501D02*
G03X455292I-458J-200D01*
G01X450708D02*
G03X455292I2292J999D01*
G01X450708D02*
G03X449792I-458J-200D01*
G01X445846Y291375D02*
G03X449792Y288501I1654J-1875D01*
G01X445846Y291375D02*
G03Y292125I-330J375D01*
G01X447815Y296480D02*
G03X445846Y292125I-315J-2480D01*
G01X447815Y296480D02*
G03X448149Y297397I63J496D01*
G01X447846Y301375D02*
G03X448149Y297397I1654J-1875D01*
G01X447846Y301375D02*
G03Y302125I-330J375D01*
G01X451792Y304999D02*
G03X447846Y302125I-2292J-999D01*
G01X451792Y304999D02*
G03X452708I458J200D01*
G01X457292D02*
G03X452708I-2292J-999D01*
G01X457292D02*
G03X458208I458J200D01*
G01X462531Y329542D02*
G03X458208Y331999I-2031J1458D01*
G01X462531Y329542D02*
G03Y328958I406J-292D01*
G01X458208Y326501D02*
G03X462531Y328958I2292J999D01*
G01X458208Y326501D02*
G03X457292I-458J-200D01*
G01X452708D02*
G03X457292I2292J999D01*
G01X452708D02*
G03X451792I-458J-200D01*
G01X447469Y328958D02*
G03X451792Y326501I2031J-1458D01*
G01X447469Y328958D02*
G03Y329542I-406J292D01*
G01X451792Y331999D02*
G03X447469Y329542I-2292J-999D01*
G01X451792Y331999D02*
G03X452708I458J200D01*
G01X457292D02*
G03X452708I-2292J-999D01*
G01X457292D02*
G03X458208I458J200D01*
G01X444165Y325250D02*
G03X440542Y328531I-2165J1250D01*
G01X444165Y325250D02*
G03Y324750I433J-250D01*
G01X440542Y321469D02*
G03X444165Y324750I1458J2031D01*
G01X440542Y321469D02*
G03X439958I-292J-406D01*
G01X437042D02*
G03X439958I1458J2031D01*
G01X437042D02*
G03X436458I-292J-406D01*
G01X432835Y324750D02*
G03X436458Y321469I2165J-1250D01*
G01X432835Y324750D02*
G03Y325250I-433J250D01*
G01X436458Y328531D02*
G03X432835Y325250I-1458J-2031D01*
G01X436458Y328531D02*
G03X437042I292J406D01*
G01X439958D02*
G03X437042I-1458J-2031D01*
G01X439958D02*
G03X440542I292J406D01*
G01X426753Y305333D02*
G03Y309667I1247J2167D01*
G01Y305333D02*
G03X426503Y305400I-250J-433D01*
G01X424577*
G03X424223Y305254I-0J-500*
G01X423746Y304777*
G03X423600Y304423I354J-354*
G01Y284973*
G03X424167Y284478I500J0*
G01Y279522D02*
G03Y284478I333J2478D01*
G01Y279522D02*
G03X423600Y279027I-67J-495D01*
G01Y279000*
X422985Y277515D02*
G03X423600Y279000I-1485J1485D01*
G01X422985Y277515D02*
X421043Y275573D01*
G03X420914Y275350I354J-353*
G01X417850Y278414D02*
G03X420914Y275350I650J-2414D01*
G01X417850Y278414D02*
G03X418073Y278543I-130J483D01*
G01X419254Y279723*
G03X419400Y280077I-354J354*
G01Y282002*
G03X418917Y282501I-500J-0*
G01Y287499D02*
G03Y282501I83J-2499D01*
G01Y287499D02*
G03X419400Y287998I-17J499D01*
G01Y305500*
X420015Y306985D02*
G03X419400Y305500I1485J-1485D01*
G01X420015Y306985D02*
X422015Y308985D01*
X423500Y309600D02*
G03X422015Y308985I0J-2100D01*
G01X423500Y309600D02*
X426503D01*
G03X426753Y309667I0J500*
G01X420000Y314000D02*
G03X420000I-2500J0D01*
G01X410500Y311000D02*
G03X410500I-2500J0D01*
G01X134800Y392250D02*
G03X134800I-5300J0D01*
G01Y455750D02*
G03X134800I-5300J0D01*
G01X408900Y246299D02*
X467500D01*
X408900Y245399D02*
X467500D01*
X408900Y244499D02*
X467500D01*
X408900Y243599D02*
X467500D01*
X408900Y242699D02*
X467500D01*
X408900Y241799D02*
X467500D01*
X408900Y240899D02*
X467500D01*
X408900Y239999D02*
X467500D01*
X408900Y239099D02*
X467500D01*
X408900Y238199D02*
X467500D01*
X408900Y237299D02*
X467500D01*
X408900Y236399D02*
X467500D01*
X408900Y235499D02*
X467500D01*
X408900Y234599D02*
X467500D01*
X408900Y233699D02*
X467500D01*
X408900Y232799D02*
X467500D01*
X408900Y231899D02*
X467500D01*
X408900Y230999D02*
X467500D01*
X408900Y230099D02*
X467500D01*
X408900Y229199D02*
X467500D01*
X408900Y228299D02*
X467500D01*
X408900Y227399D02*
X467500D01*
X408900Y226499D02*
X467500D01*
X408900Y225599D02*
X467500D01*
X408900Y224699D02*
X467500D01*
X408900Y223799D02*
X467500D01*
X408900Y222899D02*
X467500D01*
X408900Y221999D02*
X467500D01*
X408900Y221099D02*
X467500D01*
X408900Y220199D02*
X467500D01*
X408900Y219299D02*
X467500D01*
X408900Y218399D02*
X467500D01*
X408900Y217499D02*
X467500D01*
X408900Y216599D02*
X467500D01*
X408900Y215699D02*
X467500D01*
X408900Y214799D02*
X467500D01*
X408900Y213899D02*
X467500D01*
X408900Y212999D02*
X467500D01*
X408900Y212099D02*
X467500D01*
X408900Y211199D02*
X467500D01*
X408900Y210299D02*
X467500D01*
X408900Y209399D02*
X467500D01*
X408941Y247199D02*
X467459D01*
X380510Y243599D02*
X388500D01*
X380500Y242699D02*
X388500D01*
X380500Y241799D02*
X388500D01*
X380500Y240899D02*
X388500D01*
X380500Y239999D02*
X388500D01*
X380500Y239099D02*
X388500D01*
X380500Y238199D02*
X388500D01*
X342500Y237299D02*
X388500D01*
X342500Y236399D02*
X388500D01*
X342500Y235499D02*
X388500D01*
X342500Y234599D02*
X388500D01*
X342500Y233699D02*
X388500D01*
X342500Y232799D02*
X388500D01*
X342500Y231899D02*
X388500D01*
X342500Y230999D02*
X388500D01*
X342500Y230099D02*
X388500D01*
X342500Y229199D02*
X388500D01*
X342500Y228299D02*
X388500D01*
X342500Y227399D02*
X388500D01*
X342500Y226499D02*
X388500D01*
X342500Y225599D02*
X388500D01*
X342500Y224699D02*
X388500D01*
X342500Y223799D02*
X388500D01*
X342500Y222899D02*
X388500D01*
X342500Y221999D02*
X388500D01*
X342500Y221099D02*
X388500D01*
X342500Y220199D02*
X388500D01*
X342500Y219299D02*
X388500D01*
X342500Y218399D02*
X388500D01*
X342500Y217499D02*
X388500D01*
X342500Y216599D02*
X388500D01*
X342500Y215699D02*
X388500D01*
X342500Y214799D02*
X388500D01*
X342500Y213899D02*
X388500D01*
X342500Y212999D02*
X388500D01*
X342500Y212099D02*
X388500D01*
X342500Y211199D02*
X388500D01*
X342500Y210299D02*
X388500D01*
X342500Y209399D02*
X388500D01*
X381464Y244499D02*
X388036D01*
X342500Y242699D02*
X361500D01*
X342500Y241799D02*
X361500D01*
X342500Y240899D02*
X361500D01*
X342500Y239999D02*
X361500D01*
X342500Y239099D02*
X361500D01*
X342500Y238199D02*
X361500D01*
X342500Y245399D02*
X358500D01*
X342500Y244499D02*
X358500D01*
X342500Y243599D02*
X358500D01*
X342500Y249899D02*
X358500D01*
X342500Y248999D02*
X358500D01*
X342500Y248099D02*
X358500D01*
X342500Y247199D02*
X358500D01*
X342500Y246299D02*
X358500D01*
X272983Y330299D02*
X295500D01*
X274072Y329399D02*
X295500D01*
X274450Y328499D02*
X295500D01*
X274468Y327599D02*
X295500D01*
X274135Y326699D02*
X295500D01*
X273185Y325799D02*
X295500D01*
X260500Y324899D02*
X295500D01*
X260500Y323999D02*
X295500D01*
X260500Y323099D02*
X295500D01*
X260500Y322199D02*
X295500D01*
X260500Y321299D02*
X295500D01*
X291205Y320399D02*
X295500D01*
X292501Y319499D02*
X295500D01*
X292927Y318599D02*
X295500D01*
X293630Y317699D02*
X295500D01*
X224500Y251099D02*
X295500D01*
X224500Y250199D02*
X295500D01*
X224500Y249299D02*
X295500D01*
X224500Y248399D02*
X295500D01*
X224500Y247499D02*
X295500D01*
X224500Y246599D02*
X295500D01*
X224500Y245699D02*
X295500D01*
X224500Y244799D02*
X295500D01*
X224500Y243899D02*
X295500D01*
X224500Y242999D02*
X295500D01*
X287359Y242099D02*
X295500D01*
X288194Y241199D02*
X295500D01*
X288482Y240299D02*
X295500D01*
X288427Y239399D02*
X295500D01*
X287999Y238499D02*
X295500D01*
X286696Y237599D02*
X295500D01*
X224500Y236699D02*
X295500D01*
X286999Y229499D02*
X295500D01*
X285696Y228599D02*
X295500D01*
X224500Y227699D02*
X295500D01*
X274736Y226799D02*
X295500D01*
X275333Y225899D02*
X295500D01*
X275500Y224999D02*
X295500D01*
X275332Y224099D02*
X295500D01*
X275239Y223199D02*
X295500D01*
X286983Y222299D02*
X295500D01*
X288072Y221399D02*
X295500D01*
X288450Y220499D02*
X295500D01*
X288468Y219599D02*
X295500D01*
X288135Y218699D02*
X295500D01*
X287185Y217799D02*
X295500D01*
X108080Y216899D02*
X295500D01*
X108031Y215999D02*
X295500D01*
X107613Y215099D02*
X295500D01*
X293977Y209699D02*
X295500D01*
X106755Y208799D02*
X295500D01*
X107725Y207899D02*
X295500D01*
X108065Y206999D02*
X295500D01*
X108053Y206099D02*
X295500D01*
X107683Y205199D02*
X295500D01*
X106620Y204299D02*
X295500D01*
X104500Y203399D02*
X295500D01*
X104500Y202499D02*
X295500D01*
X104500Y201599D02*
X295500D01*
X104500Y200699D02*
X295500D01*
X104500Y199799D02*
X295500D01*
X104500Y198899D02*
X295500D01*
X104500Y197999D02*
X295500D01*
X104500Y197099D02*
X295500D01*
X104500Y196199D02*
X295500D01*
X104500Y195299D02*
X295500D01*
X104500Y194399D02*
X295500D01*
X104500Y193499D02*
X295500D01*
X104500Y192599D02*
X295500D01*
X104500Y191699D02*
X295500D01*
X104500Y190799D02*
X295500D01*
X104500Y189899D02*
X295500D01*
X104500Y188999D02*
X295500D01*
X104500Y188099D02*
X295500D01*
X104500Y187199D02*
X295500D01*
X104500Y186299D02*
X295500D01*
X104515Y185399D02*
X295500D01*
X224500Y251999D02*
X295500D01*
X224500Y235799D02*
X295499D01*
X294190Y214199D02*
X295499D01*
X261777Y331199D02*
X295459D01*
X294521Y316799D02*
X295458D01*
X287427Y230399D02*
X295445D01*
X292626Y234899D02*
X294374D01*
X292832Y231299D02*
X294168D01*
X104500Y209699D02*
X292023D01*
X106357Y214199D02*
X291810D01*
X260500Y311399D02*
X291000D01*
X260500Y310499D02*
X291000D01*
X260556Y309599D02*
X291000D01*
X263834Y308699D02*
X291000D01*
X264369Y307799D02*
X291000D01*
X264498Y306899D02*
X291000D01*
X264291Y305999D02*
X291000D01*
X263623Y305099D02*
X291000D01*
X260501Y304199D02*
X291000D01*
X260500Y303299D02*
X291000D01*
X260500Y302399D02*
X291000D01*
X260500Y301499D02*
X291000D01*
X260500Y300599D02*
X291000D01*
X277498Y293399D02*
X291000D01*
X277291Y292499D02*
X291000D01*
X276623Y291599D02*
X291000D01*
X274635Y290699D02*
X291000D01*
X273685Y289799D02*
X291000D01*
X260510Y288899D02*
X291000D01*
X262502Y287999D02*
X291000D01*
X263246Y287099D02*
X291000D01*
X263492Y286199D02*
X291000D01*
X263400Y285299D02*
X291000D01*
X264205Y284399D02*
X291000D01*
X265501Y283499D02*
X291000D01*
X265927Y282599D02*
X291000D01*
X265982Y281699D02*
X291000D01*
X265692Y280799D02*
X291000D01*
X264854Y279899D02*
X291000D01*
X263000Y278999D02*
X291000D01*
X263000Y278099D02*
X291000D01*
X263000Y271799D02*
X291000D01*
X263000Y270899D02*
X291000D01*
X263000Y269999D02*
X291000D01*
X263000Y269099D02*
X291000D01*
X263000Y268199D02*
X291000D01*
X263000Y267299D02*
X291000D01*
X263000Y266399D02*
X291000D01*
X263000Y265499D02*
X291000D01*
X263000Y264599D02*
X291000D01*
X263000Y263699D02*
X291000D01*
X263060Y262799D02*
X291000D01*
X263930Y261899D02*
X291000D01*
X273002Y260999D02*
X291000D01*
X273746Y260099D02*
X291000D01*
X273992Y259199D02*
X291000D01*
X273900Y258299D02*
X291000D01*
X273420Y257399D02*
X290996D01*
X260500Y299699D02*
X290990D01*
X104500Y210599D02*
X290930D01*
X260500Y312299D02*
X290901D01*
X104500Y213299D02*
X290864D01*
X277369Y294299D02*
X290554D01*
X104500Y211499D02*
X290551D01*
X104500Y212399D02*
X290532D01*
X263000Y272699D02*
X289823D01*
X260500Y320399D02*
X289795D01*
X263000Y277199D02*
X289610D01*
X224500Y234899D02*
X289374D01*
X287482Y231299D02*
X289168D01*
X260500Y298799D02*
X289098D01*
X260500Y313199D02*
X288766D01*
X263000Y273599D02*
X288730D01*
X224500Y233999D02*
X288708D01*
X276834Y295199D02*
X288680D01*
X263000Y276299D02*
X288664D01*
X287194Y232199D02*
X288632D01*
X286359Y233099D02*
X288502D01*
X260500Y319499D02*
X288499D01*
X271545Y256499D02*
X288498D01*
X260500Y297899D02*
X288354D01*
X263000Y274499D02*
X288351D01*
X263000Y275399D02*
X288332D01*
X260500Y316799D02*
X288308D01*
X260500Y296099D02*
X288200D01*
X260500Y314099D02*
X288168D01*
X260500Y315899D02*
X288167D01*
X260500Y296999D02*
X288108D01*
X224500Y252899D02*
X288080D01*
X260500Y318599D02*
X288073D01*
X260500Y317699D02*
X288018D01*
X260500Y314999D02*
X288000D01*
X270623Y255599D02*
X287754D01*
X224500Y253799D02*
X287600D01*
X224500Y254699D02*
X287508D01*
X282696Y237599D02*
X285304D01*
X282983Y222299D02*
X285017D01*
X283185Y217799D02*
X284815D01*
X283359Y242099D02*
X284641D01*
X283196Y228599D02*
X284304D01*
X224500D02*
X281804D01*
X224500Y237599D02*
X281304D01*
X224500Y233099D02*
X281141D01*
X276136Y222299D02*
X281017D01*
X224500Y217799D02*
X280815D01*
X224500Y242099D02*
X280641D01*
X224500Y229499D02*
X280501D01*
X224500Y232199D02*
X280306D01*
X224500Y230399D02*
X280073D01*
X224500Y231299D02*
X280018D01*
X224500Y238499D02*
X280001D01*
X276468Y221399D02*
X279928D01*
X274977Y218699D02*
X279865D01*
X224500Y241199D02*
X279806D01*
X224500Y239399D02*
X279573D01*
X276449Y220499D02*
X279550D01*
X276070Y219599D02*
X279532D01*
X224500Y240299D02*
X279518D01*
X260500Y295199D02*
X273166D01*
X224500Y218699D02*
X273023D01*
X224500Y219599D02*
X271930D01*
X224500Y222299D02*
X271855D01*
X224500Y220499D02*
X271551D01*
X224500Y221399D02*
X271532D01*
X265983Y294299D02*
X271517D01*
X266185Y289799D02*
X271315D01*
X224500Y223199D02*
X271266D01*
X224500Y226799D02*
X271264D01*
X269983Y330299D02*
X271017D01*
X270185Y325799D02*
X270815D01*
X224500Y224099D02*
X270668D01*
X224500Y225899D02*
X270667D01*
X224500Y224999D02*
X270500D01*
X267072Y293399D02*
X270428D01*
X267135Y290699D02*
X270365D01*
X267450Y292499D02*
X270050D01*
X267468Y291599D02*
X270032D01*
X264830Y260999D02*
X269998D01*
X265730Y260099D02*
X269201D01*
X262136Y330299D02*
X268017D01*
X260500Y325799D02*
X267815D01*
X262468Y329399D02*
X266928D01*
X260977Y326699D02*
X266865D01*
X262449Y328499D02*
X266550D01*
X262070Y327599D02*
X266532D01*
X224500Y255599D02*
X264879D01*
X260500Y294299D02*
X264017D01*
X260500Y289799D02*
X263815D01*
X224500Y256499D02*
X263673D01*
X260500Y293399D02*
X262928D01*
X260500Y290699D02*
X262865D01*
X224500Y257399D02*
X262773D01*
X260500Y292499D02*
X262550D01*
X260500Y291599D02*
X262532D01*
X224500Y258299D02*
X261873D01*
X224500Y259199D02*
X260973D01*
X224500Y260099D02*
X260073D01*
X224500Y260999D02*
X259269D01*
X224500Y261899D02*
X259003D01*
X257636Y267299D02*
X259000D01*
X257968Y266399D02*
X259000D01*
X257949Y265499D02*
X259000D01*
X257570Y264599D02*
X259000D01*
X256477Y263699D02*
X259000D01*
X224500Y262799D02*
X259000D01*
X257110Y268199D02*
X258959D01*
X224541Y331199D02*
X258223D01*
X224500Y330299D02*
X257864D01*
X224500Y329399D02*
X257532D01*
X224500Y328499D02*
X257124D01*
X224500Y269099D02*
X256835D01*
X224500Y327599D02*
X256592D01*
X224500Y272699D02*
X256561D01*
X224500Y326699D02*
X256500D01*
X224500Y325799D02*
X256500D01*
X224500Y324899D02*
X256500D01*
X224500Y323999D02*
X256500D01*
X224500Y323099D02*
X256500D01*
X224500Y322199D02*
X256500D01*
X224500Y321299D02*
X256500D01*
X224500Y320399D02*
X256500D01*
X224500Y319499D02*
X256500D01*
X224500Y318599D02*
X256500D01*
X224500Y317699D02*
X256500D01*
X224500Y316799D02*
X256500D01*
X224500Y315899D02*
X256500D01*
X224500Y314999D02*
X256500D01*
X224500Y314099D02*
X256500D01*
X224500Y313199D02*
X256500D01*
X224500Y312299D02*
X256500D01*
X224500Y311399D02*
X256500D01*
X224500Y310499D02*
X256500D01*
X224500Y309599D02*
X256500D01*
X224500Y308699D02*
X256500D01*
X224500Y307799D02*
X256500D01*
X224500Y306899D02*
X256500D01*
X224500Y305999D02*
X256500D01*
X224500Y305099D02*
X256500D01*
X224500Y304199D02*
X256500D01*
X224500Y303299D02*
X256500D01*
X224500Y302399D02*
X256500D01*
X224500Y301499D02*
X256500D01*
X224500Y300599D02*
X256500D01*
X224500Y299699D02*
X256500D01*
X224500Y298799D02*
X256500D01*
X224500Y297899D02*
X256500D01*
X224500Y296999D02*
X256500D01*
X224500Y296099D02*
X256500D01*
X224500Y295199D02*
X256500D01*
X224500Y294299D02*
X256500D01*
X224500Y293399D02*
X256500D01*
X224500Y292499D02*
X256500D01*
X224500Y291599D02*
X256500D01*
X224500Y290699D02*
X256500D01*
X224500Y289799D02*
X256500D01*
X224500Y288899D02*
X256500D01*
X224500Y287999D02*
X256500D01*
X224500Y287099D02*
X256500D01*
X224500Y286199D02*
X256500D01*
X224500Y285299D02*
X256500D01*
X224500Y284399D02*
X256500D01*
X224500Y283499D02*
X256500D01*
X224500Y282599D02*
X256500D01*
X224500Y281699D02*
X256500D01*
X224500Y280799D02*
X256500D01*
X224500Y279899D02*
X256500D01*
X224500Y278999D02*
X256500D01*
X224500Y278099D02*
X256500D01*
X224500Y277199D02*
X256500D01*
X224500Y276299D02*
X256500D01*
X224500Y269999D02*
X256209D01*
X224500Y273599D02*
X256168D01*
X224500Y275399D02*
X256167D01*
X224500Y271799D02*
X256131D01*
X224500Y270899D02*
X256002D01*
X224500Y274499D02*
X256000D01*
X224500Y263699D02*
X254523D01*
X224500Y268199D02*
X254310D01*
X224500Y264599D02*
X253430D01*
X224500Y267299D02*
X253364D01*
X224500Y265499D02*
X253051D01*
X224500Y266399D02*
X253032D01*
X320234Y332699D02*
X349500D01*
X298500Y331799D02*
X349500D01*
X298500Y330899D02*
X349500D01*
X298500Y329999D02*
X349500D01*
X298500Y329099D02*
X349500D01*
X298500Y328199D02*
X349500D01*
X298500Y327299D02*
X349500D01*
X298500Y326399D02*
X349500D01*
X298500Y325499D02*
X349500D01*
X298500Y324599D02*
X349500D01*
X320334Y323699D02*
X349500D01*
X320869Y322799D02*
X349500D01*
X320998Y321899D02*
X349500D01*
X320791Y320999D02*
X349440D01*
X320123Y320099D02*
X348754D01*
X306832Y318299D02*
X348521D01*
X307368Y319199D02*
X348508D01*
X331705Y317399D02*
X347692D01*
X333001Y316499D02*
X346792D01*
X333427Y315599D02*
X345892D01*
X333482Y314699D02*
X344992D01*
X333192Y313799D02*
X344092D01*
X332354Y312899D02*
X343192D01*
X298500Y311999D02*
X342292D01*
X307359Y311099D02*
X340766D01*
X317705Y317399D02*
X330295D01*
X318354Y312899D02*
X329646D01*
X319001Y316499D02*
X328999D01*
X319192Y313799D02*
X328808D01*
X319427Y315599D02*
X328573D01*
X319482Y314699D02*
X328518D01*
X308194Y310199D02*
X321492D01*
X318483Y309299D02*
X320592D01*
X306244Y285899D02*
X319500D01*
X305498Y284999D02*
X319500D01*
X298500Y284099D02*
X319500D01*
X298500Y283199D02*
X319500D01*
X306135Y278699D02*
X319500D01*
X305185Y277799D02*
X319500D01*
X298500Y276899D02*
X319500D01*
X299001Y275999D02*
X319500D01*
X299427Y275099D02*
X319500D01*
X299874Y274199D02*
X319500D01*
X300000Y273299D02*
X319500D01*
X300000Y272399D02*
X319500D01*
X300000Y271499D02*
X319500D01*
X300000Y270599D02*
X319500D01*
X300000Y269699D02*
X319500D01*
X300000Y268799D02*
X319500D01*
X305626Y267899D02*
X319500D01*
X306292Y266999D02*
X319500D01*
X306498Y266099D02*
X319500D01*
X306368Y265199D02*
X319500D01*
X305832Y264299D02*
X319500D01*
X300000Y263399D02*
X319500D01*
X300000Y262499D02*
X319500D01*
X300000Y261599D02*
X319500D01*
X300000Y260699D02*
X319500D01*
X305736Y259799D02*
X319500D01*
X306333Y258899D02*
X319500D01*
X306500Y257999D02*
X319500D01*
X306332Y257099D02*
X319500D01*
X305734Y256199D02*
X319500D01*
X300000Y255299D02*
X319500D01*
X300000Y254399D02*
X319500D01*
X300026Y253499D02*
X319500D01*
X300427Y252599D02*
X319500D01*
X300482Y251699D02*
X319500D01*
X300192Y250799D02*
X319500D01*
X298500Y235499D02*
X319500D01*
X298500Y234599D02*
X319500D01*
X298500Y233699D02*
X319500D01*
X298500Y232799D02*
X319500D01*
X298500Y231899D02*
X319500D01*
X298500Y230999D02*
X319500D01*
X298500Y230099D02*
X319500D01*
X298500Y229199D02*
X319500D01*
X298500Y228299D02*
X319500D01*
X298500Y227399D02*
X319500D01*
X298500Y226499D02*
X319500D01*
X298500Y225599D02*
X319500D01*
X298500Y224699D02*
X319500D01*
X298500Y223799D02*
X319500D01*
X298500Y222899D02*
X319500D01*
X298500Y221999D02*
X319500D01*
X298500Y221099D02*
X319500D01*
X298500Y220199D02*
X319500D01*
X298500Y219299D02*
X319500D01*
X298500Y218399D02*
X319500D01*
X298500Y217499D02*
X319500D01*
X298500Y216599D02*
X319500D01*
X298500Y215699D02*
X319500D01*
X298500Y214799D02*
X319500D01*
X298500Y213899D02*
X319500D01*
X298500Y212999D02*
X319500D01*
X298500Y212099D02*
X319500D01*
X298500Y211199D02*
X319500D01*
X298500Y210299D02*
X319500D01*
X298500Y209399D02*
X319500D01*
X298500Y208499D02*
X319500D01*
X298500Y207599D02*
X319500D01*
X298500Y206699D02*
X319500D01*
X298500Y205799D02*
X319500D01*
X298500Y204899D02*
X319500D01*
X298500Y203999D02*
X319500D01*
X298500Y203099D02*
X319500D01*
X298500Y202199D02*
X319500D01*
X298500Y201299D02*
X319500D01*
X298500Y200399D02*
X319500D01*
X298500Y199499D02*
X319500D01*
X298500Y198599D02*
X319500D01*
X298500Y197699D02*
X319500D01*
X298500Y196799D02*
X319500D01*
X298500Y195899D02*
X319500D01*
X298500Y194999D02*
X319500D01*
X298500Y194099D02*
X319500D01*
X298500Y193199D02*
X319500D01*
X298500Y192299D02*
X319500D01*
X298500Y191399D02*
X319500D01*
X298500Y190499D02*
X319500D01*
X298500Y189599D02*
X319500D01*
X298500Y188699D02*
X319500D01*
X298500Y187799D02*
X319500D01*
X298500Y186899D02*
X319500D01*
X298500Y185999D02*
X319500D01*
X298500Y185099D02*
X319500D01*
X298500Y184199D02*
X319500D01*
X298500Y183299D02*
X319500D01*
X298500Y182399D02*
X319500D01*
X206500Y181499D02*
X319500D01*
X206500Y180599D02*
X319500D01*
X206500Y179699D02*
X319500D01*
X206500Y178799D02*
X319500D01*
X206500Y177899D02*
X319500D01*
X206500Y176999D02*
X319500D01*
X206500Y176099D02*
X319500D01*
X206500Y175199D02*
X319500D01*
X206500Y174299D02*
X319500D01*
X206500Y173399D02*
X319500D01*
X206500Y172499D02*
X319500D01*
X206500Y171599D02*
X319500D01*
X206500Y170699D02*
X319500D01*
X206500Y169799D02*
X319500D01*
X206500Y168899D02*
X319500D01*
X206500Y167999D02*
X319500D01*
X206500Y167099D02*
X319500D01*
X206500Y166199D02*
X319500D01*
X206500Y165299D02*
X319500D01*
X206500Y164399D02*
X319500D01*
X206500Y163499D02*
X319500D01*
X206500Y162599D02*
X319500D01*
X206500Y161699D02*
X319500D01*
X206500Y160799D02*
X319500D01*
X206500Y159899D02*
X319500D01*
X206500Y158999D02*
X319500D01*
X206500Y158099D02*
X319500D01*
X206500Y157199D02*
X319500D01*
X206500Y156299D02*
X319500D01*
X206500Y155399D02*
X319500D01*
X206500Y154499D02*
X319500D01*
X206500Y153599D02*
X319500D01*
X206500Y152699D02*
X319500D01*
X206500Y151799D02*
X319500D01*
X206500Y150899D02*
X319500D01*
X206500Y149999D02*
X319500D01*
X206500Y149099D02*
X319500D01*
X206500Y148199D02*
X319500D01*
X206500Y147299D02*
X319500D01*
X206500Y146399D02*
X319500D01*
X206500Y145499D02*
X319500D01*
X206500Y144599D02*
X319500D01*
X206500Y143699D02*
X319500D01*
X206500Y142799D02*
X319500D01*
X206500Y141899D02*
X319500D01*
X306468Y279599D02*
X319429D01*
X304983Y282299D02*
X319364D01*
X318685Y286799D02*
X319304D01*
X306450Y280499D02*
X319051D01*
X306072Y281399D02*
X319032D01*
X299354Y249899D02*
X318928D01*
X298500Y248999D02*
X318550D01*
X298500Y248099D02*
X318298D01*
X307498Y320099D02*
X316877D01*
X298500Y332699D02*
X316766D01*
X298500Y323699D02*
X316666D01*
X308482Y309299D02*
X316517D01*
X306492Y286799D02*
X316315D01*
X298500Y317399D02*
X316295D01*
X307292Y320999D02*
X316209D01*
X298500Y247199D02*
X316166D01*
X298500Y322799D02*
X316131D01*
X298500Y240899D02*
X316068D01*
X298500Y304799D02*
X316013D01*
X298500Y300299D02*
X316013D01*
X308369Y295799D02*
X316013D01*
X298500Y291299D02*
X316013D01*
X306626Y321899D02*
X316002D01*
X298500Y243599D02*
X315754D01*
X298500Y244499D02*
X315709D01*
X298500Y312899D02*
X315646D01*
X298500Y246299D02*
X315631D01*
X298500Y241799D02*
X315600D01*
X298500Y242699D02*
X315508D01*
X298500Y245399D02*
X315502D01*
X298500Y239999D02*
X315498D01*
X308427Y308399D02*
X315428D01*
X298500Y303899D02*
X315428D01*
X298500Y299399D02*
X315428D01*
X308498Y294899D02*
X315428D01*
X298500Y290399D02*
X315428D01*
X298500Y305699D02*
X315365D01*
X298500Y301199D02*
X315365D01*
X307834Y296699D02*
X315365D01*
X298541Y292199D02*
X315365D01*
X306400Y287699D02*
X315365D01*
X298500Y236399D02*
X315080D01*
X307999Y307499D02*
X315050D01*
X298500Y302999D02*
X315050D01*
X298500Y298499D02*
X315050D01*
X308291Y293999D02*
X315050D01*
X304082Y289499D02*
X315050D01*
X306696Y306599D02*
X315032D01*
X298500Y302099D02*
X315032D01*
X298702Y297599D02*
X315032D01*
X307623Y293099D02*
X315032D01*
X305922Y288599D02*
X315032D01*
X298500Y316499D02*
X314999D01*
X298500Y313799D02*
X314808D01*
X298500Y239099D02*
X314754D01*
X298500Y237299D02*
X314600D01*
X298500Y315599D02*
X314573D01*
X298500Y314699D02*
X314518D01*
X298500Y238199D02*
X314508D01*
X303696Y306599D02*
X305304D01*
X304476Y311099D02*
X304524D01*
X300623Y293099D02*
X304377D01*
X300834Y296699D02*
X304166D01*
X298500Y289499D02*
X303918D01*
X301291Y293999D02*
X303709D01*
X301369Y295799D02*
X303631D01*
X301498Y294899D02*
X303502D01*
X302626Y321899D02*
X303374D01*
X298500Y282299D02*
X303017D01*
X298500Y277799D02*
X302815D01*
X298500Y284999D02*
X302502D01*
X300000Y267899D02*
X302374D01*
X298500Y306599D02*
X302304D01*
X300000Y256199D02*
X302266D01*
X300000Y259799D02*
X302264D01*
X300000Y264299D02*
X302168D01*
X298500Y288599D02*
X302078D01*
X298500Y281399D02*
X301928D01*
X298500Y278699D02*
X301865D01*
X298500Y285899D02*
X301756D01*
X300000Y266999D02*
X301708D01*
X300000Y257099D02*
X301668D01*
X300000Y258899D02*
X301667D01*
X298500Y311099D02*
X301641D01*
X300000Y265199D02*
X301632D01*
X298500Y287699D02*
X301600D01*
X298500Y280499D02*
X301550D01*
X298500Y279599D02*
X301532D01*
X298500Y286799D02*
X301508D01*
X300000Y266099D02*
X301502D01*
X300000Y257999D02*
X301500D01*
X298500Y307499D02*
X301001D01*
X298500Y310199D02*
X300806D01*
X298500Y308399D02*
X300573D01*
X298500Y309299D02*
X300518D01*
X298631Y321899D02*
X299374D01*
X340500Y272499D02*
X379500D01*
X340500Y271599D02*
X379500D01*
X340500Y270699D02*
X379500D01*
X340500Y269799D02*
X379500D01*
X340500Y268899D02*
X379500D01*
X340500Y267999D02*
X379500D01*
X340500Y267099D02*
X379500D01*
X340500Y266199D02*
X379500D01*
X340500Y265299D02*
X379500D01*
X340500Y264399D02*
X379500D01*
X340500Y263499D02*
X379500D01*
X340500Y262599D02*
X379500D01*
X340500Y261699D02*
X379500D01*
X340500Y260799D02*
X379500D01*
X340500Y259899D02*
X379500D01*
X340500Y258999D02*
X379500D01*
X340500Y258099D02*
X379500D01*
X340500Y257199D02*
X379500D01*
X340500Y256299D02*
X379500D01*
X340500Y255399D02*
X379500D01*
X340500Y254499D02*
X379500D01*
X340500Y253599D02*
X379500D01*
X340601Y252699D02*
X379500D01*
X360500Y251799D02*
X379500D01*
X360500Y250899D02*
X379500D01*
X360500Y249999D02*
X379500D01*
X360500Y249099D02*
X379500D01*
X360500Y248199D02*
X379500D01*
X360500Y247299D02*
X379500D01*
X360500Y246399D02*
X379490D01*
X340698Y273399D02*
X379302D01*
X399500Y284699D02*
X405100D01*
X399500Y283799D02*
X405100D01*
X399500Y282899D02*
X405100D01*
X399500Y281999D02*
X405100D01*
X399500Y281099D02*
X405100D01*
X399500Y280199D02*
X405100D01*
X399500Y279299D02*
X405100D01*
X399500Y278399D02*
X405100D01*
X399500Y277499D02*
X405100D01*
X399500Y276599D02*
X405100D01*
X399500Y275699D02*
X405100D01*
X399500Y274799D02*
X405100D01*
X399500Y273899D02*
X405100D01*
X399500Y272999D02*
X405100D01*
X399500Y272099D02*
X405100D01*
X399500Y265799D02*
X405100D01*
X399500Y264899D02*
X405100D01*
X399500Y258599D02*
X405100D01*
X399500Y257699D02*
X405100D01*
X399500Y256799D02*
X405100D01*
X399500Y255899D02*
X405100D01*
X399500Y254999D02*
X405100D01*
X399500Y254099D02*
X405100D01*
X400649Y253199D02*
X405100D01*
X402521Y252299D02*
X405100D01*
X403000Y251399D02*
X405100D01*
X403092Y250499D02*
X405100D01*
X402845Y249599D02*
X405100D01*
X402099Y248699D02*
X405100D01*
X399502Y247799D02*
X405100D01*
X399500Y246899D02*
X405100D01*
X399500Y245999D02*
X405100D01*
X399500Y245099D02*
X405100D01*
X399500Y244199D02*
X405100D01*
X399500Y243299D02*
X405100D01*
X399500Y242399D02*
X405100D01*
X399500Y241499D02*
X405100D01*
X399500Y240599D02*
X405100D01*
X399500Y239699D02*
X405100D01*
X399500Y238799D02*
X405100D01*
X399500Y237899D02*
X405100D01*
X399500Y236999D02*
X405100D01*
X399500Y236099D02*
X405100D01*
X399500Y235199D02*
X405100D01*
X399500Y234299D02*
X405100D01*
X399500Y233399D02*
X405100D01*
X403082Y263999D02*
X405098D01*
X403977Y266699D02*
X405041D01*
X404190Y271199D02*
X404967D01*
X399500Y263999D02*
X402918D01*
X399500Y266699D02*
X402023D01*
X399500Y271199D02*
X401810D01*
X399500Y259499D02*
X401502D01*
X399500Y263099D02*
X401078D01*
X399500Y267599D02*
X400930D01*
X399500Y270299D02*
X400864D01*
X399500Y260399D02*
X400756D01*
X399500Y262199D02*
X400600D01*
X399762Y253199D02*
X400551D01*
X399500Y268499D02*
X400551D01*
X399500Y269399D02*
X400532D01*
X399500Y261299D02*
X400508D01*
X104500Y352899D02*
X388500D01*
X270502Y351999D02*
X388500D01*
X271246Y351099D02*
X388500D01*
X271492Y350199D02*
X388500D01*
X271400Y349299D02*
X388500D01*
X270920Y348399D02*
X388500D01*
X104500Y347499D02*
X388500D01*
X104500Y346599D02*
X388500D01*
X104500Y345699D02*
X388500D01*
X104500Y344799D02*
X388500D01*
X104500Y343899D02*
X388500D01*
X104500Y342999D02*
X388500D01*
X104500Y342099D02*
X388500D01*
X104500Y341199D02*
X388500D01*
X383375Y340299D02*
X388500D01*
X384430Y339399D02*
X388500D01*
X385330Y338499D02*
X388500D01*
X386230Y337599D02*
X388500D01*
X387130Y336699D02*
X388500D01*
X104500Y340299D02*
X356125D01*
X104500Y339399D02*
X355070D01*
X104500Y338499D02*
X354170D01*
X104500Y337599D02*
X353329D01*
X319690Y336699D02*
X353010D01*
X320636Y335799D02*
X353000D01*
X350930Y334899D02*
X353000D01*
X351437Y333999D02*
X353000D01*
X351500Y333099D02*
X353000D01*
X351500Y332199D02*
X353000D01*
X351500Y331299D02*
X353000D01*
X351500Y330399D02*
X353000D01*
X351500Y329499D02*
X353000D01*
X351500Y328599D02*
X353000D01*
X351500Y327699D02*
X353000D01*
X351500Y326799D02*
X353000D01*
X351500Y325899D02*
X353000D01*
X351500Y324999D02*
X353000D01*
X351500Y324099D02*
X353000D01*
X351500Y323199D02*
X353000D01*
X351500Y322299D02*
X353000D01*
X351744Y321399D02*
X352958D01*
X104500Y336699D02*
X317310D01*
X104500Y335799D02*
X316364D01*
X104500Y334899D02*
X297070D01*
X104500Y333999D02*
X296563D01*
X262502Y351999D02*
X267498D01*
X262920Y348399D02*
X267080D01*
X263246Y351099D02*
X266754D01*
X263400Y349299D02*
X266600D01*
X263492Y350199D02*
X266508D01*
X104500Y351999D02*
X259498D01*
X104500Y348399D02*
X259080D01*
X104500Y351099D02*
X258754D01*
X104500Y349299D02*
X258600D01*
X104500Y350199D02*
X258508D01*
X104500Y333099D02*
X223298D01*
X104500Y332199D02*
X222626D01*
X104500Y331299D02*
X222500D01*
X104500Y330399D02*
X222500D01*
X104500Y329499D02*
X222500D01*
X104500Y328599D02*
X222500D01*
X104500Y327699D02*
X222500D01*
X104500Y326799D02*
X222500D01*
X104500Y325899D02*
X222500D01*
X104500Y324999D02*
X222500D01*
X104500Y324099D02*
X222500D01*
X104500Y323199D02*
X222500D01*
X104500Y322299D02*
X222500D01*
X104500Y321399D02*
X222500D01*
X104500Y320499D02*
X222500D01*
X104500Y319599D02*
X222500D01*
X104500Y318699D02*
X222500D01*
X104500Y317799D02*
X222500D01*
X104500Y316899D02*
X222500D01*
X104500Y315999D02*
X222500D01*
X104500Y315099D02*
X222500D01*
X104500Y314199D02*
X222500D01*
X104500Y313299D02*
X222500D01*
X104500Y312399D02*
X222500D01*
X104500Y311499D02*
X222500D01*
X104500Y310599D02*
X222500D01*
X104500Y309699D02*
X222500D01*
X104500Y308799D02*
X222500D01*
X104500Y307899D02*
X222500D01*
X104500Y306999D02*
X222500D01*
X104500Y306099D02*
X222500D01*
X104500Y305199D02*
X222500D01*
X104500Y304299D02*
X222500D01*
X104500Y303399D02*
X222500D01*
X104500Y302499D02*
X222500D01*
X104500Y301599D02*
X222500D01*
X104500Y300699D02*
X222500D01*
X104500Y299799D02*
X222500D01*
X104500Y298899D02*
X222500D01*
X104500Y297999D02*
X222500D01*
X104500Y297099D02*
X222500D01*
X104500Y296199D02*
X222500D01*
X104500Y295299D02*
X222500D01*
X104500Y294399D02*
X222500D01*
X104500Y293499D02*
X222500D01*
X104500Y292599D02*
X222500D01*
X104500Y291699D02*
X222500D01*
X104500Y290799D02*
X222500D01*
X104500Y289899D02*
X222500D01*
X104500Y288999D02*
X222500D01*
X104500Y288099D02*
X222500D01*
X104500Y287199D02*
X222500D01*
X104500Y286299D02*
X222500D01*
X104500Y285399D02*
X222500D01*
X104500Y284499D02*
X222500D01*
X104500Y283599D02*
X222500D01*
X104500Y282699D02*
X222500D01*
X104500Y281799D02*
X222500D01*
X104500Y280899D02*
X222500D01*
X104500Y279999D02*
X222500D01*
X104500Y279099D02*
X222500D01*
X104500Y278199D02*
X222500D01*
X104500Y277299D02*
X222500D01*
X104500Y276399D02*
X222500D01*
X104500Y275499D02*
X222500D01*
X104500Y274599D02*
X222500D01*
X104500Y273699D02*
X222500D01*
X104500Y272799D02*
X222500D01*
X104500Y271899D02*
X222500D01*
X104500Y270999D02*
X222500D01*
X104500Y270099D02*
X222500D01*
X119430Y269199D02*
X222500D01*
X121263Y268299D02*
X222500D01*
X122476Y267399D02*
X222500D01*
X123385Y266499D02*
X222500D01*
X124093Y265599D02*
X222500D01*
X124650Y264699D02*
X222500D01*
X125084Y263799D02*
X222500D01*
X125412Y262899D02*
X222500D01*
X125644Y261999D02*
X222500D01*
X125788Y261099D02*
X222500D01*
X125848Y260199D02*
X222500D01*
X125825Y259299D02*
X222500D01*
X125718Y258399D02*
X222500D01*
X125525Y257499D02*
X222500D01*
X125241Y256599D02*
X222500D01*
X124856Y255699D02*
X222500D01*
X124356Y254799D02*
X222500D01*
X123719Y253899D02*
X222500D01*
X122907Y252999D02*
X222500D01*
X121847Y252099D02*
X222500D01*
X120360Y251199D02*
X222500D01*
X117437Y250299D02*
X222500D01*
X104500Y249399D02*
X222500D01*
X104500Y248499D02*
X222500D01*
X104500Y247599D02*
X222500D01*
X104500Y246699D02*
X222500D01*
X104500Y245799D02*
X222500D01*
X104500Y244899D02*
X222500D01*
X104500Y243999D02*
X222500D01*
X104500Y243099D02*
X222500D01*
X104500Y242199D02*
X222500D01*
X104500Y241299D02*
X222500D01*
X104500Y240399D02*
X222500D01*
X104500Y239499D02*
X222500D01*
X104500Y238599D02*
X222500D01*
X104500Y237699D02*
X222500D01*
X104500Y236799D02*
X222500D01*
X104500Y235899D02*
X222500D01*
X104500Y234999D02*
X222500D01*
X104500Y234099D02*
X222500D01*
X104500Y233199D02*
X222500D01*
X104500Y232299D02*
X222500D01*
X104500Y231399D02*
X222500D01*
X104500Y230499D02*
X222500D01*
X104500Y229599D02*
X222500D01*
X104500Y228699D02*
X222500D01*
X104500Y227799D02*
X222500D01*
X104500Y226899D02*
X222500D01*
X104500Y225999D02*
X222500D01*
X104500Y225099D02*
X222500D01*
X104500Y224199D02*
X222500D01*
X104500Y223299D02*
X222500D01*
X104500Y222399D02*
X222500D01*
X104500Y221499D02*
X222500D01*
X104500Y220599D02*
X222500D01*
X104601Y219699D02*
X222399D01*
X104500Y250299D02*
X114563D01*
X104500Y269199D02*
X112570D01*
X104500Y251199D02*
X111640D01*
X104500Y268299D02*
X110737D01*
X104500Y252099D02*
X110153D01*
X104500Y267399D02*
X109524D01*
X104500Y252999D02*
X109093D01*
X104500Y266499D02*
X108615D01*
X104500Y253899D02*
X108281D01*
X104500Y265599D02*
X107907D01*
X104500Y254799D02*
X107644D01*
X104500Y264699D02*
X107350D01*
X104500Y255699D02*
X107144D01*
X104500Y263799D02*
X106916D01*
X104500Y256599D02*
X106759D01*
X104500Y262899D02*
X106588D01*
X104500Y257499D02*
X106475D01*
X104500Y261999D02*
X106356D01*
X104500Y258399D02*
X106282D01*
X104500Y261099D02*
X106212D01*
X104500Y259299D02*
X106175D01*
X104500Y260199D02*
X106152D01*
X381500Y312399D02*
X388500D01*
X381500Y311499D02*
X388500D01*
X381500Y310599D02*
X388500D01*
X381500Y309699D02*
X388500D01*
X381500Y308799D02*
X388500D01*
X381500Y307899D02*
X388500D01*
X381500Y306999D02*
X388500D01*
X381500Y306099D02*
X388500D01*
X381500Y305199D02*
X388500D01*
X381500Y304299D02*
X388500D01*
X381500Y303399D02*
X388500D01*
X381500Y302499D02*
X388500D01*
X381500Y301599D02*
X388500D01*
X381500Y300699D02*
X388500D01*
X381500Y299799D02*
X388500D01*
X381500Y298899D02*
X388500D01*
X381500Y297999D02*
X388500D01*
X381500Y297099D02*
X388500D01*
X381500Y296199D02*
X388500D01*
X381500Y295299D02*
X388500D01*
X381497Y294399D02*
X388500D01*
X381231Y293499D02*
X388500D01*
X380427Y292599D02*
X388500D01*
X379527Y291699D02*
X388500D01*
X378627Y290799D02*
X388500D01*
X377698Y289899D02*
X388500D01*
X365327Y288999D02*
X388500D01*
X364427Y288099D02*
X388500D01*
X363527Y287199D02*
X388500D01*
X362627Y286299D02*
X388500D01*
X369705Y285399D02*
X388500D01*
X371001Y284499D02*
X388500D01*
X371427Y283599D02*
X388500D01*
X371482Y282699D02*
X388500D01*
X386483Y281799D02*
X388500D01*
X387572Y280899D02*
X388427D01*
X381500Y313299D02*
X384668D01*
X371192Y281799D02*
X384517D01*
X357000Y333099D02*
X384500D01*
X357000Y332199D02*
X384500D01*
X372236Y331299D02*
X384500D01*
X372833Y330399D02*
X384500D01*
X373000Y329499D02*
X384500D01*
X372832Y328599D02*
X384500D01*
X372699Y327699D02*
X384500D01*
X375030Y326799D02*
X384500D01*
X375930Y325899D02*
X384500D01*
X376830Y324999D02*
X384500D01*
X377730Y324099D02*
X384500D01*
X378630Y323199D02*
X384500D01*
X379530Y322299D02*
X384500D01*
X380430Y321399D02*
X384500D01*
X381233Y320499D02*
X384500D01*
X381498Y319599D02*
X384500D01*
X381500Y318699D02*
X384500D01*
X381500Y317799D02*
X384500D01*
X381500Y316899D02*
X384500D01*
X381500Y315999D02*
X384208D01*
X357000Y333999D02*
X384173D01*
X381500Y314199D02*
X384132D01*
X381500Y315099D02*
X384002D01*
X357000Y334899D02*
X383273D01*
X357128Y335799D02*
X382373D01*
X357000Y316899D02*
X375400D01*
X357000Y315999D02*
X375400D01*
X356785Y315099D02*
X375400D01*
X356027Y314199D02*
X375400D01*
X355127Y313299D02*
X375400D01*
X354227Y312399D02*
X375400D01*
X353321Y311499D02*
X375400D01*
X351612Y310599D02*
X375400D01*
X351850Y309699D02*
X375400D01*
X355736Y308799D02*
X375400D01*
X356333Y307899D02*
X375400D01*
X356500Y306999D02*
X375400D01*
X356332Y306099D02*
X375400D01*
X355734Y305199D02*
X375400D01*
X321500Y304299D02*
X375400D01*
X357790Y303399D02*
X375400D01*
X358736Y302499D02*
X375400D01*
X359068Y301599D02*
X375400D01*
X359690Y300699D02*
X375400D01*
X360636Y299799D02*
X375400D01*
X363126Y298899D02*
X375400D01*
X363792Y297999D02*
X375400D01*
X363998Y297099D02*
X375400D01*
X357000Y317799D02*
X375231D01*
X364175Y296199D02*
X375198D01*
X357000Y318699D02*
X374331D01*
X357000Y319599D02*
X373431D01*
X357000Y320499D02*
X372531D01*
X357000Y331299D02*
X368764D01*
X357000Y327699D02*
X368723D01*
X357000Y326799D02*
X368364D01*
X361727Y285399D02*
X368295D01*
X357000Y328599D02*
X368168D01*
X357000Y330399D02*
X368167D01*
X357000Y325899D02*
X368032D01*
X357000Y329499D02*
X368000D01*
X360827Y284499D02*
X366999D01*
X342530Y281799D02*
X366808D01*
X359621Y283599D02*
X366573D01*
X341902Y282699D02*
X366518D01*
X357000Y324999D02*
X364498D01*
X357000Y321399D02*
X364080D01*
X357000Y324099D02*
X363754D01*
X357000Y322299D02*
X363600D01*
X357000Y323199D02*
X363508D01*
X333185Y290799D02*
X361443D01*
X321500Y289899D02*
X360570D01*
X334135Y291699D02*
X360523D01*
X343430Y280899D02*
X359871D01*
X321500Y288999D02*
X359670D01*
X334468Y292599D02*
X359430D01*
X333492Y295299D02*
X359360D01*
X334450Y293499D02*
X359051D01*
X334072Y294399D02*
X359032D01*
X321500Y288099D02*
X358770D01*
X344330Y279999D02*
X358670D01*
X333400Y296199D02*
X357523D01*
X332922Y297099D02*
X356430D01*
X331082Y297999D02*
X356051D01*
X321500Y298899D02*
X355623D01*
X321500Y303399D02*
X355410D01*
X321500Y299799D02*
X354530D01*
X321500Y302499D02*
X354464D01*
X321500Y300699D02*
X354151D01*
X321500Y301599D02*
X354132D01*
X335734Y305199D02*
X352266D01*
X336332Y306099D02*
X351668D01*
X350585Y306999D02*
X351398D01*
X343296D02*
X348215D01*
X344599Y307899D02*
X347265D01*
X345727Y309699D02*
X346943D01*
X345027Y308799D02*
X346932D01*
X336500Y306999D02*
X341904D01*
X336339Y307899D02*
X340601D01*
X321652Y283599D02*
X339754D01*
X321500Y287199D02*
X339666D01*
X321500Y284499D02*
X339209D01*
X321500Y286299D02*
X339131D01*
X321500Y285399D02*
X339002D01*
X321500Y305199D02*
X332266D01*
X321500Y306099D02*
X331668D01*
X322020Y307899D02*
X331661D01*
X321500Y306999D02*
X331500D01*
X321500Y297999D02*
X330918D01*
X321500Y290799D02*
X330815D01*
X321500Y291699D02*
X329865D01*
X321500Y292599D02*
X329532D01*
X321500Y293499D02*
X329447D01*
X321500Y297099D02*
X329078D01*
X321500Y294399D02*
X328756D01*
X321500Y296199D02*
X328600D01*
X321500Y295299D02*
X328508D01*
X386685Y277299D02*
X388500D01*
X360727Y276399D02*
X388500D01*
X379573Y275499D02*
X388500D01*
X381171Y274599D02*
X388500D01*
X381490Y273699D02*
X388500D01*
X381500Y272799D02*
X388500D01*
X381500Y271899D02*
X388500D01*
X381500Y270999D02*
X388500D01*
X381500Y270099D02*
X388500D01*
X381500Y269199D02*
X388500D01*
X381500Y268299D02*
X388500D01*
X381500Y267399D02*
X388500D01*
X381500Y266499D02*
X388500D01*
X381500Y265599D02*
X388500D01*
X381500Y264699D02*
X388500D01*
X381500Y263799D02*
X388500D01*
X381500Y262899D02*
X388500D01*
X381500Y261999D02*
X388500D01*
X381500Y261099D02*
X388500D01*
X381500Y260199D02*
X388500D01*
X381500Y259299D02*
X388500D01*
X381500Y258399D02*
X388500D01*
X381500Y257499D02*
X388500D01*
X381500Y256599D02*
X388500D01*
X381500Y255699D02*
X388500D01*
X381500Y254799D02*
X388500D01*
X381500Y253899D02*
X388500D01*
X381500Y252999D02*
X388500D01*
X381500Y252099D02*
X388500D01*
X381500Y251199D02*
X388500D01*
X381500Y250299D02*
X388500D01*
X381500Y249399D02*
X388500D01*
X381500Y248499D02*
X388500D01*
X381500Y247599D02*
X388500D01*
X381601Y246699D02*
X388399D01*
X387650Y278199D02*
X388350D01*
X321500Y205299D02*
X388500D01*
X321500Y204399D02*
X388500D01*
X321500Y203499D02*
X388500D01*
X321500Y202599D02*
X388500D01*
X321500Y201699D02*
X388500D01*
X321500Y200799D02*
X388500D01*
X321500Y199899D02*
X388500D01*
X321500Y198999D02*
X388500D01*
X321500Y198099D02*
X388500D01*
X321500Y197199D02*
X388500D01*
X321500Y196299D02*
X388500D01*
X321500Y195399D02*
X388500D01*
X321500Y194499D02*
X388500D01*
X321500Y193599D02*
X388500D01*
X321500Y192699D02*
X388500D01*
X321500Y191799D02*
X388500D01*
X321500Y190899D02*
X388500D01*
X321500Y189999D02*
X388500D01*
X321500Y189099D02*
X388500D01*
X321500Y188199D02*
X388500D01*
X321500Y187299D02*
X388500D01*
X321500Y186399D02*
X388500D01*
X321500Y185499D02*
X388500D01*
X321500Y184599D02*
X388500D01*
X321500Y183699D02*
X388500D01*
X321500Y182799D02*
X388500D01*
X321500Y181899D02*
X388500D01*
X321500Y180999D02*
X388500D01*
X321500Y180099D02*
X388500D01*
X321500Y179199D02*
X388500D01*
X321500Y178299D02*
X388500D01*
X321500Y177399D02*
X388500D01*
X321500Y176499D02*
X388500D01*
X321500Y175599D02*
X388500D01*
X321500Y174699D02*
X388500D01*
X321500Y173799D02*
X388500D01*
X321500Y172899D02*
X388500D01*
X321500Y171999D02*
X388500D01*
X321500Y171099D02*
X388500D01*
X321500Y170199D02*
X388500D01*
X321500Y169299D02*
X388500D01*
X321500Y168399D02*
X388500D01*
X321500Y167499D02*
X388500D01*
X321500Y166599D02*
X388500D01*
X321500Y165699D02*
X388500D01*
X321500Y164799D02*
X388500D01*
X321500Y163899D02*
X388500D01*
X321500Y162999D02*
X388500D01*
X321500Y162099D02*
X388500D01*
X321500Y161199D02*
X388500D01*
X321500Y160299D02*
X388500D01*
X321500Y159399D02*
X388500D01*
X321500Y158499D02*
X388500D01*
X321500Y157599D02*
X388500D01*
X321500Y156699D02*
X388500D01*
X321500Y155799D02*
X388500D01*
X321500Y154899D02*
X388500D01*
X321500Y153999D02*
X388500D01*
X321500Y153099D02*
X388500D01*
X321500Y152199D02*
X388500D01*
X321500Y151299D02*
X388500D01*
X321500Y150399D02*
X388500D01*
X321500Y149499D02*
X388500D01*
X321500Y148599D02*
X388500D01*
X321500Y147699D02*
X388500D01*
X321500Y146799D02*
X388500D01*
X321500Y145899D02*
X388500D01*
X321500Y144999D02*
X388500D01*
X321500Y144099D02*
X388500D01*
X321500Y143199D02*
X388500D01*
X321500Y142299D02*
X388500D01*
X321500Y141399D02*
X388500D01*
X321436Y140499D02*
X388500D01*
X320927Y139599D02*
X388500D01*
X104500Y138699D02*
X388500D01*
X104500Y137799D02*
X388500D01*
X104500Y136899D02*
X388500D01*
X104500Y135999D02*
X388500D01*
X104500Y135099D02*
X388500D01*
X121139Y134199D02*
X388500D01*
X124181Y133299D02*
X388500D01*
X126058Y132399D02*
X388500D01*
X127489Y131499D02*
X388500D01*
X128655Y130599D02*
X388500D01*
X129636Y129699D02*
X388500D01*
X130476Y128799D02*
X388500D01*
X131201Y127899D02*
X388500D01*
X131830Y126999D02*
X388500D01*
X132376Y126099D02*
X388500D01*
X132847Y125199D02*
X388500D01*
X133250Y124299D02*
X388500D01*
X133592Y123399D02*
X388500D01*
X240283Y122499D02*
X388500D01*
X242439Y121599D02*
X388500D01*
X243707Y120699D02*
X388500D01*
X244619Y119799D02*
X388500D01*
X245310Y118899D02*
X388500D01*
X245839Y117999D02*
X388500D01*
X246236Y117099D02*
X388500D01*
X246521Y116199D02*
X388500D01*
X246704Y115299D02*
X388500D01*
X246791Y114399D02*
X388500D01*
X246786Y113499D02*
X388500D01*
X246688Y112599D02*
X388500D01*
X246494Y111699D02*
X388500D01*
X246197Y110799D02*
X388500D01*
X245786Y109899D02*
X388500D01*
X245241Y108999D02*
X388500D01*
X244528Y108099D02*
X388500D01*
X243584Y107199D02*
X388500D01*
X242258Y106299D02*
X388500D01*
X240041Y105399D02*
X388500D01*
X321500Y206199D02*
X388459D01*
X321500Y207099D02*
X341073D01*
X321500Y207999D02*
X340564D01*
X321500Y249399D02*
X340500D01*
X321500Y248499D02*
X340500D01*
X321500Y247599D02*
X340500D01*
X321500Y246699D02*
X340500D01*
X321500Y245799D02*
X340500D01*
X321500Y244899D02*
X340500D01*
X321500Y243999D02*
X340500D01*
X321500Y243099D02*
X340500D01*
X321500Y242199D02*
X340500D01*
X321500Y241299D02*
X340500D01*
X327705Y240399D02*
X340500D01*
X329001Y239499D02*
X340500D01*
X329427Y238599D02*
X340500D01*
X329482Y237699D02*
X340500D01*
X329192Y236799D02*
X340500D01*
X328354Y235899D02*
X340500D01*
X321500Y234999D02*
X340500D01*
X321500Y234099D02*
X340500D01*
X321500Y233199D02*
X340500D01*
X321500Y232299D02*
X340500D01*
X321500Y231399D02*
X340500D01*
X321500Y230499D02*
X340500D01*
X321500Y229599D02*
X340500D01*
X321500Y228699D02*
X340500D01*
X321500Y227799D02*
X340500D01*
X321500Y226899D02*
X340500D01*
X321500Y225999D02*
X340500D01*
X321500Y225099D02*
X340500D01*
X321500Y224199D02*
X340500D01*
X321500Y223299D02*
X340500D01*
X321500Y222399D02*
X340500D01*
X321500Y221499D02*
X340500D01*
X321500Y220599D02*
X340500D01*
X321500Y219699D02*
X340500D01*
X326236Y218799D02*
X340500D01*
X326833Y217899D02*
X340500D01*
X327000Y216999D02*
X340500D01*
X326832Y216099D02*
X340500D01*
X326234Y215199D02*
X340500D01*
X321500Y214299D02*
X340500D01*
X321500Y213399D02*
X340500D01*
X321500Y212499D02*
X340500D01*
X321500Y211599D02*
X340500D01*
X321500Y210699D02*
X340500D01*
X321500Y209799D02*
X340500D01*
X321500Y208899D02*
X340500D01*
X334685Y250299D02*
X340434D01*
X321525Y278199D02*
X339741D01*
X335635Y251199D02*
X338981D01*
X321500Y277299D02*
X338864D01*
X321500Y274599D02*
X338793D01*
X321500Y275499D02*
X338551D01*
X335968Y252099D02*
X338541D01*
X321500Y276399D02*
X338532D01*
X321500Y273699D02*
X338510D01*
X321500Y272799D02*
X338500D01*
X321500Y271899D02*
X338500D01*
X321500Y270999D02*
X338500D01*
X321500Y270099D02*
X338500D01*
X321500Y269199D02*
X338500D01*
X321500Y268299D02*
X338500D01*
X321500Y267399D02*
X338500D01*
X321500Y266499D02*
X338500D01*
X321500Y265599D02*
X338500D01*
X321500Y264699D02*
X338500D01*
X321500Y263799D02*
X338500D01*
X321500Y262899D02*
X338500D01*
X321500Y261999D02*
X338500D01*
X321500Y261099D02*
X338500D01*
X321500Y260199D02*
X338500D01*
X321500Y259299D02*
X338500D01*
X321500Y258399D02*
X338500D01*
X321500Y257499D02*
X338500D01*
X321500Y256599D02*
X338500D01*
X321500Y255699D02*
X338500D01*
X334483Y254799D02*
X338500D01*
X335572Y253899D02*
X338500D01*
X335950Y252999D02*
X338500D01*
X321500Y254799D02*
X332517D01*
X321500Y250299D02*
X332315D01*
X321500Y253899D02*
X331428D01*
X321500Y251199D02*
X331365D01*
X321500Y252999D02*
X331050D01*
X321500Y252099D02*
X331032D01*
X321500Y240399D02*
X326295D01*
X321500Y235899D02*
X325646D01*
X321500Y239499D02*
X324999D01*
X321500Y236799D02*
X324808D01*
X321500Y238599D02*
X324573D01*
X321500Y237699D02*
X324518D01*
X321500Y215199D02*
X322766D01*
X321500Y218799D02*
X322764D01*
X184041Y105399D02*
X235959D01*
X184283Y122499D02*
X235717D01*
X186258Y106299D02*
X233742D01*
X186439Y121599D02*
X233561D01*
X187584Y107199D02*
X232416D01*
X187707Y120699D02*
X232293D01*
X188528Y108099D02*
X231472D01*
X188619Y119799D02*
X231381D01*
X189241Y108999D02*
X230759D01*
X189310Y118899D02*
X230690D01*
X189786Y109899D02*
X230214D01*
X189839Y117999D02*
X230161D01*
X190197Y110799D02*
X229803D01*
X190236Y117099D02*
X229764D01*
X190494Y111699D02*
X229506D01*
X190521Y116199D02*
X229479D01*
X190688Y112599D02*
X229312D01*
X190704Y115299D02*
X229296D01*
X190786Y113499D02*
X229214D01*
X190791Y114399D02*
X229209D01*
X104500Y139599D02*
X205073D01*
X104500Y140499D02*
X204564D01*
X104500Y181899D02*
X204500D01*
X104500Y180999D02*
X204500D01*
X104500Y180099D02*
X204500D01*
X104500Y179199D02*
X204500D01*
X104500Y178299D02*
X204500D01*
X104500Y177399D02*
X204500D01*
X104500Y176499D02*
X204500D01*
X104500Y175599D02*
X204500D01*
X104500Y174699D02*
X204500D01*
X104500Y173799D02*
X204500D01*
X104500Y172899D02*
X204500D01*
X104500Y171999D02*
X204500D01*
X104500Y171099D02*
X204500D01*
X104500Y170199D02*
X204500D01*
X104500Y169299D02*
X204500D01*
X104500Y168399D02*
X204500D01*
X104500Y167499D02*
X204500D01*
X104500Y166599D02*
X204500D01*
X104500Y165699D02*
X204500D01*
X104500Y164799D02*
X204500D01*
X104500Y163899D02*
X204500D01*
X104500Y162999D02*
X204500D01*
X104500Y162099D02*
X204500D01*
X104500Y161199D02*
X204500D01*
X104500Y160299D02*
X204500D01*
X104500Y159399D02*
X204500D01*
X104500Y158499D02*
X204500D01*
X104500Y157599D02*
X204500D01*
X104500Y156699D02*
X204500D01*
X104500Y155799D02*
X204500D01*
X104500Y154899D02*
X204500D01*
X104500Y153999D02*
X204500D01*
X104500Y153099D02*
X204500D01*
X104500Y152199D02*
X204500D01*
X104500Y151299D02*
X204500D01*
X104500Y150399D02*
X204500D01*
X104500Y149499D02*
X204500D01*
X104500Y148599D02*
X204500D01*
X104500Y147699D02*
X204500D01*
X104500Y146799D02*
X204500D01*
X104500Y145899D02*
X204500D01*
X104500Y144999D02*
X204500D01*
X104500Y144099D02*
X204500D01*
X104500Y143199D02*
X204500D01*
X104500Y142299D02*
X204500D01*
X104500Y141399D02*
X204500D01*
X128652Y105399D02*
X179959D01*
X133875Y122499D02*
X179717D01*
X129633Y106299D02*
X177742D01*
X134103Y121599D02*
X177561D01*
X130473Y107199D02*
X176416D01*
X134278Y120699D02*
X176293D01*
X131199Y108099D02*
X175472D01*
X145996Y119799D02*
X175381D01*
X131828Y108999D02*
X174759D01*
X147631Y118899D02*
X174690D01*
X147054Y109899D02*
X174214D01*
X148524Y117999D02*
X174161D01*
X148175Y110799D02*
X173803D01*
X149100Y117099D02*
X173764D01*
X148873Y111699D02*
X173506D01*
X149463Y116199D02*
X173479D01*
X149323Y112599D02*
X173312D01*
X149655Y115299D02*
X173296D01*
X149589Y113499D02*
X173214D01*
X149696Y114399D02*
X173209D01*
X134402Y119799D02*
X142404D01*
X132374Y109899D02*
X141346D01*
X134476Y118899D02*
X140769D01*
X132846Y110799D02*
X140225D01*
X134500Y117999D02*
X139876D01*
X133249Y111699D02*
X139527D01*
X134475Y117099D02*
X139300D01*
X133591Y112599D02*
X139077D01*
X134401Y116199D02*
X138937D01*
X133874Y113499D02*
X138811D01*
X134277Y115299D02*
X138745D01*
X134102Y114399D02*
X138704D01*
X104500Y134199D02*
X114861D01*
X104500Y133299D02*
X111819D01*
X104500Y132399D02*
X109942D01*
X104500Y131499D02*
X108511D01*
X104500Y130599D02*
X107345D01*
X104500Y129699D02*
X106364D01*
X104525Y128799D02*
X105524D01*
X450196Y297099D02*
X453863D01*
X451499Y297999D02*
X453001D01*
X448742Y296199D02*
X451810D01*
X449636Y295299D02*
X450864D01*
X455696Y297099D02*
X459363D01*
X456999Y297999D02*
X458501D01*
X454242Y296199D02*
X457310D01*
X455136Y295299D02*
X456364D01*
X594115Y470799D02*
X595500D01*
X593216Y469899D02*
X595500D01*
X592160Y468999D02*
X595500D01*
X590888Y468099D02*
X595500D01*
X589292Y467199D02*
X595500D01*
X587071Y466299D02*
X595500D01*
X104500Y465399D02*
X595500D01*
X104500Y464499D02*
X595500D01*
X191490Y463599D02*
X595500D01*
X214992Y462699D02*
X595500D01*
X217882Y461799D02*
X595500D01*
X219657Y460899D02*
X595500D01*
X221002Y459999D02*
X595500D01*
X222091Y459099D02*
X595500D01*
X222999Y458199D02*
X595500D01*
X223770Y457299D02*
X595500D01*
X533769Y456399D02*
X595500D01*
X537481Y455499D02*
X595500D01*
X539438Y454599D02*
X595500D01*
X557143Y453699D02*
X595500D01*
X560615Y452799D02*
X595500D01*
X561949Y451899D02*
X595500D01*
X562857Y450999D02*
X595500D01*
X563519Y450099D02*
X595500D01*
X564004Y449199D02*
X595500D01*
X564349Y448299D02*
X595500D01*
X564572Y447399D02*
X595500D01*
X564684Y446499D02*
X595500D01*
X564690Y445599D02*
X595500D01*
X564589Y444699D02*
X595500D01*
X564379Y443799D02*
X595500D01*
X564048Y442899D02*
X595500D01*
X563579Y441999D02*
X595500D01*
X562939Y441099D02*
X595500D01*
X562063Y440199D02*
X595500D01*
X560792Y439299D02*
X595500D01*
X558229Y438399D02*
X595500D01*
X547099Y437499D02*
X595500D01*
X546862Y436599D02*
X595500D01*
X546771Y435699D02*
X595500D01*
X547027Y434799D02*
X595500D01*
X547227Y433899D02*
X595500D01*
X547371Y432999D02*
X595500D01*
X547461Y432099D02*
X595500D01*
X547499Y431199D02*
X595500D01*
X547484Y430299D02*
X595500D01*
X547417Y429399D02*
X595500D01*
X547297Y428499D02*
X595500D01*
X547122Y427599D02*
X595500D01*
X546891Y426699D02*
X595500D01*
X546738Y425799D02*
X595500D01*
X547002Y424899D02*
X595500D01*
X547207Y423999D02*
X595500D01*
X547357Y423099D02*
X595500D01*
X547454Y422199D02*
X595500D01*
X547497Y421299D02*
X595500D01*
X547488Y420399D02*
X595500D01*
X547427Y419499D02*
X595500D01*
X547313Y418599D02*
X595500D01*
X547144Y417699D02*
X595500D01*
X546920Y416799D02*
X595500D01*
X546709Y415899D02*
X595500D01*
X546975Y414999D02*
X595500D01*
X547187Y414099D02*
X595500D01*
X547343Y413199D02*
X595500D01*
X547446Y412299D02*
X595500D01*
X547495Y411399D02*
X595500D01*
X547492Y410499D02*
X595500D01*
X547437Y409599D02*
X595500D01*
X557143Y408699D02*
X595500D01*
X560615Y407799D02*
X595500D01*
X561949Y406899D02*
X595500D01*
X562857Y405999D02*
X595500D01*
X563519Y405099D02*
X595500D01*
X564004Y404199D02*
X595500D01*
X564349Y403299D02*
X595500D01*
X564572Y402399D02*
X595500D01*
X564684Y401499D02*
X595500D01*
X564690Y400599D02*
X595500D01*
X564589Y399699D02*
X595500D01*
X564379Y398799D02*
X595500D01*
X564048Y397899D02*
X595500D01*
X563579Y396999D02*
X595500D01*
X562939Y396099D02*
X595500D01*
X562063Y395199D02*
X595500D01*
X560792Y394299D02*
X595500D01*
X558229Y393399D02*
X595500D01*
X529613Y392499D02*
X595500D01*
X527732Y391599D02*
X595500D01*
X524474Y390699D02*
X595500D01*
X222997Y389799D02*
X595500D01*
X222088Y388899D02*
X595500D01*
X220998Y387999D02*
X595500D01*
X219652Y387099D02*
X595500D01*
X217876Y386199D02*
X595500D01*
X214979Y385299D02*
X595500D01*
X191500Y384399D02*
X595500D01*
X191500Y383499D02*
X595500D01*
X191500Y382599D02*
X595500D01*
X191500Y381699D02*
X595500D01*
X191500Y380799D02*
X595500D01*
X191500Y379899D02*
X595500D01*
X191500Y378999D02*
X595500D01*
X191500Y378099D02*
X595500D01*
X191500Y377199D02*
X595500D01*
X191500Y376299D02*
X595500D01*
X191500Y375399D02*
X595500D01*
X191500Y374499D02*
X595500D01*
X191500Y373599D02*
X595500D01*
X191500Y372699D02*
X595500D01*
X191500Y371799D02*
X595500D01*
X191500Y370899D02*
X595500D01*
X191500Y369999D02*
X595500D01*
X191500Y369099D02*
X595500D01*
X191500Y368199D02*
X595500D01*
X191500Y367299D02*
X595500D01*
X191500Y366399D02*
X595500D01*
X586462Y365499D02*
X595500D01*
X588751Y364599D02*
X595500D01*
X590114Y363699D02*
X595500D01*
X591108Y362799D02*
X595500D01*
X591876Y361899D02*
X595500D01*
X592479Y360999D02*
X595500D01*
X592952Y360099D02*
X595500D01*
X593313Y359199D02*
X595500D01*
X593577Y358299D02*
X595500D01*
X593750Y357399D02*
X595500D01*
X593837Y356499D02*
X595500D01*
X593842Y355599D02*
X595500D01*
X593763Y354699D02*
X595500D01*
X593600Y353799D02*
X595500D01*
X593346Y352899D02*
X595500D01*
X592996Y351999D02*
X595500D01*
X592536Y351099D02*
X595500D01*
X591948Y350199D02*
X595500D01*
X591201Y349299D02*
X595500D01*
X590236Y348399D02*
X595500D01*
X588925Y347499D02*
X595500D01*
X586817Y346599D02*
X595500D01*
X399500Y345699D02*
X595500D01*
X399500Y344799D02*
X595500D01*
X399500Y343899D02*
X595500D01*
X399500Y342999D02*
X595500D01*
X399500Y342099D02*
X595500D01*
X399500Y341199D02*
X595500D01*
X399500Y340299D02*
X595500D01*
X399500Y339399D02*
X595500D01*
X399500Y338499D02*
X595500D01*
X399500Y337599D02*
X595500D01*
X399500Y336699D02*
X595500D01*
X399500Y335799D02*
X595500D01*
X399500Y334899D02*
X595500D01*
X399500Y333999D02*
X595500D01*
X461859Y333099D02*
X595500D01*
X462694Y332199D02*
X595500D01*
X462982Y331299D02*
X595500D01*
X462927Y330399D02*
X595500D01*
X462503Y329499D02*
X595500D01*
X462746Y328599D02*
X595500D01*
X462992Y327699D02*
X595500D01*
X462900Y326799D02*
X595500D01*
X462420Y325899D02*
X595500D01*
X444098Y324999D02*
X595500D01*
X444427Y324099D02*
X595500D01*
X444482Y323199D02*
X595500D01*
X444192Y322299D02*
X595500D01*
X576126Y321399D02*
X595500D01*
X576792Y320499D02*
X595500D01*
X576998Y319599D02*
X595500D01*
X576868Y318699D02*
X595500D01*
X576439Y317799D02*
X595500D01*
X576833Y316899D02*
X595500D01*
X577000Y315999D02*
X595500D01*
X576832Y315099D02*
X595500D01*
X576439Y314199D02*
X595500D01*
X576869Y313299D02*
X595500D01*
X576998Y312399D02*
X595500D01*
X576791Y311499D02*
X595500D01*
X576123Y310599D02*
X595500D01*
X429190Y309699D02*
X595500D01*
X430136Y308799D02*
X595500D01*
X430468Y307899D02*
X595500D01*
X430449Y306999D02*
X595500D01*
X461859Y306099D02*
X595500D01*
X462694Y305199D02*
X595500D01*
X462982Y304299D02*
X595500D01*
X462927Y303399D02*
X595500D01*
X462499Y302499D02*
X595500D01*
X462008Y301599D02*
X595500D01*
X462694Y300699D02*
X595500D01*
X462982Y299799D02*
X595500D01*
X462927Y298899D02*
X595500D01*
X462499Y297999D02*
X595500D01*
X461196Y297099D02*
X595500D01*
X459742Y296199D02*
X595500D01*
X460636Y295299D02*
X595500D01*
X460968Y294399D02*
X595500D01*
X460949Y293499D02*
X595500D01*
X460570Y292599D02*
X595500D01*
X459987Y291699D02*
X595500D01*
X460636Y290799D02*
X595500D01*
X460968Y289899D02*
X595500D01*
X460949Y288999D02*
X595500D01*
X460570Y288099D02*
X595500D01*
X459477Y287199D02*
X595500D01*
X423600Y286299D02*
X595500D01*
X423600Y285399D02*
X595500D01*
X458582Y284499D02*
X595500D01*
X460422Y283599D02*
X595500D01*
X460900Y282699D02*
X595500D01*
X460992Y281799D02*
X595500D01*
X460744Y280899D02*
X595500D01*
X460051Y279999D02*
X595500D01*
X460422Y279099D02*
X595500D01*
X460900Y278199D02*
X595500D01*
X460992Y277299D02*
X595500D01*
X460744Y276399D02*
X595500D01*
X459998Y275499D02*
X595500D01*
X445623Y274599D02*
X595500D01*
X419477Y273699D02*
X595500D01*
X408900Y272799D02*
X595500D01*
X408900Y271899D02*
X595500D01*
X408900Y270999D02*
X595500D01*
X408900Y270099D02*
X595500D01*
X409000Y269199D02*
X595500D01*
X411236Y268299D02*
X595500D01*
X411833Y267399D02*
X595500D01*
X412000Y266499D02*
X595500D01*
X411832Y265599D02*
X595500D01*
X411234Y264699D02*
X595500D01*
X408998Y263799D02*
X595500D01*
X408900Y262899D02*
X595500D01*
X408900Y261999D02*
X595500D01*
X408900Y261099D02*
X595500D01*
X408900Y260199D02*
X595500D01*
X428483Y259299D02*
X595500D01*
X429572Y258399D02*
X595500D01*
X429950Y257499D02*
X595500D01*
X429968Y256599D02*
X595500D01*
X429635Y255699D02*
X595500D01*
X428685Y254799D02*
X595500D01*
X408900Y253899D02*
X595500D01*
X408900Y252999D02*
X595500D01*
X408900Y252099D02*
X595500D01*
X408900Y251199D02*
X595500D01*
X408900Y250299D02*
X595500D01*
X468129Y249399D02*
X595500D01*
X469233Y248499D02*
X595500D01*
X469498Y247599D02*
X595500D01*
X469500Y246699D02*
X595500D01*
X469500Y245799D02*
X595500D01*
X469500Y244899D02*
X595500D01*
X469500Y243999D02*
X595500D01*
X469500Y243099D02*
X595500D01*
X469500Y242199D02*
X595500D01*
X469500Y241299D02*
X595500D01*
X469500Y240399D02*
X595500D01*
X469500Y239499D02*
X595500D01*
X469500Y238599D02*
X595500D01*
X469500Y237699D02*
X595500D01*
X469500Y236799D02*
X595500D01*
X469500Y235899D02*
X595500D01*
X469500Y234999D02*
X595500D01*
X469500Y234099D02*
X595500D01*
X469500Y233199D02*
X595500D01*
X469500Y232299D02*
X595500D01*
X469500Y231399D02*
X595500D01*
X469500Y230499D02*
X595500D01*
X469500Y229599D02*
X595500D01*
X469500Y228699D02*
X595500D01*
X469500Y227799D02*
X595500D01*
X469500Y226899D02*
X595500D01*
X469500Y225999D02*
X595500D01*
X469500Y225099D02*
X595500D01*
X469500Y224199D02*
X595500D01*
X469500Y223299D02*
X595500D01*
X469500Y222399D02*
X595500D01*
X469500Y221499D02*
X595500D01*
X469500Y220599D02*
X595500D01*
X469500Y219699D02*
X595500D01*
X469500Y218799D02*
X595500D01*
X469500Y217899D02*
X595500D01*
X469500Y216999D02*
X595500D01*
X469500Y216099D02*
X595500D01*
X469500Y215199D02*
X595500D01*
X469500Y214299D02*
X595500D01*
X469500Y213399D02*
X595500D01*
X469500Y212499D02*
X595500D01*
X469500Y211599D02*
X595500D01*
X469500Y210699D02*
X595500D01*
X469500Y209799D02*
X595500D01*
X469500Y208899D02*
X595500D01*
X469436Y207999D02*
X595500D01*
X468927Y207099D02*
X595500D01*
X408941Y206199D02*
X595500D01*
X408900Y205299D02*
X595500D01*
X408900Y204399D02*
X595500D01*
X408900Y203499D02*
X595500D01*
X408900Y202599D02*
X595500D01*
X408900Y201699D02*
X595500D01*
X408900Y200799D02*
X595500D01*
X408900Y199899D02*
X595500D01*
X408900Y198999D02*
X595500D01*
X408900Y198099D02*
X595500D01*
X408900Y197199D02*
X595500D01*
X408900Y196299D02*
X595500D01*
X408900Y195399D02*
X595500D01*
X408900Y194499D02*
X595500D01*
X408900Y193599D02*
X595500D01*
X408900Y192699D02*
X595500D01*
X408900Y191799D02*
X595500D01*
X408900Y190899D02*
X595500D01*
X408900Y189999D02*
X595500D01*
X408900Y189099D02*
X595500D01*
X408900Y188199D02*
X595500D01*
X408900Y187299D02*
X595500D01*
X408900Y186399D02*
X595500D01*
X408900Y185499D02*
X595500D01*
X408900Y184599D02*
X595500D01*
X408900Y183699D02*
X595500D01*
X408900Y182799D02*
X595500D01*
X408900Y181899D02*
X595500D01*
X408900Y180999D02*
X595500D01*
X408900Y180099D02*
X595500D01*
X408900Y179199D02*
X595500D01*
X408900Y178299D02*
X595500D01*
X408900Y177399D02*
X595500D01*
X408900Y176499D02*
X595500D01*
X408900Y175599D02*
X595500D01*
X408900Y174699D02*
X595500D01*
X408900Y173799D02*
X595500D01*
X408900Y172899D02*
X595500D01*
X408900Y171999D02*
X595500D01*
X408900Y171099D02*
X595500D01*
X408900Y170199D02*
X595500D01*
X408900Y169299D02*
X595500D01*
X408900Y168399D02*
X595500D01*
X408900Y167499D02*
X595500D01*
X408900Y166599D02*
X595500D01*
X408900Y165699D02*
X595500D01*
X408900Y164799D02*
X595500D01*
X408900Y163899D02*
X595500D01*
X587931Y162999D02*
X595500D01*
X589568Y162099D02*
X595500D01*
X590700Y161199D02*
X595500D01*
X591558Y160299D02*
X595500D01*
X592229Y159399D02*
X595500D01*
X592756Y158499D02*
X595500D01*
X593165Y157599D02*
X595500D01*
X593471Y156699D02*
X595500D01*
X593684Y155799D02*
X595500D01*
X593809Y154899D02*
X595500D01*
X593850Y153999D02*
X595500D01*
X593808Y153099D02*
X595500D01*
X593683Y152199D02*
X595500D01*
X593470Y151299D02*
X595500D01*
X593164Y150399D02*
X595500D01*
X592755Y149499D02*
X595500D01*
X592227Y148599D02*
X595500D01*
X591556Y147699D02*
X595500D01*
X590697Y146799D02*
X595500D01*
X589564Y145899D02*
X595500D01*
X587925Y144999D02*
X595500D01*
X399500Y144099D02*
X595500D01*
X399500Y143199D02*
X595500D01*
X399500Y142299D02*
X595500D01*
X399500Y141399D02*
X595500D01*
X399500Y140499D02*
X595500D01*
X399500Y139599D02*
X595500D01*
X399500Y138699D02*
X595500D01*
X399500Y137799D02*
X595500D01*
X399500Y136899D02*
X595500D01*
X399500Y135999D02*
X595500D01*
X399500Y135099D02*
X595500D01*
X585139Y134199D02*
X595500D01*
X588181Y133299D02*
X595500D01*
X590058Y132399D02*
X595500D01*
X591489Y131499D02*
X595500D01*
X592655Y130599D02*
X595500D01*
X593636Y129699D02*
X595500D01*
X594476Y128799D02*
X595475D01*
X191500Y365499D02*
X581538D01*
X399500Y346599D02*
X581183D01*
X399500Y144999D02*
X580075D01*
X408900Y162999D02*
X580069D01*
X399500Y364599D02*
X579249D01*
X399500Y347499D02*
X579075D01*
X399500Y134199D02*
X578861D01*
X399500Y145899D02*
X578436D01*
X409588Y162099D02*
X578432D01*
X399500Y363699D02*
X577886D01*
X399500Y348399D02*
X577764D01*
X399500Y146799D02*
X577303D01*
X410488Y161199D02*
X577300D01*
X123071Y466299D02*
X576929D01*
X399500Y362799D02*
X576892D01*
X399500Y349299D02*
X576799D01*
X399500Y147699D02*
X576444D01*
X411388Y160299D02*
X576442D01*
X399500Y361899D02*
X576124D01*
X399500Y350199D02*
X576052D01*
X399500Y133299D02*
X575819D01*
X399500Y148599D02*
X575773D01*
X412288Y159399D02*
X575771D01*
X399500Y360999D02*
X575521D01*
X399500Y351099D02*
X575464D01*
X399500Y149499D02*
X575245D01*
X413188Y158499D02*
X575244D01*
X399500Y360099D02*
X575048D01*
X399500Y351999D02*
X575004D01*
X399500Y150399D02*
X574836D01*
X414088Y157599D02*
X574835D01*
X125292Y467199D02*
X574708D01*
X399500Y359199D02*
X574687D01*
X399500Y352899D02*
X574654D01*
X399500Y151299D02*
X574530D01*
X414988Y156699D02*
X574529D01*
X399500Y358299D02*
X574423D01*
X399500Y353799D02*
X574400D01*
X399500Y357399D02*
X574250D01*
X399500Y354699D02*
X574237D01*
X399500Y356499D02*
X574163D01*
X399500Y355599D02*
X574158D01*
X399500Y132399D02*
X573942D01*
X126888Y468099D02*
X573112D01*
X572123Y310599D02*
X572877D01*
X572126Y321399D02*
X572874D01*
X399500Y131499D02*
X572511D01*
X128160Y468999D02*
X571840D01*
X128464Y495099D02*
X571536D01*
X399500Y105399D02*
X571348D01*
X399500Y130599D02*
X571345D01*
X129110Y494199D02*
X570890D01*
X129216Y469899D02*
X570784D01*
X399500Y106299D02*
X570367D01*
X399500Y129699D02*
X570364D01*
X130025Y493299D02*
X569975D01*
X130115Y470799D02*
X569885D01*
X399500Y107199D02*
X569527D01*
X399500Y128799D02*
X569524D01*
X130811Y492399D02*
X569189D01*
X130889Y471699D02*
X569111D01*
X410468Y310599D02*
X568877D01*
X443354Y321399D02*
X568874D01*
X399500Y108099D02*
X568801D01*
X399500Y127899D02*
X568799D01*
X399500Y317799D02*
X568561D01*
X419992Y314199D02*
X568561D01*
X131492Y491499D02*
X568508D01*
X131560Y472599D02*
X568440D01*
X410450Y311499D02*
X568209D01*
X399500Y320499D02*
X568208D01*
X399500Y108999D02*
X568172D01*
X399500Y126999D02*
X568170D01*
X419746Y315099D02*
X568168D01*
X399500Y316899D02*
X568167D01*
X399500Y318699D02*
X568132D01*
X419900Y313299D02*
X568131D01*
X419420Y312399D02*
X568002D01*
X399500Y319599D02*
X568002D01*
X419002Y315999D02*
X568000D01*
X557596Y490599D02*
X567918D01*
X132141Y473499D02*
X567859D01*
X399500Y109899D02*
X567626D01*
X399500Y126099D02*
X567624D01*
X559231Y489699D02*
X567406D01*
X132645Y474399D02*
X567355D01*
X399500Y110799D02*
X567154D01*
X399500Y125199D02*
X567153D01*
X560124Y488799D02*
X566966D01*
X133078Y475299D02*
X566922D01*
X399500Y111699D02*
X566751D01*
X399500Y124299D02*
X566750D01*
X560700Y487899D02*
X566590D01*
X133447Y476199D02*
X566553D01*
X399500Y112599D02*
X566409D01*
X399500Y123399D02*
X566408D01*
X561063Y486999D02*
X566275D01*
X133755Y477099D02*
X566245D01*
X399500Y113499D02*
X566126D01*
X399500Y122499D02*
X566125D01*
X561255Y486099D02*
X566017D01*
X134008Y477999D02*
X565992D01*
X399500Y114399D02*
X565898D01*
X399500Y121599D02*
X565897D01*
X561296Y485199D02*
X565813D01*
X134206Y478899D02*
X565794D01*
X399500Y115299D02*
X565723D01*
X399500Y120699D02*
X565722D01*
X561189Y484299D02*
X565661D01*
X134353Y479799D02*
X565647D01*
X399500Y116199D02*
X565599D01*
X399500Y119799D02*
X565598D01*
X560923Y483399D02*
X565559D01*
X558654Y480699D02*
X565551D01*
X399500Y117099D02*
X565525D01*
X399500Y118899D02*
X565524D01*
X560473Y482499D02*
X565508D01*
X559775Y481599D02*
X565505D01*
X399500Y117999D02*
X565500D01*
X540888Y453699D02*
X556857D01*
X547328Y408699D02*
X556857D01*
X547280Y438399D02*
X555771D01*
X531025Y393399D02*
X555771D01*
X132082Y490599D02*
X554004D01*
X542052Y452799D02*
X553385D01*
X547166Y407799D02*
X553385D01*
X547406Y439299D02*
X553208D01*
X532165Y394299D02*
X553208D01*
X134449Y480699D02*
X552946D01*
X132594Y489699D02*
X552369D01*
X543021Y451899D02*
X552051D01*
X546948Y406899D02*
X552051D01*
X547479Y440199D02*
X551937D01*
X533117Y395199D02*
X551937D01*
X134495Y481599D02*
X551825D01*
X133034Y488799D02*
X551476D01*
X543844Y450999D02*
X551143D01*
X546671Y405999D02*
X551143D01*
X134492Y482499D02*
X551127D01*
X547500Y441099D02*
X551061D01*
X536266Y396099D02*
X551061D01*
X133410Y487899D02*
X550900D01*
X134441Y483399D02*
X550677D01*
X133725Y486999D02*
X550537D01*
X544548Y450099D02*
X550481D01*
X546333Y405099D02*
X550481D01*
X547468Y441999D02*
X550421D01*
X538649Y396999D02*
X550421D01*
X134339Y484299D02*
X550411D01*
X133983Y486099D02*
X550345D01*
X134187Y485199D02*
X550304D01*
X545154Y449199D02*
X549996D01*
X545928Y404199D02*
X549996D01*
X547383Y442899D02*
X549952D01*
X540283Y397899D02*
X549952D01*
X545674Y448299D02*
X549651D01*
X545451Y403299D02*
X549651D01*
X547245Y443799D02*
X549621D01*
X541559Y398799D02*
X549621D01*
X546118Y447399D02*
X549428D01*
X544894Y402399D02*
X549428D01*
X547052Y444699D02*
X549411D01*
X542608Y399699D02*
X549411D01*
X546492Y446499D02*
X549316D01*
X544246Y401499D02*
X549316D01*
X546802Y445599D02*
X549310D01*
X543492Y400599D02*
X549310D01*
X224428Y456399D02*
X530231D01*
X224991Y455499D02*
X526519D01*
X225471Y454599D02*
X524562D01*
X225875Y453699D02*
X523112D01*
X226212Y452799D02*
X521948D01*
X226485Y451899D02*
X520979D01*
X223768Y390699D02*
X519526D01*
X226697Y450999D02*
X518090D01*
X224427Y391599D02*
X516268D01*
X226852Y450099D02*
X515560D01*
X224990Y392499D02*
X514387D01*
X226952Y449199D02*
X513873D01*
X225469Y393399D02*
X512975D01*
X226997Y448299D02*
X512566D01*
X225874Y394299D02*
X511835D01*
X226988Y447399D02*
X511497D01*
X226211Y395199D02*
X510883D01*
X226925Y446499D02*
X510597D01*
X226484Y396099D02*
X510075D01*
X226807Y445599D02*
X509830D01*
X226697Y396999D02*
X509381D01*
X226632Y444699D02*
X509171D01*
X226852Y397899D02*
X508786D01*
X226511Y443799D02*
X508605D01*
X226952Y398799D02*
X508274D01*
X226717Y442899D02*
X508120D01*
X226997Y399699D02*
X507839D01*
X226866Y441999D02*
X507708D01*
X226988Y400599D02*
X507472D01*
X226960Y441099D02*
X507363D01*
X226979Y431199D02*
X507262D01*
X226033Y421299D02*
X507230D01*
X226610Y411399D02*
X507199D01*
X226925Y401499D02*
X507168D01*
X226790Y410499D02*
X507167D01*
X226341Y420399D02*
X507137D01*
X226903Y430299D02*
X507108D01*
X226999Y440199D02*
X507079D01*
X227000Y432099D02*
X506999D01*
X225659Y422199D02*
X506973D01*
X226536Y412299D02*
X506948D01*
X226807Y402399D02*
X506924D01*
X226915Y409599D02*
X506924D01*
X226586Y419499D02*
X506900D01*
X226773Y429399D02*
X506877D01*
X226984Y439299D02*
X506855D01*
X226967Y432999D02*
X506793D01*
X225214Y423099D02*
X506774D01*
X226736Y413199D02*
X506755D01*
X226633Y403299D02*
X506737D01*
X226984Y408699D02*
X506737D01*
X226773Y418599D02*
X506719D01*
X226586Y428499D02*
X506703D01*
X226914Y438399D02*
X506687D01*
X226879Y433899D02*
X506643D01*
X224776Y423999D02*
X506630D01*
X226879Y414099D02*
X506617D01*
X226510Y404199D02*
X506605D01*
X226999Y407799D02*
X506605D01*
X226904Y417699D02*
X506593D01*
X226340Y427599D02*
X506583D01*
X226790Y437499D02*
X506573D01*
X226737Y434799D02*
X506547D01*
X225213Y424899D02*
X506539D01*
X226967Y414999D02*
X506532D01*
X226717Y405099D02*
X506526D01*
X226960Y406899D02*
X506526D01*
X226979Y416799D02*
X506521D01*
X226032Y426699D02*
X506516D01*
X226609Y436599D02*
X506512D01*
X226537Y435699D02*
X506503D01*
X225658Y425799D02*
X506501D01*
X227000Y415899D02*
X506500D01*
X226866Y405999D02*
X506500D01*
X456359Y333099D02*
X459141D01*
X456359Y306099D02*
X459141D01*
X456920Y325899D02*
X458580D01*
X453082Y284499D02*
X458418D01*
X457194Y332199D02*
X458306D01*
X457194Y305199D02*
X458306D01*
X457702Y326799D02*
X457798D01*
X453977Y287199D02*
X457523D01*
X454498Y275499D02*
X457002D01*
X454922Y283599D02*
X456578D01*
X455070Y288099D02*
X456430D01*
X455244Y276399D02*
X456256D01*
X450859Y333099D02*
X453641D01*
X450859Y306099D02*
X453641D01*
X451420Y325899D02*
X453080D01*
X447582Y284499D02*
X452918D01*
X451694Y332199D02*
X452806D01*
X451694Y305199D02*
X452806D01*
X452202Y326799D02*
X452298D01*
X448477Y287199D02*
X452023D01*
X448998Y275499D02*
X451502D01*
X449422Y283599D02*
X451078D01*
X449570Y288099D02*
X450930D01*
X449744Y276399D02*
X450756D01*
X423600Y297099D02*
X448363D01*
X399500Y333099D02*
X448141D01*
X430070Y306099D02*
X448141D01*
X423600Y301599D02*
X447992D01*
X444427Y325899D02*
X447580D01*
X423600Y302499D02*
X447501D01*
X423600Y297999D02*
X447501D01*
X399500Y329499D02*
X447497D01*
X424582Y284499D02*
X447418D01*
X399500Y332199D02*
X447306D01*
X428977Y305199D02*
X447306D01*
X423600Y300699D02*
X447306D01*
X443359Y328599D02*
X447254D01*
X444482Y326799D02*
X447100D01*
X399500Y330399D02*
X447073D01*
X423600Y303399D02*
X447073D01*
X423600Y298899D02*
X447073D01*
X399500Y331299D02*
X447018D01*
X423600Y304299D02*
X447018D01*
X423600Y299799D02*
X447018D01*
X444194Y327699D02*
X447008D01*
X423600Y287199D02*
X446523D01*
X423600Y296199D02*
X446310D01*
X423600Y291699D02*
X446013D01*
X426422Y283599D02*
X445578D01*
X423600Y292599D02*
X445430D01*
X423600Y288099D02*
X445430D01*
X423600Y295299D02*
X445364D01*
X423600Y290799D02*
X445364D01*
X423600Y293499D02*
X445051D01*
X423600Y288999D02*
X445051D01*
X423600Y294399D02*
X445032D01*
X423600Y289899D02*
X445032D01*
X441190Y282699D02*
X442810D01*
X441623Y274599D02*
X442377D01*
X439854Y321399D02*
X440646D01*
X439859Y328599D02*
X440641D01*
X437190Y282699D02*
X438810D01*
X437623Y274599D02*
X438377D01*
X436354Y321399D02*
X437146D01*
X436359Y328599D02*
X437141D01*
X433190Y282699D02*
X434810D01*
X433623Y274599D02*
X434377D01*
X399500Y321399D02*
X433646D01*
X399500Y328599D02*
X433641D01*
X399500Y324999D02*
X432902D01*
X399500Y322299D02*
X432808D01*
X399500Y327699D02*
X432806D01*
X399500Y325899D02*
X432573D01*
X399500Y324099D02*
X432573D01*
X399500Y323199D02*
X432518D01*
X399500Y326799D02*
X432518D01*
X426900Y282699D02*
X430810D01*
X420570Y274599D02*
X430377D01*
X423441Y278199D02*
X430163D01*
X423605Y279099D02*
X429930D01*
X426992Y281799D02*
X429864D01*
X420982Y275499D02*
X429709D01*
X422769Y277299D02*
X429631D01*
X425998Y279999D02*
X429551D01*
X426744Y280899D02*
X429532D01*
X421869Y276399D02*
X429502D01*
X424169Y305199D02*
X427023D01*
X410135Y309699D02*
X426810D01*
X408900Y259299D02*
X426517D01*
X408900Y254799D02*
X426315D01*
X408900Y258399D02*
X425428D01*
X408900Y255699D02*
X425365D01*
X408900Y257499D02*
X425050D01*
X408900Y256599D02*
X425032D01*
X423943Y284499D02*
X424418D01*
X409185Y308799D02*
X421829D01*
X399500Y307899D02*
X420929D01*
X399500Y306999D02*
X420029D01*
X399500Y306099D02*
X419487D01*
X399500Y305199D02*
X419400D01*
X399500Y304299D02*
X419400D01*
X399500Y303399D02*
X419400D01*
X399500Y302499D02*
X419400D01*
X399500Y301599D02*
X419400D01*
X399500Y300699D02*
X419400D01*
X399500Y299799D02*
X419400D01*
X404705Y298899D02*
X419400D01*
X406001Y297999D02*
X419400D01*
X406427Y297099D02*
X419400D01*
X406988Y296199D02*
X419400D01*
X407888Y295299D02*
X419400D01*
X408674Y294399D02*
X419400D01*
X408900Y293499D02*
X419400D01*
X408900Y292599D02*
X419400D01*
X408900Y291699D02*
X419400D01*
X408900Y290799D02*
X419400D01*
X408900Y289899D02*
X419400D01*
X408900Y288999D02*
X419400D01*
X408900Y288099D02*
X419400D01*
X408900Y281799D02*
X419400D01*
X408900Y280899D02*
X419400D01*
X408900Y279999D02*
X419394D01*
X408900Y279099D02*
X418629D01*
X408900Y282699D02*
X418023D01*
X408900Y287199D02*
X417810D01*
X408900Y273699D02*
X417523D01*
X408900Y278199D02*
X417310D01*
X408900Y283599D02*
X416930D01*
X408900Y286299D02*
X416864D01*
X408900Y284499D02*
X416551D01*
X408900Y285399D02*
X416532D01*
X408900Y274599D02*
X416430D01*
X408900Y277299D02*
X416364D01*
X408900Y275499D02*
X416051D01*
X408900Y276399D02*
X416032D01*
X399500Y315999D02*
X415998D01*
X410072Y312399D02*
X415580D01*
X399500Y315099D02*
X415254D01*
X408983Y313299D02*
X415100D01*
X399500Y314199D02*
X415008D01*
X399500Y152199D02*
X414396D01*
X399500Y153099D02*
X413214D01*
X399500Y153999D02*
X412314D01*
X399500Y154899D02*
X411414D01*
X399500Y155799D02*
X410514D01*
X399500Y156699D02*
X409614D01*
X399500Y157599D02*
X408714D01*
X399500Y158499D02*
X407814D01*
X399500Y313299D02*
X407017D01*
X399500Y159399D02*
X406914D01*
X399500Y308799D02*
X406815D01*
X399500Y160299D02*
X406014D01*
X399500Y312399D02*
X405928D01*
X399500Y309699D02*
X405865D01*
X399500Y311499D02*
X405550D01*
X399500Y310599D02*
X405532D01*
X399500Y161199D02*
X405277D01*
X399500Y291699D02*
X405100D01*
X399500Y290799D02*
X405100D01*
X399500Y289899D02*
X405100D01*
X399500Y288999D02*
X405100D01*
X399500Y288099D02*
X405100D01*
X399500Y229599D02*
X405100D01*
X399500Y228699D02*
X405100D01*
X399500Y227799D02*
X405100D01*
X399500Y226899D02*
X405100D01*
X399500Y225999D02*
X405100D01*
X399500Y225099D02*
X405100D01*
X399500Y224199D02*
X405100D01*
X399500Y223299D02*
X405100D01*
X399500Y222399D02*
X405100D01*
X399500Y221499D02*
X405100D01*
X399500Y220599D02*
X405100D01*
X399500Y219699D02*
X405100D01*
X399500Y218799D02*
X405100D01*
X399500Y217899D02*
X405100D01*
X399500Y216999D02*
X405100D01*
X399500Y216099D02*
X405100D01*
X399500Y215199D02*
X405100D01*
X399500Y214299D02*
X405100D01*
X399500Y213399D02*
X405100D01*
X399500Y212499D02*
X405100D01*
X399500Y211599D02*
X405100D01*
X399500Y210699D02*
X405100D01*
X399500Y209799D02*
X405100D01*
X399500Y208899D02*
X405100D01*
X399500Y207999D02*
X405100D01*
X399500Y207099D02*
X405100D01*
X399500Y206199D02*
X405100D01*
X399500Y205299D02*
X405100D01*
X399500Y204399D02*
X405100D01*
X399500Y203499D02*
X405100D01*
X399500Y202599D02*
X405100D01*
X399500Y201699D02*
X405100D01*
X399500Y200799D02*
X405100D01*
X399500Y199899D02*
X405100D01*
X399500Y198999D02*
X405100D01*
X399500Y198099D02*
X405100D01*
X399500Y197199D02*
X405100D01*
X399500Y196299D02*
X405100D01*
X399500Y195399D02*
X405100D01*
X399500Y194499D02*
X405100D01*
X399500Y193599D02*
X405100D01*
X399500Y192699D02*
X405100D01*
X399500Y191799D02*
X405100D01*
X399500Y190899D02*
X405100D01*
X399500Y189999D02*
X405100D01*
X399500Y189099D02*
X405100D01*
X399500Y188199D02*
X405100D01*
X399500Y187299D02*
X405100D01*
X399500Y186399D02*
X405100D01*
X399500Y185499D02*
X405100D01*
X399500Y184599D02*
X405100D01*
X399500Y183699D02*
X405100D01*
X399500Y182799D02*
X405100D01*
X399500Y181899D02*
X405100D01*
X399500Y180999D02*
X405100D01*
X399500Y180099D02*
X405100D01*
X399500Y179199D02*
X405100D01*
X399500Y178299D02*
X405100D01*
X399500Y177399D02*
X405100D01*
X399500Y176499D02*
X405100D01*
X399500Y175599D02*
X405100D01*
X399500Y174699D02*
X405100D01*
X399500Y173799D02*
X405100D01*
X399500Y172899D02*
X405100D01*
X399500Y171999D02*
X405100D01*
X399500Y171099D02*
X405100D01*
X399500Y170199D02*
X405100D01*
X399500Y169299D02*
X405100D01*
X399500Y168399D02*
X405100D01*
X399500Y167499D02*
X405100D01*
X399500Y166599D02*
X405100D01*
X399500Y165699D02*
X405100D01*
X399500Y164799D02*
X405100D01*
X399500Y163899D02*
X405100D01*
X399500Y162999D02*
X405100D01*
X399500Y162099D02*
X405100D01*
X399500Y292599D02*
X405091D01*
X399964Y230499D02*
X404636D01*
X399500Y293499D02*
X404314D01*
X399500Y298899D02*
X403295D01*
X399500Y294399D02*
X402646D01*
X399500Y297999D02*
X401999D01*
X399500Y295299D02*
X401808D01*
X399500Y297099D02*
X401573D01*
X399500Y296199D02*
X401518D01*
X191500Y385299D02*
X209021D01*
X191500Y462699D02*
X209008D01*
X191500Y386199D02*
X206124D01*
X191500Y461799D02*
X206118D01*
X191500Y387099D02*
X204348D01*
X191500Y460899D02*
X204343D01*
X191500Y387999D02*
X203002D01*
X191500Y459999D02*
X202998D01*
X191500Y388899D02*
X201910D01*
X191500Y459099D02*
X201907D01*
X191500Y389799D02*
X197171D01*
X191500Y458199D02*
X197163D01*
X191500Y390699D02*
X195066D01*
X191500Y457299D02*
X195061D01*
X191500Y391599D02*
X193562D01*
X191500Y456399D02*
X193558D01*
X191635Y392499D02*
X192371D01*
X191637Y455499D02*
X192368D01*
X104500Y463599D02*
X156684D01*
X104500Y462699D02*
X155784D01*
X104500Y461799D02*
X154884D01*
X130757Y460899D02*
X153984D01*
X132668Y459999D02*
X153084D01*
X133608Y459099D02*
X152184D01*
X134200Y458199D02*
X151284D01*
X134569Y457299D02*
X150384D01*
X144133Y456399D02*
X149484D01*
X146130Y455499D02*
X148584D01*
X134760Y456399D02*
X139867D01*
X134794Y455499D02*
X137870D01*
X134673Y454599D02*
X136714D01*
X104500Y443799D02*
X136315D01*
X104500Y442899D02*
X136038D01*
X104500Y441999D02*
X136000D01*
X104500Y441099D02*
X136000D01*
X104500Y440199D02*
X136000D01*
X104500Y439299D02*
X136000D01*
X104500Y438399D02*
X136000D01*
X104500Y437499D02*
X136000D01*
X104500Y436599D02*
X136000D01*
X104500Y435699D02*
X136000D01*
X104500Y434799D02*
X136000D01*
X104500Y433899D02*
X136000D01*
X104500Y432999D02*
X136000D01*
X104500Y432099D02*
X136000D01*
X104500Y431199D02*
X136000D01*
X104500Y430299D02*
X136000D01*
X104500Y429399D02*
X136000D01*
X104500Y428499D02*
X136000D01*
X104500Y427599D02*
X136000D01*
X104500Y426699D02*
X136000D01*
X104500Y425799D02*
X136000D01*
X104500Y424899D02*
X136000D01*
X104500Y423999D02*
X136000D01*
X104500Y423099D02*
X136000D01*
X104500Y422199D02*
X136000D01*
X104500Y421299D02*
X136000D01*
X104500Y420399D02*
X136000D01*
X104500Y419499D02*
X136000D01*
X104500Y418599D02*
X136000D01*
X104500Y417699D02*
X136000D01*
X104500Y416799D02*
X136000D01*
X104500Y415899D02*
X136000D01*
X104500Y414999D02*
X136000D01*
X104500Y414099D02*
X136000D01*
X104500Y413199D02*
X136000D01*
X104500Y412299D02*
X136000D01*
X104500Y411399D02*
X136000D01*
X104500Y410499D02*
X136000D01*
X104500Y409599D02*
X136000D01*
X104500Y408699D02*
X136000D01*
X104500Y407799D02*
X136000D01*
X104500Y406899D02*
X136000D01*
X104500Y405999D02*
X136000D01*
X104500Y405099D02*
X136000D01*
X104500Y404199D02*
X136000D01*
X134674Y393399D02*
X136000D01*
X134794Y392499D02*
X136000D01*
X134760Y391599D02*
X136000D01*
X134568Y390699D02*
X136000D01*
X134199Y389799D02*
X136000D01*
X133606Y388899D02*
X136000D01*
X132665Y387999D02*
X136000D01*
X130747Y387099D02*
X136000D01*
X104500Y386199D02*
X136000D01*
X104500Y385299D02*
X136000D01*
X104500Y384399D02*
X136000D01*
X104500Y383499D02*
X136000D01*
X104500Y382599D02*
X136000D01*
X104500Y381699D02*
X136000D01*
X104500Y380799D02*
X136000D01*
X104500Y379899D02*
X136000D01*
X104500Y378999D02*
X136000D01*
X104500Y378099D02*
X136000D01*
X104500Y377199D02*
X136000D01*
X104500Y376299D02*
X136000D01*
X104500Y375399D02*
X136000D01*
X104500Y374499D02*
X136000D01*
X104500Y373599D02*
X136000D01*
X104500Y372699D02*
X136000D01*
X104500Y371799D02*
X136000D01*
X104500Y370899D02*
X136000D01*
X104500Y369999D02*
X136000D01*
X104500Y369099D02*
X136000D01*
X104500Y368199D02*
X136000D01*
X104500Y367299D02*
X136000D01*
X104500Y366399D02*
X136000D01*
X104500Y365499D02*
X136000D01*
X134388Y394299D02*
X135902D01*
X134387Y453699D02*
X135900D01*
X104500Y444699D02*
X135613D01*
X104500Y403299D02*
X135612D01*
X133904Y395199D02*
X135304D01*
X133902Y452799D02*
X135302D01*
X104500Y445599D02*
X135092D01*
X104500Y402399D02*
X135091D01*
X133144Y396099D02*
X134867D01*
X133141Y451899D02*
X134866D01*
X104500Y446499D02*
X134718D01*
X104500Y401499D02*
X134717D01*
X131854Y396999D02*
X134565D01*
X131848Y450999D02*
X134564D01*
X104500Y447399D02*
X134468D01*
X104500Y400599D02*
X134468D01*
X104500Y397899D02*
X134379D01*
X104500Y450099D02*
X134379D01*
X104500Y448299D02*
X134332D01*
X104500Y399699D02*
X134332D01*
X104500Y398799D02*
X134303D01*
X104500Y449199D02*
X134303D01*
X104500Y387099D02*
X128253D01*
X104500Y460899D02*
X128243D01*
X104500Y450999D02*
X127152D01*
X104500Y396999D02*
X127146D01*
X104500Y387999D02*
X126335D01*
X104500Y459999D02*
X126332D01*
X104500Y451899D02*
X125859D01*
X104500Y396099D02*
X125856D01*
X104500Y388899D02*
X125394D01*
X104500Y459099D02*
X125392D01*
X104500Y452799D02*
X125098D01*
X104500Y395199D02*
X125096D01*
X104500Y389799D02*
X124801D01*
X104500Y458199D02*
X124800D01*
X104500Y453699D02*
X124613D01*
X104500Y394299D02*
X124612D01*
X104500Y390699D02*
X124432D01*
X104500Y457299D02*
X124431D01*
X104500Y454599D02*
X124327D01*
X104500Y393399D02*
X124326D01*
X104500Y391599D02*
X124240D01*
X104500Y456399D02*
X124240D01*
X104500Y455499D02*
X124206D01*
X104500Y392499D02*
X124206D01*
X104500Y466299D02*
X112929D01*
X104500Y467199D02*
X110708D01*
X104500Y468099D02*
X109112D01*
X104500Y468999D02*
X107840D01*
X104500Y469899D02*
X106784D01*
X104500Y470799D02*
X105885D01*
X100000Y500000D02*
X600000D01*
Y100000*
X100000*
Y500000*
G54D51*
X361500Y294000D02*
X376000D01*
X377500Y295500*
X418500Y276000D02*
X421500Y279000D01*
Y305500*
X423500Y307500*
X428000*
X366000Y323000D02*
X373000D01*
X377500Y318500*
Y295500*
G54D52*
X404000Y296500D02*
X407000Y293500D01*
Y162000*
X415000Y154000*
X584000*
G54D53*
X152367Y105600D03*
X132739Y127619D03*
X125119Y134096D03*
X115201Y135376D03*
X105600Y132581D03*
Y142581D03*
X142367Y105600D03*
X132780Y108444D03*
X135600Y118038D03*
X162367Y105600D03*
X219342D03*
X209342D03*
X199342D03*
X255301D03*
X315301D03*
X305301D03*
X295301D03*
X285301D03*
X275301D03*
X265301D03*
X325301D03*
X387400Y143974D03*
Y133974D03*
Y123974D03*
Y113974D03*
X381934Y105600D03*
X371934D03*
X361934D03*
X351934D03*
X341934D03*
X472193D03*
X462193D03*
X452193D03*
X442193D03*
X432193D03*
X422193D03*
X412193D03*
X402193D03*
X400600Y115472D03*
Y125472D03*
Y135472D03*
Y145472D03*
X552193Y105600D03*
X542193D03*
X532193D03*
X522193D03*
X512193D03*
X502193D03*
X492193D03*
X482193D03*
X594400Y142335D03*
X591644Y132723D03*
X582066Y135600D03*
X572468Y132795D03*
X565946Y125214D03*
X564608Y115304D03*
X562193Y105600D03*
X105600Y206581D03*
Y216581D03*
Y226581D03*
Y182581D03*
Y152581D03*
Y162581D03*
Y172581D03*
X304000Y223000D03*
Y215000D03*
X293000Y212000D03*
X274000Y221000D03*
X273000Y225000D03*
X286000Y220000D03*
X282000D03*
X339400Y211261D03*
X387400Y203974D03*
Y193974D03*
Y183974D03*
Y173974D03*
Y163974D03*
Y153974D03*
X344000Y228000D03*
X350000D03*
X356000D03*
X362000D03*
X368000D03*
X374000D03*
X380000D03*
X386000D03*
X344000Y222000D03*
X350000D03*
X356000D03*
X362000D03*
X368000D03*
X374000D03*
X380000D03*
X386000D03*
X344000Y216000D03*
X350000D03*
X356000D03*
X362000D03*
X368000D03*
X374000D03*
X380000D03*
X386000D03*
Y210000D03*
X380000D03*
X374000D03*
X368000D03*
X344000D03*
X362000D03*
X324500Y217000D03*
X350000Y210000D03*
X356000D03*
X400600Y155472D03*
Y165472D03*
Y175472D03*
Y185472D03*
Y195472D03*
X410065Y205400D03*
X420065D03*
X430065D03*
X440065D03*
X450065D03*
X460065D03*
X469987Y206649D03*
X470600Y216631D03*
Y226631D03*
X429000Y222000D03*
X423000D03*
X417000D03*
X411000D03*
X447000Y216000D03*
X441000D03*
X435000D03*
X429000D03*
X423000D03*
X417000D03*
X411000D03*
Y228000D03*
X417000D03*
X423000D03*
X429000D03*
X435000D03*
X441000D03*
X447000D03*
X453000D03*
X459000D03*
X465000D03*
Y222000D03*
X459000D03*
X453000D03*
X447000D03*
X441000D03*
X435000D03*
X411000Y210000D03*
X417000D03*
X423000D03*
X429000D03*
X435000D03*
X441000D03*
X447000D03*
X453000D03*
X459000D03*
X465000D03*
X453000Y216000D03*
X459000D03*
X465000D03*
X594400Y227419D03*
Y217419D03*
Y207419D03*
Y197419D03*
Y187419D03*
Y177419D03*
Y167419D03*
Y157419D03*
X105600Y236581D03*
Y246581D03*
Y272485D03*
Y282485D03*
Y292485D03*
Y302485D03*
X277000Y277500D03*
Y274500D03*
X295500Y271000D03*
X317500Y293500D03*
Y307000D03*
Y289000D03*
Y302500D03*
Y298000D03*
X282500Y231000D03*
X263500Y282000D03*
X262000Y307000D03*
X272500Y292000D03*
X275000Y293500D03*
X290000Y254500D03*
X290600Y296800D03*
X295500Y295000D03*
X258500Y271000D03*
X265000Y292000D03*
X258500Y274500D03*
X295800Y255000D03*
X261000Y286000D03*
X269000Y257500D03*
X255500Y266000D03*
X293000Y255000D03*
X271500Y259000D03*
X290800Y275000D03*
X298000Y252000D03*
X304000Y238200D03*
X313000Y254500D03*
X317000Y238000D03*
X304000Y245000D03*
X313000Y252000D03*
X296000Y233000D03*
X291000D03*
X282000Y240000D03*
X286000D03*
X285000Y231000D03*
X306000Y295000D03*
X299000D03*
X297000Y274500D03*
X304000Y258000D03*
X278000Y257000D03*
Y254500D03*
X272000Y274500D03*
Y277500D03*
X278000Y299000D03*
Y296000D03*
X304000Y287000D03*
Y280000D03*
X303000Y309000D03*
X306000D03*
X318000Y245500D03*
Y242500D03*
X304000Y266000D03*
X387500Y290500D03*
X327000Y242500D03*
X324000Y248500D03*
X386000Y240000D03*
X356000D03*
Y246000D03*
X344000Y240000D03*
X350000D03*
Y246000D03*
X344000D03*
Y234000D03*
X350000D03*
X356000D03*
X362000D03*
X368000D03*
X374000D03*
X380000D03*
X386000D03*
X321500Y281000D03*
X385500Y279500D03*
X363500Y251500D03*
X370000D03*
X363500Y247000D03*
X370000D03*
Y269500D03*
Y265000D03*
Y260500D03*
Y256000D03*
X376500D03*
Y260500D03*
Y265000D03*
Y269500D03*
X357000D03*
Y265000D03*
Y260500D03*
Y256000D03*
X363500D03*
Y260500D03*
Y265000D03*
Y269500D03*
X350500D03*
Y265000D03*
Y260500D03*
Y256000D03*
X344000D03*
Y260500D03*
Y265000D03*
Y269500D03*
Y302000D03*
X331000Y295500D03*
X344000Y297500D03*
X339500Y302000D03*
X348500Y297500D03*
X339500D03*
X348500Y302000D03*
X332000Y293000D03*
X375500Y276500D03*
X369000Y283000D03*
X345500Y282500D03*
X341000Y276000D03*
X333500Y252500D03*
X384500Y302000D03*
X356600Y301200D03*
X345500Y280000D03*
X358500Y298500D03*
X361500Y294000D03*
X341500Y285500D03*
X361500Y297000D03*
X334000Y307000D03*
X342600Y309400D03*
X349400Y309200D03*
X354000Y307000D03*
X321000Y245500D03*
X324000D03*
X327000D03*
X324000Y242500D03*
X327000Y248500D03*
X337000Y231000D03*
Y235000D03*
X336000Y243000D03*
Y247000D03*
X327000Y238000D03*
X321000Y248500D03*
Y242500D03*
X385000Y268500D03*
Y261500D03*
X443500Y270000D03*
X440500D03*
X435500D03*
X443500Y267000D03*
X432500Y270000D03*
X440500Y267000D03*
X435500D03*
X443500Y264000D03*
X432500Y267000D03*
X440500Y264000D03*
X435500D03*
X440000Y280500D03*
X432000D03*
X444000D03*
X436000D03*
X471266Y270400D03*
X470600Y236631D03*
Y246631D03*
X461422Y250600D03*
X437775D03*
X426092Y251201D03*
X400600Y250699D03*
X458500Y277500D03*
X404000Y296500D03*
X417000Y240000D03*
X423000D03*
X429000D03*
X435000D03*
X441000D03*
X447000D03*
X453000D03*
X459000D03*
X458500Y282000D03*
X453000Y277500D03*
X447500D03*
Y282000D03*
X458500Y289500D03*
Y294000D03*
X453000Y289500D03*
Y294000D03*
X447500Y289500D03*
X453000Y282000D03*
X402500Y234000D03*
Y240500D03*
X465000Y240000D03*
Y234000D03*
X459000D03*
X453000D03*
X447000D03*
X441000D03*
X435000D03*
X429000D03*
X423000D03*
X417000D03*
X411000D03*
X465000Y246000D03*
X459000D03*
X453000D03*
X447000D03*
X441000D03*
X435000D03*
X429000D03*
X455000Y299500D03*
X460500Y304000D03*
X455000D03*
X460500Y299500D03*
X449500Y304000D03*
X447500Y294000D03*
X449500Y299500D03*
X428000Y307500D03*
X418500Y276000D03*
X409500Y266500D03*
X402500Y277500D03*
X436000Y276500D03*
X444000D03*
X432000D03*
X427500Y257000D03*
X424500Y282000D03*
X402500Y282500D03*
X440000Y276500D03*
X422000Y261500D03*
X418000D03*
X414000D03*
X410000D03*
X440500Y259500D03*
X432500Y289000D03*
X438000Y297000D03*
X432500Y264000D03*
X435500Y259500D03*
X416500Y307000D03*
X443500Y259500D03*
X404000Y291500D03*
X419000Y285000D03*
Y296000D03*
X403000Y269000D03*
Y261500D03*
X481266Y270400D03*
X491266D03*
X501266D03*
X511266D03*
X521266D03*
X531249Y270986D03*
X538320Y278057D03*
X545391Y285128D03*
X552462Y292199D03*
X559533Y299271D03*
X594400Y297419D03*
Y287419D03*
Y277419D03*
Y267419D03*
Y257419D03*
Y247419D03*
Y237419D03*
X570500Y301500D03*
X574500D03*
X570500Y294500D03*
X574500D03*
Y298000D03*
X570500D03*
X126900Y352400D03*
X136900D03*
X105600Y342485D03*
X106900Y352400D03*
X105600Y312485D03*
Y322485D03*
Y332485D03*
X116900Y352400D03*
X125115Y366100D03*
X115115D03*
X105600Y369175D03*
Y379175D03*
Y389175D03*
X236900Y352400D03*
X196900D03*
X206900D03*
X216900D03*
X226900D03*
X231700Y366100D03*
X221700D03*
X211700D03*
X201700D03*
X192100Y368900D03*
X318127Y352400D03*
X246900D03*
X241700Y366100D03*
X290500Y315000D03*
X317000D03*
X318500Y334500D03*
Y322000D03*
X290500Y318000D03*
X260000Y329000D03*
X269000Y350000D03*
X261000D03*
X299000D03*
X291000D03*
X306000Y368000D03*
X299000D03*
X276000D03*
X284000D03*
X269000D03*
X314000D03*
X291000D03*
X261000D03*
X269000Y328000D03*
X272000D03*
X278000Y320000D03*
Y317000D03*
X305000Y320000D03*
X301000D03*
X338127Y352400D03*
X348127D03*
X328127D03*
X385900Y376049D03*
X384889Y366100D03*
X374889D03*
X364889D03*
X354889D03*
X344889D03*
X334889D03*
X324889D03*
X368127Y352400D03*
X378127D03*
X387400Y348656D03*
Y338656D03*
X358127Y352400D03*
X379500Y323000D03*
X370500Y325500D03*
X379500Y331000D03*
X366000Y323000D03*
X370500Y329500D03*
X386500Y315000D03*
X351000Y319000D03*
X331000Y315000D03*
X345000Y332000D03*
X348000D03*
X435000Y326500D03*
X438500D03*
X442000D03*
X435000Y323500D03*
X438500D03*
X442000D03*
X417500Y326500D03*
X421000D03*
X424500D03*
X417500Y323500D03*
X421000D03*
X424500D03*
X460500Y331000D03*
X455000Y327500D03*
Y331000D03*
X449500Y327500D03*
Y331000D03*
X417500Y314000D03*
X408000Y311000D03*
X407500Y321000D03*
X407000Y331000D03*
X460500Y327500D03*
X587631Y387600D03*
X577631D03*
X574500Y319500D03*
Y312500D03*
X570500D03*
Y316000D03*
X574500D03*
X570500Y319500D03*
X105600Y437668D03*
Y447668D03*
Y457668D03*
X108346Y467284D03*
X117921Y464400D03*
X127522Y467198D03*
X105600Y419175D03*
Y399175D03*
Y409175D03*
X116500Y421000D03*
Y425000D03*
X574521Y466068D03*
X584408Y464565D03*
X594400Y464961D03*
Y454961D03*
Y444961D03*
Y434961D03*
Y424961D03*
Y414961D03*
Y404961D03*
Y394961D03*
X134049Y474775D03*
X135394Y484684D03*
X137760Y494400D03*
X147760D03*
X157760D03*
X167760D03*
X177760D03*
X187760D03*
X197760D03*
X207760D03*
X217760D03*
X227760D03*
X237760D03*
X195500Y481000D03*
X190500D03*
X247760Y494400D03*
X257760D03*
X267760D03*
X277760D03*
X287760D03*
X297760D03*
X307760D03*
X317760D03*
X327760D03*
X337760D03*
X347760D03*
X357760D03*
X367760D03*
X377760D03*
X387760D03*
X397760D03*
X407760D03*
X417760D03*
X427760D03*
X437760D03*
X447760D03*
X457760D03*
X467760D03*
X477760D03*
X487760D03*
X497760D03*
X507760D03*
X517760D03*
X527760D03*
X537760D03*
X547760D03*
X557760D03*
X567439Y491886D03*
X564404Y482357D03*
X567049Y472714D03*
G74*
X0Y0D02*
M02*
