%
T1C.01F095S3
X013274Y012762
X013278Y010844
X01356Y011804
X014237Y01056
X015237Y01056
X016237Y01056
X019934Y01056
X020934Y01056
X021934Y01056
X02553Y01056
X02653Y01056
X02753Y01056
X02853Y01056
X02953Y01056
X03053Y01056
X03153Y01056
X03253Y01056
X034193Y01056
X035193Y01056
X036193Y01056
X037193Y01056
X038193Y01056
X03874Y011397
X03874Y012397
X04006Y011547
X04006Y012547
X040219Y01056
X041219Y01056
X042219Y01056
X043219Y01056
X044219Y01056
X045219Y01056
X046219Y01056
X047219Y01056
X048219Y01056
X049219Y01056
X050219Y01056
X051219Y01056
X052219Y01056
X053219Y01056
X054219Y01056
X055219Y01056
X056219Y01056
X056461Y01153
X056595Y012521
X05944Y014234
X05944Y017742
X05944Y016742
X05944Y015742
X059164Y013272
X058207Y01356
X057247Y01328
X04006Y014547
X04006Y015547
X04006Y016547
X04006Y017547
X04006Y013547
X03874Y015397
X03874Y017397
X03874Y016397
X03874Y013397
X03874Y014397
X012512Y01341
X01152Y013538
X01056Y016258
X01056Y014258
X01056Y013258
X01056Y017258
X01056Y015258
X01056Y018258
X01056Y022658
X01056Y020658
X01056Y021658
X0273Y0225
X0274Y0221
X0282Y022
X0286Y022
X0293Y0212
X0304Y0223
X0304Y0215
X03245Y0217
X03394Y021126
X0344Y0222
X0344Y0216
X0344Y021
X0344Y0228
X035Y0222
X035Y0216
X035Y021
X035Y0228
X0356Y0216
X0356Y0222
X0356Y021
X0356Y0228
X0362Y0216
X0362Y021
X0362Y0222
X0362Y0228
X0368Y0216
X0368Y021
X0368Y0222
X0368Y0228
X0374Y021
X0374Y0216
X0374Y0222
X0374Y0228
X038Y0228
X038Y0222
X038Y0216
X038Y021
X0386Y0228
X0386Y0222
X0386Y021
X0386Y0216
X03874Y018397
X03874Y020397
X03874Y019397
X04006Y019547
X04006Y018547
X041007Y02054
X0411Y0222
X0411Y0216
X0411Y0228
X0411Y021
X0417Y0222
X0417Y0216
X0417Y0228
X0417Y021
X042007Y02054
X0423Y0216
X0423Y0222
X0423Y0228
X0423Y021
X0429Y0222
X0429Y0228
X0429Y0216
X0429Y021
X043007Y02054
X0435Y0216
X0435Y0228
X0435Y0222
X0435Y021
X044007Y02054
X0441Y0222
X0441Y0228
X0441Y021
X0441Y0216
X0447Y0222
X0447Y0216
X0447Y021
X0447Y0228
X045007Y02054
X0453Y021
X0453Y0216
X0453Y0228
X0453Y0222
X0459Y0228
X0459Y0222
X0459Y021
X0459Y0216
X046007Y02054
X0465Y021
X0465Y0216
X0465Y0228
X0465Y0222
X046999Y020665
X04706Y021663
X04706Y022663
X05944Y021742
X05944Y022742
X05944Y020742
X05944Y018742
X05944Y019742
X05944Y024742
X05944Y023742
X04706Y023663
X04706Y024663
X0465Y024
X0465Y0234
X0465Y0246
X046142Y02506
X0459Y024
X0459Y0234
X0459Y0246
X0453Y024
X0453Y0234
X0453Y0246
X0447Y024
X0447Y0234
X0447Y0246
X0441Y024
X0441Y0234
X0441Y0246
X043777Y02506
X0435Y024
X0435Y0234
X0435Y0246
X0429Y024
X0429Y0234
X0429Y0246
X042609Y02512
X0423Y024
X0423Y0234
X0417Y024
X0417Y0234
X0411Y0234
X04025Y0234
X04025Y02405
X04006Y02507
X0386Y0234
X0386Y024
X038Y0234
X0374Y0234
X037Y0247
X037Y02515
X0368Y0234
X03635Y0247
X03635Y02515
X0362Y0234
X0356Y0246
X0356Y0234
X0356Y024
X035Y0246
X035Y0234
X035Y024
X0344Y0246
X0344Y024
X0344Y0234
X0337Y0231
X0337Y0235
X0336Y0243
X0336Y0247
X03335Y02525
X0327Y02425
X0327Y02485
X0327Y02455
X0327Y0238
X0324Y02455
X0324Y02425
X0324Y02485
X0321Y02455
X0321Y02485
X0321Y02425
X0318Y02455
X0318Y02425
X0317Y0238
X0313Y02545
X0313Y0252
X0304Y0245
X0304Y02382
X0298Y0252
X0296Y0233
X02958Y0255
X0293Y0255
X0291Y0233
X029Y02545
X0286Y024
X0285Y0231
X02825Y0231
X0282Y024
X0278Y02545
X01056Y023658
X01056Y024658
X01056Y027248
X02555Y0266
X02585Y0271
X02585Y02745
X0269Y02575
X02715Y0259
X0272Y02745
X0272Y02775
X0277Y02775
X0277Y02745
X0278Y0257
X02908Y0275
X02955Y0271
X0297Y02745
X0304Y0258
X0304Y028
X0304Y0266
X0341Y0276
X0344Y02695
X0344Y0256
X0344Y02605
X0344Y0265
X03455Y028
X03505Y02695
X03505Y0256
X03505Y0265
X03505Y02605
X0357Y02695
X0357Y0265
X0357Y02605
X0357Y0256
X03635Y0256
X03635Y02605
X03635Y0265
X03635Y02695
X037Y02695
X037Y0265
X037Y02605
X037Y0256
X03755Y02765
X03765Y02695
X03765Y0265
X03765Y0256
X03765Y02605
X0385Y02615
X0385Y02685
X03855Y02795
X04025Y02775
X0403Y0269
X0403Y02615
X04095Y02665
X041Y02615
X0414Y02615
X0418Y02615
X04185Y0276
X0422Y02615
X04275Y0257
X0432Y02765
X0432Y02805
X04325Y0267
X04325Y027
X04325Y0264
X04355Y0264
X04355Y0267
X04355Y027
X04355Y02595
X0436Y02765
X0436Y02805
X044Y02765
X044Y02805
X04405Y0264
X04405Y0267
X04405Y027
X04405Y02595
X04435Y0264
X04435Y02595
X04435Y027
X04435Y0267
X0444Y02765
X0444Y02805
X04475Y02775
X0453Y02775
X04585Y02775
X047127Y02704
X048127Y02704
X049127Y02704
X050127Y02704
X051127Y02704
X052127Y02704
X053125Y027099
X053832Y027806
X05944Y025742
X05944Y026742
X05944Y027742
X05944Y029742
X05944Y028742
X05745Y03015
X05745Y02945
X05745Y0298
X05705Y03015
X05705Y02945
X05705Y0298
X055953Y029927
X055246Y02922
X054539Y028513
X04605Y0304
X04605Y02995
X04585Y0282
X04585Y02895
X04585Y0294
X0455Y02995
X0455Y0304
X0453Y02895
X0453Y0294
X0453Y0282
X04495Y0304
X04495Y02995
X04475Y0294
X04475Y0282
X04475Y02895
X0438Y0297
X04325Y0289
X04245Y0282
X0419Y0285
X0419Y0296
X0404Y02965
X0404Y02915
X04025Y02825
X03875Y02905
X03845Y0302
X0369Y0283
X03615Y0297
X03615Y0294
X03585Y02985
X03566Y03012
X03485Y02975
X03485Y0302
X03455Y02825
X0344Y0302
X0344Y02975
X03415Y02855
X03395Y02975
X03395Y0302
X0332Y0293
X0331Y02955
X03215Y0281
X03175Y03025
X03175Y02935
X03175Y0289
X03175Y0298
X0306Y0295
X0304Y0287
X0299Y0295
X02955Y0295
X02906Y02968
X0278Y0296
X0278Y0299
X0275Y02935
X02725Y0292
X0265Y0292
X02635Y0282
X0261Y0286
X01056Y029248
X01056Y028248
X01056Y030248
X01056Y031248
X01056Y032248
X026Y0329
X0262Y0307
X0269Y0328
X0272Y0328
X0278Y032
X0278Y0317
X02905Y0315
X02905Y0318
X0301Y032
X0303Y0309
X0305Y032
X0306Y0309
X0317Y0315
X03175Y0307
X03185Y0322
X0331Y0315
X0334Y0307
X03426Y03094
X03494Y03092
X0351Y0319
X0354Y0307
X0366Y0323
X03705Y03255
X03705Y03295
X03795Y0323
X03865Y0315
X04075Y0321
X0408Y0311
X04165Y0307
X04175Y03265
X04175Y03235
X04175Y0314
X0421Y03265
X0421Y03235
X04245Y03265
X04245Y03235
X0428Y03075
X0435Y03235
X0435Y03265
X04385Y03235
X04385Y03265
X0442Y03265
X0442Y03235
X04495Y03275
X0455Y03275
X04605Y03275
X05705Y03125
X05705Y0316
X05705Y03195
X05745Y03125
X05745Y0316
X05745Y03195
X04605Y0331
X0455Y0331
X04495Y0331
X0407Y0331
X03874Y034866
X03874Y033866
X03795Y0331
X037813Y03524
X036813Y03524
X035813Y03524
X034813Y03524
X0348Y0332
X0345Y0332
X033813Y03524
X032813Y03524
X03185Y03345
X031813Y03524
X0299Y035
X0291Y035
X0269Y035
X0261Y035
X02469Y03524
X02369Y03524
X02269Y03524
X02169Y03524
X02069Y03524
X01969Y03524
X01369Y03524
X01269Y03524
X01169Y03524
X01069Y03524
X01056Y034248
X01056Y033248
X01056Y037918
X01056Y036918
X011512Y03661
X012512Y03661
X01921Y03689
X02017Y03661
X02117Y03661
X02217Y03661
X02317Y03661
X02417Y03661
X0261Y0368
X0269Y0368
X0276Y0368
X0284Y0368
X0291Y0368
X0299Y0368
X0306Y0368
X0314Y0368
X032489Y03661
X033489Y03661
X034489Y03661
X035489Y03661
X036489Y03661
X037489Y03661
X038489Y03661
X03859Y037605
X05944Y040496
X05944Y039496
X05944Y042496
X05944Y041496
X058763Y03876
X057763Y03876
X01165Y0421
X01165Y0425
X01056Y041918
X01056Y040918
X01056Y038918
X01056Y039918
X01056Y043767
X01056Y044767
X01056Y045767
X010835Y046728
X011792Y04644
X012752Y04672
X013405Y047477
X056705Y047271
X057452Y046607
X058441Y046457
X05944Y046496
X05944Y043496
X05944Y045496
X05944Y044496
X056744Y049189
X05644Y048236
X055776Y04944
X054776Y04944
X053776Y04944
X052776Y04944
X051776Y04944
X050776Y04944
X049776Y04944
X048776Y04944
X047776Y04944
X046776Y04944
X045776Y04944
X044776Y04944
X043776Y04944
X042776Y04944
X041776Y04944
X040776Y04944
X039776Y04944
X038776Y04944
X037776Y04944
X036776Y04944
X035776Y04944
X034776Y04944
X033776Y04944
X032776Y04944
X031776Y04944
X030776Y04944
X029776Y04944
X028776Y04944
X027776Y04944
X026776Y04944
X025776Y04944
X024776Y04944
X023776Y04944
X022776Y04944
X021776Y04944
X020776Y04944
X019776Y04944
X01955Y0481
X01905Y0481
X018776Y04944
X017776Y04944
X016776Y04944
X015776Y04944
X014776Y04944
X013776Y04944
X013539Y048468
T2C.035F197S55
X01995Y0157
X02195Y0157
T3C.036F197S55
X0168Y0402
X0174Y0402
X0202Y0404
X0212Y04
X0532Y0421
X0532Y0411
X0532Y0431
X0532Y0441
X0522Y0426
X0522Y0436
X0522Y0416
X0522Y0406
X0212Y0408
X0212Y0448
X0212Y044
X0212Y0432
X0212Y0416
X0202Y0436
X0202Y0444
X0202Y042
X0202Y0412
X0202Y0428
X0174Y0446
X0168Y0446
T4C.04F139S55
X0222Y03999
X0222Y04099
X0222Y04381
X0222Y04481
T5C.062F089S55
X01295Y039225
X0545Y0393
X0545Y0454
X01295Y045575
T6C.07F081S55
X01442Y01146
X05558Y04854
T7C.094F066S55
X0116Y0196
X0182Y0114
X0238Y0114
X0336Y0114
X0584Y0154
X0584Y0256
X0584Y0356
X0116Y026
T8C.128F035S794
X0142Y0399
X0557Y0401
X0557Y0446
X0142Y0449
T9C.188F035S1033
X0118Y0118
X0582Y0118
X0582Y0482
X0118Y0482
M30
