*
*
G04 PADS VX.1.1 Build Number: 678707 generated Gerber (RS-274-X) file*
G04 PC Version=2.1*
*
%IN "DC2047A REV03 (6-27-201"*%
*
%MOIN*%
*
%FSLAX35Y35*%
*
*
*
*
G04 PC Standard Apertures*
*
*
G04 Thermal Relief Aperture macro.*
%AMTER*
1,1,$1,0,0*
1,0,$1-$2,0,0*
21,0,$3,$4,0,0,45*
21,0,$3,$4,0,0,135*
%
*
*
G04 Annular Aperture macro.*
%AMANN*
1,1,$1,0,0*
1,0,$2,0,0*
%
*
*
G04 Odd Aperture macro.*
%AMODD*
1,1,$1,0,0*
1,0,$1-0.005,0,0*
%
*
*
G04 PC Custom Aperture Macros*
*
*
*
*
*
*
G04 PC Aperture Table*
*
%ADD010C,0.001*%
%ADD017R,0.06X0.06*%
%ADD018C,0.06*%
%ADD027C,0.15*%
%ADD028C,0.082*%
%ADD029C,0.128*%
%ADD044C,0.28*%
%ADD045O,0.171X0.17*%
%ADD046C,0.05*%
%ADD047C,0.055*%
%ADD048C,0.076*%
%ADD049C,0.07*%
%ADD050C,0.01*%
%ADD051C,0.012*%
%ADD052C,0.008*%
%ADD053C,0.02*%
*
*
*
*
G04 PC Circuitry*
G04 Layer Name DC2047A REV03 (6-27-201 - circuitry*
%LPD*%
*
*
G04 PC Custom Flashes*
G04 Layer Name DC2047A REV03 (6-27-201 - flashes*
%LPD*%
*
*
G04 PC Circuitry*
G04 Layer Name DC2047A REV03 (6-27-201 - circuitry*
%LPD*%
*
G54D10*
G54D17*
G01X219500Y157000D03*
G54D18*
X199500D03*
X532000Y441000D03*
X522000Y436000D03*
X532000Y431000D03*
X522000Y426000D03*
X532000Y421000D03*
X522000Y416000D03*
X532000Y411000D03*
X522000Y406000D03*
G54D27*
X238000Y114000D03*
X182000D03*
G54D28*
X545000Y454000D03*
Y393000D03*
G54D29*
X557000Y446000D03*
Y401000D03*
X142000Y399000D03*
Y449000D03*
G54D44*
X582000Y482000D03*
Y118000D03*
X118000D03*
Y482000D03*
G54D45*
X116000Y260000D03*
X584000Y154000D03*
X336000Y114000D03*
X584000Y356000D03*
Y256000D03*
X116000Y196000D03*
G54D46*
X202000Y444000D03*
Y436000D03*
Y428000D03*
Y420000D03*
Y412000D03*
Y404000D03*
X212000Y448000D03*
Y440000D03*
Y432000D03*
Y416000D03*
Y408000D03*
Y400000D03*
X174000Y446000D03*
Y402000D03*
X168000Y446000D03*
Y402000D03*
G54D47*
X222000Y448100D03*
Y438100D03*
Y409900D03*
Y399900D03*
G54D48*
X129500Y392250D03*
Y455750D03*
G54D49*
X555800Y485400D03*
X144200Y114600D03*
G54D50*
X324500Y217000D02*
Y229500D01*
X329500Y234500*
X313500Y281000D02*
Y332500D01*
X315500Y334500*
X318500*
X313500Y281000D02*
X317000Y277500D01*
X326000*
X329500Y274000*
Y234500*
X272500Y299000D02*
X275000Y301500D01*
X289600*
X290600Y300500*
Y296800*
X275000Y293500D02*
X290500D01*
X292500Y291500*
X297500*
X300000Y289000*
X290000Y254500D02*
Y258000D01*
X300000Y268000*
Y289000*
X295500Y295000D02*
X296500Y296000D01*
Y298000*
X265000Y292000D02*
Y294000D01*
X274500Y303500*
X291000*
X296500Y298000*
X262500Y255500D02*
Y281000D01*
X263500Y282000*
X262500Y255500D02*
X265800Y252200D01*
X294200*
X295800Y253800*
Y255000*
X271500Y259000D02*
X274000D01*
X278000Y263000*
X289500*
X290800Y264500*
Y275000*
X358500Y298500D02*
X359000Y299000D01*
Y308500*
X334000Y307000D02*
X334700Y306300D01*
X351200*
X353000Y304500*
Y300000*
X359000Y294000*
Y284500*
X360500Y283000*
X369000*
X404000Y296500D02*
Y312000D01*
X406000Y314000*
X417500*
X407500Y247500D02*
Y264500D01*
X409500Y266500*
X407500Y247500D02*
X410500Y244500D01*
X417500*
X422000Y240000*
X423000*
X318500Y322000D02*
Y320000D01*
X327000Y311500*
X347100*
X349400Y309200*
X255500Y310000D02*
Y272500D01*
X257000Y271000*
X258500*
X255500Y310000D02*
X260300Y314800D01*
X290500*
Y315000*
X351000Y319000D02*
Y313831D01*
X356600Y308231*
Y301200*
X348000Y332000D02*
X353500Y326500D01*
Y314000*
X359000Y308500*
X308500Y295000D02*
G75*
G03X308500I-2500J0D01*
G01X264500Y307000D02*
G03X264500I-2500J0D01*
G01X564700Y401000D02*
G03X564700I-7700J0D01*
G01Y446000D02*
G03X564700I-7700J0D01*
G01X561300Y485400D02*
G03X561300I-5500J0D01*
G01X430500Y307500D02*
G03X430500I-2500J0D01*
G01X421000Y276000D02*
G03X421000I-2500J0D01*
G01X134800Y392250D02*
G03X134800I-5300J0D01*
G01Y455750D02*
G03X134800I-5300J0D01*
G01X149700Y114600D02*
G03X149700I-5500J0D01*
G01X306500Y215000D02*
G03X306500I-2500J0D01*
G01Y223000D02*
G03X306500I-2500J0D01*
G01X295500Y212000D02*
G03X295500I-2500J0D01*
G01X344000Y285500D02*
G03X344000I-2500J0D01*
G01X467500Y209000D02*
Y247000D01*
G03X467000Y247500I-500J0*
G01X409000*
G03X408500Y247000I0J-500*
G01Y209000*
G03X409000Y208500I500J0*
G01X467000*
G03X467500Y209000I0J500*
G01X388500D02*
Y244000D01*
G03X388000Y244500I-500J0*
G01X381500*
G03X381100Y244300I0J-500*
G01X380700Y243900D02*
G03X381100Y244300I-1200J1600D01*
G01X380700Y243900D02*
G03X380500Y243500I300J-400D01*
G01Y237500*
X361500*
Y243000*
G03X361000Y243500I-500J-0*
G01X360500*
X360492D02*
G03X360500I8J2000D01*
G01X360492D02*
X360490D01*
X358500*
Y245490*
Y245492*
Y245500D02*
G03Y245492I2000J0D01*
G01Y245500D02*
Y250000D01*
G03X358000Y250500I-500J-0*
G01X343000*
G03X342500Y250000I0J-500*
G01Y209000*
G03X343000Y208500I500J0*
G01X388000*
G03X388500Y209000I0J500*
G01X310500Y254511D02*
Y331000D01*
G03X310000Y331500I-500J0*
G01X262236*
G03X261863Y330667I0J-500*
G01X258137D02*
G03X261863I1863J-1667D01*
G01X258137D02*
G03X257764Y331500I-373J333D01*
G01X225000*
G03X224500Y331000I0J-500*
G01Y281500*
X108207*
G03X107772Y281247I-0J-500*
G01X105933Y280007D02*
G03X107772Y281247I-333J2478D01*
G01X105933Y280007D02*
G03X105500Y279512I67J-495D01*
G01Y275458*
G03X105933Y274963I500J0*
G01Y270007D02*
G03Y274963I-333J2478D01*
G01Y270007D02*
G03X105500Y269512I67J-495D01*
G01Y249554*
G03X105933Y249059I500J0*
G01X107803Y247764D02*
G03X105933Y249059I-2203J-1183D01*
G01X107803Y247764D02*
G03X108243Y247500I440J236D01*
G01X303989*
X303991*
X304009D02*
G03X303991I-9J-2500D01*
G01X304009D02*
X304011D01*
X310000*
G03X310500Y248000I0J500*
G01Y251989*
Y251991*
Y252009D02*
G03Y251991I2500J-9D01*
G01Y252009D02*
Y252011D01*
Y254489*
Y254491*
Y254509D02*
G03Y254491I2500J-9D01*
G01Y254509D02*
Y254511D01*
X379500Y246500D02*
Y273000D01*
G03X379000Y273500I-500J0*
G01X341600*
G03X341100Y273000I0J-500*
G01Y254000*
X340938Y253192D02*
G03X341100Y254000I-1938J808D01*
G01X340938Y253192D02*
G03X341400Y252500I462J-192D01*
G01X342490*
X342492*
X342500D02*
G03X342492I0J-2000D01*
G01X342500D02*
X358500D01*
X358508D02*
G03X358500I-8J-2000D01*
G01X358508D02*
X358510D01*
X360500*
Y250510*
Y250508*
Y250500D02*
G03Y250508I-2000J0D01*
G01Y250500D02*
Y246000D01*
G03X361000Y245500I500J0*
G01X361500*
X361508D02*
G03X361500I-8J-2000D01*
G01X361508D02*
X361510D01*
X378500*
G03X378900Y245700I-0J500*
G01X379300Y246100D02*
G03X378900Y245700I1200J-1600D01*
G01X379300Y246100D02*
G03X379500Y246500I-300J400D01*
G01X405500Y271236D02*
Y285000D01*
G03X405000Y285500I-500J0*
G01X400000*
G03X399500Y285000I0J-500*
G01Y269011*
G03Y269000I500J0*
Y268989I500J-11*
G01Y261511*
G03Y261500I500J0*
Y261489I500J-11*
G01Y253639*
G03X400100Y253149I500J-0*
G01Y248250D02*
G03Y253149I500J2449D01*
G01Y248250D02*
G03X399500Y247760I-100J-490D01*
G01Y233000*
G03X400000Y232500I500J0*
G01X405000*
G03X405500Y233000I0J500*
G01Y247490*
Y247492*
Y247500D02*
G03Y247492I2000J0D01*
G01Y247500D02*
Y259264D01*
G03X404667Y259637I-500J-0*
G01X400500Y261491D02*
G03X404667Y259637I2500J9D01*
G01X400500Y261491D02*
G03Y261500I-500J-2D01*
Y261509I-500J11*
G01X404667Y263363D02*
G03X400500Y261509I-1667J-1863D01*
G01X404667Y263363D02*
G03X405500Y263736I333J373D01*
G01Y264500*
Y264508D02*
G03Y264500I2000J-8D01*
G01Y264508D02*
Y264510D01*
Y266764*
G03X404667Y267137I-500J-0*
G01X400500Y268991D02*
G03X404667Y267137I2500J9D01*
G01X400500Y268991D02*
G03Y269000I-500J-2D01*
Y269009I-500J11*
G01X404667Y270863D02*
G03X400500Y269009I-1667J-1863D01*
G01X404667Y270863D02*
G03X405500Y271236I333J373D01*
G01X595500Y128954D02*
Y471046D01*
G03X594618Y471368I-500J-0*
G01X571368Y494618D02*
G03X594618Y471368I10632J-12618D01*
G01X571368Y494618D02*
G03X571046Y495500I-322J382D01*
G01X128954*
G03X128632Y494618I0J-500*
G01X105382Y471368D02*
G03X128632Y494618I12618J10632D01*
G01X105382Y471368D02*
G03X104500Y471046I-382J-322D01*
G01Y365500*
G03X105000Y365000I500J0*
G01X135500*
G03X136000Y365500I-0J500*
G01Y394001*
G03X135896Y394306I-500J-0*
G01Y403694D02*
G03Y394306I6104J-4694D01*
G01Y403694D02*
G03X136000Y403999I-396J305D01*
G01Y442707*
X136146Y443061D02*
G03X136000Y442707I354J-354D01*
G01X136146Y443061D02*
X136253Y443167D01*
G03X136271Y443855I-354J354*
G01X147145Y454729D02*
G03X136271Y443855I-5145J-5729D01*
G01X147145Y454729D02*
G03X147833Y454747I334J372D01*
G01X156939Y463854*
X157293Y464000D02*
G03X156939Y463854I-0J-500D01*
G01X157293Y464000D02*
X191000D01*
X191500Y463500D02*
G03X191000Y464000I-500J0D01*
G01X191500Y463500D02*
Y455843D01*
G03X192323Y455461I500J-0*
G01X201615Y458995D02*
G03X192323Y455461I385J-14995D01*
G01X201615Y458995D02*
G03X201937Y459124I-13J500D01*
G01X226492Y444129D02*
G03X201937Y459124I-14492J3871D01*
G01X226492Y444129D02*
G03Y443871I483J-129D01*
G01Y436129D02*
G03Y443871I-14492J3871D01*
G01Y436129D02*
G03Y435871I483J-129D01*
G01X224848Y424258D02*
G03X226492Y435871I-12848J7742D01*
G01X224848Y424258D02*
G03Y423742I428J-258D01*
G01X226492Y412129D02*
G03X224848Y423742I-14492J3871D01*
G01X226492Y412129D02*
G03Y411871I483J-129D01*
G01Y404129D02*
G03Y411871I-14492J3871D01*
G01Y404129D02*
G03Y403871I483J-129D01*
G01X201937Y388876D02*
G03X226492Y403871I10063J11124D01*
G01X201937Y388876D02*
G03X201615Y389005I-335J-371D01*
G01X192323Y392539D02*
G03X201615Y389005I9677J11461D01*
G01X192323Y392539D02*
G03X191500Y392157I-323J-382D01*
G01Y365500*
G03X192000Y365000I500J0*
G01X399500*
Y288000*
G03X400000Y287500I500J0*
G01X405400*
G03X405900Y288000I-0J500*
G01Y293847*
G03X405167Y294289I-500J-0*
G01X401917Y297882D02*
G03X405167Y294289I2083J-1382D01*
G01X401917Y297882D02*
G03X402000Y298158I-417J276D01*
G01Y312000*
X402586Y313414D02*
G03X402000Y312000I1414J-1414D01*
G01X402586Y313414D02*
X404586Y315414D01*
X406000Y316000D02*
G03X404586Y315414I0J-2000D01*
G01X406000Y316000D02*
X415842D01*
G03X416118Y316083I-0J500*
G01Y311917D02*
G03Y316083I1382J2083D01*
G01Y311917D02*
G03X415842Y312000I-276J-417D01*
G01X410958*
G03X410465Y311417I0J-500*
G01X410167Y309753D02*
G03X410465Y311417I-2167J1247D01*
G01X410167Y309753D02*
G03X410100Y309503I433J-250D01*
G01Y287600*
G03X410600Y287100I500J0*
G01X417503*
G03X417753Y287167I0J500*
G01Y282833D02*
G03Y287167I1247J2167D01*
G01Y282833D02*
G03X417503Y282900I-250J-433D01*
G01X409500*
X408288Y283285D02*
G03X409500Y282900I1212J1715D01*
G01X408288Y283285D02*
G03X407500Y282876I-288J-409D01*
G01Y269098*
G03X408250Y268665I500J0*
G01X409996Y264050D02*
G03X408250Y268665I-496J2450D01*
G01X409996Y264050D02*
G03X409742Y263913I99J-490D01*
G01X409646Y263818*
G03X409500Y263464I354J-354*
G01Y250000*
G03X410000Y249500I500J0*
G01X467500*
X469500Y247500D02*
G03X467500Y249500I-2000J0D01*
G01X469500Y247500D02*
Y208500D01*
X467500Y206500D02*
G03X469500Y208500I0J2000D01*
G01X467500Y206500D02*
X408500D01*
X406500Y208500D02*
G03X408500Y206500I2000J0D01*
G01X406500Y208500D02*
Y230050D01*
G03X405900Y230540I-500J0*
G01X405500Y230500D02*
G03X405900Y230540I0J2000D01*
G01X405500Y230500D02*
X400000D01*
G03X399500Y230000I0J-500*
G01Y105000*
G03X400000Y104500I500J0*
G01X571046*
G03X571368Y105382I-0J500*
G01X594618Y128632D02*
G03X571368Y105382I-12618J-10632D01*
G01X594618Y128632D02*
G03X595500Y128954I382J322D01*
G01X458815Y296480D02*
G03X459149Y297397I63J496D01*
G01X458208Y298501D02*
G03X459149Y297397I2292J999D01*
G01X458208Y298501D02*
G03X457292I-458J-200D01*
G01X454685Y297020D02*
G03X457292Y298501I315J2480D01*
G01X454685Y297020D02*
G03X454351Y296103I-63J-496D01*
G01X455292Y294999D02*
G03X454351Y296103I-2292J-999D01*
G01X455292Y294999D02*
G03X456208I458J200D01*
G01X458815Y296480D02*
G03X456208Y294999I-315J-2480D01*
G01X453315Y296480D02*
G03X453649Y297397I63J496D01*
G01X452708Y298501D02*
G03X453649Y297397I2292J999D01*
G01X452708Y298501D02*
G03X451792I-458J-200D01*
G01X449185Y297020D02*
G03X451792Y298501I315J2480D01*
G01X449185Y297020D02*
G03X448851Y296103I-63J-496D01*
G01X449792Y294999D02*
G03X448851Y296103I-2292J-999D01*
G01X449792Y294999D02*
G03X450708I458J200D01*
G01X453315Y296480D02*
G03X450708Y294999I-315J-2480D01*
G01X388500Y105000D02*
Y206000D01*
G03X388000Y206500I-500J-0*
G01X342500*
X340500Y208500D02*
G03X342500Y206500I2000J0D01*
G01X340500Y208500D02*
Y250050D01*
G03X340100Y250540I-500J0*
G01X339368Y250851D02*
G03X340100Y250540I1132J1649D01*
G01X339368Y250851D02*
G03X338780Y250835I-283J-412D01*
G01X337500Y250400D02*
G03X338780Y250835I0J2100D01*
G01X337500Y250400D02*
X334997D01*
G03X334747Y250333I-0J-500*
G01X332250Y250335D02*
G03X334747Y250333I1250J2165D01*
G01X332250Y250335D02*
G03X331500Y249902I-250J-433D01*
G01Y234500*
X330914Y233086D02*
G03X331500Y234500I-1414J1414D01*
G01X330914Y233086D02*
X326646Y228818D01*
G03X326500Y228464I354J-354*
G01Y218658*
G03X326583Y218382I500J0*
G01X322417D02*
G03X326583I2083J-1382D01*
G01X322417D02*
G03X322500Y218658I-417J276D01*
G01Y229500*
X322526Y229820D02*
G03X322500Y229500I1974J-320D01*
G01X322526Y229820D02*
G03X322032Y230400I-494J80D01*
G01X303577*
G03X303223Y230254I-0J-500*
G01X291485Y218515*
X290000Y217900D02*
G03X291485Y218515I0J2100D01*
G01X290000Y217900D02*
X287497D01*
G03X287247Y217833I-0J-500*
G01X284333Y218137D02*
G03X287247Y217833I1667J1863D01*
G01X284333Y218137D02*
G03X283667I-333J-373D01*
G01X279501Y219917D02*
G03X283667Y218137I2499J83D01*
G01X279501Y219917D02*
G03X279002Y220400I-499J-17D01*
G01X276791*
G03X276326Y220083I0J-500*
G01X271821Y222226D02*
G03X276326Y220083I2179J-1226D01*
G01X271821Y222226D02*
G03X271655Y222893I-435J245D01*
G01X275499Y225083D02*
G03X271655Y222893I-2499J-83D01*
G01X275499Y225083D02*
G03X275998Y224600I499J17D01*
G01X288400*
G03X288900Y225100I-0J500*
G01Y231503*
G03X288833Y231753I-500J0*
G01X288677Y233925D02*
G03X288833Y231753I2323J-925D01*
G01X288677Y233925D02*
G03X288566Y234464I-464J185D01*
G01X285573Y237457*
G03X285350Y237586I-353J-354*
G01X284333Y238137D02*
G03X285350Y237586I1667J1863D01*
G01X284333Y238137D02*
G03X283667I-333J-373D01*
G01Y241863D02*
G03Y238137I-1667J-1863D01*
G01Y241863D02*
G03X284333I333J373D01*
G01X288414Y240650D02*
G03X284333Y241863I-2414J-650D01*
G01X288414Y240650D02*
G03X288543Y240427I483J130D01*
G01X291223Y237746*
G03X291577Y237600I354J354*
G01X301002*
G03X301501Y238117I-0J500*
G01X306499D02*
G03X301501I-2499J83D01*
G01X306499D02*
G03X306998Y237600I499J-17D01*
G01X314002*
G03X314501Y238083I-0J500*
G01X319104Y236650D02*
G03X314501Y238083I-2104J1350D01*
G01X319104Y236650D02*
G03X319039Y236499I421J-270D01*
G01X318485Y235515D02*
G03X319039Y236499I-1485J1485D01*
G01X318485Y235515D02*
X318423Y235454D01*
G03X318777Y234600I354J-354*
G01X323923*
G03X324277Y234746I0J500*
G01X324754Y235223*
G03X324900Y235577I-354J354*
G01Y236503*
G03X324833Y236753I-500J0*
G01X327000Y240500D02*
G03X324833Y236753I0J-2500D01*
G01X327000Y240500D02*
G03X327500Y241000I-0J500D01*
G01Y272964*
G03X327354Y273318I-500J0*
G01X325318Y275354*
G03X324964Y275500I-354J-354*
G01X317000*
X315586Y276086D02*
G03X317000Y275500I1414J1414D01*
G01X315586Y276086D02*
X313354Y278318D01*
G03X312500Y277964I-354J-354*
G01Y257500*
G03X313000Y257000I500J0*
G01X315273Y253458D02*
G03X313000Y257000I-2273J1042D01*
G01X315273Y253458D02*
G03Y253042I454J-208D01*
G01X313000Y249500D02*
G03X315273Y253042I0J2500D01*
G01X313000Y249500D02*
G03X312500Y249000I0J-500D01*
G01Y247500*
X310500Y245500D02*
G03X312500Y247500I0J2000D01*
G01X310500Y245500D02*
X307000D01*
G03X306500Y245000I0J-500*
G01X301500D02*
G03X306500I2500J0D01*
G01X301500D02*
G03X301000Y245500I-500J-0D01*
G01X105500*
X105100Y245540D02*
G03X105500Y245500I400J1960D01*
G01X105100Y245540D02*
G03X104500Y245050I-100J-490D01*
G01Y128954*
G03X105382Y128632I500J0*
G01X128632Y105382D02*
G03X105382Y128632I-10632J12618D01*
G01X128632Y105382D02*
G03X128954Y104500I322J-382D01*
G01X179657*
G03X179783Y105484I-0J500*
G01X184217D02*
G03X179783I-2217J8516D01*
G01X184217D02*
G03X184343Y104500I126J-484D01*
G01X235657*
G03X235783Y105484I-0J500*
G01X240217D02*
G03X235783I-2217J8516D01*
G01X240217D02*
G03X240343Y104500I126J-484D01*
G01X388000*
G03X388500Y105000I0J500*
G01Y247000D02*
Y277842D01*
G03X387583Y278118I-500J-0*
G01X384750Y277115D02*
G03X387583Y278118I750J2385D01*
G01X384750Y277115D02*
G03X384100Y276638I-150J-477D01*
G01Y247000*
G03X384600Y246500I500J0*
G01X388000*
G03X388500Y247000I0J500*
G01Y281158D02*
Y312402D01*
G03X387750Y312835I-500J-0*
G01X384917Y313065D02*
G03X387750Y312835I1583J1935D01*
G01X384917Y313065D02*
G03X384100Y312678I-317J-387D01*
G01Y298500*
Y297000*
Y282362*
G03X384750Y281885I500J-0*
G01X387583Y280882D02*
G03X384750Y281885I-2083J-1382D01*
G01X387583Y280882D02*
G03X388500Y281158I417J276D01*
G01Y317598D02*
Y353000D01*
G03X388000Y353500I-500J0*
G01X269011*
G03X269000I0J-500*
X268989I-11J-500*
G01X261011*
G03X261000I0J-500*
X260989I-11J-500*
G01X105000*
G03X104500Y353000I0J-500*
G01Y283950*
G03X105100Y283460I500J-0*
G01X105500Y283500D02*
G03X105100Y283460I0J-2000D01*
G01X105500Y283500D02*
X222000D01*
G03X222500Y284000I-0J500*
G01Y331500*
X224500Y333500D02*
G03X222500Y331500I0J-2000D01*
G01X224500Y333500D02*
X310500D01*
X311210Y333370D02*
G03X310500Y333500I-710J-1870D01*
G01X311210Y333370D02*
G03X311810Y333570I178J467D01*
G01X312086Y333914D02*
G03X311810Y333570I1414J-1414D01*
G01X312086Y333914D02*
X314086Y335914D01*
X315500Y336500D02*
G03X314086Y335914I0J-2000D01*
G01X315500Y336500D02*
X316842D01*
G03X317118Y336583I-0J500*
G01Y332417D02*
G03Y336583I1382J2083D01*
G01Y332417D02*
G03X316842Y332500I-276J-417D01*
G01X316536*
G03X316182Y332354I-0J-500*
G01X315646Y331818*
G03X315500Y331464I354J-354*
G01Y323658*
G03X316417Y323382I500J0*
G01X320788Y320992D02*
G03X316417Y323382I-2288J1008D01*
G01X320788Y320992D02*
G03X320892Y320437I457J-202D01*
G01X327682Y313646*
G03X328036Y313500I354J354*
G01X328172*
G03X328643Y314167I-0J500*
G01X333357D02*
G03X328643I-2357J833D01*
G01X333357D02*
G03X333828Y313500I471J-167D01*
G01X347100*
X348232Y313149D02*
G03X347100Y313500I-1132J-1649D01*
G01X348232Y313149D02*
G03X349012Y313615I283J412D01*
G01X349000Y313831D02*
G03X349012Y313615I2000J0D01*
G01X349000Y313831D02*
Y317342D01*
G03X348917Y317618I-500J-0*
G01X351000Y321500D02*
G03X348917Y317618I0J-2500D01*
G01X351000Y321500D02*
G03X351500Y322000I-0J500D01*
G01Y325464*
G03X351354Y325818I-500J0*
G01X347758Y329413*
G03X347504Y329550I-353J-353*
G01X346750Y329835D02*
G03X347504Y329550I1250J2165D01*
G01X346750Y329835D02*
G03X346250I-250J-433D01*
G01Y334165D02*
G03Y329835I-1250J-2165D01*
G01Y334165D02*
G03X346750I250J433D01*
G01X350450Y332496D02*
G03X346750Y334165I-2450J-496D01*
G01X350450Y332496D02*
G03X350587Y332242I490J99D01*
G01X354914Y327914*
X355500Y326500D02*
G03X354914Y327914I-2000J0D01*
G01X355500Y326500D02*
Y315036D01*
G03X355646Y314682I500J-0*
G01X360414Y309914*
X361000Y308500D02*
G03X360414Y309914I-2000J0D01*
G01X361000Y308500D02*
Y300000D01*
G03X361500Y299500I500J0*
G01X362747Y299167D02*
G03X361500Y299500I-1247J-2167D01*
G01X362747Y299167D02*
G03X362997Y299100I250J433D01*
G01X379400*
G03X379900Y299600I-0J500*
G01Y322923*
G03X379754Y323277I-500J0*
G01X375777Y327254*
G03X375423Y327400I-354J-354*
G01X373153*
G03X372711Y326667I0J-500*
G01X369249Y323336D02*
G03X372711Y326667I1251J2164D01*
G01X369249Y323336D02*
G03X368499Y322919I-251J-433D01*
G01X367251Y325164D02*
G03X368499Y322919I-1251J-2164D01*
G01X367251Y325164D02*
G03X368001Y325581I251J433D01*
G01X368637Y327167D02*
G03X368001Y325581I1863J-1667D01*
G01X368637Y327167D02*
G03Y327833I-373J333D01*
G01X371747Y331667D02*
G03X368637Y327833I-1247J-2167D01*
G01X371747Y331667D02*
G03X371997Y331600I250J433D01*
G01X376500*
X377985Y330985D02*
G03X376500Y331600I-1485J-1485D01*
G01X377985Y330985D02*
X383485Y325485D01*
X384100Y324000D02*
G03X383485Y325485I-2100J0D01*
G01X384100Y324000D02*
Y317322D01*
G03X384917Y316935I500J-0*
G01X387750Y317165D02*
G03X384917Y316935I-1250J-2165D01*
G01X387750Y317165D02*
G03X388500Y317598I250J433D01*
G01X379900Y276000D02*
Y294400D01*
G03X379400Y294900I-500J-0*
G01X364473*
G03X363978Y294333I0J-500*
G01X361500Y291500D02*
G03X363978Y294333I0J2500D01*
G01X361500Y291500D02*
G03X361000Y291000I0J-500D01*
G01Y285536*
G03X361146Y285182I500J-0*
G01X361182Y285146*
G03X361536Y285000I354J354*
G01X367342*
G03X367618Y285083I-0J500*
G01Y280917D02*
G03Y285083I1382J2083D01*
G01Y280917D02*
G03X367342Y281000I-276J-417D01*
G01X360500*
X359086Y281586D02*
G03X360500Y281000I1414J1414D01*
G01X359086Y281586D02*
X357586Y283086D01*
X357000Y284500D02*
G03X357586Y283086I2000J0D01*
G01X357000Y284500D02*
Y292964D01*
G03X356854Y293318I-500J0*
G01X351586Y298586*
X351000Y300000D02*
G03X351586Y298586I2000J0D01*
G01X351000Y300000D02*
Y303464D01*
G03X350854Y303818I-500J0*
G01X350518Y304154*
G03X350164Y304300I-354J-354*
G01X334700*
X333885Y304474D02*
G03X334700Y304300I815J1826D01*
G01X333885Y304474D02*
G03X333734Y304514I-204J-457D01*
G01X332137Y308667D02*
G03X333734Y304514I1863J-1667D01*
G01X332137Y308667D02*
G03X331764Y309500I-373J333D01*
G01X327000*
X325586Y310086D02*
G03X327000Y309500I1414J1414D01*
G01X325586Y310086D02*
X317086Y318586D01*
X316500Y319988D02*
G03X317086Y318586I2000J12D01*
G01X316500Y319988D02*
G03X315500Y319986I-500J-2D01*
G01Y282036*
G03X315646Y281682I500J-0*
G01X317682Y279646*
G03X318036Y279500I354J354*
G01X318672*
G03X319143Y280167I-0J500*
G01X323857D02*
G03X319143I-2357J833D01*
G01X323857D02*
G03X324328Y279500I471J-167D01*
G01X326000*
X327414Y278914D02*
G03X326000Y279500I-1414J-1414D01*
G01X327414Y278914D02*
X330914Y275414D01*
X331500Y274000D02*
G03X330914Y275414I-2000J0D01*
G01X331500Y274000D02*
Y255098D01*
G03X332250Y254665I500J0*
G01X334747Y254667D02*
G03X332250Y254665I-1247J-2167D01*
G01X334747Y254667D02*
G03X334997Y254600I250J433D01*
G01X336400*
G03X336900Y255100I-0J500*
G01Y275000*
X337515Y276485D02*
G03X336900Y275000I1485J-1485D01*
G01X337515Y276485D02*
X338515Y277485D01*
X339499Y278039D02*
G03X338515Y277485I501J-2039D01*
G01X339499Y278039D02*
G03X339650Y278104I-119J486D01*
G01X343500Y276000D02*
G03X339650Y278104I-2500J0D01*
G01X343500Y276000D02*
G03X344000Y275500I500J0D01*
G01X379400*
G03X379900Y276000I-0J500*
G01X308500Y295000D02*
G03X308500I-2500J0D01*
G01X302000Y289000D02*
Y268000D01*
X301414Y266586D02*
G03X302000Y268000I-1414J1414D01*
G01X301414Y266586D02*
X293141Y258313D01*
G03X293412Y257466I354J-354*
G01X294167Y257211D02*
G03X293412Y257466I-1167J-2211D01*
G01X294167Y257211D02*
G03X294633I233J442D01*
G01X298298Y254910D02*
G03X294633Y257211I-2498J90D01*
G01X298298Y254910D02*
G03X298665Y254410I500J-18D01*
G01X296030Y250461D02*
G03X298665Y254410I1970J1539D01*
G01X296030Y250461D02*
G03X295349Y250563I-394J-308D01*
G01X294200Y250200D02*
G03X295349Y250563I0J2000D01*
G01X294200Y250200D02*
X265800D01*
X264386Y250786D02*
G03X265800Y250200I1414J1414D01*
G01X264386Y250786D02*
X261086Y254086D01*
X260500Y255500D02*
G03X261086Y254086I2000J0D01*
G01X260500Y255500D02*
Y268402D01*
G03X259750Y268835I-500J-0*
G01X257755Y268613D02*
G03X259750Y268835I745J2387D01*
G01X257755Y268613D02*
G03X257255Y267780I-149J-477D01*
G01X255500Y268500D02*
G03X257255Y267780I0J-2500D01*
G01X255500Y268500D02*
G03X255800Y269400I-0J500D01*
G01X255586Y269586D02*
G03X255800Y269400I1414J1414D01*
G01X255586Y269586D02*
X254086Y271086D01*
X253500Y272500D02*
G03X254086Y271086I2000J0D01*
G01X253500Y272500D02*
Y310000D01*
X254086Y311414D02*
G03X253500Y310000I1414J-1414D01*
G01X254086Y311414D02*
X258886Y316214D01*
X260300Y316800D02*
G03X258886Y316214I0J-2000D01*
G01X260300Y316800D02*
X275015D01*
G03X275513Y317250I0J500*
G01X275835Y318250D02*
G03X275513Y317250I2165J-1250D01*
G01X275835Y318250D02*
G03Y318750I-433J250D01*
G01X280165D02*
G03X275835I-2165J1250D01*
G01X280165D02*
G03Y318250I433J-250D01*
G01X280487Y317250D02*
G03X280165Y318250I-2487J-250D01*
G01X280487Y317250D02*
G03X280985Y316800I498J50D01*
G01X287583*
G03X288069Y317417I-0J500*
G01X292665Y316750D02*
G03X288069Y317417I-2165J1250D01*
G01X292665Y316750D02*
G03Y316250I433J-250D01*
G01X289410Y312750D02*
G03X292665Y316250I1090J2250D01*
G01X289410Y312750D02*
G03X289192Y312800I-218J-450D01*
G01X261336*
G03X260982Y312654I-0J-500*
G01X257646Y309318*
G03X257500Y308964I354J-354*
G01Y286016*
G03Y286000I500J-0*
Y285984I500J-16*
G01Y277458*
G03X258083Y276965I500J0*
G01X259750Y276665D02*
G03X258083Y276965I-1250J-2165D01*
G01X259750Y276665D02*
G03X260500Y277098I250J433D01*
G01Y281000*
X260944Y282256D02*
G03X260500Y281000I1556J-1256D01*
G01X260944Y282256D02*
G03X261046Y282475I-389J314D01*
G01X261148Y282848D02*
G03X261046Y282475I2352J-848D01*
G01X261148Y282848D02*
G03X260731Y283514I-470J169D01*
G01X258500Y285987D02*
G03X260731Y283514I2500J13D01*
G01X258500Y285987D02*
G03Y286000I-500J-3D01*
Y286013I-500J16*
G01X263352Y285152D02*
G03X258500Y286013I-2352J848D01*
G01X263352Y285152D02*
G03X263769Y284486I470J-169D01*
G01X264750Y279835D02*
G03X263769Y284486I-1250J2165D01*
G01X264750Y279835D02*
G03X264500Y279402I250J-433D01*
G01Y256536*
G03X264646Y256182I500J-0*
G01X266482Y254346*
G03X266836Y254200I354J354*
G01X267923*
G03X268102Y255167I-0J500*
G01X268917Y259999D02*
G03X268102Y255167I83J-2499D01*
G01X268917Y259999D02*
G03X269334Y260249I-16J499D01*
G01X272783Y261146D02*
G03X269334Y260249I-1283J-2146D01*
G01X272783Y261146D02*
G03X273393Y261221I256J429D01*
G01X276586Y264414*
X278000Y265000D02*
G03X276586Y264414I0J-2000D01*
G01X278000Y265000D02*
X288300D01*
G03X288800Y265500I-0J500*
G01Y273342*
G03X288717Y273618I-500J-0*
G01X292883D02*
G03X288717I-2083J1382D01*
G01X292883D02*
G03X292800Y273342I417J-276D01*
G01Y264836*
G03X293654Y264482I500J-0*
G01X297854Y268682*
G03X298000Y269036I-354J354*
G01Y271542*
G03X297417Y272035I-500J-0*
G01Y276965D02*
G03Y272035I-417J-2465D01*
G01Y276965D02*
G03X298000Y277458I83J493D01*
G01Y287964*
G03X297854Y288318I-500J0*
G01X296818Y289354*
G03X296464Y289500I-354J-354*
G01X292500*
X291086Y290086D02*
G03X292500Y289500I1414J1414D01*
G01X291086Y290086D02*
X289818Y291354D01*
G03X289464Y291500I-354J-354*
G01X276658*
G03X276382Y291417I0J-500*
G01X275083Y291001D02*
G03X276382Y291417I-83J2499D01*
G01X275083Y291001D02*
G03X274666Y290751I16J-499D01*
G01X270500Y293500D02*
G03X274666Y290751I2000J-1500D01*
G01X270500Y293500D02*
G03X270600Y293800I-400J300D01*
G01Y295564*
G03X269746Y295918I-500J0*
G01X267392Y293563*
G03X267288Y293008I353J-353*
G01X262917Y293382D02*
G03X267288Y293008I2083J-1382D01*
G01X262917Y293382D02*
G03X263000Y293658I-417J276D01*
G01Y294000*
X263586Y295414D02*
G03X263000Y294000I1414J-1414D01*
G01X263586Y295414D02*
X273086Y304914D01*
X274500Y305500D02*
G03X273086Y304914I0J-2000D01*
G01X274500Y305500D02*
X291000D01*
X292414Y304914D02*
G03X291000Y305500I-1414J-1414D01*
G01X292414Y304914D02*
X297914Y299414D01*
X298500Y298000D02*
G03X297914Y299414I-2000J0D01*
G01X298500Y298000D02*
G03X299000Y297500I500J0D01*
G01X300049Y292731D02*
G03X299000Y297500I-1049J2269D01*
G01X300049Y292731D02*
G03X299905Y291923I210J-454D01*
G01X301414Y290414*
X302000Y289000D02*
G03X301414Y290414I-2000J0D01*
G01X264500Y307000D02*
G03X264500I-2500J0D01*
G01X279165Y276250D02*
G03X274917Y278882I-2165J1250D01*
G01X279165Y276250D02*
G03Y275750I433J-250D01*
G01X274917Y273118D02*
G03X279165Y275750I2083J1382D01*
G01X274917Y273118D02*
G03X274083I-417J-276D01*
G01X269835Y275750D02*
G03X274083Y273118I2165J-1250D01*
G01X269835Y275750D02*
G03Y276250I-433J250D01*
G01X274083Y278882D02*
G03X269835Y276250I-2083J-1382D01*
G01X274083Y278882D02*
G03X274917I417J276D01*
G01X584050Y144200D02*
G03Y163800I0J9800D01*
G01Y144200D02*
X583950D01*
Y163800D02*
G03Y144200I0J-9800D01*
G01Y163800D02*
X584050D01*
X576531Y318042D02*
G03X572833Y321363I-2031J1458D01*
G01X576531Y318042D02*
G03Y317458I406J-292D01*
G01Y314542D02*
G03Y317458I-2031J1458D01*
G01Y314542D02*
G03Y313958I406J-292D01*
G01X572833Y310637D02*
G03X576531Y313958I1667J1863D01*
G01X572833Y310637D02*
G03X572167I-333J-373D01*
G01X568469Y313958D02*
G03X572167Y310637I2031J-1458D01*
G01X568469Y313958D02*
G03Y314542I-406J292D01*
G01Y317458D02*
G03Y314542I2031J-1458D01*
G01Y317458D02*
G03Y318042I-406J292D01*
G01X572167Y321363D02*
G03X568469Y318042I-1667J-1863D01*
G01X572167Y321363D02*
G03X572833I333J373D01*
G01X584050Y346200D02*
G03Y365800I0J9800D01*
G01Y346200D02*
X583950D01*
Y365800D02*
G03Y346200I0J-9800D01*
G01Y365800D02*
X584050D01*
X564700Y401000D02*
G03X564700I-7700J0D01*
G01Y446000D02*
G03X564700I-7700J0D01*
G01X561300Y485400D02*
G03X561300I-5500J0D01*
G01X546724Y436156D02*
G03X520661Y451568I-14724J4844D01*
G01X546724Y436156D02*
G03Y435844I475J-156D01*
G01Y426156D02*
G03Y435844I-14724J4844D01*
G01Y426156D02*
G03Y425844I475J-156D01*
G01Y416156D02*
G03Y425844I-14724J4844D01*
G01Y416156D02*
G03Y415844I475J-156D01*
G01X533651Y395588D02*
G03X546724Y415844I-1651J15412D01*
G01X533651Y395588D02*
G03X533339Y395432I53J-497D01*
G01X507276Y410844D02*
G03X533339Y395432I14724J-4844D01*
G01X507276Y410844D02*
G03Y411156I-475J156D01*
G01Y420844D02*
G03Y411156I14724J-4844D01*
G01Y420844D02*
G03Y421156I-475J156D01*
G01Y430844D02*
G03Y421156I14724J-4844D01*
G01Y430844D02*
G03Y431156I-475J156D01*
G01X520349Y451412D02*
G03X507276Y431156I1651J-15412D01*
G01X520349Y451412D02*
G03X520661Y451568I-53J497D01*
G01X460154Y280125D02*
G03X456208Y282999I-1654J1875D01*
G01X460154Y280125D02*
G03Y279375I330J-375D01*
G01X456208Y276501D02*
G03X460154Y279375I2292J999D01*
G01X456208Y276501D02*
G03X455292I-458J-200D01*
G01X450708D02*
G03X455292I2292J999D01*
G01X450708D02*
G03X449792I-458J-200D01*
G01X446588Y275172D02*
G03X449792Y276501I912J2328D01*
G01X446588Y275172D02*
G03X446004Y275006I-183J-465D01*
G01X442333Y274637D02*
G03X446004Y275006I1667J1863D01*
G01X442333Y274637D02*
G03X441667I-333J-373D01*
G01X438333D02*
G03X441667I1667J1863D01*
G01X438333D02*
G03X437667I-333J-373D01*
G01X434333D02*
G03X437667I1667J1863D01*
G01X434333D02*
G03X433667I-333J-373D01*
G01X430750Y274335D02*
G03X433667Y274637I1250J2165D01*
G01X430750Y274335D02*
G03X430000Y273902I-250J-433D01*
G01Y257000*
X425000D02*
G03X430000I2500J0D01*
G01X425000D02*
Y277757D01*
G03X424854Y278111I-500J0*
G01X422732Y280232*
X426268Y283768D02*
G03X422732Y280232I-1768J-1768D01*
G01X426268Y283768D02*
X428837Y281199D01*
G03X429659Y281377I354J353*
G01X433667Y282363D02*
G03X429659Y281377I-1667J-1863D01*
G01X433667Y282363D02*
G03X434333I333J373D01*
G01X437667D02*
G03X434333I-1667J-1863D01*
G01X437667D02*
G03X438333I333J373D01*
G01X441667D02*
G03X438333I-1667J-1863D01*
G01X441667D02*
G03X442333I333J373D01*
G01X444697Y282901D02*
G03X442333Y282363I-697J-2401D01*
G01X444697Y282901D02*
G03X445281Y283151I140J480D01*
G01X449792Y282999D02*
G03X445281Y283151I-2292J-999D01*
G01X449792Y282999D02*
G03X450708I458J200D01*
G01X455292D02*
G03X450708I-2292J-999D01*
G01X455292D02*
G03X456208I458J200D01*
G01X462154Y302125D02*
G03X458208Y304999I-1654J1875D01*
G01X462154Y302125D02*
G03Y301375I330J-375D01*
G01X460185Y297020D02*
G03X462154Y301375I315J2480D01*
G01X460185Y297020D02*
G03X459851Y296103I-63J-496D01*
G01X460154Y292125D02*
G03X459851Y296103I-1654J1875D01*
G01X460154Y292125D02*
G03Y291375I330J-375D01*
G01X456208Y288501D02*
G03X460154Y291375I2292J999D01*
G01X456208Y288501D02*
G03X455292I-458J-200D01*
G01X450708D02*
G03X455292I2292J999D01*
G01X450708D02*
G03X449792I-458J-200D01*
G01X445846Y291375D02*
G03X449792Y288501I1654J-1875D01*
G01X445846Y291375D02*
G03Y292125I-330J375D01*
G01X447815Y296480D02*
G03X445846Y292125I-315J-2480D01*
G01X447815Y296480D02*
G03X448149Y297397I63J496D01*
G01X447846Y301375D02*
G03X448149Y297397I1654J-1875D01*
G01X447846Y301375D02*
G03Y302125I-330J375D01*
G01X451792Y304999D02*
G03X447846Y302125I-2292J-999D01*
G01X451792Y304999D02*
G03X452708I458J200D01*
G01X457292D02*
G03X452708I-2292J-999D01*
G01X457292D02*
G03X458208I458J200D01*
G01X462531Y329542D02*
G03X458208Y331999I-2031J1458D01*
G01X462531Y329542D02*
G03Y328958I406J-292D01*
G01X458208Y326501D02*
G03X462531Y328958I2292J999D01*
G01X458208Y326501D02*
G03X457292I-458J-200D01*
G01X452708D02*
G03X457292I2292J999D01*
G01X452708D02*
G03X451792I-458J-200D01*
G01X447469Y328958D02*
G03X451792Y326501I2031J-1458D01*
G01X447469Y328958D02*
G03Y329542I-406J292D01*
G01X451792Y331999D02*
G03X447469Y329542I-2292J-999D01*
G01X451792Y331999D02*
G03X452708I458J200D01*
G01X457292D02*
G03X452708I-2292J-999D01*
G01X457292D02*
G03X458208I458J200D01*
G01X444165Y325250D02*
G03X440542Y328531I-2165J1250D01*
G01X444165Y325250D02*
G03Y324750I433J-250D01*
G01X440542Y321469D02*
G03X444165Y324750I1458J2031D01*
G01X440542Y321469D02*
G03X439958I-292J-406D01*
G01X437042D02*
G03X439958I1458J2031D01*
G01X437042D02*
G03X436458I-292J-406D01*
G01X432835Y324750D02*
G03X436458Y321469I2165J-1250D01*
G01X432835Y324750D02*
G03Y325250I-433J250D01*
G01X436458Y328531D02*
G03X432835Y325250I-1458J-2031D01*
G01X436458Y328531D02*
G03X437042I292J406D01*
G01X439958D02*
G03X437042I-1458J-2031D01*
G01X439958D02*
G03X440542I292J406D01*
G01X430500Y307500D02*
G03X430500I-2500J0D01*
G01X421000Y276000D02*
G03X421000I-2500J0D01*
G01X134800Y392250D02*
G03X134800I-5300J0D01*
G01Y455750D02*
G03X134800I-5300J0D01*
G01X223800Y160000D02*
Y154000D01*
X222500Y152700D02*
G03X223800Y154000I0J1300D01*
G01X222500Y152700D02*
X216500D01*
X215200Y154000D02*
G03X216500Y152700I1300J0D01*
G01X215200Y154000D02*
Y160000D01*
X216500Y161300D02*
G03X215200Y160000I0J-1300D01*
G01X216500Y161300D02*
X222500D01*
X223800Y160000D02*
G03X222500Y161300I-1300J0D01*
G01X149700Y114600D02*
G03X149700I-5500J0D01*
G01X116050Y186200D02*
G03Y205800I0J9800D01*
G01Y186200D02*
X115950D01*
Y205800D02*
G03Y186200I0J-9800D01*
G01Y205800D02*
X116050D01*
X306500Y215000D02*
G03X306500I-2500J0D01*
G01Y223000D02*
G03X306500I-2500J0D01*
G01X295500Y212000D02*
G03X295500I-2500J0D01*
G01X268991Y352500D02*
G03X269009I9J-2500D01*
G01X268991D02*
G03X269000I-2J500D01*
X269009I11J500*
G01X260991D02*
G03X261009I9J-2500D01*
G01X260991D02*
G03X261000I-2J500D01*
X261009I11J500*
G01X344000Y285500D02*
G03X344000I-2500J0D01*
G01X329509Y293212D02*
G03X333658Y294871I2491J-212D01*
G01X329509Y293212D02*
G03X329342Y293629I-498J42D01*
G01X333491Y295288D02*
G03X329342Y293629I-2491J212D01*
G01X333491Y295288D02*
G03X333658Y294871I498J-42D01*
G01X408500Y246299D02*
X467500D01*
X408500Y245399D02*
X467500D01*
X408500Y244499D02*
X467500D01*
X408500Y243599D02*
X467500D01*
X408500Y242699D02*
X467500D01*
X408500Y241799D02*
X467500D01*
X408500Y240899D02*
X467500D01*
X408500Y239999D02*
X467500D01*
X408500Y239099D02*
X467500D01*
X408500Y238199D02*
X467500D01*
X408500Y237299D02*
X467500D01*
X408500Y236399D02*
X467500D01*
X408500Y235499D02*
X467500D01*
X408500Y234599D02*
X467500D01*
X408500Y233699D02*
X467500D01*
X408500Y232799D02*
X467500D01*
X408500Y231899D02*
X467500D01*
X408500Y230999D02*
X467500D01*
X408500Y230099D02*
X467500D01*
X408500Y229199D02*
X467500D01*
X408500Y228299D02*
X467500D01*
X408500Y227399D02*
X467500D01*
X408500Y226499D02*
X467500D01*
X408500Y225599D02*
X467500D01*
X408500Y224699D02*
X467500D01*
X408500Y223799D02*
X467500D01*
X408500Y222899D02*
X467500D01*
X408500Y221999D02*
X467500D01*
X408500Y221099D02*
X467500D01*
X408500Y220199D02*
X467500D01*
X408500Y219299D02*
X467500D01*
X408500Y218399D02*
X467500D01*
X408500Y217499D02*
X467500D01*
X408500Y216599D02*
X467500D01*
X408500Y215699D02*
X467500D01*
X408500Y214799D02*
X467500D01*
X408500Y213899D02*
X467500D01*
X408500Y212999D02*
X467500D01*
X408500Y212099D02*
X467500D01*
X408500Y211199D02*
X467500D01*
X408500Y210299D02*
X467500D01*
X408500Y209399D02*
X467500D01*
X408541Y247199D02*
X467459D01*
X380510Y243599D02*
X388500D01*
X380500Y242699D02*
X388500D01*
X380500Y241799D02*
X388500D01*
X380500Y240899D02*
X388500D01*
X380500Y239999D02*
X388500D01*
X380500Y239099D02*
X388500D01*
X380500Y238199D02*
X388500D01*
X342500Y237299D02*
X388500D01*
X342500Y236399D02*
X388500D01*
X342500Y235499D02*
X388500D01*
X342500Y234599D02*
X388500D01*
X342500Y233699D02*
X388500D01*
X342500Y232799D02*
X388500D01*
X342500Y231899D02*
X388500D01*
X342500Y230999D02*
X388500D01*
X342500Y230099D02*
X388500D01*
X342500Y229199D02*
X388500D01*
X342500Y228299D02*
X388500D01*
X342500Y227399D02*
X388500D01*
X342500Y226499D02*
X388500D01*
X342500Y225599D02*
X388500D01*
X342500Y224699D02*
X388500D01*
X342500Y223799D02*
X388500D01*
X342500Y222899D02*
X388500D01*
X342500Y221999D02*
X388500D01*
X342500Y221099D02*
X388500D01*
X342500Y220199D02*
X388500D01*
X342500Y219299D02*
X388500D01*
X342500Y218399D02*
X388500D01*
X342500Y217499D02*
X388500D01*
X342500Y216599D02*
X388500D01*
X342500Y215699D02*
X388500D01*
X342500Y214799D02*
X388500D01*
X342500Y213899D02*
X388500D01*
X342500Y212999D02*
X388500D01*
X342500Y212099D02*
X388500D01*
X342500Y211199D02*
X388500D01*
X342500Y210299D02*
X388500D01*
X342500Y209399D02*
X388500D01*
X381464Y244499D02*
X388036D01*
X342500Y242699D02*
X361500D01*
X342500Y241799D02*
X361500D01*
X342500Y240899D02*
X361500D01*
X342500Y239999D02*
X361500D01*
X342500Y239099D02*
X361500D01*
X342500Y238199D02*
X361500D01*
X342500Y245399D02*
X358500D01*
X342500Y244499D02*
X358500D01*
X342500Y243599D02*
X358500D01*
X342500Y249899D02*
X358500D01*
X342500Y248999D02*
X358500D01*
X342500Y248099D02*
X358500D01*
X342500Y247199D02*
X358500D01*
X342500Y246299D02*
X358500D01*
X262136Y330299D02*
X310500D01*
X262468Y329399D02*
X310500D01*
X262449Y328499D02*
X310500D01*
X262070Y327599D02*
X310500D01*
X260977Y326699D02*
X310500D01*
X224500Y325799D02*
X310500D01*
X224500Y324899D02*
X310500D01*
X224500Y323999D02*
X310500D01*
X224500Y323099D02*
X310500D01*
X279190Y322199D02*
X310500D01*
X280136Y321299D02*
X310500D01*
X291205Y320399D02*
X310500D01*
X292501Y319499D02*
X310500D01*
X292927Y318599D02*
X310500D01*
X292982Y317699D02*
X310500D01*
X292692Y316799D02*
X310500D01*
X292833Y315899D02*
X310500D01*
X293000Y314999D02*
X310500D01*
X292832Y314099D02*
X310500D01*
X292234Y313199D02*
X310500D01*
X260627Y312299D02*
X310500D01*
X259727Y311399D02*
X310500D01*
X258827Y310499D02*
X310500D01*
X257927Y309599D02*
X310500D01*
X263834Y308699D02*
X310500D01*
X264369Y307799D02*
X310500D01*
X264498Y306899D02*
X310500D01*
X264291Y305999D02*
X310500D01*
X292202Y305099D02*
X310500D01*
X293130Y304199D02*
X310500D01*
X294030Y303299D02*
X310500D01*
X294930Y302399D02*
X310500D01*
X295830Y301499D02*
X310500D01*
X296730Y300599D02*
X310500D01*
X297630Y299699D02*
X310500D01*
X298334Y298799D02*
X310500D01*
X298510Y297899D02*
X310500D01*
X307502Y296999D02*
X310500D01*
X308246Y296099D02*
X310500D01*
X308492Y295199D02*
X310500D01*
X308400Y294299D02*
X310500D01*
X307920Y293399D02*
X310500D01*
X299811Y292499D02*
X310500D01*
X300230Y291599D02*
X310500D01*
X301130Y290699D02*
X310500D01*
X301834Y289799D02*
X310500D01*
X302000Y288899D02*
X310500D01*
X302000Y287999D02*
X310500D01*
X302000Y287099D02*
X310500D01*
X302000Y286199D02*
X310500D01*
X302000Y285299D02*
X310500D01*
X302000Y284399D02*
X310500D01*
X302000Y283499D02*
X310500D01*
X302000Y282599D02*
X310500D01*
X302000Y281699D02*
X310500D01*
X302000Y280799D02*
X310500D01*
X302000Y279899D02*
X310500D01*
X302000Y278999D02*
X310500D01*
X302000Y278099D02*
X310500D01*
X302000Y277199D02*
X310500D01*
X302000Y276299D02*
X310500D01*
X302000Y275399D02*
X310500D01*
X302000Y274499D02*
X310500D01*
X302000Y273599D02*
X310500D01*
X302000Y272699D02*
X310500D01*
X302000Y271799D02*
X310500D01*
X302000Y270899D02*
X310500D01*
X302000Y269999D02*
X310500D01*
X302000Y269099D02*
X310500D01*
X302000Y268199D02*
X310500D01*
X301873Y267299D02*
X310500D01*
X301227Y266399D02*
X310500D01*
X300327Y265499D02*
X310500D01*
X299427Y264599D02*
X310500D01*
X298527Y263699D02*
X310500D01*
X297627Y262799D02*
X310500D01*
X296727Y261899D02*
X310500D01*
X295827Y260999D02*
X310500D01*
X294927Y260099D02*
X310500D01*
X294027Y259199D02*
X310500D01*
X293128Y258299D02*
X310500D01*
X296505Y257399D02*
X310500D01*
X297801Y256499D02*
X310500D01*
X298227Y255599D02*
X310500D01*
X298337Y254699D02*
X310500D01*
X299736Y253799D02*
X310500D01*
X300333Y252899D02*
X310500D01*
X300332Y251099D02*
X310500D01*
X299734Y250199D02*
X310500D01*
X105570Y249299D02*
X310500D01*
X107317Y248399D02*
X310500D01*
X300500Y251999D02*
X310500D01*
X261777Y331199D02*
X310459D01*
X300502Y296999D02*
X304498D01*
X300920Y293399D02*
X304080D01*
X301246Y296099D02*
X303754D01*
X301400Y294299D02*
X303600D01*
X301492Y295199D02*
X303508D01*
X263246Y287099D02*
X298000D01*
X263492Y286199D02*
X298000D01*
X263400Y285299D02*
X298000D01*
X264205Y284399D02*
X298000D01*
X265501Y283499D02*
X298000D01*
X265927Y282599D02*
X298000D01*
X265982Y281699D02*
X298000D01*
X265692Y280799D02*
X298000D01*
X277705Y279899D02*
X298000D01*
X279001Y278999D02*
X298000D01*
X279427Y278099D02*
X298000D01*
X292800Y270899D02*
X298000D01*
X292800Y269999D02*
X298000D01*
X292800Y269099D02*
X298000D01*
X262502Y287999D02*
X297999D01*
X292800Y271799D02*
X297929D01*
X291990Y277199D02*
X297927D01*
X292800Y268199D02*
X297370D01*
X257500Y288899D02*
X297273D01*
X292800Y267299D02*
X296470D01*
X105500Y250199D02*
X296266D01*
X292800Y266399D02*
X295570D01*
X292800Y272699D02*
X295266D01*
X292936Y276299D02*
X295264D01*
X293705Y257399D02*
X295095D01*
X292800Y265499D02*
X294670D01*
X292871Y273599D02*
X294668D01*
X293268Y275399D02*
X294667D01*
X293249Y274499D02*
X294500D01*
X292860Y264599D02*
X293770D01*
X273685Y289799D02*
X291449D01*
X274635Y290699D02*
X290473D01*
X280468Y320399D02*
X289795D01*
X279482Y277199D02*
X289610D01*
X278734Y272699D02*
X288800D01*
X264500Y271799D02*
X288800D01*
X264500Y270899D02*
X288800D01*
X264500Y269999D02*
X288800D01*
X264500Y269099D02*
X288800D01*
X264500Y268199D02*
X288800D01*
X264500Y267299D02*
X288800D01*
X264500Y266399D02*
X288800D01*
X264500Y265499D02*
X288800D01*
X279332Y273599D02*
X288729D01*
X279192Y276299D02*
X288664D01*
X280449Y319499D02*
X288499D01*
X279500Y274499D02*
X288351D01*
X279333Y275399D02*
X288332D01*
X280108Y318599D02*
X288073D01*
X280400Y317699D02*
X288018D01*
X224500Y322199D02*
X276810D01*
X264500Y264599D02*
X276798D01*
X272705Y279899D02*
X276295D01*
X224500Y318599D02*
X275892D01*
X264500Y263699D02*
X275870D01*
X224500Y321299D02*
X275864D01*
X224500Y317699D02*
X275600D01*
X224500Y319499D02*
X275551D01*
X224500Y320399D02*
X275532D01*
X273734Y272699D02*
X275266D01*
X274001Y278999D02*
X274999D01*
X264500Y262799D02*
X274970D01*
X264500Y261899D02*
X274070D01*
X263623Y305099D02*
X273298D01*
X257500Y304199D02*
X272370D01*
X257500Y303299D02*
X271470D01*
X266185Y289799D02*
X271315D01*
X264854Y279899D02*
X271295D01*
X269027Y295199D02*
X270600D01*
X268127Y294299D02*
X270600D01*
X257500Y302399D02*
X270570D01*
X267282Y293399D02*
X270428D01*
X267135Y290699D02*
X270365D01*
X264500Y272699D02*
X270266D01*
X267450Y292499D02*
X270050D01*
X267468Y291599D02*
X270032D01*
X264500Y278999D02*
X269999D01*
X264500Y260999D02*
X269998D01*
X264500Y276299D02*
X269808D01*
X257500Y301499D02*
X269670D01*
X264500Y273599D02*
X269668D01*
X264500Y275399D02*
X269667D01*
X264500Y278099D02*
X269573D01*
X264500Y277199D02*
X269518D01*
X264500Y274499D02*
X269500D01*
X264500Y260099D02*
X269201D01*
X257500Y300599D02*
X268770D01*
X266130Y254699D02*
X268423D01*
X257500Y299699D02*
X267870D01*
X265230Y255599D02*
X267377D01*
X264500Y259199D02*
X267166D01*
X257500Y298799D02*
X266970D01*
X264501Y256499D02*
X266709D01*
X264500Y258299D02*
X266631D01*
X264500Y257399D02*
X266502D01*
X257500Y297899D02*
X266070D01*
X257500Y296999D02*
X265170D01*
X257500Y296099D02*
X264270D01*
X105500Y251099D02*
X264073D01*
X257500Y289799D02*
X263815D01*
X257500Y295199D02*
X263399D01*
X105500Y251999D02*
X263173D01*
X257500Y294299D02*
X263022D01*
X257500Y293399D02*
X262927D01*
X257500Y290699D02*
X262865D01*
X257500Y292499D02*
X262550D01*
X257500Y291599D02*
X262532D01*
X105500Y252899D02*
X262273D01*
X105500Y253799D02*
X261373D01*
X257500Y282599D02*
X261073D01*
X257500Y283499D02*
X260813D01*
X105500Y254699D02*
X260668D01*
X257500Y281699D02*
X260626D01*
X257500Y280799D02*
X260500D01*
X257500Y279899D02*
X260500D01*
X257500Y278999D02*
X260500D01*
X257500Y278099D02*
X260500D01*
X257573Y277199D02*
X260500D01*
X257110Y268199D02*
X260500D01*
X257636Y267299D02*
X260500D01*
X257968Y266399D02*
X260500D01*
X257949Y265499D02*
X260500D01*
X257570Y264599D02*
X260500D01*
X256477Y263699D02*
X260500D01*
X105500Y262799D02*
X260500D01*
X105500Y261899D02*
X260500D01*
X105500Y260999D02*
X260500D01*
X105500Y260099D02*
X260500D01*
X105500Y259199D02*
X260500D01*
X105500Y258299D02*
X260500D01*
X105500Y257399D02*
X260500D01*
X105500Y256499D02*
X260500D01*
X105500Y255599D02*
X260500D01*
X257500Y305099D02*
X260377D01*
X224500Y316799D02*
X260227D01*
X257500Y308699D02*
X260166D01*
X257500Y305999D02*
X259709D01*
X257500Y307799D02*
X259631D01*
X257500Y306899D02*
X259502D01*
X257500Y287999D02*
X259498D01*
X257500Y284399D02*
X259080D01*
X224500Y326699D02*
X259023D01*
X257500Y287099D02*
X258754D01*
X257500Y285299D02*
X258600D01*
X224500Y315899D02*
X258570D01*
X257500Y286199D02*
X258508D01*
X224541Y331199D02*
X258223D01*
X224500Y327599D02*
X257930D01*
X224500Y330299D02*
X257864D01*
X224500Y314999D02*
X257670D01*
X224500Y328499D02*
X257551D01*
X224500Y329399D02*
X257532D01*
X224500Y314099D02*
X256770D01*
X105500Y269099D02*
X255990D01*
X224500Y313199D02*
X255870D01*
X105887Y269999D02*
X255173D01*
X224500Y312299D02*
X254970D01*
X105500Y263699D02*
X254523D01*
X105500Y268199D02*
X254310D01*
X107532Y270899D02*
X254273D01*
X224500Y311399D02*
X254070D01*
X108004Y271799D02*
X253627D01*
X224500Y310499D02*
X253563D01*
X224500Y309599D02*
X253500D01*
X224500Y308699D02*
X253500D01*
X224500Y307799D02*
X253500D01*
X224500Y306899D02*
X253500D01*
X224500Y305999D02*
X253500D01*
X224500Y305099D02*
X253500D01*
X224500Y304199D02*
X253500D01*
X224500Y303299D02*
X253500D01*
X224500Y302399D02*
X253500D01*
X224500Y301499D02*
X253500D01*
X224500Y300599D02*
X253500D01*
X224500Y299699D02*
X253500D01*
X224500Y298799D02*
X253500D01*
X224500Y297899D02*
X253500D01*
X224500Y296999D02*
X253500D01*
X224500Y296099D02*
X253500D01*
X224500Y295199D02*
X253500D01*
X224500Y294299D02*
X253500D01*
X224500Y293399D02*
X253500D01*
X224500Y292499D02*
X253500D01*
X224500Y291599D02*
X253500D01*
X224500Y290699D02*
X253500D01*
X224500Y289799D02*
X253500D01*
X224500Y288899D02*
X253500D01*
X224500Y287999D02*
X253500D01*
X224500Y287099D02*
X253500D01*
X224500Y286199D02*
X253500D01*
X224500Y285299D02*
X253500D01*
X224500Y284399D02*
X253500D01*
X224500Y283499D02*
X253500D01*
X224500Y282599D02*
X253500D01*
X224500Y281699D02*
X253500D01*
X107446Y280799D02*
X253500D01*
X105683Y279899D02*
X253500D01*
X105500Y278999D02*
X253500D01*
X105500Y278099D02*
X253500D01*
X105500Y277199D02*
X253500D01*
X105500Y276299D02*
X253500D01*
X105504Y275399D02*
X253500D01*
X107081Y274499D02*
X253500D01*
X107838Y273599D02*
X253500D01*
X108091Y272699D02*
X253500D01*
X105500Y264599D02*
X253430D01*
X105500Y267299D02*
X253364D01*
X105500Y265499D02*
X253051D01*
X105500Y266399D02*
X253032D01*
X341100Y272499D02*
X379500D01*
X341100Y271599D02*
X379500D01*
X341100Y270699D02*
X379500D01*
X341100Y269799D02*
X379500D01*
X341100Y268899D02*
X379500D01*
X341100Y267999D02*
X379500D01*
X341100Y267099D02*
X379500D01*
X341100Y266199D02*
X379500D01*
X341100Y265299D02*
X379500D01*
X341100Y264399D02*
X379500D01*
X341100Y263499D02*
X379500D01*
X341100Y262599D02*
X379500D01*
X341100Y261699D02*
X379500D01*
X341100Y260799D02*
X379500D01*
X341100Y259899D02*
X379500D01*
X341100Y258999D02*
X379500D01*
X341100Y258099D02*
X379500D01*
X341100Y257199D02*
X379500D01*
X341100Y256299D02*
X379500D01*
X341100Y255399D02*
X379500D01*
X341100Y254499D02*
X379500D01*
X341061Y253599D02*
X379500D01*
X341001Y252699D02*
X379500D01*
X360500Y251799D02*
X379500D01*
X360500Y250899D02*
X379500D01*
X360500Y249999D02*
X379500D01*
X360500Y249099D02*
X379500D01*
X360500Y248199D02*
X379500D01*
X360500Y247299D02*
X379500D01*
X360500Y246399D02*
X379490D01*
X341298Y273399D02*
X379302D01*
X399500Y284699D02*
X405500D01*
X399500Y283799D02*
X405500D01*
X399500Y282899D02*
X405500D01*
X399500Y281999D02*
X405500D01*
X399500Y281099D02*
X405500D01*
X399500Y280199D02*
X405500D01*
X399500Y279299D02*
X405500D01*
X399500Y278399D02*
X405500D01*
X399500Y277499D02*
X405500D01*
X399500Y276599D02*
X405500D01*
X399500Y275699D02*
X405500D01*
X399500Y274799D02*
X405500D01*
X399500Y273899D02*
X405500D01*
X399500Y272999D02*
X405500D01*
X399500Y272099D02*
X405500D01*
X403977Y266699D02*
X405500D01*
X399500Y265799D02*
X405500D01*
X399500Y264899D02*
X405500D01*
X399500Y246899D02*
X405500D01*
X399500Y245999D02*
X405500D01*
X399500Y245099D02*
X405500D01*
X399500Y244199D02*
X405500D01*
X399500Y243299D02*
X405500D01*
X399500Y242399D02*
X405500D01*
X399500Y241499D02*
X405500D01*
X399500Y240599D02*
X405500D01*
X399500Y239699D02*
X405500D01*
X399500Y238799D02*
X405500D01*
X399500Y237899D02*
X405500D01*
X399500Y236999D02*
X405500D01*
X399500Y236099D02*
X405500D01*
X399500Y235199D02*
X405500D01*
X399500Y234299D02*
X405500D01*
X399500Y233399D02*
X405500D01*
X403082Y263999D02*
X405500D01*
X399500Y258599D02*
X405500D01*
X399500Y257699D02*
X405500D01*
X399500Y256799D02*
X405500D01*
X399500Y255899D02*
X405500D01*
X399500Y254999D02*
X405500D01*
X399500Y254099D02*
X405500D01*
X400649Y253199D02*
X405500D01*
X402521Y252299D02*
X405500D01*
X403000Y251399D02*
X405500D01*
X403092Y250499D02*
X405500D01*
X402845Y249599D02*
X405500D01*
X402099Y248699D02*
X405500D01*
X399502Y247799D02*
X405500D01*
X404190Y271199D02*
X405499D01*
X404498Y259499D02*
X405441D01*
X399500Y263999D02*
X402918D01*
X399500Y266699D02*
X402023D01*
X399500Y271199D02*
X401810D01*
X399500Y259499D02*
X401502D01*
X399500Y263099D02*
X401078D01*
X399500Y267599D02*
X400930D01*
X399500Y270299D02*
X400864D01*
X399500Y260399D02*
X400756D01*
X399500Y262199D02*
X400600D01*
X399762Y253199D02*
X400551D01*
X399500Y268499D02*
X400551D01*
X399500Y269399D02*
X400532D01*
X399500Y261299D02*
X400508D01*
X450196Y297099D02*
X453863D01*
X451499Y297999D02*
X453001D01*
X448742Y296199D02*
X451810D01*
X449636Y295299D02*
X450864D01*
X455696Y297099D02*
X459363D01*
X456999Y297999D02*
X458501D01*
X454242Y296199D02*
X457310D01*
X455136Y295299D02*
X456364D01*
X594115Y470799D02*
X595500D01*
X593216Y469899D02*
X595500D01*
X592160Y468999D02*
X595500D01*
X590888Y468099D02*
X595500D01*
X589292Y467199D02*
X595500D01*
X587071Y466299D02*
X595500D01*
X104500Y465399D02*
X595500D01*
X104500Y464499D02*
X595500D01*
X191490Y463599D02*
X595500D01*
X214992Y462699D02*
X595500D01*
X217882Y461799D02*
X595500D01*
X219657Y460899D02*
X595500D01*
X221002Y459999D02*
X595500D01*
X222091Y459099D02*
X595500D01*
X222999Y458199D02*
X595500D01*
X223770Y457299D02*
X595500D01*
X533769Y456399D02*
X595500D01*
X537481Y455499D02*
X595500D01*
X539438Y454599D02*
X595500D01*
X557143Y453699D02*
X595500D01*
X560615Y452799D02*
X595500D01*
X561949Y451899D02*
X595500D01*
X562857Y450999D02*
X595500D01*
X563519Y450099D02*
X595500D01*
X564004Y449199D02*
X595500D01*
X564349Y448299D02*
X595500D01*
X564572Y447399D02*
X595500D01*
X564684Y446499D02*
X595500D01*
X564690Y445599D02*
X595500D01*
X564589Y444699D02*
X595500D01*
X564379Y443799D02*
X595500D01*
X564048Y442899D02*
X595500D01*
X563579Y441999D02*
X595500D01*
X562939Y441099D02*
X595500D01*
X562063Y440199D02*
X595500D01*
X560792Y439299D02*
X595500D01*
X558229Y438399D02*
X595500D01*
X547099Y437499D02*
X595500D01*
X546862Y436599D02*
X595500D01*
X546771Y435699D02*
X595500D01*
X547027Y434799D02*
X595500D01*
X547227Y433899D02*
X595500D01*
X547371Y432999D02*
X595500D01*
X547461Y432099D02*
X595500D01*
X547499Y431199D02*
X595500D01*
X547484Y430299D02*
X595500D01*
X547417Y429399D02*
X595500D01*
X547297Y428499D02*
X595500D01*
X547122Y427599D02*
X595500D01*
X546891Y426699D02*
X595500D01*
X546738Y425799D02*
X595500D01*
X547002Y424899D02*
X595500D01*
X547207Y423999D02*
X595500D01*
X547357Y423099D02*
X595500D01*
X547454Y422199D02*
X595500D01*
X547497Y421299D02*
X595500D01*
X547488Y420399D02*
X595500D01*
X547427Y419499D02*
X595500D01*
X547313Y418599D02*
X595500D01*
X547144Y417699D02*
X595500D01*
X546920Y416799D02*
X595500D01*
X546709Y415899D02*
X595500D01*
X546975Y414999D02*
X595500D01*
X547187Y414099D02*
X595500D01*
X547343Y413199D02*
X595500D01*
X547446Y412299D02*
X595500D01*
X547495Y411399D02*
X595500D01*
X547492Y410499D02*
X595500D01*
X547437Y409599D02*
X595500D01*
X557143Y408699D02*
X595500D01*
X560615Y407799D02*
X595500D01*
X561949Y406899D02*
X595500D01*
X562857Y405999D02*
X595500D01*
X563519Y405099D02*
X595500D01*
X564004Y404199D02*
X595500D01*
X564349Y403299D02*
X595500D01*
X564572Y402399D02*
X595500D01*
X564684Y401499D02*
X595500D01*
X564690Y400599D02*
X595500D01*
X564589Y399699D02*
X595500D01*
X564379Y398799D02*
X595500D01*
X564048Y397899D02*
X595500D01*
X563579Y396999D02*
X595500D01*
X562939Y396099D02*
X595500D01*
X562063Y395199D02*
X595500D01*
X560792Y394299D02*
X595500D01*
X558229Y393399D02*
X595500D01*
X529613Y392499D02*
X595500D01*
X527732Y391599D02*
X595500D01*
X524474Y390699D02*
X595500D01*
X222997Y389799D02*
X595500D01*
X222088Y388899D02*
X595500D01*
X220998Y387999D02*
X595500D01*
X219652Y387099D02*
X595500D01*
X217876Y386199D02*
X595500D01*
X214979Y385299D02*
X595500D01*
X191500Y384399D02*
X595500D01*
X191500Y383499D02*
X595500D01*
X191500Y382599D02*
X595500D01*
X191500Y381699D02*
X595500D01*
X191500Y380799D02*
X595500D01*
X191500Y379899D02*
X595500D01*
X191500Y378999D02*
X595500D01*
X191500Y378099D02*
X595500D01*
X191500Y377199D02*
X595500D01*
X191500Y376299D02*
X595500D01*
X191500Y375399D02*
X595500D01*
X191500Y374499D02*
X595500D01*
X191500Y373599D02*
X595500D01*
X191500Y372699D02*
X595500D01*
X191500Y371799D02*
X595500D01*
X191500Y370899D02*
X595500D01*
X191500Y369999D02*
X595500D01*
X191500Y369099D02*
X595500D01*
X191500Y368199D02*
X595500D01*
X191500Y367299D02*
X595500D01*
X191500Y366399D02*
X595500D01*
X586462Y365499D02*
X595500D01*
X588751Y364599D02*
X595500D01*
X590114Y363699D02*
X595500D01*
X591108Y362799D02*
X595500D01*
X591876Y361899D02*
X595500D01*
X592479Y360999D02*
X595500D01*
X592952Y360099D02*
X595500D01*
X593313Y359199D02*
X595500D01*
X593577Y358299D02*
X595500D01*
X593750Y357399D02*
X595500D01*
X593837Y356499D02*
X595500D01*
X593842Y355599D02*
X595500D01*
X593763Y354699D02*
X595500D01*
X593600Y353799D02*
X595500D01*
X593346Y352899D02*
X595500D01*
X592996Y351999D02*
X595500D01*
X592536Y351099D02*
X595500D01*
X591948Y350199D02*
X595500D01*
X591201Y349299D02*
X595500D01*
X590236Y348399D02*
X595500D01*
X588925Y347499D02*
X595500D01*
X586817Y346599D02*
X595500D01*
X399500Y345699D02*
X595500D01*
X399500Y344799D02*
X595500D01*
X399500Y343899D02*
X595500D01*
X399500Y342999D02*
X595500D01*
X399500Y342099D02*
X595500D01*
X399500Y341199D02*
X595500D01*
X399500Y340299D02*
X595500D01*
X399500Y339399D02*
X595500D01*
X399500Y338499D02*
X595500D01*
X399500Y337599D02*
X595500D01*
X399500Y336699D02*
X595500D01*
X399500Y335799D02*
X595500D01*
X399500Y334899D02*
X595500D01*
X399500Y333999D02*
X595500D01*
X461859Y333099D02*
X595500D01*
X462694Y332199D02*
X595500D01*
X462982Y331299D02*
X595500D01*
X462927Y330399D02*
X595500D01*
X462503Y329499D02*
X595500D01*
X462746Y328599D02*
X595500D01*
X462992Y327699D02*
X595500D01*
X462900Y326799D02*
X595500D01*
X462420Y325899D02*
X595500D01*
X444098Y324999D02*
X595500D01*
X444427Y324099D02*
X595500D01*
X444482Y323199D02*
X595500D01*
X444192Y322299D02*
X595500D01*
X576126Y321399D02*
X595500D01*
X576792Y320499D02*
X595500D01*
X576998Y319599D02*
X595500D01*
X576868Y318699D02*
X595500D01*
X576439Y317799D02*
X595500D01*
X576833Y316899D02*
X595500D01*
X577000Y315999D02*
X595500D01*
X576832Y315099D02*
X595500D01*
X576439Y314199D02*
X595500D01*
X576869Y313299D02*
X595500D01*
X576998Y312399D02*
X595500D01*
X576791Y311499D02*
X595500D01*
X576123Y310599D02*
X595500D01*
X429190Y309699D02*
X595500D01*
X430136Y308799D02*
X595500D01*
X430468Y307899D02*
X595500D01*
X430449Y306999D02*
X595500D01*
X461859Y306099D02*
X595500D01*
X462694Y305199D02*
X595500D01*
X462982Y304299D02*
X595500D01*
X462927Y303399D02*
X595500D01*
X462499Y302499D02*
X595500D01*
X462008Y301599D02*
X595500D01*
X462694Y300699D02*
X595500D01*
X462982Y299799D02*
X595500D01*
X462927Y298899D02*
X595500D01*
X462499Y297999D02*
X595500D01*
X461196Y297099D02*
X595500D01*
X459742Y296199D02*
X595500D01*
X460636Y295299D02*
X595500D01*
X460968Y294399D02*
X595500D01*
X460949Y293499D02*
X595500D01*
X460570Y292599D02*
X595500D01*
X459987Y291699D02*
X595500D01*
X460636Y290799D02*
X595500D01*
X460968Y289899D02*
X595500D01*
X460949Y288999D02*
X595500D01*
X460570Y288099D02*
X595500D01*
X459477Y287199D02*
X595500D01*
X421136Y286299D02*
X595500D01*
X421468Y285399D02*
X595500D01*
X458582Y284499D02*
X595500D01*
X460422Y283599D02*
X595500D01*
X460900Y282699D02*
X595500D01*
X460992Y281799D02*
X595500D01*
X460744Y280899D02*
X595500D01*
X460051Y279999D02*
X595500D01*
X460422Y279099D02*
X595500D01*
X460900Y278199D02*
X595500D01*
X460992Y277299D02*
X595500D01*
X460744Y276399D02*
X595500D01*
X459998Y275499D02*
X595500D01*
X445623Y274599D02*
X595500D01*
X430000Y273699D02*
X595500D01*
X430000Y272799D02*
X595500D01*
X430000Y271899D02*
X595500D01*
X430000Y270999D02*
X595500D01*
X430000Y270099D02*
X595500D01*
X430000Y269199D02*
X595500D01*
X430000Y268299D02*
X595500D01*
X430000Y267399D02*
X595500D01*
X430000Y266499D02*
X595500D01*
X430000Y265599D02*
X595500D01*
X430000Y264699D02*
X595500D01*
X430000Y263799D02*
X595500D01*
X430000Y262899D02*
X595500D01*
X430000Y261999D02*
X595500D01*
X430000Y261099D02*
X595500D01*
X430000Y260199D02*
X595500D01*
X430000Y259299D02*
X595500D01*
X430000Y258399D02*
X595500D01*
X430000Y257499D02*
X595500D01*
X429968Y256599D02*
X595500D01*
X429635Y255699D02*
X595500D01*
X428685Y254799D02*
X595500D01*
X409500Y253899D02*
X595500D01*
X409500Y252999D02*
X595500D01*
X409500Y252099D02*
X595500D01*
X409500Y251199D02*
X595500D01*
X409500Y250299D02*
X595500D01*
X468129Y249399D02*
X595500D01*
X469233Y248499D02*
X595500D01*
X469498Y247599D02*
X595500D01*
X469500Y246699D02*
X595500D01*
X469500Y245799D02*
X595500D01*
X469500Y244899D02*
X595500D01*
X469500Y243999D02*
X595500D01*
X469500Y243099D02*
X595500D01*
X469500Y242199D02*
X595500D01*
X469500Y241299D02*
X595500D01*
X469500Y240399D02*
X595500D01*
X469500Y239499D02*
X595500D01*
X469500Y238599D02*
X595500D01*
X469500Y237699D02*
X595500D01*
X469500Y236799D02*
X595500D01*
X469500Y235899D02*
X595500D01*
X469500Y234999D02*
X595500D01*
X469500Y234099D02*
X595500D01*
X469500Y233199D02*
X595500D01*
X469500Y232299D02*
X595500D01*
X469500Y231399D02*
X595500D01*
X469500Y230499D02*
X595500D01*
X469500Y229599D02*
X595500D01*
X469500Y228699D02*
X595500D01*
X469500Y227799D02*
X595500D01*
X469500Y226899D02*
X595500D01*
X469500Y225999D02*
X595500D01*
X469500Y225099D02*
X595500D01*
X469500Y224199D02*
X595500D01*
X469500Y223299D02*
X595500D01*
X469500Y222399D02*
X595500D01*
X469500Y221499D02*
X595500D01*
X469500Y220599D02*
X595500D01*
X469500Y219699D02*
X595500D01*
X469500Y218799D02*
X595500D01*
X469500Y217899D02*
X595500D01*
X469500Y216999D02*
X595500D01*
X469500Y216099D02*
X595500D01*
X469500Y215199D02*
X595500D01*
X469500Y214299D02*
X595500D01*
X469500Y213399D02*
X595500D01*
X469500Y212499D02*
X595500D01*
X469500Y211599D02*
X595500D01*
X469500Y210699D02*
X595500D01*
X469500Y209799D02*
X595500D01*
X469500Y208899D02*
X595500D01*
X469436Y207999D02*
X595500D01*
X468927Y207099D02*
X595500D01*
X399500Y206199D02*
X595500D01*
X399500Y205299D02*
X595500D01*
X399500Y204399D02*
X595500D01*
X399500Y203499D02*
X595500D01*
X399500Y202599D02*
X595500D01*
X399500Y201699D02*
X595500D01*
X399500Y200799D02*
X595500D01*
X399500Y199899D02*
X595500D01*
X399500Y198999D02*
X595500D01*
X399500Y198099D02*
X595500D01*
X399500Y197199D02*
X595500D01*
X399500Y196299D02*
X595500D01*
X399500Y195399D02*
X595500D01*
X399500Y194499D02*
X595500D01*
X399500Y193599D02*
X595500D01*
X399500Y192699D02*
X595500D01*
X399500Y191799D02*
X595500D01*
X399500Y190899D02*
X595500D01*
X399500Y189999D02*
X595500D01*
X399500Y189099D02*
X595500D01*
X399500Y188199D02*
X595500D01*
X399500Y187299D02*
X595500D01*
X399500Y186399D02*
X595500D01*
X399500Y185499D02*
X595500D01*
X399500Y184599D02*
X595500D01*
X399500Y183699D02*
X595500D01*
X399500Y182799D02*
X595500D01*
X399500Y181899D02*
X595500D01*
X399500Y180999D02*
X595500D01*
X399500Y180099D02*
X595500D01*
X399500Y179199D02*
X595500D01*
X399500Y178299D02*
X595500D01*
X399500Y177399D02*
X595500D01*
X399500Y176499D02*
X595500D01*
X399500Y175599D02*
X595500D01*
X399500Y174699D02*
X595500D01*
X399500Y173799D02*
X595500D01*
X399500Y172899D02*
X595500D01*
X399500Y171999D02*
X595500D01*
X399500Y171099D02*
X595500D01*
X399500Y170199D02*
X595500D01*
X399500Y169299D02*
X595500D01*
X399500Y168399D02*
X595500D01*
X399500Y167499D02*
X595500D01*
X399500Y166599D02*
X595500D01*
X399500Y165699D02*
X595500D01*
X399500Y164799D02*
X595500D01*
X399500Y163899D02*
X595500D01*
X587931Y162999D02*
X595500D01*
X589568Y162099D02*
X595500D01*
X590700Y161199D02*
X595500D01*
X591558Y160299D02*
X595500D01*
X592229Y159399D02*
X595500D01*
X592756Y158499D02*
X595500D01*
X593165Y157599D02*
X595500D01*
X593471Y156699D02*
X595500D01*
X593684Y155799D02*
X595500D01*
X593809Y154899D02*
X595500D01*
X593850Y153999D02*
X595500D01*
X593808Y153099D02*
X595500D01*
X593683Y152199D02*
X595500D01*
X593470Y151299D02*
X595500D01*
X593164Y150399D02*
X595500D01*
X592755Y149499D02*
X595500D01*
X592227Y148599D02*
X595500D01*
X591556Y147699D02*
X595500D01*
X590697Y146799D02*
X595500D01*
X589564Y145899D02*
X595500D01*
X587925Y144999D02*
X595500D01*
X399500Y144099D02*
X595500D01*
X399500Y143199D02*
X595500D01*
X399500Y142299D02*
X595500D01*
X399500Y141399D02*
X595500D01*
X399500Y140499D02*
X595500D01*
X399500Y139599D02*
X595500D01*
X399500Y138699D02*
X595500D01*
X399500Y137799D02*
X595500D01*
X399500Y136899D02*
X595500D01*
X399500Y135999D02*
X595500D01*
X399500Y135099D02*
X595500D01*
X585139Y134199D02*
X595500D01*
X588181Y133299D02*
X595500D01*
X590058Y132399D02*
X595500D01*
X591489Y131499D02*
X595500D01*
X592655Y130599D02*
X595500D01*
X593636Y129699D02*
X595500D01*
X594476Y128799D02*
X595475D01*
X191500Y365499D02*
X581538D01*
X399500Y346599D02*
X581183D01*
X399500Y144999D02*
X580075D01*
X399500Y162999D02*
X580069D01*
X399500Y364599D02*
X579249D01*
X399500Y347499D02*
X579075D01*
X399500Y134199D02*
X578861D01*
X399500Y145899D02*
X578436D01*
X399500Y162099D02*
X578432D01*
X399500Y363699D02*
X577886D01*
X399500Y348399D02*
X577764D01*
X399500Y146799D02*
X577303D01*
X399500Y161199D02*
X577300D01*
X123071Y466299D02*
X576929D01*
X399500Y362799D02*
X576892D01*
X399500Y349299D02*
X576799D01*
X399500Y147699D02*
X576444D01*
X399500Y160299D02*
X576442D01*
X399500Y361899D02*
X576124D01*
X399500Y350199D02*
X576052D01*
X399500Y133299D02*
X575819D01*
X399500Y148599D02*
X575773D01*
X399500Y159399D02*
X575771D01*
X399500Y360999D02*
X575521D01*
X399500Y351099D02*
X575464D01*
X399500Y149499D02*
X575245D01*
X399500Y158499D02*
X575244D01*
X399500Y360099D02*
X575048D01*
X399500Y351999D02*
X575004D01*
X399500Y150399D02*
X574836D01*
X399500Y157599D02*
X574835D01*
X125292Y467199D02*
X574708D01*
X399500Y359199D02*
X574687D01*
X399500Y352899D02*
X574654D01*
X399500Y151299D02*
X574530D01*
X399500Y156699D02*
X574529D01*
X399500Y358299D02*
X574423D01*
X399500Y353799D02*
X574400D01*
X399500Y152199D02*
X574317D01*
X399500Y155799D02*
X574316D01*
X399500Y357399D02*
X574250D01*
X399500Y354699D02*
X574237D01*
X399500Y153099D02*
X574192D01*
X399500Y154899D02*
X574191D01*
X399500Y356499D02*
X574163D01*
X399500Y355599D02*
X574158D01*
X399500Y153999D02*
X574150D01*
X399500Y132399D02*
X573942D01*
X126888Y468099D02*
X573112D01*
X572123Y310599D02*
X572877D01*
X572126Y321399D02*
X572874D01*
X399500Y131499D02*
X572511D01*
X128160Y468999D02*
X571840D01*
X128464Y495099D02*
X571536D01*
X399500Y105399D02*
X571348D01*
X399500Y130599D02*
X571345D01*
X129110Y494199D02*
X570890D01*
X129216Y469899D02*
X570784D01*
X399500Y106299D02*
X570367D01*
X399500Y129699D02*
X570364D01*
X130025Y493299D02*
X569975D01*
X130115Y470799D02*
X569885D01*
X399500Y107199D02*
X569527D01*
X399500Y128799D02*
X569524D01*
X130811Y492399D02*
X569189D01*
X130889Y471699D02*
X569111D01*
X410468Y310599D02*
X568877D01*
X443354Y321399D02*
X568874D01*
X399500Y108099D02*
X568801D01*
X399500Y127899D02*
X568799D01*
X399500Y317799D02*
X568561D01*
X419992Y314199D02*
X568561D01*
X131492Y491499D02*
X568508D01*
X131560Y472599D02*
X568440D01*
X410458Y311499D02*
X568209D01*
X399500Y320499D02*
X568208D01*
X399500Y108999D02*
X568172D01*
X399500Y126999D02*
X568170D01*
X419746Y315099D02*
X568168D01*
X399500Y316899D02*
X568167D01*
X399500Y318699D02*
X568132D01*
X419900Y313299D02*
X568131D01*
X419420Y312399D02*
X568002D01*
X399500Y319599D02*
X568002D01*
X419002Y315999D02*
X568000D01*
X557596Y490599D02*
X567918D01*
X132141Y473499D02*
X567859D01*
X399500Y109899D02*
X567626D01*
X399500Y126099D02*
X567624D01*
X559231Y489699D02*
X567406D01*
X132645Y474399D02*
X567355D01*
X399500Y110799D02*
X567154D01*
X399500Y125199D02*
X567153D01*
X560124Y488799D02*
X566966D01*
X133078Y475299D02*
X566922D01*
X399500Y111699D02*
X566751D01*
X399500Y124299D02*
X566750D01*
X560700Y487899D02*
X566590D01*
X133447Y476199D02*
X566553D01*
X399500Y112599D02*
X566409D01*
X399500Y123399D02*
X566408D01*
X561063Y486999D02*
X566275D01*
X133755Y477099D02*
X566245D01*
X399500Y113499D02*
X566126D01*
X399500Y122499D02*
X566125D01*
X561255Y486099D02*
X566017D01*
X134008Y477999D02*
X565992D01*
X399500Y114399D02*
X565898D01*
X399500Y121599D02*
X565897D01*
X561296Y485199D02*
X565813D01*
X134206Y478899D02*
X565794D01*
X399500Y115299D02*
X565723D01*
X399500Y120699D02*
X565722D01*
X561189Y484299D02*
X565661D01*
X134353Y479799D02*
X565647D01*
X399500Y116199D02*
X565599D01*
X399500Y119799D02*
X565598D01*
X560923Y483399D02*
X565559D01*
X558654Y480699D02*
X565551D01*
X399500Y117099D02*
X565525D01*
X399500Y118899D02*
X565524D01*
X560473Y482499D02*
X565508D01*
X559775Y481599D02*
X565505D01*
X399500Y117999D02*
X565500D01*
X540888Y453699D02*
X556857D01*
X547328Y408699D02*
X556857D01*
X547280Y438399D02*
X555771D01*
X531025Y393399D02*
X555771D01*
X132082Y490599D02*
X554004D01*
X542052Y452799D02*
X553385D01*
X547166Y407799D02*
X553385D01*
X547406Y439299D02*
X553208D01*
X532165Y394299D02*
X553208D01*
X134449Y480699D02*
X552946D01*
X132594Y489699D02*
X552369D01*
X543021Y451899D02*
X552051D01*
X546948Y406899D02*
X552051D01*
X547479Y440199D02*
X551937D01*
X533117Y395199D02*
X551937D01*
X134495Y481599D02*
X551825D01*
X133034Y488799D02*
X551476D01*
X543844Y450999D02*
X551143D01*
X546671Y405999D02*
X551143D01*
X134492Y482499D02*
X551127D01*
X547500Y441099D02*
X551061D01*
X536266Y396099D02*
X551061D01*
X133410Y487899D02*
X550900D01*
X134441Y483399D02*
X550677D01*
X133725Y486999D02*
X550537D01*
X544548Y450099D02*
X550481D01*
X546333Y405099D02*
X550481D01*
X547468Y441999D02*
X550421D01*
X538649Y396999D02*
X550421D01*
X134339Y484299D02*
X550411D01*
X133983Y486099D02*
X550345D01*
X134187Y485199D02*
X550304D01*
X545154Y449199D02*
X549996D01*
X545928Y404199D02*
X549996D01*
X547383Y442899D02*
X549952D01*
X540283Y397899D02*
X549952D01*
X545674Y448299D02*
X549651D01*
X545451Y403299D02*
X549651D01*
X547245Y443799D02*
X549621D01*
X541559Y398799D02*
X549621D01*
X546118Y447399D02*
X549428D01*
X544894Y402399D02*
X549428D01*
X547052Y444699D02*
X549411D01*
X542608Y399699D02*
X549411D01*
X546492Y446499D02*
X549316D01*
X544246Y401499D02*
X549316D01*
X546802Y445599D02*
X549310D01*
X543492Y400599D02*
X549310D01*
X224428Y456399D02*
X530231D01*
X224991Y455499D02*
X526519D01*
X225471Y454599D02*
X524562D01*
X225875Y453699D02*
X523112D01*
X226212Y452799D02*
X521948D01*
X226485Y451899D02*
X520979D01*
X223768Y390699D02*
X519526D01*
X226697Y450999D02*
X518090D01*
X224427Y391599D02*
X516268D01*
X226852Y450099D02*
X515560D01*
X224990Y392499D02*
X514387D01*
X226952Y449199D02*
X513873D01*
X225469Y393399D02*
X512975D01*
X226997Y448299D02*
X512566D01*
X225874Y394299D02*
X511835D01*
X226988Y447399D02*
X511497D01*
X226211Y395199D02*
X510883D01*
X226925Y446499D02*
X510597D01*
X226484Y396099D02*
X510075D01*
X226807Y445599D02*
X509830D01*
X226697Y396999D02*
X509381D01*
X226632Y444699D02*
X509171D01*
X226852Y397899D02*
X508786D01*
X226511Y443799D02*
X508605D01*
X226952Y398799D02*
X508274D01*
X226717Y442899D02*
X508120D01*
X226997Y399699D02*
X507839D01*
X226866Y441999D02*
X507708D01*
X226988Y400599D02*
X507472D01*
X226960Y441099D02*
X507363D01*
X226979Y431199D02*
X507262D01*
X226033Y421299D02*
X507230D01*
X226610Y411399D02*
X507199D01*
X226925Y401499D02*
X507168D01*
X226790Y410499D02*
X507167D01*
X226341Y420399D02*
X507137D01*
X226903Y430299D02*
X507108D01*
X226999Y440199D02*
X507079D01*
X227000Y432099D02*
X506999D01*
X225659Y422199D02*
X506973D01*
X226536Y412299D02*
X506948D01*
X226807Y402399D02*
X506924D01*
X226915Y409599D02*
X506924D01*
X226586Y419499D02*
X506900D01*
X226773Y429399D02*
X506877D01*
X226984Y439299D02*
X506855D01*
X226967Y432999D02*
X506793D01*
X225214Y423099D02*
X506774D01*
X226736Y413199D02*
X506755D01*
X226633Y403299D02*
X506737D01*
X226984Y408699D02*
X506737D01*
X226773Y418599D02*
X506719D01*
X226586Y428499D02*
X506703D01*
X226914Y438399D02*
X506687D01*
X226879Y433899D02*
X506643D01*
X224776Y423999D02*
X506630D01*
X226879Y414099D02*
X506617D01*
X226510Y404199D02*
X506605D01*
X226999Y407799D02*
X506605D01*
X226904Y417699D02*
X506593D01*
X226340Y427599D02*
X506583D01*
X226790Y437499D02*
X506573D01*
X226737Y434799D02*
X506547D01*
X225213Y424899D02*
X506539D01*
X226967Y414999D02*
X506532D01*
X226717Y405099D02*
X506526D01*
X226960Y406899D02*
X506526D01*
X226979Y416799D02*
X506521D01*
X226032Y426699D02*
X506516D01*
X226609Y436599D02*
X506512D01*
X226537Y435699D02*
X506503D01*
X225658Y425799D02*
X506501D01*
X227000Y415899D02*
X506500D01*
X226866Y405999D02*
X506500D01*
X456359Y333099D02*
X459141D01*
X456359Y306099D02*
X459141D01*
X456920Y325899D02*
X458580D01*
X453082Y284499D02*
X458418D01*
X457194Y332199D02*
X458306D01*
X457194Y305199D02*
X458306D01*
X457702Y326799D02*
X457798D01*
X453977Y287199D02*
X457523D01*
X454498Y275499D02*
X457002D01*
X454922Y283599D02*
X456578D01*
X455070Y288099D02*
X456430D01*
X455244Y276399D02*
X456256D01*
X450859Y333099D02*
X453641D01*
X450859Y306099D02*
X453641D01*
X451420Y325899D02*
X453080D01*
X447582Y284499D02*
X452918D01*
X451694Y332199D02*
X452806D01*
X451694Y305199D02*
X452806D01*
X452202Y326799D02*
X452298D01*
X448477Y287199D02*
X452023D01*
X448998Y275499D02*
X451502D01*
X449422Y283599D02*
X451078D01*
X449570Y288099D02*
X450930D01*
X449744Y276399D02*
X450756D01*
X410100Y297099D02*
X448363D01*
X399500Y333099D02*
X448141D01*
X430070Y306099D02*
X448141D01*
X410100Y301599D02*
X447992D01*
X444427Y325899D02*
X447580D01*
X410100Y302499D02*
X447501D01*
X410100Y297999D02*
X447501D01*
X399500Y329499D02*
X447497D01*
X424582Y284499D02*
X447418D01*
X399500Y332199D02*
X447306D01*
X428977Y305199D02*
X447306D01*
X410100Y300699D02*
X447306D01*
X443359Y328599D02*
X447254D01*
X444482Y326799D02*
X447100D01*
X399500Y330399D02*
X447073D01*
X410100Y303399D02*
X447073D01*
X410100Y298899D02*
X447073D01*
X399500Y331299D02*
X447018D01*
X410100Y304299D02*
X447018D01*
X410100Y299799D02*
X447018D01*
X444194Y327699D02*
X447008D01*
X420190Y287199D02*
X446523D01*
X410100Y296199D02*
X446310D01*
X410100Y291699D02*
X446013D01*
X426437Y283599D02*
X445578D01*
X410100Y292599D02*
X445430D01*
X410100Y288099D02*
X445430D01*
X410100Y295299D02*
X445364D01*
X410100Y290799D02*
X445364D01*
X410100Y293499D02*
X445051D01*
X410100Y288999D02*
X445051D01*
X410100Y294399D02*
X445032D01*
X410100Y289899D02*
X445032D01*
X441190Y282699D02*
X442810D01*
X441623Y274599D02*
X442377D01*
X439854Y321399D02*
X440646D01*
X439859Y328599D02*
X440641D01*
X437190Y282699D02*
X438810D01*
X437623Y274599D02*
X438377D01*
X436354Y321399D02*
X437146D01*
X436359Y328599D02*
X437141D01*
X433190Y282699D02*
X434810D01*
X433623Y274599D02*
X434377D01*
X399500Y321399D02*
X433646D01*
X399500Y328599D02*
X433641D01*
X399500Y324999D02*
X432902D01*
X399500Y322299D02*
X432808D01*
X399500Y327699D02*
X432806D01*
X399500Y325899D02*
X432573D01*
X399500Y324099D02*
X432573D01*
X399500Y323199D02*
X432518D01*
X399500Y326799D02*
X432518D01*
X427337Y282699D02*
X430810D01*
X428237Y281799D02*
X429864D01*
X410100Y305199D02*
X427023D01*
X410140Y309699D02*
X426810D01*
X409500Y254799D02*
X426315D01*
X410100Y306099D02*
X425930D01*
X410100Y308799D02*
X425864D01*
X410100Y306999D02*
X425551D01*
X410100Y307899D02*
X425532D01*
X409500Y255699D02*
X425365D01*
X409500Y256599D02*
X425032D01*
X420636Y277299D02*
X425000D01*
X420968Y276399D02*
X425000D01*
X420949Y275499D02*
X425000D01*
X420570Y274599D02*
X425000D01*
X419477Y273699D02*
X425000D01*
X407500Y272799D02*
X425000D01*
X407500Y271899D02*
X425000D01*
X407500Y270999D02*
X425000D01*
X407500Y270099D02*
X425000D01*
X407500Y269199D02*
X425000D01*
X411236Y268299D02*
X425000D01*
X411833Y267399D02*
X425000D01*
X412000Y266499D02*
X425000D01*
X411832Y265599D02*
X425000D01*
X411234Y264699D02*
X425000D01*
X409628Y263799D02*
X425000D01*
X409500Y262899D02*
X425000D01*
X409500Y261999D02*
X425000D01*
X409500Y261099D02*
X425000D01*
X409500Y260199D02*
X425000D01*
X409500Y259299D02*
X425000D01*
X409500Y258399D02*
X425000D01*
X409500Y257499D02*
X425000D01*
X419690Y278199D02*
X424766D01*
X421449Y284499D02*
X424418D01*
X407500Y279099D02*
X423866D01*
X407500Y279999D02*
X422966D01*
X421070Y283599D02*
X422578D01*
X407500Y280899D02*
X422256D01*
X419977Y282699D02*
X422100D01*
X407500Y281799D02*
X422008D01*
X407500Y282699D02*
X418023D01*
X410302Y287199D02*
X417810D01*
X407500Y273699D02*
X417523D01*
X407500Y278199D02*
X417310D01*
X407500Y274599D02*
X416430D01*
X407500Y277299D02*
X416364D01*
X407500Y275499D02*
X416051D01*
X407500Y276399D02*
X416032D01*
X399500Y207099D02*
X407073D01*
X399500Y207999D02*
X406564D01*
X399500Y229599D02*
X406500D01*
X399500Y228699D02*
X406500D01*
X399500Y227799D02*
X406500D01*
X399500Y226899D02*
X406500D01*
X399500Y225999D02*
X406500D01*
X399500Y225099D02*
X406500D01*
X399500Y224199D02*
X406500D01*
X399500Y223299D02*
X406500D01*
X399500Y222399D02*
X406500D01*
X399500Y221499D02*
X406500D01*
X399500Y220599D02*
X406500D01*
X399500Y219699D02*
X406500D01*
X399500Y218799D02*
X406500D01*
X399500Y217899D02*
X406500D01*
X399500Y216999D02*
X406500D01*
X399500Y216099D02*
X406500D01*
X399500Y215199D02*
X406500D01*
X399500Y214299D02*
X406500D01*
X399500Y213399D02*
X406500D01*
X399500Y212499D02*
X406500D01*
X399500Y211599D02*
X406500D01*
X399500Y210699D02*
X406500D01*
X399500Y209799D02*
X406500D01*
X399500Y208899D02*
X406500D01*
X399964Y230499D02*
X406222D01*
X399500Y315999D02*
X405927D01*
X399500Y293499D02*
X405900D01*
X399500Y292599D02*
X405900D01*
X399500Y291699D02*
X405900D01*
X399500Y290799D02*
X405900D01*
X399500Y289899D02*
X405900D01*
X399500Y288999D02*
X405900D01*
X399500Y288099D02*
X405900D01*
X399500Y315099D02*
X404270D01*
X399500Y314199D02*
X403370D01*
X399500Y294399D02*
X402646D01*
X399500Y313299D02*
X402479D01*
X399500Y312399D02*
X402040D01*
X399500Y311499D02*
X402000D01*
X399500Y310599D02*
X402000D01*
X399500Y309699D02*
X402000D01*
X399500Y308799D02*
X402000D01*
X399500Y307899D02*
X402000D01*
X399500Y306999D02*
X402000D01*
X399500Y306099D02*
X402000D01*
X399500Y305199D02*
X402000D01*
X399500Y304299D02*
X402000D01*
X399500Y303399D02*
X402000D01*
X399500Y302499D02*
X402000D01*
X399500Y301599D02*
X402000D01*
X399500Y300699D02*
X402000D01*
X399500Y299799D02*
X402000D01*
X399500Y298899D02*
X402000D01*
X399500Y297999D02*
X401974D01*
X399500Y295299D02*
X401808D01*
X399500Y297099D02*
X401573D01*
X399500Y296199D02*
X401518D01*
X191500Y385299D02*
X209021D01*
X191500Y462699D02*
X209008D01*
X191500Y386199D02*
X206124D01*
X191500Y461799D02*
X206118D01*
X191500Y387099D02*
X204348D01*
X191500Y460899D02*
X204343D01*
X191500Y387999D02*
X203002D01*
X191500Y459999D02*
X202998D01*
X191500Y388899D02*
X201910D01*
X191500Y459099D02*
X201907D01*
X191500Y389799D02*
X197171D01*
X191500Y458199D02*
X197163D01*
X191500Y390699D02*
X195066D01*
X191500Y457299D02*
X195061D01*
X191500Y391599D02*
X193562D01*
X191500Y456399D02*
X193558D01*
X191635Y392499D02*
X192371D01*
X191637Y455499D02*
X192368D01*
X104500Y463599D02*
X156684D01*
X104500Y462699D02*
X155784D01*
X104500Y461799D02*
X154884D01*
X130757Y460899D02*
X153984D01*
X132668Y459999D02*
X153084D01*
X133608Y459099D02*
X152184D01*
X134200Y458199D02*
X151284D01*
X134569Y457299D02*
X150384D01*
X144133Y456399D02*
X149484D01*
X146130Y455499D02*
X148584D01*
X134760Y456399D02*
X139867D01*
X134794Y455499D02*
X137870D01*
X134673Y454599D02*
X136714D01*
X104500Y443799D02*
X136315D01*
X104500Y442899D02*
X136038D01*
X104500Y441999D02*
X136000D01*
X104500Y441099D02*
X136000D01*
X104500Y440199D02*
X136000D01*
X104500Y439299D02*
X136000D01*
X104500Y438399D02*
X136000D01*
X104500Y437499D02*
X136000D01*
X104500Y436599D02*
X136000D01*
X104500Y435699D02*
X136000D01*
X104500Y434799D02*
X136000D01*
X104500Y433899D02*
X136000D01*
X104500Y432999D02*
X136000D01*
X104500Y432099D02*
X136000D01*
X104500Y431199D02*
X136000D01*
X104500Y430299D02*
X136000D01*
X104500Y429399D02*
X136000D01*
X104500Y428499D02*
X136000D01*
X104500Y427599D02*
X136000D01*
X104500Y426699D02*
X136000D01*
X104500Y425799D02*
X136000D01*
X104500Y424899D02*
X136000D01*
X104500Y423999D02*
X136000D01*
X104500Y423099D02*
X136000D01*
X104500Y422199D02*
X136000D01*
X104500Y421299D02*
X136000D01*
X104500Y420399D02*
X136000D01*
X104500Y419499D02*
X136000D01*
X104500Y418599D02*
X136000D01*
X104500Y417699D02*
X136000D01*
X104500Y416799D02*
X136000D01*
X104500Y415899D02*
X136000D01*
X104500Y414999D02*
X136000D01*
X104500Y414099D02*
X136000D01*
X104500Y413199D02*
X136000D01*
X104500Y412299D02*
X136000D01*
X104500Y411399D02*
X136000D01*
X104500Y410499D02*
X136000D01*
X104500Y409599D02*
X136000D01*
X104500Y408699D02*
X136000D01*
X104500Y407799D02*
X136000D01*
X104500Y406899D02*
X136000D01*
X104500Y405999D02*
X136000D01*
X104500Y405099D02*
X136000D01*
X104500Y404199D02*
X136000D01*
X134674Y393399D02*
X136000D01*
X134794Y392499D02*
X136000D01*
X134760Y391599D02*
X136000D01*
X134568Y390699D02*
X136000D01*
X134199Y389799D02*
X136000D01*
X133606Y388899D02*
X136000D01*
X132665Y387999D02*
X136000D01*
X130747Y387099D02*
X136000D01*
X104500Y386199D02*
X136000D01*
X104500Y385299D02*
X136000D01*
X104500Y384399D02*
X136000D01*
X104500Y383499D02*
X136000D01*
X104500Y382599D02*
X136000D01*
X104500Y381699D02*
X136000D01*
X104500Y380799D02*
X136000D01*
X104500Y379899D02*
X136000D01*
X104500Y378999D02*
X136000D01*
X104500Y378099D02*
X136000D01*
X104500Y377199D02*
X136000D01*
X104500Y376299D02*
X136000D01*
X104500Y375399D02*
X136000D01*
X104500Y374499D02*
X136000D01*
X104500Y373599D02*
X136000D01*
X104500Y372699D02*
X136000D01*
X104500Y371799D02*
X136000D01*
X104500Y370899D02*
X136000D01*
X104500Y369999D02*
X136000D01*
X104500Y369099D02*
X136000D01*
X104500Y368199D02*
X136000D01*
X104500Y367299D02*
X136000D01*
X104500Y366399D02*
X136000D01*
X104500Y365499D02*
X136000D01*
X134388Y394299D02*
X135902D01*
X134387Y453699D02*
X135900D01*
X104500Y444699D02*
X135613D01*
X104500Y403299D02*
X135612D01*
X133904Y395199D02*
X135304D01*
X133902Y452799D02*
X135302D01*
X104500Y445599D02*
X135092D01*
X104500Y402399D02*
X135091D01*
X133144Y396099D02*
X134867D01*
X133141Y451899D02*
X134866D01*
X104500Y446499D02*
X134718D01*
X104500Y401499D02*
X134717D01*
X131854Y396999D02*
X134565D01*
X131848Y450999D02*
X134564D01*
X104500Y447399D02*
X134468D01*
X104500Y400599D02*
X134468D01*
X104500Y397899D02*
X134379D01*
X104500Y450099D02*
X134379D01*
X104500Y448299D02*
X134332D01*
X104500Y399699D02*
X134332D01*
X104500Y398799D02*
X134303D01*
X104500Y449199D02*
X134303D01*
X104500Y387099D02*
X128253D01*
X104500Y460899D02*
X128243D01*
X104500Y450999D02*
X127152D01*
X104500Y396999D02*
X127146D01*
X104500Y387999D02*
X126335D01*
X104500Y459999D02*
X126332D01*
X104500Y451899D02*
X125859D01*
X104500Y396099D02*
X125856D01*
X104500Y388899D02*
X125394D01*
X104500Y459099D02*
X125392D01*
X104500Y452799D02*
X125098D01*
X104500Y395199D02*
X125096D01*
X104500Y389799D02*
X124801D01*
X104500Y458199D02*
X124800D01*
X104500Y453699D02*
X124613D01*
X104500Y394299D02*
X124612D01*
X104500Y390699D02*
X124432D01*
X104500Y457299D02*
X124431D01*
X104500Y454599D02*
X124327D01*
X104500Y393399D02*
X124326D01*
X104500Y391599D02*
X124240D01*
X104500Y456399D02*
X124240D01*
X104500Y455499D02*
X124206D01*
X104500Y392499D02*
X124206D01*
X104500Y466299D02*
X112929D01*
X104500Y467199D02*
X110708D01*
X104500Y468099D02*
X109112D01*
X104500Y468999D02*
X107840D01*
X104500Y469899D02*
X106784D01*
X104500Y470799D02*
X105885D01*
X363973Y294399D02*
X379900D01*
X363949Y293499D02*
X379900D01*
X363570Y292599D02*
X379900D01*
X362477Y291699D02*
X379900D01*
X361000Y290799D02*
X379900D01*
X361000Y289899D02*
X379900D01*
X361000Y288999D02*
X379900D01*
X361000Y288099D02*
X379900D01*
X361000Y287199D02*
X379900D01*
X361000Y286299D02*
X379900D01*
X369705Y285399D02*
X379900D01*
X371001Y284499D02*
X379900D01*
X371427Y283599D02*
X379900D01*
X371482Y282699D02*
X379900D01*
X371192Y281799D02*
X379900D01*
X370354Y280899D02*
X379900D01*
X323828Y279999D02*
X379900D01*
X327202Y279099D02*
X379900D01*
X342190Y278199D02*
X379900D01*
X343136Y277299D02*
X379900D01*
X343468Y276399D02*
X379900D01*
X361019Y285399D02*
X368295D01*
X323998Y280899D02*
X367646D01*
X323869Y281799D02*
X358873D01*
X323334Y282699D02*
X357973D01*
X343123Y283599D02*
X357215D01*
X334468Y292599D02*
X357000D01*
X334135Y291699D02*
X357000D01*
X333185Y290799D02*
X357000D01*
X315500Y289899D02*
X357000D01*
X315500Y288999D02*
X357000D01*
X315500Y288099D02*
X357000D01*
X343334Y287199D02*
X357000D01*
X343869Y286299D02*
X357000D01*
X343998Y285399D02*
X357000D01*
X343791Y284499D02*
X357000D01*
X334450Y293499D02*
X356673D01*
X334072Y294399D02*
X355773D01*
X333492Y295299D02*
X354873D01*
X333400Y296199D02*
X353973D01*
X332922Y297099D02*
X353073D01*
X331082Y297999D02*
X352173D01*
X315500Y298899D02*
X351331D01*
X315500Y299799D02*
X351010D01*
X315500Y303399D02*
X351000D01*
X315500Y302499D02*
X351000D01*
X315500Y301599D02*
X351000D01*
X315500Y300699D02*
X351000D01*
X315500Y304299D02*
X350200D01*
X315500Y283599D02*
X339877D01*
X328130Y278199D02*
X339810D01*
X315500Y287199D02*
X339666D01*
X315500Y284499D02*
X339209D01*
X315500Y286299D02*
X339131D01*
X315500Y285399D02*
X339002D01*
X329030Y277299D02*
X338329D01*
X329930Y276399D02*
X337434D01*
X330830Y275499D02*
X336960D01*
X331408Y274599D02*
X336900D01*
X331500Y273699D02*
X336900D01*
X331500Y272799D02*
X336900D01*
X331500Y271899D02*
X336900D01*
X331500Y270999D02*
X336900D01*
X331500Y270099D02*
X336900D01*
X331500Y269199D02*
X336900D01*
X331500Y268299D02*
X336900D01*
X331500Y267399D02*
X336900D01*
X331500Y266499D02*
X336900D01*
X331500Y265599D02*
X336900D01*
X331500Y264699D02*
X336900D01*
X331500Y263799D02*
X336900D01*
X331500Y262899D02*
X336900D01*
X331500Y261999D02*
X336900D01*
X331500Y261099D02*
X336900D01*
X331500Y260199D02*
X336900D01*
X331500Y259299D02*
X336900D01*
X331500Y258399D02*
X336900D01*
X331500Y257499D02*
X336900D01*
X331500Y256599D02*
X336900D01*
X331500Y255699D02*
X336900D01*
X334483Y254799D02*
X336799D01*
X331600D02*
X332517D01*
X315500Y305199D02*
X332266D01*
X315500Y308799D02*
X332222D01*
X315500Y306099D02*
X331668D01*
X315500Y307899D02*
X331667D01*
X315500Y306999D02*
X331500D01*
X315500Y297999D02*
X330918D01*
X315500Y290799D02*
X330815D01*
X315500Y291699D02*
X329865D01*
X315500Y292599D02*
X329532D01*
X315500Y293499D02*
X329447D01*
X315500Y297099D02*
X329078D01*
X315500Y294399D02*
X328756D01*
X315500Y296199D02*
X328600D01*
X315500Y295299D02*
X328508D01*
X315500Y309699D02*
X326131D01*
X315500Y310599D02*
X325073D01*
X315500Y311499D02*
X324173D01*
X315500Y312399D02*
X323273D01*
X315500Y313299D02*
X322373D01*
X315500Y314199D02*
X321473D01*
X315500Y315099D02*
X320573D01*
X315500Y315999D02*
X319673D01*
X315500Y282699D02*
X319666D01*
X317330Y279999D02*
X319172D01*
X315560Y281799D02*
X319131D01*
X316430Y280899D02*
X319002D01*
X315500Y316899D02*
X318773D01*
X315500Y317799D02*
X317873D01*
X315500Y318699D02*
X316981D01*
X315500Y319599D02*
X316541D01*
X104500Y352899D02*
X388500D01*
X270502Y351999D02*
X388500D01*
X271246Y351099D02*
X388500D01*
X271492Y350199D02*
X388500D01*
X271400Y349299D02*
X388500D01*
X270920Y348399D02*
X388500D01*
X104500Y347499D02*
X388500D01*
X104500Y346599D02*
X388500D01*
X104500Y345699D02*
X388500D01*
X104500Y344799D02*
X388500D01*
X104500Y343899D02*
X388500D01*
X104500Y342999D02*
X388500D01*
X104500Y342099D02*
X388500D01*
X104500Y341199D02*
X388500D01*
X104500Y340299D02*
X388500D01*
X104500Y339399D02*
X388500D01*
X104500Y338499D02*
X388500D01*
X104500Y337599D02*
X388500D01*
X319690Y336699D02*
X388500D01*
X320636Y335799D02*
X388500D01*
X320968Y334899D02*
X388500D01*
X349502Y333999D02*
X388500D01*
X350246Y333099D02*
X388500D01*
X350630Y332199D02*
X388500D01*
X377584Y331299D02*
X388500D01*
X378571Y330399D02*
X388500D01*
X379471Y329499D02*
X388500D01*
X380371Y328599D02*
X388500D01*
X381271Y327699D02*
X388500D01*
X382171Y326799D02*
X388500D01*
X383071Y325899D02*
X388500D01*
X383847Y324999D02*
X388500D01*
X384098Y324099D02*
X388500D01*
X384100Y323199D02*
X388500D01*
X384100Y322299D02*
X388500D01*
X384100Y321399D02*
X388500D01*
X384100Y320499D02*
X388500D01*
X384100Y319599D02*
X388500D01*
X384100Y318699D02*
X388500D01*
X384100Y317799D02*
X388500D01*
X384333Y316899D02*
X384867D01*
X368400Y322299D02*
X379900D01*
X367920Y321399D02*
X379900D01*
X355500Y320499D02*
X379900D01*
X355500Y319599D02*
X379900D01*
X355500Y318699D02*
X379900D01*
X355500Y317799D02*
X379900D01*
X355500Y316899D02*
X379900D01*
X355500Y315999D02*
X379900D01*
X355500Y315099D02*
X379900D01*
X356130Y314199D02*
X379900D01*
X357030Y313299D02*
X379900D01*
X357930Y312399D02*
X379900D01*
X358830Y311499D02*
X379900D01*
X359730Y310599D02*
X379900D01*
X360601Y309699D02*
X379900D01*
X360978Y308799D02*
X379900D01*
X361000Y307899D02*
X379900D01*
X361000Y306999D02*
X379900D01*
X361000Y306099D02*
X379900D01*
X361000Y305199D02*
X379900D01*
X361000Y304299D02*
X379900D01*
X361000Y303399D02*
X379900D01*
X361000Y302499D02*
X379900D01*
X361000Y301599D02*
X379900D01*
X361000Y300699D02*
X379900D01*
X361042Y299799D02*
X379900D01*
X371477Y323199D02*
X379817D01*
X372570Y324099D02*
X378931D01*
X372949Y324999D02*
X378031D01*
X372968Y325899D02*
X377131D01*
X372664Y326799D02*
X376231D01*
X368595Y323199D02*
X369523D01*
X351530Y331299D02*
X368764D01*
X355101Y327699D02*
X368723D01*
X355478Y326799D02*
X368364D01*
X354230Y328599D02*
X368168D01*
X352430Y330399D02*
X368167D01*
X355500Y325899D02*
X368032D01*
X353330Y329499D02*
X368000D01*
X355500Y324999D02*
X364498D01*
X355500Y321399D02*
X364080D01*
X355500Y324099D02*
X363754D01*
X355500Y322299D02*
X363600D01*
X355500Y323199D02*
X363508D01*
X315500Y324999D02*
X351500D01*
X319859Y324099D02*
X351500D01*
X320694Y323199D02*
X351500D01*
X320982Y322299D02*
X351500D01*
X315500Y325899D02*
X351273D01*
X315500Y326799D02*
X350373D01*
X320927Y321399D02*
X350295D01*
X315500Y327699D02*
X349473D01*
X332626Y316899D02*
X349000D01*
X333292Y315999D02*
X349000D01*
X333498Y315099D02*
X349000D01*
X333368Y314199D02*
X349000D01*
X320839Y320499D02*
X348999D01*
X347975Y313299D02*
X348940D01*
X323530Y317799D02*
X348808D01*
X315500Y328599D02*
X348573D01*
X321730Y319599D02*
X348573D01*
X322630Y318699D02*
X348518D01*
X315500Y329499D02*
X347644D01*
X320949Y333999D02*
X343498D01*
X315500Y330399D02*
X343080D01*
X320570Y333099D02*
X342754D01*
X315500Y331299D02*
X342600D01*
X319477Y332199D02*
X342508D01*
X324430Y316899D02*
X329374D01*
X325330Y315999D02*
X328708D01*
X327130Y314199D02*
X328632D01*
X326230Y315099D02*
X328502D01*
X316027Y332199D02*
X317523D01*
X104500Y336699D02*
X317310D01*
X315500Y324099D02*
X317141D01*
X315803Y323199D02*
X316197D01*
X104500Y335799D02*
X313970D01*
X104500Y334899D02*
X313070D01*
X104500Y333999D02*
X312170D01*
X262502Y351999D02*
X267498D01*
X262920Y348399D02*
X267080D01*
X263246Y351099D02*
X266754D01*
X263400Y349299D02*
X266600D01*
X263492Y350199D02*
X266508D01*
X104500Y351999D02*
X259498D01*
X104500Y348399D02*
X259080D01*
X104500Y351099D02*
X258754D01*
X104500Y349299D02*
X258600D01*
X104500Y350199D02*
X258508D01*
X104500Y333099D02*
X223298D01*
X104500Y332199D02*
X222626D01*
X104500Y331299D02*
X222500D01*
X104500Y330399D02*
X222500D01*
X104500Y329499D02*
X222500D01*
X104500Y328599D02*
X222500D01*
X104500Y327699D02*
X222500D01*
X104500Y326799D02*
X222500D01*
X104500Y325899D02*
X222500D01*
X104500Y324999D02*
X222500D01*
X104500Y324099D02*
X222500D01*
X104500Y323199D02*
X222500D01*
X104500Y322299D02*
X222500D01*
X104500Y321399D02*
X222500D01*
X104500Y320499D02*
X222500D01*
X104500Y319599D02*
X222500D01*
X104500Y318699D02*
X222500D01*
X104500Y317799D02*
X222500D01*
X104500Y316899D02*
X222500D01*
X104500Y315999D02*
X222500D01*
X104500Y315099D02*
X222500D01*
X104500Y314199D02*
X222500D01*
X104500Y313299D02*
X222500D01*
X104500Y312399D02*
X222500D01*
X104500Y311499D02*
X222500D01*
X104500Y310599D02*
X222500D01*
X104500Y309699D02*
X222500D01*
X104500Y308799D02*
X222500D01*
X104500Y307899D02*
X222500D01*
X104500Y306999D02*
X222500D01*
X104500Y306099D02*
X222500D01*
X104500Y305199D02*
X222500D01*
X104500Y304299D02*
X222500D01*
X104500Y303399D02*
X222500D01*
X104500Y302499D02*
X222500D01*
X104500Y301599D02*
X222500D01*
X104500Y300699D02*
X222500D01*
X104500Y299799D02*
X222500D01*
X104500Y298899D02*
X222500D01*
X104500Y297999D02*
X222500D01*
X104500Y297099D02*
X222500D01*
X104500Y296199D02*
X222500D01*
X104500Y295299D02*
X222500D01*
X104500Y294399D02*
X222500D01*
X104500Y293499D02*
X222500D01*
X104500Y292599D02*
X222500D01*
X104500Y291699D02*
X222500D01*
X104500Y290799D02*
X222500D01*
X104500Y289899D02*
X222500D01*
X104500Y288999D02*
X222500D01*
X104500Y288099D02*
X222500D01*
X104500Y287199D02*
X222500D01*
X104500Y286299D02*
X222500D01*
X104500Y285399D02*
X222500D01*
X104500Y284499D02*
X222500D01*
X104644Y283599D02*
X222298D01*
X384100Y312399D02*
X388500D01*
X384100Y311499D02*
X388500D01*
X384100Y310599D02*
X388500D01*
X384100Y309699D02*
X388500D01*
X384100Y308799D02*
X388500D01*
X384100Y307899D02*
X388500D01*
X384100Y306999D02*
X388500D01*
X384100Y306099D02*
X388500D01*
X384100Y305199D02*
X388500D01*
X384100Y304299D02*
X388500D01*
X384100Y303399D02*
X388500D01*
X384100Y302499D02*
X388500D01*
X384100Y301599D02*
X388500D01*
X384100Y300699D02*
X388500D01*
X384100Y299799D02*
X388500D01*
X384100Y298899D02*
X388500D01*
X384100Y297999D02*
X388500D01*
X384100Y297099D02*
X388500D01*
X384100Y296199D02*
X388500D01*
X384100Y295299D02*
X388500D01*
X384100Y294399D02*
X388500D01*
X384100Y293499D02*
X388500D01*
X384100Y292599D02*
X388500D01*
X384100Y291699D02*
X388500D01*
X384100Y290799D02*
X388500D01*
X384100Y289899D02*
X388500D01*
X384100Y288999D02*
X388500D01*
X384100Y288099D02*
X388500D01*
X384100Y287199D02*
X388500D01*
X384100Y286299D02*
X388500D01*
X384100Y285399D02*
X388500D01*
X384100Y284499D02*
X388500D01*
X384100Y283599D02*
X388500D01*
X384100Y282699D02*
X388500D01*
X386483Y281799D02*
X388500D01*
X387572Y280899D02*
X388427D01*
X386685Y277299D02*
X388500D01*
X384100Y276399D02*
X388500D01*
X384100Y275499D02*
X388500D01*
X384100Y274599D02*
X388500D01*
X384100Y273699D02*
X388500D01*
X384100Y272799D02*
X388500D01*
X384100Y271899D02*
X388500D01*
X384100Y270999D02*
X388500D01*
X384100Y270099D02*
X388500D01*
X384100Y269199D02*
X388500D01*
X384100Y268299D02*
X388500D01*
X384100Y267399D02*
X388500D01*
X384100Y266499D02*
X388500D01*
X384100Y265599D02*
X388500D01*
X384100Y264699D02*
X388500D01*
X384100Y263799D02*
X388500D01*
X384100Y262899D02*
X388500D01*
X384100Y261999D02*
X388500D01*
X384100Y261099D02*
X388500D01*
X384100Y260199D02*
X388500D01*
X384100Y259299D02*
X388500D01*
X384100Y258399D02*
X388500D01*
X384100Y257499D02*
X388500D01*
X384100Y256599D02*
X388500D01*
X384100Y255699D02*
X388500D01*
X384100Y254799D02*
X388500D01*
X384100Y253899D02*
X388500D01*
X384100Y252999D02*
X388500D01*
X384100Y252099D02*
X388500D01*
X384100Y251199D02*
X388500D01*
X384100Y250299D02*
X388500D01*
X384100Y249399D02*
X388500D01*
X384100Y248499D02*
X388500D01*
X384100Y247599D02*
X388500D01*
X384201Y246699D02*
X388399D01*
X387650Y278199D02*
X388350D01*
X119144Y205299D02*
X388500D01*
X121100Y204399D02*
X388500D01*
X122360Y203499D02*
X388500D01*
X123296Y202599D02*
X388500D01*
X124023Y201699D02*
X388500D01*
X124595Y200799D02*
X388500D01*
X125041Y199899D02*
X388500D01*
X125380Y198999D02*
X388500D01*
X125623Y198099D02*
X388500D01*
X125776Y197199D02*
X388500D01*
X125845Y196299D02*
X388500D01*
X125832Y195399D02*
X388500D01*
X125734Y194499D02*
X388500D01*
X125551Y193599D02*
X388500D01*
X125277Y192699D02*
X388500D01*
X124904Y191799D02*
X388500D01*
X124418Y190899D02*
X388500D01*
X123798Y189999D02*
X388500D01*
X123008Y189099D02*
X388500D01*
X121981Y188199D02*
X388500D01*
X120559Y187299D02*
X388500D01*
X118013Y186399D02*
X388500D01*
X104500Y185499D02*
X388500D01*
X104500Y184599D02*
X388500D01*
X104500Y183699D02*
X388500D01*
X104500Y182799D02*
X388500D01*
X104500Y181899D02*
X388500D01*
X104500Y180999D02*
X388500D01*
X104500Y180099D02*
X388500D01*
X104500Y179199D02*
X388500D01*
X104500Y178299D02*
X388500D01*
X104500Y177399D02*
X388500D01*
X104500Y176499D02*
X388500D01*
X104500Y175599D02*
X388500D01*
X104500Y174699D02*
X388500D01*
X104500Y173799D02*
X388500D01*
X104500Y172899D02*
X388500D01*
X104500Y171999D02*
X388500D01*
X104500Y171099D02*
X388500D01*
X104500Y170199D02*
X388500D01*
X104500Y169299D02*
X388500D01*
X104500Y168399D02*
X388500D01*
X104500Y167499D02*
X388500D01*
X104500Y166599D02*
X388500D01*
X104500Y165699D02*
X388500D01*
X104500Y164799D02*
X388500D01*
X104500Y163899D02*
X388500D01*
X104500Y162999D02*
X388500D01*
X104500Y162099D02*
X388500D01*
X223003Y161199D02*
X388500D01*
X223765Y160299D02*
X388500D01*
X223800Y159399D02*
X388500D01*
X223800Y158499D02*
X388500D01*
X223800Y157599D02*
X388500D01*
X223800Y156699D02*
X388500D01*
X223800Y155799D02*
X388500D01*
X223800Y154899D02*
X388500D01*
X223800Y153999D02*
X388500D01*
X223437Y153099D02*
X388500D01*
X104500Y152199D02*
X388500D01*
X104500Y151299D02*
X388500D01*
X104500Y150399D02*
X388500D01*
X104500Y149499D02*
X388500D01*
X104500Y148599D02*
X388500D01*
X104500Y147699D02*
X388500D01*
X104500Y146799D02*
X388500D01*
X104500Y145899D02*
X388500D01*
X104500Y144999D02*
X388500D01*
X104500Y144099D02*
X388500D01*
X104500Y143199D02*
X388500D01*
X104500Y142299D02*
X388500D01*
X104500Y141399D02*
X388500D01*
X104500Y140499D02*
X388500D01*
X104500Y139599D02*
X388500D01*
X104500Y138699D02*
X388500D01*
X104500Y137799D02*
X388500D01*
X104500Y136899D02*
X388500D01*
X104500Y135999D02*
X388500D01*
X104500Y135099D02*
X388500D01*
X121139Y134199D02*
X388500D01*
X124181Y133299D02*
X388500D01*
X126058Y132399D02*
X388500D01*
X127489Y131499D02*
X388500D01*
X128655Y130599D02*
X388500D01*
X129636Y129699D02*
X388500D01*
X130476Y128799D02*
X388500D01*
X131201Y127899D02*
X388500D01*
X131830Y126999D02*
X388500D01*
X132376Y126099D02*
X388500D01*
X132847Y125199D02*
X388500D01*
X133250Y124299D02*
X388500D01*
X133592Y123399D02*
X388500D01*
X240283Y122499D02*
X388500D01*
X242439Y121599D02*
X388500D01*
X243707Y120699D02*
X388500D01*
X244619Y119799D02*
X388500D01*
X245310Y118899D02*
X388500D01*
X245839Y117999D02*
X388500D01*
X246236Y117099D02*
X388500D01*
X246521Y116199D02*
X388500D01*
X246704Y115299D02*
X388500D01*
X246791Y114399D02*
X388500D01*
X246786Y113499D02*
X388500D01*
X246688Y112599D02*
X388500D01*
X246494Y111699D02*
X388500D01*
X246197Y110799D02*
X388500D01*
X245786Y109899D02*
X388500D01*
X245241Y108999D02*
X388500D01*
X244528Y108099D02*
X388500D01*
X243584Y107199D02*
X388500D01*
X242258Y106299D02*
X388500D01*
X240041Y105399D02*
X388500D01*
X104500Y206199D02*
X388459D01*
X104500Y207099D02*
X341073D01*
X104500Y207999D02*
X340564D01*
X331500Y249399D02*
X340500D01*
X331500Y248499D02*
X340500D01*
X331500Y247599D02*
X340500D01*
X331500Y246699D02*
X340500D01*
X331500Y245799D02*
X340500D01*
X331500Y244899D02*
X340500D01*
X331500Y243999D02*
X340500D01*
X331500Y243099D02*
X340500D01*
X331500Y242199D02*
X340500D01*
X331500Y241299D02*
X340500D01*
X331500Y240399D02*
X340500D01*
X331500Y239499D02*
X340500D01*
X331500Y238599D02*
X340500D01*
X331500Y237699D02*
X340500D01*
X331500Y236799D02*
X340500D01*
X331500Y235899D02*
X340500D01*
X331500Y234999D02*
X340500D01*
X331459Y234099D02*
X340500D01*
X331019Y233199D02*
X340500D01*
X330127Y232299D02*
X340500D01*
X329227Y231399D02*
X340500D01*
X328327Y230499D02*
X340500D01*
X327427Y229599D02*
X340500D01*
X326558Y228699D02*
X340500D01*
X326500Y227799D02*
X340500D01*
X326500Y226899D02*
X340500D01*
X326500Y225999D02*
X340500D01*
X326500Y225099D02*
X340500D01*
X326500Y224199D02*
X340500D01*
X326500Y223299D02*
X340500D01*
X326500Y222399D02*
X340500D01*
X326500Y221499D02*
X340500D01*
X326500Y220599D02*
X340500D01*
X326500Y219699D02*
X340500D01*
X326500Y218799D02*
X340500D01*
X326833Y217899D02*
X340500D01*
X327000Y216999D02*
X340500D01*
X326832Y216099D02*
X340500D01*
X326234Y215199D02*
X340500D01*
X306400Y214299D02*
X340500D01*
X305920Y213399D02*
X340500D01*
X295450Y212499D02*
X340500D01*
X295468Y211599D02*
X340500D01*
X295135Y210699D02*
X340500D01*
X294185Y209799D02*
X340500D01*
X104500Y208899D02*
X340500D01*
X334685Y250299D02*
X340434D01*
X331696D02*
X332315D01*
X312500Y272799D02*
X327500D01*
X312500Y271899D02*
X327500D01*
X312500Y270999D02*
X327500D01*
X312500Y270099D02*
X327500D01*
X312500Y269199D02*
X327500D01*
X312500Y268299D02*
X327500D01*
X312500Y267399D02*
X327500D01*
X312500Y266499D02*
X327500D01*
X312500Y265599D02*
X327500D01*
X312500Y264699D02*
X327500D01*
X312500Y263799D02*
X327500D01*
X312500Y262899D02*
X327500D01*
X312500Y261999D02*
X327500D01*
X312500Y261099D02*
X327500D01*
X312500Y260199D02*
X327500D01*
X312500Y259299D02*
X327500D01*
X312500Y258399D02*
X327500D01*
X312500Y257499D02*
X327500D01*
X314359Y256599D02*
X327500D01*
X315194Y255699D02*
X327500D01*
X315482Y254799D02*
X327500D01*
X315427Y253899D02*
X327500D01*
X315292Y252999D02*
X327500D01*
X315498Y252099D02*
X327500D01*
X315368Y251199D02*
X327500D01*
X314832Y250299D02*
X327500D01*
X312698Y249399D02*
X327500D01*
X312500Y248499D02*
X327500D01*
X312500Y247599D02*
X327500D01*
X312332Y246699D02*
X327500D01*
X311551Y245799D02*
X327500D01*
X306498Y244899D02*
X327500D01*
X306291Y243999D02*
X327500D01*
X305623Y243099D02*
X327500D01*
X287190Y242199D02*
X327500D01*
X288136Y241299D02*
X327500D01*
X312500Y273699D02*
X326973D01*
X317705Y240399D02*
X326295D01*
X312500Y274599D02*
X326073D01*
X312500Y275499D02*
X325000D01*
X319001Y239499D02*
X324999D01*
X318788Y235899D02*
X324900D01*
X319192Y236799D02*
X324808D01*
X319427Y238599D02*
X324573D01*
X318287Y234999D02*
X324529D01*
X319482Y237699D02*
X324518D01*
X306492Y215199D02*
X322766D01*
X302569Y229599D02*
X322502D01*
X301669Y228699D02*
X322500D01*
X300769Y227799D02*
X322500D01*
X299869Y226899D02*
X322500D01*
X298969Y225999D02*
X322500D01*
X305359Y225099D02*
X322500D01*
X306194Y224199D02*
X322500D01*
X306482Y223299D02*
X322500D01*
X306427Y222399D02*
X322500D01*
X305999Y221499D02*
X322500D01*
X304696Y220599D02*
X322500D01*
X292669Y219699D02*
X322500D01*
X291769Y218799D02*
X322500D01*
X306246Y216099D02*
X322168D01*
X287461Y217899D02*
X322167D01*
X305502Y216999D02*
X322000D01*
X305190Y240399D02*
X316295D01*
X312500Y276399D02*
X315273D01*
X306136Y239499D02*
X314999D01*
X306468Y238599D02*
X314573D01*
X312500Y277299D02*
X314373D01*
X306700Y237699D02*
X314300D01*
X312558Y278199D02*
X313473D01*
X293569Y220599D02*
X303304D01*
X288571Y240399D02*
X302810D01*
X298069Y225099D02*
X302641D01*
X104500Y216999D02*
X302498D01*
X104500Y243099D02*
X302377D01*
X295072Y213399D02*
X302080D01*
X294469Y221499D02*
X302001D01*
X289471Y239499D02*
X301864D01*
X297169Y224199D02*
X301806D01*
X104500Y216099D02*
X301754D01*
X104500Y243999D02*
X301709D01*
X293983Y214299D02*
X301600D01*
X295369Y222399D02*
X301573D01*
X290371Y238599D02*
X301532D01*
X296269Y223299D02*
X301518D01*
X104500Y215199D02*
X301508D01*
X104500Y244899D02*
X301502D01*
X291279Y237699D02*
X301300D01*
X104500Y214299D02*
X292017D01*
X104500Y209799D02*
X291815D01*
X104500Y213399D02*
X290928D01*
X104500Y210699D02*
X290865D01*
X104500Y212499D02*
X290550D01*
X104500Y211599D02*
X290532D01*
X104500Y231399D02*
X288900D01*
X104500Y230499D02*
X288900D01*
X104500Y229599D02*
X288900D01*
X104500Y228699D02*
X288900D01*
X104500Y227799D02*
X288900D01*
X274626Y226899D02*
X288900D01*
X275292Y225999D02*
X288900D01*
X275498Y225099D02*
X288900D01*
X104500Y234099D02*
X288713D01*
X104500Y232299D02*
X288600D01*
X104500Y233199D02*
X288508D01*
X104500Y234999D02*
X288031D01*
X104500Y235899D02*
X287131D01*
X104500Y236799D02*
X286231D01*
X282977Y237699D02*
X285023D01*
X283190Y242199D02*
X284810D01*
X283354Y217899D02*
X284646D01*
X104500Y237699D02*
X281023D01*
X104500Y242199D02*
X280810D01*
X104500Y217899D02*
X280646D01*
X104500Y238599D02*
X279930D01*
X104500Y241299D02*
X279864D01*
X275185Y218799D02*
X279808D01*
X104500Y239499D02*
X279551D01*
X104500Y240399D02*
X279532D01*
X276135Y219699D02*
X279518D01*
X104500Y218799D02*
X272815D01*
X104500Y222399D02*
X271880D01*
X104500Y219699D02*
X271865D01*
X104500Y221499D02*
X271550D01*
X104500Y220599D02*
X271532D01*
X104500Y226899D02*
X271374D01*
X104500Y223299D02*
X271168D01*
X104500Y225999D02*
X270708D01*
X104500Y224199D02*
X270632D01*
X104500Y225099D02*
X270502D01*
X184041Y105399D02*
X235959D01*
X184283Y122499D02*
X235717D01*
X186258Y106299D02*
X233742D01*
X186439Y121599D02*
X233561D01*
X187584Y107199D02*
X232416D01*
X187707Y120699D02*
X232293D01*
X188528Y108099D02*
X231472D01*
X188619Y119799D02*
X231381D01*
X189241Y108999D02*
X230759D01*
X189310Y118899D02*
X230690D01*
X189786Y109899D02*
X230214D01*
X189839Y117999D02*
X230161D01*
X190197Y110799D02*
X229803D01*
X190236Y117099D02*
X229764D01*
X190494Y111699D02*
X229506D01*
X190521Y116199D02*
X229479D01*
X190688Y112599D02*
X229312D01*
X190704Y115299D02*
X229296D01*
X190786Y113499D02*
X229214D01*
X190791Y114399D02*
X229209D01*
X104500Y161199D02*
X215997D01*
X104500Y153099D02*
X215563D01*
X104500Y160299D02*
X215235D01*
X104500Y159399D02*
X215200D01*
X104500Y158499D02*
X215200D01*
X104500Y157599D02*
X215200D01*
X104500Y156699D02*
X215200D01*
X104500Y155799D02*
X215200D01*
X104500Y154899D02*
X215200D01*
X104500Y153999D02*
X215200D01*
X128652Y105399D02*
X179959D01*
X133875Y122499D02*
X179717D01*
X129633Y106299D02*
X177742D01*
X134103Y121599D02*
X177561D01*
X130473Y107199D02*
X176416D01*
X134278Y120699D02*
X176293D01*
X131199Y108099D02*
X175472D01*
X145996Y119799D02*
X175381D01*
X131828Y108999D02*
X174759D01*
X147631Y118899D02*
X174690D01*
X147054Y109899D02*
X174214D01*
X148524Y117999D02*
X174161D01*
X148175Y110799D02*
X173803D01*
X149100Y117099D02*
X173764D01*
X148873Y111699D02*
X173506D01*
X149463Y116199D02*
X173479D01*
X149323Y112599D02*
X173312D01*
X149655Y115299D02*
X173296D01*
X149589Y113499D02*
X173214D01*
X149696Y114399D02*
X173209D01*
X134402Y119799D02*
X142404D01*
X132374Y109899D02*
X141346D01*
X134476Y118899D02*
X140769D01*
X132846Y110799D02*
X140225D01*
X134500Y117999D02*
X139876D01*
X133249Y111699D02*
X139527D01*
X134475Y117099D02*
X139300D01*
X133591Y112599D02*
X139077D01*
X134401Y116199D02*
X138937D01*
X133874Y113499D02*
X138811D01*
X134277Y115299D02*
X138745D01*
X134102Y114399D02*
X138704D01*
X104500Y134199D02*
X114861D01*
X104500Y186399D02*
X113987D01*
X104500Y205299D02*
X112856D01*
X104500Y133299D02*
X111819D01*
X104500Y187299D02*
X111441D01*
X104500Y204399D02*
X110900D01*
X104500Y188199D02*
X110019D01*
X104500Y132399D02*
X109942D01*
X104500Y203499D02*
X109640D01*
X104500Y189099D02*
X108992D01*
X104500Y202599D02*
X108704D01*
X104500Y131499D02*
X108511D01*
X104500Y189999D02*
X108202D01*
X104500Y201699D02*
X107977D01*
X104500Y190899D02*
X107582D01*
X104500Y200799D02*
X107405D01*
X104500Y130599D02*
X107345D01*
X104500Y191799D02*
X107096D01*
X104500Y199899D02*
X106959D01*
X104500Y192699D02*
X106723D01*
X104500Y198999D02*
X106620D01*
X104500Y193599D02*
X106449D01*
X104500Y198099D02*
X106377D01*
X104500Y129699D02*
X106364D01*
X104500Y194499D02*
X106266D01*
X104500Y197199D02*
X106224D01*
X104500Y195399D02*
X106168D01*
X104500Y196299D02*
X106155D01*
X104525Y128799D02*
X105524D01*
X100000Y500000D02*
X600000D01*
Y100000*
X100000*
Y500000*
G54D51*
X274000Y221000D02*
X275500Y222500D01*
X289500*
X291000Y224000*
Y233000*
X286000Y220000D02*
X290000D01*
X302500Y232500*
X325000*
X327000Y234500*
Y238000*
X286000Y240000D02*
X290500Y235500D01*
X315500*
X317000Y237000*
Y238000*
X350000Y234000D02*
X351500Y235500D01*
X379000*
X382000Y238500*
Y298500*
X333500Y252500D02*
X337500D01*
X339000Y254000*
Y275000*
X340000Y276000*
X341000*
X361500Y297000D02*
X382000D01*
Y298500*
X370500Y329500D02*
X376500D01*
X382000Y324000*
Y298500*
X408000Y311000D02*
Y286500D01*
X409500Y285000*
X419000*
G54D52*
X272500Y292000D02*
Y299000D01*
G54D53*
X424500Y282000D02*
X427500Y279000D01*
Y257000*
X152367Y105600D03*
X132739Y127619D03*
X125119Y134096D03*
X115201Y135376D03*
X105600Y132581D03*
Y142581D03*
X142367Y105600D03*
X132780Y108444D03*
X135600Y118038D03*
X162367Y105600D03*
X219342D03*
X209342D03*
X199342D03*
X255301D03*
X315301D03*
X305301D03*
X295301D03*
X285301D03*
X275301D03*
X265301D03*
X325301D03*
X387400Y143974D03*
Y133974D03*
Y123974D03*
Y113974D03*
X381934Y105600D03*
X371934D03*
X361934D03*
X351934D03*
X341934D03*
X472193D03*
X462193D03*
X452193D03*
X442193D03*
X432193D03*
X422193D03*
X412193D03*
X402193D03*
X400600Y115472D03*
Y125472D03*
Y135472D03*
Y145472D03*
X552193Y105600D03*
X542193D03*
X532193D03*
X522193D03*
X512193D03*
X502193D03*
X492193D03*
X482193D03*
X594400Y142335D03*
X591644Y132723D03*
X582066Y135600D03*
X572468Y132795D03*
X565946Y125214D03*
X564608Y115304D03*
X562193Y105600D03*
X105600Y206581D03*
Y216581D03*
Y226581D03*
Y182581D03*
Y152581D03*
Y162581D03*
Y172581D03*
X304000Y223000D03*
Y215000D03*
X293000Y212000D03*
X274000Y221000D03*
X273000Y225000D03*
X286000Y220000D03*
X282000D03*
X339400Y211261D03*
X387400Y203974D03*
Y193974D03*
Y183974D03*
Y173974D03*
Y163974D03*
Y153974D03*
X344000Y228000D03*
X350000D03*
X356000D03*
X362000D03*
X368000D03*
X374000D03*
X380000D03*
X386000D03*
X344000Y222000D03*
X350000D03*
X356000D03*
X362000D03*
X368000D03*
X374000D03*
X380000D03*
X386000D03*
X344000Y216000D03*
X350000D03*
X356000D03*
X362000D03*
X368000D03*
X374000D03*
X380000D03*
X386000D03*
Y210000D03*
X380000D03*
X374000D03*
X368000D03*
X344000D03*
X362000D03*
X324500Y217000D03*
X350000Y210000D03*
X356000D03*
X400600Y155472D03*
Y165472D03*
Y175472D03*
Y185472D03*
Y195472D03*
X410065Y205400D03*
X420065D03*
X430065D03*
X440065D03*
X450065D03*
X460065D03*
X469987Y206649D03*
X470600Y216631D03*
Y226631D03*
X429000Y222000D03*
X423000D03*
X417000D03*
X411000D03*
X447000Y216000D03*
X441000D03*
X435000D03*
X429000D03*
X423000D03*
X417000D03*
X411000D03*
Y228000D03*
X417000D03*
X423000D03*
X429000D03*
X435000D03*
X441000D03*
X447000D03*
X453000D03*
X459000D03*
X465000D03*
Y222000D03*
X459000D03*
X453000D03*
X447000D03*
X441000D03*
X435000D03*
X411000Y210000D03*
X417000D03*
X423000D03*
X429000D03*
X435000D03*
X441000D03*
X447000D03*
X453000D03*
X459000D03*
X465000D03*
X453000Y216000D03*
X459000D03*
X465000D03*
X594400Y227419D03*
Y217419D03*
Y207419D03*
Y197419D03*
Y187419D03*
Y177419D03*
Y167419D03*
Y157419D03*
X105600Y236581D03*
Y246581D03*
Y272485D03*
Y282485D03*
Y292485D03*
Y302485D03*
X277000Y277500D03*
Y274500D03*
X295500Y271000D03*
X317500Y293500D03*
Y307000D03*
Y289000D03*
Y302500D03*
Y298000D03*
X282500Y231000D03*
X263500Y282000D03*
X262000Y307000D03*
X272500Y292000D03*
X275000Y293500D03*
X290000Y254500D03*
X290600Y296800D03*
X295500Y295000D03*
X258500Y271000D03*
X265000Y292000D03*
X258500Y274500D03*
X295800Y255000D03*
X261000Y286000D03*
X269000Y257500D03*
X255500Y266000D03*
X293000Y255000D03*
X271500Y259000D03*
X290800Y275000D03*
X298000Y252000D03*
X304000Y238200D03*
X313000Y254500D03*
X317000Y238000D03*
X304000Y245000D03*
X313000Y252000D03*
X296000Y233000D03*
X291000D03*
X282000Y240000D03*
X286000D03*
X285000Y231000D03*
X306000Y295000D03*
X299000D03*
X297000Y274500D03*
X304000Y258000D03*
X278000Y257000D03*
Y254500D03*
X272000Y274500D03*
Y277500D03*
X278000Y299000D03*
Y296000D03*
X304000Y287000D03*
Y280000D03*
X303000Y309000D03*
X306000D03*
X318000Y245500D03*
Y242500D03*
X304000Y266000D03*
X387500Y290500D03*
X327000Y242500D03*
X324000Y248500D03*
X386000Y240000D03*
X356000D03*
Y246000D03*
X344000Y240000D03*
X350000D03*
Y246000D03*
X344000D03*
Y234000D03*
X350000D03*
X356000D03*
X362000D03*
X368000D03*
X374000D03*
X380000D03*
X386000D03*
X321500Y281000D03*
X385500Y279500D03*
X363500Y251500D03*
X370000D03*
X363500Y247000D03*
X370000D03*
Y269500D03*
Y265000D03*
Y260500D03*
Y256000D03*
X376500D03*
Y260500D03*
Y265000D03*
Y269500D03*
X357000D03*
Y265000D03*
Y260500D03*
Y256000D03*
X363500D03*
Y260500D03*
Y265000D03*
Y269500D03*
X350500D03*
Y265000D03*
Y260500D03*
Y256000D03*
X344000D03*
Y260500D03*
Y265000D03*
Y269500D03*
Y302000D03*
X331000Y295500D03*
X344000Y297500D03*
X339500Y302000D03*
X348500Y297500D03*
X339500D03*
X348500Y302000D03*
X332000Y293000D03*
X375500Y276500D03*
X369000Y283000D03*
X345500Y282500D03*
X341000Y276000D03*
X333500Y252500D03*
X384500Y302000D03*
X356600Y301200D03*
X345500Y280000D03*
X358500Y298500D03*
X361500Y294000D03*
X341500Y285500D03*
X361500Y297000D03*
X334000Y307000D03*
X342600Y309400D03*
X349400Y309200D03*
X354000Y307000D03*
X321000Y245500D03*
X324000D03*
X327000D03*
X324000Y242500D03*
X327000Y248500D03*
X337000Y231000D03*
Y235000D03*
X336000Y243000D03*
Y247000D03*
X327000Y238000D03*
X321000Y248500D03*
Y242500D03*
X385000Y268500D03*
Y261500D03*
X443500Y270000D03*
X440500D03*
X435500D03*
X443500Y267000D03*
X432500Y270000D03*
X440500Y267000D03*
X435500D03*
X443500Y264000D03*
X432500Y267000D03*
X440500Y264000D03*
X435500D03*
X440000Y280500D03*
X432000D03*
X444000D03*
X436000D03*
X471266Y270400D03*
X470600Y236631D03*
Y246631D03*
X461422Y250600D03*
X437775D03*
X426092Y251201D03*
X400600Y250699D03*
X458500Y277500D03*
X404000Y296500D03*
X417000Y240000D03*
X423000D03*
X429000D03*
X435000D03*
X441000D03*
X447000D03*
X453000D03*
X459000D03*
X458500Y282000D03*
X453000Y277500D03*
X447500D03*
Y282000D03*
X458500Y289500D03*
Y294000D03*
X453000Y289500D03*
Y294000D03*
X447500Y289500D03*
X453000Y282000D03*
X402500Y234000D03*
Y240500D03*
X465000Y240000D03*
Y234000D03*
X459000D03*
X453000D03*
X447000D03*
X441000D03*
X435000D03*
X429000D03*
X423000D03*
X417000D03*
X411000D03*
X465000Y246000D03*
X459000D03*
X453000D03*
X447000D03*
X441000D03*
X435000D03*
X429000D03*
X455000Y299500D03*
X460500Y304000D03*
X455000D03*
X460500Y299500D03*
X449500Y304000D03*
X447500Y294000D03*
X449500Y299500D03*
X428000Y307500D03*
X418500Y276000D03*
X409500Y266500D03*
X402500Y277500D03*
X436000Y276500D03*
X444000D03*
X432000D03*
X427500Y257000D03*
X424500Y282000D03*
X402500Y282500D03*
X440000Y276500D03*
X422000Y261500D03*
X418000D03*
X414000D03*
X410000D03*
X440500Y259500D03*
X432500Y289000D03*
X438000Y297000D03*
X432500Y264000D03*
X435500Y259500D03*
X416500Y307000D03*
X443500Y259500D03*
X404000Y291500D03*
X419000Y285000D03*
Y296000D03*
X403000Y269000D03*
Y261500D03*
X481266Y270400D03*
X491266D03*
X501266D03*
X511266D03*
X521266D03*
X531249Y270986D03*
X538320Y278057D03*
X545391Y285128D03*
X552462Y292199D03*
X559533Y299271D03*
X594400Y297419D03*
Y287419D03*
Y277419D03*
Y267419D03*
Y257419D03*
Y247419D03*
Y237419D03*
X570500Y301500D03*
X574500D03*
X570500Y294500D03*
X574500D03*
Y298000D03*
X570500D03*
X126900Y352400D03*
X136900D03*
X105600Y342485D03*
X106900Y352400D03*
X105600Y312485D03*
Y322485D03*
Y332485D03*
X116900Y352400D03*
X125115Y366100D03*
X115115D03*
X105600Y369175D03*
Y379175D03*
Y389175D03*
X236900Y352400D03*
X196900D03*
X206900D03*
X216900D03*
X226900D03*
X231700Y366100D03*
X221700D03*
X211700D03*
X201700D03*
X192100Y368900D03*
X318127Y352400D03*
X246900D03*
X241700Y366100D03*
X290500Y315000D03*
X317000D03*
X318500Y334500D03*
Y322000D03*
X290500Y318000D03*
X260000Y329000D03*
X269000Y350000D03*
X261000D03*
X299000D03*
X291000D03*
X306000Y368000D03*
X299000D03*
X276000D03*
X284000D03*
X269000D03*
X314000D03*
X291000D03*
X261000D03*
X269000Y328000D03*
X272000D03*
X278000Y320000D03*
Y317000D03*
X305000Y320000D03*
X301000D03*
X338127Y352400D03*
X348127D03*
X328127D03*
X385900Y376049D03*
X384889Y366100D03*
X374889D03*
X364889D03*
X354889D03*
X344889D03*
X334889D03*
X324889D03*
X368127Y352400D03*
X378127D03*
X387400Y348656D03*
Y338656D03*
X358127Y352400D03*
X379500Y323000D03*
X370500Y325500D03*
X379500Y331000D03*
X366000Y323000D03*
X370500Y329500D03*
X386500Y315000D03*
X351000Y319000D03*
X331000Y315000D03*
X345000Y332000D03*
X348000D03*
X435000Y326500D03*
X438500D03*
X442000D03*
X435000Y323500D03*
X438500D03*
X442000D03*
X417500Y326500D03*
X421000D03*
X424500D03*
X417500Y323500D03*
X421000D03*
X424500D03*
X460500Y331000D03*
X455000Y327500D03*
Y331000D03*
X449500Y327500D03*
Y331000D03*
X417500Y314000D03*
X408000Y311000D03*
X407500Y321000D03*
X407000Y331000D03*
X460500Y327500D03*
X587631Y387600D03*
X577631D03*
X574500Y319500D03*
Y312500D03*
X570500D03*
Y316000D03*
X574500D03*
X570500Y319500D03*
X105600Y437668D03*
Y447668D03*
Y457668D03*
X108346Y467284D03*
X117921Y464400D03*
X127522Y467198D03*
X105600Y419175D03*
Y399175D03*
Y409175D03*
X116500Y421000D03*
Y425000D03*
X574521Y466068D03*
X584408Y464565D03*
X594400Y464961D03*
Y454961D03*
Y444961D03*
Y434961D03*
Y424961D03*
Y414961D03*
Y404961D03*
Y394961D03*
X134049Y474775D03*
X135394Y484684D03*
X137760Y494400D03*
X147760D03*
X157760D03*
X167760D03*
X177760D03*
X187760D03*
X197760D03*
X207760D03*
X217760D03*
X227760D03*
X237760D03*
X195500Y481000D03*
X190500D03*
X247760Y494400D03*
X257760D03*
X267760D03*
X277760D03*
X287760D03*
X297760D03*
X307760D03*
X317760D03*
X327760D03*
X337760D03*
X347760D03*
X357760D03*
X367760D03*
X377760D03*
X387760D03*
X397760D03*
X407760D03*
X417760D03*
X427760D03*
X437760D03*
X447760D03*
X457760D03*
X467760D03*
X477760D03*
X487760D03*
X497760D03*
X507760D03*
X517760D03*
X527760D03*
X537760D03*
X547760D03*
X557760D03*
X567439Y491886D03*
X564404Y482357D03*
X567049Y472714D03*
G74*
X0Y0D02*
M02*
