*
*
G04 PADS VX.1.1 Build Number: 678707 generated Gerber (RS-274-X) file*
G04 PC Version=2.1*
*
%IN "DC2047A REV03 (6-27-201"*%
*
%MOIN*%
*
%FSLAX35Y35*%
*
*
*
*
G04 PC Standard Apertures*
*
*
G04 Thermal Relief Aperture macro.*
%AMTER*
1,1,$1,0,0*
1,0,$1-$2,0,0*
21,0,$3,$4,0,0,45*
21,0,$3,$4,0,0,135*
%
*
*
G04 Annular Aperture macro.*
%AMANN*
1,1,$1,0,0*
1,0,$2,0,0*
%
*
*
G04 Odd Aperture macro.*
%AMODD*
1,1,$1,0,0*
1,0,$1-0.005,0,0*
%
*
*
G04 PC Custom Aperture Macros*
*
*
*
*
*
*
G04 PC Aperture Table*
*
%ADD010C,0.001*%
%ADD028C,0.082*%
%ADD048C,0.076*%
%ADD050C,0.01*%
%ADD075R,0.059X0.056*%
%ADD077R,0.041X0.036*%
%ADD079R,0.066X0.066*%
%ADD080C,0.066*%
%ADD082R,0.056X0.059*%
%ADD084R,0.031X0.036*%
%ADD087R,0.046X0.041*%
%ADD089C,0.156*%
%ADD090C,0.088*%
%ADD091C,0.134*%
%ADD093R,0.024X0.056*%
%ADD094R,0.056X0.024*%
%ADD100R,0.036X0.041*%
%ADD106C,0.286*%
%ADD107O,0.177X0.176*%
%ADD108C,0.056*%
%ADD109C,0.061*%
%ADD113R,0.077X0.144*%
%ADD114R,0.16348X0.12411*%
%ADD115R,0.11191X0.1123*%
%ADD116R,0.16348X0.08474*%
%ADD117R,0.056X0.066*%
%ADD118R,0.12411X0.06506*%
%ADD119R,0.096X0.096*%
%ADD120R,0.018X0.041*%
%ADD121R,0.0997X0.07096*%
%ADD134R,0.12411X0.06899*%
%ADD135R,0.06899X0.12411*%
%ADD136R,0.136X0.056*%
%ADD137R,0.166X0.081*%
*
*
*
*
G04 PC Circuitry*
G04 Layer Name DC2047A REV03 (6-27-201 - circuitry*
%LPD*%
*
*
G04 PC Custom Flashes*
G04 Layer Name DC2047A REV03 (6-27-201 - flashes*
%LPD*%
*
*
G04 PC Circuitry*
G04 Layer Name DC2047A REV03 (6-27-201 - circuitry*
%LPD*%
*
G54D10*
G54D28*
G01X129500Y392250D03*
Y455750D03*
G54D48*
X555800Y485400D03*
X144200Y114600D03*
G54D50*
X334700Y333800D02*
X342300D01*
Y320200*
X334700*
Y333800*
X335000Y320200D02*
Y333800D01*
X335500Y320200D02*
Y333800D01*
X336000Y320200D02*
Y333800D01*
X336500Y320200D02*
Y333800D01*
X337000Y320200D02*
Y333800D01*
X337500Y320200D02*
Y333800D01*
X338000Y320200D02*
Y333800D01*
X338500Y320200D02*
Y333800D01*
X339000Y320200D02*
Y333800D01*
X339500Y320200D02*
Y333800D01*
X340000Y320200D02*
Y333800D01*
X340500Y320200D02*
Y333800D01*
X341000Y320200D02*
Y333800D01*
X341500Y320200D02*
Y333800D01*
X342000Y320200D02*
Y333800D01*
X100000Y500000D02*
X600000D01*
Y100000*
X100000*
Y500000*
G54D75*
X267000Y235000D03*
Y227000D03*
X332500Y218000D03*
Y210000D03*
X359000Y335000D03*
Y327000D03*
X332500Y236000D03*
Y228000D03*
G54D77*
X287500Y262000D03*
X293500D03*
X362500Y315500D03*
X368500D03*
X327500Y293500D03*
X321500D03*
X327500Y289000D03*
X321500D03*
X362500Y319500D03*
X368500D03*
X321500Y298000D03*
X327500D03*
X287500Y266000D03*
X293500D03*
X327500Y284500D03*
X321500D03*
G54D79*
X219500Y157000D03*
X532000Y441000D03*
G54D80*
X199500Y157000D03*
X522000Y436000D03*
X532000Y431000D03*
X522000Y426000D03*
X532000Y421000D03*
X522000Y416000D03*
X532000Y411000D03*
X522000Y406000D03*
G54D82*
X339000Y315000D03*
X347000D03*
G54D84*
X298500Y269000D03*
Y279000D03*
G54D87*
X290500Y270250D03*
Y283750D03*
X259000Y237750D03*
Y224250D03*
G54D89*
X238000Y114000D03*
X182000D03*
G54D90*
X545000Y454000D03*
Y393000D03*
G54D91*
X557000Y446000D03*
Y401000D03*
X142000Y399000D03*
Y449000D03*
G54D93*
X270600Y284000D03*
X273200D03*
X275800D03*
X278400D03*
Y268000D03*
X275800D03*
X273200D03*
X270600D03*
G54D94*
X346500Y330900D03*
Y328300D03*
Y325700D03*
Y323100D03*
X333500D03*
Y325700D03*
Y328300D03*
Y330900D03*
X266500Y272100D03*
Y274700D03*
Y277300D03*
Y279900D03*
X282500D03*
Y277300D03*
Y274700D03*
Y272100D03*
G54D100*
X353500Y329000D03*
Y335000D03*
X356000Y315000D03*
Y321000D03*
G54D106*
X582000Y482000D03*
Y118000D03*
X118000D03*
Y482000D03*
G54D107*
X116000Y260000D03*
X584000Y154000D03*
X336000Y114000D03*
X584000Y356000D03*
Y256000D03*
X116000Y196000D03*
G54D108*
X202000Y444000D03*
Y436000D03*
Y428000D03*
Y420000D03*
Y412000D03*
Y404000D03*
X212000Y448000D03*
Y440000D03*
Y432000D03*
Y416000D03*
Y408000D03*
Y400000D03*
X174000Y446000D03*
Y402000D03*
X168000Y446000D03*
Y402000D03*
G54D109*
X222000Y448100D03*
Y438100D03*
Y409900D03*
Y399900D03*
G54D113*
X315000Y256000D03*
Y278000D03*
G54D114*
X307000Y241717D03*
Y206283D03*
G54D115*
X270646Y327992D03*
X301354D03*
Y302008D03*
X270646D03*
G54D116*
X350819Y232472D03*
Y244283D03*
Y256094D03*
Y267906D03*
Y279717D03*
Y291528D03*
X453181D03*
Y279717D03*
Y267906D03*
Y256094D03*
Y244283D03*
Y232472D03*
G54D117*
X379750Y311000D03*
Y321000D03*
Y331000D03*
X407250D03*
Y321000D03*
Y311000D03*
G54D118*
X408067Y311079D03*
X378933D03*
Y320921D03*
X408067D03*
G54D119*
X274500Y276000D03*
G54D120*
X280953Y225000D03*
X278984D03*
X277016D03*
X275047D03*
Y237000D03*
X277016D03*
X278984D03*
X280953D03*
G54D121*
X278000Y231000D03*
G54D134*
X438661Y325000D03*
X421339D03*
G54D135*
X572500Y315661D03*
Y298339D03*
G54D136*
X455000Y328000D03*
Y303000D03*
G54D137*
Y301750D03*
Y329250D03*
X0Y0D02*
M02*
